G04 ================== begin FILE IDENTIFICATION RECORD ==================*
G04 Layout Name:  C:/USERS/GEORGE/DOCUMENTS/GITHUB/AVALON/HARDWARE/allegro/AVALON.brd*
G04 Film Name:    BOTTOM*
G04 File Format:  Gerber RS274X*
G04 File Origin:  Cadence Allegro 16.6-P004*
G04 Origin Date:  Wed Nov 06 20:30:42 2013*
G04 *
G04 Layer:  ETCH/BOTTOM*
G04 Layer:  PIN/BOTTOM*
G04 Layer:  VIA CLASS/BOTTOM*
G04 *
G04 Offset:    (0.00 0.00)*
G04 Mirror:    No*
G04 Mode:      Positive*
G04 Rotation:  0*
G04 FullContactRelief:  No*
G04 UndefLineWidth:     0.00*
G04 ================== end FILE IDENTIFICATION RECORD ====================*
%FSLAX25Y25*MOIN*%
%IR0*IPPOS*OFA0.00000B0.00000*MIA0B0*SFA1.00000B1.00000*%
%ADD11C,.022*%
%ADD10C,.024*%
%ADD12C,.05512*%
%ADD13R,.05512X.05512*%
%ADD14C,.008*%
%ADD16C,.03204*%
%ADD15C,.03404*%
%ADD17C,.06516*%
%ADD18R,.06516X.06516*%
G75*
%LPD*%
G75*
G36*
G01X512000Y1382000D02*
Y1705000D01*
X731800D01*
Y1669800D01*
X723100Y1661100D01*
Y1656800D01*
X723600Y1656300D01*
X729600D01*
X749400Y1676100D01*
X788100D01*
Y1705000D01*
X846000D01*
Y1382000D01*
X512000D01*
G37*
%LPC*%
G75*
G36*
G01X724650Y1639836D02*
G03X724356Y1640425I-484J126D01*
G02X726647Y1641570I644J1575D01*
G03X726941Y1640981I484J-126D01*
G02X724650Y1639836I-644J-1575D01*
G37*
G36*
G01X750902Y1639444D02*
G02X749098I-902J-1444D01*
G01Y1654556D01*
G02X750902I902J1444D01*
G01Y1639444D01*
G37*
G36*
G01X829246Y1637841D02*
G03Y1637159I366J-341D01*
G02X826754I-1246J-1159D01*
G03Y1637841I-366J341D01*
G02X829246I1246J1159D01*
G37*
G36*
G01X680533Y1635087D02*
G03X681433Y1634297I978J207D01*
G02X679635Y1632249I-133J-1697D01*
G03X678735Y1633039I-978J-207D01*
G02X680533Y1635087I133J1697D01*
G37*
G36*
G01X791141Y1577256D02*
G03X790401Y1576257I259J-966D01*
G02X788259Y1577844I-1701J-57D01*
G03X788999Y1578843I-259J966D01*
G02X791141Y1577256I1701J57D01*
G37*
G36*
G01X544381Y1400994D02*
G03X545492Y1400624I812J584D01*
G02X544619Y1398006I508J-1624D01*
G03X543508Y1398376I-812J-584D01*
G02X544381Y1400994I-508J1624D01*
G37*
G36*
G01X728381Y1398994D02*
G03X729492Y1398624I812J584D01*
G02X728619Y1396006I508J-1624D01*
G03X727508Y1396376I-812J-584D01*
G02X728381Y1398994I-508J1624D01*
G37*
G36*
G01X780801Y1644690D02*
G02X779310Y1643199I199J-1690D01*
G03X778199Y1644310I-993J118D01*
G02X779690Y1645801I-199J1690D01*
G03X780801Y1644690I993J-118D01*
G37*
G36*
G01X702007Y1611382D02*
G02X701473Y1609248I993J-1382D01*
G03X699993Y1609618I-897J-442D01*
G02X700527Y1611752I-993J1382D01*
G03X702007Y1611382I897J442D01*
G37*
G36*
G01X731358Y1583664D02*
G02X729313Y1582226I-358J-1664D01*
G03X728532Y1583336I-991J132D01*
G02X730577Y1584774I358J1664D01*
G03X731358Y1583664I991J-132D01*
G37*
G36*
G01X806758Y1546685D02*
G02X805352Y1544575I242J-1685D01*
G03X804242Y1545315I-968J-250D01*
G02X805648Y1547425I-242J1685D01*
G03X806758Y1546685I968J250D01*
G37*
G36*
G01X543758Y1543685D02*
G02X542352Y1541575I242J-1685D01*
G03X541242Y1542315I-968J-250D01*
G02X542648Y1544425I-242J1685D01*
G03X543758Y1543685I968J250D01*
G37*
G36*
G01X717382Y1503993D02*
G02X715248Y1504527I-1382J-993D01*
G03X715618Y1506007I-442J897D01*
G02X717752Y1505473I1382J993D01*
G03X717382Y1503993I442J-897D01*
G37*
G36*
G01X831801Y1502690D02*
G02X830310Y1501199I199J-1690D01*
G03X829199Y1502310I-993J118D01*
G02X830690Y1503801I-199J1690D01*
G03X831801Y1502690I993J-118D01*
G37*
G36*
G01X755801D02*
G02X754310Y1501199I199J-1690D01*
G03X753199Y1502310I-993J118D01*
G02X754690Y1503801I-199J1690D01*
G03X755801Y1502690I993J-118D01*
G37*
G36*
G01X608705Y1501874D02*
G02X606569Y1501772I-1005J-1374D01*
G03X606495Y1503326I-664J747D01*
G02X608631Y1503428I1005J1374D01*
G03X608705Y1501874I664J-747D01*
G37*
G36*
G01X793199Y1501269D02*
G02X790779Y1501662I-1399J-969D01*
G03X791001Y1503031I-600J800D01*
G02X793421Y1502638I1399J969D01*
G03X793199Y1501269I600J-800D01*
G37*
G36*
G01X808007Y1469382D02*
G02X807473Y1467248I993J-1382D01*
G03X805993Y1467618I-897J-442D01*
G02X806527Y1469752I-993J1382D01*
G03X808007Y1469382I897J442D01*
G37*
G36*
G01X729648Y1467575D02*
G02X728242Y1469685I-1648J425D01*
G03X729352Y1470425I142J990D01*
G02X730758Y1468315I1648J-425D01*
G03X729648Y1467575I-142J-990D01*
G37*
G36*
G01X623801Y1466690D02*
G02X622310Y1465199I199J-1690D01*
G03X621199Y1466310I-993J118D01*
G02X622690Y1467801I-199J1690D01*
G03X623801Y1466690I993J-118D01*
G37*
G36*
G01X529690Y1431199D02*
G02X528199Y1432690I-1690J-199D01*
G03X529310Y1433801I118J993D01*
G02X530801Y1432310I1690J199D01*
G03X529690Y1431199I-118J-993D01*
G37*
G36*
G01X791758Y1431085D02*
G02X790269Y1432394I-1658J-385D01*
G03X791342Y1433615I99J995D01*
G02X792831Y1432306I1658J385D01*
G03X791758Y1431085I-99J-995D01*
G37*
G36*
G01X605997Y1429473D02*
G02X604304Y1431302I-1697J127D01*
G03X605303Y1432227I2J1000D01*
G02X606996Y1430398I1697J-127D01*
G03X605997Y1429473I-2J-1000D01*
G37*
G36*
G01X715983Y1428947D02*
G02X714255Y1430901I-1683J253D01*
G03X715217Y1431753I-27J1000D01*
G02X716945Y1429799I1683J-253D01*
G03X715983Y1428947I27J-1000D01*
G37*
G36*
G01X806758Y1398685D02*
G02X805352Y1396575I242J-1685D01*
G03X804242Y1397315I-968J-250D01*
G02X805648Y1399425I-242J1685D01*
G03X806758Y1398685I968J250D01*
G37*
G36*
G01X622801Y1396690D02*
G02X621310Y1395199I199J-1690D01*
G03X620199Y1396310I-993J118D01*
G02X621690Y1397801I-199J1690D01*
G03X622801Y1396690I993J-118D01*
G37*
G54D16*
X536000Y1444000D03*
X534000Y1515000D03*
Y1591000D03*
X563000Y1442000D03*
X561000Y1513000D03*
Y1589000D03*
X613000Y1442000D03*
X614000Y1515000D03*
X640000Y1440000D03*
X641000Y1513000D03*
X720000Y1443000D03*
X721000Y1515000D03*
X747000Y1441000D03*
X748000Y1513000D03*
X797000Y1444000D03*
X798000Y1515000D03*
X797000Y1591000D03*
X824000Y1442000D03*
X825000Y1513000D03*
X824000Y1589000D03*
G54D15*
X526600Y1502000D03*
X528000Y1577000D03*
X523000Y1579000D03*
X532000Y1413000D03*
X541000Y1470000D03*
X544000Y1466000D03*
X529000Y1484000D03*
X530000Y1505000D03*
X529079Y1561079D03*
X531000Y1655000D03*
X548000Y1690000D03*
X567000Y1401000D03*
X570000Y1429000D03*
X567000Y1434000D03*
X565000Y1472000D03*
X568000Y1500000D03*
X565000Y1504000D03*
Y1548000D03*
X585000Y1391000D03*
X580169Y1696000D03*
X595000Y1391000D03*
X609079Y1412079D03*
Y1485079D03*
X595700Y1696000D03*
X621000Y1391000D03*
X644000Y1399000D03*
X645000Y1427000D03*
X643000Y1432000D03*
X645000Y1472000D03*
X648000Y1500000D03*
X644000Y1505000D03*
X652000Y1568000D03*
X671000Y1424000D03*
X668000Y1458000D03*
X673000Y1607000D03*
X658000Y1626000D03*
X670000Y1684000D03*
X683500Y1469500D03*
X677000Y1519000D03*
X682000Y1523000D03*
X693000Y1632000D03*
X687000Y1628000D03*
X693000Y1659000D03*
X684530Y1648452D03*
X691000Y1685000D03*
X716079Y1413079D03*
X717079Y1485079D03*
X699000Y1563000D03*
X710000Y1570000D03*
Y1563000D03*
X711000Y1599000D03*
X705000Y1622048D03*
X699000Y1635000D03*
X709000Y1635621D03*
X698000Y1627000D03*
X697000Y1663000D03*
X717000Y1677000D03*
X712000Y1675000D03*
X728000Y1391000D03*
X720000Y1570000D03*
Y1563000D03*
X721000Y1587000D03*
X725000Y1590000D03*
X728890Y1598890D03*
X732000Y1649000D03*
X719751Y1661000D03*
X728000Y1672000D03*
X725000Y1676000D03*
X751000Y1400000D03*
X754000Y1430000D03*
X749700Y1433400D03*
X752000Y1472000D03*
X739654Y1633654D03*
X750000Y1661000D03*
X755000Y1668000D03*
X767000Y1637000D03*
X760000Y1669000D03*
X793079Y1414079D03*
Y1485079D03*
Y1561079D03*
X786000Y1621000D03*
X786989Y1637385D03*
X783000Y1630000D03*
X786000Y1626000D03*
X791000Y1678000D03*
X804000Y1392000D03*
X813000Y1618000D03*
X806000Y1683000D03*
X828000Y1401000D03*
X831000Y1429000D03*
X827000Y1433000D03*
X829000Y1472000D03*
X828000Y1548000D03*
X832000Y1577000D03*
X828000Y1580000D03*
Y1621000D03*
Y1631000D03*
Y1626000D03*
G54D17*
X670000Y1391000D03*
X680000D03*
X840000Y1650000D03*
Y1680000D03*
Y1670000D03*
G54D18*
X690000Y1391000D03*
X840000Y1640000D03*
%LPD*%
G75*
G54D10*
X523850Y1409000D03*
Y1425000D03*
X526850Y1438300D03*
X521850Y1480000D03*
Y1496000D03*
X524850Y1509300D03*
X526600Y1502000D03*
X521850Y1556000D03*
Y1572000D03*
X523000Y1579000D03*
X524850Y1585300D03*
X538000Y1392850D03*
X543000Y1400000D03*
X546000Y1399000D03*
X532000Y1413000D03*
X528000Y1431000D03*
X539850Y1451000D03*
X531000Y1434000D03*
X549000Y1463850D03*
X536000D03*
X541000Y1470000D03*
X544000Y1466000D03*
X529000Y1484000D03*
X530000Y1505000D03*
X537850Y1522000D03*
X549000Y1539850D03*
X536000D03*
X541000Y1544000D03*
X544000Y1542000D03*
X529079Y1561079D03*
X528000Y1577000D03*
X537850Y1598000D03*
X531000Y1655000D03*
X548000Y1690000D03*
X567000Y1401000D03*
X562000Y1392850D03*
X551000D03*
X570000Y1429000D03*
X553000Y1445150D03*
X569000Y1439000D03*
X567000Y1434000D03*
X565000Y1472000D03*
X560000Y1463850D03*
X551000Y1516150D03*
X567000Y1510000D03*
X568000Y1500000D03*
X565000Y1504000D03*
Y1548000D03*
X560000Y1539850D03*
X551000Y1592150D03*
X567000Y1586000D03*
X576150Y1408000D03*
X585000Y1391000D03*
X576150Y1424000D03*
Y1417000D03*
X574150Y1495000D03*
Y1488000D03*
Y1479000D03*
Y1555000D03*
Y1571000D03*
Y1564000D03*
X580169Y1696000D03*
X600850Y1407000D03*
X595000Y1391000D03*
X600850Y1423000D03*
X609079Y1412079D03*
X604300Y1429600D03*
X607000Y1432100D03*
X603850Y1436300D03*
X601850Y1480000D03*
X609079Y1485079D03*
X601850Y1496000D03*
X604850Y1509300D03*
X607700Y1500500D03*
X607500Y1504700D03*
X595700Y1696000D03*
X628000Y1390850D03*
X615000D03*
X620000Y1398000D03*
X621000Y1391000D03*
X623000Y1395000D03*
X630000Y1443150D03*
X616850Y1449000D03*
X629000Y1463850D03*
X616000D03*
X621000Y1468000D03*
X624000Y1465000D03*
X631000Y1516150D03*
X617850Y1522000D03*
X644000Y1399000D03*
X653150Y1406000D03*
X639000Y1390850D03*
X653150Y1422000D03*
Y1415000D03*
X645000Y1427000D03*
X643000Y1432000D03*
X646000Y1437000D03*
X645000Y1472000D03*
X640000Y1463850D03*
X654150Y1495000D03*
Y1488000D03*
Y1479000D03*
X647000Y1510000D03*
X648000Y1500000D03*
X644000Y1505000D03*
X652000Y1568000D03*
X670000Y1391000D03*
X671000Y1424000D03*
X668000Y1458000D03*
X673000Y1607000D03*
X658000Y1626000D03*
X670000Y1684000D03*
X683500Y1469500D03*
X691776Y1477776D03*
X677000Y1519000D03*
X682000Y1523000D03*
X678868Y1634736D03*
X681300Y1632600D03*
X693000Y1632000D03*
X687000Y1628000D03*
X693000Y1659000D03*
X684530Y1648452D03*
X691000Y1685000D03*
X697000Y1399000D03*
X707850Y1408000D03*
Y1424000D03*
X716079Y1413079D03*
X714300Y1429200D03*
X716900Y1431500D03*
X710850Y1437300D03*
X708850Y1480000D03*
X717079Y1485079D03*
X708850Y1496000D03*
X711850Y1509300D03*
X716000Y1503000D03*
X717000Y1507000D03*
X699000Y1563000D03*
X710000Y1570000D03*
Y1563000D03*
X711000Y1599000D03*
X699000Y1611000D03*
X703000Y1610000D03*
X705000Y1622048D03*
X699000Y1635000D03*
X709000Y1635621D03*
X698000Y1627000D03*
X697000Y1663000D03*
X717000Y1677000D03*
X712000Y1675000D03*
X735000Y1391850D03*
X722000D03*
X727000Y1398000D03*
X728000Y1391000D03*
X730000Y1397000D03*
X737000Y1444150D03*
X723850Y1450000D03*
X736000Y1463850D03*
X723000D03*
X728000Y1468000D03*
X731000Y1470000D03*
X738000Y1516150D03*
X724850Y1522000D03*
X720000Y1570000D03*
Y1563000D03*
X721000Y1587000D03*
X725000Y1590000D03*
X728890Y1598890D03*
Y1585000D03*
X731000Y1582000D03*
X725000Y1642000D03*
X726297Y1639406D03*
X732000Y1649000D03*
X719751Y1661000D03*
X728000Y1672000D03*
X725000Y1676000D03*
X725100Y1668400D03*
X751000Y1400000D03*
X746000Y1391850D03*
X754000Y1430000D03*
X753000Y1438000D03*
X749700Y1433400D03*
X752000Y1472000D03*
X747000Y1463850D03*
X754000Y1510000D03*
X756000Y1501000D03*
X753000Y1504000D03*
X750000Y1638000D03*
X739654Y1633654D03*
X750000Y1661000D03*
Y1656000D03*
X755000Y1668000D03*
X760150Y1407000D03*
Y1423000D03*
Y1416000D03*
X761150Y1495000D03*
Y1488000D03*
Y1479000D03*
X767000Y1637000D03*
X778000Y1646000D03*
X760000Y1669000D03*
X784850Y1409000D03*
X799000Y1392850D03*
X784850Y1425000D03*
X793079Y1414079D03*
X790100Y1430700D03*
X800850Y1451000D03*
X787850Y1438300D03*
X793000Y1434000D03*
X800000Y1463850D03*
X785850Y1480000D03*
X793079Y1485079D03*
X785850Y1496000D03*
X788850Y1509300D03*
X791800Y1500300D03*
X792400Y1504000D03*
X784850Y1556000D03*
X799000Y1539850D03*
X784850Y1572000D03*
X790700Y1578900D03*
X788700Y1576200D03*
X793079Y1561079D03*
X800850Y1598000D03*
X787850Y1585300D03*
X786000Y1621000D03*
X786989Y1637385D03*
X783000Y1630000D03*
X786000Y1626000D03*
X781000Y1643000D03*
X791000Y1678000D03*
X812000Y1392850D03*
X804000Y1399000D03*
Y1392000D03*
X807000Y1397000D03*
X814000Y1445150D03*
X813000Y1463850D03*
X805000Y1469000D03*
X809000Y1468000D03*
X815000Y1516150D03*
X801850Y1522000D03*
X812000Y1539850D03*
X804000Y1547000D03*
X807000Y1545000D03*
X814000Y1592150D03*
X813000Y1618000D03*
X806000Y1683000D03*
X828000Y1401000D03*
X837150Y1408000D03*
X823000Y1392850D03*
X837150Y1424000D03*
Y1417000D03*
X831000Y1429000D03*
X830000Y1439000D03*
X827000Y1433000D03*
X829000Y1472000D03*
X824000Y1463850D03*
X838150Y1495000D03*
Y1488000D03*
Y1479000D03*
X831000Y1510000D03*
X832000Y1501000D03*
X829000Y1504000D03*
X828000Y1548000D03*
X837150Y1555000D03*
X823000Y1539850D03*
X837150Y1571000D03*
Y1564000D03*
X832000Y1577000D03*
X830000Y1586000D03*
X828000Y1580000D03*
Y1621000D03*
Y1636000D03*
Y1639000D03*
Y1631000D03*
Y1626000D03*
G54D11*
X544691Y1410158D03*
X541191D03*
X544691Y1417158D03*
Y1420658D03*
Y1424158D03*
Y1427658D03*
Y1413658D03*
X541191Y1417158D03*
Y1420658D03*
Y1424158D03*
Y1427658D03*
Y1413658D03*
X536000Y1444000D03*
X542591Y1488258D03*
X546091D03*
X542591Y1491758D03*
X546091D03*
X542591Y1481258D03*
X546091D03*
X542591Y1484758D03*
X546091D03*
X539091Y1488258D03*
Y1491758D03*
Y1481258D03*
Y1484758D03*
X534000Y1515000D03*
X542591Y1495258D03*
X546091D03*
X542591Y1498758D03*
X546091D03*
X539091Y1495258D03*
Y1498758D03*
X546264Y1557369D03*
X542764D03*
X539264D03*
X546264Y1574869D03*
X542764D03*
X539264D03*
X546264Y1571369D03*
X542764D03*
X539264D03*
X546264Y1567869D03*
X542764D03*
X539264D03*
X546264Y1564369D03*
X542764D03*
X539264D03*
X546264Y1560869D03*
X542764D03*
X539264D03*
X534000Y1591000D03*
X548191Y1410158D03*
X551691D03*
X555191D03*
X558691D03*
X548191Y1417158D03*
X551691D03*
X555191D03*
X558691D03*
X548191Y1420658D03*
X551691D03*
X555191D03*
X558691D03*
X548191Y1424158D03*
X551691D03*
X555191D03*
X558691D03*
X548191Y1427658D03*
X555191D03*
X558691D03*
X551691D03*
X548191Y1413658D03*
X551691D03*
X555191D03*
X558691D03*
X563000Y1442000D03*
X549591Y1488258D03*
X553091D03*
X556591D03*
X549591Y1491758D03*
X553091D03*
X556591D03*
X549591Y1481258D03*
X553091D03*
X556591D03*
X549591Y1484758D03*
X553091D03*
X556591D03*
X561000Y1513000D03*
X549591Y1495258D03*
X553091D03*
X556591D03*
X553091Y1498758D03*
X556591D03*
X549591D03*
X556764Y1557369D03*
X553264D03*
X549764D03*
X556764Y1574869D03*
X553264D03*
X549764D03*
X556764Y1571369D03*
X553264D03*
X549764D03*
X556764Y1567869D03*
X553264D03*
X549764D03*
X556764Y1564369D03*
X553264D03*
X549764D03*
X556764Y1560869D03*
X553264D03*
X549764D03*
X561000Y1589000D03*
X621791Y1408358D03*
X625291D03*
X628791D03*
X618291D03*
X621791Y1415358D03*
X625291D03*
X628791D03*
X621791Y1418858D03*
X625291D03*
X628791D03*
X621791Y1422358D03*
X625291D03*
X628791D03*
X621791Y1425858D03*
X625291D03*
X628791D03*
X621791Y1411858D03*
X625291D03*
X628791D03*
X618291Y1415358D03*
Y1418858D03*
Y1422358D03*
Y1425858D03*
Y1411858D03*
X613000Y1442000D03*
X622791Y1488458D03*
X626291D03*
X629791D03*
X622791Y1491958D03*
X626291D03*
X629791D03*
X622791Y1481458D03*
X626291D03*
X629791D03*
X622791Y1484958D03*
X626291D03*
X629791D03*
X619291Y1488458D03*
Y1491958D03*
Y1481458D03*
Y1484958D03*
X614000Y1515000D03*
X622791Y1495458D03*
X626291D03*
X629791D03*
X622791Y1498958D03*
X626291D03*
X629791D03*
X619291Y1495458D03*
Y1498958D03*
X632291Y1408358D03*
X635791D03*
X632291Y1415358D03*
X635791D03*
X632291Y1418858D03*
X635791D03*
X632291Y1422358D03*
X635791D03*
X632291Y1425858D03*
X635791D03*
X632291Y1411858D03*
X635791D03*
X640000Y1440000D03*
X633291Y1488458D03*
X636791D03*
X633291Y1491958D03*
X636791D03*
X633291Y1481458D03*
X636791D03*
X633291Y1484958D03*
X636791D03*
X641000Y1513000D03*
X633291Y1495458D03*
X636791D03*
X633291Y1498958D03*
X636791D03*
X728691Y1409558D03*
X732191D03*
X735691D03*
X725191D03*
X728691Y1416558D03*
X732191D03*
X735691D03*
X728691Y1420058D03*
X732191D03*
X735691D03*
X728691Y1423558D03*
X732191D03*
X735691D03*
X728691Y1427058D03*
X732191D03*
X735691D03*
X728691Y1413058D03*
X732191D03*
X735691D03*
X725191Y1416558D03*
Y1420058D03*
Y1423558D03*
Y1427058D03*
Y1413058D03*
X720000Y1443000D03*
X729891Y1488258D03*
X733391D03*
X736891D03*
X729891Y1491758D03*
X733391D03*
X736891D03*
X729891Y1481258D03*
X733391D03*
X736891D03*
X729891Y1484758D03*
X733391D03*
X736891D03*
X726391Y1488258D03*
Y1491758D03*
Y1481258D03*
Y1484758D03*
X721000Y1515000D03*
X729891Y1495258D03*
X733391D03*
X736891D03*
X729891Y1498758D03*
X733391D03*
X736891D03*
X726391Y1495258D03*
Y1498758D03*
X739191Y1409558D03*
X742691D03*
X739191Y1416558D03*
X742691D03*
X739191Y1420058D03*
X742691D03*
X739191Y1423558D03*
X742691D03*
X739191Y1427058D03*
X742691D03*
X739191Y1413058D03*
X742691D03*
X747000Y1441000D03*
X740391Y1488258D03*
X743891D03*
X740391Y1491758D03*
X743891D03*
X740391Y1481258D03*
X743891D03*
X740391Y1484758D03*
X743891D03*
X748000Y1513000D03*
X740391Y1495258D03*
X743891D03*
X740391Y1498758D03*
X743891D03*
X797000Y1444000D03*
X798000Y1515000D03*
X797000Y1591000D03*
X805891Y1417358D03*
X809391D03*
X812891D03*
X816391D03*
X819891D03*
X805891Y1420858D03*
X809391D03*
X812891D03*
X816391D03*
X819891D03*
X805891Y1424358D03*
X809391D03*
X812891D03*
X816391D03*
X819891D03*
X805891Y1427858D03*
X809391D03*
X816391D03*
X819891D03*
X812891D03*
X805891Y1410358D03*
X809391D03*
X812891D03*
X816391D03*
X819891D03*
X805891Y1413858D03*
X809391D03*
X812891D03*
X816391D03*
X819891D03*
X802391Y1417358D03*
Y1420858D03*
Y1424358D03*
Y1427858D03*
Y1410358D03*
Y1413858D03*
X806691Y1488358D03*
X810191D03*
X813691D03*
X817191D03*
X820691D03*
X806691Y1491858D03*
X810191D03*
X813691D03*
X817191D03*
X820691D03*
X806691Y1481358D03*
X810191D03*
X813691D03*
X817191D03*
X820691D03*
X806691Y1484858D03*
X810191D03*
X813691D03*
X817191D03*
X820691D03*
X803191Y1488358D03*
Y1491858D03*
Y1481358D03*
Y1484858D03*
X806691Y1495358D03*
X810191D03*
X813691D03*
X817191D03*
X820691D03*
X806691Y1498858D03*
X810191D03*
X817191D03*
X820691D03*
X813691D03*
X803191Y1495358D03*
Y1498858D03*
X805791Y1557458D03*
X809291D03*
X812791D03*
X816291D03*
X819791D03*
X802291D03*
X805791Y1564458D03*
X809291D03*
X812791D03*
X816291D03*
X819791D03*
X805791Y1567958D03*
X809291D03*
X812791D03*
X816291D03*
X819791D03*
X805791Y1571458D03*
X809291D03*
X812791D03*
X816291D03*
X819791D03*
X805791Y1574958D03*
X809291D03*
X816291D03*
X819791D03*
X812791D03*
X805791Y1560958D03*
X809291D03*
X812791D03*
X816291D03*
X819791D03*
X802291Y1564458D03*
Y1567958D03*
Y1571458D03*
Y1574958D03*
Y1560958D03*
X824000Y1442000D03*
X825000Y1513000D03*
X824000Y1589000D03*
G54D12*
X670000Y1391000D03*
X680000D03*
X840000Y1660000D03*
Y1650000D03*
Y1680000D03*
Y1670000D03*
G54D13*
X690000Y1391000D03*
X840000Y1640000D03*
G54D14*
G01X750000Y1656000D02*
Y1638000D01*
M02*
