M48
METRIC,TZ
T01C.3302
T02C.8001
T03C3.299968
;LEADER: 12 
;HEADER: 
;CODE  : ASCII 
;FILE  : drills-1-4.drl for  ... layers TOP and BOTTOM
;T01 Holesize 1. = 0.330200 Tolerance = +0.000000/-0.000000 PLATED MM Quantity = 654
;T02 Holesize 2. = 0.800100 Tolerance = +0.100076/-0.100076 PLATED MM Quantity = 8
%
G90
T01
X17449800Y41351200
X17729200Y41325800
X13462000Y38227000
X14401800Y36423600
X18008600Y41544773
X14478000Y36296600
X13375640Y38150800
X14351000Y38201600
X13284200Y40106600
X14427200Y38100000
X13411200Y40055800
X13487400Y36423600
X16332200Y36372800
X16383000Y36245800
X13411200Y36347400
X18787212Y41494812
X18567400Y40182800
X16357600Y38227000
X15417800Y36375340
X18288000Y39700200
X18034000Y39700200
X15349220Y36311840
X16459200Y38100000
X18288000Y39878000
X18034000Y39878000
X15430500Y38219380
X19126200Y38201600
X19202400Y38125400
X15435580Y38112700
X17094200Y40817800
X17856200Y40894000
X19042380Y36408360
X18211800Y38277800
X19151600Y36322000
X18186400Y38176200
X21005800Y36398200
X18209260Y36360100
X21107400Y36296600
X18143220Y36301680
X17754600Y40919400
X16713200Y41300400
X21056600Y38201600
X20142200Y36423600
X21132800Y38125400
X20068540Y36339780
X13919200Y42926000
X18513806Y40259000
X18059400Y40614600
X18513806Y40611806
X15130780Y43078400
X14736293Y43078400
X18213807Y37721007
X21031200Y41300400
X13436600Y37693600
X19964400Y41300400
X20144207Y37721007
X21031200Y41427400
X13512800Y35890200
X19964400Y41173400
X18188407Y35892207
X21031200Y41630600
X15470607Y35866807
X21031200Y41173400
X20144207Y35917607
X21031200Y41554400
X15470607Y37721007
X20650200Y41097200
X13438607Y39651407
X19888200Y41402000
X20144207Y39651407
X19989521Y41589579
X20497800Y35483800
X20497800Y39243000
X20548600Y37287200
X13817600Y39166800
X13868400Y35534600
X13817600Y37236400
X14859000Y35331400
X15113000Y35331400
X15824200Y35433000
X15849600Y37211000
X18542000Y35483800
X18567400Y37338000
X19837400Y41732200
X21031200Y40132000
X20126960Y38201600
X21132800Y40055800
X20111720Y38107620
X20032980Y40035480
X17602200Y41452800
X17754600Y41529000
X20083780Y40104060
X15773400Y35331400
X15748000Y35509200
X15773400Y37287200
X13741400Y39217600
X13741400Y37338000
X13792200Y35560000
X20421600Y35356800
X20421600Y35534600
X20421600Y39293800
X20447000Y37312600
X18491200Y35331400
X18465800Y35509200
X18491200Y37287200
X19761200Y41808400
X18417540Y42377360
X13614400Y37181790
X13331190Y38336220
X13254990Y37592000
X13254990Y37998400
X13661390Y38658800
X13944600Y37181790
X14224000Y37181790
X14583410Y37566600
X14583410Y37795200
X14583410Y37973000
X14401800Y38354000
X13995400Y38510210
X15621000Y35327590
X15337790Y36482020
X15261590Y35737800
X15261590Y36144200
X15667990Y36804600
X15951200Y35327590
X16230600Y35327590
X16590010Y35712400
X16590010Y35941000
X16590010Y36118800
X16408400Y36499800
X16002000Y36656010
X15646400Y37181790
X15363190Y38336220
X15286990Y37592000
X15286990Y37998400
X15693390Y38658800
X15976600Y37181790
X16256000Y37181790
X16615410Y37566600
X16615410Y37795200
X16615410Y37973000
X16433800Y38354000
X16027400Y38510210
X18338800Y35352990
X18055590Y36507420
X17979390Y35763200
X17979390Y36169600
X18385790Y36830000
X18669000Y35352990
X18948400Y35352990
X19307810Y35737800
X19307810Y35966400
X19307810Y36144200
X19126200Y36525200
X18719800Y36681410
X20294600Y35378390
X20011390Y36532820
X19935190Y35788600
X19935190Y36195000
X20341590Y36855400
X20624800Y35378390
X20904200Y35378390
X21263610Y35763200
X21263610Y35991800
X21263610Y36169600
X21082000Y36550600
X20675600Y36706810
X18364200Y37181790
X18080990Y38336220
X18004790Y37592000
X18004790Y37998400
X18411190Y38658800
X18694400Y37181790
X18973800Y37181790
X19333210Y37566600
X19333210Y37795200
X19333210Y37973000
X19151600Y38354000
X18745200Y38510210
X20320000Y37181790
X20036790Y38336220
X19960590Y37592000
X19960590Y37998400
X20366990Y38658800
X20650200Y37181790
X20929600Y37181790
X21289010Y37566600
X21289010Y37795200
X21289010Y37973000
X21107400Y38354000
X20701000Y38510210
X13665200Y35378390
X13381990Y36532820
X13305790Y35788600
X13305790Y36195000
X13712190Y36855400
X13995400Y35378390
X14274800Y35378390
X14634210Y35763200
X14634210Y35991800
X14634210Y36169600
X14452600Y36550600
X14046200Y36706810
X20294600Y39112190
X20011390Y40266620
X19935190Y39522400
X19935190Y39928800
X20341590Y40589200
X20624800Y39112190
X20904200Y39112190
X21263610Y39497000
X21263610Y39725600
X21263610Y39903400
X21082000Y40284400
X20675600Y40440610
X17571110Y37535510
X17703800Y35534600
X13614400Y39112190
X13254990Y39522400
X13254990Y39928800
X13661390Y40589200
X13944600Y39112190
X14224000Y39112190
X14583410Y39497000
X14583410Y39725600
X14583410Y39903400
X14401800Y40284400
X13995400Y40440610
X13697306Y39557173
R05X88900
X13697306Y39646073
R05X88900
X13697306Y39734973
R05X88900
X13697306Y39823873
R05X88900
X13697306Y39912773
R05X88900
X13697306Y40001673
R05X88900
X13692911Y37712853
X13692911Y37623953
X13692911Y38068453
R03Y-88900
X14137411Y37712853
R04X-88900
X14137411Y37623953
R04X-88900
X13959611Y38068453
X14137411Y38068453
X14048511Y38068453
X13870711Y38068453
X13781811Y38068453
X14137411Y37979553
R04X-88900
X14137411Y37890653
R04X-88900
X14137411Y37801753
R04X-88900
X13746251Y35906913
X13746251Y35818013
X13746251Y36262513
R03Y-88900
X14190751Y35906913
R04X-88900
X14190751Y35818013
R04X-88900
X14012951Y36262513
X14190751Y36262513
X14101851Y36262513
X13924051Y36262513
X13835151Y36262513
X14190751Y36173613
R04X-88900
X14190751Y36084713
R04X-88900
X14190751Y35995813
R04X-88900
X15704591Y35861193
X15704591Y35772293
X15704591Y36216793
R03Y-88900
X16149091Y35861193
R04X-88900
X16149091Y35772293
R04X-88900
X15971291Y36216793
X16149091Y36216793
X16060191Y36216793
X15882391Y36216793
X15793491Y36216793
X16149091Y36127893
R04X-88900
X16149091Y36038993
R04X-88900
X16149091Y35950093
R04X-88900
X18419851Y35891673
X18419851Y35802773
X18419851Y36247273
R03Y-88900
X18864351Y35891673
R04X-88900
X18864351Y35802773
R04X-88900
X18686551Y36247273
X18864351Y36247273
X18775451Y36247273
X18597651Y36247273
X18508751Y36247273
X18864351Y36158373
R04X-88900
X18864351Y36069473
R04X-88900
X18864351Y35980573
R04X-88900
X20380731Y35911993
X20380731Y35823093
X20380731Y36267593
R03Y-88900
X20825231Y35911993
R04X-88900
X20825231Y35823093
R04X-88900
X20647431Y36267593
X20825231Y36267593
X20736331Y36267593
X20558531Y36267593
X20469631Y36267593
X20825231Y36178693
R04X-88900
X20825231Y36089793
R04X-88900
X20825231Y36000893
R04X-88900
X15729991Y37717933
X15729991Y37629033
X15729991Y38073533
R03Y-88900
X16174491Y37717933
R04X-88900
X16174491Y37629033
R04X-88900
X15996691Y38073533
X16174491Y38073533
X16085591Y38073533
X15907791Y38073533
X15818891Y38073533
X16174491Y37984633
R04X-88900
X16174491Y37895733
R04X-88900
X16174491Y37806833
R04X-88900
X18450331Y37712853
X18450331Y37623953
X18450331Y38068453
R03Y-88900
X18894831Y37712853
R04X-88900
X18894831Y37623953
R04X-88900
X18717031Y38068453
X18894831Y38068453
X18805931Y38068453
X18628131Y38068453
X18539231Y38068453
X18894831Y37979553
R04X-88900
X18894831Y37890653
R04X-88900
X18894831Y37801753
R04X-88900
X20401051Y37715393
X20401051Y37626493
X20401051Y38070993
R03Y-88900
X20845551Y37715393
R04X-88900
X20845551Y37626493
R04X-88900
X20667751Y38070993
X20845551Y38070993
X20756651Y38070993
X20578851Y38070993
X20489951Y38070993
X20845551Y37982093
R04X-88900
X20845551Y37893193
R04X-88900
X20845551Y37804293
R04X-88900
X20378191Y39648333
X20378191Y39559433
X20378191Y40003933
R03Y-88900
X20822691Y39648333
R04X-88900
X20822691Y39559433
R04X-88900
X20644891Y40003933
X20822691Y40003933
X20733791Y40003933
X20555991Y40003933
X20467091Y40003933
X20822691Y39915033
R04X-88900
X20822691Y39826133
R04X-88900
X20822691Y39737233
R04X-88900
X13331190Y40266620
X15570200Y36626800
X15595600Y38481000
X18288000Y36652200
X20243800Y36677600
X20269200Y38481000
X13614400Y36677600
X14351000Y39319200
X13487400Y42037000
X13563600Y40411400
X14249400Y40360600
X16967200Y37033200
X19481800Y41579800
X17907000Y41200019
X18281675Y42189400
X18592800Y41884600
X17387062Y41870681
X19177000Y42367200
X20243800Y40411400
X20929600Y40360600
X21031200Y39319200
X14300200Y36626800
X14401800Y35585400
X20955000Y38430200
X21056600Y37388800
X18313400Y38481000
X18999200Y38430200
X19100800Y37388800
X20929600Y36626800
X21031200Y35585400
X18973800Y36601400
X19075400Y35560000
X16281400Y38430200
X16383000Y37388800
X16256000Y36576000
X16357600Y35534600
X13563600Y38481000
X14249400Y38430200
X14351000Y37388800
X17018000Y42773600
X18084800Y42545000
X18211800Y42595800
X17551400Y42799000
X20091400Y42621200
X18415000Y42570400
X17322800Y38684200
X17305020Y41468040
X17243247Y41522294
X17195800Y38582600
X20472400Y42748200
X18491200Y42468800
X17360900Y37325300
X17043400Y36169600
X19050000Y42062400
X19050000Y41605200
X16560800Y39827200
X17754600Y39700200
X17602200Y42138600
X19050000Y42189400
X17703800Y42240200
X19304000Y42392600
X18415000Y40386000
X18447944Y41640912
X18313400Y40309800
X18415000Y41706800
X17018000Y35331400
T02
X17526000Y35331400
X17272000Y35331400
X17018000Y35331400
X21336000Y41656000
R04Y254000
M30
