M48
INCH
T01C.013
T02C.0315
T03C.12992
;LEADER: 12 
;HEADER: 
;CODE  : ASCII 
;FILE  : drills-bl-2-3.drl for  ... layers 2 and 3
;T01 Holesize 1. = 13.000000 Tolerance = +0.000000/-0.000000 PLATED MILS Quantity = 744
;T02 Holesize 2. = 31.500000 Tolerance = +3.940000/-3.940000 PLATED MILS Quantity = 8
;T03 Holesize 3. = 129.920000 Tolerance = +0.000000/-0.000000 NON_PLATED MILS Quantity = 4
%
G90
T01
X056490Y143450
X056930Y143330
X053100Y143400
X052800Y143100
X060330Y142990
X053200Y141300
X054600Y139900
X054400Y146600
X059085Y139509
X060085Y139509
X054100Y147000
X054300Y140000
X053600Y146385
X052185Y148000
X054900Y146385
X056000Y146385
X057415Y147900
X060385Y143630
X060085Y140700
X060085Y142300
X060185Y148000
X053800Y139285
X052685Y143830
X052385Y140900
X052385Y142500
X053985Y145100
X055100Y139285
X056200Y139285
X057615Y140800
X057615Y141700
X057615Y142400
X056900Y143900
X055300Y144515
X055169Y142416
X054819Y142416
X054469Y142416
X055869Y142066
X055519Y142066
X055169Y142066
X054819Y142066
X054469Y142066
X055869Y141716
X055519Y141716
X055169Y141716
X054819Y141716
X054469Y141716
X054469Y141016
X055169Y142766
X055869Y142766
X055519Y142766
X054819Y142766
X054469Y142766
X055869Y142416
X055519Y142416
X055169Y141366
X054819Y141366
X054469Y141366
X055869Y141016
X055519Y141016
X055169Y141016
X054819Y141016
X054119Y141716
X055869Y141366
X055519Y141366
X054119Y142766
X054119Y142416
X054119Y142066
X054119Y141366
X054119Y141016
X056700Y140100
X056500Y147200
X053600Y144400
X056300Y144200
X053000Y150500
X052660Y150200
X056740Y150310
X052300Y157900
X056800Y150000
X052800Y157700
X052900Y148400
X052908Y156108
X054400Y154200
X054100Y154400
X052485Y150930
X052185Y149600
X053785Y152200
X057415Y148800
X057415Y149500
X056700Y151000
X055100Y151615
X060185Y149600
X053600Y153985
X052185Y155600
X052185Y157200
X054900Y153985
X056000Y153985
X057415Y155500
X057415Y156400
X057415Y157100
X055326Y156787
X055676Y156787
X054976Y156787
X054626Y156787
X055326Y157487
X055676Y157487
X055326Y155737
X053926Y155737
X055676Y156437
X055326Y156437
X054976Y156437
X054626Y156437
X054276Y156437
X053926Y156437
X055676Y156087
X055326Y156087
X054976Y156087
X054626Y156087
X054276Y156087
X053926Y156087
X055676Y155737
X053909Y148476
X053909Y148126
X053909Y149876
X053909Y149526
X053909Y149176
X053909Y148826
X055659Y148476
X055309Y148476
X054959Y148476
X054609Y148476
X054259Y148476
X055659Y148126
X055309Y148126
X054959Y148126
X054609Y148126
X054259Y148126
X054959Y149876
X055659Y149876
X055309Y149876
X054609Y149876
X054259Y149876
X055659Y149526
X055309Y149526
X054959Y149526
X054609Y149526
X054259Y149526
X055659Y149176
X055309Y149176
X054959Y149176
X054609Y149176
X054259Y149176
X055659Y148826
X055309Y148826
X054959Y148826
X054609Y148826
X054259Y148826
X054276Y157137
X054626Y157137
X055326Y157137
X054976Y157137
X055676Y157137
X053926Y157487
X053926Y157137
X054976Y157487
X054276Y156787
X053926Y156787
X054276Y157487
X054626Y157487
X054976Y155737
X054276Y155737
X054626Y155737
X056500Y154800
X053400Y151500
X056100Y151300
X053785Y159800
X056700Y158600
X055100Y159215
X052485Y158530
X059806Y167933
X059213Y167933
X059213Y167238
X058813Y167786
X058813Y167238
X058813Y166690
X056100Y158900
X053100Y165500
X053400Y159100
X054800Y169000
X059570Y169600
X058017Y169600
X059871Y168333
X059342Y168333
X058813Y168333
X061987Y168333
X061458Y168333
X060929Y168333
X060400Y168333
X067000Y168400
X069100Y168500
X068700Y162800
X069800Y162700
X067300Y160700
X070300Y161000
X069900Y161100
X065800Y162600
X069300Y163200
X069900Y163500
X060551Y164818
X061751Y164418
X061351Y164018
X060551Y164018
X061751Y163618
X061351Y163218
X060551Y163218
X061751Y162818
X061351Y162418
X060551Y162418
X061751Y162018
X061351Y161618
X060551Y161618
X061751Y161218
X061351Y160818
X060551Y160818
X061751Y160418
X061351Y160018
X060551Y160018
X061751Y159618
X061351Y159218
X060551Y159218
X061751Y158818
X061351Y158418
X060551Y158418
X061751Y158018
X061351Y166418
X060551Y166418
X061751Y166018
X061351Y165618
X060551Y165618
X061751Y165218
X061351Y164818
X063346Y163419
X063849Y163419
X064351Y163419
X064854Y163419
X064854Y164181
X064351Y164181
X063849Y164181
X063346Y164181
X061587Y167238
X061587Y167933
X060994Y167933
X060400Y167933
X061987Y167238
X061987Y167785
X068453Y164845
X068130Y163260
X067887Y163474
X069300Y165900
X069700Y166300
X064270Y150420
X064800Y150000
X060750Y150470
X060770Y150050
X075350Y143300
X075380Y142940
X071690Y143150
X071430Y142920
X079300Y143400
X079010Y143070
X071608Y141308
X079308Y141408
X060908Y148508
X073000Y139700
X073100Y147000
X072800Y139100
X072700Y139800
X072800Y146800
X060485Y150930
X061785Y152200
X065415Y148800
X065415Y149500
X064700Y151000
X063100Y151615
X072200Y139185
X071085Y143730
X070785Y140800
X070785Y142400
X072385Y145000
X073500Y139185
X074600Y139185
X076015Y140700
X076015Y141600
X076015Y142300
X075300Y143800
X073700Y144415
X079900Y139285
X078785Y143830
X078485Y140900
X078485Y142500
X080085Y145100
X072300Y146385
X070885Y148000
X073600Y146385
X074700Y146385
X076115Y147900
X080000Y146385
X078585Y148000
X062629Y148846
X062279Y148846
X061929Y148146
X061929Y149896
X061929Y149546
X061929Y149196
X061929Y148846
X063679Y148496
X063329Y148496
X062979Y148496
X062629Y148496
X062279Y148496
X063679Y148146
X063329Y148146
X062979Y148146
X062629Y148146
X062279Y148146
X062979Y149896
X063679Y149896
X063329Y149896
X062629Y149896
X062279Y149896
X063679Y149546
X063329Y149546
X062979Y149546
X062629Y149546
X062279Y149546
X063679Y149196
X063329Y149196
X062979Y149196
X062629Y149196
X062279Y149196
X063679Y148846
X063329Y148846
X062979Y148846
X061929Y148496
X080239Y141036
X080239Y142786
X080239Y142436
X080239Y142086
X080239Y141736
X080239Y141386
X073219Y141656
X072869Y141656
X072519Y141306
X072519Y140956
X072519Y142706
X072519Y142356
X072519Y142006
X072519Y141656
X074269Y141306
X073919Y141306
X073569Y141306
X073219Y141306
X072869Y141306
X074269Y140956
X073919Y140956
X073569Y140956
X073219Y140956
X072869Y140956
X073569Y142706
X074269Y142706
X073919Y142706
X073219Y142706
X072869Y142706
X074269Y142356
X073919Y142356
X073569Y142356
X073219Y142356
X072869Y142356
X074269Y142006
X073919Y142006
X073569Y142006
X073219Y142006
X072869Y142006
X074269Y141656
X073919Y141656
X073569Y141656
X061351Y157618
X060551Y157618
X061751Y157218
X061351Y156818
X060551Y156818
X061751Y156418
X061351Y156018
X060551Y156018
X061751Y155618
X061351Y155218
X060551Y155218
X061751Y154818
X061351Y154418
X060551Y154418
X061751Y154018
X061351Y153618
X060551Y153618
X065964Y157816
X065564Y157416
X065964Y157016
X065564Y156616
X065964Y156216
X065564Y155816
X065964Y155416
X065564Y155016
X065964Y154616
X065564Y154216
X065964Y153816
X065564Y153416
X075200Y147200
X075100Y140000
X079700Y144400
X072000Y144300
X074700Y144100
X061400Y151500
X064100Y151300
X068200Y152300
X067700Y151900
X065200Y156800
X069900Y156300
X064130Y143180
X064650Y142710
X060700Y143210
X072000Y156300
X071000Y156300
X072000Y157000
X071000Y157000
X075440Y150450
X075580Y150110
X071580Y150410
X071330Y150130
X071708Y148508
X079308Y148508
X060908Y141208
X079308Y156108
X062320Y139510
X062400Y146500
X079160Y150400
X079180Y150030
X078870Y157620
X079070Y157890
X062100Y139100
X062000Y139800
X062100Y146800
X061500Y139085
X061685Y144900
X062800Y139085
X063900Y139085
X065315Y140600
X065315Y141500
X065315Y142200
X064600Y143700
X063000Y144315
X061600Y146385
X062900Y146385
X064000Y146385
X065415Y147900
X071185Y150930
X070885Y149600
X072485Y152200
X076115Y148800
X076115Y149500
X075400Y151000
X073800Y151615
X078885Y150930
X078585Y149600
X080185Y152200
X079900Y153985
X078485Y155600
X078485Y157200
X069178Y147778
X069700Y139900
X080229Y156096
X080229Y155746
X080229Y157496
X080229Y157146
X080229Y156796
X080229Y156446
X080319Y148136
X080319Y149886
X080319Y149536
X080319Y149186
X080319Y148836
X080319Y148486
X072639Y148126
X072639Y149876
X072639Y149526
X072639Y149176
X072639Y148826
X074389Y148476
X074039Y148476
X073689Y148476
X073339Y148476
X072989Y148476
X074389Y148126
X074039Y148126
X073689Y148126
X073339Y148126
X072989Y148126
X073689Y149876
X074389Y149876
X074039Y149876
X073339Y149876
X072989Y149876
X074389Y149526
X074039Y149526
X073689Y149526
X073339Y149526
X072989Y149526
X074389Y149176
X074039Y149176
X073689Y149176
X073339Y149176
X072989Y149176
X074389Y148826
X074039Y148826
X073689Y148826
X073339Y148826
X072989Y148826
X072639Y148476
X062179Y141886
X063579Y141536
X063229Y141536
X062879Y141536
X062529Y141536
X062179Y141536
X062879Y141886
X062529Y141886
X063229Y141886
X061829Y142586
X061829Y142236
X061829Y141886
X061829Y141536
X063579Y141186
X063229Y141186
X062879Y141186
X062529Y141186
X062179Y141186
X063579Y140836
X063229Y140836
X062879Y140836
X062529Y140836
X062179Y140836
X062879Y142586
X063579Y142586
X063229Y142586
X062529Y142586
X062179Y142586
X063579Y142236
X063229Y142236
X062879Y142236
X062529Y142236
X062179Y142236
X063579Y141886
X061829Y141186
X061829Y140836
X066800Y145800
X064500Y147200
X064400Y139900
X061300Y144200
X072100Y151500
X074800Y151300
X064000Y144000
X079800Y151500
X068350Y146950
X067100Y142400
X070900Y163562
X074280Y164600
X075250Y164600
X073965Y163365
X073100Y158200
X072889Y158500
X071100Y159900
X072889Y159889
X078600Y162600
X078600Y162100
X078300Y163000
X078699Y163739
X078100Y164300
X077800Y164600
X072510Y166840
X078785Y158530
X080085Y159800
X076700Y163700
X070500Y162205
X071975Y166100
X073200Y164900
X075500Y166800
X079700Y159100
X071200Y167500
X071700Y167700
X079100Y167800
X072500Y167600
X072800Y167200
X075000Y165600
X075000Y163800
X075000Y166100
X076000Y166900
X072500Y159000
X072630Y163941
X072100Y158700
X072500Y164200
X080600Y168300
X082800Y162600
X082800Y163100
X082800Y163900
X082800Y162100
X082800Y163600
X081300Y161800
X083070Y158030
X083000Y158600
X081400Y159215
X082400Y158900
X082650Y150420
X083200Y150100
X080700Y154500
X083200Y157700
X080400Y154700
X083815Y148800
X083815Y149500
X083100Y151000
X081500Y151615
X081200Y153985
X082300Y153985
X083715Y155500
X083715Y156400
X083715Y157100
X081979Y156096
X081629Y156096
X081279Y156096
X080929Y156096
X080579Y156096
X081979Y155746
X081629Y155746
X081279Y155746
X080929Y155746
X080579Y155746
X081279Y157496
X081979Y157496
X081629Y157496
X080929Y157496
X080579Y157496
X081979Y157146
X081629Y157146
X081279Y157146
X080929Y157146
X080579Y157146
X081979Y156796
X081629Y156796
X081279Y156796
X080929Y156796
X080579Y156796
X081979Y156446
X081629Y156446
X081279Y156446
X080929Y156446
X080579Y156446
X082069Y148486
X081719Y148486
X081369Y148486
X081019Y148486
X080669Y148486
X082069Y148136
X081719Y148136
X081369Y148136
X081019Y148136
X080669Y148136
X081369Y149886
X082069Y149886
X081719Y149886
X081019Y149886
X080669Y149886
X082069Y149536
X081719Y149536
X081369Y149536
X081019Y149536
X080669Y149536
X082069Y149186
X081719Y149186
X081369Y149186
X081019Y149186
X080669Y149186
X082069Y148836
X081719Y148836
X081369Y148836
X081019Y148836
X080669Y148836
X082800Y154800
X082500Y151300
X082510Y143270
X083100Y142900
X080700Y139700
X080900Y146800
X080400Y139200
X080400Y139900
X080500Y146900
X081200Y139285
X082300Y139285
X083715Y140800
X083715Y141700
X083715Y142400
X083000Y143900
X081400Y144515
X081300Y146385
X082400Y146385
X083815Y147900
X081989Y142086
X081639Y142086
X081289Y142086
X080939Y142086
X080589Y142086
X081989Y141736
X081639Y141736
X081289Y141736
X080939Y141736
X080589Y141736
X081989Y141386
X081639Y141386
X081289Y141386
X080939Y141386
X080589Y141386
X081989Y141036
X081639Y141036
X081289Y141036
X080939Y141036
X080589Y141036
X081289Y142786
X081989Y142786
X081639Y142786
X080939Y142786
X080589Y142786
X081989Y142436
X081639Y142436
X081289Y142436
X080939Y142436
X080589Y142436
X082900Y147200
X082800Y140100
X082400Y144200
T02
X069000Y139100
X068000Y139100
X067000Y139100
X084000Y164000
X084000Y165000
X084000Y166000
X084000Y167000
X084000Y168000
T03
X058990Y145370
X058990Y152400
X077450Y145370
X077450Y152400
M30
