M48
INCH,TZ
T01C.013
T02C.0315
T03C.12992
;LEADER: 12 
;HEADER: 
;CODE  : ASCII 
;FILE  : drills-1-4.drl for  ... layers TOP and BOTTOM
;T01 Holesize 1. = 13.000000 Tolerance = +0.000000/-0.000000 PLATED MILS Quantity = 654
;T02 Holesize 2. = 31.500000 Tolerance = +3.940000/-3.940000 PLATED MILS Quantity = 8
%
G90
T01
X687000Y1628000
X698000Y1627000
X530000Y1505000
X567000Y1434000
X709000Y1635621
X570000Y1429000
X526600Y1502000
X565000Y1504000
X523000Y1579000
X568000Y1500000
X528000Y1577000
X531000Y1434000
X643000Y1432000
X645000Y1427000
X528000Y1431000
X739654Y1633654
X731000Y1582000
X644000Y1505000
X607000Y1432100
X720000Y1563000
X710000Y1563000
X604300Y1429600
X648000Y1500000
X720000Y1570000
X710000Y1570000
X607500Y1504700
X753000Y1504000
X756000Y1501000
X607700Y1500500
X673000Y1607000
X703000Y1610000
X749700Y1433400
X717000Y1507000
X754000Y1430000
X716000Y1503000
X827000Y1433000
X716900Y1431500
X831000Y1429000
X714300Y1429200
X699000Y1611000
X658000Y1626000
X829000Y1504000
X793000Y1434000
X832000Y1501000
X790100Y1430700
X548000Y1690000
X728890Y1585000
X711000Y1599000
X728890Y1598890
X595700Y1696000
X580169Y1696000
X717079Y1485079
X828000Y1626000
X529000Y1484000
X786000Y1626000
X793079Y1485079
X828000Y1631000
X532000Y1413000
X786000Y1621000
X716079Y1413079
X828000Y1639000
X609079Y1412079
X828000Y1621000
X793079Y1414079
X828000Y1636000
X609079Y1485079
X813000Y1618000
X529079Y1561079
X783000Y1630000
X793079Y1561079
X786989Y1637385
X807000Y1397000
X807000Y1545000
X809000Y1468000
X544000Y1542000
X546000Y1399000
X544000Y1466000
X585000Y1391000
X595000Y1391000
X623000Y1395000
X624000Y1465000
X730000Y1397000
X731000Y1470000
X781000Y1643000
X828000Y1580000
X792400Y1504000
X832000Y1577000
X791800Y1500300
X788700Y1576200
X693000Y1632000
X699000Y1635000
X790700Y1578900
X621000Y1391000
X620000Y1398000
X621000Y1468000
X541000Y1544000
X541000Y1470000
X543000Y1400000
X804000Y1392000
X804000Y1399000
X804000Y1547000
X805000Y1469000
X728000Y1391000
X727000Y1398000
X728000Y1468000
X778000Y1646000
X725100Y1668400
X536000Y1463850
X524850Y1509300
X521850Y1480000
X521850Y1496000
X537850Y1522000
X549000Y1463850
X560000Y1463850
X574150Y1479000
X574150Y1488000
X574150Y1495000
X567000Y1510000
X551000Y1516150
X615000Y1390850
X603850Y1436300
X600850Y1407000
X600850Y1423000
X616850Y1449000
X628000Y1390850
X639000Y1390850
X653150Y1406000
X653150Y1415000
X653150Y1422000
X646000Y1437000
X630000Y1443150
X616000Y1463850
X604850Y1509300
X601850Y1480000
X601850Y1496000
X617850Y1522000
X629000Y1463850
X640000Y1463850
X654150Y1479000
X654150Y1488000
X654150Y1495000
X647000Y1510000
X631000Y1516150
X722000Y1391850
X710850Y1437300
X707850Y1408000
X707850Y1424000
X723850Y1450000
X735000Y1391850
X746000Y1391850
X760150Y1407000
X760150Y1416000
X760150Y1423000
X753000Y1438000
X737000Y1444150
X799000Y1392850
X787850Y1438300
X784850Y1409000
X784850Y1425000
X800850Y1451000
X812000Y1392850
X823000Y1392850
X837150Y1408000
X837150Y1417000
X837150Y1424000
X830000Y1439000
X814000Y1445150
X723000Y1463850
X711850Y1509300
X708850Y1480000
X708850Y1496000
X724850Y1522000
X736000Y1463850
X747000Y1463850
X761150Y1479000
X761150Y1488000
X761150Y1495000
X754000Y1510000
X738000Y1516150
X800000Y1463850
X788850Y1509300
X785850Y1480000
X785850Y1496000
X801850Y1522000
X813000Y1463850
X824000Y1463850
X838150Y1479000
X838150Y1488000
X838150Y1495000
X831000Y1510000
X815000Y1516150
X538000Y1392850
X526850Y1438300
X523850Y1409000
X523850Y1425000
X539850Y1451000
X551000Y1392850
X562000Y1392850
X576150Y1408000
X576150Y1417000
X576150Y1424000
X569000Y1439000
X553000Y1445150
X799000Y1539850
X787850Y1585300
X784850Y1556000
X784850Y1572000
X800850Y1598000
X812000Y1539850
X823000Y1539850
X837150Y1555000
X837150Y1564000
X837150Y1571000
X830000Y1586000
X814000Y1592150
X691776Y1477776
X697000Y1399000
X536000Y1539850
X521850Y1556000
X521850Y1572000
X537850Y1598000
X549000Y1539850
X560000Y1539850
X574150Y1555000
X574150Y1564000
X574150Y1571000
X567000Y1586000
X551000Y1592150
X539264Y1557369
R05X3500
X539264Y1560869
R05X3500
X539264Y1564369
R05X3500
X539264Y1567869
R05X3500
X539264Y1571369
R05X3500
X539264Y1574869
R05X3500
X539091Y1484758
X539091Y1481258
X539091Y1498758
R03Y-3500
X556591Y1484758
R04X-3500
X556591Y1481258
R04X-3500
X549591Y1498758
X556591Y1498758
X553091Y1498758
X546091Y1498758
X542591Y1498758
X556591Y1495258
R04X-3500
X556591Y1491758
R04X-3500
X556591Y1488258
R04X-3500
X541191Y1413658
X541191Y1410158
X541191Y1427658
R03Y-3500
X558691Y1413658
R04X-3500
X558691Y1410158
R04X-3500
X551691Y1427658
X558691Y1427658
X555191Y1427658
X548191Y1427658
X544691Y1427658
X558691Y1424158
R04X-3500
X558691Y1420658
R04X-3500
X558691Y1417158
R04X-3500
X618291Y1411858
X618291Y1408358
X618291Y1425858
R03Y-3500
X635791Y1411858
R04X-3500
X635791Y1408358
R04X-3500
X628791Y1425858
X635791Y1425858
X632291Y1425858
X625291Y1425858
X621791Y1425858
X635791Y1422358
R04X-3500
X635791Y1418858
R04X-3500
X635791Y1415358
R04X-3500
X725191Y1413058
X725191Y1409558
X725191Y1427058
R03Y-3500
X742691Y1413058
R04X-3500
X742691Y1409558
R04X-3500
X735691Y1427058
X742691Y1427058
X739191Y1427058
X732191Y1427058
X728691Y1427058
X742691Y1423558
R04X-3500
X742691Y1420058
R04X-3500
X742691Y1416558
R04X-3500
X802391Y1413858
X802391Y1410358
X802391Y1427858
R03Y-3500
X819891Y1413858
R04X-3500
X819891Y1410358
R04X-3500
X812891Y1427858
X819891Y1427858
X816391Y1427858
X809391Y1427858
X805891Y1427858
X819891Y1424358
R04X-3500
X819891Y1420858
R04X-3500
X819891Y1417358
R04X-3500
X619291Y1484958
X619291Y1481458
X619291Y1498958
R03Y-3500
X636791Y1484958
R04X-3500
X636791Y1481458
R04X-3500
X629791Y1498958
X636791Y1498958
X633291Y1498958
X626291Y1498958
X622791Y1498958
X636791Y1495458
R04X-3500
X636791Y1491958
R04X-3500
X636791Y1488458
R04X-3500
X726391Y1484758
X726391Y1481258
X726391Y1498758
R03Y-3500
X743891Y1484758
R04X-3500
X743891Y1481258
R04X-3500
X736891Y1498758
X743891Y1498758
X740391Y1498758
X733391Y1498758
X729891Y1498758
X743891Y1495258
R04X-3500
X743891Y1491758
R04X-3500
X743891Y1488258
R04X-3500
X803191Y1484858
X803191Y1481358
X803191Y1498858
R03Y-3500
X820691Y1484858
R04X-3500
X820691Y1481358
R04X-3500
X813691Y1498858
X820691Y1498858
X817191Y1498858
X810191Y1498858
X806691Y1498858
X820691Y1495358
R04X-3500
X820691Y1491858
R04X-3500
X820691Y1488358
R04X-3500
X802291Y1560958
X802291Y1557458
X802291Y1574958
R03Y-3500
X819791Y1560958
R04X-3500
X819791Y1557458
R04X-3500
X812791Y1574958
X819791Y1574958
X816291Y1574958
X809291Y1574958
X805791Y1574958
X819791Y1571458
R04X-3500
X819791Y1567958
R04X-3500
X819791Y1564458
R04X-3500
X524850Y1585300
X613000Y1442000
X614000Y1515000
X720000Y1443000
X797000Y1444000
X798000Y1515000
X536000Y1444000
X565000Y1548000
X531000Y1655000
X534000Y1591000
X561000Y1589000
X668000Y1458000
X767000Y1637000
X705000Y1622048
X719751Y1661000
X732000Y1649000
X684530Y1648452
X755000Y1668000
X797000Y1591000
X824000Y1589000
X828000Y1548000
X563000Y1442000
X567000Y1401000
X825000Y1513000
X829000Y1472000
X721000Y1515000
X748000Y1513000
X752000Y1472000
X824000Y1442000
X828000Y1401000
X747000Y1441000
X751000Y1400000
X641000Y1513000
X645000Y1472000
X640000Y1440000
X644000Y1399000
X534000Y1515000
X561000Y1513000
X565000Y1472000
X670000Y1684000
X712000Y1675000
X717000Y1677000
X691000Y1685000
X791000Y1678000
X725000Y1676000
X682000Y1523000
X681300Y1632600
X678868Y1634736
X677000Y1519000
X806000Y1683000
X728000Y1672000
X683500Y1469500
X671000Y1424000
X750000Y1656000
X750000Y1638000
X652000Y1568000
X699000Y1563000
X693000Y1659000
X750000Y1661000
X697000Y1663000
X760000Y1669000
X725000Y1590000
X726297Y1639406
X721000Y1587000
X725000Y1642000
X670000Y1391000
T02
X690000Y1391000
X680000Y1391000
X670000Y1391000
X840000Y1640000
R04Y10000
M30
