G04 ================== begin FILE IDENTIFICATION RECORD ==================*
G04 Layout Name:  C:/USERS/GEORGE/DOCUMENTS/GITHUB/AVALON/HARDWARE/allegro/AVALON.brd*
G04 Film Name:    SIGNAL2*
G04 File Format:  Gerber RS274X*
G04 File Origin:  Cadence Allegro 16.6-P004*
G04 Origin Date:  Wed Nov 06 10:44:29 2013*
G04 *
G04 Layer:  ETCH/SIGNAL2*
G04 Layer:  PIN/SIGNAL2*
G04 Layer:  VIA CLASS/SIGNAL2*
G04 *
G04 Offset:    (0.00 0.00)*
G04 Mirror:    No*
G04 Mode:      Positive*
G04 Rotation:  0*
G04 FullContactRelief:  No*
G04 UndefLineWidth:     0.00*
G04 ================== end FILE IDENTIFICATION RECORD ====================*
%FSLAX25Y25*MOIN*%
%IR0*IPPOS*OFA0.00000B0.00000*MIA0B0*SFA1.00000B1.00000*%
%ADD11C,.022*%
%ADD10C,.024*%
%ADD12C,.05512*%
%ADD13C,.02*%
%ADD14C,.016*%
%ADD15C,.008*%
G75*
%LPD*%
G75*
G54D10*
X523850Y1409000D03*
Y1425000D03*
X528000Y1431000D03*
X526850Y1438300D03*
X521850Y1480000D03*
Y1496000D03*
X524850Y1509300D03*
X526600Y1502000D03*
X521850Y1556000D03*
Y1572000D03*
X528000Y1577000D03*
X523000Y1579000D03*
X524850Y1585300D03*
X538000Y1392850D03*
X543000Y1400000D03*
X546000Y1399000D03*
X532000Y1413000D03*
X539850Y1451000D03*
X531000Y1434000D03*
X549000Y1463850D03*
X536000D03*
X541000Y1470000D03*
X544000Y1466000D03*
X529000Y1484000D03*
X530000Y1505000D03*
X537850Y1522000D03*
X549000Y1539850D03*
X536000D03*
X541000Y1544000D03*
X544000Y1542000D03*
X529079Y1561079D03*
X537850Y1598000D03*
X531000Y1655000D03*
X548000Y1690000D03*
X567000Y1401000D03*
X562000Y1392850D03*
X551000D03*
X570000Y1429000D03*
X553000Y1445150D03*
X569000Y1439000D03*
X567000Y1434000D03*
X565000Y1472000D03*
X560000Y1463850D03*
X551000Y1516150D03*
X567000Y1510000D03*
X568000Y1500000D03*
X565000Y1504000D03*
Y1548000D03*
X560000Y1539850D03*
X551000Y1592150D03*
X567000Y1586000D03*
X576150Y1408000D03*
X585000Y1391000D03*
X576150Y1424000D03*
Y1417000D03*
X574150Y1495000D03*
Y1488000D03*
Y1479000D03*
Y1555000D03*
Y1571000D03*
Y1564000D03*
X580169Y1696000D03*
X600850Y1407000D03*
X595000Y1391000D03*
X600850Y1423000D03*
X609079Y1412079D03*
X604300Y1429600D03*
X607000Y1432100D03*
X603850Y1436300D03*
X601850Y1480000D03*
X609079Y1485079D03*
X601850Y1496000D03*
X604850Y1509300D03*
X607700Y1500500D03*
X607500Y1504700D03*
X595700Y1696000D03*
X628000Y1390850D03*
X615000D03*
X620000Y1398000D03*
X621000Y1391000D03*
X623000Y1395000D03*
X630000Y1443150D03*
X616850Y1449000D03*
X629000Y1463850D03*
X616000D03*
X621000Y1468000D03*
X624000Y1465000D03*
X631000Y1516150D03*
X617850Y1522000D03*
X644000Y1399000D03*
X653150Y1406000D03*
X639000Y1390850D03*
X653150Y1422000D03*
Y1415000D03*
X645000Y1427000D03*
X643000Y1432000D03*
X646000Y1437000D03*
X645000Y1472000D03*
X640000Y1463850D03*
X654150Y1495000D03*
Y1488000D03*
Y1479000D03*
X647000Y1510000D03*
X648000Y1500000D03*
X644000Y1505000D03*
X652000Y1568000D03*
X670000Y1391000D03*
X671000Y1424000D03*
X668000Y1458000D03*
X673000Y1607000D03*
X658000Y1626000D03*
X670000Y1684000D03*
X683500Y1469500D03*
X691776Y1477776D03*
X677000Y1519000D03*
X682000Y1523000D03*
X695618Y1530987D03*
X693618D03*
X691618D03*
X695618Y1528987D03*
X693618D03*
X691618D03*
X678868Y1634736D03*
X681300Y1632600D03*
X693000Y1632000D03*
X687000Y1628000D03*
X693000Y1659000D03*
X684530Y1648452D03*
X691000Y1685000D03*
X697000Y1399000D03*
X707850Y1408000D03*
Y1424000D03*
X716079Y1413079D03*
X714300Y1429200D03*
X716900Y1431500D03*
X710850Y1437300D03*
X708850Y1480000D03*
X717079Y1485079D03*
X708850Y1496000D03*
X711850Y1509300D03*
X716000Y1503000D03*
X717000Y1507000D03*
X699618Y1530987D03*
X697618D03*
X699618Y1528987D03*
X697618D03*
X699000Y1563000D03*
X710000Y1570000D03*
Y1563000D03*
X711000Y1599000D03*
X705000Y1622048D03*
X699000Y1611000D03*
X703000Y1610000D03*
X699000Y1635000D03*
X709000Y1635621D03*
X698000Y1627000D03*
X697000Y1663000D03*
X717000Y1677000D03*
X712000Y1675000D03*
X735000Y1391850D03*
X722000D03*
X727000Y1398000D03*
X728000Y1391000D03*
X730000Y1397000D03*
X737000Y1444150D03*
X723850Y1450000D03*
X736000Y1463850D03*
X723000D03*
X728000Y1468000D03*
X731000Y1470000D03*
X738000Y1516150D03*
X724850Y1522000D03*
X720000Y1570000D03*
Y1563000D03*
X721000Y1587000D03*
X725000Y1590000D03*
X728890Y1598890D03*
Y1585000D03*
X731000Y1582000D03*
X725000Y1642000D03*
X726297Y1639406D03*
X732000Y1649000D03*
X719751Y1661000D03*
X728000Y1672000D03*
X725000Y1676000D03*
X725100Y1668400D03*
X751000Y1400000D03*
X746000Y1391850D03*
X754000Y1430000D03*
X753000Y1438000D03*
X749700Y1433400D03*
X752000Y1472000D03*
X747000Y1463850D03*
X754000Y1510000D03*
X756000Y1501000D03*
X753000Y1504000D03*
X750000Y1638000D03*
X739654Y1633654D03*
X750000Y1661000D03*
Y1656000D03*
X755000Y1668000D03*
X760150Y1407000D03*
Y1423000D03*
Y1416000D03*
X761150Y1495000D03*
Y1488000D03*
Y1479000D03*
X767000Y1637000D03*
X778000Y1646000D03*
X760000Y1669000D03*
X784850Y1409000D03*
X799000Y1392850D03*
X784850Y1425000D03*
X793079Y1414079D03*
X790100Y1430700D03*
X800850Y1451000D03*
X787850Y1438300D03*
X793000Y1434000D03*
X800000Y1463850D03*
X785850Y1480000D03*
X793079Y1485079D03*
X785850Y1496000D03*
X788850Y1509300D03*
X791800Y1500300D03*
X792400Y1504000D03*
X784850Y1556000D03*
X799000Y1539850D03*
X784850Y1572000D03*
X790700Y1578900D03*
X788700Y1576200D03*
X793079Y1561079D03*
X800850Y1598000D03*
X787850Y1585300D03*
X786000Y1621000D03*
X781000Y1643000D03*
X786989Y1637385D03*
X783000Y1630000D03*
X786000Y1626000D03*
X791000Y1678000D03*
X812000Y1392850D03*
X804000Y1399000D03*
Y1392000D03*
X807000Y1397000D03*
X814000Y1445150D03*
X813000Y1463850D03*
X805000Y1469000D03*
X809000Y1468000D03*
X815000Y1516150D03*
X801850Y1522000D03*
X812000Y1539850D03*
X804000Y1547000D03*
X807000Y1545000D03*
X814000Y1592150D03*
X813000Y1618000D03*
X806000Y1683000D03*
X828000Y1401000D03*
X837150Y1408000D03*
X823000Y1392850D03*
X837150Y1424000D03*
Y1417000D03*
X831000Y1429000D03*
X830000Y1439000D03*
X827000Y1433000D03*
X829000Y1472000D03*
X824000Y1463850D03*
X838150Y1495000D03*
Y1488000D03*
Y1479000D03*
X831000Y1510000D03*
X832000Y1501000D03*
X829000Y1504000D03*
X828000Y1548000D03*
X837150Y1555000D03*
X823000Y1539850D03*
X837150Y1571000D03*
Y1564000D03*
X832000Y1577000D03*
X828000Y1580000D03*
X830000Y1586000D03*
X828000Y1621000D03*
Y1636000D03*
Y1639000D03*
Y1631000D03*
Y1626000D03*
G54D11*
X544691Y1410158D03*
X541191D03*
X544691Y1417158D03*
Y1420658D03*
Y1424158D03*
Y1427658D03*
Y1413658D03*
X541191Y1417158D03*
Y1420658D03*
Y1424158D03*
Y1427658D03*
Y1413658D03*
X536000Y1444000D03*
X542591Y1488258D03*
X546091D03*
X542591Y1491758D03*
X546091D03*
X542591Y1481258D03*
X546091D03*
X542591Y1484758D03*
X546091D03*
X539091Y1488258D03*
Y1491758D03*
Y1481258D03*
Y1484758D03*
X534000Y1515000D03*
X542591Y1495258D03*
X546091D03*
X542591Y1498758D03*
X546091D03*
X539091Y1495258D03*
Y1498758D03*
X546264Y1557369D03*
X542764D03*
X539264D03*
X546264Y1574869D03*
X542764D03*
X539264D03*
X546264Y1571369D03*
X542764D03*
X539264D03*
X546264Y1567869D03*
X542764D03*
X539264D03*
X546264Y1564369D03*
X542764D03*
X539264D03*
X546264Y1560869D03*
X542764D03*
X539264D03*
X534000Y1591000D03*
X548191Y1410158D03*
X551691D03*
X555191D03*
X558691D03*
X548191Y1417158D03*
X551691D03*
X555191D03*
X558691D03*
X548191Y1420658D03*
X551691D03*
X555191D03*
X558691D03*
X548191Y1424158D03*
X551691D03*
X555191D03*
X558691D03*
X548191Y1427658D03*
X555191D03*
X558691D03*
X551691D03*
X548191Y1413658D03*
X551691D03*
X555191D03*
X558691D03*
X563000Y1442000D03*
X549591Y1488258D03*
X553091D03*
X556591D03*
X549591Y1491758D03*
X553091D03*
X556591D03*
X549591Y1481258D03*
X553091D03*
X556591D03*
X549591Y1484758D03*
X553091D03*
X556591D03*
X561000Y1513000D03*
X549591Y1495258D03*
X553091D03*
X556591D03*
X553091Y1498758D03*
X556591D03*
X549591D03*
X556764Y1557369D03*
X553264D03*
X549764D03*
X556764Y1574869D03*
X553264D03*
X549764D03*
X556764Y1571369D03*
X553264D03*
X549764D03*
X556764Y1567869D03*
X553264D03*
X549764D03*
X556764Y1564369D03*
X553264D03*
X549764D03*
X556764Y1560869D03*
X553264D03*
X549764D03*
X561000Y1589000D03*
X621791Y1408358D03*
X625291D03*
X628791D03*
X618291D03*
X621791Y1415358D03*
X625291D03*
X628791D03*
X621791Y1418858D03*
X625291D03*
X628791D03*
X621791Y1422358D03*
X625291D03*
X628791D03*
X621791Y1425858D03*
X625291D03*
X628791D03*
X621791Y1411858D03*
X625291D03*
X628791D03*
X618291Y1415358D03*
Y1418858D03*
Y1422358D03*
Y1425858D03*
Y1411858D03*
X613000Y1442000D03*
X622791Y1488458D03*
X626291D03*
X629791D03*
X622791Y1491958D03*
X626291D03*
X629791D03*
X622791Y1481458D03*
X626291D03*
X629791D03*
X622791Y1484958D03*
X626291D03*
X629791D03*
X619291Y1488458D03*
Y1491958D03*
Y1481458D03*
Y1484958D03*
X614000Y1515000D03*
X622791Y1495458D03*
X626291D03*
X629791D03*
X622791Y1498958D03*
X626291D03*
X629791D03*
X619291Y1495458D03*
Y1498958D03*
X632291Y1408358D03*
X635791D03*
X632291Y1415358D03*
X635791D03*
X632291Y1418858D03*
X635791D03*
X632291Y1422358D03*
X635791D03*
X632291Y1425858D03*
X635791D03*
X632291Y1411858D03*
X635791D03*
X640000Y1440000D03*
X633291Y1488458D03*
X636791D03*
X633291Y1491958D03*
X636791D03*
X633291Y1481458D03*
X636791D03*
X633291Y1484958D03*
X636791D03*
X641000Y1513000D03*
X633291Y1495458D03*
X636791D03*
X633291Y1498958D03*
X636791D03*
X728691Y1409558D03*
X732191D03*
X735691D03*
X725191D03*
X728691Y1416558D03*
X732191D03*
X735691D03*
X728691Y1420058D03*
X732191D03*
X735691D03*
X728691Y1423558D03*
X732191D03*
X735691D03*
X728691Y1427058D03*
X732191D03*
X735691D03*
X728691Y1413058D03*
X732191D03*
X735691D03*
X725191Y1416558D03*
Y1420058D03*
Y1423558D03*
Y1427058D03*
Y1413058D03*
X720000Y1443000D03*
X729891Y1488258D03*
X733391D03*
X736891D03*
X729891Y1491758D03*
X733391D03*
X736891D03*
X729891Y1481258D03*
X733391D03*
X736891D03*
X729891Y1484758D03*
X733391D03*
X736891D03*
X726391Y1488258D03*
Y1491758D03*
Y1481258D03*
Y1484758D03*
X721000Y1515000D03*
X729891Y1495258D03*
X733391D03*
X736891D03*
X729891Y1498758D03*
X733391D03*
X736891D03*
X726391Y1495258D03*
Y1498758D03*
X739191Y1409558D03*
X742691D03*
X739191Y1416558D03*
X742691D03*
X739191Y1420058D03*
X742691D03*
X739191Y1423558D03*
X742691D03*
X739191Y1427058D03*
X742691D03*
X739191Y1413058D03*
X742691D03*
X747000Y1441000D03*
X740391Y1488258D03*
X743891D03*
X740391Y1491758D03*
X743891D03*
X740391Y1481258D03*
X743891D03*
X740391Y1484758D03*
X743891D03*
X748000Y1513000D03*
X740391Y1495258D03*
X743891D03*
X740391Y1498758D03*
X743891D03*
X797000Y1444000D03*
X798000Y1515000D03*
X797000Y1591000D03*
X805891Y1410358D03*
X809391D03*
X812891D03*
X816391D03*
X819891D03*
X802391D03*
X805891Y1417358D03*
X809391D03*
X812891D03*
X816391D03*
X819891D03*
X805891Y1420858D03*
X809391D03*
X812891D03*
X816391D03*
X819891D03*
X805891Y1424358D03*
X809391D03*
X812891D03*
X816391D03*
X819891D03*
X805891Y1427858D03*
X809391D03*
X816391D03*
X819891D03*
X812891D03*
X805891Y1413858D03*
X809391D03*
X812891D03*
X816391D03*
X819891D03*
X802391Y1417358D03*
Y1420858D03*
Y1424358D03*
Y1427858D03*
Y1413858D03*
X806691Y1488358D03*
X810191D03*
X813691D03*
X817191D03*
X820691D03*
X806691Y1491858D03*
X810191D03*
X813691D03*
X817191D03*
X820691D03*
X806691Y1481358D03*
X810191D03*
X813691D03*
X817191D03*
X820691D03*
X806691Y1484858D03*
X810191D03*
X813691D03*
X817191D03*
X820691D03*
X803191Y1488358D03*
Y1491858D03*
Y1481358D03*
Y1484858D03*
X806691Y1495358D03*
X810191D03*
X813691D03*
X817191D03*
X820691D03*
X806691Y1498858D03*
X810191D03*
X817191D03*
X820691D03*
X813691D03*
X803191Y1495358D03*
Y1498858D03*
X805791Y1557458D03*
X809291D03*
X812791D03*
X816291D03*
X819791D03*
X802291D03*
X805791Y1564458D03*
X809291D03*
X812791D03*
X816291D03*
X819791D03*
X805791Y1567958D03*
X809291D03*
X812791D03*
X816291D03*
X819791D03*
X805791Y1571458D03*
X809291D03*
X812791D03*
X816291D03*
X819791D03*
X805791Y1574958D03*
X809291D03*
X816291D03*
X819791D03*
X812791D03*
X805791Y1560958D03*
X809291D03*
X812791D03*
X816291D03*
X819791D03*
X802291Y1564458D03*
Y1567958D03*
Y1571458D03*
Y1574958D03*
Y1560958D03*
X824000Y1442000D03*
X825000Y1513000D03*
X824000Y1589000D03*
G54D12*
X670000Y1391000D03*
X680000D03*
X690000D03*
X840000Y1640000D03*
Y1660000D03*
Y1650000D03*
Y1680000D03*
Y1670000D03*
G54D13*
G01X670000Y1391000D02*
X664000Y1385000D01*
X521000D01*
X516000Y1390000D01*
Y1690000D01*
X519000Y1693000D01*
X586000D01*
G01D02*
X583000Y1696000D01*
X580169D01*
G01X595700D02*
X592700Y1693000D01*
X586000D01*
G54D14*
G01X684530Y1648452D02*
X647982Y1685000D01*
X594000D01*
X564000Y1655000D01*
X531000D01*
G01X711000Y1599000D02*
Y1590000D01*
X718000Y1583000D01*
X726890D01*
X728890Y1585000D01*
G01D02*
Y1598890D01*
G01X744000Y1637000D02*
X732000Y1649000D01*
G01X752536Y1637000D02*
X751036Y1635500D01*
X748964D01*
X747500Y1636964D01*
Y1637000D01*
X744000D01*
G01X767000D02*
X752536D01*
G54D15*
G01X532000Y1413000D02*
X525900Y1419100D01*
Y1424080D01*
X525950Y1424130D01*
Y1425870D01*
X525000Y1426820D01*
Y1433400D01*
X528700Y1437100D01*
X558930D01*
X569130Y1426900D01*
X570870D01*
X570901Y1426931D01*
X572231D01*
X578000Y1432700D01*
Y1483668D01*
X601300Y1506968D01*
Y1514140D01*
X614461Y1527301D01*
X615537D01*
X615538Y1527300D01*
X647700D01*
X660700Y1514300D01*
X696978D01*
X716978Y1534300D01*
X772948D01*
X797779Y1559131D01*
Y1585553D01*
X786000Y1597332D01*
Y1621000D01*
G01Y1626000D02*
X783900Y1623900D01*
Y1597593D01*
X796479Y1585014D01*
Y1559670D01*
X772409Y1535600D01*
X716439D01*
X696439Y1515600D01*
X661239D01*
X648239Y1528600D01*
X616077D01*
X616076Y1528601D01*
X613922D01*
X600000Y1514679D01*
Y1510798D01*
X582102Y1492900D01*
X567100D01*
X551600Y1508400D01*
X528591D01*
X524500Y1504309D01*
Y1501130D01*
X529000Y1496630D01*
Y1484000D01*
G01X523000Y1579000D02*
Y1573820D01*
X523950Y1572870D01*
Y1569178D01*
X531179Y1561949D01*
Y1560641D01*
X564900Y1526920D01*
Y1509130D01*
X565000Y1509030D01*
Y1504000D01*
G01X528000Y1431000D02*
X530100D01*
X531100Y1430000D01*
X562352D01*
X568053Y1424299D01*
X570207D01*
X570208Y1424300D01*
X571948D01*
X571959Y1424311D01*
X572872Y1424331D01*
X573309D01*
X573319Y1424340D01*
X573320D01*
X573338Y1424341D01*
X573704Y1424724D01*
X575079Y1426100D01*
X605091D01*
X605591Y1425600D01*
X608409D01*
X610667Y1427858D01*
X644142D01*
X645000Y1427000D01*
G01X563000Y1442000D02*
X553180D01*
X551180Y1444000D01*
X536000D01*
G01X531000Y1434000D02*
X533700Y1431300D01*
X562891D01*
X568592Y1425599D01*
X569668D01*
X569669Y1425600D01*
X571409D01*
X572770Y1425630D01*
X574540Y1427400D01*
X605630D01*
X606130Y1426900D01*
X607870D01*
X610970Y1430000D01*
X641000D01*
X643000Y1432000D01*
G01X526600Y1502000D02*
Y1504570D01*
X529130Y1507100D01*
X530870D01*
X532400Y1505570D01*
Y1474630D01*
X547030Y1460000D01*
X554000D01*
X571100Y1442900D01*
Y1438130D01*
X570000Y1437030D01*
Y1429000D01*
G01X530000Y1505000D02*
Y1499839D01*
X531100Y1498739D01*
Y1474091D01*
X546491Y1458700D01*
X549129D01*
X565515Y1442314D01*
Y1435485D01*
X567000Y1434000D01*
G01X561000Y1513000D02*
X551180D01*
X549180Y1515000D01*
X534000D01*
G01X529079Y1561079D02*
Y1552921D01*
X563000Y1519000D01*
Y1504970D01*
X562900Y1504870D01*
Y1502130D01*
X567130Y1497900D01*
X581382D01*
X613383Y1529901D01*
X616615D01*
X616616Y1529900D01*
X648778D01*
X661778Y1516900D01*
X695900D01*
X715900Y1536900D01*
X771870D01*
X795179Y1560209D01*
Y1584475D01*
X782600Y1597054D01*
Y1629600D01*
X783000Y1630000D01*
G01X528000Y1577000D02*
Y1566967D01*
X532700Y1562267D01*
Y1561104D01*
X569100Y1524704D01*
Y1509130D01*
X568000Y1508030D01*
Y1500000D01*
G01X561000Y1589000D02*
X551180D01*
X549180Y1591000D01*
X534000D01*
G01X609079Y1412079D02*
X615300Y1405858D01*
X636220D01*
X650000Y1419638D01*
Y1497500D01*
X657900Y1505400D01*
X706978D01*
X709750Y1508172D01*
Y1510170D01*
X710980Y1511400D01*
X712720D01*
X713820Y1510300D01*
X741639D01*
X753291Y1498900D01*
X765101D01*
X823000Y1556799D01*
Y1585000D01*
X828000Y1590000D01*
Y1621000D01*
G01X604300Y1429600D02*
X607470D01*
X609500Y1431630D01*
Y1441329D01*
X615071Y1446900D01*
X617720D01*
X618950Y1448130D01*
Y1449850D01*
X648000Y1478900D01*
Y1500000D01*
G01X607000Y1432100D02*
Y1446000D01*
X623900Y1462900D01*
X624870D01*
X626100Y1464130D01*
Y1465100D01*
X644000Y1483000D01*
Y1505000D01*
G01X609079Y1485079D02*
Y1493921D01*
X602600Y1500400D01*
Y1513601D01*
X614999Y1526000D01*
X647161D01*
X660161Y1513000D01*
X697517D01*
X717517Y1533000D01*
X773487D01*
X799079Y1558592D01*
Y1586092D01*
X793700Y1591471D01*
Y1598700D01*
X813000Y1618000D01*
G01X756000Y1501000D02*
X755004Y1501996D01*
X753966D01*
X753870Y1501900D01*
X752130D01*
X750730Y1503300D01*
X750700D01*
X743600Y1510400D01*
X743397D01*
X742170Y1511600D01*
X714359D01*
X713259Y1512700D01*
X710441D01*
X708450Y1510709D01*
Y1508711D01*
X706439Y1506700D01*
X648509D01*
X648409Y1506600D01*
X645591D01*
X645491Y1506700D01*
X645270D01*
X644870Y1507100D01*
X643130D01*
X642630Y1506600D01*
X613800D01*
X607700Y1500500D01*
G01X753000Y1504000D02*
X745300Y1511700D01*
X743928D01*
X742701Y1512900D01*
X714898D01*
X713798Y1514000D01*
X709902D01*
X707150Y1511248D01*
Y1509250D01*
X705900Y1508000D01*
X647970D01*
X647870Y1507900D01*
X646130D01*
X646030Y1508000D01*
X645809D01*
X645409Y1508400D01*
X642591D01*
X642191Y1508000D01*
X610800D01*
X607500Y1504700D01*
G01X640000Y1440000D02*
X630180D01*
X628180Y1442000D01*
X613000D01*
G01X641000Y1513000D02*
X631180D01*
X629180Y1515000D01*
X614000D01*
G01X712000Y1675000D02*
X691000D01*
X682000Y1684000D01*
X670000D01*
G01X677000Y1519000D02*
Y1632800D01*
X677383Y1633183D01*
Y1633251D01*
X678868Y1634736D01*
G01X681300Y1632600D02*
Y1625730D01*
X682000Y1625030D01*
Y1523000D01*
G01X788700Y1576200D02*
X782500Y1582400D01*
Y1586500D01*
X739700Y1629300D01*
X695700D01*
X693000Y1632000D01*
G01X840000Y1670000D02*
X816634D01*
X779134Y1632500D01*
X743778D01*
X740278Y1636000D01*
X711591D01*
X709870Y1637721D01*
X695751D01*
X690900Y1632870D01*
Y1631130D01*
X694030Y1628000D01*
X697000D01*
X698000Y1627000D01*
G01X840000Y1680000D02*
X831300Y1671300D01*
X816095D01*
X778595Y1633800D01*
X744795D01*
X741289Y1637306D01*
X713695D01*
X711980Y1639021D01*
X695212D01*
X687000Y1630809D01*
Y1628000D01*
G01X750000Y1661000D02*
X747900Y1658900D01*
X718881D01*
X718781Y1659000D01*
X693000D01*
G01X717000Y1677000D02*
X712970D01*
X712870Y1677100D01*
X711130D01*
X711030Y1677000D01*
X699000D01*
X691000Y1685000D01*
G01X714300Y1429200D02*
X743800D01*
X751900Y1421100D01*
X759080D01*
X759280Y1420900D01*
X761020D01*
X761220Y1421100D01*
X792939D01*
X799891Y1428052D01*
Y1428187D01*
X801562Y1429858D01*
X830142D01*
X831000Y1429000D01*
G01X754000Y1430000D02*
X752700Y1431300D01*
X748830D01*
X747600Y1432530D01*
Y1438771D01*
X749000Y1440171D01*
Y1454970D01*
X729670Y1474300D01*
X721210D01*
X713300Y1482210D01*
Y1500300D01*
X716000Y1503000D01*
G01X749700Y1433400D02*
Y1439032D01*
X750300Y1439632D01*
Y1455509D01*
X729809Y1476000D01*
X723188D01*
X714979Y1484209D01*
Y1499009D01*
X718100Y1502130D01*
Y1505900D01*
X717000Y1507000D01*
G01X790700Y1578900D02*
X785750Y1583850D01*
Y1587250D01*
X742300Y1630700D01*
X706461D01*
X702161Y1635000D01*
X699000D01*
G01X760000Y1669000D02*
X754100Y1663100D01*
X718881D01*
X718781Y1663000D01*
X697000D01*
G01X828000Y1639000D02*
X841850Y1625150D01*
Y1435041D01*
X823300Y1416491D01*
Y1406200D01*
X821400Y1404300D01*
X724858D01*
X716079Y1413079D01*
G01X747000Y1441000D02*
X737180D01*
X735180Y1443000D01*
X720000D01*
G01X716900Y1431500D02*
X744644D01*
X749071Y1427100D01*
X796965D01*
X802865Y1433000D01*
X827000D01*
G01X828000Y1626000D02*
X830100Y1623900D01*
Y1589201D01*
X825900Y1585001D01*
Y1557860D01*
X765640Y1497600D01*
X760780D01*
X745891Y1482711D01*
Y1480429D01*
X744720Y1479258D01*
X744620D01*
X744220Y1478858D01*
X723300D01*
X717079Y1485079D01*
G01X748000Y1513000D02*
X744459D01*
X743232Y1514200D01*
X742920D01*
X738870Y1518250D01*
X737130D01*
X735900Y1517020D01*
Y1515800D01*
X735100Y1515000D01*
X721000D01*
G01X728000Y1672000D02*
X730000Y1674000D01*
X797000D01*
X806000Y1683000D01*
G01X791000Y1678000D02*
X727000D01*
X725000Y1676000D01*
G01X752536Y1637000D02*
X751970D01*
X750870Y1635900D01*
X745100D01*
X744000Y1637000D01*
G01X793079Y1414079D02*
X800000Y1407158D01*
X821200D01*
X822000Y1407958D01*
Y1417030D01*
X840550Y1435580D01*
Y1623450D01*
X828000Y1636000D01*
G01X832000Y1501000D02*
Y1485820D01*
X795100Y1448920D01*
Y1444929D01*
X795000Y1444829D01*
Y1443171D01*
X795100Y1443071D01*
Y1433130D01*
X792670Y1430700D01*
X790100D01*
G01X824000Y1442000D02*
X814180D01*
X812180Y1444000D01*
X797000D01*
G01X793000Y1434000D02*
Y1449000D01*
X829000Y1485000D01*
Y1504000D01*
G01X828000Y1631000D02*
X839250Y1619750D01*
Y1550911D01*
X805339Y1517000D01*
X797171D01*
X796000Y1515829D01*
Y1497999D01*
X793079Y1495078D01*
Y1485079D01*
G01X825000Y1513000D02*
X815180D01*
X813180Y1515000D01*
X798000D01*
G01X791800Y1500300D02*
X794700Y1503200D01*
Y1516368D01*
X796632Y1518300D01*
X804800D01*
X832000Y1545500D01*
Y1577000D01*
G01X792400Y1504000D02*
Y1515907D01*
X828000Y1551507D01*
Y1580000D01*
G01X793079Y1561079D02*
Y1581109D01*
X793100Y1581130D01*
Y1584715D01*
X780900Y1596915D01*
Y1630900D01*
X786684Y1636684D01*
Y1637080D01*
X786989Y1637385D01*
G01X824000Y1589000D02*
X814180D01*
X812180Y1591000D01*
X797000D01*
M02*
