G04 ================== begin FILE IDENTIFICATION RECORD ==================*
G04 Layout Name:  C:/USERS/GEORGE/DOCUMENTS/GITHUB/AVALON/HARDWARE/allegro/AVALON.brd*
G04 Film Name:    SIGNAL3*
G04 File Format:  Gerber RS274X*
G04 File Origin:  Cadence Allegro 16.6-P004*
G04 Origin Date:  Mon Nov 11 19:16:25 2013*
G04 *
G04 Layer:  ETCH/SIGNAL3*
G04 Layer:  PIN/SIGNAL3*
G04 Layer:  VIA CLASS/SIGNAL3*
G04 *
G04 Offset:    (0.00 0.00)*
G04 Mirror:    No*
G04 Mode:      Positive*
G04 Rotation:  0*
G04 FullContactRelief:  No*
G04 UndefLineWidth:     0.00*
G04 ================== end FILE IDENTIFICATION RECORD ====================*
%FSLAX25Y25*MOIN*%
%IR0*IPPOS*OFA0.00000B0.00000*MIA0B0*SFA1.00000B1.00000*%
%ADD11C,.023*%
%ADD10C,.024*%
%ADD13C,.05512*%
%ADD12C,.12992*%
%ADD14C,.02*%
%ADD15C,.016*%
%ADD16C,.008*%
G75*
%LPD*%
G75*
G54D10*
X523850Y1409000D03*
X532000Y1413000D03*
X523850Y1425000D03*
X528000Y1431000D03*
X531000Y1434000D03*
X526850Y1438300D03*
X521850Y1496000D03*
Y1480000D03*
X529000Y1484000D03*
X524850Y1509300D03*
X526600Y1502000D03*
X530000Y1505000D03*
X521850Y1556000D03*
Y1572000D03*
X529079Y1561079D03*
X528000Y1577000D03*
X523000Y1579000D03*
X524850Y1585300D03*
X531000Y1655000D03*
X551000Y1392850D03*
X538000D03*
X543000Y1400000D03*
X546000Y1399000D03*
X553000Y1445150D03*
X539850Y1451000D03*
X549000Y1463850D03*
X536000D03*
X541000Y1470000D03*
X544000Y1466000D03*
X551000Y1516150D03*
X537850Y1522000D03*
X549000Y1539850D03*
X536000D03*
X541000Y1544000D03*
X544000Y1542000D03*
X551000Y1592150D03*
X537850Y1598000D03*
X548000Y1690000D03*
X562000Y1392850D03*
X567000Y1401000D03*
X569300Y1433300D03*
X564900Y1434500D03*
X569000Y1439000D03*
X565000Y1472000D03*
X560000Y1463850D03*
X574150Y1495000D03*
Y1488000D03*
Y1479000D03*
X567000Y1510000D03*
X568000Y1500000D03*
X567400Y1503100D03*
X565000Y1548000D03*
X574150Y1555000D03*
X560000Y1539850D03*
X574150Y1571000D03*
Y1564000D03*
X567000Y1586000D03*
X590849Y1395086D03*
X576150Y1408000D03*
Y1424000D03*
Y1417000D03*
X580169Y1696000D03*
X595700D03*
X615000Y1390850D03*
X600849Y1395086D03*
X600850Y1407000D03*
X609079Y1412079D03*
X600850Y1423000D03*
X603850Y1436300D03*
X603300Y1429900D03*
X607000Y1432100D03*
X616850Y1449000D03*
X616000Y1463850D03*
X601850Y1496000D03*
Y1480000D03*
X609079Y1485079D03*
X604850Y1509300D03*
X607700Y1500500D03*
X607500Y1504700D03*
X628000Y1390850D03*
X621000Y1391000D03*
X623200Y1395100D03*
X620000Y1398000D03*
X630000Y1443150D03*
X629000Y1463850D03*
X621000Y1468000D03*
X624000Y1465000D03*
X631000Y1516150D03*
X617850Y1522000D03*
X639000Y1390850D03*
X644000Y1399000D03*
X653150Y1415000D03*
Y1406000D03*
Y1422000D03*
X646500Y1427100D03*
X641300Y1431800D03*
X646000Y1437000D03*
X645000Y1472000D03*
X640000Y1463850D03*
X654150Y1495000D03*
Y1488000D03*
Y1479000D03*
X647000Y1510000D03*
X648000Y1500000D03*
X642700Y1504200D03*
X652000Y1568000D03*
X671000Y1424000D03*
X668000Y1458000D03*
X677000Y1519000D03*
X673000Y1607000D03*
X658000Y1626000D03*
X670000Y1684000D03*
X697000Y1399000D03*
X683500Y1469500D03*
X691776Y1477776D03*
X682000Y1523000D03*
X678868Y1634736D03*
X681300Y1632600D03*
X693000Y1632000D03*
X698000Y1627000D03*
X687000Y1628000D03*
X693000Y1659000D03*
X684530Y1648452D03*
X697000Y1663000D03*
X691000Y1685000D03*
X707850Y1408000D03*
X716079Y1413079D03*
X707850Y1424000D03*
X714300Y1429200D03*
X716900Y1431500D03*
X710850Y1437300D03*
X708850Y1496000D03*
Y1480000D03*
X717079Y1485079D03*
X711850Y1509300D03*
X713300Y1501300D03*
X715800Y1504100D03*
X699000Y1563000D03*
X710000Y1570000D03*
Y1563000D03*
X711000Y1599000D03*
X699000Y1611000D03*
X703000Y1610000D03*
X705000Y1622048D03*
X699000Y1635000D03*
X709000Y1635621D03*
X717000Y1677000D03*
X712000Y1675000D03*
X735000Y1391850D03*
X722000D03*
X728000Y1391000D03*
X727000Y1398000D03*
X730000Y1397000D03*
X737000Y1444150D03*
X723850Y1450000D03*
X736000Y1463850D03*
X723000D03*
X728000Y1468000D03*
X731000Y1470000D03*
X738000Y1516150D03*
X724850Y1522000D03*
X720000Y1570000D03*
Y1563000D03*
X721000Y1587000D03*
X725000Y1590000D03*
X728890Y1598890D03*
Y1585000D03*
X731000Y1582000D03*
X726297Y1639406D03*
X739654Y1633654D03*
X725000Y1642000D03*
X732000Y1649000D03*
X719751Y1661000D03*
X728000Y1672000D03*
X725000Y1676000D03*
X725100Y1668400D03*
X746000Y1391850D03*
X751000Y1400000D03*
X760150Y1416000D03*
Y1407000D03*
Y1423000D03*
X753800Y1429400D03*
X753500Y1433000D03*
X753000Y1438000D03*
X752000Y1472000D03*
X747000Y1463850D03*
X754000Y1510000D03*
X755804Y1501098D03*
X754400Y1504500D03*
X750000Y1638000D03*
Y1661000D03*
Y1656000D03*
X752500Y1646000D03*
X742800D03*
X760000Y1669000D03*
X755000Y1668000D03*
X761150Y1495000D03*
Y1488000D03*
Y1479000D03*
X767000Y1637000D03*
X778000Y1646000D03*
X799000Y1392850D03*
X784850Y1409000D03*
X793079Y1414079D03*
X784850Y1425000D03*
X790100Y1430700D03*
X793000Y1434000D03*
X800850Y1451000D03*
X787850Y1438300D03*
X800000Y1463850D03*
X785850Y1496000D03*
Y1480000D03*
X793079Y1485079D03*
X788850Y1509300D03*
X791800Y1500300D03*
X791600Y1504000D03*
X784850Y1556000D03*
X799000Y1539850D03*
X784850Y1572000D03*
X790700Y1578900D03*
X788700Y1576200D03*
X793079Y1561079D03*
X800850Y1598000D03*
X787850Y1585300D03*
X786989Y1637385D03*
X783000Y1630000D03*
X786000Y1621000D03*
Y1626000D03*
X781000Y1643000D03*
X791000Y1678000D03*
X812000Y1392850D03*
X804000Y1392000D03*
Y1399000D03*
X807000Y1397000D03*
X814000Y1445150D03*
X813000Y1463850D03*
X805000Y1469000D03*
X809000Y1468000D03*
X815000Y1516150D03*
X801850Y1522000D03*
X812000Y1539850D03*
X804000Y1547000D03*
X807000Y1545000D03*
X814000Y1592150D03*
X813000Y1618000D03*
X806000Y1683000D03*
X823000Y1392850D03*
X828000Y1401000D03*
X837150Y1408000D03*
Y1424000D03*
Y1417000D03*
X831000Y1429000D03*
X825100Y1432700D03*
X830000Y1439000D03*
X829000Y1472000D03*
X824000Y1463850D03*
X838150Y1495000D03*
Y1488000D03*
Y1479000D03*
X831000Y1510000D03*
X832000Y1501000D03*
X826500Y1504200D03*
X828000Y1548000D03*
X837150Y1555000D03*
X823000Y1539850D03*
X837150Y1571000D03*
Y1564000D03*
X832000Y1577000D03*
X830000Y1586000D03*
X830700Y1580300D03*
X828000Y1636000D03*
Y1621000D03*
Y1639000D03*
Y1631000D03*
Y1626000D03*
G54D11*
X541191Y1410158D03*
Y1413658D03*
X548191Y1410158D03*
X551691D03*
X544691Y1413658D03*
X548191D03*
X551691D03*
X544691Y1410158D03*
X541191Y1420658D03*
Y1424158D03*
Y1427658D03*
Y1417158D03*
X544691Y1427658D03*
X548191D03*
X551691D03*
X544691Y1417158D03*
X548191D03*
X551691D03*
X544691Y1420658D03*
X548191D03*
X551691D03*
X544691Y1424158D03*
X548191D03*
X551691D03*
X536000Y1444000D03*
X542591Y1488258D03*
X546091D03*
X549591D03*
X553091D03*
X542591Y1491758D03*
X546091D03*
X549591D03*
X553091D03*
X542591Y1495258D03*
X546091D03*
X549591D03*
X553091D03*
X542591Y1481258D03*
X546091D03*
X549591D03*
X553091D03*
X542591Y1484758D03*
X546091D03*
X549591D03*
X553091D03*
X539091Y1488258D03*
Y1491758D03*
Y1495258D03*
Y1481258D03*
Y1484758D03*
X534000Y1515000D03*
X542591Y1498758D03*
X546091D03*
X553091D03*
X549591D03*
X539091D03*
X546264Y1557369D03*
X542764D03*
X549764D03*
X539264D03*
X553264D03*
X546264Y1574869D03*
X542764D03*
X539264Y1567869D03*
X542764D03*
X549764Y1574869D03*
X539264Y1571369D03*
Y1574869D03*
X549764Y1571369D03*
X553264D03*
X546264D03*
X542764D03*
X539264Y1560869D03*
X542764D03*
X546264D03*
X549764D03*
X553264D03*
X539264Y1564369D03*
X542764D03*
X546264D03*
X549764D03*
X553264D03*
Y1574869D03*
X546264Y1567869D03*
X549764D03*
X553264D03*
X534000Y1591000D03*
X555191Y1413658D03*
X558691D03*
X555191Y1410158D03*
X558691D03*
X555191Y1424158D03*
X558691D03*
X555191Y1427658D03*
X558691D03*
X555191Y1417158D03*
X558691D03*
X555191Y1420658D03*
X558691D03*
X563000Y1442000D03*
X556591Y1488258D03*
Y1491758D03*
Y1495258D03*
Y1481258D03*
Y1484758D03*
X561000Y1513000D03*
X556591Y1498758D03*
X556764Y1557369D03*
Y1571369D03*
Y1560869D03*
Y1564369D03*
Y1574869D03*
Y1567869D03*
X561000Y1589000D03*
X588126Y1666902D03*
Y1672378D03*
Y1677855D03*
X592126Y1672378D03*
Y1679331D03*
X588126Y1683331D03*
X593417D03*
X613000Y1442000D03*
X614000Y1515000D03*
X605513Y1536184D03*
X613513D03*
X605513Y1544184D03*
X613513D03*
X605513Y1552184D03*
X613513D03*
X605513Y1560184D03*
X613513D03*
X605513Y1568184D03*
X613513D03*
X605513Y1576184D03*
X613513D03*
X605513Y1584184D03*
X613513D03*
X605513Y1592184D03*
X613513D03*
X605513Y1600184D03*
X613513D03*
X605513Y1608184D03*
X613513D03*
X605513Y1616184D03*
X613513D03*
X605513Y1624184D03*
X613513D03*
X605513Y1632184D03*
X613513D03*
X605513Y1640184D03*
X613513D03*
Y1648184D03*
X605513Y1656184D03*
X613513D03*
X605513Y1648184D03*
X598063Y1679331D03*
X604000D03*
X609937D03*
X615874D03*
Y1672378D03*
X605513Y1664184D03*
X613513D03*
X598709Y1683331D03*
X604000D03*
X609291D03*
X614583D03*
X618291Y1408358D03*
Y1411858D03*
X621791Y1408358D03*
X625291D03*
X628791D03*
X632291D03*
X635791D03*
X621791Y1411858D03*
X625291D03*
X628791D03*
X632291D03*
X635791D03*
Y1418858D03*
X621791Y1422358D03*
X625291D03*
X628791D03*
X632291D03*
X635791D03*
X621791Y1425858D03*
X625291D03*
X632291D03*
X635791D03*
X628791D03*
X618291Y1415358D03*
Y1418858D03*
Y1422358D03*
Y1425858D03*
X632291Y1418858D03*
X625291D03*
X628791D03*
X621791Y1415358D03*
X625291D03*
X628791D03*
X632291D03*
X635791D03*
X621791Y1418858D03*
X619291Y1484958D03*
X629791Y1488458D03*
X633291D03*
X622791Y1491958D03*
X626291D03*
X629791D03*
X633291D03*
X622791Y1495458D03*
X626291D03*
X629791D03*
X633291D03*
X622791Y1481458D03*
X626291D03*
X629791D03*
X633291D03*
X622791Y1484958D03*
X626291D03*
X629791D03*
X633291D03*
X619291Y1488458D03*
Y1491958D03*
Y1495458D03*
Y1481458D03*
X622791Y1488458D03*
X626291D03*
X622791Y1498958D03*
X626291D03*
X633291D03*
X629791D03*
X619291D03*
X617513Y1540184D03*
Y1548184D03*
Y1556184D03*
Y1564184D03*
Y1572184D03*
Y1580184D03*
Y1588184D03*
Y1596184D03*
Y1604184D03*
Y1612184D03*
X633460Y1634189D03*
X617513Y1620184D03*
Y1628184D03*
Y1636184D03*
X633460Y1641811D03*
X617513Y1652184D03*
Y1660184D03*
Y1644184D03*
X619874Y1677854D03*
Y1672378D03*
Y1683331D03*
X640000Y1440000D03*
X636791Y1488458D03*
Y1491958D03*
Y1495458D03*
Y1481458D03*
Y1484958D03*
X641000Y1513000D03*
X636791Y1498958D03*
X655644Y1534157D03*
Y1542157D03*
Y1550157D03*
Y1558157D03*
Y1566157D03*
Y1574157D03*
X648539Y1634189D03*
X643513D03*
X638486D03*
Y1641811D03*
X643513D03*
X648539D03*
X659644Y1538157D03*
Y1546157D03*
Y1554157D03*
Y1562157D03*
Y1570157D03*
Y1578157D03*
X728691Y1409558D03*
X732191D03*
X735691D03*
X728691Y1413058D03*
X732191D03*
X735691D03*
X725191Y1409558D03*
Y1413058D03*
X735691Y1416558D03*
X728691Y1420058D03*
X732191D03*
X735691D03*
X728691Y1423558D03*
X732191D03*
X735691D03*
X728691Y1427058D03*
X732191D03*
X735691D03*
X725191Y1416558D03*
Y1420058D03*
Y1423558D03*
Y1427058D03*
X728691Y1416558D03*
X732191D03*
X720000Y1443000D03*
X726391Y1484758D03*
X729891Y1488258D03*
X733391D03*
X736891D03*
X729891Y1491758D03*
X733391D03*
X736891D03*
X729891Y1495258D03*
X733391D03*
X736891D03*
X729891Y1481258D03*
X733391D03*
X736891D03*
X729891Y1484758D03*
X733391D03*
X736891D03*
X726391Y1488258D03*
Y1491758D03*
Y1495258D03*
Y1481258D03*
X721000Y1515000D03*
X729891Y1498758D03*
X733391D03*
X736891D03*
X726391D03*
X739191Y1409558D03*
X742691D03*
X739191Y1413058D03*
X742691D03*
X739191Y1416558D03*
X742691D03*
X739191Y1420058D03*
X742691D03*
X739191Y1423558D03*
X742691D03*
X739191Y1427058D03*
X742691D03*
X747000Y1441000D03*
X740391Y1488258D03*
X743891D03*
X740391Y1491758D03*
X743891D03*
X740391Y1495258D03*
X743891D03*
X740391Y1481258D03*
X743891D03*
X740391Y1484758D03*
X743891D03*
X748000Y1513000D03*
X740391Y1498758D03*
X743891D03*
X797000Y1444000D03*
X798000Y1515000D03*
X797000Y1591000D03*
X802391Y1413858D03*
X805891Y1410358D03*
X809391D03*
X812891D03*
X816391D03*
X819891D03*
X805891Y1413858D03*
X809391D03*
X812891D03*
X816391D03*
X819891D03*
X802391Y1410358D03*
X805891Y1424358D03*
X809391D03*
X812891D03*
X816391D03*
X819891D03*
X805891Y1427858D03*
X809391D03*
X816391D03*
X819891D03*
X812891D03*
X802391Y1417358D03*
Y1420858D03*
Y1424358D03*
Y1427858D03*
X805891Y1417358D03*
X809391D03*
X812891D03*
X816391D03*
X819891D03*
X805891Y1420858D03*
X809391D03*
X812891D03*
X816391D03*
X819891D03*
X803191Y1484858D03*
X806691Y1488358D03*
X810191D03*
X813691D03*
X817191D03*
X820691D03*
X806691Y1491858D03*
X810191D03*
X813691D03*
X817191D03*
X820691D03*
X806691Y1495358D03*
X810191D03*
X813691D03*
X817191D03*
X820691D03*
X806691Y1481358D03*
X810191D03*
X813691D03*
X817191D03*
X820691D03*
X806691Y1484858D03*
X810191D03*
X813691D03*
X817191D03*
X820691D03*
X803191Y1488358D03*
Y1491858D03*
Y1495358D03*
Y1481358D03*
X806691Y1498858D03*
X810191D03*
X817191D03*
X820691D03*
X813691D03*
X803191D03*
X805791Y1557458D03*
X809291D03*
X812791D03*
X816291D03*
X819791D03*
X802291D03*
X805791Y1564458D03*
X809291D03*
X812791D03*
X816291D03*
X819791D03*
X805791Y1567958D03*
X809291D03*
X812791D03*
X816291D03*
X819791D03*
X805791Y1571458D03*
X809291D03*
X812791D03*
X816291D03*
X819791D03*
X805791Y1574958D03*
X809291D03*
X816291D03*
X819791D03*
X812791D03*
X805791Y1560958D03*
X809291D03*
X812791D03*
X816291D03*
X819791D03*
X802291Y1564458D03*
Y1567958D03*
Y1571458D03*
Y1574958D03*
Y1560958D03*
X824000Y1442000D03*
X825000Y1513000D03*
X824000Y1589000D03*
G54D12*
X589900Y1453700D03*
Y1524000D03*
X774500Y1453700D03*
Y1524000D03*
G54D13*
X670000Y1391000D03*
X680000D03*
X690000D03*
X840000Y1640000D03*
Y1660000D03*
Y1650000D03*
Y1680000D03*
Y1670000D03*
G54D14*
G01X580169Y1696000D02*
X595700D01*
G54D15*
G01X536000Y1444000D02*
X532900Y1447100D01*
Y1507600D01*
X531000Y1509500D01*
Y1518000D01*
G01D02*
X534000Y1515000D01*
G01X531000Y1594000D02*
Y1562694D01*
X531579Y1562115D01*
Y1560043D01*
X531000Y1559464D01*
Y1518000D01*
G01Y1594000D02*
X534000Y1591000D01*
G01X531000Y1603000D02*
Y1594000D01*
G01Y1655000D02*
Y1603000D01*
G01X614000Y1515000D02*
X611300Y1512300D01*
X584500D01*
X579000Y1517800D01*
Y1586000D01*
X562000Y1603000D01*
X531000D01*
G01X548000Y1690000D02*
X559400Y1701400D01*
X646500D01*
X672700Y1675200D01*
Y1626800D01*
X680600Y1618900D01*
X701900D01*
X711000Y1609800D01*
Y1599000D01*
G01X613000Y1442000D02*
Y1464386D01*
X614000Y1465386D01*
Y1515000D01*
G01X641000Y1513000D02*
X627900D01*
X625900Y1515000D01*
X614000D01*
G01X668000Y1513000D02*
X641000D01*
G01X668000D02*
Y1458000D01*
G01X721000Y1515000D02*
X719000Y1513000D01*
X668000D01*
G01X684530Y1648452D02*
X701452D01*
X702000Y1649000D01*
G01X732000D02*
X707751D01*
G01D02*
X702000D01*
G01X707751D02*
X719751Y1661000D01*
G01X720000Y1443000D02*
Y1461475D01*
X719200Y1462275D01*
Y1465425D01*
X721000Y1467225D01*
Y1515000D01*
G01D02*
X735614D01*
X736964Y1513650D01*
X739036D01*
X740386Y1515000D01*
X746000D01*
X748000Y1513000D01*
G01D02*
X796000D01*
X796302Y1513302D01*
G01D02*
Y1444698D01*
X797000Y1444000D01*
G01X796302Y1513302D02*
X798000Y1515000D01*
G01D02*
Y1518900D01*
X796200Y1520700D01*
Y1587750D01*
X797000Y1588550D01*
Y1591000D01*
G54D16*
G01X543000Y1400000D02*
Y1396400D01*
X548900Y1390500D01*
X591500D01*
X599000Y1398000D01*
X617900D01*
G01X543000Y1400000D02*
X536800Y1406200D01*
Y1439499D01*
X543000Y1445699D01*
Y1464030D01*
X541000Y1466030D01*
Y1470000D01*
G01X590849Y1395086D02*
X588207D01*
X588193Y1395100D01*
X549900D01*
X546000Y1399000D01*
G01D02*
Y1401100D01*
X538500Y1408600D01*
Y1437560D01*
X545485Y1444545D01*
Y1464515D01*
X544000Y1466000D01*
G01X541000Y1470000D02*
X534900Y1476100D01*
Y1510099D01*
X541000Y1516199D01*
Y1544000D01*
G01X544000Y1466000D02*
Y1469970D01*
X536400Y1477570D01*
Y1507900D01*
X544000Y1515500D01*
Y1542000D01*
G01X563000Y1442000D02*
X567000Y1438000D01*
Y1401000D01*
G01X561000Y1513000D02*
X565000Y1509000D01*
Y1472000D01*
G01X561000Y1589000D02*
Y1552000D01*
X565000Y1548000D01*
G01X621000Y1468000D02*
X619400Y1466400D01*
Y1442299D01*
X614100Y1436999D01*
Y1401800D01*
X617900Y1398000D01*
G01X623200Y1395100D02*
X620828D01*
X620814Y1395086D01*
X600849D01*
G01X621000Y1391000D02*
X624300D01*
X627100Y1393800D01*
X655801D01*
X657301Y1395300D01*
X723700D01*
X728000Y1391000D01*
G01X617900Y1398000D02*
X620000D01*
G01X623200Y1395100D02*
X655262D01*
X656763Y1396601D01*
X657839D01*
X657840Y1396600D01*
X724239D01*
X725324Y1395515D01*
X728515D01*
X730000Y1397000D01*
G01X624000Y1465000D02*
X621800Y1462800D01*
Y1442860D01*
X615400Y1436460D01*
Y1406500D01*
X623000Y1398900D01*
Y1397400D01*
X623200Y1397200D01*
Y1395100D01*
G01X640000Y1440000D02*
X644000Y1436000D01*
Y1399000D01*
G01X641000Y1513000D02*
X645000Y1509000D01*
Y1472000D01*
G01X699000Y1563000D02*
X696000Y1566000D01*
Y1586000D01*
X692000Y1590000D01*
X678000D01*
X675000Y1593000D01*
X665000D01*
X652000Y1580000D01*
Y1568000D01*
G01X683500Y1469500D02*
Y1436500D01*
X671000Y1424000D01*
G01X699000Y1611000D02*
X673000D01*
X658000Y1626000D01*
G01X703000Y1610000D02*
X700000Y1607000D01*
X673000D01*
G01X720000Y1570000D02*
X710000D01*
G01X720000Y1563000D02*
X710000D01*
G01X705000Y1622048D02*
Y1646000D01*
X702000Y1649000D01*
G01X742800Y1646000D02*
X723000D01*
X712621Y1635621D01*
X709000D01*
G01X804000Y1392000D02*
X801300Y1389300D01*
X733800D01*
X732100Y1391000D01*
X728000D01*
G01X727000Y1398000D02*
X721200Y1403800D01*
Y1439900D01*
X728000Y1446700D01*
Y1468000D01*
G01X730000Y1397000D02*
Y1399100D01*
X722600Y1406500D01*
Y1438661D01*
X729300Y1445361D01*
Y1447632D01*
X730100Y1448432D01*
Y1469100D01*
X731000Y1470000D01*
G01X807000Y1397000D02*
X804900D01*
X804800Y1396900D01*
X803130D01*
X803030Y1397000D01*
X730000D01*
G01X721000Y1587000D02*
X719515Y1588485D01*
Y1636515D01*
X725000Y1642000D01*
G01Y1590000D02*
X723515Y1591485D01*
Y1636921D01*
X726000Y1639406D01*
X726297D01*
G01X739654Y1633654D02*
Y1590654D01*
X731000Y1582000D01*
G01X732000Y1649000D02*
X749515Y1666515D01*
X753515D01*
X755000Y1668000D01*
G01X747000Y1441000D02*
X751000Y1437000D01*
Y1400000D01*
G01X748000Y1513000D02*
X752000Y1509000D01*
Y1472000D01*
G01X750000Y1656000D02*
Y1638000D01*
G01X752500Y1646000D02*
X754600D01*
X754800Y1645800D01*
X771800D01*
X779000Y1653000D01*
X827000D01*
X840000Y1640000D01*
G01X778000Y1646000D02*
Y1616800D01*
X800300Y1594500D01*
Y1578435D01*
X798591Y1576726D01*
Y1552409D01*
X804000Y1547000D01*
G01Y1399000D02*
X797900Y1405100D01*
Y1437700D01*
X805000Y1444800D01*
Y1469000D01*
G01X807000Y1397000D02*
Y1399100D01*
X799600Y1406500D01*
Y1436901D01*
X809000Y1446301D01*
Y1468000D01*
G01X805000Y1469000D02*
X803515Y1470485D01*
Y1471646D01*
X798600Y1476561D01*
Y1507899D01*
X804770Y1514069D01*
Y1544130D01*
X804000Y1544900D01*
Y1547000D01*
G01X807000Y1545000D02*
Y1547400D01*
X799891Y1554509D01*
Y1576187D01*
X803500Y1579796D01*
Y1599600D01*
X781000Y1622100D01*
Y1629030D01*
X780900Y1629130D01*
Y1630870D01*
X781000Y1630970D01*
Y1643000D01*
G01X807000Y1545000D02*
Y1514460D01*
X799900Y1507360D01*
Y1477100D01*
X809000Y1468000D01*
G01X824000Y1442000D02*
X828000Y1438000D01*
Y1401000D01*
G01X825000Y1513000D02*
X829000Y1509000D01*
Y1472000D01*
G01X824000Y1589000D02*
X828000Y1585000D01*
Y1548000D01*
M02*
