G04 ================== begin FILE IDENTIFICATION RECORD ==================*
G04 Layout Name:  C:/USERS/GEORGE/DOCUMENTS/GITHUB/AVALON/HARDWARE/allegro/AVALON.brd*
G04 Film Name:    SIGNAL2*
G04 File Format:  Gerber RS274X*
G04 File Origin:  Cadence Allegro 16.6-P004*
G04 Origin Date:  Mon Nov 11 19:16:25 2013*
G04 *
G04 Layer:  ETCH/SIGNAL2*
G04 Layer:  PIN/SIGNAL2*
G04 Layer:  VIA CLASS/SIGNAL2*
G04 *
G04 Offset:    (0.00 0.00)*
G04 Mirror:    No*
G04 Mode:      Positive*
G04 Rotation:  0*
G04 FullContactRelief:  No*
G04 UndefLineWidth:     0.00*
G04 ================== end FILE IDENTIFICATION RECORD ====================*
%FSLAX25Y25*MOIN*%
%IR0*IPPOS*OFA0.00000B0.00000*MIA0B0*SFA1.00000B1.00000*%
%ADD11C,.023*%
%ADD10C,.024*%
%ADD13C,.05512*%
%ADD12C,.12992*%
%ADD14C,.02*%
%ADD15C,.016*%
%ADD16C,.008*%
G75*
%LPD*%
G75*
G54D10*
X523850Y1409000D03*
X532000Y1413000D03*
X523850Y1425000D03*
X528000Y1431000D03*
X531000Y1434000D03*
X526850Y1438300D03*
X521850Y1496000D03*
Y1480000D03*
X529000Y1484000D03*
X524850Y1509300D03*
X526600Y1502000D03*
X530000Y1505000D03*
X521850Y1556000D03*
Y1572000D03*
X529079Y1561079D03*
X528000Y1577000D03*
X523000Y1579000D03*
X524850Y1585300D03*
X531000Y1655000D03*
X551000Y1392850D03*
X538000D03*
X543000Y1400000D03*
X546000Y1399000D03*
X553000Y1445150D03*
X539850Y1451000D03*
X549000Y1463850D03*
X536000D03*
X541000Y1470000D03*
X544000Y1466000D03*
X551000Y1516150D03*
X537850Y1522000D03*
X549000Y1539850D03*
X536000D03*
X541000Y1544000D03*
X544000Y1542000D03*
X551000Y1592150D03*
X537850Y1598000D03*
X548000Y1690000D03*
X562000Y1392850D03*
X567000Y1401000D03*
X569300Y1433300D03*
X564900Y1434500D03*
X569000Y1439000D03*
X565000Y1472000D03*
X560000Y1463850D03*
X574150Y1495000D03*
Y1488000D03*
Y1479000D03*
X567000Y1510000D03*
X568000Y1500000D03*
X567400Y1503100D03*
X565000Y1548000D03*
X574150Y1555000D03*
X560000Y1539850D03*
X574150Y1571000D03*
Y1564000D03*
X567000Y1586000D03*
X590849Y1395086D03*
X576150Y1408000D03*
Y1424000D03*
Y1417000D03*
X580169Y1696000D03*
X595700D03*
X615000Y1390850D03*
X600849Y1395086D03*
X600850Y1407000D03*
X609079Y1412079D03*
X600850Y1423000D03*
X603850Y1436300D03*
X603300Y1429900D03*
X607000Y1432100D03*
X616850Y1449000D03*
X616000Y1463850D03*
X601850Y1496000D03*
Y1480000D03*
X609079Y1485079D03*
X604850Y1509300D03*
X607700Y1500500D03*
X607500Y1504700D03*
X628000Y1390850D03*
X621000Y1391000D03*
X623200Y1395100D03*
X620000Y1398000D03*
X630000Y1443150D03*
X629000Y1463850D03*
X621000Y1468000D03*
X624000Y1465000D03*
X631000Y1516150D03*
X617850Y1522000D03*
X639000Y1390850D03*
X644000Y1399000D03*
X653150Y1415000D03*
Y1406000D03*
Y1422000D03*
X646500Y1427100D03*
X641300Y1431800D03*
X646000Y1437000D03*
X645000Y1472000D03*
X640000Y1463850D03*
X654150Y1495000D03*
Y1488000D03*
Y1479000D03*
X647000Y1510000D03*
X648000Y1500000D03*
X642700Y1504200D03*
X652000Y1568000D03*
X671000Y1424000D03*
X668000Y1458000D03*
X677000Y1519000D03*
X673000Y1607000D03*
X658000Y1626000D03*
X670000Y1684000D03*
X697000Y1399000D03*
X683500Y1469500D03*
X691776Y1477776D03*
X682000Y1523000D03*
X678868Y1634736D03*
X681300Y1632600D03*
X693000Y1632000D03*
X698000Y1627000D03*
X687000Y1628000D03*
X693000Y1659000D03*
X684530Y1648452D03*
X697000Y1663000D03*
X691000Y1685000D03*
X707850Y1408000D03*
X716079Y1413079D03*
X707850Y1424000D03*
X714300Y1429200D03*
X716900Y1431500D03*
X710850Y1437300D03*
X708850Y1496000D03*
Y1480000D03*
X717079Y1485079D03*
X711850Y1509300D03*
X713300Y1501300D03*
X715800Y1504100D03*
X699000Y1563000D03*
X710000Y1570000D03*
Y1563000D03*
X711000Y1599000D03*
X699000Y1611000D03*
X703000Y1610000D03*
X705000Y1622048D03*
X699000Y1635000D03*
X709000Y1635621D03*
X717000Y1677000D03*
X712000Y1675000D03*
X735000Y1391850D03*
X722000D03*
X728000Y1391000D03*
X727000Y1398000D03*
X730000Y1397000D03*
X737000Y1444150D03*
X723850Y1450000D03*
X736000Y1463850D03*
X723000D03*
X728000Y1468000D03*
X731000Y1470000D03*
X738000Y1516150D03*
X724850Y1522000D03*
X720000Y1570000D03*
Y1563000D03*
X721000Y1587000D03*
X725000Y1590000D03*
X728890Y1598890D03*
Y1585000D03*
X731000Y1582000D03*
X726297Y1639406D03*
X739654Y1633654D03*
X725000Y1642000D03*
X732000Y1649000D03*
X719751Y1661000D03*
X728000Y1672000D03*
X725000Y1676000D03*
X725100Y1668400D03*
X746000Y1391850D03*
X751000Y1400000D03*
X760150Y1416000D03*
Y1407000D03*
Y1423000D03*
X753800Y1429400D03*
X753500Y1433000D03*
X753000Y1438000D03*
X752000Y1472000D03*
X747000Y1463850D03*
X754000Y1510000D03*
X755804Y1501098D03*
X754400Y1504500D03*
X750000Y1638000D03*
Y1661000D03*
Y1656000D03*
X752500Y1646000D03*
X742800D03*
X760000Y1669000D03*
X755000Y1668000D03*
X761150Y1495000D03*
Y1488000D03*
Y1479000D03*
X767000Y1637000D03*
X778000Y1646000D03*
X799000Y1392850D03*
X784850Y1409000D03*
X793079Y1414079D03*
X784850Y1425000D03*
X790100Y1430700D03*
X793000Y1434000D03*
X800850Y1451000D03*
X787850Y1438300D03*
X800000Y1463850D03*
X785850Y1496000D03*
Y1480000D03*
X793079Y1485079D03*
X788850Y1509300D03*
X791800Y1500300D03*
X791600Y1504000D03*
X784850Y1556000D03*
X799000Y1539850D03*
X784850Y1572000D03*
X790700Y1578900D03*
X788700Y1576200D03*
X793079Y1561079D03*
X800850Y1598000D03*
X787850Y1585300D03*
X786989Y1637385D03*
X783000Y1630000D03*
X786000Y1621000D03*
Y1626000D03*
X781000Y1643000D03*
X791000Y1678000D03*
X812000Y1392850D03*
X804000Y1392000D03*
Y1399000D03*
X807000Y1397000D03*
X814000Y1445150D03*
X813000Y1463850D03*
X805000Y1469000D03*
X809000Y1468000D03*
X815000Y1516150D03*
X801850Y1522000D03*
X812000Y1539850D03*
X804000Y1547000D03*
X807000Y1545000D03*
X814000Y1592150D03*
X813000Y1618000D03*
X806000Y1683000D03*
X823000Y1392850D03*
X828000Y1401000D03*
X837150Y1408000D03*
Y1424000D03*
Y1417000D03*
X831000Y1429000D03*
X825100Y1432700D03*
X830000Y1439000D03*
X829000Y1472000D03*
X824000Y1463850D03*
X838150Y1495000D03*
Y1488000D03*
Y1479000D03*
X831000Y1510000D03*
X832000Y1501000D03*
X826500Y1504200D03*
X828000Y1548000D03*
X837150Y1555000D03*
X823000Y1539850D03*
X837150Y1571000D03*
Y1564000D03*
X832000Y1577000D03*
X830000Y1586000D03*
X830700Y1580300D03*
X828000Y1636000D03*
Y1621000D03*
Y1639000D03*
Y1631000D03*
Y1626000D03*
G54D11*
X541191Y1410158D03*
Y1413658D03*
X548191Y1410158D03*
X551691D03*
X544691Y1413658D03*
X548191D03*
X551691D03*
X544691Y1410158D03*
X541191Y1420658D03*
Y1424158D03*
Y1427658D03*
Y1417158D03*
X544691Y1427658D03*
X548191D03*
X551691D03*
X544691Y1417158D03*
X548191D03*
X551691D03*
X544691Y1420658D03*
X548191D03*
X551691D03*
X544691Y1424158D03*
X548191D03*
X551691D03*
X536000Y1444000D03*
X542591Y1488258D03*
X546091D03*
X549591D03*
X553091D03*
X542591Y1491758D03*
X546091D03*
X549591D03*
X553091D03*
X542591Y1495258D03*
X546091D03*
X549591D03*
X553091D03*
X542591Y1481258D03*
X546091D03*
X549591D03*
X553091D03*
X542591Y1484758D03*
X546091D03*
X549591D03*
X553091D03*
X539091Y1488258D03*
Y1491758D03*
Y1495258D03*
Y1481258D03*
Y1484758D03*
X534000Y1515000D03*
X542591Y1498758D03*
X546091D03*
X553091D03*
X549591D03*
X539091D03*
X546264Y1557369D03*
X542764D03*
X549764D03*
X539264D03*
X553264D03*
X546264Y1574869D03*
X542764D03*
X539264Y1567869D03*
X542764D03*
X549764Y1574869D03*
X539264Y1571369D03*
Y1574869D03*
X549764Y1571369D03*
X553264D03*
X546264D03*
X542764D03*
X539264Y1560869D03*
X542764D03*
X546264D03*
X549764D03*
X553264D03*
X539264Y1564369D03*
X542764D03*
X546264D03*
X549764D03*
X553264D03*
Y1574869D03*
X546264Y1567869D03*
X549764D03*
X553264D03*
X534000Y1591000D03*
X555191Y1413658D03*
X558691D03*
X555191Y1410158D03*
X558691D03*
X555191Y1424158D03*
X558691D03*
X555191Y1427658D03*
X558691D03*
X555191Y1417158D03*
X558691D03*
X555191Y1420658D03*
X558691D03*
X563000Y1442000D03*
X556591Y1488258D03*
Y1491758D03*
Y1495258D03*
Y1481258D03*
Y1484758D03*
X561000Y1513000D03*
X556591Y1498758D03*
X556764Y1557369D03*
Y1571369D03*
Y1560869D03*
Y1564369D03*
Y1574869D03*
Y1567869D03*
X561000Y1589000D03*
X588126Y1666902D03*
Y1672378D03*
Y1677855D03*
X592126Y1672378D03*
Y1679331D03*
X588126Y1683331D03*
X593417D03*
X613000Y1442000D03*
X614000Y1515000D03*
X605513Y1536184D03*
X613513D03*
X605513Y1544184D03*
X613513D03*
X605513Y1552184D03*
X613513D03*
X605513Y1560184D03*
X613513D03*
X605513Y1568184D03*
X613513D03*
X605513Y1576184D03*
X613513D03*
X605513Y1584184D03*
X613513D03*
X605513Y1592184D03*
X613513D03*
X605513Y1600184D03*
X613513D03*
X605513Y1608184D03*
X613513D03*
X605513Y1616184D03*
X613513D03*
X605513Y1624184D03*
X613513D03*
X605513Y1632184D03*
X613513D03*
X605513Y1640184D03*
X613513D03*
Y1648184D03*
X605513Y1656184D03*
X613513D03*
X605513Y1648184D03*
X598063Y1679331D03*
X604000D03*
X609937D03*
X615874D03*
Y1672378D03*
X605513Y1664184D03*
X613513D03*
X598709Y1683331D03*
X604000D03*
X609291D03*
X614583D03*
X618291Y1408358D03*
Y1411858D03*
X621791Y1408358D03*
X625291D03*
X628791D03*
X632291D03*
X635791D03*
X621791Y1411858D03*
X625291D03*
X628791D03*
X632291D03*
X635791D03*
Y1418858D03*
X621791Y1422358D03*
X625291D03*
X628791D03*
X632291D03*
X635791D03*
X621791Y1425858D03*
X625291D03*
X632291D03*
X635791D03*
X628791D03*
X618291Y1415358D03*
Y1418858D03*
Y1422358D03*
Y1425858D03*
X632291Y1418858D03*
X625291D03*
X628791D03*
X621791Y1415358D03*
X625291D03*
X628791D03*
X632291D03*
X635791D03*
X621791Y1418858D03*
X619291Y1484958D03*
X629791Y1488458D03*
X633291D03*
X622791Y1491958D03*
X626291D03*
X629791D03*
X633291D03*
X622791Y1495458D03*
X626291D03*
X629791D03*
X633291D03*
X622791Y1481458D03*
X626291D03*
X629791D03*
X633291D03*
X622791Y1484958D03*
X626291D03*
X629791D03*
X633291D03*
X619291Y1488458D03*
Y1491958D03*
Y1495458D03*
Y1481458D03*
X622791Y1488458D03*
X626291D03*
X622791Y1498958D03*
X626291D03*
X633291D03*
X629791D03*
X619291D03*
X617513Y1540184D03*
Y1548184D03*
Y1556184D03*
Y1564184D03*
Y1572184D03*
Y1580184D03*
Y1588184D03*
Y1596184D03*
Y1604184D03*
Y1612184D03*
X633460Y1634189D03*
X617513Y1620184D03*
Y1628184D03*
Y1636184D03*
X633460Y1641811D03*
X617513Y1652184D03*
Y1660184D03*
Y1644184D03*
X619874Y1677854D03*
Y1672378D03*
Y1683331D03*
X640000Y1440000D03*
X636791Y1488458D03*
Y1491958D03*
Y1495458D03*
Y1481458D03*
Y1484958D03*
X641000Y1513000D03*
X636791Y1498958D03*
X655644Y1534157D03*
Y1542157D03*
Y1550157D03*
Y1558157D03*
Y1566157D03*
Y1574157D03*
X648539Y1634189D03*
X643513D03*
X638486D03*
Y1641811D03*
X643513D03*
X648539D03*
X659644Y1538157D03*
Y1546157D03*
Y1554157D03*
Y1562157D03*
Y1570157D03*
Y1578157D03*
X728691Y1409558D03*
X732191D03*
X735691D03*
X728691Y1413058D03*
X732191D03*
X735691D03*
X725191Y1409558D03*
Y1413058D03*
X735691Y1416558D03*
X728691Y1420058D03*
X732191D03*
X735691D03*
X728691Y1423558D03*
X732191D03*
X735691D03*
X728691Y1427058D03*
X732191D03*
X735691D03*
X725191Y1416558D03*
Y1420058D03*
Y1423558D03*
Y1427058D03*
X728691Y1416558D03*
X732191D03*
X720000Y1443000D03*
X726391Y1484758D03*
X729891Y1488258D03*
X733391D03*
X736891D03*
X729891Y1491758D03*
X733391D03*
X736891D03*
X729891Y1495258D03*
X733391D03*
X736891D03*
X729891Y1481258D03*
X733391D03*
X736891D03*
X729891Y1484758D03*
X733391D03*
X736891D03*
X726391Y1488258D03*
Y1491758D03*
Y1495258D03*
Y1481258D03*
X721000Y1515000D03*
X729891Y1498758D03*
X733391D03*
X736891D03*
X726391D03*
X739191Y1409558D03*
X742691D03*
X739191Y1413058D03*
X742691D03*
X739191Y1416558D03*
X742691D03*
X739191Y1420058D03*
X742691D03*
X739191Y1423558D03*
X742691D03*
X739191Y1427058D03*
X742691D03*
X747000Y1441000D03*
X740391Y1488258D03*
X743891D03*
X740391Y1491758D03*
X743891D03*
X740391Y1495258D03*
X743891D03*
X740391Y1481258D03*
X743891D03*
X740391Y1484758D03*
X743891D03*
X748000Y1513000D03*
X740391Y1498758D03*
X743891D03*
X797000Y1444000D03*
X798000Y1515000D03*
X797000Y1591000D03*
X802391Y1413858D03*
X805891Y1410358D03*
X809391D03*
X812891D03*
X816391D03*
X819891D03*
X805891Y1413858D03*
X809391D03*
X812891D03*
X816391D03*
X819891D03*
X802391Y1410358D03*
X805891Y1424358D03*
X809391D03*
X812891D03*
X816391D03*
X819891D03*
X805891Y1427858D03*
X809391D03*
X816391D03*
X819891D03*
X812891D03*
X802391Y1417358D03*
Y1420858D03*
Y1424358D03*
Y1427858D03*
X805891Y1417358D03*
X809391D03*
X812891D03*
X816391D03*
X819891D03*
X805891Y1420858D03*
X809391D03*
X812891D03*
X816391D03*
X819891D03*
X803191Y1484858D03*
X806691Y1488358D03*
X810191D03*
X813691D03*
X817191D03*
X820691D03*
X806691Y1491858D03*
X810191D03*
X813691D03*
X817191D03*
X820691D03*
X806691Y1495358D03*
X810191D03*
X813691D03*
X817191D03*
X820691D03*
X806691Y1481358D03*
X810191D03*
X813691D03*
X817191D03*
X820691D03*
X806691Y1484858D03*
X810191D03*
X813691D03*
X817191D03*
X820691D03*
X803191Y1488358D03*
Y1491858D03*
Y1495358D03*
Y1481358D03*
X806691Y1498858D03*
X810191D03*
X817191D03*
X820691D03*
X813691D03*
X803191D03*
X805791Y1557458D03*
X809291D03*
X812791D03*
X816291D03*
X819791D03*
X802291D03*
X805791Y1564458D03*
X809291D03*
X812791D03*
X816291D03*
X819791D03*
X805791Y1567958D03*
X809291D03*
X812791D03*
X816291D03*
X819791D03*
X805791Y1571458D03*
X809291D03*
X812791D03*
X816291D03*
X819791D03*
X805791Y1574958D03*
X809291D03*
X816291D03*
X819791D03*
X812791D03*
X805791Y1560958D03*
X809291D03*
X812791D03*
X816291D03*
X819791D03*
X802291Y1564458D03*
Y1567958D03*
Y1571458D03*
Y1574958D03*
Y1560958D03*
X824000Y1442000D03*
X825000Y1513000D03*
X824000Y1589000D03*
G54D12*
X589900Y1453700D03*
Y1524000D03*
X774500Y1453700D03*
Y1524000D03*
G54D13*
X670000Y1391000D03*
X680000D03*
X690000D03*
X840000Y1640000D03*
Y1660000D03*
Y1650000D03*
Y1680000D03*
Y1670000D03*
G54D14*
G01X580169Y1696000D02*
X577869Y1693700D01*
X519700D01*
X516000Y1690000D01*
Y1390000D01*
X521000Y1385000D01*
X664000D01*
X670000Y1391000D01*
G54D15*
G01X531000Y1655000D02*
X545300D01*
X591700Y1701400D01*
X646500D01*
X648100Y1699800D01*
Y1684882D01*
X684530Y1648452D01*
G01X711000Y1599000D02*
Y1590000D01*
X718000Y1583000D01*
X726890D01*
X728890Y1585000D01*
G01D02*
Y1598890D01*
G01X767000Y1637000D02*
X757400D01*
X751300Y1643100D01*
X737900D01*
X732000Y1649000D01*
G54D16*
G01X786000Y1621000D02*
Y1597332D01*
X792400Y1590932D01*
Y1590160D01*
X797779Y1584781D01*
Y1557601D01*
X774478Y1534300D01*
X716978D01*
X696978Y1514300D01*
X660700D01*
X647700Y1527300D01*
X615538D01*
X615537Y1527301D01*
X614461D01*
X600500Y1513340D01*
Y1506168D01*
X578000Y1483668D01*
Y1431300D01*
X577100Y1430400D01*
X565630D01*
X559130Y1436900D01*
X529600D01*
X524800Y1432100D01*
Y1429100D01*
X526700Y1427200D01*
Y1418300D01*
X532000Y1413000D01*
G01X528000Y1431000D02*
X530100D01*
X531100Y1430000D01*
X562352D01*
X566152Y1426200D01*
X609009D01*
X611409Y1428600D01*
X642900D01*
X644400Y1427100D01*
X646500D01*
G01X641300Y1431800D02*
X639400Y1429900D01*
X610870D01*
X608470Y1427500D01*
X566691D01*
X562891Y1431300D01*
X533700D01*
X531000Y1434000D01*
G01X569300Y1433300D02*
X571404Y1435404D01*
Y1440096D01*
X551500Y1460000D01*
X546400D01*
X532900Y1473500D01*
Y1506000D01*
X531600Y1507300D01*
X529100D01*
X526600Y1504800D01*
Y1502000D01*
G01X564900Y1434500D02*
Y1436600D01*
X565700Y1437400D01*
Y1442701D01*
X549701Y1458700D01*
X545861D01*
X531100Y1473461D01*
Y1498739D01*
X530000Y1499839D01*
Y1505000D01*
G01X786000Y1626000D02*
X783900Y1623900D01*
Y1597593D01*
X791100Y1590393D01*
Y1589621D01*
X796479Y1584242D01*
Y1558140D01*
X773939Y1535600D01*
X716439D01*
X696439Y1515600D01*
X661239D01*
X648239Y1528600D01*
X616077D01*
X616076Y1528601D01*
X613922D01*
X599200Y1513879D01*
Y1509998D01*
X582102Y1492900D01*
X567100D01*
X551000Y1509000D01*
X528961D01*
X524500Y1504539D01*
Y1501130D01*
X529000Y1496630D01*
Y1484000D01*
G01X783000Y1630000D02*
Y1627900D01*
X782600Y1627500D01*
Y1598132D01*
X782599Y1598131D01*
Y1597055D01*
X789800Y1589854D01*
Y1589082D01*
X795179Y1583703D01*
Y1558679D01*
X773400Y1536900D01*
X715900D01*
X695900Y1516900D01*
X661778D01*
X648777Y1529901D01*
X613383D01*
X580482Y1497000D01*
X575120D01*
X575020Y1497100D01*
X573280D01*
X573180Y1497000D01*
X566600D01*
X563000Y1500600D01*
Y1512100D01*
X563050Y1512150D01*
Y1513850D01*
X563000Y1513900D01*
Y1516461D01*
X529079Y1550382D01*
Y1561079D01*
G01X528000Y1577000D02*
Y1568039D01*
X536400Y1559639D01*
Y1556200D01*
X569500Y1523100D01*
Y1501500D01*
X568000Y1500000D01*
G01X567400Y1503100D02*
X564900Y1505600D01*
Y1516400D01*
X535100Y1546200D01*
Y1559100D01*
X524485Y1569715D01*
Y1577515D01*
X523000Y1579000D01*
G01X563000Y1442000D02*
X551900D01*
X549900Y1444000D01*
X536000D01*
G01X561000Y1513000D02*
X550000D01*
X548000Y1515000D01*
X534000D01*
G01X561000Y1589000D02*
X549800D01*
X547800Y1591000D01*
X534000D01*
G01X609079Y1412079D02*
X616258Y1404900D01*
X637100D01*
X650000Y1417800D01*
Y1452000D01*
X710000Y1512000D01*
X713800D01*
X716700Y1509100D01*
X742866D01*
X753496Y1498700D01*
X764701D01*
X823000Y1556999D01*
Y1584500D01*
X828000Y1589500D01*
Y1621000D01*
G01X648000Y1500000D02*
Y1466800D01*
X626400Y1445200D01*
X611899D01*
X609500Y1442801D01*
Y1430900D01*
X608200Y1429600D01*
X605700D01*
X605400Y1429900D01*
X603300D01*
G01X642700Y1504200D02*
X644185Y1502715D01*
Y1483185D01*
X626100Y1465100D01*
Y1464130D01*
X624870Y1462900D01*
X623900D01*
X607000Y1446000D01*
Y1432100D01*
G01X640000Y1440000D02*
X627000D01*
X625000Y1442000D01*
X613000D01*
G01X813000Y1618000D02*
X793700Y1598700D01*
Y1590699D01*
X799079Y1585320D01*
Y1557062D01*
X775017Y1533000D01*
X717517D01*
X697517Y1513000D01*
X660161D01*
X647161Y1526000D01*
X614999D01*
X601800Y1512801D01*
Y1501200D01*
X609079Y1493921D01*
Y1485079D01*
G01X641000Y1513000D02*
X627900D01*
X625900Y1515000D01*
X614000D01*
G01X755804Y1501098D02*
X753425D01*
X743914Y1510400D01*
X717239D01*
X714339Y1513300D01*
X709461D01*
X700361Y1504200D01*
X646600D01*
X643700Y1507100D01*
X614300D01*
X607700Y1500500D01*
G01X754400Y1504500D02*
X752300D01*
X745100Y1511700D01*
X717778D01*
X714878Y1514600D01*
X708922D01*
X699822Y1505500D01*
X647139D01*
X644239Y1508400D01*
X611200D01*
X607500Y1504700D01*
G01X712000Y1675000D02*
X691000D01*
X682000Y1684000D01*
X670000D01*
G01X677000Y1519000D02*
Y1632800D01*
X677383Y1633183D01*
Y1633251D01*
X678868Y1634736D01*
G01X681300Y1632600D02*
Y1625730D01*
X682000Y1625030D01*
Y1523000D01*
G01X788700Y1576200D02*
X782500Y1582400D01*
Y1586500D01*
X739700Y1629300D01*
X695700D01*
X693000Y1632000D01*
G01X840000Y1670000D02*
X815600D01*
X778100Y1632500D01*
X748178D01*
X747101Y1632499D01*
X743000Y1636600D01*
X735340D01*
X733740Y1635000D01*
X721862D01*
X717662Y1639200D01*
X695900D01*
X690600Y1633900D01*
Y1629600D01*
X693200Y1627000D01*
X698000D01*
G01X840000Y1680000D02*
X823761D01*
X777561Y1633800D01*
X747639D01*
X743539Y1637900D01*
X734801D01*
X733201Y1636300D01*
X722401D01*
X718201Y1640500D01*
X696439D01*
X695362Y1640501D01*
X687000Y1632139D01*
Y1628000D01*
G01X750000Y1661000D02*
X747900Y1658900D01*
X718881D01*
X718781Y1659000D01*
X693000D01*
G01X760000Y1669000D02*
X754100Y1663100D01*
X718881D01*
X718781Y1663000D01*
X697000D01*
G01X717000Y1677000D02*
X712970D01*
X712870Y1677100D01*
X711130D01*
X711030Y1677000D01*
X699000D01*
X691000Y1685000D01*
G01X828000Y1639000D02*
X842700Y1624300D01*
Y1435891D01*
X841851Y1435042D01*
Y1433850D01*
X827100Y1419099D01*
Y1410000D01*
X821400Y1404300D01*
X724858D01*
X716079Y1413079D01*
G01X831000Y1429000D02*
X823600D01*
X821500Y1431100D01*
X800400D01*
X790200Y1420900D01*
X752800D01*
X744500Y1429200D01*
X714300D01*
G01X825100Y1432700D02*
X798801D01*
X793401Y1427300D01*
X750604D01*
X746378Y1431500D01*
X716900D01*
G01X717079Y1485079D02*
X724158Y1478000D01*
X744200D01*
X747100Y1480900D01*
Y1483920D01*
X754580Y1491400D01*
X762500D01*
X764900Y1493800D01*
Y1497000D01*
X825900Y1558000D01*
Y1585201D01*
X830100Y1589401D01*
Y1623900D01*
X828000Y1626000D01*
G01X753800Y1429400D02*
X749200Y1434000D01*
Y1454770D01*
X729670Y1474300D01*
X723049D01*
X713300Y1484049D01*
Y1501300D01*
G01X753500Y1433000D02*
X750500Y1436000D01*
Y1455309D01*
X729809Y1476000D01*
X723188D01*
X714979Y1484209D01*
Y1499009D01*
X715800Y1499830D01*
Y1504100D01*
G01X790700Y1578900D02*
X785750Y1583850D01*
Y1587250D01*
X742300Y1630700D01*
X706461D01*
X702161Y1635000D01*
X699000D01*
G01X747000Y1441000D02*
X735800D01*
X733800Y1443000D01*
X720000D01*
G01X721000Y1515000D02*
X730700D01*
X735500Y1519800D01*
X741200D01*
X748000Y1513000D01*
G01X728000Y1672000D02*
X730000Y1674000D01*
X797000D01*
X806000Y1683000D01*
G01X791000Y1678000D02*
X727000D01*
X725000Y1676000D01*
G01X742800Y1646000D02*
X752500D01*
G01X828000Y1636000D02*
X841400Y1622600D01*
Y1436430D01*
X824500Y1419530D01*
Y1410458D01*
X821200Y1407158D01*
X800000D01*
X793079Y1414079D01*
G01X832000Y1501000D02*
Y1485820D01*
X794700Y1448520D01*
Y1438800D01*
X795404Y1438096D01*
Y1432504D01*
X793600Y1430700D01*
X790100D01*
G01X826500Y1504200D02*
X829000Y1501700D01*
Y1485000D01*
X793000Y1449000D01*
Y1434000D01*
G01X824000Y1442000D02*
X812800D01*
X810800Y1444000D01*
X797000D01*
G01X828000Y1631000D02*
X840100Y1618900D01*
Y1551761D01*
X806239Y1517900D01*
X797100D01*
X795500Y1516300D01*
Y1497499D01*
X793079Y1495078D01*
Y1485079D01*
G01X825000Y1513000D02*
X814200D01*
X812200Y1515000D01*
X798000D01*
G01X791800Y1500300D02*
X794200Y1502700D01*
Y1516839D01*
X796561Y1519200D01*
X805700D01*
X832000Y1545500D01*
Y1577000D01*
G01X791600Y1504000D02*
Y1517300D01*
X800000Y1525700D01*
X802122D01*
X828000Y1551578D01*
Y1577800D01*
X829015Y1578815D01*
X829215D01*
X830700Y1580300D01*
G01X786989Y1637385D02*
X786684Y1637080D01*
Y1636684D01*
X780900Y1630900D01*
Y1596915D01*
X788500Y1589315D01*
Y1588543D01*
X793100Y1583943D01*
Y1581130D01*
X793079Y1581109D01*
Y1561079D01*
G01X824000Y1589000D02*
X812200D01*
X810200Y1591000D01*
X797000D01*
M02*
