G04 This is an RS-274x file exported by *
G04 gerbv version 2.6.0 *
G04 More information is available about gerbv at *
G04 http://gerbv.gpleda.org/ *
G04 --End of header info--*
%MOIN*%
%FSLAX34Y34*%
%IPPOS*%
G04 --Define apertures--*
%ADD10C,0.0039*%
%ADD11R,0.0236X0.0315*%
%ADD12R,0.0767X0.0767*%
%ADD13R,0.1082X0.1082*%
%ADD14R,0.0413X0.0373*%
%ADD15R,0.0373X0.0413*%
%ADD16R,0.0491X0.0570*%
%ADD17R,0.0570X0.0491*%
%ADD18R,0.0688X0.0609*%
%ADD19R,0.0865X0.0176*%
%ADD20R,0.0964X0.0767*%
%ADD21R,0.0255X0.0334*%
%ADD22R,0.0334X0.0255*%
%ADD23R,0.0330X0.0290*%
%ADD24R,0.0240X0.0098*%
%ADD25R,0.0137X0.0570*%
%ADD26R,0.0768X0.0480*%
%ADD27R,0.2185X0.1024*%
%ADD28R,0.2736X0.0531*%
%ADD29R,0.0610X0.0256*%
%ADD30R,0.0807X0.0256*%
%ADD31R,0.1063X0.0767*%
%ADD32R,0.0137X0.0216*%
%ADD33R,0.0100X0.0180*%
%ADD34R,0.1240X0.0374*%
%ADD35R,0.0374X0.1240*%
%ADD36R,0.0176X0.0098*%
%ADD37R,0.0098X0.0176*%
%ADD38R,0.0571X0.0571*%
%ADD39R,0.0098X0.0275*%
%ADD40R,0.0275X0.0098*%
%ADD41R,0.0256X0.0256*%
%ADD42R,0.0098X0.0255*%
%ADD43R,0.0255X0.0098*%
%ADD44R,0.0217X0.0150*%
%ADD45R,0.0150X0.0256*%
%ADD46R,0.0453X0.0256*%
%ADD47R,0.0757X0.0469*%
%ADD48R,0.0335X0.0433*%
%ADD49R,0.0130X0.0961*%
%ADD50R,0.0491X0.1397*%
G04 --Start main section--*
G54D36*
G01X0043896Y-026477D03*
G01X0043896Y-026674D03*
G01X0043896Y-026871D03*
G01X0043896Y-027067D03*
G01X0043896Y-027264D03*
G01X0043896Y-027461D03*
G01X0043896Y-027657D03*
G01X0043896Y-027854D03*
G01X0043896Y-028051D03*
G01X0043896Y-028247D03*
G01X0043896Y-028444D03*
G01X0043896Y-028641D03*
G54D37*
G01X0043601Y-028936D03*
G01X0043404Y-028936D03*
G01X0043207Y-028936D03*
G01X0043011Y-028936D03*
G01X0042814Y-028936D03*
G01X0042617Y-028936D03*
G01X0042421Y-028936D03*
G01X0042224Y-028936D03*
G01X0042027Y-028936D03*
G01X0041831Y-028936D03*
G01X0041634Y-028936D03*
G01X0041437Y-028936D03*
G54D36*
G01X0041142Y-028641D03*
G01X0041142Y-028444D03*
G01X0041142Y-028247D03*
G01X0041142Y-028051D03*
G01X0041142Y-027854D03*
G01X0041142Y-027657D03*
G01X0041142Y-027461D03*
G01X0041142Y-027264D03*
G01X0041142Y-027067D03*
G01X0041142Y-026871D03*
G01X0041142Y-026674D03*
G01X0041142Y-026477D03*
G54D37*
G01X0041437Y-026182D03*
G01X0041634Y-026182D03*
G01X0041831Y-026182D03*
G01X0042027Y-026182D03*
G01X0042224Y-026182D03*
G01X0042421Y-026182D03*
G01X0042617Y-026182D03*
G01X0042814Y-026182D03*
G01X0043011Y-026182D03*
G01X0043207Y-026182D03*
G01X0043404Y-026182D03*
G01X0043601Y-026182D03*
G54D38*
G01X0041811Y-026850D03*
G01X0042519Y-026850D03*
G01X0043228Y-026850D03*
G01X0041811Y-027559D03*
G01X0042519Y-027559D03*
G01X0043228Y-027559D03*
G01X0041811Y-028267D03*
G01X0042519Y-028267D03*
G01X0043228Y-028267D03*
M02*
