G04 (created by PCBNEW (2013-mar-13)-testing) date Mon 12 Aug 2013 08:34:01 AM ICT*
%MOIN*%
G04 Gerber Fmt 3.4, Leading zero omitted, Abs format*
%FSLAX34Y34*%
G01*
G70*
G90*
G04 APERTURE LIST*
%ADD10C,0.00393701*%
%ADD11R,0.023622X0.0314961*%
%ADD12R,0.0688315X0.0609315*%
%ADD13R,0.0865315X0.0176315*%
%ADD14R,0.0964315X0.0767315*%
%ADD15R,0.0240157X0.00984252*%
%ADD16R,0.0137315X0.0570315*%
%ADD17R,0.0767717X0.0480315*%
%ADD18R,0.0216315X0.0137315*%
%ADD19R,0.124016X0.0374016*%
%ADD20R,0.0374016X0.124016*%
%ADD21R,0.0176315X0.0098315*%
%ADD22R,0.0098315X0.0176315*%
%ADD23R,0.0570866X0.0570866*%
%ADD24R,0.0098315X0.0275315*%
%ADD25R,0.0275315X0.0098315*%
%ADD26R,0.0255906X0.0255906*%
%ADD27R,0.0098315X0.0255315*%
%ADD28R,0.0255315X0.0098315*%
%ADD29R,0.0216535X0.0149606*%
%ADD30R,0.0149606X0.0255906*%
%ADD31R,0.0452756X0.0255906*%
%ADD32R,0.075748X0.0468504*%
%ADD33R,0.0334646X0.0433071*%
%ADD34R,0.0129921X0.096063*%
%ADD35R,0.00984252X0.0240157*%
%ADD36R,0.0177165X0.0177165*%
%ADD37R,0.0492126X0.0334646*%
%ADD38R,0.0728346X0.0334646*%
%ADD39R,0.104331X0.0649606*%
%ADD40R,0.0137795X0.0275591*%
%ADD41R,0.00984252X0.0275591*%
%ADD42R,0.0531496X0.0374016*%
%ADD43R,0.0295276X0.0295276*%
%ADD44R,0.0531496X0.0492126*%
%ADD45R,0.0728346X0.0767717*%
%ADD46R,0.108268X0.120079*%
%ADD47R,0.0610236X0.0295276*%
%ADD48R,0.0295276X0.0374016*%
%ADD49R,0.0374016X0.0295276*%
%ADD50R,0.0964567X0.155512*%
%ADD51R,0.0295276X0.0334646*%
%ADD52R,0.0334646X0.0295276*%
%ADD53R,0.0374016X0.0374016*%
%ADD54R,0.0334646X0.0255906*%
%ADD55R,0.0255906X0.0334646*%
%ADD56R,0.0255906X0.0177165*%
%ADD57R,0.0177165X0.0255906*%
%ADD58R,0.0216535X0.0177165*%
%ADD59R,0.0177165X0.0216535*%
%ADD60R,0.218504X0.102362*%
%ADD61R,0.273622X0.0531496*%
G04 APERTURE END LIST*
G54D10*
X38779Y-61023D02*
X78149Y-61023D01*
X78149Y-61023D02*
X78149Y-21653D01*
X78149Y-21653D02*
X38779Y-21653D01*
X38779Y-21653D02*
X38779Y-61023D01*
G54D11*
X69242Y-41151D03*
X68592Y-41151D03*
X69242Y-41761D03*
X68592Y-41761D03*
G54D12*
X56279Y-29960D03*
X56279Y-31062D03*
X55413Y-29960D03*
X55413Y-31062D03*
X61850Y-29980D03*
X61850Y-31082D03*
X62775Y-29980D03*
X62775Y-31082D03*
X60885Y-52607D03*
X60885Y-51505D03*
X61712Y-52587D03*
X61712Y-51485D03*
X55275Y-52657D03*
X55275Y-51555D03*
X54429Y-52657D03*
X54429Y-51555D03*
G54D13*
X74763Y-41338D03*
X74763Y-41652D03*
X74763Y-41967D03*
X74763Y-41024D03*
X74763Y-40709D03*
G54D14*
X74803Y-43089D03*
X74803Y-39587D03*
X76948Y-43089D03*
X76948Y-39587D03*
G54D15*
X68905Y-40334D03*
X68181Y-40078D03*
X68905Y-39822D03*
X68905Y-40078D03*
X68181Y-39822D03*
X68181Y-40334D03*
G54D16*
X71112Y-42785D03*
X71368Y-42785D03*
X71624Y-42785D03*
X71880Y-42785D03*
X72136Y-42785D03*
X72390Y-42785D03*
X72646Y-42785D03*
X72902Y-42785D03*
X73158Y-42785D03*
X73414Y-42785D03*
X73414Y-39931D03*
X73158Y-39931D03*
X72902Y-39931D03*
X72646Y-39931D03*
X72390Y-39931D03*
X72136Y-39931D03*
X71880Y-39931D03*
X71624Y-39931D03*
X71368Y-39931D03*
X71112Y-39931D03*
G54D17*
X75629Y-45610D03*
X75629Y-46614D03*
X75629Y-44606D03*
G54D18*
X70403Y-32539D03*
X70403Y-32893D03*
G54D19*
X68051Y-23159D03*
X68051Y-22155D03*
X70137Y-22155D03*
X70137Y-23159D03*
G54D20*
X76643Y-29665D03*
X77647Y-29665D03*
X77647Y-31751D03*
X76643Y-31751D03*
X76643Y-50925D03*
X77647Y-50925D03*
X77647Y-53011D03*
X76643Y-53011D03*
G54D19*
X70137Y-59517D03*
X70137Y-60521D03*
X68051Y-60521D03*
X68051Y-59517D03*
G54D21*
X43896Y-26477D03*
X43896Y-26674D03*
X43896Y-26871D03*
X43896Y-27067D03*
X43896Y-27264D03*
X43896Y-27461D03*
X43896Y-27657D03*
X43896Y-27854D03*
X43896Y-28051D03*
X43896Y-28247D03*
X43896Y-28444D03*
X43896Y-28641D03*
G54D22*
X43601Y-28936D03*
X43404Y-28936D03*
X43207Y-28936D03*
X43011Y-28936D03*
X42814Y-28936D03*
X42617Y-28936D03*
X42421Y-28936D03*
X42224Y-28936D03*
X42027Y-28936D03*
X41831Y-28936D03*
X41634Y-28936D03*
X41437Y-28936D03*
G54D21*
X41142Y-28641D03*
X41142Y-28444D03*
X41142Y-28247D03*
X41142Y-28051D03*
X41142Y-27854D03*
X41142Y-27657D03*
X41142Y-27461D03*
X41142Y-27264D03*
X41142Y-27067D03*
X41142Y-26871D03*
X41142Y-26674D03*
X41142Y-26477D03*
G54D22*
X41437Y-26182D03*
X41634Y-26182D03*
X41831Y-26182D03*
X42027Y-26182D03*
X42224Y-26182D03*
X42421Y-26182D03*
X42617Y-26182D03*
X42814Y-26182D03*
X43011Y-26182D03*
X43207Y-26182D03*
X43404Y-26182D03*
X43601Y-26182D03*
G54D23*
X41811Y-26850D03*
X42519Y-26850D03*
X43228Y-26850D03*
X41811Y-27559D03*
X42519Y-27559D03*
X43228Y-27559D03*
X41811Y-28267D03*
X42519Y-28267D03*
X43228Y-28267D03*
G54D21*
X43896Y-32382D03*
X43896Y-32579D03*
X43896Y-32776D03*
X43896Y-32972D03*
X43896Y-33169D03*
X43896Y-33366D03*
X43896Y-33562D03*
X43896Y-33759D03*
X43896Y-33956D03*
X43896Y-34152D03*
X43896Y-34349D03*
X43896Y-34546D03*
G54D22*
X43601Y-34841D03*
X43404Y-34841D03*
X43207Y-34841D03*
X43011Y-34841D03*
X42814Y-34841D03*
X42617Y-34841D03*
X42421Y-34841D03*
X42224Y-34841D03*
X42027Y-34841D03*
X41831Y-34841D03*
X41634Y-34841D03*
X41437Y-34841D03*
G54D21*
X41142Y-34546D03*
X41142Y-34349D03*
X41142Y-34152D03*
X41142Y-33956D03*
X41142Y-33759D03*
X41142Y-33562D03*
X41142Y-33366D03*
X41142Y-33169D03*
X41142Y-32972D03*
X41142Y-32776D03*
X41142Y-32579D03*
X41142Y-32382D03*
G54D22*
X41437Y-32087D03*
X41634Y-32087D03*
X41831Y-32087D03*
X42027Y-32087D03*
X42224Y-32087D03*
X42421Y-32087D03*
X42617Y-32087D03*
X42814Y-32087D03*
X43011Y-32087D03*
X43207Y-32087D03*
X43404Y-32087D03*
X43601Y-32087D03*
G54D23*
X41811Y-32755D03*
X42519Y-32755D03*
X43228Y-32755D03*
X41811Y-33464D03*
X42519Y-33464D03*
X43228Y-33464D03*
X41811Y-34173D03*
X42519Y-34173D03*
X43228Y-34173D03*
G54D21*
X50983Y-32382D03*
X50983Y-32579D03*
X50983Y-32776D03*
X50983Y-32972D03*
X50983Y-33169D03*
X50983Y-33366D03*
X50983Y-33562D03*
X50983Y-33759D03*
X50983Y-33956D03*
X50983Y-34152D03*
X50983Y-34349D03*
X50983Y-34546D03*
G54D22*
X50688Y-34841D03*
X50491Y-34841D03*
X50294Y-34841D03*
X50098Y-34841D03*
X49901Y-34841D03*
X49704Y-34841D03*
X49508Y-34841D03*
X49311Y-34841D03*
X49114Y-34841D03*
X48918Y-34841D03*
X48721Y-34841D03*
X48524Y-34841D03*
G54D21*
X48229Y-34546D03*
X48229Y-34349D03*
X48229Y-34152D03*
X48229Y-33956D03*
X48229Y-33759D03*
X48229Y-33562D03*
X48229Y-33366D03*
X48229Y-33169D03*
X48229Y-32972D03*
X48229Y-32776D03*
X48229Y-32579D03*
X48229Y-32382D03*
G54D22*
X48524Y-32087D03*
X48721Y-32087D03*
X48918Y-32087D03*
X49114Y-32087D03*
X49311Y-32087D03*
X49508Y-32087D03*
X49704Y-32087D03*
X49901Y-32087D03*
X50098Y-32087D03*
X50294Y-32087D03*
X50491Y-32087D03*
X50688Y-32087D03*
G54D23*
X48897Y-32755D03*
X49606Y-32755D03*
X50314Y-32755D03*
X48897Y-33464D03*
X49606Y-33464D03*
X50314Y-33464D03*
X48897Y-34173D03*
X49606Y-34173D03*
X50314Y-34173D03*
G54D21*
X50983Y-26477D03*
X50983Y-26674D03*
X50983Y-26871D03*
X50983Y-27067D03*
X50983Y-27264D03*
X50983Y-27461D03*
X50983Y-27657D03*
X50983Y-27854D03*
X50983Y-28051D03*
X50983Y-28247D03*
X50983Y-28444D03*
X50983Y-28641D03*
G54D22*
X50688Y-28936D03*
X50491Y-28936D03*
X50294Y-28936D03*
X50098Y-28936D03*
X49901Y-28936D03*
X49704Y-28936D03*
X49508Y-28936D03*
X49311Y-28936D03*
X49114Y-28936D03*
X48918Y-28936D03*
X48721Y-28936D03*
X48524Y-28936D03*
G54D21*
X48229Y-28641D03*
X48229Y-28444D03*
X48229Y-28247D03*
X48229Y-28051D03*
X48229Y-27854D03*
X48229Y-27657D03*
X48229Y-27461D03*
X48229Y-27264D03*
X48229Y-27067D03*
X48229Y-26871D03*
X48229Y-26674D03*
X48229Y-26477D03*
G54D22*
X48524Y-26182D03*
X48721Y-26182D03*
X48918Y-26182D03*
X49114Y-26182D03*
X49311Y-26182D03*
X49508Y-26182D03*
X49704Y-26182D03*
X49901Y-26182D03*
X50098Y-26182D03*
X50294Y-26182D03*
X50491Y-26182D03*
X50688Y-26182D03*
G54D23*
X48897Y-26850D03*
X49606Y-26850D03*
X50314Y-26850D03*
X48897Y-27559D03*
X49606Y-27559D03*
X50314Y-27559D03*
X48897Y-28267D03*
X49606Y-28267D03*
X50314Y-28267D03*
G54D21*
X41142Y-50294D03*
X41142Y-50097D03*
X41142Y-49900D03*
X41142Y-49704D03*
X41142Y-49507D03*
X41142Y-49310D03*
X41142Y-49114D03*
X41142Y-48917D03*
X41142Y-48720D03*
X41142Y-48524D03*
X41142Y-48327D03*
X41142Y-48130D03*
G54D22*
X41437Y-47835D03*
X41634Y-47835D03*
X41831Y-47835D03*
X42027Y-47835D03*
X42224Y-47835D03*
X42421Y-47835D03*
X42617Y-47835D03*
X42814Y-47835D03*
X43011Y-47835D03*
X43207Y-47835D03*
X43404Y-47835D03*
X43601Y-47835D03*
G54D21*
X43896Y-48130D03*
X43896Y-48327D03*
X43896Y-48524D03*
X43896Y-48720D03*
X43896Y-48917D03*
X43896Y-49114D03*
X43896Y-49310D03*
X43896Y-49507D03*
X43896Y-49704D03*
X43896Y-49900D03*
X43896Y-50097D03*
X43896Y-50294D03*
G54D22*
X43601Y-50589D03*
X43404Y-50589D03*
X43207Y-50589D03*
X43011Y-50589D03*
X42814Y-50589D03*
X42617Y-50589D03*
X42421Y-50589D03*
X42224Y-50589D03*
X42027Y-50589D03*
X41831Y-50589D03*
X41634Y-50589D03*
X41437Y-50589D03*
G54D23*
X43228Y-49921D03*
X42519Y-49921D03*
X41811Y-49921D03*
X43228Y-49212D03*
X42519Y-49212D03*
X41811Y-49212D03*
X43228Y-48503D03*
X42519Y-48503D03*
X41811Y-48503D03*
G54D21*
X41142Y-56200D03*
X41142Y-56003D03*
X41142Y-55806D03*
X41142Y-55610D03*
X41142Y-55413D03*
X41142Y-55216D03*
X41142Y-55020D03*
X41142Y-54823D03*
X41142Y-54626D03*
X41142Y-54430D03*
X41142Y-54233D03*
X41142Y-54036D03*
G54D22*
X41437Y-53741D03*
X41634Y-53741D03*
X41831Y-53741D03*
X42027Y-53741D03*
X42224Y-53741D03*
X42421Y-53741D03*
X42617Y-53741D03*
X42814Y-53741D03*
X43011Y-53741D03*
X43207Y-53741D03*
X43404Y-53741D03*
X43601Y-53741D03*
G54D21*
X43896Y-54036D03*
X43896Y-54233D03*
X43896Y-54430D03*
X43896Y-54626D03*
X43896Y-54823D03*
X43896Y-55020D03*
X43896Y-55216D03*
X43896Y-55413D03*
X43896Y-55610D03*
X43896Y-55806D03*
X43896Y-56003D03*
X43896Y-56200D03*
G54D22*
X43601Y-56495D03*
X43404Y-56495D03*
X43207Y-56495D03*
X43011Y-56495D03*
X42814Y-56495D03*
X42617Y-56495D03*
X42421Y-56495D03*
X42224Y-56495D03*
X42027Y-56495D03*
X41831Y-56495D03*
X41634Y-56495D03*
X41437Y-56495D03*
G54D23*
X43228Y-55826D03*
X42519Y-55826D03*
X41811Y-55826D03*
X43228Y-55118D03*
X42519Y-55118D03*
X41811Y-55118D03*
X43228Y-54409D03*
X42519Y-54409D03*
X41811Y-54409D03*
G54D21*
X48229Y-56200D03*
X48229Y-56003D03*
X48229Y-55806D03*
X48229Y-55610D03*
X48229Y-55413D03*
X48229Y-55216D03*
X48229Y-55020D03*
X48229Y-54823D03*
X48229Y-54626D03*
X48229Y-54430D03*
X48229Y-54233D03*
X48229Y-54036D03*
G54D22*
X48524Y-53741D03*
X48721Y-53741D03*
X48918Y-53741D03*
X49114Y-53741D03*
X49311Y-53741D03*
X49508Y-53741D03*
X49704Y-53741D03*
X49901Y-53741D03*
X50098Y-53741D03*
X50294Y-53741D03*
X50491Y-53741D03*
X50688Y-53741D03*
G54D21*
X50983Y-54036D03*
X50983Y-54233D03*
X50983Y-54430D03*
X50983Y-54626D03*
X50983Y-54823D03*
X50983Y-55020D03*
X50983Y-55216D03*
X50983Y-55413D03*
X50983Y-55610D03*
X50983Y-55806D03*
X50983Y-56003D03*
X50983Y-56200D03*
G54D22*
X50688Y-56495D03*
X50491Y-56495D03*
X50294Y-56495D03*
X50098Y-56495D03*
X49901Y-56495D03*
X49704Y-56495D03*
X49508Y-56495D03*
X49311Y-56495D03*
X49114Y-56495D03*
X48918Y-56495D03*
X48721Y-56495D03*
X48524Y-56495D03*
G54D23*
X50314Y-55826D03*
X49606Y-55826D03*
X48897Y-55826D03*
X50314Y-55118D03*
X49606Y-55118D03*
X48897Y-55118D03*
X50314Y-54409D03*
X49606Y-54409D03*
X48897Y-54409D03*
G54D21*
X48229Y-50294D03*
X48229Y-50097D03*
X48229Y-49900D03*
X48229Y-49704D03*
X48229Y-49507D03*
X48229Y-49310D03*
X48229Y-49114D03*
X48229Y-48917D03*
X48229Y-48720D03*
X48229Y-48524D03*
X48229Y-48327D03*
X48229Y-48130D03*
G54D22*
X48524Y-47835D03*
X48721Y-47835D03*
X48918Y-47835D03*
X49114Y-47835D03*
X49311Y-47835D03*
X49508Y-47835D03*
X49704Y-47835D03*
X49901Y-47835D03*
X50098Y-47835D03*
X50294Y-47835D03*
X50491Y-47835D03*
X50688Y-47835D03*
G54D21*
X50983Y-48130D03*
X50983Y-48327D03*
X50983Y-48524D03*
X50983Y-48720D03*
X50983Y-48917D03*
X50983Y-49114D03*
X50983Y-49310D03*
X50983Y-49507D03*
X50983Y-49704D03*
X50983Y-49900D03*
X50983Y-50097D03*
X50983Y-50294D03*
G54D22*
X50688Y-50589D03*
X50491Y-50589D03*
X50294Y-50589D03*
X50098Y-50589D03*
X49901Y-50589D03*
X49704Y-50589D03*
X49508Y-50589D03*
X49311Y-50589D03*
X49114Y-50589D03*
X48918Y-50589D03*
X48721Y-50589D03*
X48524Y-50589D03*
G54D23*
X50314Y-49921D03*
X49606Y-49921D03*
X48897Y-49921D03*
X50314Y-49212D03*
X49606Y-49212D03*
X48897Y-49212D03*
X50314Y-48503D03*
X49606Y-48503D03*
X48897Y-48503D03*
G54D21*
X65552Y-50294D03*
X65552Y-50097D03*
X65552Y-49900D03*
X65552Y-49704D03*
X65552Y-49507D03*
X65552Y-49310D03*
X65552Y-49114D03*
X65552Y-48917D03*
X65552Y-48720D03*
X65552Y-48524D03*
X65552Y-48327D03*
X65552Y-48130D03*
G54D22*
X65847Y-47835D03*
X66044Y-47835D03*
X66241Y-47835D03*
X66437Y-47835D03*
X66634Y-47835D03*
X66831Y-47835D03*
X67027Y-47835D03*
X67224Y-47835D03*
X67421Y-47835D03*
X67617Y-47835D03*
X67814Y-47835D03*
X68011Y-47835D03*
G54D21*
X68306Y-48130D03*
X68306Y-48327D03*
X68306Y-48524D03*
X68306Y-48720D03*
X68306Y-48917D03*
X68306Y-49114D03*
X68306Y-49310D03*
X68306Y-49507D03*
X68306Y-49704D03*
X68306Y-49900D03*
X68306Y-50097D03*
X68306Y-50294D03*
G54D22*
X68011Y-50589D03*
X67814Y-50589D03*
X67617Y-50589D03*
X67421Y-50589D03*
X67224Y-50589D03*
X67027Y-50589D03*
X66831Y-50589D03*
X66634Y-50589D03*
X66437Y-50589D03*
X66241Y-50589D03*
X66044Y-50589D03*
X65847Y-50589D03*
G54D23*
X67637Y-49921D03*
X66929Y-49921D03*
X66220Y-49921D03*
X67637Y-49212D03*
X66929Y-49212D03*
X66220Y-49212D03*
X67637Y-48503D03*
X66929Y-48503D03*
X66220Y-48503D03*
G54D21*
X65552Y-56200D03*
X65552Y-56003D03*
X65552Y-55806D03*
X65552Y-55610D03*
X65552Y-55413D03*
X65552Y-55216D03*
X65552Y-55020D03*
X65552Y-54823D03*
X65552Y-54626D03*
X65552Y-54430D03*
X65552Y-54233D03*
X65552Y-54036D03*
G54D22*
X65847Y-53741D03*
X66044Y-53741D03*
X66241Y-53741D03*
X66437Y-53741D03*
X66634Y-53741D03*
X66831Y-53741D03*
X67027Y-53741D03*
X67224Y-53741D03*
X67421Y-53741D03*
X67617Y-53741D03*
X67814Y-53741D03*
X68011Y-53741D03*
G54D21*
X68306Y-54036D03*
X68306Y-54233D03*
X68306Y-54430D03*
X68306Y-54626D03*
X68306Y-54823D03*
X68306Y-55020D03*
X68306Y-55216D03*
X68306Y-55413D03*
X68306Y-55610D03*
X68306Y-55806D03*
X68306Y-56003D03*
X68306Y-56200D03*
G54D22*
X68011Y-56495D03*
X67814Y-56495D03*
X67617Y-56495D03*
X67421Y-56495D03*
X67224Y-56495D03*
X67027Y-56495D03*
X66831Y-56495D03*
X66634Y-56495D03*
X66437Y-56495D03*
X66241Y-56495D03*
X66044Y-56495D03*
X65847Y-56495D03*
G54D23*
X67637Y-55826D03*
X66929Y-55826D03*
X66220Y-55826D03*
X67637Y-55118D03*
X66929Y-55118D03*
X66220Y-55118D03*
X67637Y-54409D03*
X66929Y-54409D03*
X66220Y-54409D03*
G54D21*
X72638Y-56200D03*
X72638Y-56003D03*
X72638Y-55806D03*
X72638Y-55610D03*
X72638Y-55413D03*
X72638Y-55216D03*
X72638Y-55020D03*
X72638Y-54823D03*
X72638Y-54626D03*
X72638Y-54430D03*
X72638Y-54233D03*
X72638Y-54036D03*
G54D22*
X72933Y-53741D03*
X73130Y-53741D03*
X73327Y-53741D03*
X73523Y-53741D03*
X73720Y-53741D03*
X73917Y-53741D03*
X74113Y-53741D03*
X74310Y-53741D03*
X74507Y-53741D03*
X74703Y-53741D03*
X74900Y-53741D03*
X75097Y-53741D03*
G54D21*
X75392Y-54036D03*
X75392Y-54233D03*
X75392Y-54430D03*
X75392Y-54626D03*
X75392Y-54823D03*
X75392Y-55020D03*
X75392Y-55216D03*
X75392Y-55413D03*
X75392Y-55610D03*
X75392Y-55806D03*
X75392Y-56003D03*
X75392Y-56200D03*
G54D22*
X75097Y-56495D03*
X74900Y-56495D03*
X74703Y-56495D03*
X74507Y-56495D03*
X74310Y-56495D03*
X74113Y-56495D03*
X73917Y-56495D03*
X73720Y-56495D03*
X73523Y-56495D03*
X73327Y-56495D03*
X73130Y-56495D03*
X72933Y-56495D03*
G54D23*
X74724Y-55826D03*
X74015Y-55826D03*
X73307Y-55826D03*
X74724Y-55118D03*
X74015Y-55118D03*
X73307Y-55118D03*
X74724Y-54409D03*
X74015Y-54409D03*
X73307Y-54409D03*
G54D21*
X72638Y-50294D03*
X72638Y-50097D03*
X72638Y-49900D03*
X72638Y-49704D03*
X72638Y-49507D03*
X72638Y-49310D03*
X72638Y-49114D03*
X72638Y-48917D03*
X72638Y-48720D03*
X72638Y-48524D03*
X72638Y-48327D03*
X72638Y-48130D03*
G54D22*
X72933Y-47835D03*
X73130Y-47835D03*
X73327Y-47835D03*
X73523Y-47835D03*
X73720Y-47835D03*
X73917Y-47835D03*
X74113Y-47835D03*
X74310Y-47835D03*
X74507Y-47835D03*
X74703Y-47835D03*
X74900Y-47835D03*
X75097Y-47835D03*
G54D21*
X75392Y-48130D03*
X75392Y-48327D03*
X75392Y-48524D03*
X75392Y-48720D03*
X75392Y-48917D03*
X75392Y-49114D03*
X75392Y-49310D03*
X75392Y-49507D03*
X75392Y-49704D03*
X75392Y-49900D03*
X75392Y-50097D03*
X75392Y-50294D03*
G54D22*
X75097Y-50589D03*
X74900Y-50589D03*
X74703Y-50589D03*
X74507Y-50589D03*
X74310Y-50589D03*
X74113Y-50589D03*
X73917Y-50589D03*
X73720Y-50589D03*
X73523Y-50589D03*
X73327Y-50589D03*
X73130Y-50589D03*
X72933Y-50589D03*
G54D23*
X74724Y-49921D03*
X74015Y-49921D03*
X73307Y-49921D03*
X74724Y-49212D03*
X74015Y-49212D03*
X73307Y-49212D03*
X74724Y-48503D03*
X74015Y-48503D03*
X73307Y-48503D03*
G54D21*
X75392Y-32382D03*
X75392Y-32579D03*
X75392Y-32776D03*
X75392Y-32972D03*
X75392Y-33169D03*
X75392Y-33366D03*
X75392Y-33562D03*
X75392Y-33759D03*
X75392Y-33956D03*
X75392Y-34152D03*
X75392Y-34349D03*
X75392Y-34546D03*
G54D22*
X75097Y-34841D03*
X74900Y-34841D03*
X74703Y-34841D03*
X74507Y-34841D03*
X74310Y-34841D03*
X74113Y-34841D03*
X73917Y-34841D03*
X73720Y-34841D03*
X73523Y-34841D03*
X73327Y-34841D03*
X73130Y-34841D03*
X72933Y-34841D03*
G54D21*
X72638Y-34546D03*
X72638Y-34349D03*
X72638Y-34152D03*
X72638Y-33956D03*
X72638Y-33759D03*
X72638Y-33562D03*
X72638Y-33366D03*
X72638Y-33169D03*
X72638Y-32972D03*
X72638Y-32776D03*
X72638Y-32579D03*
X72638Y-32382D03*
G54D22*
X72933Y-32087D03*
X73130Y-32087D03*
X73327Y-32087D03*
X73523Y-32087D03*
X73720Y-32087D03*
X73917Y-32087D03*
X74113Y-32087D03*
X74310Y-32087D03*
X74507Y-32087D03*
X74703Y-32087D03*
X74900Y-32087D03*
X75097Y-32087D03*
G54D23*
X73307Y-32755D03*
X74015Y-32755D03*
X74724Y-32755D03*
X73307Y-33464D03*
X74015Y-33464D03*
X74724Y-33464D03*
X73307Y-34173D03*
X74015Y-34173D03*
X74724Y-34173D03*
G54D21*
X75392Y-26477D03*
X75392Y-26674D03*
X75392Y-26871D03*
X75392Y-27067D03*
X75392Y-27264D03*
X75392Y-27461D03*
X75392Y-27657D03*
X75392Y-27854D03*
X75392Y-28051D03*
X75392Y-28247D03*
X75392Y-28444D03*
X75392Y-28641D03*
G54D22*
X75097Y-28936D03*
X74900Y-28936D03*
X74703Y-28936D03*
X74507Y-28936D03*
X74310Y-28936D03*
X74113Y-28936D03*
X73917Y-28936D03*
X73720Y-28936D03*
X73523Y-28936D03*
X73327Y-28936D03*
X73130Y-28936D03*
X72933Y-28936D03*
G54D21*
X72638Y-28641D03*
X72638Y-28444D03*
X72638Y-28247D03*
X72638Y-28051D03*
X72638Y-27854D03*
X72638Y-27657D03*
X72638Y-27461D03*
X72638Y-27264D03*
X72638Y-27067D03*
X72638Y-26871D03*
X72638Y-26674D03*
X72638Y-26477D03*
G54D22*
X72933Y-26182D03*
X73130Y-26182D03*
X73327Y-26182D03*
X73523Y-26182D03*
X73720Y-26182D03*
X73917Y-26182D03*
X74113Y-26182D03*
X74310Y-26182D03*
X74507Y-26182D03*
X74703Y-26182D03*
X74900Y-26182D03*
X75097Y-26182D03*
G54D23*
X73307Y-26850D03*
X74015Y-26850D03*
X74724Y-26850D03*
X73307Y-27559D03*
X74015Y-27559D03*
X74724Y-27559D03*
X73307Y-28267D03*
X74015Y-28267D03*
X74724Y-28267D03*
G54D21*
X68306Y-26477D03*
X68306Y-26674D03*
X68306Y-26871D03*
X68306Y-27067D03*
X68306Y-27264D03*
X68306Y-27461D03*
X68306Y-27657D03*
X68306Y-27854D03*
X68306Y-28051D03*
X68306Y-28247D03*
X68306Y-28444D03*
X68306Y-28641D03*
G54D22*
X68011Y-28936D03*
X67814Y-28936D03*
X67617Y-28936D03*
X67421Y-28936D03*
X67224Y-28936D03*
X67027Y-28936D03*
X66831Y-28936D03*
X66634Y-28936D03*
X66437Y-28936D03*
X66241Y-28936D03*
X66044Y-28936D03*
X65847Y-28936D03*
G54D21*
X65552Y-28641D03*
X65552Y-28444D03*
X65552Y-28247D03*
X65552Y-28051D03*
X65552Y-27854D03*
X65552Y-27657D03*
X65552Y-27461D03*
X65552Y-27264D03*
X65552Y-27067D03*
X65552Y-26871D03*
X65552Y-26674D03*
X65552Y-26477D03*
G54D22*
X65847Y-26182D03*
X66044Y-26182D03*
X66241Y-26182D03*
X66437Y-26182D03*
X66634Y-26182D03*
X66831Y-26182D03*
X67027Y-26182D03*
X67224Y-26182D03*
X67421Y-26182D03*
X67617Y-26182D03*
X67814Y-26182D03*
X68011Y-26182D03*
G54D23*
X66220Y-26850D03*
X66929Y-26850D03*
X67637Y-26850D03*
X66220Y-27559D03*
X66929Y-27559D03*
X67637Y-27559D03*
X66220Y-28267D03*
X66929Y-28267D03*
X67637Y-28267D03*
G54D21*
X68306Y-32382D03*
X68306Y-32579D03*
X68306Y-32776D03*
X68306Y-32972D03*
X68306Y-33169D03*
X68306Y-33366D03*
X68306Y-33562D03*
X68306Y-33759D03*
X68306Y-33956D03*
X68306Y-34152D03*
X68306Y-34349D03*
X68306Y-34546D03*
G54D22*
X68011Y-34841D03*
X67814Y-34841D03*
X67617Y-34841D03*
X67421Y-34841D03*
X67224Y-34841D03*
X67027Y-34841D03*
X66831Y-34841D03*
X66634Y-34841D03*
X66437Y-34841D03*
X66241Y-34841D03*
X66044Y-34841D03*
X65847Y-34841D03*
G54D21*
X65552Y-34546D03*
X65552Y-34349D03*
X65552Y-34152D03*
X65552Y-33956D03*
X65552Y-33759D03*
X65552Y-33562D03*
X65552Y-33366D03*
X65552Y-33169D03*
X65552Y-32972D03*
X65552Y-32776D03*
X65552Y-32579D03*
X65552Y-32382D03*
G54D22*
X65847Y-32087D03*
X66044Y-32087D03*
X66241Y-32087D03*
X66437Y-32087D03*
X66634Y-32087D03*
X66831Y-32087D03*
X67027Y-32087D03*
X67224Y-32087D03*
X67421Y-32087D03*
X67617Y-32087D03*
X67814Y-32087D03*
X68011Y-32087D03*
G54D23*
X66220Y-32755D03*
X66929Y-32755D03*
X67637Y-32755D03*
X66220Y-33464D03*
X66929Y-33464D03*
X67637Y-33464D03*
X66220Y-34173D03*
X66929Y-34173D03*
X67637Y-34173D03*
G54D24*
X65214Y-41015D03*
X65017Y-41015D03*
X64821Y-41015D03*
X64624Y-41015D03*
G54D25*
X64349Y-41290D03*
X64349Y-41487D03*
X64349Y-41683D03*
X64349Y-41880D03*
G54D24*
X64624Y-42155D03*
X64821Y-42155D03*
X65017Y-42155D03*
X65214Y-42155D03*
G54D25*
X65489Y-41880D03*
X65489Y-41683D03*
X65489Y-41487D03*
X65489Y-41290D03*
G54D26*
X65096Y-41408D03*
X65096Y-41763D03*
X64742Y-41408D03*
X64742Y-41763D03*
G54D27*
X58917Y-35816D03*
X59173Y-35816D03*
X59429Y-35816D03*
X59685Y-35816D03*
X59940Y-35816D03*
X60196Y-35816D03*
X60452Y-35816D03*
G54D28*
X60649Y-35501D03*
X60649Y-35245D03*
X60649Y-34989D03*
X58721Y-35501D03*
X58721Y-35245D03*
X58721Y-34989D03*
G54D29*
X58700Y-33710D03*
X58700Y-34123D03*
X58700Y-34536D03*
X60669Y-33710D03*
X60669Y-34123D03*
X60659Y-34536D03*
G54D30*
X59773Y-33483D03*
X59438Y-33483D03*
X60108Y-33483D03*
G54D31*
X59960Y-35078D03*
X59370Y-35078D03*
X59370Y-35412D03*
X59960Y-35412D03*
G54D32*
X59773Y-34517D03*
X59773Y-33906D03*
G54D33*
X59025Y-34379D03*
X59025Y-33867D03*
G54D34*
X60472Y-34123D03*
G54D27*
X58089Y-46902D03*
X57833Y-46902D03*
X57577Y-46902D03*
X57322Y-46902D03*
X57066Y-46902D03*
X56810Y-46902D03*
X56554Y-46902D03*
G54D28*
X56358Y-47218D03*
X56358Y-47474D03*
X56358Y-47730D03*
X58286Y-47218D03*
X58286Y-47474D03*
X58286Y-47730D03*
G54D29*
X58306Y-49008D03*
X58306Y-48595D03*
X58306Y-48182D03*
X56337Y-49008D03*
X56337Y-48595D03*
X56347Y-48182D03*
G54D30*
X57233Y-49235D03*
X57568Y-49235D03*
X56898Y-49235D03*
G54D31*
X57046Y-47640D03*
X57636Y-47640D03*
X57636Y-47306D03*
X57046Y-47306D03*
G54D32*
X57233Y-48201D03*
X57233Y-48812D03*
G54D33*
X57981Y-48339D03*
X57981Y-48851D03*
G54D34*
X56534Y-48595D03*
G54D20*
X40285Y-53011D03*
X39281Y-53011D03*
X39281Y-50925D03*
X40285Y-50925D03*
G54D35*
X70944Y-44545D03*
X71200Y-43820D03*
X71456Y-44545D03*
X71200Y-44545D03*
X71456Y-43820D03*
X70944Y-43820D03*
G54D36*
X74025Y-41496D03*
X74025Y-41850D03*
X74025Y-40807D03*
X74025Y-41161D03*
X74035Y-42401D03*
X74035Y-42755D03*
X74025Y-40118D03*
X74025Y-40472D03*
G54D37*
X58263Y-22542D03*
G54D38*
X58361Y-23133D03*
G54D37*
X58263Y-23724D03*
G54D39*
X59248Y-23133D03*
G54D37*
X58188Y-60177D03*
G54D38*
X58090Y-59586D03*
G54D37*
X58188Y-58995D03*
G54D39*
X57204Y-59586D03*
G54D40*
X69291Y-44685D03*
X68661Y-44685D03*
G54D41*
X68877Y-44685D03*
X69074Y-44685D03*
X69074Y-43602D03*
X68877Y-43602D03*
G54D40*
X68661Y-43602D03*
X69291Y-43602D03*
G54D42*
X72883Y-43740D03*
X72883Y-44488D03*
X73750Y-44104D03*
G54D43*
X69616Y-42352D03*
X69616Y-42942D03*
X76407Y-35275D03*
X76998Y-35275D03*
G54D44*
X74596Y-45600D03*
X74596Y-44458D03*
G54D45*
X57290Y-31123D03*
G54D46*
X60696Y-32205D03*
X60696Y-30040D03*
G54D45*
X59838Y-51588D03*
G54D46*
X56432Y-50505D03*
X56432Y-52670D03*
G54D47*
X66525Y-41840D03*
X66525Y-41131D03*
G54D48*
X44074Y-23740D03*
X43444Y-23740D03*
X50068Y-23494D03*
X49438Y-23494D03*
G54D49*
X48139Y-29881D03*
X48139Y-30511D03*
X41023Y-29862D03*
X41023Y-30492D03*
X44015Y-52431D03*
X44015Y-51801D03*
X47746Y-53307D03*
X47746Y-52677D03*
G54D48*
X45127Y-59261D03*
X44498Y-59261D03*
X51259Y-59320D03*
X50629Y-59320D03*
X65078Y-59301D03*
X65708Y-59301D03*
X73011Y-59360D03*
X73641Y-59360D03*
G54D49*
X68366Y-52844D03*
X68366Y-52214D03*
X75324Y-52874D03*
X75324Y-52244D03*
X68681Y-29645D03*
X68681Y-30275D03*
X72559Y-29862D03*
X72559Y-30492D03*
G54D48*
X65285Y-23307D03*
X65915Y-23307D03*
X73238Y-23661D03*
X73868Y-23661D03*
G54D50*
X50515Y-43141D03*
X50515Y-39992D03*
X54736Y-43141D03*
X54736Y-39992D03*
G54D51*
X59409Y-49015D03*
X59409Y-48385D03*
X57559Y-34370D03*
X57559Y-33740D03*
G54D52*
X53740Y-35984D03*
X54370Y-35984D03*
X57539Y-23716D03*
X56909Y-23716D03*
X57539Y-23157D03*
X56909Y-23157D03*
X58897Y-58996D03*
X59527Y-58996D03*
X58897Y-59586D03*
X59527Y-59586D03*
X66122Y-39173D03*
X65492Y-39173D03*
X66122Y-39783D03*
X65492Y-39783D03*
X64842Y-43011D03*
X65472Y-43011D03*
X58204Y-45159D03*
X58833Y-45159D03*
X57644Y-45151D03*
X57015Y-45151D03*
G54D51*
X54114Y-46929D03*
X54114Y-46299D03*
X62500Y-52293D03*
X62500Y-51663D03*
G54D52*
X59118Y-46985D03*
X59747Y-46985D03*
X62559Y-46732D03*
X63188Y-46732D03*
X58507Y-46103D03*
X59136Y-46103D03*
G54D51*
X55645Y-48017D03*
X55645Y-48646D03*
G54D52*
X58936Y-37375D03*
X58307Y-37375D03*
X59511Y-37422D03*
X60140Y-37422D03*
G54D51*
X63031Y-35511D03*
X63031Y-36141D03*
X54606Y-30354D03*
X54606Y-30984D03*
G54D52*
X58038Y-35635D03*
X57409Y-35635D03*
X58573Y-36548D03*
X57944Y-36548D03*
G54D51*
X61464Y-34713D03*
X61464Y-34084D03*
G54D53*
X63996Y-39881D03*
X64822Y-39881D03*
X63996Y-39074D03*
X64822Y-39074D03*
X60157Y-48287D03*
X60157Y-49114D03*
X60984Y-48287D03*
X60984Y-49114D03*
X61811Y-48287D03*
X61811Y-49114D03*
X62460Y-48267D03*
X63287Y-48267D03*
X62460Y-47440D03*
X63287Y-47440D03*
X56850Y-34468D03*
X56850Y-33641D03*
X56023Y-34468D03*
X56023Y-33641D03*
X55196Y-34468D03*
X55196Y-33641D03*
X54468Y-34488D03*
X53641Y-34488D03*
X54468Y-35275D03*
X53641Y-35275D03*
G54D54*
X68110Y-43818D03*
X68110Y-44409D03*
X67312Y-43818D03*
X67312Y-44409D03*
X72145Y-43799D03*
X72145Y-44389D03*
X68818Y-42942D03*
X68818Y-42352D03*
X77283Y-34704D03*
X77283Y-34114D03*
X73051Y-37185D03*
X73051Y-37775D03*
G54D55*
X75354Y-38346D03*
X75944Y-38346D03*
X74606Y-38346D03*
X74015Y-38346D03*
G54D54*
X69911Y-39468D03*
X69911Y-40059D03*
X69911Y-40669D03*
X69911Y-41259D03*
X64133Y-42775D03*
X64133Y-43366D03*
X56303Y-45477D03*
X56303Y-46068D03*
X54830Y-47154D03*
X54830Y-46563D03*
X54633Y-45540D03*
X54633Y-44949D03*
G54D55*
X57857Y-44340D03*
X58448Y-44340D03*
G54D54*
X53811Y-44945D03*
X53811Y-45536D03*
X55440Y-45540D03*
X55440Y-44949D03*
X55653Y-46815D03*
X55653Y-47406D03*
G54D55*
X60062Y-45304D03*
X60653Y-45304D03*
X59723Y-46103D03*
X60314Y-46103D03*
X57606Y-45970D03*
X57015Y-45970D03*
G54D54*
X60834Y-37095D03*
X60834Y-36504D03*
X62307Y-35516D03*
X62307Y-36107D03*
X62464Y-36914D03*
X62464Y-37505D03*
G54D55*
X59259Y-38194D03*
X58668Y-38194D03*
G54D54*
X63267Y-37509D03*
X63267Y-36918D03*
X61645Y-36945D03*
X61645Y-37536D03*
X61456Y-35902D03*
X61456Y-35311D03*
G54D55*
X57043Y-37375D03*
X56452Y-37375D03*
X57322Y-36548D03*
X56731Y-36548D03*
X59503Y-36596D03*
X60094Y-36596D03*
G54D56*
X70423Y-42450D03*
X70423Y-42844D03*
G54D57*
X71988Y-44970D03*
X72381Y-44970D03*
X69832Y-44429D03*
X70226Y-44429D03*
G54D56*
X43366Y-51722D03*
X43366Y-52116D03*
G54D57*
X49448Y-52834D03*
X49842Y-52834D03*
G54D56*
X43966Y-59045D03*
X43966Y-59438D03*
G54D57*
X49931Y-59124D03*
X49537Y-59124D03*
X68248Y-51673D03*
X67854Y-51673D03*
X75246Y-51732D03*
X74852Y-51732D03*
G54D56*
X66220Y-59370D03*
X66220Y-59763D03*
G54D57*
X73523Y-59980D03*
X73129Y-59980D03*
X73740Y-29960D03*
X74133Y-29960D03*
X67007Y-29901D03*
X66614Y-29901D03*
X73946Y-24301D03*
X74340Y-24301D03*
G54D56*
X66456Y-23297D03*
X66456Y-22903D03*
G54D57*
X49665Y-30885D03*
X49271Y-30885D03*
X42342Y-30846D03*
X42736Y-30846D03*
X49547Y-24153D03*
X49940Y-24153D03*
G54D56*
X42913Y-23740D03*
X42913Y-24133D03*
X68129Y-41259D03*
X68129Y-41653D03*
G54D57*
X71171Y-39301D03*
X71564Y-39301D03*
G54D56*
X41948Y-46948D03*
X41948Y-46555D03*
X40797Y-50846D03*
X40797Y-51240D03*
G54D57*
X40314Y-48622D03*
X39921Y-48622D03*
X43208Y-52785D03*
X42814Y-52785D03*
X44842Y-48622D03*
X45236Y-48622D03*
X44842Y-50295D03*
X45236Y-50295D03*
G54D56*
X42834Y-51732D03*
X42834Y-52125D03*
X42263Y-51732D03*
X42263Y-52125D03*
X39970Y-49537D03*
X39970Y-49931D03*
G54D57*
X40314Y-48129D03*
X39921Y-48129D03*
X44842Y-48129D03*
X45236Y-48129D03*
X51919Y-50403D03*
X52312Y-50403D03*
X47362Y-48622D03*
X46968Y-48622D03*
G54D56*
X48405Y-51919D03*
X48405Y-52312D03*
X49350Y-46948D03*
X49350Y-46555D03*
G54D57*
X52027Y-48622D03*
X52421Y-48622D03*
G54D56*
X47598Y-50177D03*
X47598Y-50570D03*
X49881Y-51909D03*
X49881Y-52303D03*
X49389Y-51909D03*
X49389Y-52303D03*
X47106Y-49763D03*
X47106Y-50157D03*
G54D57*
X47362Y-48129D03*
X46968Y-48129D03*
X52027Y-48129D03*
X52421Y-48129D03*
G54D56*
X42283Y-57273D03*
X42283Y-57667D03*
X39940Y-56988D03*
X39940Y-56594D03*
X39940Y-55000D03*
X39940Y-54606D03*
X41771Y-52637D03*
X41771Y-52244D03*
G54D57*
X44124Y-53080D03*
X44517Y-53080D03*
G54D56*
X43287Y-46948D03*
X43287Y-46555D03*
X45098Y-56732D03*
X45098Y-56338D03*
X45098Y-55413D03*
X45098Y-55807D03*
X39940Y-55669D03*
X39940Y-56062D03*
X40433Y-54094D03*
X40433Y-54488D03*
X44622Y-53976D03*
X44622Y-53582D03*
G54D57*
X52037Y-56013D03*
X52431Y-56013D03*
G54D56*
X47086Y-56988D03*
X47086Y-56594D03*
X47086Y-55000D03*
X47086Y-54606D03*
X50374Y-52814D03*
X50374Y-52421D03*
X52125Y-53070D03*
X52125Y-53464D03*
X47578Y-56082D03*
X47578Y-56476D03*
X48897Y-52814D03*
X48897Y-52421D03*
X48887Y-58553D03*
X48887Y-58946D03*
X47086Y-55669D03*
X47086Y-56062D03*
X47578Y-54094D03*
X47578Y-54488D03*
X51633Y-53976D03*
X51633Y-53582D03*
X67736Y-52736D03*
X67736Y-52342D03*
G54D57*
X64350Y-48720D03*
X63956Y-48720D03*
G54D56*
X67775Y-46948D03*
X67775Y-46555D03*
X66397Y-46948D03*
X66397Y-46555D03*
G54D57*
X69251Y-48622D03*
X69645Y-48622D03*
G54D56*
X64901Y-51082D03*
X64901Y-50688D03*
X67263Y-51830D03*
X67263Y-52224D03*
X66673Y-51830D03*
X66673Y-52224D03*
X64901Y-49763D03*
X64901Y-50157D03*
X65078Y-48070D03*
X65078Y-47677D03*
G54D57*
X69251Y-48129D03*
X69645Y-48129D03*
G54D56*
X74704Y-52755D03*
X74704Y-52362D03*
X74547Y-46929D03*
X74547Y-46535D03*
G54D57*
X71850Y-48622D03*
X71456Y-48622D03*
G54D56*
X73405Y-46929D03*
X73405Y-46535D03*
G54D57*
X76181Y-48622D03*
X76574Y-48622D03*
X72234Y-50669D03*
X71840Y-50669D03*
G54D56*
X74212Y-51850D03*
X74212Y-52244D03*
X73700Y-51850D03*
X73700Y-52244D03*
X71811Y-49763D03*
X71811Y-50157D03*
G54D57*
X71850Y-48129D03*
X71456Y-48129D03*
X76181Y-48110D03*
X76574Y-48110D03*
X69163Y-56505D03*
X69557Y-56505D03*
X64350Y-49212D03*
X63956Y-49212D03*
X64744Y-54527D03*
X64350Y-54527D03*
G54D56*
X66181Y-52736D03*
X66181Y-52342D03*
G54D57*
X69330Y-54527D03*
X69724Y-54527D03*
G54D56*
X64763Y-56988D03*
X64763Y-56594D03*
G54D57*
X69143Y-50442D03*
X69537Y-50442D03*
G54D56*
X66649Y-57334D03*
X66649Y-57728D03*
X64763Y-55669D03*
X64763Y-56062D03*
G54D57*
X64744Y-54035D03*
X64350Y-54035D03*
X69330Y-54035D03*
X69724Y-54035D03*
G54D56*
X73610Y-57350D03*
X73610Y-57744D03*
X76417Y-56968D03*
X76417Y-56574D03*
G54D57*
X71830Y-54527D03*
X71437Y-54527D03*
G54D56*
X73208Y-52755D03*
X73208Y-52362D03*
G54D57*
X76338Y-54527D03*
X76732Y-54527D03*
G54D56*
X71830Y-56988D03*
X71830Y-56594D03*
X76417Y-55629D03*
X76417Y-56023D03*
G54D57*
X76181Y-49881D03*
X76574Y-49881D03*
G54D56*
X71830Y-55669D03*
X71830Y-56062D03*
G54D57*
X71830Y-54035D03*
X71437Y-54035D03*
X76338Y-54035D03*
X76732Y-54035D03*
G54D56*
X73188Y-35669D03*
X73188Y-36062D03*
G54D57*
X76338Y-34281D03*
X76732Y-34281D03*
G54D56*
X67263Y-35673D03*
X67263Y-36066D03*
X74397Y-35653D03*
X74397Y-36047D03*
G54D57*
X71653Y-34055D03*
X71259Y-34055D03*
G54D56*
X73661Y-30885D03*
X73661Y-30492D03*
X74173Y-30885D03*
X74173Y-30492D03*
G54D57*
X75728Y-32007D03*
X76122Y-32007D03*
G54D56*
X76141Y-32893D03*
X76141Y-32500D03*
G54D57*
X76338Y-34763D03*
X76732Y-34763D03*
X71653Y-34547D03*
X71259Y-34547D03*
X69192Y-34074D03*
X69586Y-34074D03*
X64842Y-32047D03*
X64448Y-32047D03*
G54D56*
X66043Y-29901D03*
X66043Y-30295D03*
G54D57*
X68996Y-32007D03*
X69389Y-32007D03*
X64685Y-35039D03*
X64291Y-35039D03*
G54D56*
X66122Y-35669D03*
X66122Y-36062D03*
X67086Y-30807D03*
X67086Y-30413D03*
X66535Y-30807D03*
X66535Y-30413D03*
X69448Y-32913D03*
X69448Y-32519D03*
G54D57*
X69192Y-34547D03*
X69586Y-34547D03*
X64685Y-34547D03*
X64291Y-34547D03*
G54D56*
X71456Y-26653D03*
X71456Y-26259D03*
X76181Y-25688D03*
X76181Y-26082D03*
G54D57*
X76240Y-28149D03*
X76633Y-28149D03*
G54D56*
X74665Y-29980D03*
X74665Y-30374D03*
G54D57*
X71712Y-28149D03*
X71318Y-28149D03*
G54D56*
X71456Y-25334D03*
X71456Y-25728D03*
X73169Y-29980D03*
X73169Y-30374D03*
X74551Y-25370D03*
X74551Y-24976D03*
X76181Y-27007D03*
X76181Y-26614D03*
G54D57*
X76240Y-28641D03*
X76633Y-28641D03*
X71712Y-28641D03*
X71318Y-28641D03*
G54D56*
X64468Y-25255D03*
X64468Y-25649D03*
G54D57*
X69133Y-28169D03*
X69527Y-28169D03*
G54D56*
X69409Y-25590D03*
X69409Y-25984D03*
X67578Y-29901D03*
X67578Y-30295D03*
G54D57*
X71860Y-32312D03*
X71466Y-32312D03*
X64625Y-29133D03*
X64232Y-29133D03*
G54D56*
X64468Y-26574D03*
X64468Y-26181D03*
X67519Y-25255D03*
X67519Y-24862D03*
X69389Y-27007D03*
X69389Y-26614D03*
G54D57*
X69133Y-28641D03*
X69527Y-28641D03*
X64625Y-28641D03*
X64232Y-28641D03*
G54D56*
X47125Y-32893D03*
X47125Y-32500D03*
X50177Y-30885D03*
X50177Y-30492D03*
X48740Y-30885D03*
X48740Y-30492D03*
X52086Y-33582D03*
X52086Y-33976D03*
X49192Y-29980D03*
X49192Y-30374D03*
X48799Y-35748D03*
X48799Y-36141D03*
G54D57*
X47401Y-35019D03*
X47007Y-35019D03*
G54D56*
X51535Y-31594D03*
X51535Y-31988D03*
X51535Y-32913D03*
X51535Y-32519D03*
X51594Y-34488D03*
X51594Y-34094D03*
G54D57*
X47401Y-34527D03*
X47007Y-34527D03*
G54D56*
X43208Y-35748D03*
X43208Y-36141D03*
X43259Y-30842D03*
X43259Y-30448D03*
X41653Y-30846D03*
X41653Y-30452D03*
G54D57*
X44744Y-34055D03*
X45137Y-34055D03*
G54D56*
X41771Y-35748D03*
X41771Y-36141D03*
G54D57*
X40275Y-34055D03*
X39881Y-34055D03*
X44645Y-31988D03*
X45039Y-31988D03*
X40127Y-32234D03*
X39734Y-32234D03*
G54D56*
X45059Y-32893D03*
X45059Y-32500D03*
G54D57*
X40275Y-34547D03*
X39881Y-34547D03*
X44744Y-34547D03*
X45137Y-34547D03*
G54D56*
X50137Y-25188D03*
X50137Y-24795D03*
X47106Y-27244D03*
X47106Y-26850D03*
X52224Y-25590D03*
X52224Y-25984D03*
X50149Y-35748D03*
X50149Y-36141D03*
G54D57*
X51771Y-28149D03*
X52165Y-28149D03*
G54D56*
X49685Y-29980D03*
X49685Y-30374D03*
X47106Y-25925D03*
X47106Y-26318D03*
G54D57*
X47421Y-28149D03*
X47027Y-28149D03*
G54D56*
X52204Y-27007D03*
X52204Y-26614D03*
G54D57*
X47421Y-28641D03*
X47027Y-28641D03*
X51771Y-28641D03*
X52165Y-28641D03*
G54D56*
X40039Y-26988D03*
X40039Y-26594D03*
X42145Y-29940D03*
X42145Y-30334D03*
X42775Y-29940D03*
X42775Y-30334D03*
G54D57*
X44763Y-28169D03*
X45157Y-28169D03*
G54D56*
X45137Y-25590D03*
X45137Y-25984D03*
G54D57*
X40255Y-28149D03*
X39862Y-28149D03*
G54D56*
X45137Y-27007D03*
X45137Y-26614D03*
G54D57*
X44763Y-28641D03*
X45157Y-28641D03*
G54D56*
X40039Y-25669D03*
X40039Y-26062D03*
X42905Y-25251D03*
X42905Y-24858D03*
G54D57*
X40255Y-28641D03*
X39862Y-28641D03*
G54D58*
X45629Y-27007D03*
X45629Y-26614D03*
X45551Y-32893D03*
X45551Y-32500D03*
X52027Y-32401D03*
X52027Y-32007D03*
X52696Y-27007D03*
X52696Y-26614D03*
X46614Y-49763D03*
X46614Y-50157D03*
X46594Y-55669D03*
X46594Y-56062D03*
X39448Y-55669D03*
X39448Y-56062D03*
X39478Y-49537D03*
X39478Y-49931D03*
G54D59*
X70216Y-43897D03*
X69822Y-43897D03*
G54D58*
X76673Y-27007D03*
X76673Y-26614D03*
G54D59*
X76692Y-32952D03*
X77086Y-32952D03*
G54D58*
X69921Y-32913D03*
X69921Y-32519D03*
X69881Y-27007D03*
X69881Y-26614D03*
X64409Y-49763D03*
X64409Y-50157D03*
X64271Y-55669D03*
X64271Y-56062D03*
X71338Y-55669D03*
X71338Y-56062D03*
X71318Y-49763D03*
X71318Y-50157D03*
G54D60*
X39911Y-43937D03*
X39911Y-39311D03*
G54D61*
X41840Y-41131D03*
X41840Y-42116D03*
M02*
