G04 (created by PCBNEW (2013-mar-13)-testing) date Mon 22 Jul 2013 04:48:15 PM ICT*
%MOIN*%
G04 Gerber Fmt 3.4, Leading zero omitted, Abs format*
%FSLAX34Y34*%
G01*
G70*
G90*
G04 APERTURE LIST*
%ADD10C,0.00393701*%
%ADD11C,0.011811*%
%ADD12C,0.00787402*%
%ADD13C,0.0001*%
%ADD14C,0.015*%
%ADD15C,0.00590551*%
%ADD16C,0.005*%
%ADD17C,0.008*%
%ADD18C,0.0028*%
%ADD19C,0.01*%
%ADD20C,0.000984252*%
%ADD21C,0.006*%
%ADD22C,0.004*%
%ADD23C,0.0019685*%
%ADD24C,0.0024*%
%ADD25C,0.0079*%
%ADD26C,0.0039*%
%ADD27C,0.20885*%
%ADD28R,0.0375906X0.0454646*%
%ADD29R,0.0828X0.0749*%
%ADD30C,0.0474*%
%ADD31R,0.1005X0.0316*%
%ADD32R,0.1104X0.0907*%
%ADD33R,0.0379843X0.023811*%
%ADD34R,0.0277X0.071*%
%ADD35R,0.0513701X0.0513701*%
%ADD36R,0.0907402X0.062*%
%ADD37R,0.0356X0.0277*%
%ADD38C,0.11811*%
%ADD39R,0.137984X0.0513701*%
%ADD40R,0.0513701X0.137984*%
%ADD41R,0.0316X0.0238*%
%ADD42R,0.0238X0.0316*%
%ADD43R,0.224598X0.224598*%
%ADD44R,0.0238X0.0415*%
%ADD45R,0.0415X0.0238*%
%ADD46R,0.0828661X0.0828661*%
%ADD47R,0.0513701X0.0434961*%
%ADD48R,0.0238X0.0395*%
%ADD49R,0.0395X0.0238*%
%ADD50R,0.0297165X0.110031*%
%ADD51R,0.0958583X0.12578*%
%ADD52R,0.0521575X0.110031*%
%ADD53R,0.117906X0.0730236*%
%ADD54R,0.035622X0.0289291*%
%ADD55R,0.0289291X0.0395591*%
%ADD56R,0.023811X0.0379843*%
%ADD57O,0.0946X0.0946*%
%ADD58C,0.13011*%
%ADD59R,0.031685X0.031685*%
%ADD60R,0.0631811X0.0474331*%
%ADD61R,0.0868031X0.0474331*%
%ADD62R,0.118299X0.0789291*%
%ADD63R,0.0255906X0.0393701*%
%ADD64R,0.0216535X0.0393701*%
%ADD65R,0.0671181X0.0513701*%
%ADD66R,0.0434961X0.0434961*%
%ADD67R,0.0671181X0.0631811*%
%ADD68R,0.0868031X0.0907402*%
%ADD69R,0.122236X0.134047*%
%ADD70R,0.0749921X0.0434961*%
%ADD71R,0.0434961X0.0513701*%
%ADD72R,0.110425X0.16948*%
%ADD73R,0.0434961X0.0474331*%
%ADD74R,0.0474331X0.0434961*%
%ADD75R,0.0474331X0.0395591*%
%ADD76R,0.0395591X0.0474331*%
%ADD77R,0.0395591X0.031685*%
%ADD78R,0.031685X0.0395591*%
%ADD79R,0.035622X0.031685*%
%ADD80R,0.031685X0.035622*%
%ADD81R,0.232472X0.116331*%
%ADD82R,0.287591X0.0671181*%
G04 APERTURE END LIST*
G54D10*
G54D11*
X56320Y-55691D02*
X56437Y-56019D01*
X56554Y-55691D01*
X56742Y-55973D02*
X56765Y-55996D01*
X56742Y-56019D01*
X56718Y-55996D01*
X56742Y-55973D01*
X56742Y-56019D01*
X57070Y-55527D02*
X57117Y-55527D01*
X57163Y-55551D01*
X57187Y-55574D01*
X57210Y-55621D01*
X57234Y-55715D01*
X57234Y-55832D01*
X57210Y-55926D01*
X57187Y-55973D01*
X57163Y-55996D01*
X57117Y-56019D01*
X57070Y-56019D01*
X57023Y-55996D01*
X56999Y-55973D01*
X56976Y-55926D01*
X56953Y-55832D01*
X56953Y-55715D01*
X56976Y-55621D01*
X56999Y-55574D01*
X57023Y-55551D01*
X57070Y-55527D01*
X57445Y-55973D02*
X57468Y-55996D01*
X57445Y-56019D01*
X57421Y-55996D01*
X57445Y-55973D01*
X57445Y-56019D01*
X57632Y-55527D02*
X57937Y-55527D01*
X57773Y-55715D01*
X57843Y-55715D01*
X57890Y-55738D01*
X57913Y-55762D01*
X57937Y-55808D01*
X57937Y-55926D01*
X57913Y-55973D01*
X57890Y-55996D01*
X57843Y-56019D01*
X57702Y-56019D01*
X57656Y-55996D01*
X57632Y-55973D01*
X58148Y-55973D02*
X58171Y-55996D01*
X58148Y-56019D01*
X58124Y-55996D01*
X58148Y-55973D01*
X58148Y-56019D01*
X58359Y-55574D02*
X58382Y-55551D01*
X58429Y-55527D01*
X58546Y-55527D01*
X58593Y-55551D01*
X58616Y-55574D01*
X58640Y-55621D01*
X58640Y-55668D01*
X58616Y-55738D01*
X58335Y-56019D01*
X58640Y-56019D01*
G54D12*
X68336Y-41958D02*
X68336Y-42076D01*
X68198Y-41958D02*
X68336Y-41958D01*
X73464Y-37903D02*
X73464Y-37687D01*
X73474Y-37903D02*
X73710Y-37903D01*
X58375Y-46742D02*
X58454Y-46742D01*
X58356Y-46643D02*
X58356Y-46742D01*
X58572Y-35875D02*
X58572Y-36003D01*
X58454Y-35875D02*
X58572Y-35875D01*
X77639Y-48045D02*
X77639Y-48176D01*
X77845Y-48176D02*
X77451Y-48176D01*
X77451Y-47988D01*
X77732Y-47857D02*
X77732Y-47670D01*
X77845Y-47895D02*
X77451Y-47763D01*
X77845Y-47632D01*
X77845Y-47501D02*
X77451Y-47501D01*
X77845Y-47276D01*
X77451Y-47276D01*
X77500Y-46506D02*
X77500Y-46600D01*
X77406Y-46563D02*
X77500Y-46600D01*
X77593Y-46563D01*
X77443Y-46675D02*
X77500Y-46600D01*
X77556Y-46675D01*
X77330Y-44604D02*
X77630Y-44604D01*
X77389Y-45608D02*
X77689Y-45608D01*
X77539Y-45758D02*
X77539Y-45458D01*
X68670Y-37796D02*
X68670Y-37402D01*
X69083Y-37758D02*
X69064Y-37777D01*
X69008Y-37796D01*
X68970Y-37796D01*
X68914Y-37777D01*
X68877Y-37739D01*
X68858Y-37702D01*
X68839Y-37627D01*
X68839Y-37571D01*
X68858Y-37496D01*
X68877Y-37458D01*
X68914Y-37421D01*
X68970Y-37402D01*
X69008Y-37402D01*
X69064Y-37421D01*
X69083Y-37440D01*
X69233Y-37777D02*
X69289Y-37796D01*
X69383Y-37796D01*
X69420Y-37777D01*
X69439Y-37758D01*
X69458Y-37721D01*
X69458Y-37683D01*
X69439Y-37646D01*
X69420Y-37627D01*
X69383Y-37608D01*
X69308Y-37589D01*
X69270Y-37571D01*
X69251Y-37552D01*
X69233Y-37514D01*
X69233Y-37477D01*
X69251Y-37440D01*
X69270Y-37421D01*
X69308Y-37402D01*
X69401Y-37402D01*
X69458Y-37421D01*
X69626Y-37796D02*
X69626Y-37402D01*
X69776Y-37402D01*
X69814Y-37421D01*
X69833Y-37440D01*
X69851Y-37477D01*
X69851Y-37533D01*
X69833Y-37571D01*
X69814Y-37589D01*
X69776Y-37608D01*
X69626Y-37608D01*
X65511Y-40925D02*
X65590Y-40925D01*
X65511Y-40856D02*
X65511Y-40925D01*
X40526Y-50906D02*
X40526Y-51225D01*
X40545Y-51262D01*
X40563Y-51281D01*
X40601Y-51300D01*
X40676Y-51300D01*
X40713Y-51281D01*
X40732Y-51262D01*
X40751Y-51225D01*
X40751Y-50906D01*
X41145Y-51300D02*
X40920Y-51300D01*
X41032Y-51300D02*
X41032Y-50906D01*
X40995Y-50962D01*
X40957Y-51000D01*
X40920Y-51018D01*
X41482Y-50906D02*
X41407Y-50906D01*
X41369Y-50925D01*
X41351Y-50943D01*
X41313Y-51000D01*
X41294Y-51075D01*
X41294Y-51225D01*
X41313Y-51262D01*
X41332Y-51281D01*
X41369Y-51300D01*
X41444Y-51300D01*
X41482Y-51281D01*
X41501Y-51262D01*
X41519Y-51225D01*
X41519Y-51131D01*
X41501Y-51093D01*
X41482Y-51075D01*
X41444Y-51056D01*
X41369Y-51056D01*
X41332Y-51075D01*
X41313Y-51093D01*
X41294Y-51131D01*
X47839Y-50995D02*
X47839Y-51313D01*
X47858Y-51351D01*
X47876Y-51369D01*
X47914Y-51388D01*
X47989Y-51388D01*
X48026Y-51369D01*
X48045Y-51351D01*
X48064Y-51313D01*
X48064Y-50995D01*
X48458Y-51388D02*
X48233Y-51388D01*
X48345Y-51388D02*
X48345Y-50995D01*
X48308Y-51051D01*
X48270Y-51088D01*
X48233Y-51107D01*
X48814Y-50995D02*
X48626Y-50995D01*
X48607Y-51182D01*
X48626Y-51163D01*
X48664Y-51145D01*
X48757Y-51145D01*
X48795Y-51163D01*
X48814Y-51182D01*
X48832Y-51220D01*
X48832Y-51313D01*
X48814Y-51351D01*
X48795Y-51369D01*
X48757Y-51388D01*
X48664Y-51388D01*
X48626Y-51369D01*
X48607Y-51351D01*
X40398Y-56811D02*
X40398Y-57130D01*
X40417Y-57168D01*
X40435Y-57186D01*
X40473Y-57205D01*
X40548Y-57205D01*
X40585Y-57186D01*
X40604Y-57168D01*
X40623Y-57130D01*
X40623Y-56811D01*
X41017Y-57205D02*
X40792Y-57205D01*
X40904Y-57205D02*
X40904Y-56811D01*
X40867Y-56868D01*
X40829Y-56905D01*
X40792Y-56924D01*
X41354Y-56943D02*
X41354Y-57205D01*
X41260Y-56793D02*
X41167Y-57074D01*
X41410Y-57074D01*
X47780Y-56831D02*
X47780Y-57150D01*
X47799Y-57187D01*
X47817Y-57206D01*
X47855Y-57225D01*
X47930Y-57225D01*
X47967Y-57206D01*
X47986Y-57187D01*
X48005Y-57150D01*
X48005Y-56831D01*
X48398Y-57225D02*
X48173Y-57225D01*
X48286Y-57225D02*
X48286Y-56831D01*
X48248Y-56887D01*
X48211Y-56925D01*
X48173Y-56944D01*
X48530Y-56831D02*
X48773Y-56831D01*
X48642Y-56981D01*
X48698Y-56981D01*
X48736Y-57000D01*
X48755Y-57019D01*
X48773Y-57056D01*
X48773Y-57150D01*
X48755Y-57187D01*
X48736Y-57206D01*
X48698Y-57225D01*
X48586Y-57225D01*
X48548Y-57206D01*
X48530Y-57187D01*
X65290Y-50916D02*
X65290Y-51235D01*
X65308Y-51272D01*
X65327Y-51291D01*
X65365Y-51309D01*
X65440Y-51309D01*
X65477Y-51291D01*
X65496Y-51272D01*
X65515Y-51235D01*
X65515Y-50916D01*
X65908Y-51309D02*
X65683Y-51309D01*
X65796Y-51309D02*
X65796Y-50916D01*
X65758Y-50972D01*
X65721Y-51010D01*
X65683Y-51028D01*
X66058Y-50953D02*
X66077Y-50935D01*
X66115Y-50916D01*
X66208Y-50916D01*
X66246Y-50935D01*
X66264Y-50953D01*
X66283Y-50991D01*
X66283Y-51028D01*
X66264Y-51085D01*
X66040Y-51309D01*
X66283Y-51309D01*
X72376Y-50935D02*
X72376Y-51254D01*
X72395Y-51292D01*
X72414Y-51310D01*
X72451Y-51329D01*
X72526Y-51329D01*
X72564Y-51310D01*
X72582Y-51292D01*
X72601Y-51254D01*
X72601Y-50935D01*
X72995Y-51329D02*
X72770Y-51329D01*
X72882Y-51329D02*
X72882Y-50935D01*
X72845Y-50992D01*
X72807Y-51029D01*
X72770Y-51048D01*
X73370Y-51329D02*
X73145Y-51329D01*
X73257Y-51329D02*
X73257Y-50935D01*
X73220Y-50992D01*
X73182Y-51029D01*
X73145Y-51048D01*
X65112Y-56861D02*
X65112Y-57179D01*
X65131Y-57217D01*
X65150Y-57236D01*
X65187Y-57254D01*
X65262Y-57254D01*
X65300Y-57236D01*
X65319Y-57217D01*
X65337Y-57179D01*
X65337Y-56861D01*
X65731Y-57254D02*
X65506Y-57254D01*
X65619Y-57254D02*
X65619Y-56861D01*
X65581Y-56917D01*
X65544Y-56954D01*
X65506Y-56973D01*
X65975Y-56861D02*
X66012Y-56861D01*
X66050Y-56879D01*
X66069Y-56898D01*
X66087Y-56936D01*
X66106Y-57011D01*
X66106Y-57104D01*
X66087Y-57179D01*
X66069Y-57217D01*
X66050Y-57236D01*
X66012Y-57254D01*
X65975Y-57254D01*
X65937Y-57236D01*
X65919Y-57217D01*
X65900Y-57179D01*
X65881Y-57104D01*
X65881Y-57011D01*
X65900Y-56936D01*
X65919Y-56898D01*
X65937Y-56879D01*
X65975Y-56861D01*
X72219Y-56772D02*
X72219Y-57091D01*
X72238Y-57128D01*
X72257Y-57147D01*
X72294Y-57166D01*
X72369Y-57166D01*
X72407Y-57147D01*
X72425Y-57128D01*
X72444Y-57091D01*
X72444Y-56772D01*
X72650Y-57166D02*
X72725Y-57166D01*
X72763Y-57147D01*
X72782Y-57128D01*
X72819Y-57072D01*
X72838Y-56997D01*
X72838Y-56847D01*
X72819Y-56810D01*
X72800Y-56791D01*
X72763Y-56772D01*
X72688Y-56772D01*
X72650Y-56791D01*
X72632Y-56810D01*
X72613Y-56847D01*
X72613Y-56941D01*
X72632Y-56978D01*
X72650Y-56997D01*
X72688Y-57016D01*
X72763Y-57016D01*
X72800Y-56997D01*
X72819Y-56978D01*
X72838Y-56941D01*
X75290Y-31241D02*
X75290Y-31559D01*
X75309Y-31597D01*
X75328Y-31616D01*
X75365Y-31634D01*
X75440Y-31634D01*
X75478Y-31616D01*
X75496Y-31597D01*
X75515Y-31559D01*
X75515Y-31241D01*
X75759Y-31409D02*
X75721Y-31391D01*
X75703Y-31372D01*
X75684Y-31334D01*
X75684Y-31316D01*
X75703Y-31278D01*
X75721Y-31259D01*
X75759Y-31241D01*
X75834Y-31241D01*
X75871Y-31259D01*
X75890Y-31278D01*
X75909Y-31316D01*
X75909Y-31334D01*
X75890Y-31372D01*
X75871Y-31391D01*
X75834Y-31409D01*
X75759Y-31409D01*
X75721Y-31428D01*
X75703Y-31447D01*
X75684Y-31484D01*
X75684Y-31559D01*
X75703Y-31597D01*
X75721Y-31616D01*
X75759Y-31634D01*
X75834Y-31634D01*
X75871Y-31616D01*
X75890Y-31597D01*
X75909Y-31559D01*
X75909Y-31484D01*
X75890Y-31447D01*
X75871Y-31428D01*
X75834Y-31409D01*
X68105Y-31369D02*
X68105Y-31687D01*
X68124Y-31725D01*
X68143Y-31744D01*
X68180Y-31762D01*
X68255Y-31762D01*
X68293Y-31744D01*
X68311Y-31725D01*
X68330Y-31687D01*
X68330Y-31369D01*
X68480Y-31369D02*
X68742Y-31369D01*
X68574Y-31762D01*
X75054Y-25374D02*
X75054Y-25693D01*
X75073Y-25731D01*
X75091Y-25749D01*
X75129Y-25768D01*
X75204Y-25768D01*
X75241Y-25749D01*
X75260Y-25731D01*
X75279Y-25693D01*
X75279Y-25374D01*
X75635Y-25374D02*
X75560Y-25374D01*
X75523Y-25393D01*
X75504Y-25412D01*
X75466Y-25468D01*
X75448Y-25543D01*
X75448Y-25693D01*
X75466Y-25731D01*
X75485Y-25749D01*
X75523Y-25768D01*
X75598Y-25768D01*
X75635Y-25749D01*
X75654Y-25731D01*
X75673Y-25693D01*
X75673Y-25599D01*
X75654Y-25562D01*
X75635Y-25543D01*
X75598Y-25524D01*
X75523Y-25524D01*
X75485Y-25543D01*
X75466Y-25562D01*
X75448Y-25599D01*
X68390Y-25670D02*
X68390Y-25988D01*
X68409Y-26026D01*
X68428Y-26045D01*
X68465Y-26063D01*
X68540Y-26063D01*
X68578Y-26045D01*
X68597Y-26026D01*
X68615Y-25988D01*
X68615Y-25670D01*
X68990Y-25670D02*
X68803Y-25670D01*
X68784Y-25857D01*
X68803Y-25838D01*
X68840Y-25820D01*
X68934Y-25820D01*
X68972Y-25838D01*
X68990Y-25857D01*
X69009Y-25895D01*
X69009Y-25988D01*
X68990Y-26026D01*
X68972Y-26045D01*
X68934Y-26063D01*
X68840Y-26063D01*
X68803Y-26045D01*
X68784Y-26026D01*
X50497Y-31290D02*
X50497Y-31609D01*
X50516Y-31646D01*
X50534Y-31665D01*
X50572Y-31684D01*
X50647Y-31684D01*
X50684Y-31665D01*
X50703Y-31646D01*
X50722Y-31609D01*
X50722Y-31290D01*
X51078Y-31421D02*
X51078Y-31684D01*
X50984Y-31271D02*
X50890Y-31552D01*
X51134Y-31552D01*
X43637Y-31378D02*
X43637Y-31697D01*
X43655Y-31735D01*
X43674Y-31753D01*
X43712Y-31772D01*
X43787Y-31772D01*
X43824Y-31753D01*
X43843Y-31735D01*
X43862Y-31697D01*
X43862Y-31378D01*
X44011Y-31378D02*
X44255Y-31378D01*
X44124Y-31528D01*
X44180Y-31528D01*
X44218Y-31547D01*
X44236Y-31566D01*
X44255Y-31603D01*
X44255Y-31697D01*
X44236Y-31735D01*
X44218Y-31753D01*
X44180Y-31772D01*
X44068Y-31772D01*
X44030Y-31753D01*
X44011Y-31735D01*
X50890Y-25522D02*
X50890Y-25841D01*
X50909Y-25878D01*
X50928Y-25897D01*
X50965Y-25916D01*
X51040Y-25916D01*
X51078Y-25897D01*
X51097Y-25878D01*
X51115Y-25841D01*
X51115Y-25522D01*
X51284Y-25560D02*
X51303Y-25541D01*
X51340Y-25522D01*
X51434Y-25522D01*
X51472Y-25541D01*
X51490Y-25560D01*
X51509Y-25597D01*
X51509Y-25635D01*
X51490Y-25691D01*
X51265Y-25916D01*
X51509Y-25916D01*
X43873Y-25571D02*
X43873Y-25890D01*
X43892Y-25928D01*
X43910Y-25946D01*
X43948Y-25965D01*
X44023Y-25965D01*
X44060Y-25946D01*
X44079Y-25928D01*
X44098Y-25890D01*
X44098Y-25571D01*
X44491Y-25965D02*
X44266Y-25965D01*
X44379Y-25965D02*
X44379Y-25571D01*
X44341Y-25628D01*
X44304Y-25665D01*
X44266Y-25684D01*
G54D11*
X54967Y-55114D02*
X54967Y-54425D01*
X55360Y-55114D02*
X55065Y-54721D01*
X55360Y-54425D02*
X54967Y-54819D01*
X55754Y-55114D02*
X55688Y-55082D01*
X55656Y-55016D01*
X55656Y-54425D01*
X56115Y-55114D02*
X56049Y-55082D01*
X56017Y-55049D01*
X55984Y-54983D01*
X55984Y-54786D01*
X56017Y-54721D01*
X56049Y-54688D01*
X56115Y-54655D01*
X56213Y-54655D01*
X56279Y-54688D01*
X56312Y-54721D01*
X56345Y-54786D01*
X56345Y-54983D01*
X56312Y-55049D01*
X56279Y-55082D01*
X56213Y-55114D01*
X56115Y-55114D01*
X56640Y-54655D02*
X56640Y-55114D01*
X56640Y-54721D02*
X56673Y-54688D01*
X56738Y-54655D01*
X56837Y-54655D01*
X56902Y-54688D01*
X56935Y-54753D01*
X56935Y-55114D01*
X57559Y-55114D02*
X57559Y-54425D01*
X57559Y-55082D02*
X57493Y-55114D01*
X57362Y-55114D01*
X57296Y-55082D01*
X57263Y-55049D01*
X57230Y-54983D01*
X57230Y-54786D01*
X57263Y-54721D01*
X57296Y-54688D01*
X57362Y-54655D01*
X57493Y-54655D01*
X57559Y-54688D01*
X57887Y-55114D02*
X57887Y-54655D01*
X57887Y-54425D02*
X57854Y-54458D01*
X57887Y-54491D01*
X57919Y-54458D01*
X57887Y-54425D01*
X57887Y-54491D01*
X58215Y-55114D02*
X58215Y-54425D01*
X58280Y-54852D02*
X58477Y-55114D01*
X58477Y-54655D02*
X58215Y-54917D01*
X59035Y-55082D02*
X58969Y-55114D01*
X58838Y-55114D01*
X58772Y-55082D01*
X58740Y-55016D01*
X58740Y-54753D01*
X58772Y-54688D01*
X58838Y-54655D01*
X58969Y-54655D01*
X59035Y-54688D01*
X59068Y-54753D01*
X59068Y-54819D01*
X58740Y-54885D01*
X60249Y-55114D02*
X59855Y-55114D01*
X60052Y-55114D02*
X60052Y-54425D01*
X59986Y-54524D01*
X59921Y-54589D01*
X59855Y-54622D01*
X60839Y-54425D02*
X60708Y-54425D01*
X60643Y-54458D01*
X60610Y-54491D01*
X60544Y-54589D01*
X60511Y-54721D01*
X60511Y-54983D01*
X60544Y-55049D01*
X60577Y-55082D01*
X60643Y-55114D01*
X60774Y-55114D01*
X60839Y-55082D01*
X60872Y-55049D01*
X60905Y-54983D01*
X60905Y-54819D01*
X60872Y-54753D01*
X60839Y-54721D01*
X60774Y-54688D01*
X60643Y-54688D01*
X60577Y-54721D01*
X60544Y-54753D01*
X60511Y-54819D01*
G54D10*
X38779Y-61023D02*
X78149Y-61023D01*
X78149Y-61023D02*
X78149Y-21653D01*
X78149Y-21653D02*
X38779Y-21653D01*
X38779Y-21653D02*
X38779Y-61023D01*
G54D13*
G36*
X61233Y-39949D02*
X61241Y-39955D01*
X61258Y-39970D01*
X61283Y-39993D01*
X61314Y-40022D01*
X61350Y-40057D01*
X61389Y-40095D01*
X61397Y-40103D01*
X61189Y-40103D01*
X61088Y-40206D01*
X61045Y-40250D01*
X61013Y-40286D01*
X60989Y-40315D01*
X60973Y-40341D01*
X60963Y-40366D01*
X60958Y-40391D01*
X60956Y-40419D01*
X60955Y-40430D01*
X60962Y-40486D01*
X60983Y-40537D01*
X61016Y-40579D01*
X61062Y-40612D01*
X61075Y-40619D01*
X61114Y-40631D01*
X61160Y-40634D01*
X61206Y-40631D01*
X61246Y-40619D01*
X61260Y-40610D01*
X61282Y-40593D01*
X61309Y-40570D01*
X61340Y-40542D01*
X61372Y-40512D01*
X61404Y-40483D01*
X61432Y-40454D01*
X61455Y-40430D01*
X61472Y-40412D01*
X61478Y-40401D01*
X61478Y-40400D01*
X61473Y-40393D01*
X61458Y-40376D01*
X61436Y-40351D01*
X61406Y-40321D01*
X61371Y-40285D01*
X61334Y-40247D01*
X61189Y-40103D01*
X61397Y-40103D01*
X61430Y-40136D01*
X61471Y-40177D01*
X61510Y-40217D01*
X61547Y-40255D01*
X61580Y-40290D01*
X61607Y-40318D01*
X61627Y-40340D01*
X61638Y-40354D01*
X61640Y-40357D01*
X61635Y-40366D01*
X61620Y-40383D01*
X61597Y-40408D01*
X61567Y-40440D01*
X61532Y-40476D01*
X61493Y-40516D01*
X61488Y-40520D01*
X61442Y-40567D01*
X61404Y-40603D01*
X61374Y-40631D01*
X61350Y-40653D01*
X61330Y-40669D01*
X61312Y-40681D01*
X61295Y-40691D01*
X61282Y-40697D01*
X61254Y-40710D01*
X61231Y-40718D01*
X61208Y-40721D01*
X61178Y-40722D01*
X61159Y-40722D01*
X61118Y-40721D01*
X61088Y-40717D01*
X61063Y-40709D01*
X61055Y-40706D01*
X61021Y-40690D01*
X60911Y-40799D01*
X60801Y-40907D01*
X60742Y-40848D01*
X60682Y-40788D01*
X60791Y-40679D01*
X60828Y-40641D01*
X60856Y-40613D01*
X60875Y-40593D01*
X60887Y-40578D01*
X60893Y-40568D01*
X60894Y-40560D01*
X60892Y-40553D01*
X60890Y-40550D01*
X60871Y-40497D01*
X60865Y-40439D01*
X60870Y-40378D01*
X60889Y-40318D01*
X60897Y-40300D01*
X60907Y-40282D01*
X60918Y-40264D01*
X60932Y-40245D01*
X60951Y-40223D01*
X60976Y-40196D01*
X61008Y-40162D01*
X61049Y-40121D01*
X61073Y-40098D01*
X61112Y-40059D01*
X61149Y-40024D01*
X61180Y-39994D01*
X61206Y-39971D01*
X61224Y-39955D01*
X61232Y-39949D01*
X61233Y-39949D01*
X61233Y-39949D01*
X61233Y-39949D01*
G37*
G36*
X60818Y-42204D02*
X60825Y-42209D01*
X60841Y-42224D01*
X60866Y-42247D01*
X60897Y-42277D01*
X60935Y-42313D01*
X60977Y-42354D01*
X61011Y-42387D01*
X61062Y-42437D01*
X61117Y-42491D01*
X61173Y-42545D01*
X61226Y-42597D01*
X61274Y-42643D01*
X61314Y-42683D01*
X61323Y-42691D01*
X61364Y-42732D01*
X61396Y-42764D01*
X61419Y-42788D01*
X61434Y-42806D01*
X61443Y-42820D01*
X61447Y-42830D01*
X61448Y-42834D01*
X61445Y-42846D01*
X61437Y-42861D01*
X61421Y-42880D01*
X61395Y-42907D01*
X61379Y-42922D01*
X61352Y-42948D01*
X61327Y-42969D01*
X61308Y-42984D01*
X61297Y-42989D01*
X61296Y-42989D01*
X61286Y-42984D01*
X61267Y-42968D01*
X61239Y-42943D01*
X61205Y-42911D01*
X61166Y-42872D01*
X61132Y-42837D01*
X61089Y-42794D01*
X61041Y-42744D01*
X60988Y-42691D01*
X60935Y-42636D01*
X60882Y-42582D01*
X60856Y-42556D01*
X60660Y-42357D01*
X60736Y-42281D01*
X60764Y-42253D01*
X60788Y-42230D01*
X60806Y-42213D01*
X60817Y-42205D01*
X60818Y-42204D01*
X60818Y-42204D01*
X60818Y-42204D01*
G37*
G36*
X60115Y-40642D02*
X60132Y-40736D01*
X60141Y-40787D01*
X60148Y-40824D01*
X60154Y-40851D01*
X60160Y-40869D01*
X60168Y-40881D01*
X60178Y-40888D01*
X60191Y-40892D01*
X60209Y-40897D01*
X60214Y-40898D01*
X60245Y-40908D01*
X60283Y-40922D01*
X60322Y-40939D01*
X60340Y-40947D01*
X60414Y-40982D01*
X60511Y-40916D01*
X60545Y-40893D01*
X60574Y-40874D01*
X60597Y-40859D01*
X60611Y-40851D01*
X60614Y-40850D01*
X60622Y-40855D01*
X60638Y-40869D01*
X60660Y-40890D01*
X60681Y-40911D01*
X60742Y-40971D01*
X60672Y-41073D01*
X60602Y-41174D01*
X60625Y-41210D01*
X60636Y-41230D01*
X60642Y-41245D01*
X60642Y-41250D01*
X60633Y-41255D01*
X60613Y-41264D01*
X60582Y-41277D01*
X60543Y-41294D01*
X60498Y-41312D01*
X60473Y-41323D01*
X60310Y-41391D01*
X60266Y-41343D01*
X60212Y-41296D01*
X60153Y-41262D01*
X60089Y-41241D01*
X60023Y-41235D01*
X59957Y-41243D01*
X59892Y-41264D01*
X59847Y-41289D01*
X59795Y-41331D01*
X59754Y-41383D01*
X59724Y-41441D01*
X59707Y-41503D01*
X59702Y-41568D01*
X59709Y-41633D01*
X59730Y-41696D01*
X59765Y-41755D01*
X59765Y-41756D01*
X59810Y-41804D01*
X59863Y-41842D01*
X59923Y-41869D01*
X59987Y-41884D01*
X60052Y-41886D01*
X60099Y-41878D01*
X60149Y-41863D01*
X60190Y-41842D01*
X60229Y-41814D01*
X60261Y-41784D01*
X60282Y-41762D01*
X60300Y-41745D01*
X60311Y-41736D01*
X60312Y-41735D01*
X60321Y-41738D01*
X60341Y-41746D01*
X60371Y-41757D01*
X60407Y-41772D01*
X60447Y-41789D01*
X60490Y-41806D01*
X60531Y-41824D01*
X60569Y-41840D01*
X60602Y-41854D01*
X60626Y-41864D01*
X60639Y-41870D01*
X60641Y-41872D01*
X60640Y-41881D01*
X60633Y-41898D01*
X60625Y-41913D01*
X60602Y-41949D01*
X60671Y-42048D01*
X60739Y-42148D01*
X60675Y-42211D01*
X60611Y-42275D01*
X60514Y-42209D01*
X60480Y-42186D01*
X60450Y-42166D01*
X60427Y-42152D01*
X60413Y-42144D01*
X60410Y-42143D01*
X60399Y-42146D01*
X60379Y-42156D01*
X60360Y-42166D01*
X60335Y-42178D01*
X60301Y-42192D01*
X60263Y-42207D01*
X60239Y-42215D01*
X60204Y-42226D01*
X60181Y-42235D01*
X60167Y-42243D01*
X60159Y-42250D01*
X60156Y-42260D01*
X60154Y-42267D01*
X60151Y-42285D01*
X60145Y-42313D01*
X60139Y-42349D01*
X60132Y-42387D01*
X60115Y-42481D01*
X60025Y-42481D01*
X59934Y-42481D01*
X59912Y-42362D01*
X59905Y-42321D01*
X59898Y-42285D01*
X59892Y-42258D01*
X59887Y-42241D01*
X59886Y-42237D01*
X59877Y-42232D01*
X59857Y-42224D01*
X59830Y-42214D01*
X59816Y-42210D01*
X59778Y-42196D01*
X59738Y-42179D01*
X59705Y-42162D01*
X59701Y-42160D01*
X59651Y-42130D01*
X59544Y-42203D01*
X59438Y-42276D01*
X59374Y-42212D01*
X59310Y-42148D01*
X59383Y-42041D01*
X59456Y-41934D01*
X59430Y-41883D01*
X59398Y-41815D01*
X59375Y-41750D01*
X59370Y-41730D01*
X59362Y-41699D01*
X59268Y-41682D01*
X59228Y-41674D01*
X59189Y-41667D01*
X59157Y-41661D01*
X59137Y-41656D01*
X59100Y-41649D01*
X59102Y-41560D01*
X59105Y-41470D01*
X59231Y-41447D01*
X59357Y-41423D01*
X59381Y-41354D01*
X59395Y-41316D01*
X59412Y-41277D01*
X59427Y-41244D01*
X59431Y-41237D01*
X59445Y-41208D01*
X59451Y-41188D01*
X59450Y-41179D01*
X59444Y-41170D01*
X59430Y-41150D01*
X59412Y-41122D01*
X59389Y-41089D01*
X59377Y-41072D01*
X59310Y-40975D01*
X59374Y-40911D01*
X59439Y-40847D01*
X59543Y-40918D01*
X59648Y-40990D01*
X59715Y-40955D01*
X59750Y-40938D01*
X59787Y-40922D01*
X59819Y-40910D01*
X59828Y-40907D01*
X59854Y-40899D01*
X59874Y-40890D01*
X59883Y-40885D01*
X59887Y-40875D01*
X59893Y-40852D01*
X59901Y-40821D01*
X59909Y-40782D01*
X59913Y-40759D01*
X59934Y-40642D01*
X60025Y-40642D01*
X60115Y-40642D01*
X60115Y-40642D01*
X60115Y-40642D01*
G37*
G36*
X60181Y-39636D02*
X60194Y-39639D01*
X60195Y-39640D01*
X60193Y-39641D01*
X60181Y-39645D01*
X60158Y-39655D01*
X60126Y-39670D01*
X60087Y-39689D01*
X60043Y-39710D01*
X59996Y-39733D01*
X59949Y-39757D01*
X59905Y-39780D01*
X59865Y-39802D01*
X59831Y-39820D01*
X59819Y-39827D01*
X59685Y-39909D01*
X59548Y-40001D01*
X59410Y-40101D01*
X59277Y-40205D01*
X59151Y-40311D01*
X59109Y-40349D01*
X59059Y-40394D01*
X59082Y-40421D01*
X59093Y-40433D01*
X59113Y-40456D01*
X59141Y-40485D01*
X59174Y-40521D01*
X59210Y-40561D01*
X59250Y-40604D01*
X59395Y-40759D01*
X59308Y-40847D01*
X59220Y-40934D01*
X59197Y-40913D01*
X59183Y-40900D01*
X59161Y-40880D01*
X59132Y-40854D01*
X59100Y-40824D01*
X59078Y-40804D01*
X59039Y-40769D01*
X58999Y-40732D01*
X58961Y-40696D01*
X58929Y-40665D01*
X58919Y-40655D01*
X58857Y-40595D01*
X58771Y-40692D01*
X58627Y-40863D01*
X58497Y-41034D01*
X58380Y-41206D01*
X58273Y-41382D01*
X58256Y-41412D01*
X58237Y-41446D01*
X58222Y-41469D01*
X58210Y-41484D01*
X58198Y-41494D01*
X58184Y-41501D01*
X58175Y-41505D01*
X58155Y-41512D01*
X58141Y-41514D01*
X58139Y-41512D01*
X58141Y-41496D01*
X58147Y-41469D01*
X58155Y-41436D01*
X58165Y-41401D01*
X58176Y-41367D01*
X58182Y-41348D01*
X58253Y-41172D01*
X58339Y-41000D01*
X58439Y-40833D01*
X58552Y-40672D01*
X58668Y-40528D01*
X58717Y-40472D01*
X58700Y-40453D01*
X58683Y-40435D01*
X58699Y-40414D01*
X58713Y-40396D01*
X58735Y-40373D01*
X58761Y-40346D01*
X58790Y-40318D01*
X58819Y-40290D01*
X58846Y-40266D01*
X58868Y-40248D01*
X58884Y-40236D01*
X58889Y-40234D01*
X58906Y-40239D01*
X58917Y-40246D01*
X58923Y-40251D01*
X58931Y-40251D01*
X58942Y-40246D01*
X58959Y-40233D01*
X58984Y-40212D01*
X58994Y-40203D01*
X59129Y-40095D01*
X59269Y-39995D01*
X59415Y-39905D01*
X59564Y-39826D01*
X59714Y-39759D01*
X59864Y-39705D01*
X60012Y-39663D01*
X60059Y-39653D01*
X60098Y-39646D01*
X60134Y-39640D01*
X60163Y-39637D01*
X60180Y-39636D01*
X60181Y-39636D01*
X60181Y-39636D01*
X60181Y-39636D01*
G37*
G36*
X58947Y-42030D02*
X58957Y-42031D01*
X58969Y-42038D01*
X58984Y-42054D01*
X59003Y-42081D01*
X59018Y-42104D01*
X59042Y-42138D01*
X59069Y-42174D01*
X59097Y-42210D01*
X59123Y-42243D01*
X59145Y-42268D01*
X59160Y-42283D01*
X59168Y-42289D01*
X59176Y-42290D01*
X59187Y-42283D01*
X59203Y-42267D01*
X59212Y-42258D01*
X59250Y-42220D01*
X59310Y-42279D01*
X59370Y-42338D01*
X59331Y-42378D01*
X59292Y-42417D01*
X59335Y-42457D01*
X59361Y-42479D01*
X59394Y-42506D01*
X59429Y-42533D01*
X59441Y-42543D01*
X59482Y-42572D01*
X59511Y-42594D01*
X59531Y-42611D01*
X59544Y-42622D01*
X59551Y-42631D01*
X59554Y-42639D01*
X59555Y-42645D01*
X59550Y-42655D01*
X59537Y-42672D01*
X59514Y-42698D01*
X59481Y-42733D01*
X59438Y-42778D01*
X59384Y-42832D01*
X59380Y-42836D01*
X59334Y-42880D01*
X59290Y-42923D01*
X59249Y-42962D01*
X59212Y-42996D01*
X59182Y-43023D01*
X59160Y-43042D01*
X59155Y-43046D01*
X59061Y-43108D01*
X58968Y-43155D01*
X58872Y-43190D01*
X58772Y-43211D01*
X58738Y-43216D01*
X58680Y-43217D01*
X58618Y-43207D01*
X58557Y-43188D01*
X58503Y-43162D01*
X58467Y-43136D01*
X58441Y-43105D01*
X58416Y-43064D01*
X58395Y-43015D01*
X58381Y-42964D01*
X58376Y-42941D01*
X58373Y-42872D01*
X58381Y-42796D01*
X58400Y-42714D01*
X58430Y-42629D01*
X58442Y-42601D01*
X58462Y-42560D01*
X58485Y-42519D01*
X58513Y-42478D01*
X58547Y-42433D01*
X58588Y-42384D01*
X58638Y-42329D01*
X58697Y-42267D01*
X58740Y-42223D01*
X58784Y-42179D01*
X58824Y-42139D01*
X58861Y-42103D01*
X58891Y-42074D01*
X58915Y-42052D01*
X58930Y-42038D01*
X58935Y-42035D01*
X58947Y-42030D01*
X58947Y-42030D01*
X58947Y-42030D01*
G37*
G54D14*
X47159Y-30511D02*
G75*
G03X47159Y-30511I-1096J0D01*
G74*
G01*
G54D15*
X68425Y-41850D02*
X69409Y-41850D01*
X69409Y-41850D02*
X69409Y-41062D01*
X69409Y-41062D02*
X68425Y-41062D01*
X68425Y-41062D02*
X68425Y-41850D01*
G54D16*
X74488Y-42853D02*
X78109Y-42853D01*
X78109Y-42853D02*
X78109Y-39823D01*
X78109Y-39823D02*
X74488Y-39823D01*
X74488Y-39823D02*
X74488Y-42853D01*
X68798Y-40253D02*
X68538Y-40513D01*
X68798Y-40313D02*
X68603Y-40513D01*
X68288Y-39823D02*
X68181Y-39823D01*
X68288Y-40333D02*
X68181Y-40333D01*
X68798Y-40078D02*
X68905Y-40078D01*
X68798Y-39823D02*
X68905Y-39823D01*
X68798Y-40333D02*
X68905Y-40333D01*
X68288Y-40078D02*
X68181Y-40078D01*
X68288Y-40513D02*
X68288Y-39643D01*
X68288Y-39643D02*
X68798Y-39643D01*
X68798Y-39643D02*
X68798Y-40513D01*
X68798Y-40513D02*
X68288Y-40513D01*
G54D17*
X70767Y-42381D02*
X73759Y-42381D01*
X73759Y-42381D02*
X73759Y-40335D01*
X73759Y-40335D02*
X70767Y-40335D01*
G54D16*
X70728Y-42381D02*
X71112Y-42381D01*
X71112Y-42381D02*
X71112Y-40335D01*
X71112Y-40335D02*
X70728Y-40335D01*
X70728Y-40335D02*
X70728Y-42381D01*
X73476Y-38043D02*
X73476Y-39043D01*
X73476Y-39043D02*
X68472Y-39043D01*
X68472Y-39033D02*
X68472Y-38033D01*
X68472Y-38043D02*
X73476Y-38043D01*
G54D15*
X75265Y-46525D02*
X77135Y-46525D01*
X77135Y-46525D02*
X77125Y-46712D01*
X77125Y-46712D02*
X75255Y-46712D01*
X75255Y-46712D02*
X75255Y-46535D01*
X75255Y-45521D02*
X77135Y-45521D01*
X77125Y-45521D02*
X77125Y-45708D01*
X77125Y-45708D02*
X75255Y-45708D01*
X75255Y-45708D02*
X75255Y-45521D01*
X75236Y-44704D02*
X75236Y-44527D01*
X75236Y-44527D02*
X75246Y-44537D01*
X75236Y-44527D02*
X77135Y-44527D01*
X77135Y-44527D02*
X77135Y-44694D01*
X77135Y-44694D02*
X75236Y-44694D01*
X77125Y-44114D02*
X77125Y-47106D01*
X77125Y-47106D02*
X78110Y-47106D01*
X78110Y-47106D02*
X78110Y-44114D01*
X78110Y-44114D02*
X77125Y-44114D01*
G54D18*
X70553Y-32616D02*
X70553Y-32416D01*
X70553Y-32416D02*
X70253Y-32416D01*
X70253Y-32416D02*
X70253Y-32616D01*
X70553Y-32816D02*
X70553Y-33016D01*
X70553Y-33016D02*
X70253Y-33016D01*
X70253Y-33016D02*
X70253Y-32816D01*
G54D15*
X68094Y-23657D02*
X68094Y-21657D01*
X68094Y-21657D02*
X70094Y-21657D01*
X70094Y-21657D02*
X70094Y-23657D01*
X70094Y-23657D02*
X68094Y-23657D01*
X76145Y-29708D02*
X78145Y-29708D01*
X78145Y-29708D02*
X78145Y-31708D01*
X78145Y-31708D02*
X76145Y-31708D01*
X76145Y-31708D02*
X76145Y-29708D01*
X76145Y-50968D02*
X78145Y-50968D01*
X78145Y-50968D02*
X78145Y-52968D01*
X78145Y-52968D02*
X76145Y-52968D01*
X76145Y-52968D02*
X76145Y-50968D01*
X70094Y-59019D02*
X70094Y-61019D01*
X70094Y-61019D02*
X68094Y-61019D01*
X68094Y-61019D02*
X68094Y-59019D01*
X68094Y-59019D02*
X70094Y-59019D01*
G54D16*
X41142Y-28936D02*
X43896Y-28936D01*
X43896Y-28936D02*
X43896Y-26182D01*
X43896Y-26182D02*
X41142Y-26182D01*
X41142Y-26182D02*
X41142Y-28936D01*
X43699Y-26477D02*
G75*
G03X43699Y-26477I-98J0D01*
G74*
G01*
X41142Y-34841D02*
X43896Y-34841D01*
X43896Y-34841D02*
X43896Y-32087D01*
X43896Y-32087D02*
X41142Y-32087D01*
X41142Y-32087D02*
X41142Y-34841D01*
X43699Y-32382D02*
G75*
G03X43699Y-32382I-98J0D01*
G74*
G01*
X48229Y-34841D02*
X50983Y-34841D01*
X50983Y-34841D02*
X50983Y-32087D01*
X50983Y-32087D02*
X48229Y-32087D01*
X48229Y-32087D02*
X48229Y-34841D01*
X50786Y-32382D02*
G75*
G03X50786Y-32382I-98J0D01*
G74*
G01*
X48229Y-28936D02*
X50983Y-28936D01*
X50983Y-28936D02*
X50983Y-26182D01*
X50983Y-26182D02*
X48229Y-26182D01*
X48229Y-26182D02*
X48229Y-28936D01*
X50786Y-26477D02*
G75*
G03X50786Y-26477I-98J0D01*
G74*
G01*
X43896Y-47835D02*
X41142Y-47835D01*
X41142Y-47835D02*
X41142Y-50589D01*
X41142Y-50589D02*
X43896Y-50589D01*
X43896Y-50589D02*
X43896Y-47835D01*
X41535Y-50294D02*
G75*
G03X41535Y-50294I-98J0D01*
G74*
G01*
X43896Y-53741D02*
X41142Y-53741D01*
X41142Y-53741D02*
X41142Y-56495D01*
X41142Y-56495D02*
X43896Y-56495D01*
X43896Y-56495D02*
X43896Y-53741D01*
X41535Y-56200D02*
G75*
G03X41535Y-56200I-98J0D01*
G74*
G01*
X50983Y-53741D02*
X48229Y-53741D01*
X48229Y-53741D02*
X48229Y-56495D01*
X48229Y-56495D02*
X50983Y-56495D01*
X50983Y-56495D02*
X50983Y-53741D01*
X48622Y-56200D02*
G75*
G03X48622Y-56200I-98J0D01*
G74*
G01*
X50983Y-47835D02*
X48229Y-47835D01*
X48229Y-47835D02*
X48229Y-50589D01*
X48229Y-50589D02*
X50983Y-50589D01*
X50983Y-50589D02*
X50983Y-47835D01*
X48622Y-50294D02*
G75*
G03X48622Y-50294I-98J0D01*
G74*
G01*
X68306Y-47835D02*
X65552Y-47835D01*
X65552Y-47835D02*
X65552Y-50589D01*
X65552Y-50589D02*
X68306Y-50589D01*
X68306Y-50589D02*
X68306Y-47835D01*
X65945Y-50294D02*
G75*
G03X65945Y-50294I-98J0D01*
G74*
G01*
X68306Y-53741D02*
X65552Y-53741D01*
X65552Y-53741D02*
X65552Y-56495D01*
X65552Y-56495D02*
X68306Y-56495D01*
X68306Y-56495D02*
X68306Y-53741D01*
X65945Y-56200D02*
G75*
G03X65945Y-56200I-98J0D01*
G74*
G01*
X75392Y-53741D02*
X72638Y-53741D01*
X72638Y-53741D02*
X72638Y-56495D01*
X72638Y-56495D02*
X75392Y-56495D01*
X75392Y-56495D02*
X75392Y-53741D01*
X73031Y-56200D02*
G75*
G03X73031Y-56200I-98J0D01*
G74*
G01*
X75392Y-47835D02*
X72638Y-47835D01*
X72638Y-47835D02*
X72638Y-50589D01*
X72638Y-50589D02*
X75392Y-50589D01*
X75392Y-50589D02*
X75392Y-47835D01*
X73031Y-50294D02*
G75*
G03X73031Y-50294I-98J0D01*
G74*
G01*
X72638Y-34841D02*
X75392Y-34841D01*
X75392Y-34841D02*
X75392Y-32087D01*
X75392Y-32087D02*
X72638Y-32087D01*
X72638Y-32087D02*
X72638Y-34841D01*
X75195Y-32382D02*
G75*
G03X75195Y-32382I-98J0D01*
G74*
G01*
X72638Y-28936D02*
X75392Y-28936D01*
X75392Y-28936D02*
X75392Y-26182D01*
X75392Y-26182D02*
X72638Y-26182D01*
X72638Y-26182D02*
X72638Y-28936D01*
X75195Y-26477D02*
G75*
G03X75195Y-26477I-98J0D01*
G74*
G01*
X65552Y-28936D02*
X68306Y-28936D01*
X68306Y-28936D02*
X68306Y-26182D01*
X68306Y-26182D02*
X65552Y-26182D01*
X65552Y-26182D02*
X65552Y-28936D01*
X68109Y-26477D02*
G75*
G03X68109Y-26477I-98J0D01*
G74*
G01*
X65552Y-34841D02*
X68306Y-34841D01*
X68306Y-34841D02*
X68306Y-32087D01*
X68306Y-32087D02*
X65552Y-32087D01*
X65552Y-32087D02*
X65552Y-34841D01*
X68109Y-32382D02*
G75*
G03X68109Y-32382I-98J0D01*
G74*
G01*
X65509Y-40995D02*
X64329Y-40995D01*
X64329Y-40995D02*
X64329Y-42175D01*
X64329Y-42175D02*
X65509Y-42175D01*
X65509Y-42175D02*
X65509Y-40995D01*
X58701Y-33474D02*
X58701Y-35836D01*
X58701Y-35836D02*
X60669Y-35836D01*
X60669Y-35836D02*
X60669Y-33474D01*
X60669Y-33474D02*
X58701Y-33474D01*
X58306Y-49245D02*
X58306Y-46883D01*
X58306Y-46883D02*
X56338Y-46883D01*
X56338Y-46883D02*
X56338Y-49245D01*
X56338Y-49245D02*
X58306Y-49245D01*
G54D15*
X40783Y-52968D02*
X38783Y-52968D01*
X38783Y-52968D02*
X38783Y-50968D01*
X38783Y-50968D02*
X40783Y-50968D01*
X40783Y-50968D02*
X40783Y-52968D01*
G54D14*
X41844Y-23622D02*
G75*
G03X41844Y-23622I-1096J0D01*
G74*
G01*
X41844Y-59055D02*
G75*
G03X41844Y-59055I-1096J0D01*
G74*
G01*
X47159Y-52165D02*
G75*
G03X47159Y-52165I-1096J0D01*
G74*
G01*
X71569Y-52165D02*
G75*
G03X71569Y-52165I-1096J0D01*
G74*
G01*
X77277Y-59055D02*
G75*
G03X77277Y-59055I-1096J0D01*
G74*
G01*
X77277Y-23622D02*
G75*
G03X77277Y-23622I-1096J0D01*
G74*
G01*
X71569Y-30511D02*
G75*
G03X71569Y-30511I-1096J0D01*
G74*
G01*
G54D16*
X71025Y-44438D02*
X70765Y-44178D01*
X70965Y-44438D02*
X70765Y-44243D01*
X71455Y-43928D02*
X71455Y-43820D01*
X70945Y-43928D02*
X70945Y-43820D01*
X71200Y-44438D02*
X71200Y-44545D01*
X71455Y-44438D02*
X71455Y-44545D01*
X70945Y-44438D02*
X70945Y-44545D01*
X71200Y-43928D02*
X71200Y-43820D01*
X70765Y-43928D02*
X71635Y-43928D01*
X71635Y-43928D02*
X71635Y-44438D01*
X71635Y-44438D02*
X70765Y-44438D01*
X70765Y-44438D02*
X70765Y-43928D01*
G54D19*
X46849Y-38937D02*
X46849Y-44291D01*
X46849Y-44291D02*
X44212Y-44291D01*
X43779Y-44291D02*
X43149Y-44291D01*
X43149Y-44291D02*
X43149Y-38937D01*
X43149Y-38937D02*
X46849Y-38937D01*
X43780Y-44291D02*
G75*
G02X44212Y-44291I216J0D01*
G74*
G01*
G54D16*
X58026Y-23623D02*
X58026Y-23823D01*
X58026Y-23823D02*
X58496Y-23823D01*
X58026Y-23623D02*
X58496Y-23623D01*
X58026Y-23033D02*
X58496Y-23033D01*
X58026Y-23233D02*
X58496Y-23233D01*
X58026Y-23033D02*
X58026Y-23233D01*
X58026Y-22443D02*
X58026Y-22643D01*
X58026Y-22643D02*
X58496Y-22643D01*
X58026Y-22443D02*
X58496Y-22443D01*
X59721Y-22778D02*
X59721Y-23488D01*
X59721Y-23488D02*
X59526Y-23488D01*
X59721Y-22778D02*
X59526Y-22778D01*
X58496Y-22228D02*
X59526Y-22228D01*
X59526Y-22228D02*
X59526Y-24038D01*
X59526Y-24038D02*
X58496Y-24038D01*
X58496Y-24038D02*
X58496Y-22228D01*
X58425Y-59096D02*
X58425Y-58896D01*
X58425Y-58896D02*
X57955Y-58896D01*
X58425Y-59096D02*
X57955Y-59096D01*
X58425Y-59686D02*
X57955Y-59686D01*
X58425Y-59486D02*
X57955Y-59486D01*
X58425Y-59686D02*
X58425Y-59486D01*
X58425Y-60276D02*
X58425Y-60076D01*
X58425Y-60076D02*
X57955Y-60076D01*
X58425Y-60276D02*
X57955Y-60276D01*
X56730Y-59941D02*
X56730Y-59231D01*
X56730Y-59231D02*
X56925Y-59231D01*
X56730Y-59941D02*
X56925Y-59941D01*
X57955Y-60491D02*
X56925Y-60491D01*
X56925Y-60491D02*
X56925Y-58681D01*
X56925Y-58681D02*
X57955Y-58681D01*
X57955Y-58681D02*
X57955Y-60491D01*
G54D20*
X69370Y-43690D02*
X68582Y-43690D01*
X68582Y-43690D02*
X68582Y-44596D01*
X68582Y-44596D02*
X69370Y-44596D01*
X69370Y-44596D02*
X69370Y-43690D01*
G54D21*
X73166Y-44674D02*
X73166Y-43534D01*
X73166Y-43534D02*
X73466Y-43534D01*
X73466Y-43534D02*
X73466Y-44674D01*
X73466Y-44674D02*
X73166Y-44674D01*
G54D16*
X74990Y-45423D02*
X74202Y-45423D01*
X74990Y-45620D02*
X74990Y-44438D01*
X74990Y-44438D02*
X74202Y-44438D01*
X74202Y-44438D02*
X74202Y-45620D01*
X74202Y-45620D02*
X74990Y-45620D01*
G54D17*
X61109Y-29113D02*
X61109Y-33169D01*
X61128Y-33150D02*
X57072Y-33150D01*
X57016Y-33172D02*
X57016Y-29064D01*
X57062Y-29096D02*
X61092Y-29096D01*
X59988Y-31123D02*
G75*
G03X59988Y-31123I-1299J0D01*
G74*
G01*
X56020Y-53598D02*
X56020Y-49542D01*
X56001Y-49561D02*
X60057Y-49561D01*
X60113Y-49539D02*
X60113Y-53647D01*
X60067Y-53615D02*
X56037Y-53615D01*
X59739Y-51588D02*
G75*
G03X59739Y-51588I-1299J0D01*
G74*
G01*
G54D22*
X48823Y-39559D02*
X52207Y-39559D01*
X52522Y-43573D02*
X48508Y-43573D01*
X51480Y-39874D02*
G75*
G02X50184Y-43486I-965J-1691D01*
G74*
G01*
X50171Y-43573D02*
X48508Y-43573D01*
X48508Y-43573D02*
X48508Y-39874D01*
X48508Y-39874D02*
X48823Y-39559D01*
X52207Y-39559D02*
X52522Y-39874D01*
X52522Y-39874D02*
X52522Y-43573D01*
X52522Y-43573D02*
X50849Y-43573D01*
X49550Y-43258D02*
G75*
G02X50850Y-39648I965J1691D01*
G74*
G01*
X51627Y-43160D02*
X49413Y-43160D01*
X52463Y-41566D02*
G75*
G03X52463Y-41566I-1948J0D01*
G74*
G01*
X53044Y-39559D02*
X56428Y-39559D01*
X56743Y-43573D02*
X52729Y-43573D01*
X55701Y-39874D02*
G75*
G02X54404Y-43486I-965J-1691D01*
G74*
G01*
X54392Y-43573D02*
X52729Y-43573D01*
X52729Y-43573D02*
X52729Y-39874D01*
X52729Y-39874D02*
X53044Y-39559D01*
X56428Y-39559D02*
X56743Y-39874D01*
X56743Y-39874D02*
X56743Y-43573D01*
X56743Y-43573D02*
X55070Y-43573D01*
X53771Y-43258D02*
G75*
G02X55071Y-39648I965J1691D01*
G74*
G01*
X55848Y-43160D02*
X53634Y-43160D01*
X56684Y-41566D02*
G75*
G03X56684Y-41566I-1948J0D01*
G74*
G01*
G54D15*
X40777Y-40541D02*
X42352Y-40541D01*
X42352Y-40541D02*
X42352Y-42706D01*
X42352Y-42706D02*
X40777Y-42706D01*
X38809Y-42706D02*
X38809Y-40541D01*
X38809Y-40541D02*
X40777Y-40541D01*
X40777Y-40541D02*
X40777Y-42706D01*
X40777Y-42706D02*
X38809Y-42706D01*
X69561Y-41152D02*
X69955Y-41743D01*
X69955Y-41152D02*
X69561Y-41743D01*
X70489Y-41743D02*
X70151Y-41743D01*
X70320Y-41743D02*
X70320Y-41152D01*
X70264Y-41237D01*
X70208Y-41293D01*
X70151Y-41321D01*
G54D22*
X56420Y-29382D02*
X56401Y-29401D01*
X56345Y-29420D01*
X56307Y-29420D01*
X56251Y-29401D01*
X56213Y-29363D01*
X56195Y-29326D01*
X56176Y-29251D01*
X56176Y-29195D01*
X56195Y-29120D01*
X56213Y-29082D01*
X56251Y-29045D01*
X56307Y-29026D01*
X56345Y-29026D01*
X56401Y-29045D01*
X56420Y-29064D01*
X56795Y-29420D02*
X56570Y-29420D01*
X56682Y-29420D02*
X56682Y-29026D01*
X56645Y-29082D01*
X56607Y-29120D01*
X56570Y-29139D01*
X56945Y-29064D02*
X56963Y-29045D01*
X57001Y-29026D01*
X57095Y-29026D01*
X57132Y-29045D01*
X57151Y-29064D01*
X57170Y-29101D01*
X57170Y-29139D01*
X57151Y-29195D01*
X56926Y-29420D01*
X57170Y-29420D01*
X54904Y-29382D02*
X54885Y-29401D01*
X54829Y-29420D01*
X54791Y-29420D01*
X54735Y-29401D01*
X54698Y-29363D01*
X54679Y-29326D01*
X54660Y-29251D01*
X54660Y-29195D01*
X54679Y-29120D01*
X54698Y-29082D01*
X54735Y-29045D01*
X54791Y-29026D01*
X54829Y-29026D01*
X54885Y-29045D01*
X54904Y-29064D01*
X55279Y-29420D02*
X55054Y-29420D01*
X55166Y-29420D02*
X55166Y-29026D01*
X55129Y-29082D01*
X55091Y-29120D01*
X55054Y-29139D01*
X55410Y-29026D02*
X55654Y-29026D01*
X55523Y-29176D01*
X55579Y-29176D01*
X55616Y-29195D01*
X55635Y-29214D01*
X55654Y-29251D01*
X55654Y-29345D01*
X55635Y-29382D01*
X55616Y-29401D01*
X55579Y-29420D01*
X55466Y-29420D01*
X55429Y-29401D01*
X55410Y-29382D01*
X61302Y-30544D02*
X61283Y-30562D01*
X61227Y-30581D01*
X61189Y-30581D01*
X61133Y-30562D01*
X61095Y-30525D01*
X61077Y-30487D01*
X61058Y-30412D01*
X61058Y-30356D01*
X61077Y-30281D01*
X61095Y-30244D01*
X61133Y-30206D01*
X61189Y-30187D01*
X61227Y-30187D01*
X61283Y-30206D01*
X61302Y-30225D01*
X61676Y-30581D02*
X61452Y-30581D01*
X61564Y-30581D02*
X61564Y-30187D01*
X61526Y-30244D01*
X61489Y-30281D01*
X61452Y-30300D01*
X62014Y-30319D02*
X62014Y-30581D01*
X61920Y-30169D02*
X61826Y-30450D01*
X62070Y-30450D01*
X62955Y-30544D02*
X62936Y-30562D01*
X62880Y-30581D01*
X62843Y-30581D01*
X62786Y-30562D01*
X62749Y-30525D01*
X62730Y-30487D01*
X62711Y-30412D01*
X62711Y-30356D01*
X62730Y-30281D01*
X62749Y-30244D01*
X62786Y-30206D01*
X62843Y-30187D01*
X62880Y-30187D01*
X62936Y-30206D01*
X62955Y-30225D01*
X63330Y-30581D02*
X63105Y-30581D01*
X63218Y-30581D02*
X63218Y-30187D01*
X63180Y-30244D01*
X63143Y-30281D01*
X63105Y-30300D01*
X63686Y-30187D02*
X63499Y-30187D01*
X63480Y-30375D01*
X63499Y-30356D01*
X63536Y-30337D01*
X63630Y-30337D01*
X63667Y-30356D01*
X63686Y-30375D01*
X63705Y-30412D01*
X63705Y-30506D01*
X63686Y-30544D01*
X63667Y-30562D01*
X63630Y-30581D01*
X63536Y-30581D01*
X63499Y-30562D01*
X63480Y-30544D01*
X60573Y-53516D02*
X60554Y-53535D01*
X60498Y-53554D01*
X60461Y-53554D01*
X60404Y-53535D01*
X60367Y-53497D01*
X60348Y-53460D01*
X60329Y-53385D01*
X60329Y-53329D01*
X60348Y-53254D01*
X60367Y-53216D01*
X60404Y-53179D01*
X60461Y-53160D01*
X60498Y-53160D01*
X60554Y-53179D01*
X60573Y-53197D01*
X60704Y-53160D02*
X60948Y-53160D01*
X60817Y-53310D01*
X60873Y-53310D01*
X60911Y-53329D01*
X60929Y-53347D01*
X60948Y-53385D01*
X60948Y-53479D01*
X60929Y-53516D01*
X60911Y-53535D01*
X60873Y-53554D01*
X60761Y-53554D01*
X60723Y-53535D01*
X60704Y-53516D01*
X61323Y-53554D02*
X61098Y-53554D01*
X61211Y-53554D02*
X61211Y-53160D01*
X61173Y-53216D01*
X61136Y-53254D01*
X61098Y-53272D01*
X61518Y-50898D02*
X61499Y-50917D01*
X61443Y-50935D01*
X61406Y-50935D01*
X61349Y-50917D01*
X61312Y-50879D01*
X61293Y-50842D01*
X61274Y-50767D01*
X61274Y-50711D01*
X61293Y-50636D01*
X61312Y-50598D01*
X61349Y-50561D01*
X61406Y-50542D01*
X61443Y-50542D01*
X61499Y-50561D01*
X61518Y-50579D01*
X61649Y-50542D02*
X61893Y-50542D01*
X61762Y-50692D01*
X61818Y-50692D01*
X61856Y-50711D01*
X61874Y-50729D01*
X61893Y-50767D01*
X61893Y-50860D01*
X61874Y-50898D01*
X61856Y-50917D01*
X61818Y-50935D01*
X61706Y-50935D01*
X61668Y-50917D01*
X61649Y-50898D01*
X62043Y-50579D02*
X62062Y-50561D01*
X62099Y-50542D01*
X62193Y-50542D01*
X62230Y-50561D01*
X62249Y-50579D01*
X62268Y-50617D01*
X62268Y-50654D01*
X62249Y-50711D01*
X62024Y-50935D01*
X62268Y-50935D01*
X55996Y-51931D02*
X55978Y-51950D01*
X55921Y-51969D01*
X55884Y-51969D01*
X55828Y-51950D01*
X55790Y-51913D01*
X55771Y-51875D01*
X55753Y-51800D01*
X55753Y-51744D01*
X55771Y-51669D01*
X55790Y-51631D01*
X55828Y-51594D01*
X55884Y-51575D01*
X55921Y-51575D01*
X55978Y-51594D01*
X55996Y-51613D01*
X56128Y-51575D02*
X56371Y-51575D01*
X56240Y-51725D01*
X56296Y-51725D01*
X56334Y-51744D01*
X56353Y-51763D01*
X56371Y-51800D01*
X56371Y-51894D01*
X56353Y-51931D01*
X56334Y-51950D01*
X56296Y-51969D01*
X56184Y-51969D01*
X56146Y-51950D01*
X56128Y-51931D01*
X56503Y-51575D02*
X56746Y-51575D01*
X56615Y-51725D01*
X56671Y-51725D01*
X56709Y-51744D01*
X56728Y-51763D01*
X56746Y-51800D01*
X56746Y-51894D01*
X56728Y-51931D01*
X56709Y-51950D01*
X56671Y-51969D01*
X56559Y-51969D01*
X56521Y-51950D01*
X56503Y-51931D01*
X53142Y-51971D02*
X53123Y-51990D01*
X53067Y-52008D01*
X53030Y-52008D01*
X52973Y-51990D01*
X52936Y-51952D01*
X52917Y-51915D01*
X52898Y-51840D01*
X52898Y-51783D01*
X52917Y-51708D01*
X52936Y-51671D01*
X52973Y-51633D01*
X53030Y-51615D01*
X53067Y-51615D01*
X53123Y-51633D01*
X53142Y-51652D01*
X53273Y-51615D02*
X53517Y-51615D01*
X53386Y-51765D01*
X53442Y-51765D01*
X53480Y-51783D01*
X53498Y-51802D01*
X53517Y-51840D01*
X53517Y-51933D01*
X53498Y-51971D01*
X53480Y-51990D01*
X53442Y-52008D01*
X53330Y-52008D01*
X53292Y-51990D01*
X53273Y-51971D01*
X53854Y-51746D02*
X53854Y-52008D01*
X53761Y-51596D02*
X53667Y-51877D01*
X53911Y-51877D01*
X67160Y-39804D02*
X67160Y-40122D01*
X67178Y-40160D01*
X67197Y-40179D01*
X67235Y-40197D01*
X67310Y-40197D01*
X67347Y-40179D01*
X67366Y-40160D01*
X67385Y-40122D01*
X67385Y-39804D01*
X67553Y-39841D02*
X67572Y-39822D01*
X67610Y-39804D01*
X67703Y-39804D01*
X67741Y-39822D01*
X67760Y-39841D01*
X67778Y-39879D01*
X67778Y-39916D01*
X67760Y-39972D01*
X67535Y-40197D01*
X67778Y-40197D01*
X68153Y-40197D02*
X67928Y-40197D01*
X68041Y-40197D02*
X68041Y-39804D01*
X68003Y-39860D01*
X67966Y-39897D01*
X67928Y-39916D01*
X71485Y-41098D02*
X71485Y-41417D01*
X71504Y-41454D01*
X71523Y-41473D01*
X71560Y-41492D01*
X71635Y-41492D01*
X71673Y-41473D01*
X71691Y-41454D01*
X71710Y-41417D01*
X71710Y-41098D01*
X72104Y-41492D02*
X71879Y-41492D01*
X71991Y-41492D02*
X71991Y-41098D01*
X71954Y-41154D01*
X71916Y-41192D01*
X71879Y-41211D01*
X72235Y-41098D02*
X72497Y-41098D01*
X72329Y-41492D01*
G54D16*
X76916Y-41142D02*
X76916Y-41423D01*
X76897Y-41480D01*
X76859Y-41517D01*
X76803Y-41536D01*
X76766Y-41536D01*
X77272Y-41273D02*
X77272Y-41536D01*
X77178Y-41123D02*
X77084Y-41405D01*
X77328Y-41405D01*
G54D18*
X70465Y-32782D02*
X70400Y-32822D01*
X70465Y-32850D02*
X70327Y-32850D01*
X70327Y-32805D01*
X70334Y-32793D01*
X70341Y-32787D01*
X70354Y-32782D01*
X70373Y-32782D01*
X70387Y-32787D01*
X70393Y-32793D01*
X70400Y-32805D01*
X70400Y-32850D01*
X70327Y-32747D02*
X70327Y-32679D01*
X70465Y-32713D02*
X70327Y-32713D01*
X70465Y-32576D02*
X70465Y-32645D01*
X70465Y-32610D02*
X70327Y-32610D01*
X70347Y-32622D01*
X70360Y-32633D01*
X70367Y-32645D01*
G54D17*
X77041Y-30538D02*
X77041Y-30824D01*
X77022Y-30881D01*
X76984Y-30919D01*
X76927Y-30938D01*
X76889Y-30938D01*
X77194Y-30538D02*
X77441Y-30538D01*
X77308Y-30691D01*
X77365Y-30691D01*
X77403Y-30710D01*
X77422Y-30729D01*
X77441Y-30767D01*
X77441Y-30862D01*
X77422Y-30900D01*
X77403Y-30919D01*
X77365Y-30938D01*
X77251Y-30938D01*
X77213Y-30919D01*
X77194Y-30900D01*
X77061Y-51660D02*
X77061Y-51946D01*
X77042Y-52003D01*
X77004Y-52041D01*
X76947Y-52060D01*
X76909Y-52060D01*
X77442Y-51660D02*
X77252Y-51660D01*
X77232Y-51851D01*
X77252Y-51832D01*
X77290Y-51813D01*
X77385Y-51813D01*
X77423Y-51832D01*
X77442Y-51851D01*
X77461Y-51889D01*
X77461Y-51984D01*
X77442Y-52022D01*
X77423Y-52041D01*
X77385Y-52060D01*
X77290Y-52060D01*
X77252Y-52041D01*
X77232Y-52022D01*
G54D23*
X42310Y-27372D02*
X42310Y-27531D01*
X42320Y-27550D01*
X42329Y-27559D01*
X42348Y-27569D01*
X42385Y-27569D01*
X42404Y-27559D01*
X42413Y-27550D01*
X42423Y-27531D01*
X42423Y-27372D01*
X42619Y-27569D02*
X42507Y-27569D01*
X42563Y-27569D02*
X42563Y-27372D01*
X42544Y-27400D01*
X42526Y-27419D01*
X42507Y-27428D01*
X42350Y-33356D02*
X42350Y-33516D01*
X42359Y-33534D01*
X42368Y-33544D01*
X42387Y-33553D01*
X42425Y-33553D01*
X42443Y-33544D01*
X42453Y-33534D01*
X42462Y-33516D01*
X42462Y-33356D01*
X42537Y-33356D02*
X42659Y-33356D01*
X42593Y-33431D01*
X42621Y-33431D01*
X42640Y-33441D01*
X42649Y-33450D01*
X42659Y-33469D01*
X42659Y-33516D01*
X42649Y-33534D01*
X42640Y-33544D01*
X42621Y-33553D01*
X42565Y-33553D01*
X42546Y-33544D01*
X42537Y-33534D01*
X49436Y-33287D02*
X49436Y-33447D01*
X49446Y-33465D01*
X49455Y-33475D01*
X49474Y-33484D01*
X49511Y-33484D01*
X49530Y-33475D01*
X49539Y-33465D01*
X49549Y-33447D01*
X49549Y-33287D01*
X49727Y-33353D02*
X49727Y-33484D01*
X49680Y-33278D02*
X49633Y-33419D01*
X49755Y-33419D01*
X49594Y-27461D02*
X49594Y-27620D01*
X49603Y-27639D01*
X49612Y-27648D01*
X49631Y-27657D01*
X49669Y-27657D01*
X49687Y-27648D01*
X49697Y-27639D01*
X49706Y-27620D01*
X49706Y-27461D01*
X49790Y-27479D02*
X49800Y-27470D01*
X49819Y-27461D01*
X49865Y-27461D01*
X49884Y-27470D01*
X49894Y-27479D01*
X49903Y-27498D01*
X49903Y-27517D01*
X49894Y-27545D01*
X49781Y-27657D01*
X49903Y-27657D01*
X42305Y-49262D02*
X42305Y-49421D01*
X42314Y-49440D01*
X42324Y-49449D01*
X42342Y-49459D01*
X42380Y-49459D01*
X42399Y-49449D01*
X42408Y-49440D01*
X42417Y-49421D01*
X42417Y-49262D01*
X42614Y-49459D02*
X42502Y-49459D01*
X42558Y-49459D02*
X42558Y-49262D01*
X42539Y-49290D01*
X42521Y-49309D01*
X42502Y-49318D01*
X42783Y-49262D02*
X42746Y-49262D01*
X42727Y-49271D01*
X42717Y-49281D01*
X42699Y-49309D01*
X42689Y-49346D01*
X42689Y-49421D01*
X42699Y-49440D01*
X42708Y-49449D01*
X42727Y-49459D01*
X42764Y-49459D01*
X42783Y-49449D01*
X42792Y-49440D01*
X42802Y-49421D01*
X42802Y-49374D01*
X42792Y-49356D01*
X42783Y-49346D01*
X42764Y-49337D01*
X42727Y-49337D01*
X42708Y-49346D01*
X42699Y-49356D01*
X42689Y-49374D01*
X42197Y-55108D02*
X42197Y-55268D01*
X42206Y-55286D01*
X42215Y-55296D01*
X42234Y-55305D01*
X42272Y-55305D01*
X42290Y-55296D01*
X42300Y-55286D01*
X42309Y-55268D01*
X42309Y-55108D01*
X42506Y-55305D02*
X42394Y-55305D01*
X42450Y-55305D02*
X42450Y-55108D01*
X42431Y-55136D01*
X42412Y-55155D01*
X42394Y-55164D01*
X42675Y-55174D02*
X42675Y-55305D01*
X42628Y-55099D02*
X42581Y-55239D01*
X42703Y-55239D01*
X49520Y-55089D02*
X49520Y-55248D01*
X49529Y-55267D01*
X49538Y-55276D01*
X49557Y-55285D01*
X49595Y-55285D01*
X49613Y-55276D01*
X49623Y-55267D01*
X49632Y-55248D01*
X49632Y-55089D01*
X49829Y-55285D02*
X49716Y-55285D01*
X49773Y-55285D02*
X49773Y-55089D01*
X49754Y-55117D01*
X49735Y-55135D01*
X49716Y-55145D01*
X49895Y-55089D02*
X50016Y-55089D01*
X49951Y-55164D01*
X49979Y-55164D01*
X49998Y-55173D01*
X50007Y-55182D01*
X50016Y-55201D01*
X50016Y-55248D01*
X50007Y-55267D01*
X49998Y-55276D01*
X49979Y-55285D01*
X49923Y-55285D01*
X49904Y-55276D01*
X49895Y-55267D01*
X49520Y-49321D02*
X49520Y-49480D01*
X49529Y-49499D01*
X49538Y-49508D01*
X49557Y-49518D01*
X49595Y-49518D01*
X49613Y-49508D01*
X49623Y-49499D01*
X49632Y-49480D01*
X49632Y-49321D01*
X49829Y-49518D02*
X49716Y-49518D01*
X49773Y-49518D02*
X49773Y-49321D01*
X49754Y-49349D01*
X49735Y-49368D01*
X49716Y-49377D01*
X50007Y-49321D02*
X49913Y-49321D01*
X49904Y-49415D01*
X49913Y-49405D01*
X49932Y-49396D01*
X49979Y-49396D01*
X49998Y-49405D01*
X50007Y-49415D01*
X50016Y-49433D01*
X50016Y-49480D01*
X50007Y-49499D01*
X49998Y-49508D01*
X49979Y-49518D01*
X49932Y-49518D01*
X49913Y-49508D01*
X49904Y-49499D01*
X66813Y-49065D02*
X66813Y-49224D01*
X66822Y-49243D01*
X66832Y-49252D01*
X66850Y-49262D01*
X66888Y-49262D01*
X66907Y-49252D01*
X66916Y-49243D01*
X66925Y-49224D01*
X66925Y-49065D01*
X67122Y-49262D02*
X67010Y-49262D01*
X67066Y-49262D02*
X67066Y-49065D01*
X67047Y-49093D01*
X67028Y-49112D01*
X67010Y-49121D01*
X67197Y-49084D02*
X67207Y-49074D01*
X67225Y-49065D01*
X67272Y-49065D01*
X67291Y-49074D01*
X67300Y-49084D01*
X67310Y-49102D01*
X67310Y-49121D01*
X67300Y-49149D01*
X67188Y-49262D01*
X67310Y-49262D01*
X66596Y-55020D02*
X66596Y-55179D01*
X66606Y-55198D01*
X66615Y-55207D01*
X66634Y-55217D01*
X66671Y-55217D01*
X66690Y-55207D01*
X66699Y-55198D01*
X66709Y-55179D01*
X66709Y-55020D01*
X66906Y-55217D02*
X66793Y-55217D01*
X66849Y-55217D02*
X66849Y-55020D01*
X66831Y-55048D01*
X66812Y-55067D01*
X66793Y-55076D01*
X67028Y-55020D02*
X67046Y-55020D01*
X67065Y-55029D01*
X67074Y-55038D01*
X67084Y-55057D01*
X67093Y-55095D01*
X67093Y-55142D01*
X67084Y-55179D01*
X67074Y-55198D01*
X67065Y-55207D01*
X67046Y-55217D01*
X67028Y-55217D01*
X67009Y-55207D01*
X66999Y-55198D01*
X66990Y-55179D01*
X66981Y-55142D01*
X66981Y-55095D01*
X66990Y-55057D01*
X66999Y-55038D01*
X67009Y-55029D01*
X67028Y-55020D01*
X73944Y-55089D02*
X73944Y-55248D01*
X73953Y-55267D01*
X73963Y-55276D01*
X73982Y-55285D01*
X74019Y-55285D01*
X74038Y-55276D01*
X74047Y-55267D01*
X74056Y-55248D01*
X74056Y-55089D01*
X74160Y-55285D02*
X74197Y-55285D01*
X74216Y-55276D01*
X74225Y-55267D01*
X74244Y-55239D01*
X74253Y-55201D01*
X74253Y-55126D01*
X74244Y-55107D01*
X74235Y-55098D01*
X74216Y-55089D01*
X74178Y-55089D01*
X74160Y-55098D01*
X74150Y-55107D01*
X74141Y-55126D01*
X74141Y-55173D01*
X74150Y-55192D01*
X74160Y-55201D01*
X74178Y-55210D01*
X74216Y-55210D01*
X74235Y-55201D01*
X74244Y-55192D01*
X74253Y-55173D01*
X73781Y-49104D02*
X73781Y-49264D01*
X73791Y-49282D01*
X73800Y-49292D01*
X73819Y-49301D01*
X73856Y-49301D01*
X73875Y-49292D01*
X73884Y-49282D01*
X73894Y-49264D01*
X73894Y-49104D01*
X74091Y-49301D02*
X73978Y-49301D01*
X74034Y-49301D02*
X74034Y-49104D01*
X74016Y-49132D01*
X73997Y-49151D01*
X73978Y-49161D01*
X74278Y-49301D02*
X74166Y-49301D01*
X74222Y-49301D02*
X74222Y-49104D01*
X74203Y-49132D01*
X74184Y-49151D01*
X74166Y-49161D01*
X73964Y-33307D02*
X73964Y-33466D01*
X73973Y-33485D01*
X73982Y-33495D01*
X74001Y-33504D01*
X74039Y-33504D01*
X74057Y-33495D01*
X74067Y-33485D01*
X74076Y-33466D01*
X74076Y-33307D01*
X74198Y-33391D02*
X74179Y-33382D01*
X74170Y-33373D01*
X74161Y-33354D01*
X74161Y-33345D01*
X74170Y-33326D01*
X74179Y-33316D01*
X74198Y-33307D01*
X74236Y-33307D01*
X74254Y-33316D01*
X74264Y-33326D01*
X74273Y-33345D01*
X74273Y-33354D01*
X74264Y-33373D01*
X74254Y-33382D01*
X74236Y-33391D01*
X74198Y-33391D01*
X74179Y-33401D01*
X74170Y-33410D01*
X74161Y-33429D01*
X74161Y-33466D01*
X74170Y-33485D01*
X74179Y-33495D01*
X74198Y-33504D01*
X74236Y-33504D01*
X74254Y-33495D01*
X74264Y-33485D01*
X74273Y-33466D01*
X74273Y-33429D01*
X74264Y-33410D01*
X74254Y-33401D01*
X74236Y-33391D01*
X73905Y-27323D02*
X73905Y-27482D01*
X73914Y-27501D01*
X73923Y-27510D01*
X73942Y-27520D01*
X73980Y-27520D01*
X73998Y-27510D01*
X74008Y-27501D01*
X74017Y-27482D01*
X74017Y-27323D01*
X74195Y-27323D02*
X74158Y-27323D01*
X74139Y-27332D01*
X74130Y-27342D01*
X74111Y-27370D01*
X74101Y-27407D01*
X74101Y-27482D01*
X74111Y-27501D01*
X74120Y-27510D01*
X74139Y-27520D01*
X74176Y-27520D01*
X74195Y-27510D01*
X74205Y-27501D01*
X74214Y-27482D01*
X74214Y-27435D01*
X74205Y-27417D01*
X74195Y-27407D01*
X74176Y-27398D01*
X74139Y-27398D01*
X74120Y-27407D01*
X74111Y-27417D01*
X74101Y-27435D01*
X66818Y-27411D02*
X66818Y-27571D01*
X66827Y-27589D01*
X66837Y-27599D01*
X66856Y-27608D01*
X66893Y-27608D01*
X66912Y-27599D01*
X66921Y-27589D01*
X66931Y-27571D01*
X66931Y-27411D01*
X67118Y-27411D02*
X67024Y-27411D01*
X67015Y-27505D01*
X67024Y-27496D01*
X67043Y-27486D01*
X67090Y-27486D01*
X67109Y-27496D01*
X67118Y-27505D01*
X67127Y-27524D01*
X67127Y-27571D01*
X67118Y-27589D01*
X67109Y-27599D01*
X67090Y-27608D01*
X67043Y-27608D01*
X67024Y-27599D01*
X67015Y-27589D01*
X66729Y-33287D02*
X66729Y-33447D01*
X66739Y-33465D01*
X66748Y-33475D01*
X66767Y-33484D01*
X66804Y-33484D01*
X66823Y-33475D01*
X66833Y-33465D01*
X66842Y-33447D01*
X66842Y-33287D01*
X66917Y-33287D02*
X67048Y-33287D01*
X66964Y-33484D01*
G54D24*
X71054Y-44039D02*
X71054Y-44134D01*
X71060Y-44146D01*
X71065Y-44151D01*
X71077Y-44157D01*
X71099Y-44157D01*
X71110Y-44151D01*
X71116Y-44146D01*
X71122Y-44134D01*
X71122Y-44039D01*
X71172Y-44050D02*
X71178Y-44045D01*
X71189Y-44039D01*
X71217Y-44039D01*
X71228Y-44045D01*
X71234Y-44050D01*
X71240Y-44061D01*
X71240Y-44073D01*
X71234Y-44090D01*
X71167Y-44157D01*
X71240Y-44157D01*
X71346Y-44039D02*
X71290Y-44039D01*
X71285Y-44095D01*
X71290Y-44090D01*
X71301Y-44084D01*
X71330Y-44084D01*
X71341Y-44090D01*
X71346Y-44095D01*
X71352Y-44106D01*
X71352Y-44134D01*
X71346Y-44146D01*
X71341Y-44151D01*
X71330Y-44157D01*
X71301Y-44157D01*
X71290Y-44151D01*
X71285Y-44146D01*
G54D22*
X41863Y-41745D02*
X42144Y-41745D01*
X42200Y-41764D01*
X42238Y-41801D01*
X42256Y-41857D01*
X42256Y-41895D01*
X42256Y-41351D02*
X42256Y-41576D01*
X42256Y-41464D02*
X41863Y-41464D01*
X41919Y-41501D01*
X41956Y-41539D01*
X41975Y-41576D01*
G54D25*
X58681Y-24138D02*
X58681Y-24457D01*
X58699Y-24494D01*
X58718Y-24513D01*
X58756Y-24532D01*
X58831Y-24532D01*
X58868Y-24513D01*
X58887Y-24494D01*
X58906Y-24457D01*
X58906Y-24138D01*
X59075Y-24175D02*
X59093Y-24156D01*
X59131Y-24138D01*
X59225Y-24138D01*
X59262Y-24156D01*
X59281Y-24175D01*
X59300Y-24213D01*
X59300Y-24250D01*
X59281Y-24306D01*
X59056Y-24532D01*
X59300Y-24532D01*
X59431Y-24138D02*
X59675Y-24138D01*
X59544Y-24288D01*
X59600Y-24288D01*
X59637Y-24306D01*
X59656Y-24325D01*
X59675Y-24363D01*
X59675Y-24457D01*
X59656Y-24494D01*
X59637Y-24513D01*
X59600Y-24532D01*
X59487Y-24532D01*
X59450Y-24513D01*
X59431Y-24494D01*
X56796Y-58150D02*
X56796Y-58469D01*
X56814Y-58507D01*
X56833Y-58526D01*
X56871Y-58544D01*
X56946Y-58544D01*
X56983Y-58526D01*
X57002Y-58507D01*
X57021Y-58469D01*
X57021Y-58150D01*
X57190Y-58188D02*
X57208Y-58169D01*
X57246Y-58150D01*
X57340Y-58150D01*
X57377Y-58169D01*
X57396Y-58188D01*
X57415Y-58225D01*
X57415Y-58263D01*
X57396Y-58319D01*
X57171Y-58544D01*
X57415Y-58544D01*
X57565Y-58188D02*
X57584Y-58169D01*
X57621Y-58150D01*
X57715Y-58150D01*
X57752Y-58169D01*
X57771Y-58188D01*
X57790Y-58225D01*
X57790Y-58263D01*
X57771Y-58319D01*
X57546Y-58544D01*
X57790Y-58544D01*
G54D15*
X68577Y-42225D02*
X68577Y-42544D01*
X68596Y-42581D01*
X68615Y-42600D01*
X68652Y-42619D01*
X68727Y-42619D01*
X68764Y-42600D01*
X68783Y-42581D01*
X68802Y-42544D01*
X68802Y-42225D01*
X68971Y-42262D02*
X68989Y-42244D01*
X69027Y-42225D01*
X69121Y-42225D01*
X69158Y-42244D01*
X69177Y-42262D01*
X69196Y-42300D01*
X69196Y-42337D01*
X69177Y-42394D01*
X68952Y-42619D01*
X69196Y-42619D01*
X69533Y-42356D02*
X69533Y-42619D01*
X69439Y-42206D02*
X69346Y-42487D01*
X69589Y-42487D01*
G54D26*
X75236Y-45174D02*
X75039Y-45174D01*
X75039Y-45127D01*
X75049Y-45099D01*
X75067Y-45081D01*
X75086Y-45071D01*
X75124Y-45062D01*
X75152Y-45062D01*
X75189Y-45071D01*
X75208Y-45081D01*
X75227Y-45099D01*
X75236Y-45127D01*
X75236Y-45174D01*
X75039Y-44996D02*
X75039Y-44874D01*
X75114Y-44940D01*
X75114Y-44912D01*
X75124Y-44893D01*
X75133Y-44884D01*
X75152Y-44874D01*
X75199Y-44874D01*
X75217Y-44884D01*
X75227Y-44893D01*
X75236Y-44912D01*
X75236Y-44968D01*
X75227Y-44987D01*
X75217Y-44996D01*
G54D22*
X64107Y-39284D02*
X64088Y-39303D01*
X64032Y-39321D01*
X63994Y-39321D01*
X63938Y-39303D01*
X63900Y-39265D01*
X63882Y-39228D01*
X63863Y-39153D01*
X63863Y-39096D01*
X63882Y-39021D01*
X63900Y-38984D01*
X63938Y-38946D01*
X63994Y-38928D01*
X64032Y-38928D01*
X64088Y-38946D01*
X64107Y-38965D01*
X64444Y-39059D02*
X64444Y-39321D01*
X64350Y-38909D02*
X64257Y-39190D01*
X64500Y-39190D01*
X64632Y-38965D02*
X64650Y-38946D01*
X64688Y-38928D01*
X64782Y-38928D01*
X64819Y-38946D01*
X64838Y-38965D01*
X64857Y-39003D01*
X64857Y-39040D01*
X64838Y-39096D01*
X64613Y-39321D01*
X64857Y-39321D01*
X64107Y-38477D02*
X64088Y-38495D01*
X64032Y-38514D01*
X63994Y-38514D01*
X63938Y-38495D01*
X63900Y-38458D01*
X63882Y-38420D01*
X63863Y-38345D01*
X63863Y-38289D01*
X63882Y-38214D01*
X63900Y-38177D01*
X63938Y-38139D01*
X63994Y-38121D01*
X64032Y-38121D01*
X64088Y-38139D01*
X64107Y-38158D01*
X64444Y-38252D02*
X64444Y-38514D01*
X64350Y-38102D02*
X64257Y-38383D01*
X64500Y-38383D01*
X64857Y-38514D02*
X64632Y-38514D01*
X64744Y-38514D02*
X64744Y-38121D01*
X64707Y-38177D01*
X64669Y-38214D01*
X64632Y-38233D01*
X61036Y-48904D02*
X61055Y-48923D01*
X61073Y-48979D01*
X61073Y-49017D01*
X61055Y-49073D01*
X61017Y-49110D01*
X60980Y-49129D01*
X60905Y-49148D01*
X60848Y-49148D01*
X60773Y-49129D01*
X60736Y-49110D01*
X60698Y-49073D01*
X60680Y-49017D01*
X60680Y-48979D01*
X60698Y-48923D01*
X60717Y-48904D01*
X60717Y-48754D02*
X60698Y-48735D01*
X60680Y-48698D01*
X60680Y-48604D01*
X60698Y-48567D01*
X60717Y-48548D01*
X60755Y-48529D01*
X60792Y-48529D01*
X60848Y-48548D01*
X61073Y-48773D01*
X61073Y-48529D01*
X60680Y-48398D02*
X60680Y-48136D01*
X61073Y-48304D01*
X61863Y-48904D02*
X61881Y-48923D01*
X61900Y-48979D01*
X61900Y-49017D01*
X61881Y-49073D01*
X61844Y-49110D01*
X61806Y-49129D01*
X61731Y-49148D01*
X61675Y-49148D01*
X61600Y-49129D01*
X61563Y-49110D01*
X61525Y-49073D01*
X61506Y-49017D01*
X61506Y-48979D01*
X61525Y-48923D01*
X61544Y-48904D01*
X61544Y-48754D02*
X61525Y-48735D01*
X61506Y-48698D01*
X61506Y-48604D01*
X61525Y-48567D01*
X61544Y-48548D01*
X61581Y-48529D01*
X61619Y-48529D01*
X61675Y-48548D01*
X61900Y-48773D01*
X61900Y-48529D01*
X61506Y-48192D02*
X61506Y-48267D01*
X61525Y-48304D01*
X61544Y-48323D01*
X61600Y-48360D01*
X61675Y-48379D01*
X61825Y-48379D01*
X61863Y-48360D01*
X61881Y-48342D01*
X61900Y-48304D01*
X61900Y-48229D01*
X61881Y-48192D01*
X61863Y-48173D01*
X61825Y-48154D01*
X61731Y-48154D01*
X61694Y-48173D01*
X61675Y-48192D01*
X61656Y-48229D01*
X61656Y-48304D01*
X61675Y-48342D01*
X61694Y-48360D01*
X61731Y-48379D01*
X62689Y-48904D02*
X62708Y-48923D01*
X62727Y-48979D01*
X62727Y-49017D01*
X62708Y-49073D01*
X62671Y-49110D01*
X62633Y-49129D01*
X62558Y-49148D01*
X62502Y-49148D01*
X62427Y-49129D01*
X62389Y-49110D01*
X62352Y-49073D01*
X62333Y-49017D01*
X62333Y-48979D01*
X62352Y-48923D01*
X62371Y-48904D01*
X62371Y-48754D02*
X62352Y-48735D01*
X62333Y-48698D01*
X62333Y-48604D01*
X62352Y-48567D01*
X62371Y-48548D01*
X62408Y-48529D01*
X62446Y-48529D01*
X62502Y-48548D01*
X62727Y-48773D01*
X62727Y-48529D01*
X62333Y-48173D02*
X62333Y-48360D01*
X62521Y-48379D01*
X62502Y-48360D01*
X62483Y-48323D01*
X62483Y-48229D01*
X62502Y-48192D01*
X62521Y-48173D01*
X62558Y-48154D01*
X62652Y-48154D01*
X62689Y-48173D01*
X62708Y-48192D01*
X62727Y-48229D01*
X62727Y-48323D01*
X62708Y-48360D01*
X62689Y-48379D01*
X62571Y-47670D02*
X62552Y-47688D01*
X62496Y-47707D01*
X62459Y-47707D01*
X62402Y-47688D01*
X62365Y-47651D01*
X62346Y-47613D01*
X62327Y-47538D01*
X62327Y-47482D01*
X62346Y-47407D01*
X62365Y-47370D01*
X62402Y-47332D01*
X62459Y-47313D01*
X62496Y-47313D01*
X62552Y-47332D01*
X62571Y-47351D01*
X62721Y-47351D02*
X62740Y-47332D01*
X62777Y-47313D01*
X62871Y-47313D01*
X62909Y-47332D01*
X62927Y-47351D01*
X62946Y-47388D01*
X62946Y-47426D01*
X62927Y-47482D01*
X62702Y-47707D01*
X62946Y-47707D01*
X63284Y-47445D02*
X63284Y-47707D01*
X63190Y-47295D02*
X63096Y-47576D01*
X63340Y-47576D01*
X62571Y-46843D02*
X62552Y-46862D01*
X62496Y-46880D01*
X62459Y-46880D01*
X62402Y-46862D01*
X62365Y-46824D01*
X62346Y-46787D01*
X62327Y-46712D01*
X62327Y-46655D01*
X62346Y-46580D01*
X62365Y-46543D01*
X62402Y-46505D01*
X62459Y-46487D01*
X62496Y-46487D01*
X62552Y-46505D01*
X62571Y-46524D01*
X62721Y-46524D02*
X62740Y-46505D01*
X62777Y-46487D01*
X62871Y-46487D01*
X62909Y-46505D01*
X62927Y-46524D01*
X62946Y-46562D01*
X62946Y-46599D01*
X62927Y-46655D01*
X62702Y-46880D01*
X62946Y-46880D01*
X63077Y-46487D02*
X63321Y-46487D01*
X63190Y-46637D01*
X63246Y-46637D01*
X63284Y-46655D01*
X63302Y-46674D01*
X63321Y-46712D01*
X63321Y-46805D01*
X63302Y-46843D01*
X63284Y-46862D01*
X63246Y-46880D01*
X63134Y-46880D01*
X63096Y-46862D01*
X63077Y-46843D01*
X56252Y-34169D02*
X56271Y-34188D01*
X56290Y-34244D01*
X56290Y-34282D01*
X56271Y-34338D01*
X56234Y-34376D01*
X56196Y-34394D01*
X56121Y-34413D01*
X56065Y-34413D01*
X55990Y-34394D01*
X55952Y-34376D01*
X55915Y-34338D01*
X55896Y-34282D01*
X55896Y-34244D01*
X55915Y-34188D01*
X55934Y-34169D01*
X56065Y-33944D02*
X56046Y-33982D01*
X56027Y-34001D01*
X55990Y-34019D01*
X55971Y-34019D01*
X55934Y-34001D01*
X55915Y-33982D01*
X55896Y-33944D01*
X55896Y-33869D01*
X55915Y-33832D01*
X55934Y-33813D01*
X55971Y-33794D01*
X55990Y-33794D01*
X56027Y-33813D01*
X56046Y-33832D01*
X56065Y-33869D01*
X56065Y-33944D01*
X56084Y-33982D01*
X56102Y-34001D01*
X56140Y-34019D01*
X56215Y-34019D01*
X56252Y-34001D01*
X56271Y-33982D01*
X56290Y-33944D01*
X56290Y-33869D01*
X56271Y-33832D01*
X56252Y-33813D01*
X56215Y-33794D01*
X56140Y-33794D01*
X56102Y-33813D01*
X56084Y-33832D01*
X56065Y-33869D01*
X55426Y-34169D02*
X55444Y-34188D01*
X55463Y-34244D01*
X55463Y-34282D01*
X55444Y-34338D01*
X55407Y-34376D01*
X55369Y-34394D01*
X55294Y-34413D01*
X55238Y-34413D01*
X55163Y-34394D01*
X55126Y-34376D01*
X55088Y-34338D01*
X55069Y-34282D01*
X55069Y-34244D01*
X55088Y-34188D01*
X55107Y-34169D01*
X55069Y-34038D02*
X55069Y-33776D01*
X55463Y-33944D01*
X54599Y-34169D02*
X54618Y-34188D01*
X54636Y-34244D01*
X54636Y-34282D01*
X54618Y-34338D01*
X54580Y-34376D01*
X54543Y-34394D01*
X54468Y-34413D01*
X54411Y-34413D01*
X54336Y-34394D01*
X54299Y-34376D01*
X54261Y-34338D01*
X54243Y-34282D01*
X54243Y-34244D01*
X54261Y-34188D01*
X54280Y-34169D01*
X54243Y-33832D02*
X54243Y-33907D01*
X54261Y-33944D01*
X54280Y-33963D01*
X54336Y-34001D01*
X54411Y-34019D01*
X54561Y-34019D01*
X54599Y-34001D01*
X54618Y-33982D01*
X54636Y-33944D01*
X54636Y-33869D01*
X54618Y-33832D01*
X54599Y-33813D01*
X54561Y-33794D01*
X54468Y-33794D01*
X54430Y-33813D01*
X54411Y-33832D01*
X54393Y-33869D01*
X54393Y-33944D01*
X54411Y-33982D01*
X54430Y-34001D01*
X54468Y-34019D01*
X54038Y-35366D02*
X54019Y-35385D01*
X53963Y-35404D01*
X53926Y-35404D01*
X53869Y-35385D01*
X53832Y-35348D01*
X53813Y-35310D01*
X53794Y-35235D01*
X53794Y-35179D01*
X53813Y-35104D01*
X53832Y-35067D01*
X53869Y-35029D01*
X53926Y-35010D01*
X53963Y-35010D01*
X54019Y-35029D01*
X54038Y-35048D01*
X54394Y-35010D02*
X54207Y-35010D01*
X54188Y-35198D01*
X54207Y-35179D01*
X54244Y-35160D01*
X54338Y-35160D01*
X54376Y-35179D01*
X54394Y-35198D01*
X54413Y-35235D01*
X54413Y-35329D01*
X54394Y-35366D01*
X54376Y-35385D01*
X54338Y-35404D01*
X54244Y-35404D01*
X54207Y-35385D01*
X54188Y-35366D01*
X54038Y-36154D02*
X54019Y-36173D01*
X53963Y-36191D01*
X53926Y-36191D01*
X53869Y-36173D01*
X53832Y-36135D01*
X53813Y-36098D01*
X53794Y-36023D01*
X53794Y-35966D01*
X53813Y-35891D01*
X53832Y-35854D01*
X53869Y-35816D01*
X53926Y-35798D01*
X53963Y-35798D01*
X54019Y-35816D01*
X54038Y-35835D01*
X54376Y-35929D02*
X54376Y-36191D01*
X54282Y-35779D02*
X54188Y-36060D01*
X54432Y-36060D01*
G54D15*
X36891Y-43394D02*
X36300Y-43394D01*
X36300Y-43169D01*
X36328Y-43113D01*
X36356Y-43084D01*
X36413Y-43056D01*
X36497Y-43056D01*
X36553Y-43084D01*
X36581Y-43113D01*
X36609Y-43169D01*
X36609Y-43394D01*
X36891Y-42803D02*
X36300Y-42803D01*
X36581Y-42803D02*
X36581Y-42466D01*
X36891Y-42466D02*
X36300Y-42466D01*
X36891Y-42185D02*
X36300Y-42185D01*
X36891Y-41847D01*
X36300Y-41847D01*
X36300Y-41622D02*
X36891Y-41228D01*
X36300Y-41228D02*
X36891Y-41622D01*
X36666Y-41003D02*
X36666Y-40553D01*
X36356Y-40300D02*
X36328Y-40272D01*
X36300Y-40216D01*
X36300Y-40075D01*
X36328Y-40019D01*
X36356Y-39991D01*
X36413Y-39963D01*
X36469Y-39963D01*
X36553Y-39991D01*
X36891Y-40329D01*
X36891Y-39963D01*
%LPC*%
G54D27*
X46062Y-30511D03*
G54D28*
X69242Y-41151D03*
X68592Y-41151D03*
X69242Y-41761D03*
X68592Y-41761D03*
G54D29*
X56279Y-29960D03*
X56279Y-31062D03*
X55413Y-29960D03*
X55413Y-31062D03*
X61850Y-29980D03*
X61850Y-31082D03*
X62775Y-29980D03*
X62775Y-31082D03*
X60885Y-52607D03*
X60885Y-51505D03*
X61712Y-52587D03*
X61712Y-51485D03*
X55275Y-52657D03*
X55275Y-51555D03*
X54429Y-52657D03*
X54429Y-51555D03*
G54D30*
X75807Y-42204D03*
X75807Y-40472D03*
G54D31*
X74763Y-41338D03*
X74763Y-41652D03*
X74763Y-41967D03*
X74763Y-41024D03*
X74763Y-40709D03*
G54D32*
X74803Y-43089D03*
X74803Y-39587D03*
X76948Y-43089D03*
X76948Y-39587D03*
G54D33*
X68905Y-40334D03*
X68181Y-40078D03*
X68905Y-39822D03*
X68905Y-40078D03*
X68181Y-39822D03*
X68181Y-40334D03*
G54D34*
X71112Y-42785D03*
X71368Y-42785D03*
X71624Y-42785D03*
X71880Y-42785D03*
X72136Y-42785D03*
X72390Y-42785D03*
X72646Y-42785D03*
X72902Y-42785D03*
X73158Y-42785D03*
X73414Y-42785D03*
X73414Y-39931D03*
X73158Y-39931D03*
X72902Y-39931D03*
X72646Y-39931D03*
X72390Y-39931D03*
X72136Y-39931D03*
X71880Y-39931D03*
X71624Y-39931D03*
X71368Y-39931D03*
X71112Y-39931D03*
G54D35*
X71976Y-38543D03*
X70976Y-38543D03*
X69976Y-38543D03*
X72976Y-38543D03*
X68976Y-38543D03*
G54D36*
X75629Y-45610D03*
X75629Y-46614D03*
X75629Y-44606D03*
G54D37*
X70403Y-32539D03*
X70403Y-32893D03*
G54D38*
X72637Y-25196D03*
X75393Y-57480D03*
X43651Y-58100D03*
X52362Y-24212D03*
X40206Y-36082D03*
X64566Y-36417D03*
X51968Y-46653D03*
X64960Y-46653D03*
G54D39*
X68051Y-23159D03*
X68051Y-22155D03*
X70137Y-22155D03*
X70137Y-23159D03*
G54D40*
X76643Y-29665D03*
X77647Y-29665D03*
X77647Y-31751D03*
X76643Y-31751D03*
X76643Y-50925D03*
X77647Y-50925D03*
X77647Y-53011D03*
X76643Y-53011D03*
G54D39*
X70137Y-59517D03*
X70137Y-60521D03*
X68051Y-60521D03*
X68051Y-59517D03*
G54D41*
X43896Y-26477D03*
X43896Y-26674D03*
X43896Y-26871D03*
X43896Y-27067D03*
X43896Y-27264D03*
X43896Y-27461D03*
X43896Y-27657D03*
X43896Y-27854D03*
X43896Y-28051D03*
X43896Y-28247D03*
X43896Y-28444D03*
X43896Y-28641D03*
G54D42*
X43601Y-28936D03*
X43404Y-28936D03*
X43207Y-28936D03*
X43011Y-28936D03*
X42814Y-28936D03*
X42617Y-28936D03*
X42421Y-28936D03*
X42224Y-28936D03*
X42027Y-28936D03*
X41831Y-28936D03*
X41634Y-28936D03*
X41437Y-28936D03*
G54D41*
X41142Y-28641D03*
X41142Y-28444D03*
X41142Y-28247D03*
X41142Y-28051D03*
X41142Y-27854D03*
X41142Y-27657D03*
X41142Y-27461D03*
X41142Y-27264D03*
X41142Y-27067D03*
X41142Y-26871D03*
X41142Y-26674D03*
X41142Y-26477D03*
G54D42*
X41437Y-26182D03*
X41634Y-26182D03*
X41831Y-26182D03*
X42027Y-26182D03*
X42224Y-26182D03*
X42421Y-26182D03*
X42617Y-26182D03*
X42814Y-26182D03*
X43011Y-26182D03*
X43207Y-26182D03*
X43404Y-26182D03*
X43601Y-26182D03*
G54D43*
X42519Y-27559D03*
G54D41*
X43896Y-32382D03*
X43896Y-32579D03*
X43896Y-32776D03*
X43896Y-32972D03*
X43896Y-33169D03*
X43896Y-33366D03*
X43896Y-33562D03*
X43896Y-33759D03*
X43896Y-33956D03*
X43896Y-34152D03*
X43896Y-34349D03*
X43896Y-34546D03*
G54D42*
X43601Y-34841D03*
X43404Y-34841D03*
X43207Y-34841D03*
X43011Y-34841D03*
X42814Y-34841D03*
X42617Y-34841D03*
X42421Y-34841D03*
X42224Y-34841D03*
X42027Y-34841D03*
X41831Y-34841D03*
X41634Y-34841D03*
X41437Y-34841D03*
G54D41*
X41142Y-34546D03*
X41142Y-34349D03*
X41142Y-34152D03*
X41142Y-33956D03*
X41142Y-33759D03*
X41142Y-33562D03*
X41142Y-33366D03*
X41142Y-33169D03*
X41142Y-32972D03*
X41142Y-32776D03*
X41142Y-32579D03*
X41142Y-32382D03*
G54D42*
X41437Y-32087D03*
X41634Y-32087D03*
X41831Y-32087D03*
X42027Y-32087D03*
X42224Y-32087D03*
X42421Y-32087D03*
X42617Y-32087D03*
X42814Y-32087D03*
X43011Y-32087D03*
X43207Y-32087D03*
X43404Y-32087D03*
X43601Y-32087D03*
G54D43*
X42519Y-33464D03*
G54D41*
X50983Y-32382D03*
X50983Y-32579D03*
X50983Y-32776D03*
X50983Y-32972D03*
X50983Y-33169D03*
X50983Y-33366D03*
X50983Y-33562D03*
X50983Y-33759D03*
X50983Y-33956D03*
X50983Y-34152D03*
X50983Y-34349D03*
X50983Y-34546D03*
G54D42*
X50688Y-34841D03*
X50491Y-34841D03*
X50294Y-34841D03*
X50098Y-34841D03*
X49901Y-34841D03*
X49704Y-34841D03*
X49508Y-34841D03*
X49311Y-34841D03*
X49114Y-34841D03*
X48918Y-34841D03*
X48721Y-34841D03*
X48524Y-34841D03*
G54D41*
X48229Y-34546D03*
X48229Y-34349D03*
X48229Y-34152D03*
X48229Y-33956D03*
X48229Y-33759D03*
X48229Y-33562D03*
X48229Y-33366D03*
X48229Y-33169D03*
X48229Y-32972D03*
X48229Y-32776D03*
X48229Y-32579D03*
X48229Y-32382D03*
G54D42*
X48524Y-32087D03*
X48721Y-32087D03*
X48918Y-32087D03*
X49114Y-32087D03*
X49311Y-32087D03*
X49508Y-32087D03*
X49704Y-32087D03*
X49901Y-32087D03*
X50098Y-32087D03*
X50294Y-32087D03*
X50491Y-32087D03*
X50688Y-32087D03*
G54D43*
X49606Y-33464D03*
G54D41*
X50983Y-26477D03*
X50983Y-26674D03*
X50983Y-26871D03*
X50983Y-27067D03*
X50983Y-27264D03*
X50983Y-27461D03*
X50983Y-27657D03*
X50983Y-27854D03*
X50983Y-28051D03*
X50983Y-28247D03*
X50983Y-28444D03*
X50983Y-28641D03*
G54D42*
X50688Y-28936D03*
X50491Y-28936D03*
X50294Y-28936D03*
X50098Y-28936D03*
X49901Y-28936D03*
X49704Y-28936D03*
X49508Y-28936D03*
X49311Y-28936D03*
X49114Y-28936D03*
X48918Y-28936D03*
X48721Y-28936D03*
X48524Y-28936D03*
G54D41*
X48229Y-28641D03*
X48229Y-28444D03*
X48229Y-28247D03*
X48229Y-28051D03*
X48229Y-27854D03*
X48229Y-27657D03*
X48229Y-27461D03*
X48229Y-27264D03*
X48229Y-27067D03*
X48229Y-26871D03*
X48229Y-26674D03*
X48229Y-26477D03*
G54D42*
X48524Y-26182D03*
X48721Y-26182D03*
X48918Y-26182D03*
X49114Y-26182D03*
X49311Y-26182D03*
X49508Y-26182D03*
X49704Y-26182D03*
X49901Y-26182D03*
X50098Y-26182D03*
X50294Y-26182D03*
X50491Y-26182D03*
X50688Y-26182D03*
G54D43*
X49606Y-27559D03*
G54D41*
X41142Y-50294D03*
X41142Y-50097D03*
X41142Y-49900D03*
X41142Y-49704D03*
X41142Y-49507D03*
X41142Y-49310D03*
X41142Y-49114D03*
X41142Y-48917D03*
X41142Y-48720D03*
X41142Y-48524D03*
X41142Y-48327D03*
X41142Y-48130D03*
G54D42*
X41437Y-47835D03*
X41634Y-47835D03*
X41831Y-47835D03*
X42027Y-47835D03*
X42224Y-47835D03*
X42421Y-47835D03*
X42617Y-47835D03*
X42814Y-47835D03*
X43011Y-47835D03*
X43207Y-47835D03*
X43404Y-47835D03*
X43601Y-47835D03*
G54D41*
X43896Y-48130D03*
X43896Y-48327D03*
X43896Y-48524D03*
X43896Y-48720D03*
X43896Y-48917D03*
X43896Y-49114D03*
X43896Y-49310D03*
X43896Y-49507D03*
X43896Y-49704D03*
X43896Y-49900D03*
X43896Y-50097D03*
X43896Y-50294D03*
G54D42*
X43601Y-50589D03*
X43404Y-50589D03*
X43207Y-50589D03*
X43011Y-50589D03*
X42814Y-50589D03*
X42617Y-50589D03*
X42421Y-50589D03*
X42224Y-50589D03*
X42027Y-50589D03*
X41831Y-50589D03*
X41634Y-50589D03*
X41437Y-50589D03*
G54D43*
X42519Y-49212D03*
G54D41*
X41142Y-56200D03*
X41142Y-56003D03*
X41142Y-55806D03*
X41142Y-55610D03*
X41142Y-55413D03*
X41142Y-55216D03*
X41142Y-55020D03*
X41142Y-54823D03*
X41142Y-54626D03*
X41142Y-54430D03*
X41142Y-54233D03*
X41142Y-54036D03*
G54D42*
X41437Y-53741D03*
X41634Y-53741D03*
X41831Y-53741D03*
X42027Y-53741D03*
X42224Y-53741D03*
X42421Y-53741D03*
X42617Y-53741D03*
X42814Y-53741D03*
X43011Y-53741D03*
X43207Y-53741D03*
X43404Y-53741D03*
X43601Y-53741D03*
G54D41*
X43896Y-54036D03*
X43896Y-54233D03*
X43896Y-54430D03*
X43896Y-54626D03*
X43896Y-54823D03*
X43896Y-55020D03*
X43896Y-55216D03*
X43896Y-55413D03*
X43896Y-55610D03*
X43896Y-55806D03*
X43896Y-56003D03*
X43896Y-56200D03*
G54D42*
X43601Y-56495D03*
X43404Y-56495D03*
X43207Y-56495D03*
X43011Y-56495D03*
X42814Y-56495D03*
X42617Y-56495D03*
X42421Y-56495D03*
X42224Y-56495D03*
X42027Y-56495D03*
X41831Y-56495D03*
X41634Y-56495D03*
X41437Y-56495D03*
G54D43*
X42519Y-55118D03*
G54D41*
X48229Y-56200D03*
X48229Y-56003D03*
X48229Y-55806D03*
X48229Y-55610D03*
X48229Y-55413D03*
X48229Y-55216D03*
X48229Y-55020D03*
X48229Y-54823D03*
X48229Y-54626D03*
X48229Y-54430D03*
X48229Y-54233D03*
X48229Y-54036D03*
G54D42*
X48524Y-53741D03*
X48721Y-53741D03*
X48918Y-53741D03*
X49114Y-53741D03*
X49311Y-53741D03*
X49508Y-53741D03*
X49704Y-53741D03*
X49901Y-53741D03*
X50098Y-53741D03*
X50294Y-53741D03*
X50491Y-53741D03*
X50688Y-53741D03*
G54D41*
X50983Y-54036D03*
X50983Y-54233D03*
X50983Y-54430D03*
X50983Y-54626D03*
X50983Y-54823D03*
X50983Y-55020D03*
X50983Y-55216D03*
X50983Y-55413D03*
X50983Y-55610D03*
X50983Y-55806D03*
X50983Y-56003D03*
X50983Y-56200D03*
G54D42*
X50688Y-56495D03*
X50491Y-56495D03*
X50294Y-56495D03*
X50098Y-56495D03*
X49901Y-56495D03*
X49704Y-56495D03*
X49508Y-56495D03*
X49311Y-56495D03*
X49114Y-56495D03*
X48918Y-56495D03*
X48721Y-56495D03*
X48524Y-56495D03*
G54D43*
X49606Y-55118D03*
G54D41*
X48229Y-50294D03*
X48229Y-50097D03*
X48229Y-49900D03*
X48229Y-49704D03*
X48229Y-49507D03*
X48229Y-49310D03*
X48229Y-49114D03*
X48229Y-48917D03*
X48229Y-48720D03*
X48229Y-48524D03*
X48229Y-48327D03*
X48229Y-48130D03*
G54D42*
X48524Y-47835D03*
X48721Y-47835D03*
X48918Y-47835D03*
X49114Y-47835D03*
X49311Y-47835D03*
X49508Y-47835D03*
X49704Y-47835D03*
X49901Y-47835D03*
X50098Y-47835D03*
X50294Y-47835D03*
X50491Y-47835D03*
X50688Y-47835D03*
G54D41*
X50983Y-48130D03*
X50983Y-48327D03*
X50983Y-48524D03*
X50983Y-48720D03*
X50983Y-48917D03*
X50983Y-49114D03*
X50983Y-49310D03*
X50983Y-49507D03*
X50983Y-49704D03*
X50983Y-49900D03*
X50983Y-50097D03*
X50983Y-50294D03*
G54D42*
X50688Y-50589D03*
X50491Y-50589D03*
X50294Y-50589D03*
X50098Y-50589D03*
X49901Y-50589D03*
X49704Y-50589D03*
X49508Y-50589D03*
X49311Y-50589D03*
X49114Y-50589D03*
X48918Y-50589D03*
X48721Y-50589D03*
X48524Y-50589D03*
G54D43*
X49606Y-49212D03*
G54D41*
X65552Y-50294D03*
X65552Y-50097D03*
X65552Y-49900D03*
X65552Y-49704D03*
X65552Y-49507D03*
X65552Y-49310D03*
X65552Y-49114D03*
X65552Y-48917D03*
X65552Y-48720D03*
X65552Y-48524D03*
X65552Y-48327D03*
X65552Y-48130D03*
G54D42*
X65847Y-47835D03*
X66044Y-47835D03*
X66241Y-47835D03*
X66437Y-47835D03*
X66634Y-47835D03*
X66831Y-47835D03*
X67027Y-47835D03*
X67224Y-47835D03*
X67421Y-47835D03*
X67617Y-47835D03*
X67814Y-47835D03*
X68011Y-47835D03*
G54D41*
X68306Y-48130D03*
X68306Y-48327D03*
X68306Y-48524D03*
X68306Y-48720D03*
X68306Y-48917D03*
X68306Y-49114D03*
X68306Y-49310D03*
X68306Y-49507D03*
X68306Y-49704D03*
X68306Y-49900D03*
X68306Y-50097D03*
X68306Y-50294D03*
G54D42*
X68011Y-50589D03*
X67814Y-50589D03*
X67617Y-50589D03*
X67421Y-50589D03*
X67224Y-50589D03*
X67027Y-50589D03*
X66831Y-50589D03*
X66634Y-50589D03*
X66437Y-50589D03*
X66241Y-50589D03*
X66044Y-50589D03*
X65847Y-50589D03*
G54D43*
X66929Y-49212D03*
G54D41*
X65552Y-56200D03*
X65552Y-56003D03*
X65552Y-55806D03*
X65552Y-55610D03*
X65552Y-55413D03*
X65552Y-55216D03*
X65552Y-55020D03*
X65552Y-54823D03*
X65552Y-54626D03*
X65552Y-54430D03*
X65552Y-54233D03*
X65552Y-54036D03*
G54D42*
X65847Y-53741D03*
X66044Y-53741D03*
X66241Y-53741D03*
X66437Y-53741D03*
X66634Y-53741D03*
X66831Y-53741D03*
X67027Y-53741D03*
X67224Y-53741D03*
X67421Y-53741D03*
X67617Y-53741D03*
X67814Y-53741D03*
X68011Y-53741D03*
G54D41*
X68306Y-54036D03*
X68306Y-54233D03*
X68306Y-54430D03*
X68306Y-54626D03*
X68306Y-54823D03*
X68306Y-55020D03*
X68306Y-55216D03*
X68306Y-55413D03*
X68306Y-55610D03*
X68306Y-55806D03*
X68306Y-56003D03*
X68306Y-56200D03*
G54D42*
X68011Y-56495D03*
X67814Y-56495D03*
X67617Y-56495D03*
X67421Y-56495D03*
X67224Y-56495D03*
X67027Y-56495D03*
X66831Y-56495D03*
X66634Y-56495D03*
X66437Y-56495D03*
X66241Y-56495D03*
X66044Y-56495D03*
X65847Y-56495D03*
G54D43*
X66929Y-55118D03*
G54D41*
X72638Y-56200D03*
X72638Y-56003D03*
X72638Y-55806D03*
X72638Y-55610D03*
X72638Y-55413D03*
X72638Y-55216D03*
X72638Y-55020D03*
X72638Y-54823D03*
X72638Y-54626D03*
X72638Y-54430D03*
X72638Y-54233D03*
X72638Y-54036D03*
G54D42*
X72933Y-53741D03*
X73130Y-53741D03*
X73327Y-53741D03*
X73523Y-53741D03*
X73720Y-53741D03*
X73917Y-53741D03*
X74113Y-53741D03*
X74310Y-53741D03*
X74507Y-53741D03*
X74703Y-53741D03*
X74900Y-53741D03*
X75097Y-53741D03*
G54D41*
X75392Y-54036D03*
X75392Y-54233D03*
X75392Y-54430D03*
X75392Y-54626D03*
X75392Y-54823D03*
X75392Y-55020D03*
X75392Y-55216D03*
X75392Y-55413D03*
X75392Y-55610D03*
X75392Y-55806D03*
X75392Y-56003D03*
X75392Y-56200D03*
G54D42*
X75097Y-56495D03*
X74900Y-56495D03*
X74703Y-56495D03*
X74507Y-56495D03*
X74310Y-56495D03*
X74113Y-56495D03*
X73917Y-56495D03*
X73720Y-56495D03*
X73523Y-56495D03*
X73327Y-56495D03*
X73130Y-56495D03*
X72933Y-56495D03*
G54D43*
X74015Y-55118D03*
G54D41*
X72638Y-50294D03*
X72638Y-50097D03*
X72638Y-49900D03*
X72638Y-49704D03*
X72638Y-49507D03*
X72638Y-49310D03*
X72638Y-49114D03*
X72638Y-48917D03*
X72638Y-48720D03*
X72638Y-48524D03*
X72638Y-48327D03*
X72638Y-48130D03*
G54D42*
X72933Y-47835D03*
X73130Y-47835D03*
X73327Y-47835D03*
X73523Y-47835D03*
X73720Y-47835D03*
X73917Y-47835D03*
X74113Y-47835D03*
X74310Y-47835D03*
X74507Y-47835D03*
X74703Y-47835D03*
X74900Y-47835D03*
X75097Y-47835D03*
G54D41*
X75392Y-48130D03*
X75392Y-48327D03*
X75392Y-48524D03*
X75392Y-48720D03*
X75392Y-48917D03*
X75392Y-49114D03*
X75392Y-49310D03*
X75392Y-49507D03*
X75392Y-49704D03*
X75392Y-49900D03*
X75392Y-50097D03*
X75392Y-50294D03*
G54D42*
X75097Y-50589D03*
X74900Y-50589D03*
X74703Y-50589D03*
X74507Y-50589D03*
X74310Y-50589D03*
X74113Y-50589D03*
X73917Y-50589D03*
X73720Y-50589D03*
X73523Y-50589D03*
X73327Y-50589D03*
X73130Y-50589D03*
X72933Y-50589D03*
G54D43*
X74015Y-49212D03*
G54D41*
X75392Y-32382D03*
X75392Y-32579D03*
X75392Y-32776D03*
X75392Y-32972D03*
X75392Y-33169D03*
X75392Y-33366D03*
X75392Y-33562D03*
X75392Y-33759D03*
X75392Y-33956D03*
X75392Y-34152D03*
X75392Y-34349D03*
X75392Y-34546D03*
G54D42*
X75097Y-34841D03*
X74900Y-34841D03*
X74703Y-34841D03*
X74507Y-34841D03*
X74310Y-34841D03*
X74113Y-34841D03*
X73917Y-34841D03*
X73720Y-34841D03*
X73523Y-34841D03*
X73327Y-34841D03*
X73130Y-34841D03*
X72933Y-34841D03*
G54D41*
X72638Y-34546D03*
X72638Y-34349D03*
X72638Y-34152D03*
X72638Y-33956D03*
X72638Y-33759D03*
X72638Y-33562D03*
X72638Y-33366D03*
X72638Y-33169D03*
X72638Y-32972D03*
X72638Y-32776D03*
X72638Y-32579D03*
X72638Y-32382D03*
G54D42*
X72933Y-32087D03*
X73130Y-32087D03*
X73327Y-32087D03*
X73523Y-32087D03*
X73720Y-32087D03*
X73917Y-32087D03*
X74113Y-32087D03*
X74310Y-32087D03*
X74507Y-32087D03*
X74703Y-32087D03*
X74900Y-32087D03*
X75097Y-32087D03*
G54D43*
X74015Y-33464D03*
G54D41*
X75392Y-26477D03*
X75392Y-26674D03*
X75392Y-26871D03*
X75392Y-27067D03*
X75392Y-27264D03*
X75392Y-27461D03*
X75392Y-27657D03*
X75392Y-27854D03*
X75392Y-28051D03*
X75392Y-28247D03*
X75392Y-28444D03*
X75392Y-28641D03*
G54D42*
X75097Y-28936D03*
X74900Y-28936D03*
X74703Y-28936D03*
X74507Y-28936D03*
X74310Y-28936D03*
X74113Y-28936D03*
X73917Y-28936D03*
X73720Y-28936D03*
X73523Y-28936D03*
X73327Y-28936D03*
X73130Y-28936D03*
X72933Y-28936D03*
G54D41*
X72638Y-28641D03*
X72638Y-28444D03*
X72638Y-28247D03*
X72638Y-28051D03*
X72638Y-27854D03*
X72638Y-27657D03*
X72638Y-27461D03*
X72638Y-27264D03*
X72638Y-27067D03*
X72638Y-26871D03*
X72638Y-26674D03*
X72638Y-26477D03*
G54D42*
X72933Y-26182D03*
X73130Y-26182D03*
X73327Y-26182D03*
X73523Y-26182D03*
X73720Y-26182D03*
X73917Y-26182D03*
X74113Y-26182D03*
X74310Y-26182D03*
X74507Y-26182D03*
X74703Y-26182D03*
X74900Y-26182D03*
X75097Y-26182D03*
G54D43*
X74015Y-27559D03*
G54D41*
X68306Y-26477D03*
X68306Y-26674D03*
X68306Y-26871D03*
X68306Y-27067D03*
X68306Y-27264D03*
X68306Y-27461D03*
X68306Y-27657D03*
X68306Y-27854D03*
X68306Y-28051D03*
X68306Y-28247D03*
X68306Y-28444D03*
X68306Y-28641D03*
G54D42*
X68011Y-28936D03*
X67814Y-28936D03*
X67617Y-28936D03*
X67421Y-28936D03*
X67224Y-28936D03*
X67027Y-28936D03*
X66831Y-28936D03*
X66634Y-28936D03*
X66437Y-28936D03*
X66241Y-28936D03*
X66044Y-28936D03*
X65847Y-28936D03*
G54D41*
X65552Y-28641D03*
X65552Y-28444D03*
X65552Y-28247D03*
X65552Y-28051D03*
X65552Y-27854D03*
X65552Y-27657D03*
X65552Y-27461D03*
X65552Y-27264D03*
X65552Y-27067D03*
X65552Y-26871D03*
X65552Y-26674D03*
X65552Y-26477D03*
G54D42*
X65847Y-26182D03*
X66044Y-26182D03*
X66241Y-26182D03*
X66437Y-26182D03*
X66634Y-26182D03*
X66831Y-26182D03*
X67027Y-26182D03*
X67224Y-26182D03*
X67421Y-26182D03*
X67617Y-26182D03*
X67814Y-26182D03*
X68011Y-26182D03*
G54D43*
X66929Y-27559D03*
G54D41*
X68306Y-32382D03*
X68306Y-32579D03*
X68306Y-32776D03*
X68306Y-32972D03*
X68306Y-33169D03*
X68306Y-33366D03*
X68306Y-33562D03*
X68306Y-33759D03*
X68306Y-33956D03*
X68306Y-34152D03*
X68306Y-34349D03*
X68306Y-34546D03*
G54D42*
X68011Y-34841D03*
X67814Y-34841D03*
X67617Y-34841D03*
X67421Y-34841D03*
X67224Y-34841D03*
X67027Y-34841D03*
X66831Y-34841D03*
X66634Y-34841D03*
X66437Y-34841D03*
X66241Y-34841D03*
X66044Y-34841D03*
X65847Y-34841D03*
G54D41*
X65552Y-34546D03*
X65552Y-34349D03*
X65552Y-34152D03*
X65552Y-33956D03*
X65552Y-33759D03*
X65552Y-33562D03*
X65552Y-33366D03*
X65552Y-33169D03*
X65552Y-32972D03*
X65552Y-32776D03*
X65552Y-32579D03*
X65552Y-32382D03*
G54D42*
X65847Y-32087D03*
X66044Y-32087D03*
X66241Y-32087D03*
X66437Y-32087D03*
X66634Y-32087D03*
X66831Y-32087D03*
X67027Y-32087D03*
X67224Y-32087D03*
X67421Y-32087D03*
X67617Y-32087D03*
X67814Y-32087D03*
X68011Y-32087D03*
G54D43*
X66929Y-33464D03*
G54D44*
X65214Y-41015D03*
X65017Y-41015D03*
X64821Y-41015D03*
X64624Y-41015D03*
G54D45*
X64349Y-41290D03*
X64349Y-41487D03*
X64349Y-41683D03*
X64349Y-41880D03*
G54D44*
X64624Y-42155D03*
X64821Y-42155D03*
X65017Y-42155D03*
X65214Y-42155D03*
G54D45*
X65489Y-41880D03*
X65489Y-41683D03*
X65489Y-41487D03*
X65489Y-41290D03*
G54D46*
X64919Y-41585D03*
G54D47*
X65441Y-41585D03*
G54D48*
X58917Y-35816D03*
X59173Y-35816D03*
X59429Y-35816D03*
X59685Y-35816D03*
X59940Y-35816D03*
X60196Y-35816D03*
X60452Y-35816D03*
G54D49*
X60649Y-35501D03*
X60649Y-35245D03*
X60649Y-34989D03*
X58721Y-35501D03*
X58721Y-35245D03*
X58721Y-34989D03*
G54D50*
X60472Y-34123D03*
G54D51*
X59773Y-34192D03*
G54D52*
X59005Y-34123D03*
G54D53*
X59665Y-35245D03*
G54D54*
X58700Y-33710D03*
X58700Y-34123D03*
X58700Y-34536D03*
X60669Y-33710D03*
X60669Y-34123D03*
X60659Y-34536D03*
G54D55*
X59773Y-33483D03*
X59438Y-33483D03*
X60108Y-33483D03*
G54D48*
X58089Y-46902D03*
X57833Y-46902D03*
X57577Y-46902D03*
X57322Y-46902D03*
X57066Y-46902D03*
X56810Y-46902D03*
X56554Y-46902D03*
G54D49*
X56358Y-47218D03*
X56358Y-47474D03*
X56358Y-47730D03*
X58286Y-47218D03*
X58286Y-47474D03*
X58286Y-47730D03*
G54D50*
X56534Y-48595D03*
G54D51*
X57233Y-48526D03*
G54D52*
X58001Y-48595D03*
G54D53*
X57341Y-47473D03*
G54D54*
X58306Y-49008D03*
X58306Y-48595D03*
X58306Y-48182D03*
X56337Y-49008D03*
X56337Y-48595D03*
X56347Y-48182D03*
G54D55*
X57233Y-49235D03*
X57568Y-49235D03*
X56898Y-49235D03*
G54D40*
X40285Y-53011D03*
X39281Y-53011D03*
X39281Y-50925D03*
X40285Y-50925D03*
G54D27*
X40748Y-23622D03*
X40748Y-59055D03*
X46062Y-52165D03*
X70472Y-52165D03*
X76181Y-59055D03*
X76181Y-23622D03*
X70472Y-30511D03*
G54D56*
X70944Y-44545D03*
X71200Y-43820D03*
X71456Y-44545D03*
X71200Y-44545D03*
X71456Y-43820D03*
X70944Y-43820D03*
G54D57*
X44252Y-43267D03*
X44252Y-41614D03*
X44252Y-39961D03*
X45904Y-39961D03*
X45904Y-41614D03*
X45904Y-43267D03*
G54D58*
X41378Y-43267D03*
X41378Y-39961D03*
G54D59*
X74025Y-41496D03*
X74025Y-41850D03*
X74025Y-40807D03*
X74025Y-41161D03*
X74035Y-42401D03*
X74035Y-42755D03*
X74025Y-40118D03*
X74025Y-40472D03*
G54D60*
X58263Y-22542D03*
G54D61*
X58361Y-23133D03*
G54D60*
X58263Y-23724D03*
G54D62*
X59248Y-23133D03*
G54D60*
X58188Y-60177D03*
G54D61*
X58090Y-59586D03*
G54D60*
X58188Y-58995D03*
G54D62*
X57204Y-59586D03*
G54D63*
X69291Y-44685D03*
X68661Y-44685D03*
G54D64*
X68877Y-44685D03*
X69074Y-44685D03*
X69074Y-43602D03*
X68877Y-43602D03*
G54D63*
X68661Y-43602D03*
X69291Y-43602D03*
G54D65*
X72883Y-43740D03*
X72883Y-44488D03*
X73750Y-44104D03*
G54D66*
X69616Y-42352D03*
X69616Y-42942D03*
X76407Y-35275D03*
X76998Y-35275D03*
G54D67*
X74596Y-45600D03*
X74596Y-44458D03*
G54D68*
X57290Y-31123D03*
G54D69*
X60696Y-32205D03*
X60696Y-30040D03*
G54D68*
X59838Y-51588D03*
G54D69*
X56432Y-50505D03*
X56432Y-52670D03*
G54D70*
X66525Y-41840D03*
X66525Y-41131D03*
G54D71*
X44074Y-23740D03*
X43444Y-23740D03*
X50068Y-23494D03*
X49438Y-23494D03*
G54D47*
X48139Y-29881D03*
X48139Y-30511D03*
X41023Y-29862D03*
X41023Y-30492D03*
X44015Y-52431D03*
X44015Y-51801D03*
X47746Y-53307D03*
X47746Y-52677D03*
G54D71*
X45127Y-59261D03*
X44498Y-59261D03*
X51259Y-59320D03*
X50629Y-59320D03*
X65078Y-59301D03*
X65708Y-59301D03*
X73011Y-59360D03*
X73641Y-59360D03*
G54D47*
X68366Y-52844D03*
X68366Y-52214D03*
X75324Y-52874D03*
X75324Y-52244D03*
X68681Y-29645D03*
X68681Y-30275D03*
X72559Y-29862D03*
X72559Y-30492D03*
G54D71*
X65285Y-23307D03*
X65915Y-23307D03*
X73238Y-23661D03*
X73868Y-23661D03*
G54D72*
X50515Y-43141D03*
X50515Y-39992D03*
X54736Y-43141D03*
X54736Y-39992D03*
G54D73*
X59409Y-49015D03*
X59409Y-48385D03*
X57559Y-34370D03*
X57559Y-33740D03*
G54D74*
X53740Y-35984D03*
X54370Y-35984D03*
X57539Y-23716D03*
X56909Y-23716D03*
X57539Y-23157D03*
X56909Y-23157D03*
X58897Y-58996D03*
X59527Y-58996D03*
X58897Y-59586D03*
X59527Y-59586D03*
X66122Y-39173D03*
X65492Y-39173D03*
X66122Y-39783D03*
X65492Y-39783D03*
X64842Y-43011D03*
X65472Y-43011D03*
X58204Y-45159D03*
X58833Y-45159D03*
X57644Y-45151D03*
X57015Y-45151D03*
G54D73*
X54114Y-46929D03*
X54114Y-46299D03*
X62500Y-52293D03*
X62500Y-51663D03*
G54D74*
X59118Y-46985D03*
X59747Y-46985D03*
X62559Y-46732D03*
X63188Y-46732D03*
X58507Y-46103D03*
X59136Y-46103D03*
G54D73*
X55645Y-48017D03*
X55645Y-48646D03*
G54D74*
X58936Y-37375D03*
X58307Y-37375D03*
X59511Y-37422D03*
X60140Y-37422D03*
G54D73*
X63031Y-35511D03*
X63031Y-36141D03*
X54606Y-30354D03*
X54606Y-30984D03*
G54D74*
X58038Y-35635D03*
X57409Y-35635D03*
X58573Y-36548D03*
X57944Y-36548D03*
G54D73*
X61464Y-34713D03*
X61464Y-34084D03*
G54D35*
X63996Y-39881D03*
X64822Y-39881D03*
X63996Y-39074D03*
X64822Y-39074D03*
X60157Y-48287D03*
X60157Y-49114D03*
X60984Y-48287D03*
X60984Y-49114D03*
X61811Y-48287D03*
X61811Y-49114D03*
X62460Y-48267D03*
X63287Y-48267D03*
X62460Y-47440D03*
X63287Y-47440D03*
X56850Y-34468D03*
X56850Y-33641D03*
X56023Y-34468D03*
X56023Y-33641D03*
X55196Y-34468D03*
X55196Y-33641D03*
X54468Y-34488D03*
X53641Y-34488D03*
X54468Y-35275D03*
X53641Y-35275D03*
G54D75*
X68110Y-43818D03*
X68110Y-44409D03*
X67312Y-43818D03*
X67312Y-44409D03*
X72145Y-43799D03*
X72145Y-44389D03*
X68818Y-42942D03*
X68818Y-42352D03*
X77283Y-34704D03*
X77283Y-34114D03*
X73051Y-37185D03*
X73051Y-37775D03*
G54D76*
X75354Y-38346D03*
X75944Y-38346D03*
X74606Y-38346D03*
X74015Y-38346D03*
G54D75*
X69911Y-39468D03*
X69911Y-40059D03*
X69911Y-40669D03*
X69911Y-41259D03*
X64133Y-42775D03*
X64133Y-43366D03*
X56303Y-45477D03*
X56303Y-46068D03*
X54830Y-47154D03*
X54830Y-46563D03*
X54633Y-45540D03*
X54633Y-44949D03*
G54D76*
X57857Y-44340D03*
X58448Y-44340D03*
G54D75*
X53811Y-44945D03*
X53811Y-45536D03*
X55440Y-45540D03*
X55440Y-44949D03*
X55653Y-46815D03*
X55653Y-47406D03*
G54D76*
X60062Y-45304D03*
X60653Y-45304D03*
X59723Y-46103D03*
X60314Y-46103D03*
X57606Y-45970D03*
X57015Y-45970D03*
G54D75*
X60834Y-37095D03*
X60834Y-36504D03*
X62307Y-35516D03*
X62307Y-36107D03*
X62464Y-36914D03*
X62464Y-37505D03*
G54D76*
X59259Y-38194D03*
X58668Y-38194D03*
G54D75*
X63267Y-37509D03*
X63267Y-36918D03*
X61645Y-36945D03*
X61645Y-37536D03*
X61456Y-35902D03*
X61456Y-35311D03*
G54D76*
X57043Y-37375D03*
X56452Y-37375D03*
X57322Y-36548D03*
X56731Y-36548D03*
X59503Y-36596D03*
X60094Y-36596D03*
G54D77*
X70423Y-42450D03*
X70423Y-42844D03*
G54D78*
X71988Y-44970D03*
X72381Y-44970D03*
X69832Y-44429D03*
X70226Y-44429D03*
G54D77*
X43366Y-51722D03*
X43366Y-52116D03*
G54D78*
X49448Y-52834D03*
X49842Y-52834D03*
G54D77*
X43966Y-59045D03*
X43966Y-59438D03*
G54D78*
X49931Y-59124D03*
X49537Y-59124D03*
X68248Y-51673D03*
X67854Y-51673D03*
X75246Y-51732D03*
X74852Y-51732D03*
G54D77*
X66220Y-59370D03*
X66220Y-59763D03*
G54D78*
X73523Y-59980D03*
X73129Y-59980D03*
X73740Y-29960D03*
X74133Y-29960D03*
X67007Y-29901D03*
X66614Y-29901D03*
X73946Y-24301D03*
X74340Y-24301D03*
G54D77*
X66456Y-23297D03*
X66456Y-22903D03*
G54D78*
X49665Y-30885D03*
X49271Y-30885D03*
X42342Y-30846D03*
X42736Y-30846D03*
X49547Y-24153D03*
X49940Y-24153D03*
G54D77*
X42913Y-23740D03*
X42913Y-24133D03*
X68129Y-41259D03*
X68129Y-41653D03*
G54D78*
X71171Y-39301D03*
X71564Y-39301D03*
G54D77*
X41948Y-46948D03*
X41948Y-46555D03*
X40797Y-50846D03*
X40797Y-51240D03*
G54D78*
X40314Y-48622D03*
X39921Y-48622D03*
X43208Y-52785D03*
X42814Y-52785D03*
X44842Y-48622D03*
X45236Y-48622D03*
X44842Y-50295D03*
X45236Y-50295D03*
G54D77*
X42834Y-51732D03*
X42834Y-52125D03*
X42263Y-51732D03*
X42263Y-52125D03*
X39970Y-49537D03*
X39970Y-49931D03*
G54D78*
X40314Y-48129D03*
X39921Y-48129D03*
X44842Y-48129D03*
X45236Y-48129D03*
X51919Y-50403D03*
X52312Y-50403D03*
X47362Y-48622D03*
X46968Y-48622D03*
G54D77*
X48405Y-51919D03*
X48405Y-52312D03*
X49350Y-46948D03*
X49350Y-46555D03*
G54D78*
X52027Y-48622D03*
X52421Y-48622D03*
G54D77*
X47598Y-50177D03*
X47598Y-50570D03*
X49881Y-51909D03*
X49881Y-52303D03*
X49389Y-51909D03*
X49389Y-52303D03*
X47106Y-49763D03*
X47106Y-50157D03*
G54D78*
X47362Y-48129D03*
X46968Y-48129D03*
X52027Y-48129D03*
X52421Y-48129D03*
G54D77*
X42283Y-57273D03*
X42283Y-57667D03*
X39940Y-56988D03*
X39940Y-56594D03*
X39940Y-55000D03*
X39940Y-54606D03*
X41771Y-52637D03*
X41771Y-52244D03*
G54D78*
X44124Y-53080D03*
X44517Y-53080D03*
G54D77*
X43287Y-46948D03*
X43287Y-46555D03*
X45098Y-56732D03*
X45098Y-56338D03*
X45098Y-55413D03*
X45098Y-55807D03*
X39940Y-55669D03*
X39940Y-56062D03*
X40433Y-54094D03*
X40433Y-54488D03*
X44622Y-53976D03*
X44622Y-53582D03*
G54D78*
X52037Y-56013D03*
X52431Y-56013D03*
G54D77*
X47086Y-56988D03*
X47086Y-56594D03*
X47086Y-55000D03*
X47086Y-54606D03*
X50374Y-52814D03*
X50374Y-52421D03*
X52125Y-53070D03*
X52125Y-53464D03*
X47578Y-56082D03*
X47578Y-56476D03*
X48897Y-52814D03*
X48897Y-52421D03*
X48887Y-58553D03*
X48887Y-58946D03*
X47086Y-55669D03*
X47086Y-56062D03*
X47578Y-54094D03*
X47578Y-54488D03*
X51633Y-53976D03*
X51633Y-53582D03*
X67736Y-52736D03*
X67736Y-52342D03*
G54D78*
X64350Y-48720D03*
X63956Y-48720D03*
G54D77*
X67775Y-46948D03*
X67775Y-46555D03*
X66397Y-46948D03*
X66397Y-46555D03*
G54D78*
X69251Y-48622D03*
X69645Y-48622D03*
G54D77*
X64901Y-51082D03*
X64901Y-50688D03*
X67263Y-51830D03*
X67263Y-52224D03*
X66673Y-51830D03*
X66673Y-52224D03*
X64901Y-49763D03*
X64901Y-50157D03*
X65078Y-48070D03*
X65078Y-47677D03*
G54D78*
X69251Y-48129D03*
X69645Y-48129D03*
G54D77*
X74704Y-52755D03*
X74704Y-52362D03*
X74547Y-46929D03*
X74547Y-46535D03*
G54D78*
X71850Y-48622D03*
X71456Y-48622D03*
G54D77*
X73405Y-46929D03*
X73405Y-46535D03*
G54D78*
X76181Y-48622D03*
X76574Y-48622D03*
X72234Y-50669D03*
X71840Y-50669D03*
G54D77*
X74212Y-51850D03*
X74212Y-52244D03*
X73700Y-51850D03*
X73700Y-52244D03*
X71811Y-49763D03*
X71811Y-50157D03*
G54D78*
X71850Y-48129D03*
X71456Y-48129D03*
X76181Y-48110D03*
X76574Y-48110D03*
X69163Y-56505D03*
X69557Y-56505D03*
X64350Y-49212D03*
X63956Y-49212D03*
X64744Y-54527D03*
X64350Y-54527D03*
G54D77*
X66181Y-52736D03*
X66181Y-52342D03*
G54D78*
X69330Y-54527D03*
X69724Y-54527D03*
G54D77*
X64763Y-56988D03*
X64763Y-56594D03*
G54D78*
X69143Y-50442D03*
X69537Y-50442D03*
G54D77*
X66649Y-57334D03*
X66649Y-57728D03*
X64763Y-55669D03*
X64763Y-56062D03*
G54D78*
X64744Y-54035D03*
X64350Y-54035D03*
X69330Y-54035D03*
X69724Y-54035D03*
G54D77*
X73610Y-57350D03*
X73610Y-57744D03*
X76417Y-56968D03*
X76417Y-56574D03*
G54D78*
X71830Y-54527D03*
X71437Y-54527D03*
G54D77*
X73208Y-52755D03*
X73208Y-52362D03*
G54D78*
X76338Y-54527D03*
X76732Y-54527D03*
G54D77*
X71830Y-56988D03*
X71830Y-56594D03*
X76417Y-55629D03*
X76417Y-56023D03*
G54D78*
X76181Y-49881D03*
X76574Y-49881D03*
G54D77*
X71830Y-55669D03*
X71830Y-56062D03*
G54D78*
X71830Y-54035D03*
X71437Y-54035D03*
X76338Y-54035D03*
X76732Y-54035D03*
G54D77*
X73188Y-35669D03*
X73188Y-36062D03*
G54D78*
X76338Y-34281D03*
X76732Y-34281D03*
G54D77*
X67263Y-35673D03*
X67263Y-36066D03*
X74397Y-35653D03*
X74397Y-36047D03*
G54D78*
X71653Y-34055D03*
X71259Y-34055D03*
G54D77*
X73661Y-30885D03*
X73661Y-30492D03*
X74173Y-30885D03*
X74173Y-30492D03*
G54D78*
X75728Y-32007D03*
X76122Y-32007D03*
G54D77*
X76141Y-32893D03*
X76141Y-32500D03*
G54D78*
X76338Y-34763D03*
X76732Y-34763D03*
X71653Y-34547D03*
X71259Y-34547D03*
X69192Y-34074D03*
X69586Y-34074D03*
X64842Y-32047D03*
X64448Y-32047D03*
G54D77*
X66043Y-29901D03*
X66043Y-30295D03*
G54D78*
X68996Y-32007D03*
X69389Y-32007D03*
X64685Y-35039D03*
X64291Y-35039D03*
G54D77*
X66122Y-35669D03*
X66122Y-36062D03*
X67086Y-30807D03*
X67086Y-30413D03*
X66535Y-30807D03*
X66535Y-30413D03*
X69448Y-32913D03*
X69448Y-32519D03*
G54D78*
X69192Y-34547D03*
X69586Y-34547D03*
X64685Y-34547D03*
X64291Y-34547D03*
G54D77*
X71456Y-26653D03*
X71456Y-26259D03*
X76181Y-25688D03*
X76181Y-26082D03*
G54D78*
X76240Y-28149D03*
X76633Y-28149D03*
G54D77*
X74665Y-29980D03*
X74665Y-30374D03*
G54D78*
X71712Y-28149D03*
X71318Y-28149D03*
G54D77*
X71456Y-25334D03*
X71456Y-25728D03*
X73169Y-29980D03*
X73169Y-30374D03*
X74551Y-25370D03*
X74551Y-24976D03*
X76181Y-27007D03*
X76181Y-26614D03*
G54D78*
X76240Y-28641D03*
X76633Y-28641D03*
X71712Y-28641D03*
X71318Y-28641D03*
G54D77*
X64468Y-25255D03*
X64468Y-25649D03*
G54D78*
X69133Y-28169D03*
X69527Y-28169D03*
G54D77*
X69409Y-25590D03*
X69409Y-25984D03*
X67578Y-29901D03*
X67578Y-30295D03*
G54D78*
X71860Y-32312D03*
X71466Y-32312D03*
X64625Y-29133D03*
X64232Y-29133D03*
G54D77*
X64468Y-26574D03*
X64468Y-26181D03*
X67519Y-25255D03*
X67519Y-24862D03*
X69389Y-27007D03*
X69389Y-26614D03*
G54D78*
X69133Y-28641D03*
X69527Y-28641D03*
X64625Y-28641D03*
X64232Y-28641D03*
G54D77*
X47125Y-32893D03*
X47125Y-32500D03*
X50177Y-30885D03*
X50177Y-30492D03*
X48740Y-30885D03*
X48740Y-30492D03*
X52086Y-33582D03*
X52086Y-33976D03*
X49192Y-29980D03*
X49192Y-30374D03*
X48799Y-35748D03*
X48799Y-36141D03*
G54D78*
X47401Y-35019D03*
X47007Y-35019D03*
G54D77*
X51535Y-31594D03*
X51535Y-31988D03*
X51535Y-32913D03*
X51535Y-32519D03*
X51594Y-34488D03*
X51594Y-34094D03*
G54D78*
X47401Y-34527D03*
X47007Y-34527D03*
G54D77*
X43208Y-35748D03*
X43208Y-36141D03*
X43259Y-30842D03*
X43259Y-30448D03*
X41653Y-30846D03*
X41653Y-30452D03*
G54D78*
X44744Y-34055D03*
X45137Y-34055D03*
G54D77*
X41771Y-35748D03*
X41771Y-36141D03*
G54D78*
X40275Y-34055D03*
X39881Y-34055D03*
X44645Y-31988D03*
X45039Y-31988D03*
X40127Y-32234D03*
X39734Y-32234D03*
G54D77*
X45059Y-32893D03*
X45059Y-32500D03*
G54D78*
X40275Y-34547D03*
X39881Y-34547D03*
X44744Y-34547D03*
X45137Y-34547D03*
G54D77*
X50137Y-25188D03*
X50137Y-24795D03*
X47106Y-27244D03*
X47106Y-26850D03*
X52224Y-25590D03*
X52224Y-25984D03*
X50149Y-35748D03*
X50149Y-36141D03*
G54D78*
X51771Y-28149D03*
X52165Y-28149D03*
G54D77*
X49685Y-29980D03*
X49685Y-30374D03*
X47106Y-25925D03*
X47106Y-26318D03*
G54D78*
X47421Y-28149D03*
X47027Y-28149D03*
G54D77*
X52204Y-27007D03*
X52204Y-26614D03*
G54D78*
X47421Y-28641D03*
X47027Y-28641D03*
X51771Y-28641D03*
X52165Y-28641D03*
G54D77*
X40039Y-26988D03*
X40039Y-26594D03*
X42145Y-29940D03*
X42145Y-30334D03*
X42775Y-29940D03*
X42775Y-30334D03*
G54D78*
X44763Y-28169D03*
X45157Y-28169D03*
G54D77*
X45137Y-25590D03*
X45137Y-25984D03*
G54D78*
X40255Y-28149D03*
X39862Y-28149D03*
G54D77*
X45137Y-27007D03*
X45137Y-26614D03*
G54D78*
X44763Y-28641D03*
X45157Y-28641D03*
G54D77*
X40039Y-25669D03*
X40039Y-26062D03*
X42905Y-25251D03*
X42905Y-24858D03*
G54D78*
X40255Y-28641D03*
X39862Y-28641D03*
G54D79*
X45629Y-27007D03*
X45629Y-26614D03*
X45551Y-32893D03*
X45551Y-32500D03*
X52027Y-32401D03*
X52027Y-32007D03*
X52696Y-27007D03*
X52696Y-26614D03*
X46614Y-49763D03*
X46614Y-50157D03*
X46594Y-55669D03*
X46594Y-56062D03*
X39448Y-55669D03*
X39448Y-56062D03*
X39478Y-49537D03*
X39478Y-49931D03*
G54D80*
X70216Y-43897D03*
X69822Y-43897D03*
G54D79*
X76673Y-27007D03*
X76673Y-26614D03*
G54D80*
X76692Y-32952D03*
X77086Y-32952D03*
G54D79*
X69921Y-32913D03*
X69921Y-32519D03*
X69881Y-27007D03*
X69881Y-26614D03*
X64409Y-49763D03*
X64409Y-50157D03*
X64271Y-55669D03*
X64271Y-56062D03*
X71338Y-55669D03*
X71338Y-56062D03*
X71318Y-49763D03*
X71318Y-50157D03*
G54D81*
X39911Y-43937D03*
X39911Y-39311D03*
G54D82*
X41840Y-41131D03*
X41840Y-42116D03*
M02*
