G04 ================== begin FILE IDENTIFICATION RECORD ==================*
G04 Layout Name:  C:/USERS/GEORGE/DOCUMENTS/GITHUB/AVALON/HARDWARE/allegro/AVALON.brd*
G04 Film Name:    MASK_TOP*
G04 File Format:  Gerber RS274X*
G04 File Origin:  Cadence Allegro 16.6-P004*
G04 Origin Date:  Tue Nov 12 21:39:58 2013*
G04 *
G04 Layer:  VIA CLASS/SOLDERMASK_TOP*
G04 Layer:  PIN/SOLDERMASK_TOP*
G04 Layer:  PACKAGE GEOMETRY/SOLDERMASK_TOP*
G04 Layer:  DRC ERROR CLASS/SOLDERMASK_TOP*
G04 Layer:  BOARD GEOMETRY/SOLDERMASK_TOP*
G04 *
G04 Offset:    (0.00 0.00)*
G04 Mirror:    No*
G04 Mode:      Positive*
G04 Rotation:  0*
G04 FullContactRelief:  No*
G04 UndefLineWidth:     0.00*
G04 ================== end FILE IDENTIFICATION RECORD ====================*
%FSLAX25Y25*MOIN*%
%IR0*IPPOS*OFA0.00000B0.00000*MIA0B0*SFA1.00000B1.00000*%
%ADD17C,.022*%
%ADD11C,.044*%
%ADD33C,.05512*%
%ADD27R,.25551X.04272*%
%ADD37R,.05512X.05512*%
%ADD15R,.00984X.0315*%
%ADD16R,.0315X.00984*%
%ADD23R,.06299X.1063*%
%ADD26R,.1378X.05906*%
%ADD51R,.00787X.02362*%
%ADD25R,.15748X.05906*%
%ADD41R,.00787X.02953*%
%ADD19R,.12598X.07185*%
%ADD48R,.16437X.06496*%
%ADD43R,.02953X.00787*%
%ADD31R,.022X.025*%
%ADD38R,.025X.022*%
%ADD40R,.016X.06*%
%ADD14R,.2126X.2126*%
%ADD53R,.0311X.02854*%
%ADD39R,.04134X.05512*%
%ADD49R,.05512X.04134*%
%ADD29R,.20079X.12622*%
%ADD28R,.1811X.14961*%
%ADD30R,.01772X.04232*%
%ADD50R,.01575X.04035*%
%ADD36R,.03543X.03543*%
%ADD18R,.0315X.03937*%
%ADD45R,.01772X.05433*%
%ADD34R,.03937X.0315*%
%ADD22C,.12992*%
%ADD42R,.1378X.1378*%
%ADD47R,.0935X.0748*%
%ADD20R,.03543X.07185*%
%ADD10R,.0374X.03937*%
%ADD46R,.04626X.0748*%
%ADD13R,.03937X.0374*%
%ADD21R,.06693X.02362*%
%ADD35R,.02362X.07874*%
%ADD32R,.05906X.05906*%
%ADD24R,.04528X.07087*%
%ADD52R,.06693X.01772*%
%ADD12R,.07087X.04528*%
%ADD44R,.05807X.08268*%
%LPD*%
G75*
G54D10*
X523850Y1409000D03*
X530150D03*
X524550Y1417200D03*
X530850D03*
X523850Y1425000D03*
X530150D03*
X526850Y1438300D03*
X533150D03*
X522450Y1488200D03*
X528750D03*
X521850Y1480000D03*
X528150D03*
X521850Y1496000D03*
X528150D03*
X524850Y1509300D03*
X531150D03*
X521850Y1556000D03*
X528150D03*
X521850Y1565700D03*
X528150D03*
X521850Y1572000D03*
X528150D03*
X524850Y1585300D03*
X531150D03*
X546150Y1451000D03*
X539850D03*
X544150Y1522000D03*
X537850D03*
X544150Y1598000D03*
X537850D03*
X576150Y1408000D03*
X569850D03*
X576150Y1424000D03*
X569850D03*
X576150Y1417000D03*
X569850D03*
X569150Y1439000D03*
X562850D03*
X574150Y1488000D03*
X567850D03*
X574150Y1495000D03*
X567850D03*
X574150Y1479000D03*
X567850D03*
X567150Y1510000D03*
X560850D03*
X574150Y1555000D03*
X567850D03*
X574150Y1564000D03*
X567850D03*
X574150Y1571000D03*
X567850D03*
X567150Y1586000D03*
X560850D03*
X600850Y1407000D03*
X607150D03*
X600850Y1416900D03*
X607150D03*
X600850Y1423000D03*
X607150D03*
X603850Y1436300D03*
X610150D03*
X616850Y1449000D03*
X601850Y1489800D03*
X608150D03*
X601850Y1496000D03*
X608150D03*
X601850Y1480000D03*
X608150D03*
X604850Y1509300D03*
X611150D03*
X623150Y1449000D03*
X624150Y1522000D03*
X617850D03*
X653150Y1415000D03*
X646850D03*
X653150Y1406000D03*
X646850D03*
X646150Y1437000D03*
X639850D03*
X653150Y1422000D03*
X646850D03*
X654150Y1495000D03*
X647850D03*
X654150Y1488000D03*
X647850D03*
X654150Y1479000D03*
X647850D03*
X647150Y1510000D03*
X640850D03*
X693150Y1614000D03*
X686850D03*
X697850Y1682900D03*
X707850Y1408000D03*
X714150D03*
X707750Y1417100D03*
X714050D03*
X707850Y1424000D03*
X714150D03*
X710850Y1437300D03*
X717150D03*
X708850Y1489600D03*
X715150D03*
X708850Y1496000D03*
X715150D03*
X708850Y1480000D03*
X715150D03*
X711850Y1509300D03*
X718150D03*
X717850Y1556000D03*
X711150Y1570000D03*
X704850D03*
X704150Y1682900D03*
X714850Y1666000D03*
X730150Y1450000D03*
X723850D03*
X731150Y1522000D03*
X724850D03*
X724150Y1556000D03*
X722850Y1563000D03*
X729150D03*
X721150Y1666000D03*
X735850Y1679000D03*
X760150Y1407000D03*
X753850D03*
X760150Y1416000D03*
X753850D03*
X760150Y1423000D03*
X753850D03*
X753150Y1438000D03*
X746850D03*
X754850Y1479000D03*
Y1488000D03*
Y1495000D03*
X754150Y1510000D03*
X747850D03*
X742150Y1679000D03*
X761150Y1479000D03*
Y1488000D03*
Y1495000D03*
X781150Y1562300D03*
X775850Y1680000D03*
X784850Y1409000D03*
X791150D03*
X784650Y1418000D03*
X790950D03*
X784850Y1425000D03*
X791150D03*
X787850Y1438300D03*
X794150D03*
X800850Y1451000D03*
X786350Y1489200D03*
X792650D03*
X785850Y1480000D03*
X792150D03*
X785850Y1496000D03*
X792150D03*
X788850Y1509300D03*
X795150D03*
X784850Y1556000D03*
X791150D03*
X787450Y1562300D03*
X784850Y1572000D03*
X791150D03*
X787850Y1585300D03*
X794150D03*
X800850Y1598000D03*
X782150Y1680000D03*
X807150Y1451000D03*
X808150Y1522000D03*
X801850D03*
X807150Y1598000D03*
X837150Y1408000D03*
X830850D03*
X837150Y1424000D03*
X830850D03*
X837150Y1417000D03*
X830850D03*
X830150Y1439000D03*
X823850D03*
X838150Y1479000D03*
X831850D03*
X838150Y1495000D03*
X831850D03*
X838150Y1488000D03*
X831850D03*
X831150Y1510000D03*
X824850D03*
X837150Y1555000D03*
X830850D03*
X837150Y1564000D03*
X830850D03*
X837150Y1571000D03*
X830850D03*
X830150Y1586000D03*
X823850D03*
G54D20*
X539945Y1672862D03*
X549000D03*
X558055D03*
G54D11*
X523850Y1409000D03*
X532000Y1413000D03*
X523850Y1425000D03*
X528000Y1431000D03*
X531000Y1434000D03*
X526850Y1438300D03*
X521850Y1496000D03*
Y1480000D03*
X529000Y1484000D03*
X524850Y1509300D03*
X526600Y1502000D03*
X530000Y1505000D03*
X521850Y1556000D03*
Y1572000D03*
X529079Y1561079D03*
X528000Y1577000D03*
X523000Y1579000D03*
X524850Y1585300D03*
X531000Y1655000D03*
X551000Y1392850D03*
X538000D03*
X543000Y1400000D03*
X546000Y1399000D03*
X553000Y1445150D03*
X539850Y1451000D03*
X549000Y1463850D03*
X536000D03*
X541000Y1470000D03*
X544000Y1466000D03*
X551000Y1516150D03*
X537850Y1522000D03*
X549000Y1539850D03*
X536000D03*
X541000Y1544000D03*
X544000Y1542000D03*
X551000Y1592150D03*
X537850Y1598000D03*
X548000Y1690000D03*
X562000Y1392850D03*
X567000Y1401000D03*
X569300Y1433300D03*
X564900Y1434500D03*
X569000Y1439000D03*
X565000Y1472000D03*
X560000Y1463850D03*
X574150Y1495000D03*
Y1488000D03*
Y1479000D03*
X567000Y1510000D03*
X568000Y1500000D03*
X567400Y1503100D03*
X565000Y1548000D03*
X574150Y1555000D03*
X560000Y1539850D03*
X574150Y1571000D03*
Y1564000D03*
X567000Y1586000D03*
X590849Y1395086D03*
X576150Y1408000D03*
Y1424000D03*
Y1417000D03*
X580169Y1696000D03*
X595700D03*
X615000Y1390850D03*
X600849Y1395086D03*
X600850Y1407000D03*
X609079Y1412079D03*
X600850Y1423000D03*
X603850Y1436300D03*
X603300Y1429900D03*
X607000Y1432100D03*
X616850Y1449000D03*
X616000Y1463850D03*
X601850Y1496000D03*
Y1480000D03*
X609079Y1485079D03*
X604850Y1509300D03*
X607700Y1500500D03*
X607500Y1504700D03*
X628000Y1390850D03*
X621000Y1391000D03*
X623200Y1395100D03*
X620000Y1398000D03*
X630000Y1443150D03*
X629000Y1463850D03*
X621000Y1468000D03*
X624000Y1465000D03*
X631000Y1516150D03*
X617850Y1522000D03*
X639000Y1390850D03*
X644000Y1399000D03*
X653150Y1415000D03*
Y1406000D03*
Y1422000D03*
X646500Y1427100D03*
X641300Y1431800D03*
X646000Y1437000D03*
X645000Y1472000D03*
X640000Y1463850D03*
X654150Y1495000D03*
Y1488000D03*
Y1479000D03*
X647000Y1510000D03*
X648000Y1500000D03*
X642700Y1504200D03*
X652000Y1568000D03*
X671000Y1424000D03*
X668000Y1458000D03*
X677000Y1519000D03*
X673000Y1607000D03*
X658000Y1626000D03*
X670000Y1684000D03*
X697000Y1399000D03*
X683500Y1469500D03*
X691776Y1477776D03*
X682000Y1523000D03*
X678868Y1634736D03*
X681300Y1632600D03*
X693000Y1632000D03*
X698000Y1627000D03*
X687000Y1628000D03*
X693000Y1659000D03*
X684530Y1648452D03*
X697000Y1663000D03*
X691000Y1685000D03*
X707850Y1408000D03*
X716079Y1413079D03*
X707850Y1424000D03*
X714300Y1429200D03*
X716900Y1431500D03*
X710850Y1437300D03*
X708850Y1496000D03*
Y1480000D03*
X717079Y1485079D03*
X711850Y1509300D03*
X713300Y1501300D03*
X715800Y1504100D03*
X699000Y1563000D03*
X710000Y1570000D03*
Y1563000D03*
X711000Y1599000D03*
X699000Y1611000D03*
X703000Y1610000D03*
X705000Y1622048D03*
X699000Y1635000D03*
X709000Y1635621D03*
X717000Y1677000D03*
X712000Y1675000D03*
X735000Y1391850D03*
X722000D03*
X728000Y1391000D03*
X727000Y1398000D03*
X730000Y1397000D03*
X737000Y1444150D03*
X723850Y1450000D03*
X736000Y1463850D03*
X723000D03*
X728000Y1468000D03*
X731000Y1470000D03*
X738000Y1516150D03*
X724850Y1522000D03*
X720000Y1570000D03*
Y1563000D03*
X721000Y1587000D03*
X725000Y1590000D03*
X728890Y1598890D03*
Y1585000D03*
X731000Y1582000D03*
X726297Y1639406D03*
X739654Y1633654D03*
X725000Y1642000D03*
X732000Y1649000D03*
X719751Y1661000D03*
X728000Y1672000D03*
X725000Y1676000D03*
X725100Y1668400D03*
X746000Y1391850D03*
X751000Y1400000D03*
X760150Y1416000D03*
Y1407000D03*
Y1423000D03*
X753800Y1429400D03*
X753500Y1433000D03*
X753000Y1438000D03*
X752000Y1472000D03*
X747000Y1463850D03*
X754000Y1510000D03*
X755804Y1501098D03*
X754400Y1504500D03*
X750000Y1638000D03*
Y1661000D03*
Y1656000D03*
X752500Y1646000D03*
X742800D03*
X760000Y1669000D03*
X755000Y1668000D03*
X761150Y1495000D03*
Y1488000D03*
Y1479000D03*
X767000Y1637000D03*
X778000Y1646000D03*
X799000Y1392850D03*
X784850Y1409000D03*
X793079Y1414079D03*
X784850Y1425000D03*
X790100Y1430700D03*
X793000Y1434000D03*
X800850Y1451000D03*
X787850Y1438300D03*
X800000Y1463850D03*
X785850Y1496000D03*
Y1480000D03*
X793079Y1485079D03*
X788850Y1509300D03*
X791800Y1500300D03*
X791600Y1504000D03*
X784850Y1556000D03*
X799000Y1539850D03*
X784850Y1572000D03*
X790700Y1578900D03*
X788700Y1576200D03*
X793079Y1561079D03*
X800850Y1598000D03*
X787850Y1585300D03*
X786989Y1637385D03*
X783000Y1630000D03*
X786000Y1621000D03*
Y1626000D03*
X781000Y1643000D03*
X791000Y1678000D03*
X812000Y1392850D03*
X804000Y1392000D03*
Y1399000D03*
X807000Y1397000D03*
X814000Y1445150D03*
X813000Y1463850D03*
X805000Y1469000D03*
X809000Y1468000D03*
X815000Y1516150D03*
X801850Y1522000D03*
X812000Y1539850D03*
X804000Y1547000D03*
X807000Y1545000D03*
X814000Y1592150D03*
X813000Y1618000D03*
X806000Y1683000D03*
X823000Y1392850D03*
X828000Y1401000D03*
X837150Y1408000D03*
Y1424000D03*
Y1417000D03*
X831000Y1429000D03*
X825100Y1432700D03*
X830000Y1439000D03*
X829000Y1472000D03*
X824000Y1463850D03*
X838150Y1495000D03*
Y1488000D03*
Y1479000D03*
X831000Y1510000D03*
X832000Y1501000D03*
X826500Y1504200D03*
X828000Y1548000D03*
X837150Y1555000D03*
X823000Y1539850D03*
X837150Y1571000D03*
Y1564000D03*
X832000Y1577000D03*
X830000Y1586000D03*
X830700Y1580300D03*
X828000Y1636000D03*
Y1621000D03*
Y1639000D03*
Y1631000D03*
Y1626000D03*
G54D12*
X534344Y1638402D03*
Y1626590D03*
X552456Y1638402D03*
Y1626590D03*
X543400Y1638402D03*
Y1626590D03*
X561512Y1638402D03*
Y1626590D03*
X570568Y1638402D03*
Y1626590D03*
G54D21*
X538665Y1681500D03*
Y1686500D03*
Y1691500D03*
Y1696500D03*
X559335D03*
Y1691500D03*
Y1686500D03*
Y1681500D03*
G54D30*
X633500Y1626846D03*
Y1649154D03*
X648500Y1626846D03*
X643500D03*
X638500D03*
Y1649154D03*
X643500D03*
X648500D03*
G54D13*
X525000Y1674150D03*
Y1667850D03*
X531000Y1674150D03*
Y1667850D03*
X524000Y1689850D03*
Y1696150D03*
X531000Y1689850D03*
Y1696150D03*
X551000Y1392850D03*
X538000D03*
X551000Y1399150D03*
X538000D03*
X553000Y1445150D03*
Y1438850D03*
X549000Y1463850D03*
Y1470150D03*
X536000Y1463850D03*
Y1470150D03*
X551000Y1516150D03*
Y1509850D03*
X549000Y1539850D03*
Y1546150D03*
X536000Y1539850D03*
Y1546150D03*
X551000Y1592150D03*
Y1585850D03*
X562000Y1392850D03*
Y1399150D03*
X560000Y1463850D03*
Y1470150D03*
Y1539850D03*
Y1546150D03*
X567000Y1676850D03*
X574000D03*
Y1689850D03*
Y1696150D03*
X567000Y1683150D03*
Y1689850D03*
Y1696150D03*
X574000Y1683150D03*
X615000Y1390850D03*
Y1397150D03*
X616000Y1463850D03*
Y1470150D03*
X628000Y1390850D03*
Y1397150D03*
X630000Y1436850D03*
Y1443150D03*
X629000Y1463850D03*
Y1470150D03*
X631000Y1516150D03*
Y1509850D03*
X639000Y1390850D03*
Y1397150D03*
X640000Y1463850D03*
Y1470150D03*
X655000Y1649150D03*
Y1642850D03*
X689000Y1652150D03*
Y1645850D03*
X698600Y1667550D03*
Y1673850D03*
X704700Y1667550D03*
Y1673850D03*
X722000Y1391850D03*
X735000D03*
X722000Y1398150D03*
X735000D03*
X737000Y1444150D03*
Y1437850D03*
X736000Y1463850D03*
Y1470150D03*
X723000Y1463850D03*
Y1470150D03*
X738000Y1516150D03*
Y1509850D03*
X726000Y1654150D03*
Y1647850D03*
X746000Y1391850D03*
Y1398150D03*
X747000Y1463850D03*
Y1470150D03*
X759000Y1577850D03*
Y1584150D03*
X750000Y1597850D03*
Y1604150D03*
X766000Y1654850D03*
Y1661150D03*
X799000Y1392850D03*
Y1399150D03*
X800000Y1463850D03*
Y1470150D03*
X799000Y1539850D03*
Y1546150D03*
X812000Y1392850D03*
Y1399150D03*
X814000Y1445150D03*
Y1438850D03*
X813000Y1463850D03*
Y1470150D03*
X815000Y1516150D03*
Y1509850D03*
X812000Y1539850D03*
Y1546150D03*
X814000Y1592150D03*
Y1585850D03*
X823000Y1392850D03*
Y1399150D03*
X824000Y1463850D03*
Y1470150D03*
X823000Y1539850D03*
Y1546150D03*
G54D22*
X589900Y1453700D03*
Y1524000D03*
X774500Y1453700D03*
Y1524000D03*
G54D40*
X717079Y1577024D03*
X715110D03*
X713142D03*
X711173D03*
X709205D03*
X707236D03*
X705268D03*
X703299D03*
X701331D03*
X699362D03*
Y1604976D03*
X701331D03*
X703299D03*
X705268D03*
X707236D03*
X709205D03*
X711173D03*
X713142D03*
X715110D03*
X717079D03*
X736764Y1577024D03*
X734795D03*
X732827D03*
X730858D03*
X728890D03*
X726921D03*
X724953D03*
X722984D03*
X721016D03*
X719047D03*
Y1604976D03*
X721016D03*
X722984D03*
X724953D03*
X726921D03*
X728890D03*
X730858D03*
X732827D03*
X734795D03*
X736764D03*
X744638Y1577024D03*
X742669D03*
X740701D03*
X738732D03*
Y1604976D03*
X740701D03*
X742669D03*
X744638D03*
G54D31*
X655000Y1637900D03*
Y1628100D03*
G54D32*
X657330Y1697000D03*
X678110D03*
X671110D03*
X691890D03*
X792890D03*
X814670D03*
X806670D03*
X828450D03*
G54D50*
X755441Y1660772D03*
X758000D03*
Y1653228D03*
X755441D03*
X760559Y1660772D03*
Y1653228D03*
G54D14*
X550000Y1419000D03*
X548000Y1490000D03*
Y1566000D03*
X627000Y1417000D03*
X628000Y1490000D03*
X734000Y1418000D03*
X735000Y1490000D03*
X811000Y1419000D03*
X812000Y1490000D03*
X811000Y1566000D03*
G54D41*
X715087Y1640256D03*
X713512D03*
X711937D03*
X710362D03*
X708787D03*
X707213D03*
X705638D03*
X704063D03*
X702488D03*
X700913D03*
Y1659744D03*
X702488D03*
X704063D03*
X705638D03*
X707213D03*
X708787D03*
X710362D03*
X711937D03*
X713512D03*
X715087D03*
G54D23*
X609906Y1541000D03*
X598094D03*
X662094Y1540000D03*
X673906D03*
G54D24*
X609906Y1561000D03*
X598094D03*
X609906Y1551944D03*
X598094D03*
X609906Y1579112D03*
X598094D03*
X609906Y1570056D03*
X598094D03*
X609906Y1597224D03*
X598094D03*
X609906Y1588168D03*
X598094D03*
X609906Y1606280D03*
X598094D03*
X609906Y1615336D03*
X598094D03*
X609906Y1633448D03*
X598094D03*
X609906Y1624392D03*
X598094D03*
X609906Y1642504D03*
X598094D03*
X609906Y1651560D03*
X598094D03*
X609906Y1660616D03*
X598094D03*
X626529Y1657605D03*
Y1666661D03*
Y1675717D03*
Y1684773D03*
X638341Y1657605D03*
Y1666661D03*
Y1675717D03*
Y1684773D03*
X669094Y1403000D03*
X662094Y1550888D03*
X673906D03*
X662094Y1559944D03*
X673906D03*
X662094Y1578056D03*
X673906D03*
X662094Y1569000D03*
X673906D03*
X680906Y1403000D03*
G54D42*
X708000Y1650000D03*
G54D51*
X758311Y1642862D03*
X756933D03*
Y1647138D03*
X758311D03*
X761067Y1642862D03*
X759689D03*
Y1647138D03*
X761067D03*
G54D15*
X552953Y1405417D03*
X550984D03*
X549016D03*
X547047D03*
X545079D03*
X543110D03*
X541142D03*
X539173D03*
Y1432583D03*
X541142D03*
X543110D03*
X545079D03*
X547047D03*
X549016D03*
X550984D03*
X552953D03*
X552921Y1476417D03*
X550953D03*
X548984D03*
X547016D03*
X545047D03*
X543079D03*
X541110D03*
X539142D03*
X537173D03*
Y1503583D03*
X539142D03*
X541110D03*
X543079D03*
X545047D03*
X547016D03*
X548984D03*
X550953D03*
X552921D03*
Y1552417D03*
X550953D03*
X548984D03*
X547016D03*
X545047D03*
X543079D03*
X541110D03*
X539142D03*
X537173D03*
Y1579583D03*
X539142D03*
X541110D03*
X543079D03*
X545047D03*
X547016D03*
X548984D03*
X550953D03*
X552921D03*
X560827Y1405417D03*
X558858D03*
X556890D03*
X554921D03*
Y1432583D03*
X556890D03*
X558858D03*
X560827D03*
X558827Y1476417D03*
X556858D03*
X554890D03*
Y1503583D03*
X556858D03*
X558827D03*
Y1552417D03*
X556858D03*
X554890D03*
Y1579583D03*
X556858D03*
X558827D03*
X633890Y1403417D03*
X631921D03*
X629953D03*
X627984D03*
X626016D03*
X624047D03*
X622079D03*
X620110D03*
X618142D03*
X616173D03*
Y1430583D03*
X618142D03*
X620110D03*
X622079D03*
X624047D03*
X626016D03*
X627984D03*
X629953D03*
X631921D03*
X633890D03*
X634890Y1476417D03*
X632921D03*
X630953D03*
X628984D03*
X627016D03*
X625047D03*
X623079D03*
X621110D03*
X619142D03*
X617173D03*
Y1503583D03*
X619142D03*
X621110D03*
X623079D03*
X625047D03*
X627016D03*
X628984D03*
X630953D03*
X632921D03*
X634890D03*
X637827Y1403417D03*
X635858D03*
Y1430583D03*
X637827D03*
X638827Y1476417D03*
X636858D03*
Y1503583D03*
X638827D03*
X736953Y1404417D03*
X734984D03*
X733016D03*
X731047D03*
X729079D03*
X727110D03*
X725142D03*
X723173D03*
Y1431583D03*
X725142D03*
X727110D03*
X729079D03*
X731047D03*
X733016D03*
X734984D03*
X736953D03*
X737953Y1476417D03*
X735984D03*
X734016D03*
X732047D03*
X730079D03*
X728110D03*
X726142D03*
X724173D03*
Y1503583D03*
X726142D03*
X728110D03*
X730079D03*
X732047D03*
X734016D03*
X735984D03*
X737953D03*
X744827Y1404417D03*
X742858D03*
X740890D03*
X738921D03*
Y1431583D03*
X740890D03*
X742858D03*
X744827D03*
X745827Y1476417D03*
X743858D03*
X741890D03*
X739921D03*
Y1503583D03*
X741890D03*
X743858D03*
X745827D03*
X819858Y1405417D03*
X817890D03*
X815921D03*
X813953D03*
X811984D03*
X810016D03*
X808047D03*
X806079D03*
X804110D03*
X802142D03*
X800173D03*
Y1432583D03*
X802142D03*
X804110D03*
X806079D03*
X808047D03*
X810016D03*
X811984D03*
X813953D03*
X815921D03*
X817890D03*
X819858D03*
X818890Y1476417D03*
X816921D03*
X814953D03*
X812984D03*
X811016D03*
X809047D03*
X807079D03*
X805110D03*
X803142D03*
X801173D03*
Y1503583D03*
X803142D03*
X805110D03*
X807079D03*
X809047D03*
X811016D03*
X812984D03*
X814953D03*
X816921D03*
X818890D03*
X819858Y1552417D03*
X817890D03*
X815921D03*
X813953D03*
X811984D03*
X810016D03*
X808047D03*
X806079D03*
X804110D03*
X802142D03*
X800173D03*
Y1579583D03*
X802142D03*
X804110D03*
X806079D03*
X808047D03*
X810016D03*
X811984D03*
X813953D03*
X815921D03*
X817890D03*
X819858D03*
X821827Y1405417D03*
Y1432583D03*
X822827Y1476417D03*
X820858D03*
Y1503583D03*
X822827D03*
X821827Y1552417D03*
Y1579583D03*
G54D33*
X670000Y1391000D03*
X680000D03*
X840000Y1660000D03*
Y1650000D03*
Y1680000D03*
Y1670000D03*
G54D52*
X793366Y1618484D03*
Y1621043D03*
Y1623602D03*
Y1626161D03*
Y1628720D03*
Y1631280D03*
Y1633839D03*
Y1636398D03*
Y1638957D03*
Y1641516D03*
X820634Y1618484D03*
Y1638957D03*
Y1636398D03*
Y1633839D03*
Y1631280D03*
Y1628720D03*
Y1626161D03*
Y1623602D03*
Y1621043D03*
Y1641516D03*
G54D34*
X674000Y1412654D03*
Y1419346D03*
X690000Y1412654D03*
X682000D03*
X690000Y1419346D03*
X682000D03*
X709000Y1632346D03*
Y1625654D03*
X733000Y1619654D03*
X727000D03*
X733000Y1626346D03*
X727000D03*
X773000Y1641654D03*
Y1648346D03*
X766000Y1641654D03*
Y1648346D03*
X793000Y1689346D03*
Y1682654D03*
G54D43*
X717744Y1657087D03*
Y1655512D03*
Y1653937D03*
Y1652362D03*
Y1650787D03*
Y1649213D03*
Y1647638D03*
Y1646063D03*
Y1644488D03*
Y1642913D03*
X698256D03*
Y1644488D03*
Y1646063D03*
Y1647638D03*
Y1649213D03*
Y1650787D03*
Y1652362D03*
Y1653937D03*
Y1655512D03*
Y1657087D03*
G54D25*
X604000Y1672378D03*
G54D16*
X536417Y1408173D03*
Y1410142D03*
Y1412110D03*
Y1414079D03*
Y1416047D03*
Y1418016D03*
Y1419984D03*
Y1421953D03*
Y1423921D03*
Y1425890D03*
Y1427858D03*
Y1429827D03*
X534417Y1479173D03*
Y1481142D03*
Y1483110D03*
Y1485079D03*
Y1487047D03*
Y1489016D03*
Y1490984D03*
Y1492953D03*
Y1494921D03*
Y1496890D03*
Y1498858D03*
Y1500827D03*
Y1555173D03*
Y1557142D03*
Y1559110D03*
Y1561079D03*
Y1563047D03*
Y1565016D03*
Y1566984D03*
Y1568953D03*
Y1570921D03*
Y1572890D03*
Y1574858D03*
Y1576827D03*
X563583Y1414079D03*
Y1412110D03*
Y1410142D03*
Y1408173D03*
Y1429827D03*
Y1427858D03*
Y1425890D03*
Y1423921D03*
Y1421953D03*
Y1419984D03*
Y1418016D03*
Y1416047D03*
X561583Y1494921D03*
Y1492953D03*
Y1490984D03*
Y1489016D03*
Y1487047D03*
Y1485079D03*
Y1483110D03*
Y1481142D03*
Y1479173D03*
Y1500827D03*
Y1498858D03*
Y1496890D03*
Y1557142D03*
Y1555173D03*
Y1576827D03*
Y1574858D03*
Y1572890D03*
Y1570921D03*
Y1568953D03*
Y1566984D03*
Y1565016D03*
Y1563047D03*
Y1561079D03*
Y1559110D03*
X613417Y1406173D03*
Y1408142D03*
Y1410110D03*
Y1412079D03*
Y1414047D03*
Y1416016D03*
Y1417984D03*
Y1419953D03*
Y1421921D03*
Y1423890D03*
Y1425858D03*
Y1427827D03*
X614417Y1479173D03*
Y1481142D03*
Y1483110D03*
Y1485079D03*
Y1487047D03*
Y1489016D03*
Y1490984D03*
Y1492953D03*
Y1494921D03*
Y1496890D03*
Y1498858D03*
Y1500827D03*
X640583Y1414047D03*
Y1412079D03*
Y1410110D03*
Y1408142D03*
Y1406173D03*
Y1427827D03*
Y1425858D03*
Y1423890D03*
Y1421921D03*
Y1419953D03*
Y1417984D03*
Y1416016D03*
X641583Y1494921D03*
Y1492953D03*
Y1490984D03*
Y1489016D03*
Y1487047D03*
Y1485079D03*
Y1483110D03*
Y1481142D03*
Y1479173D03*
Y1500827D03*
Y1498858D03*
Y1496890D03*
X720417Y1407173D03*
Y1409142D03*
Y1411110D03*
Y1413079D03*
Y1415047D03*
Y1417016D03*
Y1418984D03*
Y1420953D03*
Y1422921D03*
Y1424890D03*
Y1426858D03*
Y1428827D03*
X721417Y1479173D03*
Y1481142D03*
Y1483110D03*
Y1485079D03*
Y1487047D03*
Y1489016D03*
Y1490984D03*
Y1492953D03*
Y1494921D03*
Y1496890D03*
Y1498858D03*
Y1500827D03*
X747583Y1413079D03*
Y1411110D03*
Y1409142D03*
Y1407173D03*
Y1428827D03*
Y1426858D03*
Y1424890D03*
Y1422921D03*
Y1420953D03*
Y1418984D03*
Y1417016D03*
Y1415047D03*
X748583Y1494921D03*
Y1492953D03*
Y1490984D03*
Y1489016D03*
Y1487047D03*
Y1485079D03*
Y1483110D03*
Y1481142D03*
Y1479173D03*
Y1500827D03*
Y1498858D03*
Y1496890D03*
X797417Y1408173D03*
Y1410142D03*
Y1412110D03*
Y1414079D03*
Y1416047D03*
Y1418016D03*
Y1419984D03*
Y1421953D03*
Y1423921D03*
Y1425890D03*
Y1427858D03*
Y1429827D03*
X798417Y1479173D03*
Y1481142D03*
Y1483110D03*
Y1485079D03*
Y1487047D03*
Y1489016D03*
Y1490984D03*
Y1492953D03*
Y1494921D03*
Y1496890D03*
Y1498858D03*
Y1500827D03*
X797417Y1555173D03*
Y1557142D03*
Y1559110D03*
Y1561079D03*
Y1563047D03*
Y1565016D03*
Y1566984D03*
Y1568953D03*
Y1570921D03*
Y1572890D03*
Y1574858D03*
Y1576827D03*
X824583Y1414079D03*
Y1412110D03*
Y1410142D03*
Y1408173D03*
Y1429827D03*
Y1427858D03*
Y1425890D03*
Y1423921D03*
Y1421953D03*
Y1419984D03*
Y1418016D03*
Y1416047D03*
X825583Y1494921D03*
Y1492953D03*
Y1490984D03*
Y1489016D03*
Y1487047D03*
Y1485079D03*
Y1483110D03*
Y1481142D03*
Y1479173D03*
Y1500827D03*
Y1498858D03*
Y1496890D03*
X824583Y1557142D03*
Y1555173D03*
Y1576827D03*
Y1574858D03*
Y1572890D03*
Y1570921D03*
Y1568953D03*
Y1566984D03*
Y1565016D03*
Y1563047D03*
Y1561079D03*
Y1559110D03*
G54D44*
X704306Y1690945D03*
X723695D03*
G54D35*
X673500Y1458224D03*
Y1477776D03*
X688500Y1458224D03*
X683500D03*
X678500D03*
Y1477776D03*
X683500D03*
X688500D03*
G54D53*
X800248Y1648780D03*
X793752D03*
Y1655220D03*
X800248D03*
G54D26*
X604000Y1696000D03*
G54D17*
X541191Y1410158D03*
Y1413658D03*
X548191Y1410158D03*
X551691D03*
X544691Y1413658D03*
X548191D03*
X551691D03*
X544691Y1410158D03*
X541191Y1420658D03*
Y1424158D03*
Y1427658D03*
Y1417158D03*
X544691Y1427658D03*
X548191D03*
X551691D03*
X544691Y1417158D03*
X548191D03*
X551691D03*
X544691Y1420658D03*
X548191D03*
X551691D03*
X544691Y1424158D03*
X548191D03*
X551691D03*
X536000Y1444000D03*
X542591Y1488258D03*
X546091D03*
X549591D03*
X553091D03*
X542591Y1491758D03*
X546091D03*
X549591D03*
X553091D03*
X542591Y1495258D03*
X546091D03*
X549591D03*
X553091D03*
X542591Y1481258D03*
X546091D03*
X549591D03*
X553091D03*
X542591Y1484758D03*
X546091D03*
X549591D03*
X553091D03*
X539091Y1488258D03*
Y1491758D03*
Y1495258D03*
Y1481258D03*
Y1484758D03*
X534000Y1515000D03*
X542591Y1498758D03*
X546091D03*
X553091D03*
X549591D03*
X539091D03*
X546264Y1557369D03*
X542764D03*
X549764D03*
X539264D03*
X553264D03*
X546264Y1574869D03*
X542764D03*
X539264Y1567869D03*
X542764D03*
X549764Y1574869D03*
X539264Y1571369D03*
Y1574869D03*
X549764Y1571369D03*
X553264D03*
X546264D03*
X542764D03*
X539264Y1560869D03*
X542764D03*
X546264D03*
X549764D03*
X553264D03*
X539264Y1564369D03*
X542764D03*
X546264D03*
X549764D03*
X553264D03*
Y1574869D03*
X546264Y1567869D03*
X549764D03*
X553264D03*
X534000Y1591000D03*
X555191Y1413658D03*
X558691D03*
X555191Y1410158D03*
X558691D03*
X555191Y1424158D03*
X558691D03*
X555191Y1427658D03*
X558691D03*
X555191Y1417158D03*
X558691D03*
X555191Y1420658D03*
X558691D03*
X563000Y1442000D03*
X556591Y1488258D03*
Y1491758D03*
Y1495258D03*
Y1481258D03*
Y1484758D03*
X561000Y1513000D03*
X556591Y1498758D03*
X556764Y1557369D03*
Y1571369D03*
Y1560869D03*
Y1564369D03*
Y1574869D03*
Y1567869D03*
X561000Y1589000D03*
X588126Y1666902D03*
Y1672378D03*
Y1677855D03*
X592126Y1672378D03*
Y1679331D03*
X588126Y1683331D03*
X593417D03*
X613000Y1442000D03*
X614000Y1515000D03*
X605513Y1536184D03*
X613513D03*
X605513Y1544184D03*
X613513D03*
X605513Y1552184D03*
X613513D03*
X605513Y1560184D03*
X613513D03*
X605513Y1568184D03*
X613513D03*
X605513Y1576184D03*
X613513D03*
X605513Y1584184D03*
X613513D03*
X605513Y1592184D03*
X613513D03*
X605513Y1600184D03*
X613513D03*
X605513Y1608184D03*
X613513D03*
X605513Y1616184D03*
X613513D03*
X605513Y1624184D03*
X613513D03*
X605513Y1632184D03*
X613513D03*
X605513Y1640184D03*
X613513D03*
Y1648184D03*
X605513Y1656184D03*
X613513D03*
X605513Y1648184D03*
X598063Y1679331D03*
X604000D03*
X609937D03*
X605513Y1664184D03*
X613513D03*
X598709Y1683331D03*
X604000D03*
X609291D03*
X614583D03*
X618291Y1408358D03*
Y1411858D03*
X621791Y1408358D03*
X625291D03*
X628791D03*
X632291D03*
X635791D03*
X621791Y1411858D03*
X625291D03*
X628791D03*
X632291D03*
X635791D03*
Y1418858D03*
X621791Y1422358D03*
X625291D03*
X628791D03*
X632291D03*
X635791D03*
X621791Y1425858D03*
X625291D03*
X632291D03*
X635791D03*
X628791D03*
X618291Y1415358D03*
Y1418858D03*
Y1422358D03*
Y1425858D03*
X632291Y1418858D03*
X625291D03*
X628791D03*
X621791Y1415358D03*
X625291D03*
X628791D03*
X632291D03*
X635791D03*
X621791Y1418858D03*
X619291Y1484958D03*
X629791Y1488458D03*
X633291D03*
X622791Y1491958D03*
X626291D03*
X629791D03*
X633291D03*
X622791Y1495458D03*
X626291D03*
X629791D03*
X633291D03*
X622791Y1481458D03*
X626291D03*
X629791D03*
X633291D03*
X622791Y1484958D03*
X626291D03*
X629791D03*
X633291D03*
X619291Y1488458D03*
Y1491958D03*
Y1495458D03*
Y1481458D03*
X622791Y1488458D03*
X626291D03*
X622791Y1498958D03*
X626291D03*
X633291D03*
X629791D03*
X619291D03*
X617513Y1540184D03*
Y1548184D03*
Y1556184D03*
Y1564184D03*
Y1572184D03*
Y1580184D03*
Y1588184D03*
Y1596184D03*
Y1604184D03*
Y1612184D03*
X633460Y1634189D03*
X617513Y1620184D03*
Y1628184D03*
Y1636184D03*
X633460Y1641811D03*
X617513Y1652184D03*
Y1660184D03*
Y1644184D03*
X619874Y1677854D03*
Y1672378D03*
X615874Y1679331D03*
Y1672378D03*
X619874Y1683331D03*
X640000Y1440000D03*
X636791Y1488458D03*
Y1491958D03*
Y1495458D03*
Y1481458D03*
Y1484958D03*
X641000Y1513000D03*
X636791Y1498958D03*
X655644Y1534157D03*
Y1542157D03*
Y1550157D03*
Y1558157D03*
Y1566157D03*
Y1574157D03*
X648539Y1634189D03*
X643513D03*
X638486D03*
Y1641811D03*
X643513D03*
X648539D03*
X659644Y1538157D03*
Y1546157D03*
Y1554157D03*
Y1562157D03*
Y1570157D03*
Y1578157D03*
X728691Y1409558D03*
X732191D03*
X735691D03*
X728691Y1413058D03*
X732191D03*
X735691D03*
X725191Y1409558D03*
Y1413058D03*
X735691Y1416558D03*
X728691Y1420058D03*
X732191D03*
X735691D03*
X728691Y1423558D03*
X732191D03*
X735691D03*
X728691Y1427058D03*
X732191D03*
X735691D03*
X725191Y1416558D03*
Y1420058D03*
Y1423558D03*
Y1427058D03*
X728691Y1416558D03*
X732191D03*
X720000Y1443000D03*
X726391Y1484758D03*
X729891Y1488258D03*
X733391D03*
X736891D03*
X729891Y1491758D03*
X733391D03*
X736891D03*
X729891Y1495258D03*
X733391D03*
X736891D03*
X729891Y1481258D03*
X733391D03*
X736891D03*
X729891Y1484758D03*
X733391D03*
X736891D03*
X726391Y1488258D03*
Y1491758D03*
Y1495258D03*
Y1481258D03*
X721000Y1515000D03*
X729891Y1498758D03*
X733391D03*
X736891D03*
X726391D03*
X739191Y1409558D03*
X742691D03*
X739191Y1413058D03*
X742691D03*
X739191Y1416558D03*
X742691D03*
X739191Y1420058D03*
X742691D03*
X739191Y1423558D03*
X742691D03*
X739191Y1427058D03*
X742691D03*
X747000Y1441000D03*
X740391Y1488258D03*
X743891D03*
X740391Y1491758D03*
X743891D03*
X740391Y1495258D03*
X743891D03*
X740391Y1481258D03*
X743891D03*
X740391Y1484758D03*
X743891D03*
X748000Y1513000D03*
X740391Y1498758D03*
X743891D03*
X797000Y1444000D03*
X798000Y1515000D03*
X797000Y1591000D03*
X802391Y1413858D03*
X805891Y1410358D03*
X809391D03*
X812891D03*
X816391D03*
X819891D03*
X805891Y1413858D03*
X809391D03*
X812891D03*
X816391D03*
X819891D03*
X802391Y1410358D03*
X805891Y1424358D03*
X809391D03*
X812891D03*
X816391D03*
X819891D03*
X805891Y1427858D03*
X809391D03*
X816391D03*
X819891D03*
X812891D03*
X802391Y1417358D03*
Y1420858D03*
Y1424358D03*
Y1427858D03*
X805891Y1417358D03*
X809391D03*
X812891D03*
X816391D03*
X819891D03*
X805891Y1420858D03*
X809391D03*
X812891D03*
X816391D03*
X819891D03*
X803191Y1484858D03*
X806691Y1488358D03*
X810191D03*
X813691D03*
X817191D03*
X820691D03*
X806691Y1491858D03*
X810191D03*
X813691D03*
X817191D03*
X820691D03*
X806691Y1495358D03*
X810191D03*
X813691D03*
X817191D03*
X820691D03*
X806691Y1481358D03*
X810191D03*
X813691D03*
X817191D03*
X820691D03*
X806691Y1484858D03*
X810191D03*
X813691D03*
X817191D03*
X820691D03*
X803191Y1488358D03*
Y1491858D03*
Y1495358D03*
Y1481358D03*
X806691Y1498858D03*
X810191D03*
X817191D03*
X820691D03*
X813691D03*
X803191D03*
X805791Y1557458D03*
X809291D03*
X812791D03*
X816291D03*
X819791D03*
X802291D03*
X805791Y1564458D03*
X809291D03*
X812791D03*
X816291D03*
X819791D03*
X805791Y1567958D03*
X809291D03*
X812791D03*
X816291D03*
X819791D03*
X805791Y1571458D03*
X809291D03*
X812791D03*
X816291D03*
X819791D03*
X805791Y1574958D03*
X809291D03*
X816291D03*
X819791D03*
X812791D03*
X805791Y1560958D03*
X809291D03*
X812791D03*
X816291D03*
X819791D03*
X802291Y1564458D03*
Y1567958D03*
Y1571458D03*
Y1574958D03*
Y1560958D03*
X824000Y1442000D03*
X825000Y1513000D03*
X824000Y1589000D03*
G54D45*
X708882Y1689528D03*
X711441D03*
X714000D03*
X716559D03*
X719118D03*
G54D18*
X546346Y1444000D03*
X539654D03*
X544346Y1515000D03*
X537654D03*
X544346Y1591000D03*
X537654D03*
X616654Y1442000D03*
X623346D03*
X624346Y1515000D03*
X617654D03*
X656654Y1689000D03*
X663346D03*
X677654D03*
X682654Y1487000D03*
X689346D03*
X684346Y1689000D03*
X704654Y1563000D03*
X711346D03*
X730346Y1443000D03*
X723654D03*
X731346Y1515000D03*
X724654D03*
X729346Y1570000D03*
X722654D03*
X733346Y1613000D03*
X726654D03*
X739654D03*
Y1620000D03*
Y1627000D03*
X746346Y1613000D03*
Y1620000D03*
Y1627000D03*
X753654Y1637000D03*
X760346D03*
X800654Y1444000D03*
Y1591000D03*
X807346Y1444000D03*
X808346Y1515000D03*
X801654D03*
X807346Y1591000D03*
X815346Y1689000D03*
X808654D03*
G54D36*
X664220Y1694441D03*
X685000D03*
X799780D03*
X821560D03*
G54D27*
X637000Y1549878D03*
Y1560122D03*
G54D46*
X710703Y1700000D03*
X717297D03*
G54D28*
X637000Y1576700D03*
Y1615300D03*
G54D19*
X549000Y1649138D03*
G54D37*
X690000Y1391000D03*
X840000Y1640000D03*
G54D47*
X702533Y1700000D03*
X725467D03*
G54D29*
X641000Y1638000D03*
G54D38*
X688500Y1399200D03*
Y1406700D03*
X695500Y1403000D03*
G54D39*
X686260Y1607000D03*
X693740D03*
G54D48*
X741839Y1694000D03*
X778161D03*
G54D49*
X751000Y1577260D03*
Y1584740D03*
M02*
