G04 ================== begin FILE IDENTIFICATION RECORD ==================*
G04 Layout Name:  C:/USERS/GEORGE/DOCUMENTS/GITHUB/AVALON/HARDWARE/allegro/AVALON.brd*
G04 Film Name:    SIGNAL3*
G04 File Format:  Gerber RS274X*
G04 File Origin:  Cadence Allegro 16.6-P004*
G04 Origin Date:  Sun Dec 01 17:54:01 2013*
G04 *
G04 Layer:  ETCH/SIGNAL3*
G04 Layer:  PIN/SIGNAL3*
G04 Layer:  VIA CLASS/SIGNAL3*
G04 *
G04 Offset:    (0.00 0.00)*
G04 Mirror:    No*
G04 Mode:      Positive*
G04 Rotation:  0*
G04 FullContactRelief:  No*
G04 UndefLineWidth:     0.00*
G04 ================== end FILE IDENTIFICATION RECORD ====================*
%FSLAX25Y25*MOIN*%
%IR0*IPPOS*OFA0.00000B0.00000*MIA0B0*SFA1.00000B1.00000*%
%ADD11C,.022*%
%ADD10C,.024*%
%ADD12C,.05512*%
%ADD13C,.02*%
%ADD14C,.016*%
%ADD15C,.008*%
G75*
%LPD*%
G75*
G54D10*
X522200Y1412655D03*
X532000Y1413000D03*
X523900Y1428700D03*
X528000Y1431000D03*
X531000Y1434000D03*
X526800Y1441969D03*
X520200Y1483655D03*
X521900Y1499700D03*
X529000Y1484000D03*
X524800Y1512969D03*
X526600Y1502000D03*
X530000Y1505000D03*
X520200Y1559655D03*
X521900Y1575700D03*
X529079Y1561079D03*
X528000Y1577000D03*
X524800Y1588969D03*
X523000Y1579000D03*
X531000Y1655000D03*
X538000Y1389280D03*
X551000D03*
X543000Y1400000D03*
X546000Y1399000D03*
X553000Y1448720D03*
X536280Y1451000D03*
X536000Y1460280D03*
X549000D03*
X541000Y1470000D03*
X544000Y1466000D03*
X534280Y1522000D03*
X551000Y1519720D03*
X536000Y1536280D03*
X549000D03*
X541000Y1544000D03*
X544000Y1542000D03*
X534280Y1598000D03*
X551000Y1595720D03*
X548000Y1690000D03*
X567000Y1401000D03*
X562000Y1389280D03*
X572720Y1439000D03*
X569300Y1433300D03*
X564900Y1434500D03*
X560000Y1460280D03*
X565000Y1472000D03*
X570720Y1510000D03*
X568000Y1500000D03*
X567400Y1503100D03*
X560000Y1536280D03*
X565000Y1548000D03*
X570720Y1586000D03*
X576200Y1413331D03*
X576100Y1404331D03*
Y1427669D03*
X574100Y1475331D03*
X574200Y1484331D03*
X574100Y1498669D03*
Y1551331D03*
X574200Y1560331D03*
X574100Y1574669D03*
X580169Y1696000D03*
X611331Y1390800D03*
X599200Y1410655D03*
X609079Y1412079D03*
X603800Y1439969D03*
X597280Y1423100D03*
X603300Y1429900D03*
X607000Y1432100D03*
X600200Y1483655D03*
X601900Y1499700D03*
X609079Y1485079D03*
X604800Y1512969D03*
X607700Y1500500D03*
X607500Y1504700D03*
X595700Y1696000D03*
X632400Y1390800D03*
X613500Y1401400D03*
X620000Y1398000D03*
X621000Y1391000D03*
X623200Y1395100D03*
X616000Y1460280D03*
X629000D03*
X630000Y1446720D03*
X616800Y1452669D03*
X621000Y1468000D03*
X624000Y1465000D03*
X631000Y1519720D03*
X614280Y1522000D03*
X644000Y1399000D03*
X642900Y1390900D03*
X649720Y1437000D03*
X646500Y1427100D03*
X641300Y1431800D03*
X640000Y1460280D03*
X645000Y1472000D03*
X650720Y1510000D03*
X648000Y1500000D03*
X642700Y1504200D03*
X652000Y1568000D03*
X653200Y1411331D03*
X653100Y1402331D03*
X671000Y1424000D03*
X653100Y1425669D03*
X668000Y1458000D03*
X654100Y1475331D03*
Y1498669D03*
X654200Y1484331D03*
X658000Y1626000D03*
X670000Y1684000D03*
X683500Y1469500D03*
X677000Y1519000D03*
X682000Y1523000D03*
X673000Y1607000D03*
X678868Y1634736D03*
X681300Y1632600D03*
X687000Y1628000D03*
X684530Y1648452D03*
X691000Y1685000D03*
X697000Y1399000D03*
X706200Y1411655D03*
X707900Y1427700D03*
X710800Y1440969D03*
X691776Y1477776D03*
X707200Y1483655D03*
X708900Y1499700D03*
X699000Y1563000D03*
X710000Y1570000D03*
Y1563000D03*
X711000Y1599000D03*
X699000Y1611000D03*
X703000Y1610000D03*
X705000Y1622048D03*
X699000Y1635000D03*
X693000Y1632000D03*
X709000Y1635621D03*
X698000Y1627000D03*
X697000Y1663000D03*
X693000Y1659000D03*
X722000Y1388280D03*
X727000Y1398000D03*
X728000Y1391000D03*
X730000Y1397000D03*
X716079Y1413079D03*
X714300Y1429200D03*
X716900Y1431500D03*
X723000Y1460280D03*
X720280Y1450000D03*
X728000Y1468000D03*
X731000Y1470000D03*
X717079Y1485079D03*
X711800Y1512969D03*
X713300Y1501300D03*
X715800Y1504100D03*
X721280Y1522000D03*
X720000Y1570000D03*
Y1563000D03*
X721000Y1587000D03*
X725000Y1590000D03*
X728890Y1585000D03*
X731000Y1582000D03*
X728890Y1598890D03*
X725000Y1642000D03*
X726297Y1639406D03*
X728000Y1672000D03*
X725000Y1676000D03*
X717000Y1677000D03*
X712000Y1675000D03*
X719751Y1661000D03*
X725100Y1668400D03*
X735000Y1388280D03*
X746000D03*
X736000Y1460280D03*
X747000D03*
X737000Y1447720D03*
X738000Y1519720D03*
X750000Y1638000D03*
X739654Y1633654D03*
X750000Y1656000D03*
X732000Y1649000D03*
X742800Y1646000D03*
X750000Y1661000D03*
X751000Y1400000D03*
X760100Y1403331D03*
X760200Y1412331D03*
X760100Y1426669D03*
X756720Y1438000D03*
X753800Y1429400D03*
X753500Y1433000D03*
X752000Y1472000D03*
X761100Y1475331D03*
Y1498669D03*
X761200Y1484331D03*
X757720Y1510000D03*
X755804Y1501098D03*
X754400Y1504500D03*
X767000Y1637000D03*
X752500Y1646000D03*
X760000Y1669000D03*
X755000Y1668000D03*
X783200Y1412655D03*
X784900Y1428700D03*
X790100Y1430700D03*
X787800Y1441969D03*
X784200Y1483655D03*
X785900Y1499700D03*
X788800Y1512969D03*
X781280Y1556000D03*
X784900Y1575700D03*
X788700Y1576200D03*
X784280Y1585400D03*
X786989Y1637385D03*
X783400Y1630000D03*
X786900Y1620268D03*
X786000Y1623682D03*
X778000Y1646000D03*
X781000Y1643000D03*
X799000Y1389280D03*
X804000Y1399000D03*
Y1392000D03*
X807000Y1397000D03*
X793079Y1414079D03*
X793000Y1434000D03*
X800000Y1460280D03*
X797280Y1451000D03*
X805000Y1469000D03*
X809000Y1468000D03*
X793079Y1485079D03*
X791800Y1500300D03*
X791600Y1504000D03*
X798280Y1522000D03*
X799000Y1536280D03*
X804000Y1547000D03*
X807000Y1545000D03*
X793079Y1561079D03*
X797280Y1598000D03*
X790700Y1578900D03*
X806000Y1683000D03*
X791000Y1678000D03*
X828000Y1401000D03*
X812000Y1389280D03*
X823000D03*
X825100Y1432700D03*
X824000Y1460280D03*
X813000D03*
X814000Y1448720D03*
X829000Y1472000D03*
X826500Y1504200D03*
X815000Y1519720D03*
X812000Y1536280D03*
X823000D03*
X828000Y1548000D03*
X814000Y1595720D03*
X813000Y1618000D03*
X828000Y1617900D03*
Y1637000D03*
X827800Y1631200D03*
X829000Y1624600D03*
X828000Y1640500D03*
X837200Y1413331D03*
X837100Y1404331D03*
Y1427669D03*
X833720Y1439000D03*
X831000Y1429000D03*
X838100Y1475331D03*
Y1498669D03*
X838200Y1484331D03*
X834720Y1510000D03*
X832000Y1501000D03*
X836900Y1552516D03*
X837100Y1574669D03*
X837200Y1560331D03*
X832000Y1577000D03*
X833720Y1586000D03*
X830700Y1580300D03*
G54D11*
X541191Y1410158D03*
Y1413658D03*
Y1420658D03*
Y1417158D03*
X548191Y1410158D03*
X551691D03*
X544691Y1413658D03*
X548191D03*
X551691D03*
X544691Y1410158D03*
Y1417158D03*
X548191D03*
X551691D03*
X544691Y1420658D03*
X548191D03*
X551691D03*
X541191Y1424158D03*
Y1427658D03*
X544691D03*
X548191D03*
X551691D03*
X544691Y1424158D03*
X548191D03*
X551691D03*
X536000Y1444000D03*
X542591Y1488258D03*
X546091D03*
X549591D03*
X553091D03*
X542591Y1491758D03*
X546091D03*
X549591D03*
X553091D03*
X542591Y1495258D03*
X546091D03*
X549591D03*
X553091D03*
X542591Y1498758D03*
X546091D03*
X553091D03*
X549591D03*
X542591Y1481258D03*
X546091D03*
X549591D03*
X553091D03*
X542591Y1484758D03*
X546091D03*
X549591D03*
X553091D03*
X539091Y1488258D03*
Y1491758D03*
Y1495258D03*
Y1498758D03*
Y1481258D03*
Y1484758D03*
X534000Y1515000D03*
X546264Y1557369D03*
X542764D03*
X549764D03*
X539264D03*
X546264Y1574869D03*
X542764D03*
X539264Y1567869D03*
X542764D03*
X549764Y1574869D03*
X539264Y1571369D03*
Y1574869D03*
X549764Y1571369D03*
X546264D03*
X542764D03*
X539264Y1560869D03*
X542764D03*
X546264D03*
X549764D03*
X539264Y1564369D03*
X542764D03*
X546264D03*
X549764D03*
X546264Y1567869D03*
X549764D03*
X534000Y1591000D03*
X555191Y1413658D03*
X558691D03*
X555191Y1410158D03*
X558691D03*
X555191Y1417158D03*
X558691D03*
X555191Y1420658D03*
X558691D03*
X555191Y1424158D03*
X558691D03*
X555191Y1427658D03*
X558691D03*
X563000Y1442000D03*
X556591Y1488258D03*
Y1491758D03*
Y1495258D03*
Y1498758D03*
Y1481258D03*
Y1484758D03*
X561000Y1513000D03*
X556764Y1557369D03*
X553264D03*
X556764Y1571369D03*
X553264D03*
Y1560869D03*
X556764D03*
X553264Y1564369D03*
X556764D03*
Y1574869D03*
X553264D03*
X556764Y1567869D03*
X553264D03*
X561000Y1589000D03*
X588126Y1666902D03*
Y1672378D03*
X592126D03*
X588126Y1677855D03*
Y1683331D03*
X592126Y1679331D03*
X605513Y1552184D03*
Y1560184D03*
Y1568184D03*
Y1576184D03*
Y1584184D03*
Y1592184D03*
Y1600184D03*
Y1608184D03*
Y1616184D03*
Y1624184D03*
Y1632184D03*
Y1656184D03*
Y1640184D03*
Y1648184D03*
Y1664184D03*
X593417Y1683331D03*
X598709D03*
X604000D03*
X609291D03*
X598063Y1679331D03*
X604000D03*
X609937D03*
X618291Y1408358D03*
Y1411858D03*
X621791Y1408358D03*
X625291D03*
X628791D03*
X621791Y1411858D03*
X625291D03*
X628791D03*
X618291Y1415358D03*
Y1418858D03*
X625291D03*
X628791D03*
X621791Y1415358D03*
X625291D03*
X628791D03*
X621791Y1418858D03*
Y1422358D03*
X625291D03*
X628791D03*
X621791Y1425858D03*
X625291D03*
X628791D03*
X618291Y1422358D03*
Y1425858D03*
X613000Y1442000D03*
X619291Y1484958D03*
X629791Y1488458D03*
X622791Y1491958D03*
X626291D03*
X629791D03*
X622791Y1495458D03*
X626291D03*
X629791D03*
X622791Y1498958D03*
X626291D03*
X629791D03*
X622791Y1481458D03*
X626291D03*
X629791D03*
X622791Y1484958D03*
X626291D03*
X629791D03*
X619291Y1488458D03*
Y1491958D03*
Y1495458D03*
Y1498958D03*
Y1481458D03*
X622791Y1488458D03*
X626291D03*
X614000Y1515000D03*
X613513Y1552184D03*
X617513Y1556184D03*
X613513Y1560184D03*
X617513Y1564184D03*
X613513Y1568184D03*
X617513Y1572184D03*
X613513Y1576184D03*
X617513Y1580184D03*
X613513Y1584184D03*
X617513Y1588184D03*
X613513Y1592184D03*
X617513Y1596184D03*
X613513Y1600184D03*
X617513Y1604184D03*
X613513Y1608184D03*
X617513Y1612184D03*
X613513Y1616184D03*
X617513Y1620184D03*
X613513Y1624184D03*
X617513Y1628184D03*
X613513Y1632184D03*
X617513Y1636184D03*
X613513Y1648184D03*
X617513Y1652184D03*
X613513Y1656184D03*
Y1640184D03*
X617513Y1644184D03*
X619874Y1672378D03*
X615874D03*
X617513Y1660184D03*
X613513Y1664184D03*
X614583Y1683331D03*
X619874D03*
Y1677854D03*
X615874Y1679331D03*
X635791Y1418858D03*
X632291Y1408358D03*
X635791D03*
X632291Y1411858D03*
X635791D03*
X632291Y1418858D03*
Y1415358D03*
X635791D03*
X640000Y1440000D03*
X632291Y1422358D03*
X635791D03*
X632291Y1425858D03*
X635791D03*
X633291Y1488458D03*
X636791D03*
X633291Y1491958D03*
X636791D03*
X633291Y1495458D03*
X636791D03*
X633291Y1498958D03*
X636791D03*
X633291Y1481458D03*
X636791D03*
X633291Y1484958D03*
X636791D03*
X641000Y1513000D03*
X648539Y1634189D03*
X643513D03*
X638486D03*
X633460D03*
Y1641811D03*
X638486D03*
X643513D03*
X648539D03*
X671102Y1549192D03*
X660300Y1558000D03*
X660000Y1549000D03*
X656300Y1558100D03*
X664300Y1558000D03*
X668800Y1557000D03*
X664300Y1549000D03*
X656200Y1549100D03*
X679501Y1549137D03*
X679400Y1557300D03*
X673300Y1557100D03*
X686600Y1557200D03*
X689102Y1549075D03*
X695700Y1557100D03*
X695905Y1549031D03*
X700400Y1557100D03*
X691400Y1557200D03*
X700206Y1549003D03*
X728691Y1420058D03*
Y1409558D03*
Y1413058D03*
X725191Y1416558D03*
Y1420058D03*
Y1409558D03*
Y1413058D03*
X728691Y1416558D03*
Y1423558D03*
Y1427058D03*
X725191Y1423558D03*
Y1427058D03*
X720000Y1443000D03*
X726391Y1484758D03*
X729891Y1488258D03*
Y1491758D03*
Y1495258D03*
Y1498758D03*
Y1481258D03*
Y1484758D03*
X726391Y1488258D03*
Y1491758D03*
Y1495258D03*
Y1498758D03*
Y1481258D03*
X721000Y1515000D03*
X735691Y1416558D03*
X739191D03*
X742691D03*
X732191Y1420058D03*
X735691D03*
X739191D03*
X742691D03*
X732191Y1409558D03*
X735691D03*
X739191D03*
X742691D03*
X732191Y1413058D03*
X735691D03*
X739191D03*
X742691D03*
X732191Y1416558D03*
Y1423558D03*
X735691D03*
X739191D03*
X742691D03*
X732191Y1427058D03*
X739191D03*
X742691D03*
X735691D03*
X747000Y1441000D03*
X733391Y1488258D03*
X736891D03*
X740391D03*
X743891D03*
X733391Y1491758D03*
X736891D03*
X740391D03*
X743891D03*
X733391Y1495258D03*
X736891D03*
X740391D03*
X743891D03*
X733391Y1498758D03*
X740391D03*
X743891D03*
X736891D03*
X733391Y1481258D03*
X736891D03*
X740391D03*
X743891D03*
X733391Y1484758D03*
X736891D03*
X740391D03*
X743891D03*
X748000Y1513000D03*
X802391Y1413858D03*
X805891Y1410358D03*
X809391D03*
X805891Y1413858D03*
X809391D03*
X802391Y1417358D03*
Y1410358D03*
X805891Y1417358D03*
X809391D03*
X805891Y1424358D03*
X809391D03*
X805891Y1427858D03*
X809391D03*
X802391Y1420858D03*
Y1424358D03*
Y1427858D03*
X805891Y1420858D03*
X809391D03*
X797000Y1444000D03*
X803191Y1484858D03*
X806691Y1488358D03*
Y1491858D03*
Y1495358D03*
Y1498858D03*
Y1481358D03*
Y1484858D03*
X803191Y1488358D03*
Y1491858D03*
Y1495358D03*
Y1498858D03*
Y1481358D03*
X798000Y1515000D03*
X805791Y1557458D03*
X809291D03*
X802291D03*
X805791Y1564458D03*
X809291D03*
X805791Y1567958D03*
X809291D03*
X805791Y1571458D03*
X809291D03*
X805791Y1574958D03*
X809291D03*
X805791Y1560958D03*
X809291D03*
X802291Y1564458D03*
Y1567958D03*
Y1571458D03*
Y1574958D03*
Y1560958D03*
X797000Y1591000D03*
X812891Y1410358D03*
X816391D03*
X819891D03*
X812891Y1413858D03*
X816391D03*
X819891D03*
X812891Y1417358D03*
X816391D03*
X819891D03*
X812891Y1424358D03*
X816391D03*
X819891D03*
X816391Y1427858D03*
X819891D03*
X812891D03*
Y1420858D03*
X816391D03*
X819891D03*
X824000Y1442000D03*
X810191Y1488358D03*
X813691D03*
X817191D03*
X820691D03*
X810191Y1491858D03*
X813691D03*
X817191D03*
X820691D03*
X810191Y1495358D03*
X813691D03*
X817191D03*
X820691D03*
X810191Y1498858D03*
X817191D03*
X820691D03*
X813691D03*
X810191Y1481358D03*
X813691D03*
X817191D03*
X820691D03*
X810191Y1484858D03*
X813691D03*
X817191D03*
X820691D03*
X825000Y1513000D03*
X812791Y1557458D03*
X816291D03*
X819791D03*
X812791Y1564458D03*
X816291D03*
X819791D03*
X812791Y1567958D03*
X816291D03*
X819791D03*
X812791Y1571458D03*
X816291D03*
X819791D03*
X816291Y1574958D03*
X819791D03*
X812791D03*
Y1560958D03*
X816291D03*
X819791D03*
X824000Y1589000D03*
G54D12*
X670000Y1391000D03*
X680000D03*
X690000D03*
X840000Y1640000D03*
Y1650000D03*
Y1670000D03*
Y1660000D03*
Y1680000D03*
G54D13*
G01X580169Y1696000D02*
X595700D01*
G54D14*
G01X536000Y1444000D02*
X532900Y1447100D01*
Y1507600D01*
X531000Y1509500D01*
Y1518000D01*
G01Y1594000D02*
Y1562694D01*
X531579Y1562115D01*
Y1560043D01*
X531000Y1559464D01*
Y1518000D01*
G01D02*
X534000Y1515000D01*
G01X531000Y1594000D02*
X534000Y1591000D01*
G01X531000Y1603000D02*
Y1594000D01*
G01X614000Y1515000D02*
X611600D01*
X610800Y1515800D01*
X581000D01*
X579000Y1517800D01*
Y1586000D01*
X562000Y1603000D01*
X531000D01*
G01Y1655000D02*
Y1603000D01*
G01X711000Y1599000D02*
Y1609800D01*
X701900Y1618900D01*
X680600D01*
X672700Y1626800D01*
Y1675200D01*
X646500Y1701400D01*
X559400D01*
X548000Y1690000D01*
G01X613000Y1442000D02*
Y1464386D01*
X614000Y1465386D01*
Y1515000D01*
G01X641000Y1513000D02*
X627900D01*
X625900Y1515000D01*
X614000D01*
G01X641000Y1513000D02*
X668000D01*
G01D02*
Y1458000D01*
G01X721000Y1515000D02*
X718600D01*
X717700Y1515900D01*
X670900D01*
X668000Y1513000D01*
G01X684530Y1648452D02*
X701452D01*
X702000Y1649000D01*
G01X707751D02*
X702000D01*
G01X707751D02*
X719751Y1661000D01*
G01X732000Y1649000D02*
X707751D01*
G01X720000Y1443000D02*
X717300Y1445700D01*
Y1463525D01*
X721000Y1467225D01*
Y1515000D01*
G01D02*
X735614D01*
X736964Y1513650D01*
X739036D01*
X740386Y1515000D01*
X746000D01*
X748000Y1513000D01*
G01D02*
X750900Y1515900D01*
X793100D01*
X796000Y1513000D01*
G01X797000Y1444000D02*
X794700Y1446300D01*
Y1483164D01*
X795579Y1484043D01*
Y1486115D01*
X794700Y1486994D01*
Y1511700D01*
X796000Y1513000D01*
G01D02*
X798000Y1515000D01*
G01D02*
Y1518100D01*
X795200Y1520900D01*
Y1559664D01*
X795579Y1560043D01*
Y1562115D01*
X795200Y1562494D01*
Y1586750D01*
X797000Y1588550D01*
Y1591000D01*
G54D15*
G01X541000Y1470000D02*
Y1466030D01*
X543000Y1464030D01*
Y1445699D01*
X536800Y1439499D01*
Y1406200D01*
X543000Y1400000D01*
G01X546000Y1399000D02*
Y1401100D01*
X538500Y1408600D01*
Y1437560D01*
X545485Y1444545D01*
Y1464515D01*
X544000Y1466000D01*
G01X546000Y1399000D02*
X549900Y1395100D01*
X623200D01*
G01X541000Y1470000D02*
X534900Y1476100D01*
Y1510099D01*
X541000Y1516199D01*
Y1544000D01*
G01X544000Y1466000D02*
Y1469970D01*
X536400Y1477570D01*
Y1507900D01*
X544000Y1515500D01*
Y1542000D01*
G01X567000Y1401000D02*
X562600Y1405400D01*
Y1439600D01*
X563000Y1440000D01*
Y1442000D01*
G01X565000Y1472000D02*
X561000Y1476000D01*
Y1513000D01*
G01X565000Y1548000D02*
X561000Y1552000D01*
Y1589000D01*
G01X728000Y1391000D02*
X723700Y1395300D01*
X657301D01*
X655801Y1393800D01*
X627100D01*
X624300Y1391000D01*
X621000D01*
G01X620000Y1398000D02*
X616900D01*
X613500Y1401400D01*
G01X623200Y1395100D02*
X655262D01*
X656763Y1396601D01*
X657839D01*
X657840Y1396600D01*
X724239D01*
X725324Y1395515D01*
X728515D01*
X730000Y1397000D01*
G01X624000Y1465000D02*
X621800Y1462800D01*
Y1442860D01*
X615400Y1436460D01*
Y1406500D01*
X623000Y1398900D01*
Y1397400D01*
X623200Y1397200D01*
Y1395100D01*
G01X613500Y1401400D02*
Y1436399D01*
X619400Y1442299D01*
Y1466400D01*
X621000Y1468000D01*
G01X644000Y1399000D02*
X638585Y1404415D01*
Y1438585D01*
X640000Y1440000D01*
G01X645000Y1472000D02*
X640400Y1476600D01*
Y1510400D01*
X641000Y1511000D01*
Y1513000D01*
G01X652000Y1568000D02*
X657000Y1563000D01*
X699000D01*
G01X658000Y1626000D02*
X673000Y1611000D01*
X699000D01*
G01X671000Y1424000D02*
X683500Y1436500D01*
Y1469500D01*
G01X703000Y1610000D02*
X700000Y1607000D01*
X673000D01*
G01X720000Y1570000D02*
X710000D01*
G01X720000Y1563000D02*
X710000D01*
G01X705000Y1622048D02*
Y1646000D01*
X702000Y1649000D01*
G01X742800Y1646000D02*
X723000D01*
X712621Y1635621D01*
X709000D01*
G01X728000Y1468000D02*
Y1446700D01*
X721200Y1439900D01*
Y1403800D01*
X727000Y1398000D01*
G01X804000Y1392000D02*
X731100D01*
X730100Y1391000D01*
X728000D01*
G01X731000Y1470000D02*
X730100Y1469100D01*
Y1448432D01*
X729300Y1447632D01*
Y1445361D01*
X722600Y1438661D01*
Y1406500D01*
X730000Y1399100D01*
Y1397000D01*
G01X725000Y1642000D02*
X719515Y1636515D01*
Y1588485D01*
X721000Y1587000D01*
G01X726297Y1639406D02*
X726000D01*
X723515Y1636921D01*
Y1591485D01*
X725000Y1590000D01*
G01X807000Y1397000D02*
X804900D01*
X804800Y1396900D01*
X803130D01*
X803030Y1397000D01*
X730000D01*
G01X751000Y1400000D02*
X747000Y1404000D01*
Y1441000D01*
G01X752000Y1472000D02*
X748000Y1476000D01*
Y1513000D01*
G01X731000Y1582000D02*
X739654Y1590654D01*
Y1633654D01*
G01X755000Y1668000D02*
X753515Y1666515D01*
X749515D01*
X732000Y1649000D01*
G01X750000Y1656000D02*
Y1638000D01*
G01X840000Y1640000D02*
X827000Y1653000D01*
X779000D01*
X771800Y1645800D01*
X754800D01*
X754600Y1646000D01*
X752500D01*
G01X778000D02*
Y1621600D01*
X800300Y1599300D01*
Y1579799D01*
X797700Y1577199D01*
Y1553300D01*
X804000Y1547000D01*
G01X781000Y1643000D02*
Y1630970D01*
X780900Y1630870D01*
Y1629130D01*
X781000Y1629030D01*
Y1622100D01*
X802700Y1600400D01*
Y1578996D01*
X799891Y1576187D01*
Y1554509D01*
X807000Y1547400D01*
Y1545000D01*
G01X805000Y1469000D02*
Y1444800D01*
X797900Y1437700D01*
Y1405100D01*
X804000Y1399000D01*
G01X809000Y1468000D02*
Y1446301D01*
X799600Y1436901D01*
Y1406500D01*
X807000Y1399100D01*
Y1397000D01*
G01X805000Y1469000D02*
X798600Y1475400D01*
Y1507899D01*
X804770Y1514069D01*
Y1544130D01*
X804000Y1544900D01*
Y1547000D01*
G01X807000Y1545000D02*
Y1514460D01*
X799900Y1507360D01*
Y1477100D01*
X809000Y1468000D01*
G01X828000Y1401000D02*
X822300Y1406700D01*
Y1440300D01*
X824000Y1442000D01*
G01X829000Y1472000D02*
X823585Y1477415D01*
Y1511585D01*
X825000Y1513000D01*
G01X828000Y1548000D02*
X824000Y1552000D01*
Y1589000D01*
M02*
