G04 ================== begin FILE IDENTIFICATION RECORD ==================*
G04 Layout Name:  C:/USERS/GEORGE/DOCUMENTS/GITHUB/AVALON/HARDWARE/allegro/AVALON.brd*
G04 Film Name:    TOP*
G04 File Format:  Gerber RS274X*
G04 File Origin:  Cadence Allegro 16.6-P004*
G04 Origin Date:  Mon Nov 11 14:47:50 2013*
G04 *
G04 Layer:  ETCH/TOP*
G04 Layer:  PIN/TOP*
G04 Layer:  VIA CLASS/TOP*
G04 *
G04 Offset:    (0.00 0.00)*
G04 Mirror:    No*
G04 Mode:      Positive*
G04 Rotation:  0*
G04 FullContactRelief:  No*
G04 UndefLineWidth:     0.00*
G04 ================== end FILE IDENTIFICATION RECORD ====================*
%FSLAX25Y25*MOIN*%
%IR0*IPPOS*OFA0.00000B0.00000*MIA0B0*SFA1.00000B1.00000*%
%ADD17C,.023*%
%ADD11C,.024*%
%ADD33C,.05512*%
%ADD27R,.25551X.04272*%
%ADD37R,.05512X.05512*%
%ADD15R,.00984X.0315*%
%ADD16R,.0315X.00984*%
%ADD23R,.06299X.1063*%
%ADD26R,.1378X.05906*%
%ADD50R,.00787X.02362*%
%ADD25R,.15748X.05906*%
%ADD41R,.00787X.02953*%
%ADD19R,.12598X.07185*%
%ADD48R,.16437X.06496*%
%ADD43R,.02953X.00787*%
%ADD40R,.012X.05*%
%ADD31R,.017X.02*%
%ADD38R,.02X.017*%
%ADD14R,.2126X.2126*%
%ADD22C,0.0*%
%ADD53R,.0311X.02854*%
%ADD39R,.04134X.05512*%
%ADD49R,.05512X.04134*%
%ADD29R,.20079X.12622*%
%ADD28R,.1811X.14961*%
%ADD30R,.01772X.04232*%
%ADD51R,.01575X.04035*%
%ADD36R,.03543X.03543*%
%ADD18R,.0315X.03937*%
%ADD45R,.01772X.05433*%
%ADD34R,.03937X.0315*%
%ADD42R,.1378X.1378*%
%ADD47R,.0935X.0748*%
%ADD20R,.03543X.07185*%
%ADD10R,.0374X.03937*%
%ADD46R,.04626X.0748*%
%ADD13R,.03937X.0374*%
%ADD21R,.06693X.02362*%
%ADD35R,.02362X.07874*%
%ADD32R,.05906X.05906*%
%ADD24R,.04528X.07087*%
%ADD52R,.06693X.01772*%
%ADD12R,.07087X.04528*%
%ADD44R,.05807X.08268*%
%ADD54C,.02*%
%ADD55C,.016*%
%ADD56C,.008*%
%ADD65C,.06516*%
%ADD57R,.142X.08788*%
%ADD61C,.15196*%
%ADD60R,.0554X.05344*%
%ADD59R,.05344X.0554*%
%ADD63R,.04712X.04456*%
%ADD64R,.06516X.06516*%
%ADD58R,.08296X.03964*%
%ADD62R,.03964X.09476*%
G75*
%LPD*%
G75*
G36*
G01X646812Y1625387D02*
G02X645959Y1625033I-500J0D01*
G01X645590Y1625403D01*
Y1629690D01*
X645188D01*
Y1629764D01*
X641812D01*
Y1629690D01*
X640188D01*
Y1629764D01*
X636812D01*
Y1629690D01*
X635188D01*
Y1629764D01*
X631812D01*
Y1629144D01*
X627132Y1624464D01*
Y1607096D01*
X627144D01*
Y1607018D01*
X646856D01*
Y1623928D01*
X650188D01*
Y1625944D01*
X652758D01*
X653404Y1625298D01*
X653427D01*
X671328Y1607397D01*
X671306Y1607162D01*
G03X673691Y1605444I1694J-162D01*
G02X675096Y1604531I405J-914D01*
G01Y1599634D01*
X676453Y1598278D01*
X684627Y1590104D01*
X685096D01*
X685098Y1590102D01*
X685333D01*
X685335Y1590100D01*
X686627D01*
X686628Y1590098D01*
X695627D01*
X698452Y1587273D01*
Y1581595D01*
X698454Y1581593D01*
Y1581434D01*
X698456Y1581432D01*
Y1580326D01*
X697960D01*
Y1573722D01*
X702178D01*
Y1567230D01*
X703948D01*
Y1566438D01*
X703752Y1566242D01*
Y1565770D01*
X702278D01*
Y1563902D01*
X700444D01*
G03Y1562098I-1444J-902D01*
G01X702278D01*
Y1560230D01*
X707030D01*
Y1565770D01*
X705752D01*
Y1567230D01*
X712700D01*
G02X713053Y1566376I0J-500D01*
G01X712447Y1565770D01*
X708970D01*
Y1564355D01*
G03X708969Y1561645I1030J-1355D01*
G01Y1560230D01*
X713722D01*
Y1564496D01*
X715089Y1565862D01*
X716178D01*
Y1558770D01*
X715178D01*
Y1553230D01*
X720522D01*
Y1557496D01*
X722255Y1559230D01*
X726753D01*
X727753Y1560230D01*
X731822D01*
Y1565770D01*
X720178D01*
Y1564747D01*
X719751Y1564684D01*
G03X719358Y1564576I251J-1683D01*
G02X717980Y1565502I-378J926D01*
G01Y1567498D01*
G02X719358Y1568424I1000J0D01*
G03X719828Y1568307I642J1576D01*
G01X720278Y1568261D01*
Y1567230D01*
X725030D01*
Y1573722D01*
X726970D01*
Y1567230D01*
X731722D01*
Y1569098D01*
X734627D01*
X737098Y1566627D01*
Y1547000D01*
X708000D01*
X695000Y1560000D01*
Y1585000D01*
X692000Y1588000D01*
X672000D01*
X668000Y1584000D01*
Y1532000D01*
X667000Y1531000D01*
X653053D01*
X652677Y1531376D01*
Y1552828D01*
X651340Y1554165D01*
X623165D01*
X622000Y1553000D01*
Y1534000D01*
X621000Y1533000D01*
X606000D01*
X603000Y1536000D01*
Y1667000D01*
X602000Y1668000D01*
X594000D01*
X585000Y1659000D01*
Y1642000D01*
X575000Y1632000D01*
X512194D01*
Y1705000D01*
X697056D01*
Y1695458D01*
X700601D01*
Y1686010D01*
X701478D01*
Y1680130D01*
X706718D01*
G02X707130Y1679348I-1J-500D01*
G01X706984Y1679202D01*
X706941Y1679095D01*
X706889Y1679017D01*
X706298Y1678427D01*
Y1678162D01*
X705670Y1677534D01*
X701096D01*
X700085Y1676522D01*
X695830D01*
Y1664236D01*
G03X696639Y1661337I1170J-1236D01*
G01X696783Y1661306D01*
X698099Y1659990D01*
G02X697392Y1658283I-707J-707D01*
G01X695978D01*
Y1658169D01*
X695718Y1658062D01*
X695317D01*
X694681Y1658697D01*
X694694Y1658838D01*
G03X693162Y1657306I-1694J162D01*
G01X693303Y1657319D01*
X694509Y1656112D01*
X695978D01*
Y1648540D01*
X690415D01*
X690397Y1648522D01*
X688277D01*
X686969Y1649830D01*
X685528D01*
X685509Y1649844D01*
G03X685442Y1647015I-979J-1392D01*
G01X685534Y1647074D01*
X685827D01*
X686230Y1646671D01*
Y1643178D01*
X688490D01*
G02X689197Y1641471I0J-1000D01*
G01X684848Y1637122D01*
X679980D01*
X679265Y1636408D01*
X679030Y1636430D01*
G03X678735Y1633039I-163J-1694D01*
G02X679635Y1632249I-78J-997D01*
G03X682994Y1632762I1665J351D01*
G01X682972Y1632997D01*
X683773Y1633798D01*
X685912D01*
X691212Y1639098D01*
X692373D01*
X693153Y1639878D01*
X693254D01*
X695361Y1641985D01*
X695977Y1641730D01*
Y1641718D01*
X699718D01*
Y1637978D01*
X699831D01*
X700086Y1637361D01*
X699397Y1636672D01*
X699162Y1636694D01*
G03X697445Y1634308I-162J-1694D01*
G02X696532Y1632902I-914J-406D01*
G01X694444D01*
G03X692863Y1630303I-1444J-902D01*
G01X693047Y1630289D01*
X693530Y1629805D01*
X692627Y1628902D01*
X688444D01*
G03Y1627098I-1444J-902D01*
G01X693373D01*
X696073Y1629798D01*
X700417D01*
G02X700770Y1628945I-1J-500D01*
G01X700300Y1628475D01*
G02X699004Y1628375I-706J707D01*
G03X699444Y1626098I-1004J-1375D01*
G01X700473D01*
X705376Y1631002D01*
G02X706230Y1630649I354J-354D01*
G01Y1629970D01*
X712240D01*
Y1628030D01*
X706230D01*
Y1624553D01*
X705397Y1623720D01*
X705162Y1623742D01*
G03X706694Y1622210I-162J-1694D01*
G01X706672Y1622445D01*
X707504Y1623278D01*
X712240D01*
Y1608278D01*
X705834D01*
Y1601674D01*
X709698D01*
Y1600302D01*
X690743D01*
X688456Y1602589D01*
G02X688809Y1603443I353J354D01*
G01X689128D01*
Y1608717D01*
X689903Y1609492D01*
X689916D01*
X690018Y1609593D01*
G02X690872Y1609240I354J-353D01*
G01Y1603442D01*
X696608D01*
Y1604074D01*
X697960D01*
Y1601674D01*
X704701D01*
Y1608278D01*
X704332D01*
Y1608929D01*
X704416Y1609055D01*
G03X702007Y1611382I-1416J945D01*
G02X700527Y1611752I-583J812D01*
G03X697299Y1611044I-1527J-752D01*
G01X697286Y1610558D01*
X695822D01*
Y1616770D01*
X690478D01*
Y1613748D01*
X687288Y1610558D01*
X683392D01*
Y1603442D01*
X684958D01*
Y1602405D01*
X688755Y1598609D01*
G02X688048Y1596902I-707J-707D01*
G01X687373D01*
X679904Y1604371D01*
Y1625622D01*
X660070Y1645455D01*
Y1648223D01*
X658242Y1650052D01*
X657770D01*
Y1651822D01*
X652230D01*
Y1650056D01*
X650188D01*
Y1652072D01*
X646812D01*
Y1647038D01*
X645660D01*
X645188Y1647511D01*
Y1652071D01*
X644194D01*
G02X643488Y1653779I1J1000D01*
G01X645502Y1655792D01*
Y1699740D01*
X611692D01*
Y1699754D01*
X596308D01*
Y1699740D01*
X593498D01*
Y1689792D01*
X595792Y1687498D01*
X619208D01*
X622208Y1690498D01*
X630792D01*
X631498Y1689792D01*
Y1654208D01*
X629498Y1652208D01*
Y1645792D01*
X630251Y1645040D01*
X640749D01*
X641502Y1645792D01*
Y1646236D01*
X643913D01*
X644914Y1645236D01*
X648513D01*
X648660Y1645088D01*
X648661D01*
X648791Y1644958D01*
X648794D01*
X648821Y1645098D01*
X652230D01*
Y1640178D01*
X653348D01*
Y1636098D01*
X656652D01*
Y1636201D01*
X657268Y1636456D01*
X675096Y1618628D01*
Y1609469D01*
G02X673691Y1608556I-1000J1D01*
G03X672838Y1608694I-689J-1556D01*
G01X672603Y1608672D01*
X658432Y1622843D01*
G02X658718Y1624457I707J707D01*
G03X657780Y1627688I-718J1543D01*
G02X656652Y1628679I-128J991D01*
G01Y1629902D01*
X653348D01*
Y1627748D01*
X650188D01*
Y1629764D01*
X646812D01*
Y1625387D01*
G37*
G36*
G01X846096Y1606498D02*
Y1382070D01*
X512341D01*
Y1631498D01*
X575208D01*
X585502Y1641792D01*
Y1658792D01*
X594208Y1667498D01*
X601792D01*
X602498Y1666792D01*
Y1535792D01*
X605792Y1532498D01*
X621208D01*
X622502Y1533792D01*
Y1552792D01*
X623373Y1553664D01*
X651132D01*
X652176Y1552620D01*
Y1531168D01*
X652845Y1530498D01*
X667208D01*
X668502Y1531792D01*
Y1583792D01*
X672208Y1587498D01*
X691792D01*
X694498Y1584792D01*
Y1559792D01*
X707792Y1546498D01*
X762208D01*
X765502Y1549792D01*
Y1601792D01*
X770208Y1606498D01*
X846096D01*
G37*
G36*
G01X596000Y1688000D02*
X594000Y1690000D01*
Y1699238D01*
X645000D01*
Y1656000D01*
X641000Y1652000D01*
Y1646000D01*
X640541Y1645541D01*
X630459D01*
X630000Y1646000D01*
Y1652000D01*
X632000Y1654000D01*
Y1690000D01*
X631000Y1691000D01*
X622000D01*
X619000Y1688000D01*
X596000D01*
G37*
G36*
G01X645088Y1629189D02*
Y1625195D01*
X646281Y1624002D01*
Y1607597D01*
X627634D01*
Y1624256D01*
X632567Y1629189D01*
X645088D01*
G37*
G36*
G01X738902Y1547000D02*
Y1567373D01*
X735373Y1570902D01*
X731722D01*
Y1573722D01*
X742103D01*
Y1580326D01*
X733617D01*
G02X732648Y1581575I-1J1000D01*
G03X732644Y1582440I-1648J425D01*
G02X733610Y1583698I966J258D01*
G01X746145D01*
X746405Y1583438D01*
X747442D01*
Y1581872D01*
X754558D01*
G02X755633Y1582852I1000J-17D01*
G03X755730Y1582849I89J1298D01*
G02X756230Y1582349I0J-500D01*
G01Y1581478D01*
X761770D01*
Y1586822D01*
X756230D01*
Y1586042D01*
X754558D01*
Y1587608D01*
X747442D01*
Y1586302D01*
X729998D01*
X729869Y1586392D01*
G03X727371Y1584233I-979J-1392D01*
G01X727534Y1583910D01*
X726708Y1583085D01*
G02X725854Y1583438I-354J353D01*
G01Y1587480D01*
X725902Y1587527D01*
Y1588556D01*
G03X724052Y1588587I-901J1444D01*
G01Y1580326D01*
X723551D01*
Y1572770D01*
X722418D01*
Y1580326D01*
X721918D01*
Y1585566D01*
G03X720098Y1585556I-918J1434D01*
G01Y1584527D01*
X720114Y1584511D01*
Y1580326D01*
X707803D01*
Y1574327D01*
X707524Y1574047D01*
G02X706670Y1574401I-354J354D01*
G01Y1580326D01*
X704200D01*
Y1582075D01*
X702856Y1583420D01*
Y1592419D01*
X699283Y1595991D01*
G02X699991Y1597699I707J708D01*
G01X709892D01*
X710021Y1597608D01*
G03X712392Y1599979I979J1392D01*
G01X712302Y1600108D01*
Y1601293D01*
X712683Y1601674D01*
X724386D01*
Y1608278D01*
X723886D01*
Y1610230D01*
X727755D01*
X728000Y1609985D01*
G02X727488Y1608297I-707J-707D01*
G01Y1601674D01*
X727588D01*
Y1599998D01*
X727498Y1599869D01*
G03X730282I1392J-979D01*
G01X730192Y1599998D01*
Y1601674D01*
X746040D01*
Y1603248D01*
X747230D01*
Y1601478D01*
X752770D01*
Y1606822D01*
X747230D01*
Y1606031D01*
X746613Y1605776D01*
X746511Y1605878D01*
X746040D01*
Y1609098D01*
X748573D01*
X749902Y1610427D01*
Y1624325D01*
X748722Y1625504D01*
Y1629770D01*
X743970D01*
Y1624230D01*
X747447D01*
X748098Y1623579D01*
Y1622770D01*
X743970D01*
Y1617230D01*
X745444D01*
Y1615770D01*
X743970D01*
Y1613244D01*
X743738Y1613012D01*
G02X742030Y1613720I-708J707D01*
G01Y1615770D01*
X738553D01*
X737946Y1616376D01*
G02X738300Y1617230I354J354D01*
G01X742030D01*
Y1622770D01*
X740556D01*
Y1624230D01*
X742030D01*
Y1629770D01*
X740556D01*
Y1632210D01*
G03X738752I-902J1444D01*
G01Y1629770D01*
X737278D01*
Y1624230D01*
X738752D01*
Y1622770D01*
X737278D01*
Y1618252D01*
G02X736424Y1617899I-500J0D01*
G01X735770Y1618553D01*
Y1622030D01*
X723886D01*
Y1637102D01*
G02X725408Y1637955I1000J0D01*
G03X727991Y1639568I889J1451D01*
G01X727969Y1639803D01*
X728684Y1640518D01*
Y1642561D01*
X727773Y1643471D01*
G02X728481Y1645179I707J708D01*
G01X728770D01*
Y1646948D01*
X731223D01*
X731603Y1647328D01*
X731838Y1647306D01*
G03X730309Y1649194I162J1694D01*
G01X730258Y1648752D01*
X728770D01*
Y1650522D01*
X724504D01*
X723337Y1651688D01*
X720022D01*
Y1653036D01*
X720471D01*
X723454Y1656018D01*
X730293D01*
X749373Y1675098D01*
X772322D01*
X773324Y1676100D01*
X788100D01*
X788300Y1676300D01*
Y1678407D01*
X789279D01*
X789300Y1677928D01*
G03X792694Y1678162I1700J72D01*
G01X792672Y1678397D01*
X793902Y1679627D01*
Y1680278D01*
X795770D01*
Y1685030D01*
X790230D01*
Y1679540D01*
X790018Y1679390D01*
G03X789929Y1679323I979J-1393D01*
G02X788300Y1680100I-629J777D01*
G01Y1693246D01*
X791988D01*
Y1691722D01*
X790230D01*
Y1686970D01*
X795770D01*
Y1691722D01*
X793902D01*
Y1692194D01*
X793792Y1692304D01*
Y1693246D01*
X797207D01*
Y1691868D01*
X802353D01*
Y1697014D01*
X796644D01*
Y1700754D01*
X788300D01*
Y1705000D01*
X846000D01*
Y1607000D01*
X770000D01*
X765000Y1602000D01*
Y1550000D01*
X762000Y1547000D01*
X738902D01*
G37*
G36*
G01X720001Y1662690D02*
X717522Y1665169D01*
Y1667742D01*
X720878Y1671098D01*
X726556D01*
G03Y1672902I1444J902D01*
G01X723256D01*
G02X722549Y1674609I0J1000D01*
G01X723039Y1675098D01*
X723556D01*
G03Y1676902I1444J902D01*
G01X722293D01*
X718751Y1673360D01*
G02X717898Y1673713I-353J354D01*
G01Y1674523D01*
X717902Y1674527D01*
Y1675556D01*
G03X716094Y1675559I-902J1444D01*
G01Y1674171D01*
X714297Y1672374D01*
X712072D01*
Y1673257D01*
X712442Y1673356D01*
G03X711074Y1676428I-442J1644D01*
G01X710735Y1676208D01*
X709790Y1677153D01*
Y1677356D01*
X717538Y1685103D01*
Y1686010D01*
X727400D01*
Y1695458D01*
X731800D01*
Y1669826D01*
X723045Y1661071D01*
G02X721381Y1661490I-707J708D01*
G03X720140Y1662657I-1630J-490D01*
G01X720001Y1662690D01*
G37*
G36*
G01X699101Y1661537D02*
X698501Y1662137D01*
X698605Y1662434D01*
G03X698610Y1663553I-1605J567D01*
G02X699555Y1664878I946J325D01*
G01X700096D01*
X701586Y1663388D01*
Y1662022D01*
X699718D01*
Y1661792D01*
X699101Y1661537D01*
G37*
%LPC*%
G75*
G36*
G01X546608Y1690979D02*
X546698Y1691108D01*
Y1694361D01*
X545861Y1695198D01*
X542813D01*
Y1694518D01*
X533770D01*
Y1693478D01*
X528230D01*
Y1694648D01*
X526770D01*
Y1693478D01*
X521230D01*
Y1698822D01*
X526770D01*
Y1697652D01*
X528230D01*
Y1698822D01*
X533770D01*
Y1698482D01*
X542813D01*
Y1697802D01*
X546939D01*
X549302Y1695439D01*
Y1691108D01*
X549392Y1690979D01*
G02X546608I-1392J-979D01*
G37*
G36*
G01X529608Y1655979D02*
X529698Y1656108D01*
Y1665178D01*
X522230D01*
Y1670522D01*
X533770D01*
Y1669352D01*
X538093D01*
X538174Y1669270D01*
X543285D01*
X543724Y1669710D01*
X545545D01*
X546427Y1670591D01*
Y1677256D01*
X551573D01*
Y1668468D01*
X548550D01*
X546789Y1666706D01*
X544968D01*
X544529Y1666268D01*
X536930D01*
X536849Y1666348D01*
X533770D01*
Y1665178D01*
X532302D01*
Y1656108D01*
X532392Y1655979D01*
G02X529608I-1392J-979D01*
G37*
G36*
G01X652902Y1566556D02*
Y1564109D01*
X650577Y1561784D01*
Y1557184D01*
X623423D01*
Y1563132D01*
X627498Y1567208D01*
Y1568418D01*
X627144D01*
Y1584982D01*
X646856D01*
Y1568418D01*
X646502D01*
Y1567208D01*
X649976Y1563733D01*
X651098Y1564855D01*
Y1566556D01*
G02X652902I902J1444D01*
G37*
G36*
G01X689556Y1684098D02*
X687579D01*
X685447Y1686230D01*
X681970D01*
Y1691770D01*
X682427D01*
Y1693246D01*
X679012D01*
Y1691770D01*
X680030D01*
Y1686230D01*
X675278D01*
Y1691770D01*
X676752D01*
Y1692242D01*
X676902Y1692392D01*
G03X676549Y1693246I-353J354D01*
G01X674356D01*
Y1700754D01*
X681864D01*
Y1697014D01*
X687573D01*
Y1691868D01*
X686722D01*
Y1687504D01*
X688325Y1685902D01*
X689556D01*
G02Y1684098I1444J-902D01*
G37*
G36*
G01X668435Y1684668D02*
X668567Y1684979D01*
X666576Y1686970D01*
G03X665722Y1686617I-354J-353D01*
G01Y1686230D01*
X660970D01*
Y1691770D01*
X661647D01*
Y1693246D01*
X658232D01*
Y1691770D01*
X659030D01*
Y1686230D01*
X654278D01*
Y1691770D01*
X655752D01*
Y1692242D01*
X655902Y1692392D01*
G03X655549Y1693246I-353J354D01*
G01X653576D01*
Y1700754D01*
X661084D01*
Y1697014D01*
X666793D01*
Y1691868D01*
X665722D01*
Y1689902D01*
X666194D01*
X670451Y1685645D01*
X670559Y1685608D01*
G02X668435Y1684668I-558J-1608D01*
G37*
G36*
G01X580044Y1694303D02*
G03X578970Y1693306I-74J-998D01*
G01Y1679598D01*
X576770Y1677398D01*
Y1674178D01*
X571230D01*
Y1675348D01*
X569770D01*
Y1674178D01*
X566353D01*
X563535Y1671360D01*
X560628D01*
Y1668468D01*
X555482D01*
Y1677256D01*
X560628D01*
Y1674364D01*
X562291D01*
X564230Y1676302D01*
Y1679518D01*
X555187D01*
Y1683482D01*
X563483D01*
Y1679522D01*
X569770D01*
Y1678352D01*
X571230D01*
Y1679522D01*
X574647D01*
X575968Y1680842D01*
Y1693478D01*
X571230D01*
Y1694648D01*
X569770D01*
Y1693478D01*
X564230D01*
Y1694518D01*
X555187D01*
Y1698482D01*
X564230D01*
Y1698822D01*
X569770D01*
Y1697652D01*
X571230D01*
Y1698822D01*
X576770D01*
Y1697652D01*
X579754D01*
X579807Y1697663D01*
G02X580044Y1694303I363J-1663D01*
G37*
G36*
G01X805352Y1544575D02*
G03X804242Y1545315I-968J-250D01*
G02X804162Y1548694I-242J1685D01*
G01X804397Y1548672D01*
X805148Y1549423D01*
X804893Y1550040D01*
X804785D01*
Y1554568D01*
X800843D01*
X800546Y1554272D01*
X799794D01*
Y1553880D01*
X795040D01*
Y1556466D01*
X799568D01*
Y1559785D01*
X794185D01*
G02X791379Y1561000I-1106J1294D01*
G01X791370Y1561194D01*
X790879Y1561684D01*
X790593Y1561398D01*
X790122D01*
Y1559530D01*
X787522D01*
Y1553230D01*
X782178D01*
Y1558770D01*
X784778D01*
Y1565070D01*
X790122D01*
Y1564683D01*
G03X790975Y1564330I500J1D01*
G01X792563Y1565918D01*
X795040D01*
Y1570247D01*
X799568D01*
Y1573564D01*
X795040D01*
Y1573956D01*
X793769D01*
X792427Y1575298D01*
X790144D01*
G02X788588Y1574502I-1443J902D01*
G03X787522Y1573505I-66J-998D01*
G01Y1569230D01*
X782178D01*
Y1574770D01*
X786033D01*
G03X787020Y1575929I0J1000D01*
G02X788259Y1577844I1680J271D01*
G03X788999Y1578843I-259J966D01*
G02X792144Y1579802I1701J57D01*
G01X794634D01*
X796315Y1578121D01*
X799794D01*
Y1577432D01*
X806753D01*
Y1582012D01*
X806398Y1582367D01*
Y1588230D01*
X804970D01*
Y1593770D01*
X806444D01*
Y1594562D01*
X806248Y1594758D01*
Y1595230D01*
X798178D01*
Y1600770D01*
X809822D01*
Y1595230D01*
X808248D01*
Y1593770D01*
X809722D01*
Y1588230D01*
X808294D01*
Y1583151D01*
X808994Y1582450D01*
Y1581960D01*
X811310D01*
Y1577432D01*
X818564D01*
Y1581960D01*
X821846D01*
X822262Y1582376D01*
G03X821909Y1583230I-353J354D01*
G01X821178D01*
Y1588770D01*
X822306D01*
X822361Y1589208D01*
G02X825639I1639J-208D01*
G01X825694Y1588770D01*
X832822D01*
Y1583230D01*
X824752D01*
Y1582316D01*
X823121Y1580685D01*
Y1578121D01*
X825685D01*
X826981Y1579416D01*
X827530D01*
G03X828518Y1580262I0J1000D01*
G02X831879Y1579723I1682J-261D01*
G03X832545Y1578612I987J-164D01*
G02X831838Y1575306I-546J-1612D01*
G01X831603Y1575328D01*
X830231Y1573956D01*
X826960D01*
Y1573564D01*
X822432D01*
Y1560404D01*
X826960D01*
Y1557816D01*
X822432D01*
Y1554794D01*
X823121D01*
Y1550040D01*
X822728D01*
Y1548822D01*
X826489D01*
X826639Y1549022D01*
G02X827838Y1546306I1361J-1022D01*
G01X827603Y1546328D01*
X826523Y1545248D01*
X825770D01*
Y1537178D01*
X820230D01*
Y1548822D01*
X820926D01*
Y1550040D01*
X818564D01*
Y1554568D01*
X809341D01*
Y1550040D01*
X808948D01*
Y1545674D01*
X808672Y1545397D01*
X808694Y1545162D01*
G02X805352Y1544575I-1694J-161D01*
G37*
G36*
G01X527464Y1561615D02*
G03X526515Y1562930I-949J315D01*
G01X525478D01*
Y1568470D01*
X530822D01*
Y1566602D01*
X531293D01*
X531423Y1566472D01*
X532040Y1566727D01*
Y1570247D01*
X536568D01*
Y1573564D01*
X532040D01*
Y1574589D01*
X530531Y1576098D01*
X529444D01*
G02X526299Y1577062I-1444J902D01*
G03X525300Y1578098I-999J36D01*
G01X524444D01*
G02Y1579902I-1444J902D01*
G01X526657D01*
X526757Y1580002D01*
X531434D01*
X533315Y1578121D01*
X536794D01*
Y1577432D01*
X543753D01*
Y1582012D01*
X543398Y1582367D01*
Y1588230D01*
X541970D01*
Y1593770D01*
X543444D01*
Y1594562D01*
X543248Y1594758D01*
Y1595230D01*
X535178D01*
Y1600770D01*
X546822D01*
Y1595230D01*
X545248D01*
Y1593770D01*
X546722D01*
Y1588230D01*
X545294D01*
Y1583151D01*
X545994Y1582450D01*
Y1581960D01*
X548310D01*
Y1577432D01*
X555564D01*
Y1581960D01*
X558846D01*
X559262Y1582376D01*
G03X558909Y1583230I-353J354D01*
G01X558178D01*
Y1588770D01*
X559306D01*
X559361Y1589208D01*
G02X562639I1639J-208D01*
G01X562694Y1588770D01*
X569822D01*
Y1583230D01*
X561752D01*
Y1582316D01*
X560121Y1580685D01*
Y1578121D01*
X563960D01*
Y1573564D01*
X559432D01*
Y1560404D01*
X563960D01*
Y1557816D01*
X559432D01*
Y1554794D01*
X560121D01*
Y1550040D01*
X559728D01*
Y1548822D01*
X563489D01*
X563639Y1549022D01*
G02X564838Y1546306I1361J-1022D01*
G01X564603Y1546328D01*
X563523Y1545248D01*
X562770D01*
Y1537178D01*
X557230D01*
Y1548822D01*
X557926D01*
Y1550040D01*
X555564D01*
Y1554568D01*
X546341D01*
Y1550040D01*
X545948D01*
Y1542522D01*
X551770D01*
Y1537178D01*
X546230D01*
Y1539595D01*
G03X544775Y1540485I-1000J-1D01*
G02X542352Y1541575I-775J1515D01*
G03X541242Y1542315I-968J-250D01*
G02X540225Y1542485I-241J1685D01*
G03X538770Y1541595I-455J-891D01*
G01Y1537178D01*
X533230D01*
Y1542522D01*
X538341D01*
G03X539325Y1543699I0J1000D01*
G02X541162Y1545694I1675J301D01*
G01X541397Y1545672D01*
X542178Y1546452D01*
Y1550040D01*
X541785D01*
Y1554568D01*
X537843D01*
X537546Y1554272D01*
X536794D01*
Y1553880D01*
X532040D01*
Y1556466D01*
X536568D01*
Y1559785D01*
X532040D01*
Y1560178D01*
X530523D01*
G02X527464Y1561615I-1444J901D01*
G37*
G36*
G01X791522Y1512070D02*
Y1506699D01*
G03X792477Y1505700I1000J0D01*
G02X793844Y1504902I-76J-1700D01*
G01X794534D01*
X797315Y1502121D01*
X800794D01*
Y1501432D01*
X807753D01*
Y1506012D01*
X807398Y1506367D01*
Y1512230D01*
X805970D01*
Y1517770D01*
X807444D01*
Y1518562D01*
X807248Y1518758D01*
Y1519230D01*
X799178D01*
Y1524770D01*
X810822D01*
Y1519230D01*
X809248D01*
Y1517770D01*
X810722D01*
Y1512230D01*
X809294D01*
Y1507151D01*
X809994Y1506450D01*
Y1505960D01*
X812310D01*
Y1501432D01*
X819564D01*
Y1505960D01*
X822846D01*
X823262Y1506376D01*
G03X822909Y1507230I-353J354D01*
G01X822178D01*
Y1512770D01*
X823306D01*
X823361Y1513208D01*
G02X826639I1639J-208D01*
G01X826694Y1512770D01*
X833822D01*
Y1507230D01*
X825752D01*
Y1505888D01*
X826280D01*
X826308Y1505891D01*
G02X827686Y1502980I192J-1691D01*
G01X827960Y1502305D01*
Y1499760D01*
X829485D01*
X830328Y1500603D01*
X830306Y1500838D01*
G02X831838Y1499306I1694J162D01*
G01X831603Y1499328D01*
X830231Y1497956D01*
X827960D01*
Y1497564D01*
X823432D01*
Y1484404D01*
X827960D01*
Y1481816D01*
X823432D01*
Y1478794D01*
X824121D01*
Y1474040D01*
X823728D01*
Y1472822D01*
X827489D01*
X827639Y1473022D01*
G02X828838Y1470306I1361J-1022D01*
G01X828603Y1470328D01*
X827523Y1469248D01*
X826770D01*
Y1461178D01*
X821230D01*
Y1472822D01*
X821926D01*
Y1474040D01*
X819564D01*
Y1478568D01*
X810341D01*
Y1474040D01*
X809948D01*
Y1473569D01*
X809902Y1473522D01*
Y1469444D01*
G02X810675Y1467699I-902J-1443D01*
G03X811659Y1466522I984J-177D01*
G01X815770D01*
Y1461178D01*
X810230D01*
Y1465308D01*
G03X809145Y1466304I-1000J0D01*
G02X807473Y1467248I-145J1696D01*
G03X805993Y1467618I-897J-442D01*
G02X805162Y1470694I-993J1382D01*
G01X805397Y1470672D01*
X806178Y1471452D01*
Y1474040D01*
X805785D01*
Y1478568D01*
X801843D01*
X801546Y1478272D01*
X800794D01*
Y1477880D01*
X796040D01*
Y1480466D01*
X800568D01*
Y1483785D01*
X796040D01*
Y1484178D01*
X794523D01*
G02X791391Y1485300I-1444J901D01*
G03X790400Y1486430I-991J130D01*
G01X789978D01*
Y1491970D01*
X796040D01*
Y1494247D01*
X800568D01*
Y1497564D01*
X796040D01*
Y1497956D01*
X794969D01*
X794100Y1498825D01*
G03X792804Y1498925I-706J-707D01*
G02X790779Y1501662I-1004J1375D01*
G03X791001Y1503031I-600J800D01*
G02X791023Y1505000I1399J969D01*
G01X791118Y1505131D01*
Y1506530D01*
X786178D01*
Y1512070D01*
X791522D01*
G37*
G36*
G01X745909Y1507230D02*
X745178D01*
Y1512770D01*
X746306D01*
X746361Y1513208D01*
G02X749639I1639J-208D01*
G01X749694Y1512770D01*
X756822D01*
Y1507230D01*
X748752D01*
Y1506316D01*
X747121Y1504685D01*
Y1502121D01*
X750746D01*
X752728Y1504103D01*
X752706Y1504338D01*
G02X755994Y1503904I1694J162D01*
G03X756514Y1502645I937J-350D01*
G02X755642Y1499404I-710J-1547D01*
G01X755407Y1499426D01*
X753937Y1497956D01*
X750960D01*
Y1497564D01*
X746432D01*
Y1484404D01*
X750960D01*
Y1481816D01*
X746432D01*
Y1478794D01*
X747121D01*
Y1474040D01*
X746728D01*
Y1472822D01*
X750489D01*
X750639Y1473022D01*
G02X751838Y1470306I1361J-1022D01*
G01X751603Y1470328D01*
X750523Y1469248D01*
X749770D01*
Y1461178D01*
X744230D01*
Y1472822D01*
X744926D01*
Y1474040D01*
X742564D01*
Y1478568D01*
X733341D01*
Y1474040D01*
X732948D01*
Y1471805D01*
X732303Y1471159D01*
X732487Y1470829D01*
G02X730758Y1468315I-1487J-829D01*
G03X729648Y1467575I-142J-990D01*
G02X727225Y1466485I-1648J425D01*
G03X725770Y1465595I-455J-891D01*
G01Y1461178D01*
X720230D01*
Y1466522D01*
X725341D01*
G03X726325Y1467699I0J1000D01*
G02X727612Y1469657I1675J301D01*
G01X727998Y1469748D01*
Y1471243D01*
X729178Y1472422D01*
Y1474040D01*
X728785D01*
Y1478568D01*
X724843D01*
X724546Y1478272D01*
X723794D01*
Y1477880D01*
X719040D01*
Y1480466D01*
X723568D01*
Y1483785D01*
X718185D01*
G02X715444Y1485552I-1106J1294D01*
G03X714484Y1486830I-961J278D01*
G01X712478D01*
Y1492370D01*
X717822D01*
Y1490502D01*
X718293D01*
X718423Y1490372D01*
X719040Y1490627D01*
Y1494247D01*
X723568D01*
Y1497564D01*
X719040D01*
Y1497956D01*
X718569D01*
X716127Y1500398D01*
X714744D01*
G02X713174Y1502997I-1444J902D01*
G03X714099Y1504034I-74J997D01*
G02X717244Y1505002I1701J67D01*
G01X720273D01*
X722318Y1502956D01*
Y1502121D01*
X723794D01*
Y1501432D01*
X730753D01*
Y1506012D01*
X730398Y1506367D01*
Y1512230D01*
X728970D01*
Y1517770D01*
X730444D01*
Y1518562D01*
X730248Y1518758D01*
Y1519230D01*
X722178D01*
Y1524770D01*
X733822D01*
Y1519230D01*
X732248D01*
Y1517770D01*
X733722D01*
Y1512230D01*
X732294D01*
Y1507151D01*
X732994Y1506450D01*
Y1505960D01*
X735310D01*
Y1501432D01*
X742564D01*
Y1505960D01*
X745846D01*
X746262Y1506376D01*
G03X745909Y1507230I-353J354D01*
G37*
G36*
G01X638909D02*
X638178D01*
Y1512770D01*
X639306D01*
X639361Y1513208D01*
G02X642639I1639J-208D01*
G01X642694Y1512770D01*
X649822D01*
Y1507230D01*
X641752D01*
Y1505856D01*
X642303D01*
X642353Y1505866D01*
G02X643886Y1502980I347J-1666D01*
G01X643960Y1502798D01*
Y1501241D01*
G03X644814Y1500888I500J1D01*
G01X644827Y1500902D01*
X646556D01*
G02Y1499098I1444J-902D01*
G01X645573D01*
X644431Y1497956D01*
X643960D01*
Y1497564D01*
X639432D01*
Y1484404D01*
X643960D01*
Y1481816D01*
X639432D01*
Y1478794D01*
X640121D01*
Y1474040D01*
X639728D01*
Y1472822D01*
X643489D01*
X643639Y1473022D01*
G02X644838Y1470306I1361J-1022D01*
G01X644603Y1470328D01*
X643523Y1469248D01*
X642770D01*
Y1461178D01*
X637230D01*
Y1472822D01*
X637926D01*
Y1474040D01*
X635564D01*
Y1478568D01*
X626341D01*
Y1474040D01*
X625948D01*
Y1473569D01*
X624902Y1472522D01*
Y1466444D01*
G02X625337Y1466053I-903J-1443D01*
G01X625487Y1465862D01*
X626230D01*
Y1466522D01*
X631770D01*
Y1461178D01*
X626230D01*
Y1462595D01*
G03X624775Y1463485I-1000J-1D01*
G02X622310Y1465199I-775J1515D01*
G03X621199Y1466310I-993J118D01*
G02X620225Y1466485I-199J1690D01*
G03X618770Y1465595I-455J-891D01*
G01Y1461178D01*
X613230D01*
Y1466522D01*
X618341D01*
G03X619325Y1467699I0J1000D01*
G02X620098Y1469444I1675J302D01*
G01Y1472236D01*
X621785Y1473923D01*
Y1478568D01*
X617843D01*
X617546Y1478272D01*
X616794D01*
Y1477880D01*
X612040D01*
Y1480466D01*
X616568D01*
Y1483785D01*
X612040D01*
Y1484178D01*
X610523D01*
G02X607486Y1485678I-1444J901D01*
G03X606550Y1487030I-936J352D01*
G01X605478D01*
Y1492570D01*
X610822D01*
Y1490702D01*
X612040D01*
Y1494247D01*
X616568D01*
Y1497564D01*
X612040D01*
Y1497956D01*
X611069D01*
X610000Y1499025D01*
G03X608704Y1499125I-706J-707D01*
G02X606569Y1501772I-1004J1375D01*
G03X606495Y1503326I-664J747D01*
G02X605880Y1505223I1005J1374D01*
G03X604929Y1506530I-952J307D01*
G01X602178D01*
Y1512070D01*
X607521D01*
Y1506447D01*
X607903Y1506354D01*
G02X608944Y1505602I-403J-1654D01*
G01X612309D01*
X615318Y1502592D01*
Y1502121D01*
X616794D01*
Y1501432D01*
X623753D01*
Y1506012D01*
X623398Y1506367D01*
Y1512230D01*
X621970D01*
Y1517770D01*
X623444D01*
Y1518562D01*
X623248Y1518758D01*
Y1519230D01*
X615178D01*
Y1524770D01*
X626822D01*
Y1519230D01*
X625248D01*
Y1517770D01*
X626722D01*
Y1512230D01*
X625294D01*
Y1507151D01*
X625994Y1506450D01*
Y1505960D01*
X628310D01*
Y1501432D01*
X635564D01*
Y1505960D01*
X638846D01*
X639262Y1506376D01*
G03X638909Y1507230I-353J354D01*
G37*
G36*
G01X527320Y1484271D02*
G03X526333Y1485430I-987J159D01*
G01X526078D01*
Y1490970D01*
X532040D01*
Y1494247D01*
X536568D01*
Y1497564D01*
X532040D01*
Y1497988D01*
X529581D01*
X528066Y1499502D01*
X527666D01*
X526854Y1500315D01*
X526762Y1500306D01*
G02X528301Y1501935I-162J1694D01*
G01X528300Y1501926D01*
Y1501732D01*
X528504Y1501528D01*
X528904D01*
X530419Y1500012D01*
X532040D01*
Y1500846D01*
X529524Y1503362D01*
X529419Y1503400D01*
G02X531561Y1504322I581J1600D01*
G01X531426Y1504010D01*
X533315Y1502121D01*
X536794D01*
Y1501432D01*
X543753D01*
Y1506012D01*
X543398Y1506367D01*
Y1512230D01*
X541970D01*
Y1517770D01*
X543444D01*
Y1518562D01*
X543248Y1518758D01*
Y1519230D01*
X535178D01*
Y1524770D01*
X546822D01*
Y1519230D01*
X545248D01*
Y1517770D01*
X546722D01*
Y1512230D01*
X545294D01*
Y1507151D01*
X545994Y1506450D01*
Y1505960D01*
X548310D01*
Y1501432D01*
X555564D01*
Y1505960D01*
X558846D01*
X559262Y1506376D01*
G03X558909Y1507230I-353J354D01*
G01X558178D01*
Y1512770D01*
X559306D01*
X559361Y1513208D01*
G02X562639I1639J-208D01*
G01X562694Y1512770D01*
X569822D01*
Y1507230D01*
X561752D01*
Y1506316D01*
X560121Y1504685D01*
Y1502121D01*
X562685D01*
X564566Y1504002D01*
X565956D01*
G02X568945Y1502386I1444J-902D01*
G03X569167Y1501239I908J-419D01*
G02X567838Y1498306I-1167J-1239D01*
G01X567603Y1498328D01*
X567231Y1497956D01*
X563960D01*
Y1497564D01*
X559432D01*
Y1484404D01*
X563960D01*
Y1481816D01*
X559432D01*
Y1478794D01*
X560121D01*
Y1474040D01*
X559728D01*
Y1472822D01*
X563489D01*
X563639Y1473022D01*
G02X564838Y1470306I1361J-1022D01*
G01X564603Y1470328D01*
X563523Y1469248D01*
X562770D01*
Y1461178D01*
X557230D01*
Y1472822D01*
X557926D01*
Y1474040D01*
X555564D01*
Y1478568D01*
X546341D01*
Y1474040D01*
X545948D01*
Y1471835D01*
X544902Y1470788D01*
Y1467444D01*
G02X545508Y1466790I-902J-1444D01*
G01X545648Y1466522D01*
X551770D01*
Y1461178D01*
X546230D01*
Y1463595D01*
G03X544775Y1464485I-1000J-1D01*
G02X543098Y1467444I-776J1515D01*
G01Y1468486D01*
X542236Y1468829D01*
G02X541162Y1471694I-1236J1171D01*
G01X541397Y1471672D01*
X542178Y1472452D01*
Y1474040D01*
X541785D01*
Y1478568D01*
X537843D01*
X537546Y1478272D01*
X536794D01*
Y1477880D01*
X532040D01*
Y1480466D01*
X536568D01*
Y1483785D01*
X532040D01*
Y1484178D01*
X530747D01*
X530684Y1483751D01*
G02X527320Y1484271I-1684J250D01*
G37*
G36*
G01X791380Y1414174D02*
G03X790382Y1415230I-999J56D01*
G01X788278D01*
Y1420770D01*
X793622D01*
Y1418918D01*
X795040D01*
Y1423247D01*
X799568D01*
Y1426564D01*
X795040D01*
Y1427098D01*
X792427D01*
X790497Y1429028D01*
X790262Y1429006D01*
G02X790269Y1432394I-162J1694D01*
G03X791342Y1433615I99J995D01*
G02X794694Y1433838I1658J385D01*
G01X794672Y1433603D01*
X797154Y1431121D01*
X799794D01*
Y1430432D01*
X806753D01*
Y1435012D01*
X806398Y1435367D01*
Y1441230D01*
X804970D01*
Y1446770D01*
X806444D01*
Y1447562D01*
X806248Y1447758D01*
Y1448230D01*
X798178D01*
Y1453770D01*
X809822D01*
Y1448230D01*
X808248D01*
Y1446770D01*
X809722D01*
Y1441230D01*
X808294D01*
Y1436151D01*
X808994Y1435450D01*
Y1434960D01*
X811310D01*
Y1430432D01*
X818564D01*
Y1434960D01*
X821846D01*
X822262Y1435376D01*
G03X821909Y1436230I-353J354D01*
G01X821178D01*
Y1441770D01*
X822306D01*
X822361Y1442208D01*
G02X825639I1639J-208D01*
G01X825694Y1441770D01*
X832822D01*
Y1436230D01*
X824752D01*
Y1435316D01*
X824337Y1434901D01*
X824842Y1434396D01*
X825057Y1434401D01*
G02X826584Y1431866I43J-1701D01*
G01X826520Y1431752D01*
Y1431121D01*
X826960D01*
Y1428760D01*
X829258D01*
X829310Y1429201D01*
G02X830838Y1427306I1690J-201D01*
G01X830603Y1427328D01*
X830231Y1426956D01*
X826960D01*
Y1426564D01*
X822432D01*
Y1413404D01*
X826960D01*
Y1410816D01*
X822432D01*
Y1407794D01*
X823121D01*
Y1403040D01*
X822728D01*
Y1401822D01*
X826489D01*
X826639Y1402022D01*
G02X827838Y1399306I1361J-1022D01*
G01X827603Y1399328D01*
X826523Y1398248D01*
X825770D01*
Y1390178D01*
X820230D01*
Y1401822D01*
X820926D01*
Y1403040D01*
X818564D01*
Y1407568D01*
X809341D01*
Y1403040D01*
X808948D01*
Y1397674D01*
X808672Y1397397D01*
X808694Y1397162D01*
G02X808675Y1396699I-1694J-162D01*
G03X809659Y1395522I984J-177D01*
G01X814770D01*
Y1390178D01*
X809230D01*
Y1394595D01*
G03X807775Y1395485I-1000J-1D01*
G02X806308Y1395445I-775J1515D01*
G03X804902Y1394532I-406J-914D01*
G01Y1393444D01*
G02X802663Y1390947I-902J-1443D01*
G01X802513Y1391138D01*
X801770D01*
Y1390178D01*
X796230D01*
Y1395522D01*
X801770D01*
Y1392862D01*
X802513D01*
X802663Y1393053D01*
G02X803098Y1393444I1338J-1052D01*
G01Y1397556D01*
G02X804162Y1400694I902J1444D01*
G01X804397Y1400672D01*
X805178Y1401452D01*
Y1403040D01*
X804785D01*
Y1407568D01*
X800843D01*
X800546Y1407272D01*
X799794D01*
Y1406880D01*
X795040D01*
Y1409466D01*
X799568D01*
Y1412785D01*
X794185D01*
G02X791380Y1414174I-1106J1294D01*
G37*
G36*
G01X571822Y1436230D02*
X567502D01*
G03X566539Y1434960I0J-1000D01*
G02X564965Y1432799I-1639J-460D01*
G03X564484Y1432300I19J-500D01*
G01Y1431121D01*
X565960D01*
Y1428760D01*
X568127D01*
X568398Y1429031D01*
Y1431856D01*
G02X570202I902J1444D01*
G01Y1428285D01*
X568873Y1426956D01*
X565960D01*
Y1426564D01*
X561432D01*
Y1413404D01*
X565960D01*
Y1410816D01*
X561432D01*
Y1407794D01*
X562121D01*
Y1403040D01*
X561728D01*
Y1401822D01*
X565489D01*
X565639Y1402022D01*
G02X566838Y1399306I1361J-1022D01*
G01X566603Y1399328D01*
X565523Y1398248D01*
X564770D01*
Y1390178D01*
X559230D01*
Y1401822D01*
X559926D01*
Y1403040D01*
X557564D01*
Y1407568D01*
X548341D01*
Y1403040D01*
X547948D01*
Y1399674D01*
X547672Y1399397D01*
X547694Y1399162D01*
G02X544619Y1398006I-1694J-162D01*
G03X543508Y1398376I-812J-584D01*
G02X543162Y1401694I-509J1624D01*
G01X543397Y1401672D01*
X544148Y1402423D01*
X543893Y1403040D01*
X543785D01*
Y1407568D01*
X539843D01*
X539546Y1407272D01*
X538794D01*
Y1406880D01*
X534040D01*
Y1409466D01*
X538568D01*
Y1412785D01*
X533726D01*
X533610Y1412447D01*
G02X530320Y1413271I-1610J553D01*
G03X529333Y1414430I-987J159D01*
G01X528178D01*
Y1419970D01*
X534040D01*
Y1423247D01*
X538568D01*
Y1426564D01*
X534040D01*
Y1426956D01*
X533569D01*
X530427Y1430098D01*
X529444D01*
G02X528199Y1432690I-1444J902D01*
G03X529310Y1433801I118J993D01*
G02X529331Y1434334I1690J200D01*
G03X528351Y1435530I-981J196D01*
G01X524178D01*
Y1441070D01*
X529522D01*
Y1436659D01*
G03X530699Y1435675I1000J0D01*
G02X532458Y1433122I301J-1675D01*
G01X532257Y1432787D01*
X533923Y1431121D01*
X538794D01*
Y1430432D01*
X545753D01*
Y1435012D01*
X545398Y1435367D01*
Y1441230D01*
X543970D01*
Y1446770D01*
X545444D01*
Y1447562D01*
X545248Y1447758D01*
Y1448230D01*
X537178D01*
Y1453770D01*
X548822D01*
Y1448230D01*
X547248D01*
Y1446770D01*
X548722D01*
Y1441230D01*
X547294D01*
Y1436151D01*
X547994Y1435450D01*
Y1434960D01*
X550310D01*
Y1430432D01*
X557564D01*
Y1434960D01*
X560846D01*
X561262Y1435376D01*
G03X560909Y1436230I-353J354D01*
G01X560178D01*
Y1441770D01*
X561306D01*
X561361Y1442208D01*
G02X564639I1639J-208D01*
G01X564694Y1441770D01*
X571822D01*
Y1436230D01*
G37*
G36*
G01X714384Y1413237D02*
G03X713389Y1414330I-996J93D01*
G01X711378D01*
Y1419870D01*
X716722D01*
Y1418002D01*
X717193D01*
X717277Y1417918D01*
X718040D01*
Y1422247D01*
X722568D01*
Y1425564D01*
X718040D01*
Y1425956D01*
X716269D01*
X714697Y1427528D01*
X714462Y1427506D01*
G02X714255Y1430901I-162J1694D01*
G03X715217Y1431753I-27J1000D01*
G02X718585Y1431261I1683J-253D01*
G03X719575Y1430121I990J-140D01*
G01X722794D01*
Y1429432D01*
X729753D01*
Y1434012D01*
X729398Y1434367D01*
Y1440230D01*
X727970D01*
Y1445770D01*
X729444D01*
Y1446562D01*
X729248Y1446758D01*
Y1447230D01*
X721178D01*
Y1452770D01*
X732822D01*
Y1447230D01*
X731248D01*
Y1445770D01*
X732722D01*
Y1440230D01*
X731294D01*
Y1435151D01*
X731994Y1434450D01*
Y1433960D01*
X734310D01*
Y1429432D01*
X741564D01*
Y1433960D01*
X744846D01*
X745262Y1434376D01*
G03X744909Y1435230I-353J354D01*
G01X744178D01*
Y1440770D01*
X745306D01*
X745361Y1441208D01*
G02X748639I1639J-208D01*
G01X748694Y1440770D01*
X755822D01*
Y1435226D01*
G03X755016Y1433774I84J-996D01*
G02X754856Y1431971I-1516J-774D01*
G03X754967Y1430639I797J-604D01*
G02X753638Y1427706I-1167J-1239D01*
G01X753403Y1427728D01*
X751631Y1425956D01*
X749960D01*
Y1425564D01*
X745432D01*
Y1412404D01*
X749960D01*
Y1409816D01*
X745432D01*
Y1406794D01*
X746121D01*
Y1402040D01*
X745728D01*
Y1400822D01*
X749489D01*
X749639Y1401022D01*
G02X750838Y1398306I1361J-1022D01*
G01X750603Y1398328D01*
X749523Y1397248D01*
X748770D01*
Y1389178D01*
X743230D01*
Y1400822D01*
X743926D01*
Y1402040D01*
X741564D01*
Y1406568D01*
X732341D01*
Y1402040D01*
X731948D01*
Y1397674D01*
X731672Y1397397D01*
X731694Y1397162D01*
G02X729938Y1395299I-1694J-162D01*
G03X728902Y1394300I-36J-999D01*
G01Y1392444D01*
G02X727098I-902J-1444D01*
G01Y1394527D01*
X726098Y1395527D01*
Y1396556D01*
G02X727162Y1399694I902J1444D01*
G01X727397Y1399672D01*
X728178Y1400452D01*
Y1402040D01*
X727785D01*
Y1406568D01*
X723843D01*
X723546Y1406272D01*
X722794D01*
Y1405880D01*
X718040D01*
Y1408466D01*
X722568D01*
Y1411785D01*
X717185D01*
G02X714384Y1413237I-1106J1294D01*
G37*
G36*
G01X606522Y1439070D02*
Y1434302D01*
G03X607017Y1433802I500J0D01*
G02X608444Y1433002I-17J-1702D01*
G01X609327D01*
X613208Y1429121D01*
X615794D01*
Y1428432D01*
X622753D01*
Y1433012D01*
X622398Y1433367D01*
Y1439230D01*
X620970D01*
Y1444770D01*
X622444D01*
Y1445562D01*
X622248Y1445758D01*
Y1446230D01*
X614178D01*
Y1451770D01*
X625822D01*
Y1446230D01*
X624248D01*
Y1444770D01*
X625722D01*
Y1439230D01*
X624294D01*
Y1434151D01*
X624994Y1433450D01*
Y1432960D01*
X627310D01*
Y1428432D01*
X634564D01*
Y1432960D01*
X637846D01*
X638262Y1433376D01*
G03X637909Y1434230I-353J354D01*
G01X637178D01*
Y1439770D01*
X638306D01*
X638361Y1440208D01*
G02X641639I1639J-208D01*
G01X641694Y1439770D01*
X648822D01*
Y1434230D01*
X643592D01*
G03X642744Y1432700I1J-1000D01*
G02X642202Y1430356I-1444J-901D01*
G01Y1429927D01*
X642013Y1429738D01*
X642268Y1429121D01*
X642960D01*
Y1428141D01*
G03X643814Y1427788I500J1D01*
G01X644027Y1428002D01*
X645056D01*
G02X645496Y1425725I1444J-902D01*
G03X644200Y1425625I-590J-807D01*
G01X643531Y1424956D01*
X642960D01*
Y1424564D01*
X638432D01*
Y1411404D01*
X642960D01*
Y1408816D01*
X638432D01*
Y1405794D01*
X639121D01*
Y1401040D01*
X638728D01*
Y1399822D01*
X642489D01*
X642639Y1400022D01*
G02X643838Y1397306I1361J-1022D01*
G01X643603Y1397328D01*
X642523Y1396248D01*
X641770D01*
Y1388178D01*
X636230D01*
Y1399822D01*
X636926D01*
Y1401040D01*
X634564D01*
Y1405568D01*
X625341D01*
Y1401040D01*
X624948D01*
Y1395674D01*
X624672Y1395397D01*
X624694Y1395162D01*
G02X624675Y1394699I-1694J-162D01*
G03X625659Y1393522I984J-177D01*
G01X630770D01*
Y1388178D01*
X625230D01*
Y1392595D01*
G03X623775Y1393485I-1000J-1D01*
G02X622537Y1393362I-776J1515D01*
G01X622471Y1393381D01*
X621902D01*
Y1392444D01*
G02X620098I-902J-1444D01*
G01Y1393657D01*
X619098Y1394657D01*
Y1396556D01*
G02X620162Y1399694I902J1444D01*
G01X620397Y1399672D01*
X621148Y1400423D01*
X620893Y1401040D01*
X620785D01*
Y1405568D01*
X616843D01*
X616546Y1405272D01*
X615794D01*
Y1404880D01*
X611040D01*
Y1407466D01*
X615568D01*
Y1410785D01*
X610185D01*
G02X607511Y1412741I-1106J1294D01*
G03X606590Y1414130I-921J389D01*
G01X604478D01*
Y1419670D01*
X609822D01*
Y1417802D01*
X610293D01*
X610423Y1417672D01*
X611040Y1417927D01*
Y1421247D01*
X615568D01*
Y1424564D01*
X611040D01*
Y1424956D01*
X609769D01*
X606600Y1428125D01*
G03X605304Y1428225I-706J-707D01*
G02X604304Y1431302I-1004J1375D01*
G03X605303Y1432227I2J1000D01*
G02X605320Y1432371I1697J-127D01*
G03X604333Y1433530I-987J159D01*
G01X601178D01*
Y1439070D01*
X606522D01*
G37*
G36*
G01X797173Y1589357D02*
G02Y1592643I-173J1643D01*
G03X798278Y1593637I105J995D01*
G01Y1593770D01*
X803030D01*
Y1588230D01*
X798278D01*
Y1588363D01*
G03X797173Y1589357I-1000J-1D01*
G37*
G36*
G01X534173D02*
G02Y1592643I-173J1643D01*
G03X535278Y1593637I105J995D01*
G01Y1593770D01*
X540030D01*
Y1588230D01*
X535278D01*
Y1588363D01*
G03X534173Y1589357I-1000J-1D01*
G37*
G36*
G01X798173Y1513357D02*
G02Y1516643I-173J1643D01*
G03X799278Y1517637I105J995D01*
G01Y1517770D01*
X804030D01*
Y1512230D01*
X799278D01*
Y1512363D01*
G03X798173Y1513357I-1000J-1D01*
G37*
G36*
G01X721173D02*
G02Y1516643I-173J1643D01*
G03X722278Y1517637I105J995D01*
G01Y1517770D01*
X727030D01*
Y1512230D01*
X722278D01*
Y1512363D01*
G03X721173Y1513357I-1000J-1D01*
G37*
G36*
G01X614173D02*
G02Y1516643I-173J1643D01*
G03X615278Y1517637I105J995D01*
G01Y1517770D01*
X620030D01*
Y1512230D01*
X615278D01*
Y1512363D01*
G03X614173Y1513357I-1000J-1D01*
G37*
G36*
G01X534173D02*
G02Y1516643I-173J1643D01*
G03X535278Y1517637I105J995D01*
G01Y1517770D01*
X540030D01*
Y1512230D01*
X535278D01*
Y1512363D01*
G03X534173Y1513357I-1000J-1D01*
G37*
G36*
G01X690482Y1475090D02*
Y1473038D01*
X686518D01*
Y1482514D01*
X687598D01*
Y1484230D01*
X686970D01*
Y1489770D01*
X691722D01*
Y1484230D01*
X690248D01*
Y1483758D01*
X689858Y1483368D01*
G03X690211Y1482514I353J-354D01*
G01X690482D01*
Y1480462D01*
G03X691591Y1479468I1000J0D01*
G02Y1476084I185J-1692D01*
G03X690482Y1475090I-109J-994D01*
G37*
G36*
G01X797173Y1442357D02*
G02Y1445643I-173J1643D01*
G03X798278Y1446637I105J995D01*
G01Y1446770D01*
X803030D01*
Y1441230D01*
X798278D01*
Y1441363D01*
G03X797173Y1442357I-1000J-1D01*
G37*
G36*
G01X536173D02*
G02Y1445643I-173J1643D01*
G03X537278Y1446637I105J995D01*
G01Y1446770D01*
X542030D01*
Y1441230D01*
X537278D01*
Y1441363D01*
G03X536173Y1442357I-1000J-1D01*
G37*
G36*
G01X720173Y1441357D02*
G02Y1444643I-173J1643D01*
G03X721278Y1445637I105J995D01*
G01Y1445770D01*
X726030D01*
Y1440230D01*
X721278D01*
Y1440363D01*
G03X720173Y1441357I-1000J-1D01*
G37*
G36*
G01X613173Y1440357D02*
G02Y1443643I-173J1643D01*
G03X614278Y1444637I105J995D01*
G01Y1444770D01*
X619030D01*
Y1439230D01*
X614278D01*
Y1439363D01*
G03X613173Y1440357I-1000J-1D01*
G37*
G36*
G01X687970Y1422576D02*
X687598Y1422948D01*
Y1453486D01*
X686518D01*
Y1462962D01*
X690482D01*
Y1453486D01*
X689402D01*
Y1423694D01*
X690902Y1422194D01*
Y1421722D01*
X692770D01*
Y1416970D01*
X687230D01*
Y1421722D01*
X687617D01*
G03X687970Y1422576I0J500D01*
G37*
G36*
G01X668979Y1459392D02*
X669108Y1459302D01*
X669961D01*
X670185Y1459526D01*
X671518D01*
Y1462962D01*
X675482D01*
Y1453486D01*
X674402D01*
Y1428219D01*
X680296Y1422325D01*
Y1421931D01*
X680504Y1421722D01*
X684770D01*
Y1416970D01*
X679230D01*
Y1420447D01*
X678492Y1421185D01*
Y1421579D01*
X672598Y1427473D01*
Y1453486D01*
X671518D01*
Y1456698D01*
X669108D01*
X668979Y1456608D01*
G02Y1459392I-979J1392D01*
G37*
G36*
G01X672324Y1422930D02*
X672041Y1422580D01*
X672898Y1421722D01*
X676770D01*
Y1416970D01*
X671230D01*
Y1420841D01*
X670098Y1421973D01*
Y1422556D01*
G02X672324Y1422930I902J1444D01*
G37*
G36*
G01X687617Y1410278D02*
X687230D01*
Y1411752D01*
X684770D01*
Y1410278D01*
X679230D01*
Y1415030D01*
X684770D01*
Y1413556D01*
X687230D01*
Y1415030D01*
X692770D01*
Y1410278D01*
X690902D01*
Y1409806D01*
X690051Y1408955D01*
X690302Y1408352D01*
Y1405048D01*
X686698D01*
Y1408352D01*
X687598D01*
Y1409052D01*
X687970Y1409424D01*
G03X687617Y1410278I-353J354D01*
G37*
G36*
G01X695306Y1399162D02*
X695328Y1399397D01*
X694598Y1400127D01*
Y1401348D01*
X693698D01*
Y1404652D01*
X697302D01*
Y1400710D01*
X697619Y1400585D01*
G02X695306Y1399162I-619J-1585D01*
G37*
G36*
G01X593556Y1390098D02*
X586444D01*
G02Y1391902I-1444J902D01*
G01X593556D01*
G02Y1390098I1444J-902D01*
G37*
G36*
G01X690902Y1396323D02*
Y1394258D01*
X693258D01*
Y1387742D01*
X686742D01*
Y1394258D01*
X689098D01*
Y1395577D01*
X687598Y1397077D01*
Y1397548D01*
X686698D01*
Y1400852D01*
X690302D01*
Y1396923D01*
X690902Y1396323D01*
G37*
G36*
G01X678785Y1394023D02*
X679098Y1394149D01*
Y1398655D01*
X677840D01*
Y1406071D01*
X677104Y1406808D01*
Y1408276D01*
X675704Y1409675D01*
Y1410069D01*
X675496Y1410278D01*
X671230D01*
Y1415030D01*
X676770D01*
Y1411553D01*
X677508Y1410815D01*
Y1410421D01*
X678906Y1409022D01*
Y1407554D01*
X679116Y1407345D01*
X683972D01*
Y1398655D01*
X681808D01*
Y1398183D01*
X680902Y1397277D01*
Y1394149D01*
X681215Y1394023D01*
G02X678785I-1215J-3023D01*
G37*
G36*
G01X668096Y1393644D02*
G03X668219Y1395162I-584J811D01*
G01X668192Y1395189D01*
Y1398655D01*
X666028D01*
Y1407345D01*
X672160D01*
Y1398655D01*
X669996D01*
Y1395935D01*
X670902Y1395029D01*
Y1394149D01*
X671215Y1394023D01*
G02X668096Y1393644I-1215J-3023D01*
G37*
G36*
G01X680473Y1520198D02*
X679694D01*
G03X678697Y1519125I0J-1000D01*
G02X677902Y1517556I-1697J-126D01*
G01Y1501373D01*
X679402Y1499873D01*
Y1489770D01*
X685030D01*
Y1484230D01*
X684402D01*
Y1482514D01*
X685482D01*
Y1473038D01*
X684402D01*
Y1470944D01*
G02X682598I-902J-1444D01*
G01Y1473038D01*
X681518D01*
Y1482514D01*
X681789D01*
G03X682142Y1483368I0J500D01*
G01X681752Y1483758D01*
Y1484230D01*
X679402D01*
Y1482514D01*
X680482D01*
Y1473038D01*
X676518D01*
Y1482514D01*
X677598D01*
Y1499127D01*
X676098Y1500627D01*
Y1517556D01*
G02X675477Y1518241I903J1443D01*
G01X675441Y1518313D01*
X675029Y1518724D01*
X674402Y1518097D01*
Y1482514D01*
X675482D01*
Y1473038D01*
X671518D01*
Y1482514D01*
X672598D01*
Y1518843D01*
X675757Y1522002D01*
X679727D01*
X680328Y1522603D01*
X680306Y1522838D01*
G02X681838Y1521306I1694J162D01*
G01X681603Y1521328D01*
X680473Y1520198D01*
G37*
G36*
G01X806162Y1684694D02*
X806397Y1684672D01*
X807102Y1685376D01*
G03X806748Y1686230I-354J354D01*
G01X806278D01*
Y1691770D01*
X811030D01*
Y1686230D01*
X809556D01*
Y1685281D01*
X807672Y1683397D01*
X807694Y1683162D01*
G02X806162Y1684694I-1694J-162D01*
G37*
G36*
G01X797514Y1643204D02*
Y1639828D01*
X789218D01*
Y1643204D01*
X792464D01*
Y1643675D01*
X792850Y1644061D01*
Y1646552D01*
X791396D01*
Y1651008D01*
X796108D01*
Y1646552D01*
X794654D01*
Y1643204D01*
X797514D01*
G37*
G36*
G01X816486Y1617098D02*
X814444D01*
G02Y1618902I-1444J902D01*
G01X815530D01*
X816014Y1619386D01*
X816486D01*
Y1622731D01*
X824782D01*
Y1621944D01*
X825254D01*
X825297Y1621902D01*
X826556D01*
G02Y1620098I1444J-902D01*
G01X824782D01*
Y1616796D01*
X816486D01*
Y1617098D01*
G37*
G36*
G01X746040Y1576122D02*
Y1573722D01*
X743236D01*
Y1580326D01*
X746040D01*
Y1578437D01*
G03X746893Y1578084I500J1D01*
G01X746971Y1578162D01*
X747442D01*
Y1580128D01*
X754558D01*
Y1574392D01*
X747442D01*
Y1576122D01*
X746040D01*
G37*
G36*
G01X817722Y1686230D02*
X812970D01*
Y1691770D01*
X813768D01*
Y1693246D01*
X810916D01*
Y1700754D01*
X818424D01*
Y1697014D01*
X824133D01*
Y1691868D01*
X818987D01*
Y1693245D01*
X816451D01*
G03X816098Y1692392I1J-500D01*
G01X816248Y1692242D01*
Y1691770D01*
X817722D01*
Y1686230D01*
G37*
G36*
G01X787444Y1620098D02*
G02Y1621902I-1444J902D01*
G01X788703D01*
X788746Y1621944D01*
X789218D01*
Y1625098D01*
X787444D01*
G02Y1626902I-1444J902D01*
G01X788585D01*
X788746Y1627062D01*
X789218D01*
Y1627849D01*
X797514D01*
Y1624904D01*
X800062D01*
X806472Y1631313D01*
Y1632538D01*
X797514D01*
Y1629592D01*
X788706D01*
X788212Y1629098D01*
X784444D01*
G02X781600Y1630969I-1444J902D01*
G03X780778Y1632538I-822J569D01*
G01X780276D01*
X774438Y1638376D01*
X771760Y1635698D01*
X768108D01*
X767979Y1635608D01*
G02X765500Y1637805I-979J1392D01*
G03X764619Y1639278I-881J473D01*
G01X762722D01*
Y1634230D01*
X757970D01*
Y1638834D01*
G03X757116Y1639187I-500J0D01*
G01X756633Y1638704D01*
X756239D01*
X756030Y1638496D01*
Y1634230D01*
X751278D01*
Y1635312D01*
G03X750175Y1636307I-1000J0D01*
G02X750601Y1639592I-175J1693D01*
G01X750686Y1639560D01*
X751278D01*
Y1639770D01*
X754755D01*
X755738Y1640752D01*
Y1644845D01*
X756171D01*
X757116Y1645789D01*
Y1648760D01*
X755466Y1650409D01*
X753852D01*
Y1655074D01*
G03X752998Y1655428I-500J0D01*
G01X752669Y1655098D01*
X751444D01*
G02Y1656902I-1444J902D01*
G01X751923D01*
X753369Y1658348D01*
X753852D01*
Y1659870D01*
X753380D01*
X753152Y1660098D01*
X751444D01*
G02Y1661902I-1444J902D01*
G01X753852D01*
Y1663592D01*
X757098D01*
Y1664627D01*
X755397Y1666328D01*
X755162Y1666306D01*
G02X756694Y1667838I-162J1694D01*
G01X756672Y1667603D01*
X758245Y1666030D01*
G03X759098Y1666383I353J354D01*
G01Y1667556D01*
G02X760902I902J1444D01*
G01Y1664622D01*
X761460Y1664063D01*
Y1663592D01*
X762148D01*
Y1657952D01*
X761043D01*
G03X760335Y1656245I-1J-1000D01*
G01X760534Y1656047D01*
X762148D01*
Y1654130D01*
X763230D01*
Y1657522D01*
X768770D01*
Y1651668D01*
X769715Y1650722D01*
X775770D01*
Y1649505D01*
X777603Y1647672D01*
X777838Y1647694D01*
G02X779690Y1645801I162J-1694D01*
G03X780801Y1644690I993J-118D01*
G02X779556Y1642098I199J-1690D01*
G01X777627D01*
X777477Y1642248D01*
G03X775770Y1641541I-707J-707D01*
G01Y1641119D01*
X777190Y1639698D01*
Y1639304D01*
X781354Y1635140D01*
X784591D01*
G03X785478Y1636601I0J1000D01*
G02X788416Y1638313I1511J784D01*
G01X788563Y1638086D01*
X797514D01*
Y1635140D01*
X806472D01*
Y1640844D01*
X800764Y1646552D01*
X797892D01*
Y1651008D01*
X802604D01*
Y1648392D01*
X808179Y1642818D01*
X816486D01*
Y1643204D01*
X824782D01*
Y1639902D01*
X826556D01*
G02X829246Y1637841I1443J-902D01*
G03Y1637159I366J-341D01*
G02X826556Y1635098I-1247J-1159D01*
G01X824782D01*
Y1634710D01*
X816486D01*
Y1640214D01*
X809074D01*
Y1631313D01*
X810366Y1630022D01*
X816486D01*
Y1632968D01*
X824782D01*
Y1632182D01*
X825254D01*
X825534Y1631902D01*
X826556D01*
G02Y1630098I1444J-902D01*
G01X824782D01*
Y1627062D01*
X825254D01*
X825415Y1626902D01*
X826556D01*
G02Y1625098I1444J-902D01*
G01X824782D01*
Y1624473D01*
X816486D01*
Y1627418D01*
X809288D01*
X807773Y1628933D01*
X801140Y1622300D01*
X797514D01*
Y1619355D01*
X789218D01*
Y1620098D01*
X787444D01*
G37*
G54D65*
X840000Y1650000D03*
Y1680000D03*
Y1670000D03*
G54D57*
X549000Y1649138D03*
G54D61*
X589900Y1453700D03*
Y1524000D03*
X774500Y1453700D03*
Y1524000D03*
G54D60*
X538000Y1392850D03*
X551000D03*
X553000Y1445150D03*
X536000Y1463850D03*
X551000Y1516150D03*
Y1592150D03*
X615000Y1390850D03*
X630000Y1443150D03*
X631000Y1516150D03*
X735000Y1391850D03*
X722000D03*
X737000Y1444150D03*
X736000Y1463850D03*
X738000Y1516150D03*
X800000Y1463850D03*
X799000Y1539850D03*
X814000Y1445150D03*
X815000Y1516150D03*
X812000Y1539850D03*
X814000Y1592150D03*
G54D59*
X787850Y1438300D03*
X711850Y1509300D03*
X708850Y1496000D03*
X601850D03*
X600850Y1423000D03*
X521850Y1572000D03*
X524850Y1509300D03*
X523850Y1409000D03*
Y1425000D03*
X521850Y1496000D03*
Y1480000D03*
Y1556000D03*
X524850Y1585300D03*
X576150Y1408000D03*
Y1417000D03*
Y1424000D03*
X574150Y1479000D03*
Y1495000D03*
Y1488000D03*
Y1555000D03*
Y1571000D03*
Y1564000D03*
X600850Y1407000D03*
X601850Y1480000D03*
X653150Y1406000D03*
Y1415000D03*
Y1422000D03*
X654150Y1479000D03*
Y1488000D03*
Y1495000D03*
X707850Y1408000D03*
Y1424000D03*
X710850Y1437300D03*
X708850Y1480000D03*
X760150Y1416000D03*
Y1407000D03*
Y1423000D03*
X761150Y1495000D03*
Y1488000D03*
Y1479000D03*
X784850Y1409000D03*
Y1425000D03*
X785850Y1496000D03*
Y1480000D03*
X787850Y1585300D03*
X837150Y1408000D03*
Y1417000D03*
Y1424000D03*
X838150Y1488000D03*
Y1495000D03*
Y1479000D03*
X837150Y1555000D03*
Y1571000D03*
Y1564000D03*
G54D63*
X800248Y1655220D03*
G54D64*
X840000Y1640000D03*
G54D58*
X538665Y1681500D03*
G54D62*
X683500Y1458224D03*
X678500D03*
%LPD*%
G75*
G36*
G01X610186Y1427088D02*
X607987Y1429288D01*
G02X608067Y1430774I707J707D01*
G03X608193Y1430886I-1066J1327D01*
G02X608897Y1430883I350J-357D01*
G01X611040Y1428739D01*
Y1427442D01*
G02X610186Y1427088I-500J0D01*
G37*
G36*
G01X612040Y1501949D02*
G02X610333Y1501242I-1000J0D01*
G01X610173Y1501402D01*
X609144D01*
G03X608705Y1501874I-1443J-902D01*
G02X608631Y1503428I590J807D01*
G03X608944Y1503798I-1130J1273D01*
G01X611563D01*
X612623Y1502738D01*
X612368Y1502121D01*
X612040D01*
Y1501949D01*
G37*
G36*
G01X646000Y1584000D02*
Y1567000D01*
X650000Y1563000D01*
Y1558000D01*
X624000D01*
Y1563000D01*
X628000Y1567000D01*
Y1584000D01*
X646000D01*
G37*
G36*
G01X746975Y1431249D02*
G02X746121Y1431603I-354J354D01*
G01Y1432685D01*
X747752Y1434316D01*
Y1435230D01*
X752637D01*
Y1434487D01*
X752447Y1434337D01*
G03X752056Y1433902I1052J-1338D01*
G01X748928D01*
X747314Y1432287D01*
Y1431588D01*
X746975Y1431249D01*
G37*
G36*
G01X749960Y1427760D02*
Y1430121D01*
X749268D01*
X749013Y1430738D01*
X749116Y1430842D01*
Y1431541D01*
X749674Y1432098D01*
X752056D01*
G03X752333Y1431761I1443J903D01*
G02X752444Y1430429I-686J-728D01*
G03X752106Y1429238I1356J-1028D01*
G01X752128Y1429003D01*
X750885Y1427760D01*
X749960D01*
G37*
G36*
G01X757263Y1651162D02*
X757030Y1651395D01*
Y1655794D01*
G02X757884Y1656148I500J0D01*
G01X758786Y1655245D01*
Y1653726D01*
X758970Y1653542D01*
Y1651869D01*
G02X757263Y1651162I-1000J0D01*
G37*
G36*
G01X793173Y1428902D02*
X791772Y1430303D01*
X791794Y1430538D01*
G03X791758Y1431085I-1694J163D01*
G02X792831Y1432306I974J226D01*
G03X793162I165J1694D01*
G01X793397Y1432328D01*
X795040Y1430685D01*
Y1428902D01*
X793173D01*
G37*
G54D10*
X523850Y1409000D03*
X530150D03*
X523850Y1425000D03*
X530150D03*
X524550Y1417200D03*
X530850D03*
X526850Y1438300D03*
X533150D03*
X521850Y1496000D03*
X528150D03*
X521850Y1480000D03*
X528150D03*
X522450Y1488200D03*
X528750D03*
X524850Y1509300D03*
X531150D03*
X521850Y1556000D03*
X528150D03*
X521850Y1572000D03*
X528150D03*
X521850Y1565700D03*
X528150D03*
X524850Y1585300D03*
X531150D03*
X546150Y1451000D03*
X539850D03*
X544150Y1522000D03*
X537850D03*
X544150Y1598000D03*
X537850D03*
X576150Y1408000D03*
X569850D03*
X576150Y1417000D03*
X569850D03*
X576150Y1424000D03*
X569850D03*
X569150Y1439000D03*
X562850D03*
X574150Y1479000D03*
X567850D03*
X574150Y1495000D03*
X567850D03*
X574150Y1488000D03*
X567850D03*
X567150Y1510000D03*
X560850D03*
X574150Y1555000D03*
X567850D03*
X574150Y1571000D03*
X567850D03*
X574150Y1564000D03*
X567850D03*
X567150Y1586000D03*
X560850D03*
X600850Y1407000D03*
X607150D03*
X603850Y1436300D03*
X610150D03*
X600850Y1423000D03*
X607150D03*
X600850Y1416900D03*
X607150D03*
X616850Y1449000D03*
X601850Y1480000D03*
X608150D03*
X601850Y1496000D03*
X608150D03*
X601850Y1489800D03*
X608150D03*
X604850Y1509300D03*
X611150D03*
X623150Y1449000D03*
X624150Y1522000D03*
X617850D03*
X653150Y1406000D03*
X646850D03*
X653150Y1415000D03*
X646850D03*
X653150Y1422000D03*
X646850D03*
X646150Y1437000D03*
X639850D03*
X654150Y1479000D03*
X647850D03*
X654150Y1488000D03*
X647850D03*
X654150Y1495000D03*
X647850D03*
X647150Y1510000D03*
X640850D03*
X693150Y1614000D03*
X686850D03*
X697850Y1682900D03*
X707850Y1408000D03*
X714150D03*
X707850Y1424000D03*
X714150D03*
X707750Y1417100D03*
X714050D03*
X710850Y1437300D03*
X717150D03*
X708850Y1480000D03*
X715150D03*
X708850Y1496000D03*
X715150D03*
X708850Y1489600D03*
X715150D03*
X711850Y1509300D03*
X718150D03*
X717850Y1556000D03*
X711150Y1570000D03*
X704850D03*
X714850Y1666000D03*
X704150Y1682900D03*
X730150Y1450000D03*
X723850D03*
X731150Y1522000D03*
X724850D03*
X724150Y1556000D03*
X722850Y1563000D03*
X729150D03*
X735850Y1679000D03*
X721150Y1666000D03*
X760150Y1416000D03*
X753850D03*
X760150Y1407000D03*
X753850D03*
X760150Y1423000D03*
X753850D03*
X753150Y1438000D03*
X746850D03*
X754850Y1495000D03*
Y1488000D03*
Y1479000D03*
X754150Y1510000D03*
X747850D03*
X742150Y1679000D03*
X761150Y1495000D03*
Y1488000D03*
Y1479000D03*
X781150Y1562300D03*
X775850Y1680000D03*
X784850Y1409000D03*
X791150D03*
X784850Y1425000D03*
X791150D03*
X784650Y1418000D03*
X790950D03*
X800850Y1451000D03*
X787850Y1438300D03*
X794150D03*
X785850Y1496000D03*
X792150D03*
X785850Y1480000D03*
X792150D03*
X786350Y1489200D03*
X792650D03*
X788850Y1509300D03*
X795150D03*
X784850Y1556000D03*
X791150D03*
X784850Y1572000D03*
X791150D03*
X787450Y1562300D03*
X800850Y1598000D03*
X787850Y1585300D03*
X794150D03*
X782150Y1680000D03*
X807150Y1451000D03*
X808150Y1522000D03*
X801850D03*
X807150Y1598000D03*
X837150Y1408000D03*
X830850D03*
X837150Y1417000D03*
X830850D03*
X837150Y1424000D03*
X830850D03*
X830150Y1439000D03*
X823850D03*
X838150Y1488000D03*
X831850D03*
X838150Y1495000D03*
X831850D03*
X838150Y1479000D03*
X831850D03*
X831150Y1510000D03*
X824850D03*
X837150Y1555000D03*
X830850D03*
X837150Y1571000D03*
X830850D03*
X837150Y1564000D03*
X830850D03*
X830150Y1586000D03*
X823850D03*
G54D20*
X539945Y1672862D03*
X549000D03*
X558055D03*
G54D11*
X523850Y1409000D03*
X532000Y1413000D03*
X523850Y1425000D03*
X528000Y1431000D03*
X531000Y1434000D03*
X526850Y1438300D03*
X521850Y1496000D03*
Y1480000D03*
X529000Y1484000D03*
X524850Y1509300D03*
X526600Y1502000D03*
X530000Y1505000D03*
X521850Y1556000D03*
Y1572000D03*
X529079Y1561079D03*
X528000Y1577000D03*
X523000Y1579000D03*
X524850Y1585300D03*
X531000Y1655000D03*
X551000Y1392850D03*
X538000D03*
X543000Y1400000D03*
X546000Y1399000D03*
X553000Y1445150D03*
X539850Y1451000D03*
X549000Y1463850D03*
X536000D03*
X541000Y1470000D03*
X544000Y1466000D03*
X551000Y1516150D03*
X537850Y1522000D03*
X549000Y1539850D03*
X536000D03*
X541000Y1544000D03*
X544000Y1542000D03*
X551000Y1592150D03*
X537850Y1598000D03*
X548000Y1690000D03*
X562000Y1392850D03*
X567000Y1401000D03*
X569300Y1433300D03*
X564900Y1434500D03*
X569000Y1439000D03*
X565000Y1472000D03*
X560000Y1463850D03*
X574150Y1495000D03*
Y1488000D03*
Y1479000D03*
X567000Y1510000D03*
X568000Y1500000D03*
X567400Y1503100D03*
X565000Y1548000D03*
X574150Y1555000D03*
X560000Y1539850D03*
X574150Y1571000D03*
Y1564000D03*
X567000Y1586000D03*
X595000Y1391000D03*
X585000D03*
X576150Y1408000D03*
Y1424000D03*
Y1417000D03*
X580169Y1696000D03*
X595700D03*
X615000Y1390850D03*
X600850Y1407000D03*
X609079Y1412079D03*
X600850Y1423000D03*
X603850Y1436300D03*
X604300Y1429600D03*
X607000Y1432100D03*
X616850Y1449000D03*
X616000Y1463850D03*
X601850Y1496000D03*
Y1480000D03*
X609079Y1485079D03*
X604850Y1509300D03*
X607700Y1500500D03*
X607500Y1504700D03*
X628000Y1390850D03*
X621000Y1391000D03*
X623000Y1395000D03*
X620000Y1398000D03*
X630000Y1443150D03*
X629000Y1463850D03*
X621000Y1468000D03*
X624000Y1465000D03*
X631000Y1516150D03*
X617850Y1522000D03*
X639000Y1390850D03*
X644000Y1399000D03*
X653150Y1415000D03*
Y1406000D03*
Y1422000D03*
X646500Y1427100D03*
X641300Y1431800D03*
X646000Y1437000D03*
X645000Y1472000D03*
X640000Y1463850D03*
X654150Y1495000D03*
Y1488000D03*
Y1479000D03*
X647000Y1510000D03*
X648000Y1500000D03*
X642700Y1504200D03*
X652000Y1568000D03*
X670000Y1391000D03*
X671000Y1424000D03*
X668000Y1458000D03*
X677000Y1519000D03*
X673000Y1607000D03*
X658000Y1626000D03*
X670000Y1684000D03*
X697000Y1399000D03*
X683500Y1469500D03*
X691776Y1477776D03*
X682000Y1523000D03*
X678868Y1634736D03*
X681300Y1632600D03*
X693000Y1632000D03*
X698000Y1627000D03*
X687000Y1628000D03*
X693000Y1659000D03*
X684530Y1648452D03*
X697000Y1663000D03*
X691000Y1685000D03*
X707850Y1408000D03*
X716079Y1413079D03*
X707850Y1424000D03*
X714300Y1429200D03*
X716900Y1431500D03*
X710850Y1437300D03*
X708850Y1496000D03*
Y1480000D03*
X717079Y1485079D03*
X711850Y1509300D03*
X713300Y1501300D03*
X715800Y1504100D03*
X699000Y1563000D03*
X710000Y1570000D03*
Y1563000D03*
X711000Y1599000D03*
X699000Y1611000D03*
X703000Y1610000D03*
X705000Y1622048D03*
X699000Y1635000D03*
X709000Y1635621D03*
X717000Y1677000D03*
X712000Y1675000D03*
X735000Y1391850D03*
X722000D03*
X728000Y1391000D03*
X727000Y1398000D03*
X730000Y1397000D03*
X737000Y1444150D03*
X723850Y1450000D03*
X736000Y1463850D03*
X723000D03*
X728000Y1468000D03*
X731000Y1470000D03*
X738000Y1516150D03*
X724850Y1522000D03*
X720000Y1570000D03*
Y1563000D03*
X721000Y1587000D03*
X725000Y1590000D03*
X728890Y1598890D03*
Y1585000D03*
X731000Y1582000D03*
X726297Y1639406D03*
X739654Y1633654D03*
X725000Y1642000D03*
X732000Y1649000D03*
X719751Y1661000D03*
X728000Y1672000D03*
X725000Y1676000D03*
X725100Y1668400D03*
X746000Y1391850D03*
X751000Y1400000D03*
X760150Y1416000D03*
Y1407000D03*
Y1423000D03*
X753800Y1429400D03*
X753500Y1433000D03*
X753000Y1438000D03*
X752000Y1472000D03*
X747000Y1463850D03*
X754000Y1510000D03*
X755804Y1501098D03*
X754400Y1504500D03*
X750000Y1638000D03*
Y1661000D03*
Y1656000D03*
X760000Y1669000D03*
X755000Y1668000D03*
X761150Y1495000D03*
Y1488000D03*
Y1479000D03*
X767000Y1637000D03*
X778000Y1646000D03*
X799000Y1392850D03*
X784850Y1409000D03*
X793079Y1414079D03*
X784850Y1425000D03*
X790100Y1430700D03*
X793000Y1434000D03*
X800850Y1451000D03*
X787850Y1438300D03*
X800000Y1463850D03*
X785850Y1496000D03*
Y1480000D03*
X793079Y1485079D03*
X788850Y1509300D03*
X791800Y1500300D03*
X792400Y1504000D03*
X784850Y1556000D03*
X799000Y1539850D03*
X784850Y1572000D03*
X790700Y1578900D03*
X788700Y1576200D03*
X793079Y1561079D03*
X800850Y1598000D03*
X787850Y1585300D03*
X786989Y1637385D03*
X783000Y1630000D03*
X786000Y1621000D03*
Y1626000D03*
X781000Y1643000D03*
X791000Y1678000D03*
X812000Y1392850D03*
X804000Y1392000D03*
Y1399000D03*
X807000Y1397000D03*
X814000Y1445150D03*
X813000Y1463850D03*
X805000Y1469000D03*
X809000Y1468000D03*
X815000Y1516150D03*
X801850Y1522000D03*
X812000Y1539850D03*
X804000Y1547000D03*
X807000Y1545000D03*
X814000Y1592150D03*
X813000Y1618000D03*
X806000Y1683000D03*
X823000Y1392850D03*
X828000Y1401000D03*
X837150Y1408000D03*
Y1424000D03*
Y1417000D03*
X831000Y1429000D03*
X825100Y1432700D03*
X830000Y1439000D03*
X829000Y1472000D03*
X824000Y1463850D03*
X838150Y1495000D03*
Y1488000D03*
Y1479000D03*
X831000Y1510000D03*
X832000Y1501000D03*
X826500Y1504200D03*
X828000Y1548000D03*
X837150Y1555000D03*
X823000Y1539850D03*
X837150Y1571000D03*
Y1564000D03*
X832000Y1577000D03*
X830000Y1586000D03*
X830200Y1580000D03*
X828000Y1636000D03*
Y1621000D03*
Y1639000D03*
Y1631000D03*
Y1626000D03*
G54D12*
X534344Y1638402D03*
Y1626590D03*
X543400Y1638402D03*
Y1626590D03*
X552456Y1638402D03*
Y1626590D03*
X570568Y1638402D03*
Y1626590D03*
X561512Y1638402D03*
Y1626590D03*
G54D21*
X538665Y1681500D03*
Y1686500D03*
Y1691500D03*
Y1696500D03*
X559335D03*
Y1691500D03*
Y1686500D03*
Y1681500D03*
G54D30*
X633500Y1626846D03*
Y1649154D03*
X648500Y1626846D03*
X643500D03*
X638500D03*
Y1649154D03*
X643500D03*
X648500D03*
G54D13*
X531000Y1674150D03*
Y1667850D03*
X525000Y1674150D03*
Y1667850D03*
X531000Y1689850D03*
Y1696150D03*
X524000Y1689850D03*
Y1696150D03*
X538000Y1392850D03*
X551000D03*
X538000Y1399150D03*
X551000D03*
X553000Y1445150D03*
Y1438850D03*
X536000Y1463850D03*
Y1470150D03*
X549000Y1463850D03*
Y1470150D03*
X551000Y1516150D03*
Y1509850D03*
X536000Y1539850D03*
Y1546150D03*
X549000Y1539850D03*
Y1546150D03*
X551000Y1592150D03*
Y1585850D03*
X562000Y1392850D03*
Y1399150D03*
X560000Y1463850D03*
Y1470150D03*
Y1539850D03*
Y1546150D03*
X574000Y1676850D03*
X567000D03*
X574000Y1683150D03*
X567000Y1689850D03*
Y1696150D03*
Y1683150D03*
X574000Y1689850D03*
Y1696150D03*
X615000Y1390850D03*
Y1397150D03*
X616000Y1463850D03*
Y1470150D03*
X628000Y1390850D03*
Y1397150D03*
X630000Y1436850D03*
Y1443150D03*
X629000Y1463850D03*
Y1470150D03*
X631000Y1516150D03*
Y1509850D03*
X639000Y1390850D03*
Y1397150D03*
X640000Y1463850D03*
Y1470150D03*
X655000Y1649150D03*
Y1642850D03*
X689000Y1652150D03*
Y1645850D03*
X698600Y1667550D03*
Y1673850D03*
X704700Y1667550D03*
Y1673850D03*
X735000Y1391850D03*
X722000D03*
X735000Y1398150D03*
X722000D03*
X737000Y1444150D03*
Y1437850D03*
X723000Y1463850D03*
Y1470150D03*
X736000Y1463850D03*
Y1470150D03*
X738000Y1516150D03*
Y1509850D03*
X726000Y1654150D03*
Y1647850D03*
X746000Y1391850D03*
Y1398150D03*
X747000Y1463850D03*
Y1470150D03*
X759000Y1577850D03*
X750000Y1597850D03*
X759000Y1584150D03*
X750000Y1604150D03*
X766000Y1654850D03*
Y1661150D03*
X799000Y1392850D03*
Y1399150D03*
X800000Y1463850D03*
Y1470150D03*
X799000Y1539850D03*
Y1546150D03*
X812000Y1392850D03*
Y1399150D03*
X814000Y1445150D03*
Y1438850D03*
X813000Y1463850D03*
Y1470150D03*
X815000Y1516150D03*
Y1509850D03*
X812000Y1539850D03*
Y1546150D03*
X814000Y1592150D03*
Y1585850D03*
X823000Y1392850D03*
Y1399150D03*
X824000Y1463850D03*
Y1470150D03*
X823000Y1539850D03*
Y1546150D03*
G54D22*
X589900Y1453700D03*
Y1524000D03*
X774500Y1453700D03*
Y1524000D03*
G54D31*
X655000Y1637900D03*
Y1628100D03*
G54D40*
X717079Y1577024D03*
X715110D03*
X713142D03*
X711173D03*
X709205D03*
X707236D03*
X705268D03*
X703299D03*
X701331D03*
X699362D03*
Y1604976D03*
X701331D03*
X703299D03*
X705268D03*
X707236D03*
X709205D03*
X711173D03*
X713142D03*
X715110D03*
X717079D03*
X736764Y1577024D03*
X734795D03*
X732827D03*
X730858D03*
X728890D03*
X726921D03*
X724953D03*
X722984D03*
X721016D03*
X719047D03*
Y1604976D03*
X721016D03*
X722984D03*
X724953D03*
X726921D03*
X728890D03*
X730858D03*
X732827D03*
X734795D03*
X736764D03*
X744638Y1577024D03*
X742669D03*
X740701D03*
X738732D03*
Y1604976D03*
X740701D03*
X742669D03*
X744638D03*
G54D32*
X657330Y1697000D03*
X671110D03*
X678110D03*
X691890D03*
X792890D03*
X806670D03*
X814670D03*
X828450D03*
G54D14*
X550000Y1419000D03*
X548000Y1490000D03*
Y1566000D03*
X627000Y1417000D03*
X628000Y1490000D03*
X734000Y1418000D03*
X735000Y1490000D03*
X811000Y1419000D03*
X812000Y1490000D03*
X811000Y1566000D03*
G54D41*
X715087Y1640256D03*
X713512D03*
X711937D03*
X710362D03*
X708787D03*
X707213D03*
X705638D03*
X704063D03*
X702488D03*
X700913D03*
Y1659744D03*
X702488D03*
X704063D03*
X705638D03*
X707213D03*
X708787D03*
X710362D03*
X711937D03*
X713512D03*
X715087D03*
G54D50*
X758311Y1642862D03*
X756933D03*
Y1647138D03*
X758311D03*
X761067Y1642862D03*
X759689D03*
Y1647138D03*
X761067D03*
G54D23*
X609906Y1541000D03*
X598094D03*
X662094Y1540000D03*
X673906D03*
G54D24*
X609906Y1551944D03*
X598094D03*
X609906Y1561000D03*
X598094D03*
X609906Y1570056D03*
X598094D03*
X609906Y1579112D03*
X598094D03*
X609906Y1588168D03*
X598094D03*
X609906Y1597224D03*
X598094D03*
X609906Y1615336D03*
X598094D03*
X609906Y1606280D03*
X598094D03*
X609906Y1642504D03*
X598094D03*
X609906Y1624392D03*
X598094D03*
X609906Y1633448D03*
X598094D03*
X609906Y1660616D03*
X598094D03*
X609906Y1651560D03*
X598094D03*
X626529Y1657605D03*
Y1675717D03*
Y1666661D03*
Y1684773D03*
X638341Y1657605D03*
Y1675717D03*
Y1666661D03*
Y1684773D03*
X669094Y1403000D03*
X662094Y1559944D03*
X673906D03*
X662094Y1550888D03*
X673906D03*
X662094Y1569000D03*
X673906D03*
X662094Y1578056D03*
X673906D03*
X680906Y1403000D03*
G54D42*
X708000Y1650000D03*
G54D51*
X755441Y1660772D03*
X758000D03*
Y1653228D03*
X755441D03*
X760559Y1660772D03*
Y1653228D03*
G54D15*
X552953Y1405417D03*
X550984D03*
X549016D03*
X547047D03*
X545079D03*
X543110D03*
X541142D03*
X539173D03*
Y1432583D03*
X541142D03*
X543110D03*
X545079D03*
X547047D03*
X549016D03*
X550984D03*
X552953D03*
X552921Y1476417D03*
X550953D03*
X548984D03*
X547016D03*
X545047D03*
X543079D03*
X541110D03*
X539142D03*
X537173D03*
Y1503583D03*
X539142D03*
X541110D03*
X543079D03*
X545047D03*
X547016D03*
X548984D03*
X550953D03*
X552921D03*
Y1552417D03*
X550953D03*
X548984D03*
X547016D03*
X545047D03*
X543079D03*
X541110D03*
X539142D03*
X537173D03*
Y1579583D03*
X539142D03*
X541110D03*
X543079D03*
X545047D03*
X547016D03*
X548984D03*
X550953D03*
X552921D03*
X560827Y1405417D03*
X558858D03*
X556890D03*
X554921D03*
Y1432583D03*
X556890D03*
X558858D03*
X560827D03*
X558827Y1476417D03*
X556858D03*
X554890D03*
Y1503583D03*
X556858D03*
X558827D03*
Y1552417D03*
X556858D03*
X554890D03*
Y1579583D03*
X556858D03*
X558827D03*
X633890Y1403417D03*
X631921D03*
X629953D03*
X627984D03*
X626016D03*
X624047D03*
X622079D03*
X620110D03*
X618142D03*
X616173D03*
Y1430583D03*
X618142D03*
X620110D03*
X622079D03*
X624047D03*
X626016D03*
X627984D03*
X629953D03*
X631921D03*
X633890D03*
X634890Y1476417D03*
X632921D03*
X630953D03*
X628984D03*
X627016D03*
X625047D03*
X623079D03*
X621110D03*
X619142D03*
X617173D03*
Y1503583D03*
X619142D03*
X621110D03*
X623079D03*
X625047D03*
X627016D03*
X628984D03*
X630953D03*
X632921D03*
X634890D03*
X637827Y1403417D03*
X635858D03*
Y1430583D03*
X637827D03*
X638827Y1476417D03*
X636858D03*
Y1503583D03*
X638827D03*
X736953Y1404417D03*
X734984D03*
X733016D03*
X731047D03*
X729079D03*
X727110D03*
X725142D03*
X723173D03*
Y1431583D03*
X725142D03*
X727110D03*
X729079D03*
X731047D03*
X733016D03*
X734984D03*
X736953D03*
X737953Y1476417D03*
X735984D03*
X734016D03*
X732047D03*
X730079D03*
X728110D03*
X726142D03*
X724173D03*
Y1503583D03*
X726142D03*
X728110D03*
X730079D03*
X732047D03*
X734016D03*
X735984D03*
X737953D03*
X744827Y1404417D03*
X742858D03*
X740890D03*
X738921D03*
Y1431583D03*
X740890D03*
X742858D03*
X744827D03*
X745827Y1476417D03*
X743858D03*
X741890D03*
X739921D03*
Y1503583D03*
X741890D03*
X743858D03*
X745827D03*
X819858Y1405417D03*
X817890D03*
X815921D03*
X813953D03*
X811984D03*
X810016D03*
X808047D03*
X806079D03*
X804110D03*
X802142D03*
X800173D03*
Y1432583D03*
X802142D03*
X804110D03*
X806079D03*
X808047D03*
X810016D03*
X811984D03*
X813953D03*
X815921D03*
X817890D03*
X819858D03*
X818890Y1476417D03*
X816921D03*
X814953D03*
X812984D03*
X811016D03*
X809047D03*
X807079D03*
X805110D03*
X803142D03*
X801173D03*
Y1503583D03*
X803142D03*
X805110D03*
X807079D03*
X809047D03*
X811016D03*
X812984D03*
X814953D03*
X816921D03*
X818890D03*
X819858Y1552417D03*
X817890D03*
X815921D03*
X813953D03*
X811984D03*
X810016D03*
X808047D03*
X806079D03*
X804110D03*
X802142D03*
X800173D03*
Y1579583D03*
X802142D03*
X804110D03*
X806079D03*
X808047D03*
X810016D03*
X811984D03*
X813953D03*
X815921D03*
X817890D03*
X819858D03*
X821827Y1405417D03*
Y1432583D03*
X822827Y1476417D03*
X820858D03*
Y1503583D03*
X822827D03*
X821827Y1552417D03*
Y1579583D03*
G54D33*
X670000Y1391000D03*
X680000D03*
X840000Y1660000D03*
Y1650000D03*
Y1680000D03*
Y1670000D03*
G54D52*
X793366Y1618484D03*
Y1621043D03*
Y1623602D03*
Y1626161D03*
Y1628720D03*
Y1631280D03*
Y1633839D03*
Y1636398D03*
Y1638957D03*
Y1641516D03*
X820634Y1618484D03*
Y1638957D03*
Y1636398D03*
Y1633839D03*
Y1631280D03*
Y1628720D03*
Y1626161D03*
Y1623602D03*
Y1621043D03*
Y1641516D03*
G54D34*
X674000Y1412654D03*
Y1419346D03*
X682000Y1412654D03*
X690000D03*
X682000Y1419346D03*
X690000D03*
X709000Y1632346D03*
Y1625654D03*
X727000Y1619654D03*
X733000D03*
X727000Y1626346D03*
X733000D03*
X766000Y1641654D03*
Y1648346D03*
X773000Y1641654D03*
Y1648346D03*
X793000Y1689346D03*
Y1682654D03*
G54D43*
X717744Y1657087D03*
Y1655512D03*
Y1653937D03*
Y1652362D03*
Y1650787D03*
Y1649213D03*
Y1647638D03*
Y1646063D03*
Y1644488D03*
Y1642913D03*
X698256D03*
Y1644488D03*
Y1646063D03*
Y1647638D03*
Y1649213D03*
Y1650787D03*
Y1652362D03*
Y1653937D03*
Y1655512D03*
Y1657087D03*
G54D25*
X604000Y1672378D03*
G54D16*
X536417Y1408173D03*
Y1410142D03*
Y1412110D03*
Y1414079D03*
Y1416047D03*
Y1418016D03*
Y1419984D03*
Y1421953D03*
Y1423921D03*
Y1425890D03*
Y1427858D03*
Y1429827D03*
X534417Y1479173D03*
Y1481142D03*
Y1483110D03*
Y1485079D03*
Y1487047D03*
Y1489016D03*
Y1490984D03*
Y1492953D03*
Y1494921D03*
Y1496890D03*
Y1498858D03*
Y1500827D03*
Y1555173D03*
Y1557142D03*
Y1559110D03*
Y1561079D03*
Y1563047D03*
Y1565016D03*
Y1566984D03*
Y1568953D03*
Y1570921D03*
Y1572890D03*
Y1574858D03*
Y1576827D03*
X563583Y1414079D03*
Y1412110D03*
Y1410142D03*
Y1408173D03*
Y1429827D03*
Y1427858D03*
Y1425890D03*
Y1423921D03*
Y1421953D03*
Y1419984D03*
Y1418016D03*
Y1416047D03*
X561583Y1494921D03*
Y1492953D03*
Y1490984D03*
Y1489016D03*
Y1487047D03*
Y1485079D03*
Y1483110D03*
Y1481142D03*
Y1479173D03*
Y1500827D03*
Y1498858D03*
Y1496890D03*
Y1557142D03*
Y1555173D03*
Y1576827D03*
Y1574858D03*
Y1572890D03*
Y1570921D03*
Y1568953D03*
Y1566984D03*
Y1565016D03*
Y1563047D03*
Y1561079D03*
Y1559110D03*
X613417Y1406173D03*
Y1408142D03*
Y1410110D03*
Y1412079D03*
Y1414047D03*
Y1416016D03*
Y1417984D03*
Y1419953D03*
Y1421921D03*
Y1423890D03*
Y1425858D03*
Y1427827D03*
X614417Y1479173D03*
Y1481142D03*
Y1483110D03*
Y1485079D03*
Y1487047D03*
Y1489016D03*
Y1490984D03*
Y1492953D03*
Y1494921D03*
Y1496890D03*
Y1498858D03*
Y1500827D03*
X640583Y1414047D03*
Y1412079D03*
Y1410110D03*
Y1408142D03*
Y1406173D03*
Y1427827D03*
Y1425858D03*
Y1423890D03*
Y1421921D03*
Y1419953D03*
Y1417984D03*
Y1416016D03*
X641583Y1494921D03*
Y1492953D03*
Y1490984D03*
Y1489016D03*
Y1487047D03*
Y1485079D03*
Y1483110D03*
Y1481142D03*
Y1479173D03*
Y1500827D03*
Y1498858D03*
Y1496890D03*
X720417Y1407173D03*
Y1409142D03*
Y1411110D03*
Y1413079D03*
Y1415047D03*
Y1417016D03*
Y1418984D03*
Y1420953D03*
Y1422921D03*
Y1424890D03*
Y1426858D03*
Y1428827D03*
X721417Y1479173D03*
Y1481142D03*
Y1483110D03*
Y1485079D03*
Y1487047D03*
Y1489016D03*
Y1490984D03*
Y1492953D03*
Y1494921D03*
Y1496890D03*
Y1498858D03*
Y1500827D03*
X747583Y1413079D03*
Y1411110D03*
Y1409142D03*
Y1407173D03*
Y1428827D03*
Y1426858D03*
Y1424890D03*
Y1422921D03*
Y1420953D03*
Y1418984D03*
Y1417016D03*
Y1415047D03*
X748583Y1494921D03*
Y1492953D03*
Y1490984D03*
Y1489016D03*
Y1487047D03*
Y1485079D03*
Y1483110D03*
Y1481142D03*
Y1479173D03*
Y1500827D03*
Y1498858D03*
Y1496890D03*
X797417Y1408173D03*
Y1410142D03*
Y1412110D03*
Y1414079D03*
Y1416047D03*
Y1418016D03*
Y1419984D03*
Y1421953D03*
Y1423921D03*
Y1425890D03*
Y1427858D03*
Y1429827D03*
X798417Y1479173D03*
Y1481142D03*
Y1483110D03*
Y1485079D03*
Y1487047D03*
Y1489016D03*
Y1490984D03*
Y1492953D03*
Y1494921D03*
Y1496890D03*
Y1498858D03*
Y1500827D03*
X797417Y1555173D03*
Y1557142D03*
Y1559110D03*
Y1561079D03*
Y1563047D03*
Y1565016D03*
Y1566984D03*
Y1568953D03*
Y1570921D03*
Y1572890D03*
Y1574858D03*
Y1576827D03*
X824583Y1414079D03*
Y1412110D03*
Y1410142D03*
Y1408173D03*
Y1429827D03*
Y1427858D03*
Y1425890D03*
Y1423921D03*
Y1421953D03*
Y1419984D03*
Y1418016D03*
Y1416047D03*
X825583Y1494921D03*
Y1492953D03*
Y1490984D03*
Y1489016D03*
Y1487047D03*
Y1485079D03*
Y1483110D03*
Y1481142D03*
Y1479173D03*
Y1500827D03*
Y1498858D03*
Y1496890D03*
X824583Y1557142D03*
Y1555173D03*
Y1576827D03*
Y1574858D03*
Y1572890D03*
Y1570921D03*
Y1568953D03*
Y1566984D03*
Y1565016D03*
Y1563047D03*
Y1561079D03*
Y1559110D03*
G54D44*
X704306Y1690945D03*
X723695D03*
G54D35*
X673500Y1458224D03*
Y1477776D03*
X688500Y1458224D03*
X683500D03*
X678500D03*
Y1477776D03*
X683500D03*
X688500D03*
G54D53*
X800248Y1648780D03*
X793752D03*
Y1655220D03*
X800248D03*
G54D26*
X604000Y1696000D03*
G54D17*
X541191Y1410158D03*
Y1413658D03*
X548191Y1410158D03*
X551691D03*
X544691Y1413658D03*
X548191D03*
X551691D03*
X544691Y1410158D03*
X541191Y1420658D03*
Y1424158D03*
Y1427658D03*
Y1417158D03*
X544691Y1427658D03*
X548191D03*
X551691D03*
X544691Y1417158D03*
X548191D03*
X551691D03*
X544691Y1420658D03*
X548191D03*
X551691D03*
X544691Y1424158D03*
X548191D03*
X551691D03*
X536000Y1444000D03*
X542591Y1488258D03*
X546091D03*
X549591D03*
X553091D03*
X542591Y1491758D03*
X546091D03*
X549591D03*
X553091D03*
X542591Y1495258D03*
X546091D03*
X549591D03*
X553091D03*
X542591Y1481258D03*
X546091D03*
X549591D03*
X553091D03*
X542591Y1484758D03*
X546091D03*
X549591D03*
X553091D03*
X539091Y1488258D03*
Y1491758D03*
Y1495258D03*
Y1481258D03*
Y1484758D03*
X534000Y1515000D03*
X542591Y1498758D03*
X546091D03*
X553091D03*
X549591D03*
X539091D03*
X546264Y1557369D03*
X542764D03*
X549764D03*
X539264D03*
X553264D03*
X546264Y1574869D03*
X542764D03*
X539264Y1567869D03*
X542764D03*
X549764Y1574869D03*
X539264Y1571369D03*
Y1574869D03*
X549764Y1571369D03*
X553264D03*
X546264D03*
X542764D03*
X539264Y1560869D03*
X542764D03*
X546264D03*
X549764D03*
X553264D03*
X539264Y1564369D03*
X542764D03*
X546264D03*
X549764D03*
X553264D03*
Y1574869D03*
X546264Y1567869D03*
X549764D03*
X553264D03*
X534000Y1591000D03*
X555191Y1413658D03*
X558691D03*
X555191Y1410158D03*
X558691D03*
X555191Y1424158D03*
X558691D03*
X555191Y1427658D03*
X558691D03*
X555191Y1417158D03*
X558691D03*
X555191Y1420658D03*
X558691D03*
X563000Y1442000D03*
X556591Y1488258D03*
Y1491758D03*
Y1495258D03*
Y1481258D03*
Y1484758D03*
X561000Y1513000D03*
X556591Y1498758D03*
X556764Y1557369D03*
Y1571369D03*
Y1560869D03*
Y1564369D03*
Y1574869D03*
Y1567869D03*
X561000Y1589000D03*
X588126Y1666902D03*
Y1672378D03*
Y1677855D03*
X592126Y1672378D03*
Y1679331D03*
X588126Y1683331D03*
X593417D03*
X613000Y1442000D03*
X614000Y1515000D03*
X605513Y1536184D03*
X613513D03*
X605513Y1544184D03*
X613513D03*
X605513Y1552184D03*
X613513D03*
X605513Y1560184D03*
X613513D03*
X605513Y1568184D03*
X613513D03*
X605513Y1576184D03*
X613513D03*
X605513Y1584184D03*
X613513D03*
X605513Y1592184D03*
X613513D03*
X605513Y1600184D03*
X613513D03*
X605513Y1608184D03*
X613513D03*
X605513Y1616184D03*
X613513D03*
X605513Y1624184D03*
X613513D03*
X605513Y1632184D03*
X613513D03*
X605513Y1640184D03*
X613513D03*
Y1648184D03*
X605513Y1656184D03*
X613513D03*
X605513Y1648184D03*
X598063Y1679331D03*
X604000D03*
X609937D03*
X605513Y1664184D03*
X613513D03*
X598709Y1683331D03*
X604000D03*
X609291D03*
X614583D03*
X598500Y1695541D03*
X602000D03*
X605500D03*
X609000D03*
X612500D03*
Y1692041D03*
X609000D03*
X605500D03*
X602000D03*
X598500D03*
X618291Y1408358D03*
Y1411858D03*
X621791Y1408358D03*
X625291D03*
X628791D03*
X632291D03*
X635791D03*
X621791Y1411858D03*
X625291D03*
X628791D03*
X632291D03*
X635791D03*
Y1418858D03*
X621791Y1422358D03*
X625291D03*
X628791D03*
X632291D03*
X635791D03*
X621791Y1425858D03*
X625291D03*
X632291D03*
X635791D03*
X628791D03*
X618291Y1415358D03*
Y1418858D03*
Y1422358D03*
Y1425858D03*
X632291Y1418858D03*
X625291D03*
X628791D03*
X621791Y1415358D03*
X625291D03*
X628791D03*
X632291D03*
X635791D03*
X621791Y1418858D03*
X619291Y1484958D03*
X629791Y1488458D03*
X633291D03*
X622791Y1491958D03*
X626291D03*
X629791D03*
X633291D03*
X622791Y1495458D03*
X626291D03*
X629791D03*
X633291D03*
X622791Y1481458D03*
X626291D03*
X629791D03*
X633291D03*
X622791Y1484958D03*
X626291D03*
X629791D03*
X633291D03*
X619291Y1488458D03*
Y1491958D03*
Y1495458D03*
Y1481458D03*
X622791Y1488458D03*
X626291D03*
X622791Y1498958D03*
X626291D03*
X633291D03*
X629791D03*
X619291D03*
X617513Y1540184D03*
Y1548184D03*
Y1556184D03*
Y1564184D03*
Y1572184D03*
Y1580184D03*
Y1588184D03*
Y1596184D03*
Y1604184D03*
Y1612184D03*
X633460Y1634189D03*
X617513Y1620184D03*
Y1628184D03*
Y1636184D03*
X633460Y1641811D03*
X617513Y1652184D03*
Y1660184D03*
Y1644184D03*
X633500Y1650041D03*
X619874Y1677854D03*
Y1672378D03*
X615874Y1679331D03*
Y1672378D03*
X619874Y1683331D03*
X616000Y1695541D03*
X619500D03*
X623000D03*
X626500D03*
X630000D03*
X633500D03*
X616000Y1692041D03*
X640000Y1440000D03*
X636791Y1488458D03*
Y1491958D03*
Y1495458D03*
Y1481458D03*
Y1484958D03*
X641000Y1513000D03*
X636791Y1498958D03*
X655644Y1534157D03*
Y1542157D03*
Y1550157D03*
Y1558157D03*
Y1566157D03*
Y1574157D03*
X648539Y1634189D03*
X643513D03*
X638486D03*
Y1641811D03*
X643513D03*
X648539D03*
X637000Y1650041D03*
Y1653541D03*
Y1657041D03*
X640500D03*
X637000Y1660541D03*
X640500D03*
X637000Y1664041D03*
X640500D03*
X637000Y1667541D03*
X640500D03*
X637000Y1671041D03*
X640500D03*
X637000Y1674541D03*
X640500D03*
X637000Y1678041D03*
X640500D03*
X637000Y1688541D03*
X640500D03*
X637000Y1692041D03*
X640500D03*
X637000Y1695541D03*
X640500D03*
Y1685041D03*
X637000D03*
X640500Y1681541D03*
X637000D03*
X659644Y1538157D03*
Y1546157D03*
Y1554157D03*
Y1562157D03*
Y1570157D03*
Y1578157D03*
X728691Y1409558D03*
X732191D03*
X735691D03*
X728691Y1413058D03*
X732191D03*
X735691D03*
X725191Y1409558D03*
Y1413058D03*
X735691Y1416558D03*
X728691Y1420058D03*
X732191D03*
X735691D03*
X728691Y1423558D03*
X732191D03*
X735691D03*
X728691Y1427058D03*
X732191D03*
X735691D03*
X725191Y1416558D03*
Y1420058D03*
Y1423558D03*
Y1427058D03*
X728691Y1416558D03*
X732191D03*
X720000Y1443000D03*
X726391Y1484758D03*
X729891Y1488258D03*
X733391D03*
X736891D03*
X729891Y1491758D03*
X733391D03*
X736891D03*
X729891Y1495258D03*
X733391D03*
X736891D03*
X729891Y1481258D03*
X733391D03*
X736891D03*
X729891Y1484758D03*
X733391D03*
X736891D03*
X726391Y1488258D03*
Y1491758D03*
Y1495258D03*
Y1481258D03*
X721000Y1515000D03*
X729891Y1498758D03*
X733391D03*
X736891D03*
X726391D03*
X739191Y1409558D03*
X742691D03*
X739191Y1413058D03*
X742691D03*
X739191Y1416558D03*
X742691D03*
X739191Y1420058D03*
X742691D03*
X739191Y1423558D03*
X742691D03*
X739191Y1427058D03*
X742691D03*
X747000Y1441000D03*
X740391Y1488258D03*
X743891D03*
X740391Y1491758D03*
X743891D03*
X740391Y1495258D03*
X743891D03*
X740391Y1481258D03*
X743891D03*
X740391Y1484758D03*
X743891D03*
X748000Y1513000D03*
X740391Y1498758D03*
X743891D03*
X797000Y1444000D03*
X798000Y1515000D03*
X797000Y1591000D03*
X802391Y1413858D03*
X805891Y1410358D03*
X809391D03*
X812891D03*
X816391D03*
X819891D03*
X805891Y1413858D03*
X809391D03*
X812891D03*
X816391D03*
X819891D03*
X802391Y1410358D03*
X805891Y1424358D03*
X809391D03*
X812891D03*
X816391D03*
X819891D03*
X805891Y1427858D03*
X809391D03*
X816391D03*
X819891D03*
X812891D03*
X802391Y1417358D03*
Y1420858D03*
Y1424358D03*
Y1427858D03*
X805891Y1417358D03*
X809391D03*
X812891D03*
X816391D03*
X819891D03*
X805891Y1420858D03*
X809391D03*
X812891D03*
X816391D03*
X819891D03*
X803191Y1484858D03*
X806691Y1488358D03*
X810191D03*
X813691D03*
X817191D03*
X820691D03*
X806691Y1491858D03*
X810191D03*
X813691D03*
X817191D03*
X820691D03*
X806691Y1495358D03*
X810191D03*
X813691D03*
X817191D03*
X820691D03*
X806691Y1481358D03*
X810191D03*
X813691D03*
X817191D03*
X820691D03*
X806691Y1484858D03*
X810191D03*
X813691D03*
X817191D03*
X820691D03*
X803191Y1488358D03*
Y1491858D03*
Y1495358D03*
Y1481358D03*
X806691Y1498858D03*
X810191D03*
X817191D03*
X820691D03*
X813691D03*
X803191D03*
X805791Y1557458D03*
X809291D03*
X812791D03*
X816291D03*
X819791D03*
X802291D03*
X805791Y1564458D03*
X809291D03*
X812791D03*
X816291D03*
X819791D03*
X805791Y1567958D03*
X809291D03*
X812791D03*
X816291D03*
X819791D03*
X805791Y1571458D03*
X809291D03*
X812791D03*
X816291D03*
X819791D03*
X805791Y1574958D03*
X809291D03*
X816291D03*
X819791D03*
X812791D03*
X805791Y1560958D03*
X809291D03*
X812791D03*
X816291D03*
X819791D03*
X802291Y1564458D03*
Y1567958D03*
Y1571458D03*
Y1574958D03*
Y1560958D03*
X824000Y1442000D03*
X825000Y1513000D03*
X824000Y1589000D03*
G54D54*
G01X531000Y1667850D02*
X537471D01*
X537552Y1667769D01*
X543907D01*
X544346Y1668208D01*
X546167D01*
X549000Y1671041D01*
Y1672862D01*
G01X525000Y1667850D02*
X531000D01*
G01Y1696150D02*
X524000D01*
G01X538665Y1696500D02*
X531350D01*
X531000Y1696150D01*
G01X574000Y1676850D02*
X574099D01*
X577469Y1680220D01*
Y1696150D01*
G01X567000Y1676850D02*
X574000D01*
G01X558055Y1672862D02*
X562913D01*
X566901Y1676850D01*
X567000D01*
G01Y1696150D02*
X574000D01*
G01X559335Y1696500D02*
X566650D01*
X567000Y1696150D01*
G01X577469D02*
X574000D01*
G01X580169Y1696000D02*
X580000D01*
X579850Y1696150D01*
X577469D01*
G54D45*
X708882Y1689528D03*
X711441D03*
X714000D03*
X716559D03*
X719118D03*
G54D18*
X546346Y1444000D03*
X539654D03*
X544346Y1515000D03*
X537654D03*
X544346Y1591000D03*
X537654D03*
X616654Y1442000D03*
X623346D03*
X624346Y1515000D03*
X617654D03*
X656654Y1689000D03*
X677654D03*
X663346D03*
X682654Y1487000D03*
X689346D03*
X684346Y1689000D03*
X704654Y1563000D03*
X711346D03*
X730346Y1443000D03*
X723654D03*
X731346Y1515000D03*
X724654D03*
X729346Y1570000D03*
X722654D03*
X739654Y1620000D03*
Y1613000D03*
X733346D03*
X726654D03*
X739654Y1627000D03*
X746346Y1620000D03*
Y1613000D03*
X753654Y1637000D03*
X760346D03*
X746346Y1627000D03*
X800654Y1444000D03*
Y1591000D03*
X807346Y1444000D03*
X808346Y1515000D03*
X801654D03*
X807346Y1591000D03*
X815346Y1689000D03*
X808654D03*
G54D36*
X664220Y1694441D03*
X685000D03*
X799780D03*
X821560D03*
G54D27*
X637000Y1549878D03*
Y1560122D03*
G54D55*
G01X531000Y1667850D02*
Y1655000D01*
G01X538665Y1696500D02*
X546400D01*
X548000Y1694900D01*
Y1690000D01*
G01X668000Y1458000D02*
X670500D01*
X670724Y1458224D01*
X673500D01*
G01X711000Y1599000D02*
X690204D01*
X686260Y1602944D01*
Y1607000D01*
G01D02*
Y1607689D01*
X688964Y1610393D01*
G01X693075Y1613925D02*
X693150Y1614000D01*
G01X688964Y1610393D02*
X692496Y1613925D01*
X693075D01*
G01X684530Y1648452D02*
X686398D01*
X689000Y1645850D01*
G01X711000Y1599000D02*
Y1601832D01*
X711105Y1601937D01*
Y1604908D01*
X711173Y1604976D01*
G01X714850Y1666000D02*
X719751Y1661099D01*
Y1661000D01*
G01X728890Y1585000D02*
Y1583426D01*
X726921Y1581457D01*
Y1577024D01*
G01X728890Y1585000D02*
X746684D01*
X746944Y1584740D01*
X751000D01*
G01X728890Y1598890D02*
Y1604976D01*
G01X755731Y1584150D02*
X759000D01*
G01X754656Y1584740D02*
X755141D01*
X755731Y1584150D01*
G01X751000Y1584740D02*
X754656D01*
G01X793366Y1633839D02*
X780815D01*
X775889Y1638765D01*
Y1639159D01*
X773394Y1641654D01*
X773000D01*
G01X767952Y1637000D02*
X767000D01*
G01X773000Y1641654D02*
Y1638779D01*
X771221Y1637000D01*
X767952D01*
G01X793366Y1633839D02*
X807773D01*
G01X793366Y1623602D02*
X800601D01*
X807773Y1630774D01*
G01X820634Y1628720D02*
X809827D01*
X807773Y1630774D01*
G01Y1633839D02*
Y1630774D01*
G01Y1641383D02*
Y1633839D01*
G01X800248Y1648780D02*
X800376D01*
X807773Y1641383D01*
G01X820634Y1641516D02*
X807906D01*
X807773Y1641383D01*
G54D46*
X710703Y1700000D03*
X717297D03*
G54D28*
X637000Y1576700D03*
Y1615300D03*
G54D19*
X549000Y1649138D03*
G54D37*
X690000Y1391000D03*
X840000Y1640000D03*
G54D56*
G01X530150Y1409000D02*
X531292Y1410142D01*
X536417D01*
G01Y1414079D02*
X533079D01*
X532000Y1413000D01*
G01X530150Y1425000D02*
X532920D01*
X533810Y1425890D01*
X536417D01*
G01Y1427858D02*
X533942D01*
X530800Y1431000D01*
X528000D01*
G01X536417Y1429827D02*
X533942D01*
X531000Y1432769D01*
Y1434000D01*
G01X536417Y1418016D02*
X535046D01*
X534230Y1417200D01*
X530850D01*
G01X534417Y1496890D02*
X531810D01*
X530920Y1496000D01*
X528150D01*
G01X534417Y1481142D02*
X529292D01*
X528150Y1480000D01*
G01X534417Y1485079D02*
X530079D01*
X529000Y1484000D01*
G01X534417Y1489016D02*
X529566D01*
X528750Y1488200D01*
G01X534417Y1498858D02*
X534275Y1499000D01*
X530000D01*
X528485Y1500515D01*
X528085D01*
X526600Y1502000D01*
G01X534417Y1500827D02*
X533334D01*
X530000Y1504161D01*
Y1505000D01*
G01X528150Y1556000D02*
X529292Y1557142D01*
X534417D01*
G01X528150Y1572000D02*
X530920D01*
X531810Y1572890D01*
X534417D01*
G01Y1561079D02*
X529079D01*
G01X528000Y1577000D02*
X530904D01*
X532469Y1575435D01*
X533840D01*
X534417Y1574858D01*
G01X523000Y1579000D02*
X527030D01*
X527130Y1579100D01*
X531061D01*
X533334Y1576827D01*
X534417D01*
G01Y1565016D02*
X531604D01*
X530920Y1565700D01*
X528150D01*
G01X532650Y1583900D02*
Y1583801D01*
X535157Y1581294D01*
X535462D01*
X537173Y1579583D01*
G01X551000Y1399150D02*
Y1401920D01*
X550984Y1401936D01*
Y1405417D01*
G01X538000Y1399150D02*
X539173Y1400323D01*
Y1405417D01*
G01X536417Y1408173D02*
X539173D01*
X547047Y1416047D01*
G01X545079Y1405417D02*
Y1402079D01*
X543000Y1400000D01*
G01X547047Y1405417D02*
Y1400047D01*
X546000Y1399000D01*
G01X546346Y1444000D02*
Y1435759D01*
X547047Y1435058D01*
Y1432583D01*
G01X553000Y1438850D02*
Y1436080D01*
X552953Y1436033D01*
Y1432583D01*
G01X550000Y1419000D02*
X547047Y1421953D01*
X536417D01*
G01X547047Y1416047D02*
X550000Y1419000D01*
G01X547047Y1416047D02*
X536417D01*
G01X558858Y1432583D02*
Y1427858D01*
X550000Y1419000D01*
G01X556890Y1412110D02*
X550000Y1419000D01*
G01X536417Y1419984D02*
Y1418016D01*
G01X546346Y1444000D02*
Y1447935D01*
X546150Y1448131D01*
Y1451000D01*
G01X539654Y1444000D02*
X536000D01*
G01X549000Y1470150D02*
Y1472920D01*
X548984Y1472936D01*
Y1476417D01*
G01X536000Y1470150D02*
X537173Y1471323D01*
Y1476417D01*
G01X543079D02*
Y1472079D01*
X541000Y1470000D01*
G01X545047Y1476417D02*
Y1472208D01*
X544000Y1471161D01*
Y1466000D01*
G01X548000Y1490000D02*
X545047Y1492953D01*
X534417D01*
G01X545047Y1487047D02*
X548000Y1490000D01*
G01X534417Y1479173D02*
X537173D01*
X545047Y1487047D01*
G01D02*
X534417D01*
G01X556858Y1503583D02*
Y1498858D01*
X548000Y1490000D01*
G01X554890Y1483110D02*
X548000Y1490000D01*
G01X534417Y1490984D02*
Y1489016D01*
G01X544346Y1515000D02*
Y1506759D01*
X545047Y1506058D01*
Y1503583D01*
G01X544346Y1515000D02*
Y1518935D01*
X544150Y1519131D01*
Y1522000D01*
G01X537654Y1515000D02*
X534000D01*
G01X550953Y1503583D02*
Y1507033D01*
X551000Y1507080D01*
Y1509850D01*
G01X549000Y1546150D02*
Y1548920D01*
X548984Y1548936D01*
Y1552417D01*
G01X536000Y1546150D02*
X537173Y1547323D01*
Y1552417D01*
G01X534417Y1555173D02*
X537173D01*
X545047Y1563047D01*
G01X543079Y1552417D02*
Y1546079D01*
X541000Y1544000D01*
G01X545047Y1552417D02*
Y1543047D01*
X544000Y1542000D01*
G01X548000Y1566000D02*
X545047Y1568953D01*
X534417D01*
G01X545047Y1563047D02*
X548000Y1566000D01*
G01X545047Y1563047D02*
X534417D01*
G01X556858Y1579583D02*
Y1574858D01*
X548000Y1566000D01*
G01X554890Y1559110D02*
X548000Y1566000D01*
G01X534417Y1566984D02*
Y1565016D01*
G01X537654Y1591000D02*
X534000D01*
G01X551000Y1585850D02*
Y1583080D01*
X550953Y1583033D01*
Y1579583D01*
G01X544346Y1591000D02*
Y1582759D01*
X545047Y1582058D01*
Y1579583D01*
G01X544346Y1591000D02*
Y1594935D01*
X544150Y1595131D01*
Y1598000D01*
G01X562000Y1399150D02*
X565150D01*
X567000Y1401000D01*
G01X560827Y1405417D02*
Y1400323D01*
X562000Y1399150D01*
G01X569850Y1408000D02*
X567080D01*
X566907Y1408173D01*
X563583D01*
G01X556890Y1412110D02*
X563583D01*
G01X558858Y1405417D02*
Y1410142D01*
X556890Y1412110D01*
G01X562850Y1439000D02*
Y1435689D01*
X560827Y1433666D01*
Y1432583D01*
G01X569850Y1424000D02*
X567080D01*
X567001Y1423921D01*
X563583D01*
G01X569850Y1417000D02*
X567080D01*
X566064Y1418016D01*
X563583D01*
G01Y1427858D02*
X568500D01*
X569300Y1428658D01*
Y1433300D01*
G01X564900Y1434500D02*
X563583Y1433183D01*
Y1429827D01*
G01X563000Y1442000D02*
Y1439150D01*
X562850Y1439000D01*
G01X569000D02*
X569150D01*
G01X560000Y1470150D02*
X563150D01*
X565000Y1472000D01*
G01X558827Y1476417D02*
Y1471323D01*
X560000Y1470150D01*
G01X561583Y1494921D02*
X565001D01*
X565080Y1495000D01*
X567850D01*
G01X561583Y1489016D02*
X564064D01*
X565080Y1488000D01*
X567850D01*
G01X561583Y1479173D02*
X564907D01*
X565080Y1479000D01*
X567850D01*
G01X554890Y1483110D02*
X561583D01*
G01X556858Y1476417D02*
Y1481142D01*
X554890Y1483110D01*
G01X560850Y1510000D02*
Y1506689D01*
X558827Y1504666D01*
Y1503583D01*
G01X561000Y1513000D02*
Y1510150D01*
X560850Y1510000D01*
G01X567000D02*
X567150D01*
G01X561583Y1498858D02*
X566858D01*
X568000Y1500000D01*
G01X567400Y1503100D02*
X564939D01*
X562666Y1500827D01*
X561583D01*
G01X558827Y1552417D02*
Y1547323D01*
X560000Y1546150D01*
G01D02*
X563150D01*
X565000Y1548000D01*
G01X567850Y1555000D02*
X565080D01*
X564907Y1555173D01*
X561583D01*
G01X556858Y1552417D02*
Y1557142D01*
X554890Y1559110D01*
G01X567850Y1571000D02*
X565080D01*
X565001Y1570921D01*
X561583D01*
G01X567850Y1564000D02*
X565080D01*
X564064Y1565016D01*
X561583D01*
G01Y1559110D02*
X554890D01*
G01X560850Y1586000D02*
Y1582689D01*
X558827Y1580666D01*
Y1579583D01*
G01X561000Y1589000D02*
Y1586150D01*
X560850Y1586000D01*
G01X567000D02*
X567150D01*
G01X585000Y1391000D02*
X595000D01*
G01X613417Y1408142D02*
X608292D01*
X607150Y1407000D01*
G01X616173Y1403417D02*
Y1398323D01*
X615000Y1397150D01*
G01X613417Y1406173D02*
X616173D01*
X624047Y1414047D01*
G01D02*
X613417D01*
G01Y1412079D02*
X609079D01*
G01X613417Y1423890D02*
X610810D01*
X609920Y1423000D01*
X607150D01*
G01X627000Y1417000D02*
X624047Y1419953D01*
X613417D01*
G01X604300Y1429600D02*
X606400D01*
X610142Y1425858D01*
X613417D01*
G01X607000Y1432100D02*
X608954D01*
X612334Y1428720D01*
Y1427827D01*
X613417D01*
G01Y1416016D02*
X610804D01*
X609920Y1416900D01*
X607150D01*
G01X613417Y1417984D02*
Y1416016D01*
G01X616654Y1442000D02*
X613000D01*
G01X614417Y1496890D02*
X611810D01*
X610920Y1496000D01*
X608150D01*
G01X614417Y1481142D02*
X609292D01*
X608150Y1480000D01*
G01X628000Y1490000D02*
X625047Y1492953D01*
X614417D01*
G01Y1479173D02*
X617173D01*
X625047Y1487047D01*
G01D02*
X614417D01*
G01Y1485079D02*
X609079D01*
G01X614417Y1490984D02*
Y1489016D01*
G01X608150Y1489800D02*
X611158D01*
X611942Y1489016D01*
X614417D01*
G01X617654Y1515000D02*
X614000D01*
G01X614417Y1498858D02*
X611442D01*
X609800Y1500500D01*
X607700D01*
G01X607500Y1504700D02*
X611936D01*
X614417Y1502219D01*
Y1500827D01*
G01X621000Y1391000D02*
Y1394030D01*
X620000Y1395030D01*
Y1398000D01*
G01X627984Y1403417D02*
Y1399936D01*
X628000Y1399920D01*
Y1397150D01*
G01X633890Y1410110D02*
X640583D01*
G01X635858Y1403417D02*
Y1408142D01*
X633890Y1410110D01*
G01X624047Y1414047D02*
X627000Y1417000D01*
G01X633890Y1410110D02*
X627000Y1417000D01*
G01X622079Y1403417D02*
Y1400079D01*
X620000Y1398000D01*
G01X624047Y1403417D02*
Y1396047D01*
X623000Y1395000D01*
G01X629953Y1430583D02*
Y1434033D01*
X630000Y1434080D01*
Y1436850D01*
G01X635858Y1430583D02*
Y1425858D01*
X627000Y1417000D01*
G01X623346Y1442000D02*
Y1433759D01*
X624047Y1433058D01*
Y1430583D01*
G01X623346Y1442000D02*
Y1445935D01*
X623150Y1446131D01*
Y1449000D01*
G01X629000Y1470150D02*
Y1472920D01*
X628984Y1472936D01*
Y1476417D01*
G01X616000Y1470150D02*
X617173Y1471323D01*
Y1476417D01*
G01X623079D02*
Y1473942D01*
X621000Y1471863D01*
Y1468000D01*
G01X625047Y1476417D02*
Y1473942D01*
X624000Y1472895D01*
Y1465000D01*
G01X634890Y1483110D02*
X641583D01*
G01X636858Y1476417D02*
Y1481142D01*
X634890Y1483110D01*
G01X625047Y1487047D02*
X628000Y1490000D01*
G01X636858Y1503583D02*
Y1498858D01*
X628000Y1490000D01*
G01X634890Y1483110D02*
X628000Y1490000D01*
G01X630953Y1503583D02*
Y1507033D01*
X631000Y1507080D01*
Y1509850D01*
G01X624346Y1515000D02*
Y1506759D01*
X625047Y1506058D01*
Y1503583D01*
G01X624346Y1515000D02*
Y1518935D01*
X624150Y1519131D01*
Y1522000D01*
G01X639000Y1397150D02*
X642150D01*
X644000Y1399000D01*
G01X637827Y1403417D02*
Y1398323D01*
X639000Y1397150D01*
G01X640583Y1406173D02*
X643907D01*
X644080Y1406000D01*
X646850D01*
G01X639850Y1437000D02*
Y1433689D01*
X637827Y1431666D01*
Y1430583D01*
G01X640583Y1421921D02*
X644001D01*
X644080Y1422000D01*
X646850D01*
G01X640583Y1416016D02*
X643064D01*
X644080Y1415000D01*
X646850D01*
G01X640583Y1425858D02*
X643158D01*
X644400Y1427100D01*
X646500D01*
G01X641300Y1431800D02*
Y1430300D01*
X640583Y1429583D01*
Y1427827D01*
G01X640000Y1440000D02*
Y1437150D01*
X639850Y1437000D01*
G01X646000D02*
X646150D01*
G01X640000Y1470150D02*
X643150D01*
X645000Y1472000D01*
G01X638827Y1476417D02*
Y1471323D01*
X640000Y1470150D01*
G01X641583Y1494921D02*
X645001D01*
X645080Y1495000D01*
X647850D01*
G01X641583Y1489016D02*
X644064D01*
X645080Y1488000D01*
X647850D01*
G01X641583Y1479173D02*
X644907D01*
X645080Y1479000D01*
X647850D01*
G01X640850Y1510000D02*
Y1506689D01*
X638827Y1504666D01*
Y1503583D01*
G01X641000Y1513000D02*
Y1510150D01*
X640850Y1510000D01*
G01X647000D02*
X647150D01*
G01X641583Y1498858D02*
X644058D01*
X645200Y1500000D01*
X648000D01*
G01X642700Y1504200D02*
Y1503700D01*
X641583Y1502583D01*
Y1500827D01*
G01X652000Y1568000D02*
Y1564482D01*
X647640Y1560122D01*
G01D02*
X637000D01*
G01X658000Y1626000D02*
X657100D01*
X655000Y1628100D01*
G01Y1637900D02*
Y1642850D01*
G01Y1637900D02*
X657099D01*
X675998Y1619001D01*
Y1600007D01*
X677090Y1598915D01*
X685000Y1591006D01*
X685469D01*
X685471Y1591004D01*
X685706D01*
X685708Y1591002D01*
X685999D01*
X686000Y1591001D01*
X687000D01*
X687001Y1591000D01*
X696000D01*
X699354Y1587646D01*
Y1581968D01*
X699356Y1581966D01*
Y1581807D01*
X699358Y1581805D01*
Y1580428D01*
X699362Y1580424D01*
Y1577024D01*
G01X648500Y1626846D02*
X653131D01*
X653777Y1626200D01*
X653800D01*
X673000Y1607000D01*
G01X703299Y1577024D02*
Y1581702D01*
X701954Y1583047D01*
Y1592046D01*
X698000Y1596000D01*
X687000D01*
X679002Y1603998D01*
Y1625249D01*
X659169Y1645082D01*
Y1647850D01*
X657869Y1649150D01*
X655000D01*
G01X648500Y1649154D02*
X652127D01*
X652131Y1649150D01*
X655000D01*
G01X643500Y1649154D02*
Y1647924D01*
X645287Y1646137D01*
X648886D01*
X648887Y1646136D01*
X648888D01*
X649018Y1646006D01*
X649021D01*
X649027Y1646000D01*
X656962D01*
X657869Y1645093D01*
Y1644543D01*
X677702Y1624710D01*
Y1602298D01*
X686000Y1594000D01*
X696000D01*
X700654Y1589346D01*
Y1582507D01*
X701331Y1581830D01*
Y1577024D01*
G01X669094Y1403000D02*
Y1395562D01*
X670000Y1394656D01*
Y1391000D01*
G01X680906Y1403000D02*
Y1404280D01*
X678005Y1407181D01*
Y1408649D01*
X676606Y1410048D01*
Y1410442D01*
X674394Y1412654D01*
X674000D01*
G01X671000Y1424000D02*
Y1422346D01*
X674000Y1419346D01*
G01X673500Y1458224D02*
Y1427846D01*
X679394Y1421952D01*
Y1421558D01*
X681606Y1419346D01*
X682000D01*
G01X673500Y1477776D02*
Y1518470D01*
X676130Y1521100D01*
X680100D01*
X682000Y1523000D01*
G01X673906Y1578056D02*
Y1576776D01*
X676807Y1573875D01*
Y1573180D01*
X677070Y1572917D01*
Y1570930D01*
X705000Y1543000D01*
X738000D01*
G01X657330Y1697000D02*
Y1692545D01*
X656654Y1691869D01*
Y1689000D01*
G01X663346D02*
X665821D01*
X670000Y1684821D01*
Y1684000D01*
G01X680000Y1391000D02*
Y1397650D01*
X680906Y1398556D01*
Y1403000D01*
G01X690000Y1391000D02*
Y1395950D01*
X688500Y1397450D01*
Y1399200D01*
G01X690000Y1412654D02*
X682000D01*
G01X688500Y1406700D02*
Y1408679D01*
X690000Y1410179D01*
Y1412654D01*
G01X695500Y1403000D02*
Y1400500D01*
X697000Y1399000D01*
G01X688500Y1458224D02*
Y1423321D01*
X690000Y1421821D01*
Y1419346D01*
G01X683500Y1477776D02*
Y1469500D01*
G01Y1477776D02*
Y1483285D01*
X682654Y1484131D01*
Y1487000D01*
G01X678500Y1477776D02*
Y1499500D01*
X677000Y1501000D01*
Y1519000D01*
G01X689346Y1487000D02*
Y1484131D01*
X688500Y1483285D01*
Y1477776D01*
G01D02*
X691776D01*
G01X688964Y1610393D02*
X689543D01*
X693075Y1613925D01*
G01X699362Y1604976D02*
X695764D01*
X693740Y1607000D01*
G01X678868Y1634736D02*
X680353Y1636221D01*
X685221D01*
X695063Y1646063D01*
X698256D01*
G01X681300Y1632600D02*
X683400Y1634700D01*
X685539D01*
X690839Y1640000D01*
X692000D01*
X692780Y1640780D01*
X692881D01*
X694169Y1642068D01*
Y1642778D01*
X695254Y1643862D01*
Y1643863D01*
X695879Y1644488D01*
X698256D01*
G01X693000Y1632000D02*
X700829D01*
X703531Y1634702D01*
Y1635372D01*
X704063Y1635904D01*
Y1640256D01*
G01X705638D02*
Y1637068D01*
X705600Y1637030D01*
Y1635602D01*
X704831Y1634833D01*
Y1634163D01*
X701368Y1630700D01*
X695700D01*
X693000Y1628000D01*
X687000D01*
G01X698256Y1657087D02*
X694913D01*
X693000Y1659000D01*
G01X698256Y1647638D02*
X690788D01*
X689000Y1645850D01*
G01Y1652150D02*
X692942D01*
X695879Y1649213D01*
G01D02*
X698256D01*
G01X700913Y1659744D02*
X699619D01*
X697000Y1662363D01*
Y1663000D01*
G01X678110Y1697000D02*
Y1692325D01*
X677654Y1691869D01*
Y1689000D01*
G01X691000Y1685000D02*
X687952D01*
X684346Y1688606D01*
Y1689000D01*
G01X720417Y1409142D02*
X715292D01*
X714150Y1408000D01*
G01X720417Y1413079D02*
X716079D01*
G01X720417Y1424890D02*
X717810D01*
X716920Y1424000D01*
X714150D01*
G01X720417Y1426858D02*
X716642D01*
X714300Y1429200D01*
G01X716900Y1431500D02*
Y1429400D01*
X717473Y1428827D01*
X720417D01*
G01Y1417016D02*
X716904D01*
X716820Y1417100D01*
X714050D01*
G01X721417Y1496890D02*
X718810D01*
X717920Y1496000D01*
X715150D01*
G01X721417Y1481142D02*
X716292D01*
X715150Y1480000D01*
G01X721417Y1485079D02*
X717079D01*
G01X721417Y1489016D02*
X718504D01*
X717920Y1489600D01*
X715150D01*
G01X721417Y1498858D02*
X718942D01*
X716500Y1501300D01*
X713300D01*
G01X715800Y1504100D02*
X719900D01*
X721417Y1502583D01*
Y1500827D01*
G01X704850Y1570000D02*
Y1566065D01*
X704654Y1565869D01*
Y1563000D01*
G01X711173Y1577024D02*
Y1574619D01*
X710178Y1573624D01*
X708375D01*
X704850Y1570099D01*
Y1570000D01*
G01X699000Y1563000D02*
X704654D01*
G01X713142Y1577024D02*
Y1571992D01*
X711150Y1570000D01*
G01X710000D02*
X711150D01*
G01X711346Y1563000D02*
Y1563394D01*
X714716Y1566764D01*
X715110D01*
Y1577024D01*
G01X710000Y1563000D02*
X711346D01*
G01X717079Y1577024D02*
X719047D01*
G01X717079D02*
Y1559640D01*
X717850Y1558869D01*
Y1556099D01*
G01X699362Y1604976D02*
Y1610638D01*
X699000Y1611000D01*
G01X703000Y1610000D02*
X701331Y1608331D01*
Y1604976D01*
G01X717079D02*
Y1634870D01*
X713512Y1638437D01*
Y1640256D01*
G01X711937D02*
Y1638173D01*
X715110Y1635000D01*
Y1604976D01*
G01X713142D02*
Y1635099D01*
X710362Y1637879D01*
Y1640256D01*
G01X709000Y1625654D02*
X708606D01*
X705000Y1622048D01*
G01X699000Y1635000D02*
X700485Y1636485D01*
X701094D01*
X702488Y1637879D01*
Y1640256D01*
G01X709000Y1632346D02*
Y1635621D01*
G01D02*
Y1637666D01*
X708787Y1637879D01*
Y1640256D01*
G01X707213D02*
Y1636804D01*
X706900Y1636491D01*
Y1635063D01*
X706131Y1634294D01*
Y1633031D01*
X700100Y1627000D01*
X698000D01*
G01X719047Y1604976D02*
Y1635213D01*
X715087Y1639173D01*
Y1640256D01*
G01X704700Y1667550D02*
Y1664780D01*
X704063Y1664143D01*
Y1659744D01*
G01X702488D02*
Y1663761D01*
X698699Y1667550D01*
X698600D01*
G01X710362Y1659744D02*
Y1661592D01*
X712080Y1663310D01*
Y1668342D01*
X712607Y1668869D01*
X717374D01*
X720505Y1672000D01*
X728000D01*
G01X708787Y1659744D02*
Y1661856D01*
X710780Y1663849D01*
Y1668881D01*
X712068Y1670169D01*
X716835D01*
X722666Y1676000D01*
X725000D01*
G01X717000Y1677000D02*
Y1674900D01*
X716996Y1674896D01*
Y1673798D01*
X714670Y1671472D01*
X711532D01*
X709480Y1669420D01*
Y1664388D01*
X707213Y1662121D01*
Y1659744D01*
G01X712000Y1675000D02*
X708180Y1671180D01*
Y1664927D01*
X705638Y1662385D01*
Y1659744D01*
G01X711937D02*
Y1661328D01*
X713380Y1662771D01*
Y1663036D01*
X714680Y1664336D01*
Y1665731D01*
X714850Y1665901D01*
Y1666000D01*
G01X716559Y1689528D02*
Y1685508D01*
X708812Y1677761D01*
Y1674732D01*
X708643Y1674322D01*
X708171Y1673850D01*
X704700D01*
G01X698600D02*
X698699D01*
X701473Y1676624D01*
X706047D01*
X707208Y1677785D01*
Y1678050D01*
X707595Y1678437D01*
X707748Y1678666D01*
X707757Y1678688D01*
X714000Y1684931D01*
Y1689528D01*
G01X704150Y1682900D02*
X704950D01*
X705250Y1682600D01*
Y1685896D01*
X707568D01*
X708882Y1687210D01*
Y1689528D01*
G01X723695Y1690945D02*
X720890Y1693750D01*
Y1694471D01*
X720363Y1694998D01*
X719642D01*
X719640Y1695000D01*
X709682D01*
X708882Y1694200D01*
Y1689528D01*
G01X728000Y1391000D02*
Y1394900D01*
X727000Y1395900D01*
Y1398000D01*
G01X734984Y1404417D02*
Y1400936D01*
X735000Y1400920D01*
Y1398150D01*
G01X723173Y1404417D02*
Y1399323D01*
X722000Y1398150D01*
G01X720417Y1407173D02*
X723173D01*
X731047Y1415047D01*
G01X740890Y1411110D02*
X734000Y1418000D01*
G01X729079Y1404417D02*
Y1400079D01*
X727000Y1398000D01*
G01X731047Y1404417D02*
Y1398047D01*
X730000Y1397000D01*
G01X736953Y1431583D02*
Y1435033D01*
X737000Y1435080D01*
Y1437850D01*
G01X734000Y1418000D02*
X731047Y1420953D01*
X720417D01*
G01X731047Y1415047D02*
X734000Y1418000D01*
G01X731047Y1415047D02*
X720417D01*
G01X742858Y1431583D02*
Y1426858D01*
X734000Y1418000D01*
G01X730346Y1443000D02*
Y1434759D01*
X731047Y1434058D01*
Y1431583D01*
G01X720417Y1418984D02*
Y1417016D01*
G01X723654Y1443000D02*
X720000D01*
G01X730346D02*
Y1446935D01*
X730150Y1447131D01*
Y1450000D01*
G01X736000Y1470150D02*
Y1472920D01*
X735984Y1472936D01*
Y1476417D01*
G01X723000Y1470150D02*
X724173Y1471323D01*
Y1476417D01*
G01X730079D02*
Y1472049D01*
X728900Y1470870D01*
Y1468900D01*
X728000Y1468000D01*
G01X732047Y1476417D02*
Y1472178D01*
X731000Y1471131D01*
Y1470000D01*
G01X735000Y1490000D02*
X732047Y1492953D01*
X721417D01*
G01X732047Y1487047D02*
X735000Y1490000D01*
G01X721417Y1479173D02*
X724173D01*
X732047Y1487047D01*
G01D02*
X721417D01*
G01X743858Y1503583D02*
Y1498858D01*
X735000Y1490000D01*
G01X741890Y1483110D02*
X735000Y1490000D01*
G01X721417Y1490984D02*
Y1489016D01*
G01X724654Y1515000D02*
X721000D01*
G01X737953Y1503583D02*
Y1507033D01*
X738000Y1507080D01*
Y1509850D01*
G01X731346Y1515000D02*
Y1506759D01*
X732047Y1506058D01*
Y1503583D01*
G01X731346Y1515000D02*
Y1518935D01*
X731150Y1519131D01*
Y1522000D01*
G01X738000Y1543000D02*
Y1567000D01*
X735000Y1570000D01*
X729346D01*
G01X729150Y1563000D02*
Y1562901D01*
X726380Y1560131D01*
X721882D01*
X717850Y1556099D01*
G01D02*
Y1556000D01*
G01X721016Y1577024D02*
Y1584884D01*
X721000Y1584900D01*
Y1587000D01*
G01X724953Y1577024D02*
Y1587853D01*
X725000Y1587900D01*
Y1590000D01*
G01X728890Y1577024D02*
Y1573325D01*
X729346Y1572869D01*
Y1570000D01*
G01X722654D02*
X720000D01*
G01X722850Y1563000D02*
X720000D01*
G01X731000Y1582000D02*
Y1577166D01*
X730858Y1577024D01*
G01X733346Y1613000D02*
Y1608895D01*
X732827Y1608376D01*
Y1604976D01*
G01X730858D02*
Y1608402D01*
X726654Y1612606D01*
Y1613000D01*
G01X727000Y1619654D02*
Y1616215D01*
X726654Y1615869D01*
Y1613000D01*
G01X733000Y1619654D02*
X733394D01*
X739654Y1613394D01*
Y1613000D01*
G01X721016Y1604976D02*
Y1640722D01*
X721014Y1640724D01*
Y1640726D01*
X718827Y1642913D01*
X717744D01*
G01X722984Y1604976D02*
Y1641175D01*
X719671Y1644488D01*
X717744D01*
G01X726297Y1639406D02*
X727782Y1640891D01*
Y1642188D01*
X725870Y1644100D01*
X723740D01*
X721255Y1646584D01*
X721019Y1646742D01*
X720123Y1647638D01*
X717744D01*
G01Y1646063D02*
X717980Y1646299D01*
X719622D01*
X720189Y1645732D01*
X720425Y1645574D01*
X724000Y1642000D01*
X725000D01*
G01X717744Y1653937D02*
X720098D01*
X723081Y1656920D01*
X729920D01*
X749000Y1676000D01*
X771949D01*
X775850Y1679901D01*
Y1680000D01*
G01X717744Y1655512D02*
X719312D01*
X720121Y1656321D01*
Y1656872D01*
X742150Y1678901D01*
Y1679000D01*
G01X717744Y1650787D02*
X722964D01*
X725901Y1647850D01*
X726000D01*
G01D02*
X730850D01*
X732000Y1649000D01*
G01X721000Y1653000D02*
X720362Y1652362D01*
G01D02*
X717744D01*
G01X721150Y1666000D02*
X721100D01*
G01X721150D02*
Y1666050D01*
G01X735850Y1679000D02*
Y1675150D01*
X726700Y1666000D01*
G01X721400Y1667600D02*
X721150Y1667350D01*
Y1666050D01*
G01D02*
X722000Y1666900D01*
G01X726700Y1666000D02*
X721150D01*
G01X746000Y1398150D02*
X749150D01*
X751000Y1400000D01*
G01X744827Y1404417D02*
Y1399323D01*
X746000Y1398150D01*
G01X747583Y1407173D02*
X750907D01*
X751080Y1407000D01*
X753850D01*
G01X740890Y1411110D02*
X747583D01*
G01X742858Y1404417D02*
Y1409142D01*
X740890Y1411110D01*
G01X746850Y1438000D02*
Y1434689D01*
X744827Y1432666D01*
Y1431583D01*
G01X747583Y1422921D02*
X751001D01*
X751080Y1423000D01*
X753850D01*
G01X747583Y1417016D02*
X750064D01*
X751080Y1416000D01*
X753850D01*
G01X753800Y1429400D02*
X751258Y1426858D01*
X747583D01*
G01X753500Y1433000D02*
X749301D01*
X748215Y1431914D01*
Y1431215D01*
X747583Y1430583D01*
Y1428827D01*
G01X747000Y1441000D02*
Y1438150D01*
X746850Y1438000D01*
G01X753000D02*
X753150D01*
G01X747000Y1470150D02*
X750150D01*
X752000Y1472000D01*
G01X745827Y1476417D02*
Y1471323D01*
X747000Y1470150D01*
G01X748583Y1494921D02*
X752001D01*
X752080Y1495000D01*
X754850D01*
G01X748583Y1489016D02*
X751064D01*
X752080Y1488000D01*
X754850D01*
G01X748583Y1479173D02*
X751907D01*
X752080Y1479000D01*
X754850D01*
G01X741890Y1483110D02*
X748583D01*
G01X743858Y1476417D02*
Y1481142D01*
X741890Y1483110D01*
G01X747850Y1510000D02*
Y1506689D01*
X745827Y1504666D01*
Y1503583D01*
G01X748000Y1513000D02*
Y1510150D01*
X747850Y1510000D01*
G01X754000D02*
X754150D01*
G01X748583Y1498858D02*
X753564D01*
X755804Y1501098D01*
G01X754400Y1504500D02*
X750727Y1500827D01*
X748583D01*
G01X744638Y1577024D02*
X747108D01*
X747344Y1577260D01*
X751000D01*
G01X755731Y1584150D02*
X755246D01*
X754656Y1584740D01*
G01X750000Y1604150D02*
X746964D01*
X746138Y1604976D01*
X744638D01*
G01X746346Y1627000D02*
Y1626606D01*
X749000Y1623952D01*
Y1610800D01*
X748200Y1610000D01*
X744293D01*
X742669Y1608376D01*
Y1604976D01*
G01X740701D02*
Y1608701D01*
X745000Y1613000D01*
X746346D01*
G01Y1620000D02*
Y1613000D01*
G01X738732Y1604976D02*
Y1609209D01*
X739654Y1610131D01*
Y1613000D01*
G01X758311Y1642862D02*
Y1641657D01*
X758227Y1641573D01*
Y1641308D01*
X757700Y1640781D01*
X757435D01*
X756260Y1639606D01*
X755866D01*
X753654Y1637394D01*
Y1637000D01*
G01X750000Y1638000D02*
X752654D01*
X753654Y1637000D01*
G01X739654Y1627000D02*
Y1633654D01*
G01Y1620000D02*
Y1627000D01*
G01X756933Y1642862D02*
X757011Y1642940D01*
Y1644410D01*
X757544Y1644943D01*
X759078D01*
X759611Y1644410D01*
Y1642940D01*
X759689Y1642862D01*
G01X756933D02*
X757011Y1642784D01*
G01X755441Y1653228D02*
X755829Y1652840D01*
Y1651321D01*
X758311Y1648839D01*
Y1647138D01*
G01X750000Y1656000D02*
X752296D01*
X753742Y1657446D01*
X757860D01*
X759688Y1655618D01*
Y1654099D01*
X760559Y1653228D01*
G01X758000D02*
X757129Y1654099D01*
Y1655618D01*
G01X753753Y1650838D02*
X754591Y1650000D01*
X755000D01*
Y1649858D01*
X756933Y1647925D01*
Y1647138D01*
G01X757129Y1655618D02*
X756601Y1656146D01*
X754281D01*
X753753Y1655618D01*
Y1650838D01*
G01X750000Y1661000D02*
X753525D01*
X753753Y1660772D01*
X755441D01*
G01X741839Y1694000D02*
Y1682719D01*
X742150Y1682408D01*
Y1679000D01*
G01X755000Y1668000D02*
X758000Y1665000D01*
Y1660772D01*
G01X759689Y1640526D02*
X760346Y1639869D01*
Y1637000D01*
G01X767952D02*
X772606Y1641654D01*
X766000D01*
G01X759689Y1642862D02*
Y1640526D01*
G01X759434Y1640781D02*
X759689Y1640526D01*
G01X760559Y1653228D02*
X764378D01*
X766000Y1654850D01*
G01X761067Y1642862D02*
X764792D01*
X766000Y1641654D01*
G01X759689Y1647138D02*
X759767Y1647216D01*
Y1648686D01*
X760300Y1649219D01*
X762056D01*
X763658Y1650821D01*
X768342D01*
X768869Y1650294D01*
Y1649608D01*
X770131Y1648346D01*
X773000D01*
G01X778000Y1646000D02*
X775654Y1648346D01*
X773000D01*
G01X781000Y1643000D02*
X778000D01*
X775515Y1645485D01*
X772014D01*
X770529Y1644000D01*
X768471D01*
X768342Y1644129D01*
X767871D01*
X766000Y1646000D01*
Y1648346D01*
G01X761067Y1647138D02*
X764792D01*
X766000Y1648346D01*
G01X760000Y1669000D02*
Y1664249D01*
X760559Y1663690D01*
Y1660772D01*
G01X778161Y1694000D02*
Y1685180D01*
X775850Y1682869D01*
Y1680000D01*
G01X766000Y1661150D02*
X766099D01*
X779643Y1674694D01*
G01X797417Y1410142D02*
X792292D01*
X791150Y1409000D01*
G01X800173Y1405417D02*
Y1400323D01*
X799000Y1399150D01*
G01X797417Y1408173D02*
X800173D01*
X808047Y1416047D01*
G01X797417Y1414079D02*
X793079D01*
G01X797417Y1425890D02*
X794810D01*
X793920Y1425000D01*
X791150D01*
G01X811000Y1419000D02*
X808047Y1421953D01*
X797417D01*
G01X808047Y1416047D02*
X797417D01*
G01X790100Y1430700D02*
X792800Y1428000D01*
X797275D01*
X797417Y1427858D01*
G01X793000Y1434000D02*
X796334Y1430666D01*
Y1429827D01*
X797417D01*
G01Y1418016D02*
X793736D01*
X793720Y1418000D01*
X790950D01*
G01X797417Y1419984D02*
Y1418016D01*
G01X800654Y1444000D02*
X797000D01*
G01X798417Y1496890D02*
X795810D01*
X794920Y1496000D01*
X792150D01*
G01X798417Y1481142D02*
X793292D01*
X792150Y1480000D01*
G01X812000Y1490000D02*
X809047Y1492953D01*
X798417D01*
G01Y1479173D02*
X801173D01*
X809047Y1487047D01*
G01D02*
X798417D01*
G01Y1485079D02*
X793079D01*
G01X798417Y1489016D02*
X795604D01*
X795420Y1489200D01*
X792650D01*
G01X798417Y1490984D02*
Y1489016D01*
G01X801654Y1515000D02*
X798000D01*
G01X798417Y1498858D02*
X795342D01*
X793900Y1500300D01*
X791800D01*
G01X792400Y1504000D02*
X794161D01*
X797334Y1500827D01*
X798417D01*
G01X797417Y1557142D02*
X792292D01*
X791150Y1556000D01*
G01X800173Y1552417D02*
Y1547323D01*
X799000Y1546150D01*
G01X797417Y1555173D02*
X800173D01*
X808047Y1563047D01*
G01X797417Y1572890D02*
X794810D01*
X793920Y1572000D01*
X791150D01*
G01X811000Y1566000D02*
X808047Y1568953D01*
X797417D01*
G01X808047Y1563047D02*
X797417D01*
G01X790700Y1578900D02*
X794261D01*
X796334Y1576827D01*
X797417D01*
G01X788700Y1576200D02*
X792800D01*
X794142Y1574858D01*
X797417D01*
G01Y1561079D02*
X793079D01*
G01X797417Y1565016D02*
X792936D01*
X790220Y1562300D01*
X787450D01*
G01X797417Y1566984D02*
Y1565016D01*
G01X800654Y1591000D02*
X797000D01*
G01X786989Y1637385D02*
Y1637196D01*
X787789Y1636396D01*
X789091D01*
X789093Y1636398D01*
X793366D01*
G01X783000Y1630000D02*
X787839D01*
X789119Y1631280D01*
X793366D01*
G01X786000Y1621000D02*
X789076D01*
X789119Y1621043D01*
X793366D01*
G01X786000Y1626000D02*
X788958D01*
X789119Y1626161D01*
X793366D01*
G01X793752Y1648780D02*
Y1643688D01*
X793366Y1643302D01*
Y1641516D01*
G01X793000Y1682654D02*
Y1680000D01*
X791000Y1678000D01*
G01X779643Y1674694D02*
Y1677394D01*
X782150Y1679901D01*
Y1680000D01*
G01X792890Y1697000D02*
Y1691931D01*
X793000Y1691821D01*
Y1689346D01*
G01X804000Y1392000D02*
Y1399000D01*
G01X811984Y1405417D02*
Y1401936D01*
X812000Y1401920D01*
Y1399150D01*
G01X817890Y1412110D02*
X824583D01*
G01X819858Y1405417D02*
Y1410142D01*
X817890Y1412110D01*
G01D02*
X811000Y1419000D01*
G01X806079Y1405417D02*
Y1401079D01*
X804000Y1399000D01*
G01X808047Y1405417D02*
Y1398047D01*
X807000Y1397000D01*
G01X813953Y1432583D02*
Y1436033D01*
X814000Y1436080D01*
Y1438850D01*
G01X808047Y1416047D02*
X811000Y1419000D01*
G01X819858Y1432583D02*
Y1427858D01*
X811000Y1419000D01*
G01X807346Y1444000D02*
Y1435759D01*
X808047Y1435058D01*
Y1432583D01*
G01X807346Y1444000D02*
Y1447935D01*
X807150Y1448131D01*
Y1451000D01*
G01X813000Y1470150D02*
Y1472920D01*
X812984Y1472936D01*
Y1476417D01*
G01X800000Y1470150D02*
X801173Y1471323D01*
Y1476417D01*
G01X807079D02*
Y1471079D01*
X805000Y1469000D01*
G01X809047Y1476417D02*
Y1473942D01*
X809000Y1473895D01*
Y1468000D01*
G01X818890Y1483110D02*
X825583D01*
G01X820858Y1476417D02*
Y1481142D01*
X818890Y1483110D01*
G01X809047Y1487047D02*
X812000Y1490000D01*
G01X820858Y1503583D02*
Y1498858D01*
X812000Y1490000D01*
G01X818890Y1483110D02*
X812000Y1490000D01*
G01X814953Y1503583D02*
Y1507033D01*
X815000Y1507080D01*
Y1509850D01*
G01X808346Y1515000D02*
Y1506759D01*
X809047Y1506058D01*
Y1503583D01*
G01X808346Y1515000D02*
Y1518935D01*
X808150Y1519131D01*
Y1522000D01*
G01X811984Y1552417D02*
Y1548936D01*
X812000Y1548920D01*
Y1546150D01*
G01X819858Y1552417D02*
Y1557142D01*
X817890Y1559110D01*
G01X806079Y1552417D02*
Y1549079D01*
X804000Y1547000D01*
G01X808047Y1552417D02*
Y1546047D01*
X807000Y1545000D01*
G01X817890Y1559110D02*
X824583D01*
G01X808047Y1563047D02*
X811000Y1566000D01*
G01X819858Y1579583D02*
Y1574858D01*
X811000Y1566000D01*
G01X817890Y1559110D02*
X811000Y1566000D01*
G01X813953Y1579583D02*
Y1583033D01*
X814000Y1583080D01*
Y1585850D01*
G01X807346Y1591000D02*
Y1582759D01*
X808047Y1582058D01*
Y1579583D01*
G01X807346Y1591000D02*
Y1594935D01*
X807150Y1595131D01*
Y1598000D01*
G01X813000Y1618000D02*
X815903D01*
X816387Y1618484D01*
X820634D01*
G01X814670Y1697000D02*
Y1692545D01*
X815346Y1691869D01*
Y1689000D01*
G01X808654D02*
Y1685654D01*
X806000Y1683000D01*
G01X823000Y1399150D02*
X826150D01*
X828000Y1401000D01*
G01X821827Y1405417D02*
Y1400323D01*
X823000Y1399150D01*
G01X824583Y1408173D02*
X827907D01*
X828080Y1408000D01*
X830850D01*
G01X823850Y1439000D02*
Y1435689D01*
X821827Y1433666D01*
Y1432583D01*
G01X824583Y1423921D02*
X828001D01*
X828080Y1424000D01*
X830850D01*
G01X824583Y1418016D02*
X827064D01*
X828080Y1417000D01*
X830850D01*
G01X824583Y1427858D02*
X829858D01*
X831000Y1429000D01*
G01X825100Y1432700D02*
Y1431736D01*
X824583Y1431219D01*
Y1429827D01*
G01X824000Y1442000D02*
Y1439150D01*
X823850Y1439000D01*
G01X830000D02*
X830150D01*
G01X824000Y1470150D02*
X827150D01*
X829000Y1472000D01*
G01X822827Y1476417D02*
Y1471323D01*
X824000Y1470150D01*
G01X825583Y1494921D02*
X829001D01*
X829080Y1495000D01*
X831850D01*
G01X825583Y1489016D02*
X828064D01*
X829080Y1488000D01*
X831850D01*
G01X825583Y1479173D02*
X828907D01*
X829080Y1479000D01*
X831850D01*
G01X824850Y1510000D02*
Y1506689D01*
X822827Y1504666D01*
Y1503583D01*
G01X825000Y1513000D02*
Y1510150D01*
X824850Y1510000D01*
G01X831000D02*
X831150D01*
G01X825583Y1498858D02*
X829858D01*
X832000Y1501000D01*
G01X825583Y1500827D02*
Y1503283D01*
X826500Y1504200D01*
G01X823000Y1546150D02*
X826150D01*
X828000Y1548000D01*
G01X821827Y1552417D02*
Y1547323D01*
X823000Y1546150D01*
G01X824583Y1555173D02*
X827907D01*
X828080Y1555000D01*
X830850D01*
G01X824583Y1570921D02*
X828001D01*
X828080Y1571000D01*
X830850D01*
G01X824583Y1565016D02*
X827064D01*
X828080Y1564000D01*
X830850D01*
G01X824583Y1574858D02*
X829858D01*
X832000Y1577000D01*
G01X830200Y1580000D02*
X828715Y1578515D01*
X827354D01*
X825666Y1576827D01*
X824583D01*
G01X823850Y1586000D02*
Y1582689D01*
X821827Y1580666D01*
Y1579583D01*
G01X824000Y1589000D02*
Y1586150D01*
X823850Y1586000D01*
G01X830000D02*
X830150D01*
G01X828000Y1636000D02*
X825279D01*
X824881Y1636398D01*
X820634D01*
G01X828000Y1621000D02*
X824924D01*
X824881Y1621043D01*
X820634D01*
G01X828000Y1639000D02*
X824924D01*
X824881Y1638957D01*
X820634D01*
G01X828000Y1631000D02*
X825161D01*
X824881Y1631280D01*
X820634D01*
G01X828000Y1626000D02*
X825042D01*
X824881Y1626161D01*
X820634D01*
G54D47*
X702533Y1700000D03*
X725467D03*
G54D29*
X641000Y1638000D03*
G54D38*
X688500Y1399200D03*
Y1406700D03*
X695500Y1403000D03*
G54D39*
X686260Y1607000D03*
X693740D03*
G54D48*
X741839Y1694000D03*
X778161D03*
G54D49*
X751000Y1577260D03*
Y1584740D03*
M02*
