G04 ================== begin FILE IDENTIFICATION RECORD ==================*
G04 Layout Name:  C:/USERS/GEORGE/DOCUMENTS/GITHUB/AVALON/HARDWARE/allegro/AVALON.brd*
G04 Film Name:    TOP*
G04 File Format:  Gerber RS274X*
G04 File Origin:  Cadence Allegro 16.6-P004*
G04 Origin Date:  Tue Nov 12 21:39:58 2013*
G04 *
G04 Layer:  ETCH/TOP*
G04 Layer:  PIN/TOP*
G04 Layer:  VIA CLASS/TOP*
G04 *
G04 Offset:    (0.00 0.00)*
G04 Mirror:    No*
G04 Mode:      Positive*
G04 Rotation:  0*
G04 FullContactRelief:  No*
G04 UndefLineWidth:     0.00*
G04 ================== end FILE IDENTIFICATION RECORD ====================*
%FSLAX25Y25*MOIN*%
%IR0*IPPOS*OFA0.00000B0.00000*MIA0B0*SFA1.00000B1.00000*%
%ADD17C,.022*%
%ADD11C,.024*%
%ADD33C,.05512*%
%ADD27R,.25551X.04272*%
%ADD37R,.05512X.05512*%
%ADD15R,.00984X.0315*%
%ADD16R,.0315X.00984*%
%ADD23R,.06299X.1063*%
%ADD26R,.1378X.05906*%
%ADD51R,.00787X.02362*%
%ADD25R,.15748X.05906*%
%ADD41R,.00787X.02953*%
%ADD19R,.12598X.07185*%
%ADD48R,.16437X.06496*%
%ADD43R,.02953X.00787*%
%ADD40R,.012X.05*%
%ADD31R,.017X.02*%
%ADD38R,.02X.017*%
%ADD14R,.2126X.2126*%
%ADD22C,0.0*%
%ADD53R,.0311X.02854*%
%ADD39R,.04134X.05512*%
%ADD49R,.05512X.04134*%
%ADD29R,.20079X.12622*%
%ADD28R,.1811X.14961*%
%ADD30R,.01772X.04232*%
%ADD50R,.01575X.04035*%
%ADD36R,.03543X.03543*%
%ADD18R,.0315X.03937*%
%ADD45R,.01772X.05433*%
%ADD34R,.03937X.0315*%
%ADD42R,.1378X.1378*%
%ADD47R,.0935X.0748*%
%ADD20R,.03543X.07185*%
%ADD10R,.0374X.03937*%
%ADD46R,.04626X.0748*%
%ADD13R,.03937X.0374*%
%ADD21R,.06693X.02362*%
%ADD35R,.02362X.07874*%
%ADD32R,.05906X.05906*%
%ADD24R,.04528X.07087*%
%ADD52R,.06693X.01772*%
%ADD12R,.07087X.04528*%
%ADD44R,.05807X.08268*%
%ADD54C,.02*%
%ADD55C,.016*%
%ADD56C,.008*%
%ADD63C,.04004*%
%ADD66C,.07116*%
%ADD57R,.142X.08788*%
%ADD65R,.07116X.07116*%
%ADD61C,.15196*%
%ADD60R,.05344X.0554*%
%ADD59R,.0554X.05344*%
%ADD64R,.04712X.04456*%
%ADD58R,.08296X.03964*%
%ADD62R,.03964X.09476*%
G75*
%LPD*%
G75*
G36*
G01X653053Y1531000D02*
X652677Y1531376D01*
Y1552828D01*
X651340Y1554165D01*
X623165D01*
X622000Y1553000D01*
Y1534000D01*
X621000Y1533000D01*
X606000D01*
X603000Y1536000D01*
Y1667000D01*
X602000Y1668000D01*
X594000D01*
X585000Y1659000D01*
Y1642000D01*
X575000Y1632000D01*
X512194D01*
Y1705000D01*
X697056D01*
Y1695458D01*
X700601D01*
Y1686010D01*
X701478D01*
Y1680130D01*
X706840D01*
Y1679479D01*
X706756Y1679353D01*
G03X706711Y1679279I1003J-661D01*
G01X706702Y1679263D01*
X706662Y1679203D01*
X706006Y1678548D01*
Y1678283D01*
X705549Y1677826D01*
X700975D01*
X699672Y1676522D01*
X695830D01*
Y1664624D01*
G03X696505Y1661060I1170J-1624D01*
G01X696637Y1661026D01*
X697668Y1659996D01*
G02X696961Y1658288I-707J-708D01*
G01X695411D01*
X694992Y1658707D01*
X695001Y1658925D01*
G03X693075Y1656999I-2001J75D01*
G01X693293Y1657008D01*
X694415Y1655886D01*
X695978D01*
Y1648840D01*
X690290D01*
X689972Y1648522D01*
X688593D01*
X687061Y1650054D01*
X685740D01*
X685616Y1650134D01*
G03X685433Y1646665I-1086J-1682D01*
G01X685756Y1646829D01*
X686230Y1646355D01*
Y1643178D01*
X688065D01*
G02X688772Y1641471I0J-1000D01*
G01X684723Y1637422D01*
X679855D01*
X679161Y1636728D01*
X678943Y1636737D01*
G03X678833Y1632734I-75J-2001D01*
G02X679319Y1632307I-8J-500D01*
G03X683301Y1632675I1981J293D01*
G01X683292Y1632893D01*
X683898Y1633498D01*
X686037D01*
X691337Y1638798D01*
X692498D01*
X693278Y1639578D01*
X693379D01*
X695518Y1641718D01*
X699718D01*
Y1637417D01*
X699293Y1636992D01*
X699075Y1637001D01*
G03X697070Y1634467I-75J-2001D01*
G02X696106Y1633202I-964J-265D01*
G01X694601D01*
G03X691397Y1630801I-1601J-1202D01*
G02X690596Y1629202I-800J-599D01*
G01X688601D01*
G03Y1626798I-1601J-1202D01*
G01X693498D01*
X696198Y1629498D01*
X696995D01*
Y1628749D01*
X696796Y1628599D01*
G03X699601Y1625798I1204J-1599D01*
G01X700598D01*
X705376Y1630577D01*
G02X706230Y1630224I354J-353D01*
G01Y1629970D01*
X711940D01*
Y1628030D01*
X706230D01*
Y1624977D01*
X705293Y1624040D01*
X705075Y1624049D01*
G03X707001Y1622123I-75J-2001D01*
G01X706992Y1622341D01*
X707929Y1623278D01*
X711940D01*
Y1608278D01*
X705834D01*
Y1601674D01*
X709398D01*
Y1600602D01*
X690867D01*
X688643Y1602826D01*
X688898Y1603442D01*
X689128D01*
Y1608293D01*
X690027Y1609192D01*
X690041D01*
X690255Y1609406D01*
X690872Y1609150D01*
Y1603442D01*
X696608D01*
Y1603774D01*
X697960D01*
Y1601674D01*
X704701D01*
Y1608937D01*
X704761Y1609048D01*
G03X702019Y1611745I-1761J952D01*
G02X700687Y1612078I-490J872D01*
G03X696999Y1611046I-1687J-1078D01*
G01X696987Y1610558D01*
X695822D01*
Y1616770D01*
X690478D01*
Y1614172D01*
X686864Y1610558D01*
X683392D01*
Y1603442D01*
X684658D01*
Y1602281D01*
X688884Y1598055D01*
G02X688531Y1597202I-354J-353D01*
G01X687498D01*
X680204Y1604496D01*
Y1625747D01*
X660370Y1645580D01*
Y1648348D01*
X658367Y1650352D01*
X657770D01*
Y1651822D01*
X652230D01*
Y1650356D01*
X650188D01*
Y1652072D01*
X646812D01*
Y1647338D01*
X645785D01*
X645188Y1647936D01*
Y1652071D01*
X644195D01*
G02X643488Y1653779I0J1000D01*
G01X645502Y1655792D01*
Y1699740D01*
X611692D01*
Y1699754D01*
X596308D01*
Y1699740D01*
X593498D01*
Y1689792D01*
X595792Y1687498D01*
X619208D01*
X622208Y1690498D01*
X630792D01*
X631498Y1689792D01*
Y1654208D01*
X629498Y1652208D01*
Y1645792D01*
X630251Y1645040D01*
X640749D01*
X641502Y1645792D01*
Y1646236D01*
X643488D01*
X644789Y1644936D01*
X648388D01*
X648536Y1644788D01*
X648537D01*
X648667Y1644658D01*
X648670D01*
X648697Y1644798D01*
X652230D01*
Y1640178D01*
X653348D01*
Y1636098D01*
X657201D01*
X674796Y1618503D01*
Y1609894D01*
G02X673531Y1608930I-1000J0D01*
G03X672925Y1609001I-533J-1930D01*
G01X672707Y1608992D01*
X658925Y1622774D01*
G02X659089Y1624320I708J707D01*
G03X657322Y1627884I-1089J1680D01*
G01X657023Y1627776D01*
X656652Y1628148D01*
Y1629902D01*
X653348D01*
Y1628048D01*
X650188D01*
Y1629764D01*
X646812D01*
Y1625387D01*
G02X645959Y1625033I-500J0D01*
G01X645590Y1625403D01*
Y1629690D01*
X645188D01*
Y1629764D01*
X641812D01*
Y1629690D01*
X640188D01*
Y1629764D01*
X636812D01*
Y1629690D01*
X635188D01*
Y1629764D01*
X631812D01*
Y1629144D01*
X627132Y1624464D01*
Y1607096D01*
X627144D01*
Y1607018D01*
X646856D01*
Y1623928D01*
X650188D01*
Y1625644D01*
X652633D01*
X653279Y1624998D01*
X653302D01*
X671008Y1607293D01*
X670999Y1607075D01*
G03X673531Y1605070I2001J-75D01*
G02X674796Y1604106I265J-964D01*
G01Y1599509D01*
X676240Y1598065D01*
X684502Y1589804D01*
X684971D01*
X684973Y1589802D01*
X685208D01*
X685210Y1589800D01*
X686502D01*
X686503Y1589798D01*
X695502D01*
X698152Y1587148D01*
Y1581470D01*
X698154Y1581468D01*
Y1581309D01*
X698156Y1581307D01*
Y1580326D01*
X697960D01*
Y1573722D01*
X702178D01*
Y1567230D01*
X703108D01*
G02X703462Y1566376I0J-500D01*
G01X703452Y1566367D01*
Y1565770D01*
X702278D01*
Y1564202D01*
X700601D01*
G03Y1561798I-1601J-1202D01*
G01X702278D01*
Y1560230D01*
X707030D01*
Y1560734D01*
G02X708687Y1561489I1000J1D01*
G03X708969Y1561284I1314J1511D01*
G01Y1560230D01*
X713722D01*
Y1564071D01*
X714170Y1564519D01*
G02X715878Y1563812I708J-707D01*
G01Y1558770D01*
X715178D01*
Y1553230D01*
X720522D01*
Y1557071D01*
X722380Y1558930D01*
X726878D01*
X728178Y1560230D01*
X731822D01*
Y1565770D01*
X720178D01*
Y1565042D01*
X719742Y1564985D01*
G03X719520Y1564944I252J-1986D01*
G02X718280Y1565914I-240J971D01*
G01Y1567086D01*
G02X719520Y1568056I1000J-1D01*
G03X719822Y1568006I477J1944D01*
G02X720278Y1567508I-44J-498D01*
G01Y1567230D01*
X725030D01*
Y1573722D01*
X726970D01*
Y1567230D01*
X731722D01*
Y1568798D01*
X734502D01*
X736798Y1566502D01*
Y1547000D01*
X708000D01*
X695000Y1560000D01*
Y1585000D01*
X692000Y1588000D01*
X672000D01*
X668000Y1584000D01*
Y1532000D01*
X667000Y1531000D01*
X653053D01*
G37*
G36*
G01X512341Y1382070D02*
Y1631498D01*
X575208D01*
X585502Y1641792D01*
Y1658792D01*
X594208Y1667498D01*
X601792D01*
X602498Y1666792D01*
Y1535792D01*
X605792Y1532498D01*
X621208D01*
X622502Y1533792D01*
Y1552792D01*
X623373Y1553664D01*
X651132D01*
X652176Y1552620D01*
Y1531168D01*
X652845Y1530498D01*
X667208D01*
X668502Y1531792D01*
Y1583792D01*
X672208Y1587498D01*
X691792D01*
X694498Y1584792D01*
Y1559792D01*
X707792Y1546498D01*
X762208D01*
X765502Y1549792D01*
Y1601792D01*
X770208Y1606498D01*
X846096D01*
Y1382070D01*
X512341D01*
G37*
G36*
G01X645000Y1699238D02*
Y1656000D01*
X641000Y1652000D01*
Y1646000D01*
X640541Y1645541D01*
X630459D01*
X630000Y1646000D01*
Y1652000D01*
X632000Y1654000D01*
Y1690000D01*
X631000Y1691000D01*
X622000D01*
X619000Y1688000D01*
X596000D01*
X594000Y1690000D01*
Y1699238D01*
X645000D01*
G37*
G36*
G01X645088Y1629189D02*
Y1625195D01*
X646281Y1624002D01*
Y1607597D01*
X627634D01*
Y1624256D01*
X632567Y1629189D01*
X645088D01*
G37*
G36*
G01X739202Y1547000D02*
Y1567498D01*
X735498Y1571202D01*
X731722D01*
Y1573722D01*
X742103D01*
Y1580326D01*
X733925D01*
G02X732951Y1581550I0J1000D01*
G03X732984Y1582266I-1951J449D01*
G02X733975Y1583398I991J132D01*
G01X746021D01*
X746281Y1583138D01*
X747442D01*
Y1581872D01*
X754609D01*
G02X755624Y1582552I948J-318D01*
G03X755730Y1582549I98J1598D01*
G02X756230Y1582049I0J-500D01*
G01Y1581478D01*
X761770D01*
Y1586822D01*
X756230D01*
Y1586342D01*
X754558D01*
Y1587608D01*
X747442D01*
Y1586602D01*
X730100D01*
X729976Y1586682D01*
G03X727101Y1585899I-1086J-1682D01*
G01X726963Y1585624D01*
X726154D01*
Y1587355D01*
X726202Y1587402D01*
Y1588399D01*
G03X723001Y1589886I-1202J1601D01*
G02X721669Y1588887I-998J-56D01*
G03X719798Y1585399I-669J-1887D01*
G01Y1584402D01*
X719814Y1584386D01*
Y1580326D01*
X707803D01*
Y1574751D01*
X707524Y1574472D01*
G02X706670Y1574825I-354J353D01*
G01Y1580326D01*
X704500D01*
Y1582200D01*
X703156Y1583545D01*
Y1592544D01*
X700008Y1595691D01*
G02X700715Y1597399I707J708D01*
G01X709790D01*
X709914Y1597318D01*
G03X712682Y1600086I1086J1682D01*
G01X712602Y1600210D01*
Y1601169D01*
X712706Y1601274D01*
Y1601674D01*
X724386D01*
Y1608278D01*
X724186D01*
Y1610230D01*
X727331D01*
X728429Y1609132D01*
G02X728076Y1608278I-353J-354D01*
G01X727488D01*
Y1605758D01*
X727441Y1605657D01*
G03X727288Y1604976I1449J-683D01*
G01Y1600100D01*
X727208Y1599976D01*
G03X730572I1682J-1086D01*
G01X730492Y1600100D01*
Y1601674D01*
X746040D01*
Y1602948D01*
X747230D01*
Y1601478D01*
X752770D01*
Y1606822D01*
X747230D01*
Y1606178D01*
X746040D01*
Y1608798D01*
X748698D01*
X750202Y1610302D01*
Y1624450D01*
X748722Y1625929D01*
Y1629770D01*
X743970D01*
Y1624230D01*
X747023D01*
X747629Y1623624D01*
G02X747276Y1622770I-353J-354D01*
G01X743970D01*
Y1617230D01*
X745144D01*
Y1615770D01*
X743970D01*
Y1613669D01*
X743738Y1613437D01*
G02X742030Y1614144I-708J707D01*
G01Y1615770D01*
X738977D01*
X738371Y1616376D01*
G02X738724Y1617230I353J354D01*
G01X742030D01*
Y1622770D01*
X740856D01*
Y1624230D01*
X742030D01*
Y1629770D01*
X740856D01*
Y1632053D01*
G03X738452I-1202J1601D01*
G01Y1629770D01*
X737278D01*
Y1624230D01*
X738452D01*
Y1622770D01*
X737278D01*
Y1618677D01*
G02X736424Y1618323I-500J0D01*
G01X735770Y1618977D01*
Y1622030D01*
X724186D01*
Y1636617D01*
G02X725556Y1637546I1000J0D01*
G03X728298Y1639481I741J1860D01*
G01X728289Y1639699D01*
X728984Y1640393D01*
Y1642686D01*
X728198Y1643471D01*
G02X728770Y1645169I707J707D01*
G01Y1646648D01*
X731348D01*
X731707Y1647008D01*
X731925Y1646999D01*
G03X730047Y1649441I75J2001D01*
G01X729959Y1649052D01*
X728770D01*
Y1650522D01*
X724929D01*
X723462Y1651988D01*
X722263D01*
G02X721556Y1653696I0J1000D01*
G01X723579Y1655718D01*
X730418D01*
X749498Y1674798D01*
X772447D01*
X773748Y1676100D01*
X788100D01*
X788300Y1676300D01*
Y1677308D01*
X789098D01*
X789240Y1677047D01*
G03X793001Y1678075I1760J953D01*
G01X792992Y1678293D01*
X794202Y1679502D01*
Y1680278D01*
X795770D01*
Y1685030D01*
X790230D01*
Y1679870D01*
X789984Y1679725D01*
G03X789866Y1679650I1014J-1726D01*
G02X788300Y1680474I-566J824D01*
G01Y1693246D01*
X791688D01*
Y1691722D01*
X790230D01*
Y1686970D01*
X795770D01*
Y1691722D01*
X794202D01*
Y1692319D01*
X794092Y1692429D01*
Y1693246D01*
X797207D01*
Y1691868D01*
X802353D01*
Y1697014D01*
X796644D01*
Y1700754D01*
X788300D01*
Y1705000D01*
X846000D01*
Y1607000D01*
X770000D01*
X765000Y1602000D01*
Y1550000D01*
X762000Y1547000D01*
X739202D01*
G37*
G36*
G01X707030Y1565266D02*
Y1565770D01*
X706052D01*
Y1567229D01*
X712275D01*
G02X712629Y1566376I0J-500D01*
G01X712023Y1565770D01*
X708970D01*
Y1564716D01*
G03X708687Y1564511I1028J-1717D01*
G02X707030Y1565266I-657J754D01*
G37*
G36*
G01X723157Y1661607D02*
G02X721551Y1661877I-707J707D01*
G03X720276Y1662932I-1800J-877D01*
G01X720148Y1662967D01*
X717521Y1665593D01*
Y1667668D01*
X717872D01*
X721003Y1670798D01*
X726399D01*
G03X727886Y1673999I1601J1202D01*
G02X726887Y1675331I-56J998D01*
G03X723399Y1677202I-1887J669D01*
G01X722168D01*
X719055Y1674088D01*
G02X718201Y1674442I-354J354D01*
G01Y1675399D01*
G03X715794Y1675402I-1202J1601D01*
G01Y1674296D01*
X714172Y1672674D01*
X713210D01*
Y1673390D01*
X713368Y1673538D01*
G03X710869Y1676652I-1367J1462D01*
G01X710526Y1676417D01*
X709847Y1677097D01*
X717760Y1685010D01*
Y1686010D01*
X727400D01*
Y1695458D01*
X731800D01*
Y1670250D01*
X723157Y1661607D01*
G37*
G36*
G01X722418Y1572770D02*
Y1580326D01*
X722218D01*
Y1585411D01*
G03X722802Y1586127I-1218J1589D01*
G01X722938Y1586409D01*
X723752D01*
Y1580326D01*
X723551D01*
Y1572770D01*
X722418D01*
G37*
%LPC*%
G75*
G36*
G01X549602Y1695563D02*
Y1691210D01*
X549682Y1691086D01*
G02X546318I-1682J-1086D01*
G01X546398Y1691210D01*
Y1694237D01*
X545737Y1694898D01*
X542813D01*
Y1694518D01*
X533770D01*
Y1693478D01*
X528230D01*
Y1694348D01*
X526770D01*
Y1693478D01*
X521230D01*
Y1698822D01*
X526770D01*
Y1697952D01*
X528230D01*
Y1698822D01*
X533770D01*
Y1698302D01*
X535017D01*
Y1698482D01*
X542813D01*
Y1698102D01*
X547063D01*
X549602Y1695563D01*
G37*
G36*
G01X532602Y1665178D02*
Y1656210D01*
X532682Y1656086D01*
G02X529318I-1682J-1086D01*
G01X529398Y1656210D01*
Y1665178D01*
X522230D01*
Y1670522D01*
X533770D01*
Y1669652D01*
X538217D01*
X538298Y1669570D01*
X543161D01*
X543600Y1670010D01*
X545421D01*
X546427Y1671016D01*
Y1677256D01*
X551573D01*
Y1668468D01*
X548975D01*
X546913Y1666406D01*
X545092D01*
X544653Y1665968D01*
X536806D01*
X536725Y1666048D01*
X533770D01*
Y1665178D01*
X532602D01*
G37*
G36*
G01X650577Y1561360D02*
Y1557184D01*
X623423D01*
Y1563132D01*
X627498Y1567208D01*
Y1568418D01*
X627144D01*
Y1584982D01*
X646856D01*
Y1568418D01*
X646502D01*
Y1567208D01*
X649764Y1563945D01*
X650798Y1564980D01*
Y1566399D01*
G02X653202I1202J1601D01*
G01Y1563984D01*
X650577Y1561360D01*
G37*
G36*
G01X689399Y1686202D02*
G02Y1683798I1601J-1202D01*
G01X687454D01*
X685023Y1686230D01*
X681970D01*
Y1691770D01*
X682427D01*
Y1693246D01*
X679312D01*
Y1691770D01*
X680030D01*
Y1686230D01*
X675278D01*
Y1691770D01*
X676452D01*
Y1692367D01*
X676478Y1692392D01*
G03X676124Y1693246I-354J354D01*
G01X674356D01*
Y1700754D01*
X681864D01*
Y1697014D01*
X687573D01*
Y1691868D01*
X686722D01*
Y1687929D01*
X688450Y1686202D01*
X689399D01*
G37*
G36*
G01X670611Y1685910D02*
X670711Y1685872D01*
G02X668100Y1684631I-711J-1872D01*
G01X668198Y1684924D01*
X666339Y1686783D01*
X665722Y1686527D01*
Y1686230D01*
X660970D01*
Y1691770D01*
X661647D01*
Y1693246D01*
X658532D01*
Y1691770D01*
X659030D01*
Y1686230D01*
X654278D01*
Y1691770D01*
X655452D01*
Y1692367D01*
X655478Y1692392D01*
G03X655124Y1693246I-354J354D01*
G01X653576D01*
Y1700754D01*
X661084D01*
Y1697014D01*
X666793D01*
Y1691868D01*
X665722D01*
Y1690202D01*
X666319D01*
X670611Y1685910D01*
G37*
G36*
G01X560628Y1668468D02*
X555482D01*
Y1677256D01*
X560628D01*
Y1674664D01*
X562167D01*
X564230Y1676727D01*
Y1679518D01*
X555187D01*
Y1683482D01*
X563483D01*
Y1679522D01*
X569770D01*
Y1678652D01*
X571230D01*
Y1679522D01*
X574223D01*
X575668Y1680966D01*
Y1693478D01*
X571230D01*
Y1694348D01*
X569770D01*
Y1693478D01*
X564230D01*
Y1694698D01*
X562983D01*
Y1694518D01*
X555187D01*
Y1698482D01*
X564230D01*
Y1698822D01*
X569770D01*
Y1697952D01*
X571230D01*
Y1698822D01*
X576770D01*
Y1697952D01*
X579719D01*
X579769Y1697962D01*
G02X580237Y1693999I399J-1962D01*
G03X579270Y1693000I33J-1000D01*
G01Y1679474D01*
X576770Y1676973D01*
Y1674178D01*
X571230D01*
Y1675048D01*
X569770D01*
Y1674178D01*
X566777D01*
X563659Y1671060D01*
X560628D01*
Y1668468D01*
G37*
G36*
G01X803030Y1593770D02*
Y1588230D01*
X798270D01*
G03X797182Y1589107I-993J-118D01*
G02Y1592893I-182J1893D01*
G03X798270Y1593770I95J995D01*
G01X803030D01*
G37*
G36*
G01X540030D02*
Y1588230D01*
X535270D01*
G03X534182Y1589107I-993J-118D01*
G02Y1592893I-182J1893D01*
G03X535270Y1593770I95J995D01*
G01X540030D01*
G37*
G36*
G01X804030Y1517770D02*
Y1512230D01*
X799270D01*
G03X798182Y1513107I-993J-118D01*
G02Y1516893I-182J1893D01*
G03X799270Y1517770I95J995D01*
G01X804030D01*
G37*
G36*
G01X727030D02*
Y1512230D01*
X722270D01*
G03X721182Y1513107I-993J-118D01*
G02Y1516893I-182J1893D01*
G03X722270Y1517770I95J995D01*
G01X727030D01*
G37*
G36*
G01X620030D02*
Y1512230D01*
X615270D01*
G03X614182Y1513107I-993J-118D01*
G02Y1516893I-182J1893D01*
G03X615270Y1517770I95J995D01*
G01X620030D01*
G37*
G36*
G01X540030D02*
Y1512230D01*
X535270D01*
G03X534182Y1513107I-993J-118D01*
G02Y1516893I-182J1893D01*
G03X535270Y1517770I95J995D01*
G01X540030D01*
G37*
G36*
G01X690482Y1474788D02*
Y1473038D01*
X686518D01*
Y1482514D01*
X687298D01*
Y1483947D01*
X686970Y1484394D01*
Y1489770D01*
X691722D01*
Y1484230D01*
X690548D01*
Y1483633D01*
X690045Y1483131D01*
X690301Y1482514D01*
X690482D01*
Y1480764D01*
G03X691580Y1479768I1000J-1D01*
G02Y1475784I196J-1992D01*
G03X690482Y1474788I-98J-995D01*
G37*
G36*
G01X803030Y1446770D02*
Y1441230D01*
X798270D01*
G03X797182Y1442107I-993J-118D01*
G02Y1445893I-182J1893D01*
G03X798270Y1446770I95J995D01*
G01X803030D01*
G37*
G36*
G01X542030D02*
Y1441230D01*
X537270D01*
G03X536182Y1442107I-993J-118D01*
G02Y1445893I-182J1893D01*
G03X537270Y1446770I95J995D01*
G01X542030D01*
G37*
G36*
G01X726030Y1445770D02*
Y1440230D01*
X721270D01*
G03X720182Y1441107I-993J-118D01*
G02Y1444893I-182J1893D01*
G03X721270Y1445770I95J995D01*
G01X726030D01*
G37*
G36*
G01X619030Y1444770D02*
Y1439230D01*
X614270D01*
G03X613182Y1440107I-993J-118D01*
G02Y1443893I-182J1893D01*
G03X614270Y1444770I95J995D01*
G01X619030D01*
G37*
G36*
G01X692770Y1421722D02*
Y1416970D01*
X687230D01*
Y1421722D01*
X687527D01*
X687783Y1422339D01*
X687298Y1422823D01*
Y1453486D01*
X686518D01*
Y1462962D01*
X690482D01*
Y1453486D01*
X689702D01*
Y1423819D01*
X691202Y1422319D01*
Y1421722D01*
X692770D01*
G37*
G36*
G01X697302Y1404652D02*
Y1401011D01*
X697641Y1400897D01*
G02X694999Y1399075I-641J-1897D01*
G01X695008Y1399293D01*
X694298Y1400002D01*
Y1401348D01*
X693698D01*
Y1404652D01*
X697302D01*
G37*
G36*
G01X599248Y1393884D02*
X592450D01*
G02Y1396288I-1601J1202D01*
G01X599248D01*
G02Y1393884I1601J-1202D01*
G37*
G36*
G01X729202Y1394005D02*
Y1392601D01*
G02X726798I-1202J-1601D01*
G01Y1394402D01*
X725798Y1395402D01*
Y1396399D01*
G02X727075Y1400001I1202J1601D01*
G01X727293Y1399992D01*
X727878Y1400577D01*
Y1402040D01*
X727785D01*
Y1406568D01*
X724268D01*
X723671Y1405972D01*
X722794D01*
Y1405880D01*
X718040D01*
Y1408466D01*
X722568D01*
Y1411785D01*
X717607D01*
G02X714084Y1413246I-1528J1294D01*
G03X713088Y1414330I-996J84D01*
G01X711378D01*
Y1419870D01*
X716722D01*
Y1418302D01*
X717318D01*
X717423Y1418196D01*
X718040Y1418451D01*
Y1422247D01*
X722568D01*
Y1425564D01*
X718040D01*
Y1425656D01*
X716144D01*
X714593Y1427208D01*
X714375Y1427199D01*
G02X714385Y1431200I-74J2001D01*
G03X714904Y1431660I21J499D01*
G02X718886Y1431247I1996J-160D01*
G03X719878Y1430121I992J-126D01*
G01X722794D01*
Y1429432D01*
X729753D01*
Y1433653D01*
X729144Y1434261D01*
Y1440230D01*
X727970D01*
Y1445770D01*
X728605D01*
G03X728958Y1446624I0J500D01*
G01X728948Y1446633D01*
Y1447230D01*
X721178D01*
Y1452770D01*
X732822D01*
Y1447230D01*
X731548D01*
Y1445770D01*
X732722D01*
Y1440230D01*
X731548D01*
Y1435257D01*
X732248Y1434556D01*
Y1433960D01*
X734310D01*
Y1429432D01*
X741564D01*
Y1433960D01*
X744422D01*
X744838Y1434376D01*
G03X744484Y1435230I-354J354D01*
G01X744178D01*
Y1440770D01*
X745060D01*
X745110Y1441214D01*
G02X748890I1890J-214D01*
G01X748940Y1440770D01*
X755822D01*
Y1435139D01*
G03X755326Y1433820I416J-909D01*
G02X755194Y1431932I-1826J-821D01*
G03X755294Y1430733I846J-533D01*
G02X753725Y1427399I-1494J-1333D01*
G01X753507Y1427408D01*
X751756Y1425656D01*
X749960D01*
Y1425564D01*
X745432D01*
Y1412404D01*
X749960D01*
Y1409816D01*
X745432D01*
Y1406794D01*
X746121D01*
Y1402040D01*
X746028D01*
Y1400822D01*
X749154D01*
X749300Y1401058D01*
G02X750925Y1397999I1700J-1058D01*
G01X750707Y1398008D01*
X749648Y1396948D01*
X748770D01*
Y1389178D01*
X743230D01*
Y1400822D01*
X743626D01*
Y1402040D01*
X741564D01*
Y1406568D01*
X732341D01*
Y1402040D01*
X732248D01*
Y1397549D01*
X731992Y1397293D01*
X732001Y1397075D01*
G02X730134Y1395003I-2001J-74D01*
G03X729202Y1394005I68J-998D01*
G37*
G36*
G01X693558Y1394558D02*
Y1387442D01*
X686442D01*
Y1394558D01*
X688798D01*
Y1395452D01*
X687298Y1396952D01*
Y1397548D01*
X686698D01*
Y1400852D01*
X690302D01*
Y1397348D01*
X691202Y1396448D01*
Y1394558D01*
X693558D01*
G37*
G36*
G01X671202Y1395154D02*
Y1394364D01*
X671492Y1394230D01*
G02X667705Y1393719I-1492J-3230D01*
G03X667892Y1395037I-645J764D01*
G01Y1398655D01*
X666028D01*
Y1407345D01*
X672160D01*
Y1398655D01*
X670296D01*
Y1396060D01*
X671202Y1395154D01*
G37*
G36*
G01X641770Y1388178D02*
X636230D01*
Y1399822D01*
X636626D01*
Y1401040D01*
X634564D01*
Y1405568D01*
X625341D01*
Y1401040D01*
X625248D01*
Y1397549D01*
X624762Y1397063D01*
G03X624733Y1396388I354J-353D01*
G02X625164Y1394714I-1533J-1287D01*
G03X626146Y1393522I981J-192D01*
G01X630770D01*
Y1388178D01*
X625230D01*
Y1392280D01*
G03X623887Y1393220I-1000J1D01*
G02X623581Y1393135I-687J1880D01*
G03X622848Y1391769I191J-982D01*
G02X619798Y1392601I-1848J-769D01*
G01Y1393532D01*
X618798Y1394532D01*
Y1396399D01*
G02X620075Y1400001I1202J1601D01*
G01X620293Y1399992D01*
X620878Y1400577D01*
Y1401540D01*
X620785D01*
Y1405568D01*
X617268D01*
X616671Y1404972D01*
X615794D01*
Y1404880D01*
X611040D01*
Y1407466D01*
X615568D01*
Y1410785D01*
X610607D01*
G02X607204Y1412780I-1528J1294D01*
G03X606267Y1414130I-937J350D01*
G01X604478D01*
Y1419670D01*
X609822D01*
Y1418102D01*
X611040D01*
Y1421247D01*
X615568D01*
Y1424564D01*
X611040D01*
Y1424656D01*
X609644D01*
X605902Y1428398D01*
X605202D01*
X604939Y1428662D01*
X604588Y1428367D01*
G02X603821Y1431833I-1288J1533D01*
G03X605053Y1432566I259J966D01*
G02X605141Y1432844I1948J-464D01*
G01X605177Y1432934D01*
Y1433530D01*
X601178D01*
Y1439070D01*
X606522D01*
Y1434602D01*
G03X607017Y1434102I500J0D01*
G02X608601Y1433302I-17J-2002D01*
G01X609452D01*
X613632Y1429121D01*
X615794D01*
Y1428432D01*
X622753D01*
Y1432653D01*
X622144Y1433261D01*
Y1439230D01*
X620970D01*
Y1444770D01*
X621605D01*
G03X621958Y1445624I0J500D01*
G01X621948Y1445633D01*
Y1446230D01*
X614178D01*
Y1451770D01*
X625822D01*
Y1446230D01*
X624548D01*
Y1444770D01*
X625722D01*
Y1439230D01*
X624548D01*
Y1434257D01*
X625248Y1433556D01*
Y1432960D01*
X627310D01*
Y1428432D01*
X634564D01*
Y1432960D01*
X637422D01*
X637838Y1433376D01*
G03X637484Y1434230I-354J354D01*
G01X637178D01*
Y1439770D01*
X638060D01*
X638110Y1440214D01*
G02X641890I1890J-214D01*
G01X641940Y1439770D01*
X648822D01*
Y1434230D01*
X643940D01*
G03X643060Y1432753I-1J-1000D01*
G02X642661Y1430332I-1760J-953D01*
G01X642502Y1430184D01*
Y1429650D01*
X642960Y1428968D01*
Y1428566D01*
G03X643814Y1428213I500J0D01*
G01X643902Y1428302D01*
X644899D01*
G02X645212Y1425567I1601J-1202D01*
G03X644537Y1425538I-322J-383D01*
G01X643656Y1424656D01*
X642960D01*
Y1424564D01*
X638432D01*
Y1411404D01*
X642960D01*
Y1408816D01*
X638432D01*
Y1405794D01*
X639121D01*
Y1401040D01*
X639028D01*
Y1399822D01*
X642154D01*
X642300Y1400058D01*
G02X643925Y1396999I1700J-1058D01*
G01X643707Y1397008D01*
X642648Y1395948D01*
X641770D01*
Y1388178D01*
G37*
G36*
G01X805202Y1393601D02*
G02X802616Y1390554I-1201J-1602D01*
G01X801770Y1390193D01*
Y1390178D01*
X796230D01*
Y1395522D01*
X801770D01*
Y1393807D01*
X802616Y1393446D01*
G02X802798Y1393601I1387J-1444D01*
G01Y1397399D01*
G02X804075Y1401001I1202J1601D01*
G01X804293Y1400992D01*
X804878Y1401577D01*
Y1403040D01*
X804785D01*
Y1407568D01*
X801268D01*
X800671Y1406972D01*
X799794D01*
Y1406880D01*
X795040D01*
Y1409466D01*
X799568D01*
Y1412785D01*
X794607D01*
G02X791080Y1414180I-1528J1294D01*
G03X790081Y1415230I-999J50D01*
G01X788278D01*
Y1420770D01*
X793622D01*
Y1419218D01*
X795040D01*
Y1423247D01*
X799568D01*
Y1426564D01*
X795040D01*
Y1426798D01*
X792302D01*
X790393Y1428708D01*
X790175Y1428699D01*
G02X790042Y1432701I-75J2001D01*
G03X791008Y1433800I-29J1000D01*
G02X791029Y1434353I1992J201D01*
G03X790045Y1435530I-984J177D01*
G01X785178D01*
Y1441070D01*
X790522D01*
Y1436613D01*
G03X792014Y1435742I1000J-1D01*
G02X795001Y1433925I986J-1742D01*
G01X794992Y1433707D01*
X797578Y1431121D01*
X799794D01*
Y1430432D01*
X806753D01*
Y1434653D01*
X806144Y1435261D01*
Y1441230D01*
X804970D01*
Y1446770D01*
X805605D01*
G03X805958Y1447624I0J500D01*
G01X805948Y1447633D01*
Y1448230D01*
X798178D01*
Y1453770D01*
X809822D01*
Y1448230D01*
X808548D01*
Y1446770D01*
X809722D01*
Y1441230D01*
X808548D01*
Y1436257D01*
X809248Y1435556D01*
Y1434960D01*
X811310D01*
Y1430432D01*
X818564D01*
Y1434960D01*
X821422D01*
X821838Y1435376D01*
G03X821484Y1436230I-354J354D01*
G01X821178D01*
Y1441770D01*
X822060D01*
X822110Y1442214D01*
G02X825890I1890J-214D01*
G01X825940Y1441770D01*
X832822D01*
Y1436230D01*
X825052D01*
Y1434744D01*
X825461Y1434669D01*
G02X826988Y1432035I-361J-1969D01*
G01X826960Y1431955D01*
Y1429060D01*
X828960D01*
X829049Y1429448D01*
G02X830925Y1426999I1951J-448D01*
G01X830707Y1427008D01*
X830356Y1426656D01*
X826960D01*
Y1426564D01*
X822432D01*
Y1413404D01*
X826960D01*
Y1410816D01*
X822432D01*
Y1407794D01*
X823121D01*
Y1403040D01*
X823028D01*
Y1401822D01*
X826154D01*
X826300Y1402058D01*
G02X827925Y1398999I1700J-1058D01*
G01X827707Y1399008D01*
X826648Y1397948D01*
X825770D01*
Y1390178D01*
X820230D01*
Y1401822D01*
X820626D01*
Y1403040D01*
X818564D01*
Y1407568D01*
X809341D01*
Y1403040D01*
X809248D01*
Y1397549D01*
X808992Y1397293D01*
X809001Y1397075D01*
G02X808976Y1396681I-2001J-71D01*
G03X809964Y1395522I987J-159D01*
G01X814770D01*
Y1390178D01*
X809230D01*
Y1394262D01*
G03X807820Y1395174I-1000J0D01*
G02X806467Y1395070I-821J1826D01*
G03X805202Y1394106I-265J-964D01*
G01Y1393601D01*
G37*
G36*
G01X564770Y1390178D02*
X559230D01*
Y1401822D01*
X559626D01*
Y1403040D01*
X557564D01*
Y1407568D01*
X548341D01*
Y1403040D01*
X548248D01*
Y1399549D01*
X547992Y1399293D01*
X548001Y1399075D01*
G02X544309Y1397928I-2001J-75D01*
G03X543710Y1398128I-422J-268D01*
G02X543075Y1402001I-710J1872D01*
G01X543293Y1401992D01*
X543878Y1402577D01*
Y1403540D01*
X543785D01*
Y1407568D01*
X540268D01*
X539671Y1406972D01*
X538794D01*
Y1406880D01*
X534040D01*
Y1409466D01*
X538568D01*
Y1412785D01*
X534025D01*
X533919Y1412428D01*
G02X530019Y1413287I-1919J572D01*
G03X529029Y1414430I-990J143D01*
G01X528178D01*
Y1419970D01*
X534040D01*
Y1423247D01*
X538568D01*
Y1426564D01*
X534040D01*
Y1426656D01*
X533444D01*
X530302Y1429798D01*
X529601D01*
G02X527999Y1433002I-1601J1202D01*
G03X528998Y1434001I-1J1000D01*
G02X529029Y1434353I2002J1D01*
G03X528045Y1435530I-984J177D01*
G01X524178D01*
Y1441070D01*
X529522D01*
Y1436964D01*
G03X530681Y1435976I1000J-1D01*
G02X532805Y1433135I319J-1976D01*
G01X532652Y1432816D01*
X534347Y1431121D01*
X538794D01*
Y1430432D01*
X545753D01*
Y1434653D01*
X545144Y1435261D01*
Y1441230D01*
X543970D01*
Y1446770D01*
X544605D01*
G03X544958Y1447624I0J500D01*
G01X544948Y1447633D01*
Y1448230D01*
X537178D01*
Y1453770D01*
X548822D01*
Y1448230D01*
X547548D01*
Y1446770D01*
X548722D01*
Y1441230D01*
X547548D01*
Y1436257D01*
X548248Y1435556D01*
Y1434960D01*
X550310D01*
Y1430432D01*
X557564D01*
Y1434960D01*
X560422D01*
X560838Y1435376D01*
G03X560484Y1436230I-354J354D01*
G01X560178D01*
Y1441770D01*
X561060D01*
X561110Y1442214D01*
G02X564890I1890J-214D01*
G01X564940Y1441770D01*
X571822D01*
Y1436230D01*
X571600D01*
G03X570834Y1434587I0J-1000D01*
G02X570502Y1431699I-1534J-1287D01*
G01Y1428160D01*
X568998Y1426656D01*
X565960D01*
Y1426564D01*
X561432D01*
Y1413404D01*
X565960D01*
Y1410816D01*
X561432D01*
Y1407794D01*
X562121D01*
Y1403040D01*
X562028D01*
Y1401822D01*
X565154D01*
X565300Y1402058D01*
G02X566925Y1398999I1700J-1058D01*
G01X566707Y1399008D01*
X565648Y1397948D01*
X564770D01*
Y1390178D01*
G37*
G36*
G01X676770Y1416970D02*
X671230D01*
Y1420417D01*
X669798Y1421848D01*
Y1422399D01*
G02X672684Y1422918I1202J1601D01*
G01X672466Y1422579D01*
X673323Y1421722D01*
X675510D01*
G03X676217Y1423430I0J1000D01*
G01X672298Y1427348D01*
Y1453486D01*
X671518D01*
Y1456398D01*
X669210D01*
X669086Y1456318D01*
G02Y1459682I-1086J1682D01*
G01X669210Y1459602D01*
X669837D01*
X670061Y1459826D01*
X671518D01*
Y1462962D01*
X675482D01*
Y1453486D01*
X674702D01*
Y1428344D01*
X680596Y1422450D01*
Y1422056D01*
X680929Y1421722D01*
X684770D01*
Y1416970D01*
X679230D01*
Y1420023D01*
X678192Y1421060D01*
Y1421454D01*
X677624Y1422023D01*
G03X676770Y1421670I-354J-353D01*
G01Y1416970D01*
G37*
G36*
G01X562770Y1461178D02*
X557230D01*
Y1472822D01*
X557626D01*
Y1474040D01*
X555564D01*
Y1478568D01*
X546341D01*
Y1474040D01*
X546248D01*
Y1471710D01*
X545202Y1470663D01*
Y1467601D01*
G02X545828Y1466817I-1202J-1601D01*
G01X545960Y1466522D01*
X551770D01*
Y1461178D01*
X546230D01*
Y1463262D01*
G03X544820Y1464174I-1000J0D01*
G02X542639Y1467468I-820J1826D01*
G01X542798Y1467616D01*
Y1468361D01*
X542159D01*
X542039Y1468289D01*
G02X541075Y1472001I-1039J1711D01*
G01X541293Y1471992D01*
X541878Y1472577D01*
Y1474040D01*
X541785D01*
Y1478568D01*
X538268D01*
X537671Y1477972D01*
X536794D01*
Y1477880D01*
X532040D01*
Y1480466D01*
X536568D01*
Y1483785D01*
X532040D01*
Y1483878D01*
X531036D01*
X530939Y1483502D01*
G02X527019Y1484287I-1939J499D01*
G03X526078Y1485429I-990J143D01*
G01Y1490970D01*
X532040D01*
Y1494247D01*
X536568D01*
Y1497564D01*
X532040D01*
Y1497656D01*
X529906D01*
X529895Y1497668D01*
X529233D01*
X526893Y1500008D01*
X526675Y1499999D01*
G02X526866Y1503984I-75J2001D01*
G03X527998Y1504984I132J991D01*
G02X528029Y1505353I2002J18D01*
G03X527045Y1506530I-984J177D01*
G01X522178D01*
Y1512070D01*
X527522D01*
Y1507613D01*
G03X529014Y1506742I1000J-1D01*
G02X531896Y1504358I986J-1742D01*
G01X531797Y1504064D01*
X533739Y1502121D01*
X536794D01*
Y1501432D01*
X543753D01*
Y1505653D01*
X543144Y1506261D01*
Y1512230D01*
X541970D01*
Y1517770D01*
X542605D01*
G03X542958Y1518624I0J500D01*
G01X542948Y1518633D01*
Y1519230D01*
X535178D01*
Y1524770D01*
X546822D01*
Y1519230D01*
X545548D01*
Y1517770D01*
X546722D01*
Y1512230D01*
X545548D01*
Y1507257D01*
X546248Y1506556D01*
Y1505960D01*
X548310D01*
Y1501432D01*
X555564D01*
Y1505960D01*
X558422D01*
X558838Y1506376D01*
G03X558484Y1507230I-354J354D01*
G01X558178D01*
Y1512770D01*
X559060D01*
X559110Y1513214D01*
G02X562890I1890J-214D01*
G01X562940Y1512770D01*
X569822D01*
Y1507230D01*
X562052D01*
Y1506191D01*
X560121Y1504261D01*
Y1502121D01*
X562261D01*
X564441Y1504302D01*
X565799D01*
G02X569165Y1502155I1601J-1202D01*
G03X569285Y1501535I441J-236D01*
G02X567925Y1497999I-1285J-1535D01*
G01X567707Y1498008D01*
X567356Y1497656D01*
X563960D01*
Y1497564D01*
X559432D01*
Y1484404D01*
X563960D01*
Y1481816D01*
X559432D01*
Y1478794D01*
X560121D01*
Y1474040D01*
X560028D01*
Y1472822D01*
X563154D01*
X563300Y1473058D01*
G02X564925Y1469999I1700J-1058D01*
G01X564707Y1470008D01*
X563648Y1468948D01*
X562770D01*
Y1461178D01*
G37*
G36*
G01X642770D02*
X637230D01*
Y1472822D01*
X637626D01*
Y1474040D01*
X635564D01*
Y1478568D01*
X626341D01*
Y1474040D01*
X626248D01*
Y1473444D01*
X625202Y1472397D01*
Y1466601D01*
G02X625384Y1466446I-1205J-1599D01*
G01X625560Y1466522D01*
X631770D01*
Y1461178D01*
X626230D01*
Y1462262D01*
G03X624820Y1463174I-1000J0D01*
G02X621998Y1464999I-820J1826D01*
G03X620999Y1465998I-1000J-1D01*
G02X620180Y1466174I2J2002D01*
G03X618770Y1465262I-410J-912D01*
G01Y1461178D01*
X613230D01*
Y1466522D01*
X618036D01*
G03X619024Y1467681I1J1000D01*
G02X619798Y1469601I1976J319D01*
G01Y1472361D01*
X621785Y1474347D01*
Y1478568D01*
X618268D01*
X617671Y1477972D01*
X616794D01*
Y1477880D01*
X612040D01*
Y1480466D01*
X616568D01*
Y1483785D01*
X612040D01*
Y1483878D01*
X610680D01*
G02X607180Y1485713I-1601J1202D01*
G03X606232Y1487030I-948J317D01*
G01X605478D01*
Y1492570D01*
X610822D01*
Y1491002D01*
X612040D01*
Y1494247D01*
X616568D01*
Y1497564D01*
X612040D01*
Y1497656D01*
X610944D01*
X609663Y1498938D01*
G03X608988Y1498967I-353J-354D01*
G02X606206Y1501833I-1289J1532D01*
G03X606139Y1503232I-746J665D01*
G02X605576Y1505254I1361J1468D01*
G03X604615Y1506530I-961J276D01*
G01X602178D01*
Y1512070D01*
X607522D01*
Y1506742D01*
X607917Y1506658D01*
G02X609101Y1505902I-417J-1958D01*
G01X612434D01*
X615618Y1502717D01*
Y1502121D01*
X616794D01*
Y1501432D01*
X623753D01*
Y1505653D01*
X623144Y1506261D01*
Y1512230D01*
X621970D01*
Y1517770D01*
X622605D01*
G03X622958Y1518624I0J500D01*
G01X622948Y1518633D01*
Y1519230D01*
X615178D01*
Y1524770D01*
X626822D01*
Y1519230D01*
X625548D01*
Y1517770D01*
X626722D01*
Y1512230D01*
X625548D01*
Y1507257D01*
X626248Y1506556D01*
Y1505960D01*
X628310D01*
Y1501432D01*
X635564D01*
Y1505960D01*
X638422D01*
X638838Y1506376D01*
G03X638484Y1507230I-354J354D01*
G01X638178D01*
Y1512770D01*
X639060D01*
X639110Y1513214D01*
G02X642890I1890J-214D01*
G01X642940Y1512770D01*
X649822D01*
Y1507230D01*
X642052D01*
Y1506698D01*
G03X642581Y1506198I500J-1D01*
G02X643960Y1502644I119J-1998D01*
G01Y1501331D01*
X644577Y1501076D01*
X644702Y1501202D01*
X646399D01*
G02Y1498798I1601J-1202D01*
G01X645698D01*
X644556Y1497656D01*
X643960D01*
Y1497564D01*
X639432D01*
Y1484404D01*
X643960D01*
Y1481816D01*
X639432D01*
Y1478794D01*
X640121D01*
Y1474040D01*
X640028D01*
Y1472822D01*
X643154D01*
X643300Y1473058D01*
G02X644925Y1469999I1700J-1058D01*
G01X644707Y1470008D01*
X643648Y1468948D01*
X642770D01*
Y1461178D01*
G37*
G36*
G01X749770D02*
X744230D01*
Y1472822D01*
X744626D01*
Y1474040D01*
X742564D01*
Y1478568D01*
X733341D01*
Y1474040D01*
X733248D01*
Y1471680D01*
X732692Y1471124D01*
X732831Y1470810D01*
G02X730888Y1468001I-1831J-810D01*
G03X729888Y1467335I-57J-998D01*
G02X727180Y1466174I-1888J665D01*
G03X725770Y1465262I-410J-912D01*
G01Y1461178D01*
X720230D01*
Y1466522D01*
X725036D01*
G03X726024Y1467681I1J1000D01*
G02X727359Y1469897I1976J320D01*
G01X727698Y1470011D01*
Y1471368D01*
X728878Y1472547D01*
Y1474040D01*
X728785D01*
Y1478568D01*
X725268D01*
X724671Y1477972D01*
X723794D01*
Y1477880D01*
X719040D01*
Y1480466D01*
X723568D01*
Y1483785D01*
X718607D01*
G02X715141Y1485580I-1528J1294D01*
G03X714172Y1486830I-968J250D01*
G01X712478D01*
Y1492370D01*
X717822D01*
Y1490802D01*
X719040D01*
Y1494247D01*
X723568D01*
Y1497564D01*
X719040D01*
Y1497656D01*
X718444D01*
X716002Y1500098D01*
X714901D01*
G02X712968Y1503274I-1601J1202D01*
G03X713801Y1504207I-166J986D01*
G02X714040Y1505054I1999J-107D01*
G03X713161Y1506530I-879J476D01*
G01X709178D01*
Y1512070D01*
X714522D01*
Y1507089D01*
G03X715614Y1506093I1000J0D01*
G02X717401Y1505302I186J-1993D01*
G01X720398D01*
X722618Y1503081D01*
Y1502121D01*
X723794D01*
Y1501432D01*
X730753D01*
Y1505653D01*
X730144Y1506261D01*
Y1512230D01*
X728970D01*
Y1517770D01*
X729605D01*
G03X729958Y1518624I0J500D01*
G01X729948Y1518633D01*
Y1519230D01*
X722178D01*
Y1524770D01*
X733822D01*
Y1519230D01*
X732548D01*
Y1517770D01*
X733722D01*
Y1512230D01*
X732548D01*
Y1507257D01*
X733248Y1506556D01*
Y1505960D01*
X735310D01*
Y1501432D01*
X742564D01*
Y1505960D01*
X745422D01*
X745838Y1506376D01*
G03X745484Y1507230I-354J354D01*
G01X745178D01*
Y1512770D01*
X746060D01*
X746110Y1513214D01*
G02X749890I1890J-214D01*
G01X749940Y1512770D01*
X756822D01*
Y1507229D01*
G03X756036Y1505653I31J-1000D01*
G02X756330Y1503969I-1636J-1153D01*
G03X756798Y1502836I964J-265D01*
G02X755729Y1499097I-994J-1738D01*
G01X755511Y1499106D01*
X754062Y1497656D01*
X750960D01*
Y1497564D01*
X746432D01*
Y1484404D01*
X750960D01*
Y1481816D01*
X746432D01*
Y1478794D01*
X747121D01*
Y1474040D01*
X747028D01*
Y1472822D01*
X750154D01*
X750300Y1473058D01*
G02X751925Y1469999I1700J-1058D01*
G01X751707Y1470008D01*
X750648Y1468948D01*
X749770D01*
Y1461178D01*
G37*
G36*
G01X826770D02*
X821230D01*
Y1472822D01*
X821626D01*
Y1474040D01*
X819564D01*
Y1478568D01*
X810341D01*
Y1474040D01*
X810248D01*
Y1473444D01*
X810202Y1473397D01*
Y1469601D01*
G02X810976Y1467681I-1202J-1601D01*
G03X811964Y1466522I987J-159D01*
G01X815770D01*
Y1461178D01*
X810230D01*
Y1465007D01*
G03X809153Y1466004I-1000J0D01*
G02X807313Y1466922I-153J1996D01*
G03X805981Y1467255I-842J-539D01*
G02X805075Y1471001I-981J1745D01*
G01X805293Y1470992D01*
X805878Y1471577D01*
Y1474040D01*
X805785D01*
Y1478568D01*
X802268D01*
X801671Y1477972D01*
X800794D01*
Y1477880D01*
X796040D01*
Y1480466D01*
X800568D01*
Y1483785D01*
X796040D01*
Y1483878D01*
X794680D01*
G02X791091Y1485313I-1601J1202D01*
G03X790098Y1486430I-993J117D01*
G01X789978D01*
Y1491970D01*
X796040D01*
Y1494247D01*
X800568D01*
Y1497564D01*
X796040D01*
Y1497656D01*
X794844D01*
X793763Y1498738D01*
G03X793088Y1498767I-353J-354D01*
G02X790160Y1501449I-1289J1532D01*
G03X790094Y1502681I-819J574D01*
G02X789878Y1505020I1506J1319D01*
G03X789017Y1506530I-860J510D01*
G01X786178D01*
Y1512070D01*
X791522D01*
Y1506044D01*
X791937Y1505973D01*
G02X793201Y1505202I-337J-1973D01*
G01X794659D01*
X797739Y1502121D01*
X800794D01*
Y1501432D01*
X807753D01*
Y1505653D01*
X807144Y1506261D01*
Y1512230D01*
X805970D01*
Y1517770D01*
X806605D01*
G03X806958Y1518624I0J500D01*
G01X806948Y1518633D01*
Y1519230D01*
X799178D01*
Y1524770D01*
X810822D01*
Y1519230D01*
X809548D01*
Y1517770D01*
X810722D01*
Y1512230D01*
X809548D01*
Y1507257D01*
X810248Y1506556D01*
Y1505960D01*
X812310D01*
Y1501432D01*
X819564D01*
Y1505960D01*
X822422D01*
X822838Y1506376D01*
G03X822484Y1507230I-354J354D01*
G01X822178D01*
Y1512770D01*
X823060D01*
X823110Y1513214D01*
G02X826890I1890J-214D01*
G01X826940Y1512770D01*
X833822D01*
Y1507230D01*
X826052D01*
Y1506701D01*
G03X826541Y1506202I500J1D01*
G02X828053Y1502937I-41J-2002D01*
G01X827941Y1502799D01*
Y1502121D01*
X827960D01*
Y1500060D01*
X829360D01*
X830008Y1500707D01*
X829999Y1500925D01*
G02X831925Y1498999I2001J75D01*
G01X831707Y1499008D01*
X830356Y1497656D01*
X827960D01*
Y1497564D01*
X823432D01*
Y1484404D01*
X827960D01*
Y1481816D01*
X823432D01*
Y1478794D01*
X824121D01*
Y1474040D01*
X824028D01*
Y1472822D01*
X827154D01*
X827300Y1473058D01*
G02X828925Y1469999I1700J-1058D01*
G01X828707Y1470008D01*
X827648Y1468948D01*
X826770D01*
Y1461178D01*
G37*
G36*
G01X684702Y1471101D02*
G02X682298I-1202J-1601D01*
G01Y1473038D01*
X681518D01*
Y1482514D01*
X681699D01*
X681955Y1483131D01*
X681452Y1483633D01*
Y1484230D01*
X679702D01*
Y1482514D01*
X680482D01*
Y1473038D01*
X676518D01*
Y1482514D01*
X677298D01*
Y1499002D01*
X675798Y1500502D01*
Y1517399D01*
G02X675561Y1517608I1202J1601D01*
G01X674702Y1517261D01*
Y1482514D01*
X675482D01*
Y1473038D01*
X671518D01*
Y1482514D01*
X672298D01*
Y1520798D01*
X675702Y1524202D01*
X680399D01*
G02Y1521798I1601J-1202D01*
G01X679404D01*
G03X678603Y1520199I-1J-1000D01*
G02X678202Y1517399I-1603J-1199D01*
G01Y1501498D01*
X679702Y1499998D01*
Y1489770D01*
X685030D01*
Y1484230D01*
X684702D01*
Y1482514D01*
X685482D01*
Y1473038D01*
X684702D01*
Y1471101D01*
G37*
G36*
G01X562770Y1537178D02*
X557230D01*
Y1548822D01*
X557626D01*
Y1550040D01*
X555564D01*
Y1554568D01*
X546341D01*
Y1550040D01*
X546248D01*
Y1542522D01*
X551770D01*
Y1537178D01*
X546230D01*
Y1539262D01*
G03X544820Y1540174I-1000J0D01*
G02X542112Y1541335I-820J1826D01*
G03X541112Y1542001I-943J-332D01*
G02X540180Y1542174I-111J1999D01*
G03X538770Y1541262I-410J-912D01*
G01Y1537178D01*
X533230D01*
Y1542522D01*
X538036D01*
G03X539024Y1543681I1J1000D01*
G02X541075Y1546001I1976J319D01*
G01X541293Y1545992D01*
X541878Y1546577D01*
Y1550040D01*
X541785D01*
Y1554568D01*
X538268D01*
X537671Y1553972D01*
X536794D01*
Y1553880D01*
X532040D01*
Y1556466D01*
X536568D01*
Y1559785D01*
X532040D01*
Y1559878D01*
X530680D01*
G02X527159Y1561647I-1601J1201D01*
G03X526200Y1562930I-959J283D01*
G01X525478D01*
Y1568470D01*
X530822D01*
Y1566902D01*
X532040D01*
Y1570247D01*
X536568D01*
Y1573564D01*
X532040D01*
Y1574165D01*
X530406Y1575798D01*
X529601D01*
G02X526003Y1576866I-1601J1202D01*
G03X525005Y1577798I-998J-68D01*
G01X524601D01*
G02Y1580202I-1601J1202D01*
G01X526532D01*
X526632Y1580302D01*
X531559D01*
X533739Y1578121D01*
X536794D01*
Y1577432D01*
X543753D01*
Y1581653D01*
X543144Y1582261D01*
Y1588230D01*
X541970D01*
Y1593770D01*
X542605D01*
G03X542958Y1594624I0J500D01*
G01X542948Y1594633D01*
Y1595230D01*
X535178D01*
Y1600770D01*
X546822D01*
Y1595230D01*
X545548D01*
Y1593770D01*
X546722D01*
Y1588230D01*
X545548D01*
Y1583257D01*
X546248Y1582556D01*
Y1581960D01*
X548310D01*
Y1577432D01*
X555564D01*
Y1581960D01*
X558422D01*
X558838Y1582376D01*
G03X558484Y1583229I-354J353D01*
G01X558178D01*
Y1588770D01*
X559060D01*
X559110Y1589214D01*
G02X562890I1890J-214D01*
G01X562940Y1588770D01*
X569822D01*
Y1583230D01*
X562052D01*
Y1582191D01*
X560121Y1580261D01*
Y1578121D01*
X563960D01*
Y1573564D01*
X559432D01*
Y1560404D01*
X563960D01*
Y1557816D01*
X559432D01*
Y1554794D01*
X560121D01*
Y1550040D01*
X560028D01*
Y1548822D01*
X563154D01*
X563300Y1549058D01*
G02X564925Y1545999I1700J-1058D01*
G01X564707Y1546008D01*
X563648Y1544948D01*
X562770D01*
Y1537178D01*
G37*
G36*
G01X825770D02*
X820230D01*
Y1548822D01*
X820626D01*
Y1550040D01*
X818564D01*
Y1554568D01*
X809341D01*
Y1550040D01*
X809248D01*
Y1545549D01*
X808992Y1545293D01*
X809001Y1545075D01*
G02X805112Y1544335I-2001J-75D01*
G03X804112Y1545001I-943J-332D01*
G02X804075Y1549001I-112J1999D01*
G01X804293Y1548992D01*
X804878Y1549577D01*
Y1550540D01*
X804785D01*
Y1554568D01*
X801268D01*
X800671Y1553972D01*
X799794D01*
Y1553880D01*
X795040D01*
Y1556466D01*
X799568D01*
Y1559785D01*
X794607D01*
G02X791114Y1560695I-1528J1294D01*
G01X791035Y1561098D01*
X790122D01*
Y1559530D01*
X787522D01*
Y1553230D01*
X782178D01*
Y1558770D01*
X784778D01*
Y1565070D01*
X790121D01*
Y1564773D01*
X790738Y1564517D01*
X792438Y1566218D01*
X795040D01*
Y1570247D01*
X799568D01*
Y1573564D01*
X795040D01*
Y1573656D01*
X793644D01*
X792302Y1574998D01*
X790301D01*
G02X788581Y1574202I-1601J1202D01*
G03X787522Y1573203I-59J-998D01*
G01Y1569230D01*
X782178D01*
Y1574770D01*
X785729D01*
G03X786719Y1575913I0J1000D01*
G02X788308Y1578163I1981J287D01*
G03X788708Y1578703I-98J491D01*
G02X792301Y1580102I1992J197D01*
G01X794759D01*
X796739Y1578121D01*
X799794D01*
Y1577432D01*
X806753D01*
Y1581653D01*
X806144Y1582261D01*
Y1588230D01*
X804970D01*
Y1593770D01*
X805605D01*
G03X805958Y1594624I0J500D01*
G01X805948Y1594633D01*
Y1595230D01*
X798178D01*
Y1600770D01*
X809822D01*
Y1595230D01*
X808548D01*
Y1593770D01*
X809722D01*
Y1588230D01*
X808548D01*
Y1583257D01*
X809248Y1582556D01*
Y1581960D01*
X811310D01*
Y1577432D01*
X818564D01*
Y1581960D01*
X821422D01*
X821838Y1582376D01*
G03X821484Y1583229I-354J353D01*
G01X821178D01*
Y1588770D01*
X822060D01*
X822110Y1589214D01*
G02X825890I1890J-214D01*
G01X825940Y1588770D01*
X832822D01*
Y1583214D01*
G03X832234Y1581587I178J-984D01*
G02X832534Y1579497I-1534J-1287D01*
G03X832794Y1578838I458J-200D01*
G02X831925Y1574999I-794J-1838D01*
G01X831707Y1575008D01*
X830356Y1573656D01*
X826960D01*
Y1573564D01*
X822432D01*
Y1560404D01*
X826960D01*
Y1557816D01*
X822432D01*
Y1554794D01*
X823121D01*
Y1550040D01*
X823028D01*
Y1548822D01*
X826154D01*
X826300Y1549058D01*
G02X827925Y1545999I1700J-1058D01*
G01X827707Y1546008D01*
X826648Y1544948D01*
X825770D01*
Y1537178D01*
G37*
G36*
G01X690302Y1405048D02*
X686698D01*
Y1408352D01*
X687298D01*
Y1409177D01*
X687783Y1409661D01*
X687527Y1410278D01*
X687230D01*
Y1411452D01*
X684770D01*
Y1410278D01*
X679283D01*
G03X679227Y1410274I8J-500D01*
G03X679230Y1410330I-497J55D01*
G01Y1415030D01*
X684770D01*
Y1413856D01*
X687230D01*
Y1415030D01*
X692770D01*
Y1410278D01*
X691202D01*
Y1409681D01*
X690302Y1408781D01*
Y1405048D01*
G37*
G36*
G01X681492Y1394230D02*
G02X678508I-1492J-3230D01*
G01X678798Y1394364D01*
Y1398655D01*
X677840D01*
Y1405646D01*
X676804Y1406683D01*
Y1408151D01*
X675404Y1409550D01*
Y1409944D01*
X675071Y1410278D01*
X671230D01*
Y1415030D01*
X676770D01*
Y1411977D01*
X677808Y1410940D01*
Y1410546D01*
X678376Y1409977D01*
G03X678543Y1409867I353J354D01*
G02X678819Y1409590I-188J-463D01*
G03X678929Y1409424I464J188D01*
G01X679206Y1409147D01*
Y1407679D01*
X679540Y1407345D01*
X683972D01*
Y1398655D01*
X682108D01*
Y1398058D01*
X681202Y1397152D01*
Y1394364D01*
X681492Y1394230D01*
G37*
G36*
G01X809856Y1685156D02*
X807992Y1683293D01*
X808001Y1683075D01*
G02X806075Y1685001I-2001J-75D01*
G01X806293Y1684992D01*
X806677Y1685376D01*
G03X806324Y1686230I-353J354D01*
G01X806278D01*
Y1691770D01*
X811030D01*
Y1686230D01*
X809856D01*
Y1685156D01*
G37*
G36*
G01X797514Y1643204D02*
Y1639828D01*
X789218D01*
Y1643204D01*
X792164D01*
Y1643800D01*
X792550Y1644186D01*
Y1646552D01*
X791396D01*
Y1651008D01*
X796108D01*
Y1646552D01*
X794954D01*
Y1643204D01*
X797514D01*
G37*
G36*
G01X746040Y1575822D02*
Y1573722D01*
X743236D01*
Y1580326D01*
X746040D01*
Y1578527D01*
X746656Y1578271D01*
X746846Y1578462D01*
X747442D01*
Y1580128D01*
X754558D01*
Y1574392D01*
X747442D01*
Y1575822D01*
X746040D01*
G37*
G36*
G01X817722Y1686230D02*
X812970D01*
Y1691770D01*
X813468D01*
Y1693246D01*
X810916D01*
Y1700754D01*
X818424D01*
Y1697014D01*
X824133D01*
Y1691868D01*
X818987D01*
Y1693246D01*
X816876D01*
G03X816522Y1692392I0J-500D01*
G01X816548Y1692367D01*
Y1691770D01*
X817722D01*
Y1686230D01*
G37*
G36*
G01X814601Y1616798D02*
G02Y1619202I-1601J1202D01*
G01X815405D01*
X815889Y1619686D01*
X816486D01*
Y1622731D01*
X824782D01*
Y1622244D01*
X825379D01*
X825422Y1622202D01*
X826399D01*
G02X826892Y1622667I1600J-1203D01*
G03Y1624333I-554J833D01*
G02X826399Y1624798I1107J1668D01*
G01X824782D01*
Y1624473D01*
X816486D01*
Y1627118D01*
X809164D01*
X807773Y1628509D01*
X801264Y1622000D01*
X797514D01*
Y1619355D01*
X789218D01*
Y1619798D01*
X787601D01*
G02X784892Y1622667I-1601J1202D01*
G03Y1624333I-554J833D01*
G02X784113Y1626669I1108J1667D01*
G03X783114Y1628001I-943J334D01*
G02X781176Y1630825I-114J1999D01*
G03X780265Y1632238I-911J413D01*
G01X780152D01*
X774437Y1637952D01*
X771884Y1635398D01*
X768210D01*
X768086Y1635318D01*
G02X765188Y1637852I-1086J1682D01*
G03X764283Y1639278I-905J426D01*
G01X762722D01*
Y1634230D01*
X757969D01*
Y1638144D01*
G03X757116Y1638498I-500J0D01*
G01X757023Y1638404D01*
X756364D01*
X756030Y1638071D01*
Y1634230D01*
X751278D01*
Y1635011D01*
G03X750185Y1636007I-1000J0D01*
G02X750842Y1639816I-185J1993D01*
G01X750942Y1639770D01*
X754331D01*
X755368Y1640808D01*
X755738D01*
Y1642740D01*
X755736Y1642761D01*
G02Y1642963I1197J101D01*
G01X755738Y1642984D01*
Y1644845D01*
X755747D01*
X757116Y1646214D01*
Y1647016D01*
X757114Y1647037D01*
G02X757110Y1647138I1197J98D01*
G01Y1648341D01*
X755042Y1650409D01*
X753852D01*
Y1654650D01*
G03X752998Y1655003I-500J0D01*
G01X752794Y1654798D01*
X751601D01*
G02X748892Y1657667I-1601J1202D01*
G03Y1659333I-554J833D01*
G02X751601Y1662202I1108J1667D01*
G01X753852D01*
Y1663592D01*
X756798D01*
Y1664502D01*
X755293Y1666008D01*
X755075Y1665999D01*
G02X757001Y1667925I-75J2001D01*
G01X756992Y1667707D01*
X757945Y1666754D01*
G03X758798Y1667108I353J354D01*
G01Y1667384D01*
X758639Y1667532D01*
G02X761202Y1667399I1361J1468D01*
G01Y1664747D01*
X761760Y1664188D01*
Y1663592D01*
X762148D01*
Y1657952D01*
X761467D01*
G03X760760Y1656245I0J-1000D01*
G01X760958Y1656047D01*
X762148D01*
Y1654430D01*
X763230D01*
Y1657522D01*
X768770D01*
Y1652092D01*
X770140Y1650722D01*
X775770D01*
Y1649548D01*
X776152D01*
X777707Y1647992D01*
X777925Y1648001D01*
G02X780002Y1646001I75J-2001D01*
G03X781001Y1645002I1000J1D01*
G02X779399Y1641798I-1J-2002D01*
G01X777929D01*
G03X777221Y1640091I-1J-1000D01*
G01X777490Y1639822D01*
Y1639428D01*
X781478Y1635440D01*
X784139D01*
G03X785089Y1636755I1J1000D01*
G02X788745Y1638346I1900J629D01*
G01X788888Y1638086D01*
X797514D01*
Y1635440D01*
X806172D01*
Y1640720D01*
X800340Y1646552D01*
X797892D01*
Y1651008D01*
X802604D01*
Y1648816D01*
X808303Y1643118D01*
X816486D01*
Y1643204D01*
X824782D01*
Y1640202D01*
X826399D01*
G02X829602Y1637800I1601J-1202D01*
G03Y1637200I400J-300D01*
G02X829108Y1634333I-1602J-1200D01*
G03Y1632667I554J-833D01*
G02Y1629333I-1108J-1667D01*
G03Y1627667I554J-833D01*
G02Y1624333I-1108J-1667D01*
G03Y1622667I554J-833D01*
G02X826399Y1619798I-1108J-1667D01*
G01X824782D01*
Y1616796D01*
X816486D01*
Y1616798D01*
X814601D01*
G37*
G54D63*
X752500Y1646000D03*
X742800D03*
G54D66*
X840000Y1650000D03*
Y1680000D03*
Y1670000D03*
G54D57*
X549000Y1649138D03*
G54D65*
X840000Y1640000D03*
G54D61*
X589900Y1453700D03*
Y1524000D03*
X774500Y1453700D03*
Y1524000D03*
G54D60*
X708850Y1496000D03*
X601850D03*
X600850Y1423000D03*
X521850Y1572000D03*
X523850Y1409000D03*
Y1425000D03*
X521850Y1480000D03*
Y1496000D03*
Y1556000D03*
X524850Y1585300D03*
X576150Y1408000D03*
Y1424000D03*
Y1417000D03*
X574150Y1488000D03*
Y1495000D03*
Y1479000D03*
Y1555000D03*
Y1564000D03*
Y1571000D03*
X600850Y1407000D03*
X601850Y1480000D03*
X653150Y1415000D03*
Y1406000D03*
Y1422000D03*
X654150Y1495000D03*
Y1488000D03*
Y1479000D03*
X707850Y1408000D03*
Y1424000D03*
X710850Y1437300D03*
X708850Y1480000D03*
X760150Y1407000D03*
Y1416000D03*
Y1423000D03*
X761150Y1479000D03*
Y1488000D03*
Y1495000D03*
X784850Y1409000D03*
Y1425000D03*
X785850Y1480000D03*
Y1496000D03*
X787850Y1585300D03*
X837150Y1408000D03*
Y1424000D03*
Y1417000D03*
X838150Y1479000D03*
Y1495000D03*
Y1488000D03*
X837150Y1555000D03*
Y1564000D03*
Y1571000D03*
G54D59*
X812000Y1539850D03*
X800000Y1463850D03*
X735000Y1391850D03*
X551000Y1392850D03*
X538000D03*
X553000Y1445150D03*
X536000Y1463850D03*
X551000Y1516150D03*
Y1592150D03*
X615000Y1390850D03*
X630000Y1443150D03*
X631000Y1516150D03*
X722000Y1391850D03*
X737000Y1444150D03*
X736000Y1463850D03*
X738000Y1516150D03*
X799000Y1539850D03*
X814000Y1445150D03*
X815000Y1516150D03*
X814000Y1592150D03*
G54D64*
X800248Y1655220D03*
G54D58*
X538665Y1681500D03*
G54D62*
X683500Y1458224D03*
X678500D03*
%LPD*%
G75*
G36*
G01X646000Y1584000D02*
Y1567000D01*
X650000Y1563000D01*
Y1558000D01*
X624000D01*
Y1563000D01*
X628000Y1567000D01*
Y1584000D01*
X646000D01*
G37*
G36*
G01X765323Y1644030D02*
X765290Y1644064D01*
X762262D01*
Y1645936D01*
X765290D01*
X765323Y1645970D01*
X767071D01*
X767303Y1645738D01*
G02X766596Y1644030I-707J-708D01*
G01X765323D01*
G37*
G36*
G01X797514Y1625204D02*
Y1627849D01*
X789218D01*
Y1627362D01*
X788621D01*
X788460Y1627202D01*
X787601D01*
G03X786791Y1627839I-1601J-1202D01*
G01X786488Y1627969D01*
Y1628798D01*
X788337D01*
X789130Y1629592D01*
X797514D01*
Y1632238D01*
X806172D01*
Y1631437D01*
X799938Y1625204D01*
X797514D01*
G37*
G36*
G01X810490Y1630322D02*
X809374Y1631437D01*
Y1639914D01*
X816486D01*
Y1634710D01*
X824782D01*
Y1634798D01*
X826399D01*
G03X826892Y1634333I1600J1203D01*
G02Y1632667I-554J-833D01*
G03X826399Y1632202I1107J-1668D01*
G01X825659D01*
X825379Y1632482D01*
X824782D01*
Y1632968D01*
X816486D01*
Y1630322D01*
X810490D01*
G37*
G36*
G01X823121Y1578121D02*
Y1580261D01*
X825052Y1582191D01*
Y1583230D01*
X828400D01*
G02X829166Y1581587I0J-1000D01*
G03X828700Y1580385I1534J-1286D01*
G01X828692Y1580191D01*
X828217Y1579716D01*
X826856D01*
X825261Y1578121D01*
X823121D01*
G37*
G54D10*
X523850Y1409000D03*
X530150D03*
X524550Y1417200D03*
X530850D03*
X523850Y1425000D03*
X530150D03*
X526850Y1438300D03*
X533150D03*
X522450Y1488200D03*
X528750D03*
X521850Y1480000D03*
X528150D03*
X521850Y1496000D03*
X528150D03*
X524850Y1509300D03*
X531150D03*
X521850Y1556000D03*
X528150D03*
X521850Y1565700D03*
X528150D03*
X521850Y1572000D03*
X528150D03*
X524850Y1585300D03*
X531150D03*
X546150Y1451000D03*
X539850D03*
X544150Y1522000D03*
X537850D03*
X544150Y1598000D03*
X537850D03*
X576150Y1408000D03*
X569850D03*
X576150Y1424000D03*
X569850D03*
X576150Y1417000D03*
X569850D03*
X569150Y1439000D03*
X562850D03*
X574150Y1488000D03*
X567850D03*
X574150Y1495000D03*
X567850D03*
X574150Y1479000D03*
X567850D03*
X567150Y1510000D03*
X560850D03*
X574150Y1555000D03*
X567850D03*
X574150Y1564000D03*
X567850D03*
X574150Y1571000D03*
X567850D03*
X567150Y1586000D03*
X560850D03*
X600850Y1407000D03*
X607150D03*
X600850Y1416900D03*
X607150D03*
X600850Y1423000D03*
X607150D03*
X603850Y1436300D03*
X610150D03*
X616850Y1449000D03*
X601850Y1489800D03*
X608150D03*
X601850Y1496000D03*
X608150D03*
X601850Y1480000D03*
X608150D03*
X604850Y1509300D03*
X611150D03*
X623150Y1449000D03*
X624150Y1522000D03*
X617850D03*
X653150Y1415000D03*
X646850D03*
X653150Y1406000D03*
X646850D03*
X646150Y1437000D03*
X639850D03*
X653150Y1422000D03*
X646850D03*
X654150Y1495000D03*
X647850D03*
X654150Y1488000D03*
X647850D03*
X654150Y1479000D03*
X647850D03*
X647150Y1510000D03*
X640850D03*
X693150Y1614000D03*
X686850D03*
X697850Y1682900D03*
X707850Y1408000D03*
X714150D03*
X707750Y1417100D03*
X714050D03*
X707850Y1424000D03*
X714150D03*
X710850Y1437300D03*
X717150D03*
X708850Y1489600D03*
X715150D03*
X708850Y1496000D03*
X715150D03*
X708850Y1480000D03*
X715150D03*
X711850Y1509300D03*
X718150D03*
X717850Y1556000D03*
X711150Y1570000D03*
X704850D03*
X704150Y1682900D03*
X714850Y1666000D03*
X730150Y1450000D03*
X723850D03*
X731150Y1522000D03*
X724850D03*
X724150Y1556000D03*
X722850Y1563000D03*
X729150D03*
X721150Y1666000D03*
X735850Y1679000D03*
X760150Y1407000D03*
X753850D03*
X760150Y1416000D03*
X753850D03*
X760150Y1423000D03*
X753850D03*
X753150Y1438000D03*
X746850D03*
X754850Y1479000D03*
Y1488000D03*
Y1495000D03*
X754150Y1510000D03*
X747850D03*
X742150Y1679000D03*
X761150Y1479000D03*
Y1488000D03*
Y1495000D03*
X781150Y1562300D03*
X775850Y1680000D03*
X784850Y1409000D03*
X791150D03*
X784650Y1418000D03*
X790950D03*
X784850Y1425000D03*
X791150D03*
X787850Y1438300D03*
X794150D03*
X800850Y1451000D03*
X786350Y1489200D03*
X792650D03*
X785850Y1480000D03*
X792150D03*
X785850Y1496000D03*
X792150D03*
X788850Y1509300D03*
X795150D03*
X784850Y1556000D03*
X791150D03*
X787450Y1562300D03*
X784850Y1572000D03*
X791150D03*
X787850Y1585300D03*
X794150D03*
X800850Y1598000D03*
X782150Y1680000D03*
X807150Y1451000D03*
X808150Y1522000D03*
X801850D03*
X807150Y1598000D03*
X837150Y1408000D03*
X830850D03*
X837150Y1424000D03*
X830850D03*
X837150Y1417000D03*
X830850D03*
X830150Y1439000D03*
X823850D03*
X838150Y1479000D03*
X831850D03*
X838150Y1495000D03*
X831850D03*
X838150Y1488000D03*
X831850D03*
X831150Y1510000D03*
X824850D03*
X837150Y1555000D03*
X830850D03*
X837150Y1564000D03*
X830850D03*
X837150Y1571000D03*
X830850D03*
X830150Y1586000D03*
X823850D03*
G54D20*
X539945Y1672862D03*
X549000D03*
X558055D03*
G54D11*
X523850Y1409000D03*
X532000Y1413000D03*
X523850Y1425000D03*
X528000Y1431000D03*
X531000Y1434000D03*
X526850Y1438300D03*
X521850Y1496000D03*
Y1480000D03*
X529000Y1484000D03*
X524850Y1509300D03*
X526600Y1502000D03*
X530000Y1505000D03*
X521850Y1556000D03*
Y1572000D03*
X529079Y1561079D03*
X528000Y1577000D03*
X523000Y1579000D03*
X524850Y1585300D03*
X531000Y1655000D03*
X551000Y1392850D03*
X538000D03*
X543000Y1400000D03*
X546000Y1399000D03*
X553000Y1445150D03*
X539850Y1451000D03*
X549000Y1463850D03*
X536000D03*
X541000Y1470000D03*
X544000Y1466000D03*
X551000Y1516150D03*
X537850Y1522000D03*
X549000Y1539850D03*
X536000D03*
X541000Y1544000D03*
X544000Y1542000D03*
X551000Y1592150D03*
X537850Y1598000D03*
X548000Y1690000D03*
X562000Y1392850D03*
X567000Y1401000D03*
X569300Y1433300D03*
X564900Y1434500D03*
X569000Y1439000D03*
X565000Y1472000D03*
X560000Y1463850D03*
X574150Y1495000D03*
Y1488000D03*
Y1479000D03*
X567000Y1510000D03*
X568000Y1500000D03*
X567400Y1503100D03*
X565000Y1548000D03*
X574150Y1555000D03*
X560000Y1539850D03*
X574150Y1571000D03*
Y1564000D03*
X567000Y1586000D03*
X590849Y1395086D03*
X576150Y1408000D03*
Y1424000D03*
Y1417000D03*
X580169Y1696000D03*
X595700D03*
X615000Y1390850D03*
X600849Y1395086D03*
X600850Y1407000D03*
X609079Y1412079D03*
X600850Y1423000D03*
X603850Y1436300D03*
X603300Y1429900D03*
X607000Y1432100D03*
X616850Y1449000D03*
X616000Y1463850D03*
X601850Y1496000D03*
Y1480000D03*
X609079Y1485079D03*
X604850Y1509300D03*
X607700Y1500500D03*
X607500Y1504700D03*
X628000Y1390850D03*
X621000Y1391000D03*
X623200Y1395100D03*
X620000Y1398000D03*
X630000Y1443150D03*
X629000Y1463850D03*
X621000Y1468000D03*
X624000Y1465000D03*
X631000Y1516150D03*
X617850Y1522000D03*
X639000Y1390850D03*
X644000Y1399000D03*
X653150Y1415000D03*
Y1406000D03*
Y1422000D03*
X646500Y1427100D03*
X641300Y1431800D03*
X646000Y1437000D03*
X645000Y1472000D03*
X640000Y1463850D03*
X654150Y1495000D03*
Y1488000D03*
Y1479000D03*
X647000Y1510000D03*
X648000Y1500000D03*
X642700Y1504200D03*
X652000Y1568000D03*
X671000Y1424000D03*
X668000Y1458000D03*
X677000Y1519000D03*
X673000Y1607000D03*
X658000Y1626000D03*
X670000Y1684000D03*
X697000Y1399000D03*
X683500Y1469500D03*
X691776Y1477776D03*
X682000Y1523000D03*
X678868Y1634736D03*
X681300Y1632600D03*
X693000Y1632000D03*
X698000Y1627000D03*
X687000Y1628000D03*
X693000Y1659000D03*
X684530Y1648452D03*
X697000Y1663000D03*
X691000Y1685000D03*
X707850Y1408000D03*
X716079Y1413079D03*
X707850Y1424000D03*
X714300Y1429200D03*
X716900Y1431500D03*
X710850Y1437300D03*
X708850Y1496000D03*
Y1480000D03*
X717079Y1485079D03*
X711850Y1509300D03*
X713300Y1501300D03*
X715800Y1504100D03*
X699000Y1563000D03*
X710000Y1570000D03*
Y1563000D03*
X711000Y1599000D03*
X699000Y1611000D03*
X703000Y1610000D03*
X705000Y1622048D03*
X699000Y1635000D03*
X709000Y1635621D03*
X717000Y1677000D03*
X712000Y1675000D03*
X735000Y1391850D03*
X722000D03*
X728000Y1391000D03*
X727000Y1398000D03*
X730000Y1397000D03*
X737000Y1444150D03*
X723850Y1450000D03*
X736000Y1463850D03*
X723000D03*
X728000Y1468000D03*
X731000Y1470000D03*
X738000Y1516150D03*
X724850Y1522000D03*
X720000Y1570000D03*
Y1563000D03*
X721000Y1587000D03*
X725000Y1590000D03*
X728890Y1598890D03*
Y1585000D03*
X731000Y1582000D03*
X726297Y1639406D03*
X739654Y1633654D03*
X725000Y1642000D03*
X732000Y1649000D03*
X719751Y1661000D03*
X728000Y1672000D03*
X725000Y1676000D03*
X725100Y1668400D03*
X746000Y1391850D03*
X751000Y1400000D03*
X760150Y1416000D03*
Y1407000D03*
Y1423000D03*
X753800Y1429400D03*
X753500Y1433000D03*
X753000Y1438000D03*
X752000Y1472000D03*
X747000Y1463850D03*
X754000Y1510000D03*
X755804Y1501098D03*
X754400Y1504500D03*
X750000Y1638000D03*
Y1661000D03*
Y1656000D03*
X752500Y1646000D03*
X742800D03*
X760000Y1669000D03*
X755000Y1668000D03*
X761150Y1495000D03*
Y1488000D03*
Y1479000D03*
X767000Y1637000D03*
X778000Y1646000D03*
X799000Y1392850D03*
X784850Y1409000D03*
X793079Y1414079D03*
X784850Y1425000D03*
X790100Y1430700D03*
X793000Y1434000D03*
X800850Y1451000D03*
X787850Y1438300D03*
X800000Y1463850D03*
X785850Y1496000D03*
Y1480000D03*
X793079Y1485079D03*
X788850Y1509300D03*
X791800Y1500300D03*
X791600Y1504000D03*
X784850Y1556000D03*
X799000Y1539850D03*
X784850Y1572000D03*
X790700Y1578900D03*
X788700Y1576200D03*
X793079Y1561079D03*
X800850Y1598000D03*
X787850Y1585300D03*
X786989Y1637385D03*
X783000Y1630000D03*
X786000Y1621000D03*
Y1626000D03*
X781000Y1643000D03*
X791000Y1678000D03*
X812000Y1392850D03*
X804000Y1392000D03*
Y1399000D03*
X807000Y1397000D03*
X814000Y1445150D03*
X813000Y1463850D03*
X805000Y1469000D03*
X809000Y1468000D03*
X815000Y1516150D03*
X801850Y1522000D03*
X812000Y1539850D03*
X804000Y1547000D03*
X807000Y1545000D03*
X814000Y1592150D03*
X813000Y1618000D03*
X806000Y1683000D03*
X823000Y1392850D03*
X828000Y1401000D03*
X837150Y1408000D03*
Y1424000D03*
Y1417000D03*
X831000Y1429000D03*
X825100Y1432700D03*
X830000Y1439000D03*
X829000Y1472000D03*
X824000Y1463850D03*
X838150Y1495000D03*
Y1488000D03*
Y1479000D03*
X831000Y1510000D03*
X832000Y1501000D03*
X826500Y1504200D03*
X828000Y1548000D03*
X837150Y1555000D03*
X823000Y1539850D03*
X837150Y1571000D03*
Y1564000D03*
X832000Y1577000D03*
X830000Y1586000D03*
X830700Y1580300D03*
X828000Y1636000D03*
Y1621000D03*
Y1639000D03*
Y1631000D03*
Y1626000D03*
G54D12*
X534344Y1638402D03*
Y1626590D03*
X552456Y1638402D03*
Y1626590D03*
X543400Y1638402D03*
Y1626590D03*
X561512Y1638402D03*
Y1626590D03*
X570568Y1638402D03*
Y1626590D03*
G54D21*
X538665Y1681500D03*
Y1686500D03*
Y1691500D03*
Y1696500D03*
X559335D03*
Y1691500D03*
Y1686500D03*
Y1681500D03*
G54D30*
X633500Y1626846D03*
Y1649154D03*
X648500Y1626846D03*
X643500D03*
X638500D03*
Y1649154D03*
X643500D03*
X648500D03*
G54D13*
X525000Y1674150D03*
Y1667850D03*
X531000Y1674150D03*
Y1667850D03*
X524000Y1689850D03*
Y1696150D03*
X531000Y1689850D03*
Y1696150D03*
X551000Y1392850D03*
X538000D03*
X551000Y1399150D03*
X538000D03*
X553000Y1445150D03*
Y1438850D03*
X549000Y1463850D03*
Y1470150D03*
X536000Y1463850D03*
Y1470150D03*
X551000Y1516150D03*
Y1509850D03*
X549000Y1539850D03*
Y1546150D03*
X536000Y1539850D03*
Y1546150D03*
X551000Y1592150D03*
Y1585850D03*
X562000Y1392850D03*
Y1399150D03*
X560000Y1463850D03*
Y1470150D03*
Y1539850D03*
Y1546150D03*
X567000Y1676850D03*
X574000D03*
Y1689850D03*
Y1696150D03*
X567000Y1683150D03*
Y1689850D03*
Y1696150D03*
X574000Y1683150D03*
X615000Y1390850D03*
Y1397150D03*
X616000Y1463850D03*
Y1470150D03*
X628000Y1390850D03*
Y1397150D03*
X630000Y1436850D03*
Y1443150D03*
X629000Y1463850D03*
Y1470150D03*
X631000Y1516150D03*
Y1509850D03*
X639000Y1390850D03*
Y1397150D03*
X640000Y1463850D03*
Y1470150D03*
X655000Y1649150D03*
Y1642850D03*
X689000Y1652150D03*
Y1645850D03*
X698600Y1667550D03*
Y1673850D03*
X704700Y1667550D03*
Y1673850D03*
X722000Y1391850D03*
X735000D03*
X722000Y1398150D03*
X735000D03*
X737000Y1444150D03*
Y1437850D03*
X736000Y1463850D03*
Y1470150D03*
X723000Y1463850D03*
Y1470150D03*
X738000Y1516150D03*
Y1509850D03*
X726000Y1654150D03*
Y1647850D03*
X746000Y1391850D03*
Y1398150D03*
X747000Y1463850D03*
Y1470150D03*
X759000Y1577850D03*
Y1584150D03*
X750000Y1597850D03*
Y1604150D03*
X766000Y1654850D03*
Y1661150D03*
X799000Y1392850D03*
Y1399150D03*
X800000Y1463850D03*
Y1470150D03*
X799000Y1539850D03*
Y1546150D03*
X812000Y1392850D03*
Y1399150D03*
X814000Y1445150D03*
Y1438850D03*
X813000Y1463850D03*
Y1470150D03*
X815000Y1516150D03*
Y1509850D03*
X812000Y1539850D03*
Y1546150D03*
X814000Y1592150D03*
Y1585850D03*
X823000Y1392850D03*
Y1399150D03*
X824000Y1463850D03*
Y1470150D03*
X823000Y1539850D03*
Y1546150D03*
G54D22*
X589900Y1453700D03*
Y1524000D03*
X774500Y1453700D03*
Y1524000D03*
G54D31*
X655000Y1637900D03*
Y1628100D03*
G54D40*
X717079Y1577024D03*
X715110D03*
X713142D03*
X711173D03*
X709205D03*
X707236D03*
X705268D03*
X703299D03*
X701331D03*
X699362D03*
Y1604976D03*
X701331D03*
X703299D03*
X705268D03*
X707236D03*
X709205D03*
X711173D03*
X713142D03*
X715110D03*
X717079D03*
X736764Y1577024D03*
X734795D03*
X732827D03*
X730858D03*
X728890D03*
X726921D03*
X724953D03*
X722984D03*
X721016D03*
X719047D03*
Y1604976D03*
X721016D03*
X722984D03*
X724953D03*
X726921D03*
X728890D03*
X730858D03*
X732827D03*
X734795D03*
X736764D03*
X744638Y1577024D03*
X742669D03*
X740701D03*
X738732D03*
Y1604976D03*
X740701D03*
X742669D03*
X744638D03*
G54D32*
X657330Y1697000D03*
X678110D03*
X671110D03*
X691890D03*
X792890D03*
X814670D03*
X806670D03*
X828450D03*
G54D50*
X755441Y1660772D03*
X758000D03*
Y1653228D03*
X755441D03*
X760559Y1660772D03*
Y1653228D03*
G54D14*
X550000Y1419000D03*
X548000Y1490000D03*
Y1566000D03*
X627000Y1417000D03*
X628000Y1490000D03*
X734000Y1418000D03*
X735000Y1490000D03*
X811000Y1419000D03*
X812000Y1490000D03*
X811000Y1566000D03*
G54D41*
X715087Y1640256D03*
X713512D03*
X711937D03*
X710362D03*
X708787D03*
X707213D03*
X705638D03*
X704063D03*
X702488D03*
X700913D03*
Y1659744D03*
X702488D03*
X704063D03*
X705638D03*
X707213D03*
X708787D03*
X710362D03*
X711937D03*
X713512D03*
X715087D03*
G54D23*
X609906Y1541000D03*
X598094D03*
X662094Y1540000D03*
X673906D03*
G54D24*
X609906Y1561000D03*
X598094D03*
X609906Y1551944D03*
X598094D03*
X609906Y1579112D03*
X598094D03*
X609906Y1570056D03*
X598094D03*
X609906Y1597224D03*
X598094D03*
X609906Y1588168D03*
X598094D03*
X609906Y1606280D03*
X598094D03*
X609906Y1615336D03*
X598094D03*
X609906Y1633448D03*
X598094D03*
X609906Y1624392D03*
X598094D03*
X609906Y1642504D03*
X598094D03*
X609906Y1651560D03*
X598094D03*
X609906Y1660616D03*
X598094D03*
X626529Y1657605D03*
Y1666661D03*
Y1675717D03*
Y1684773D03*
X638341Y1657605D03*
Y1666661D03*
Y1675717D03*
Y1684773D03*
X669094Y1403000D03*
X662094Y1550888D03*
X673906D03*
X662094Y1559944D03*
X673906D03*
X662094Y1578056D03*
X673906D03*
X662094Y1569000D03*
X673906D03*
X680906Y1403000D03*
G54D42*
X708000Y1650000D03*
G54D51*
X758311Y1642862D03*
X756933D03*
Y1647138D03*
X758311D03*
X761067Y1642862D03*
X759689D03*
Y1647138D03*
X761067D03*
G54D15*
X552953Y1405417D03*
X550984D03*
X549016D03*
X547047D03*
X545079D03*
X543110D03*
X541142D03*
X539173D03*
Y1432583D03*
X541142D03*
X543110D03*
X545079D03*
X547047D03*
X549016D03*
X550984D03*
X552953D03*
X552921Y1476417D03*
X550953D03*
X548984D03*
X547016D03*
X545047D03*
X543079D03*
X541110D03*
X539142D03*
X537173D03*
Y1503583D03*
X539142D03*
X541110D03*
X543079D03*
X545047D03*
X547016D03*
X548984D03*
X550953D03*
X552921D03*
Y1552417D03*
X550953D03*
X548984D03*
X547016D03*
X545047D03*
X543079D03*
X541110D03*
X539142D03*
X537173D03*
Y1579583D03*
X539142D03*
X541110D03*
X543079D03*
X545047D03*
X547016D03*
X548984D03*
X550953D03*
X552921D03*
X560827Y1405417D03*
X558858D03*
X556890D03*
X554921D03*
Y1432583D03*
X556890D03*
X558858D03*
X560827D03*
X558827Y1476417D03*
X556858D03*
X554890D03*
Y1503583D03*
X556858D03*
X558827D03*
Y1552417D03*
X556858D03*
X554890D03*
Y1579583D03*
X556858D03*
X558827D03*
X633890Y1403417D03*
X631921D03*
X629953D03*
X627984D03*
X626016D03*
X624047D03*
X622079D03*
X620110D03*
X618142D03*
X616173D03*
Y1430583D03*
X618142D03*
X620110D03*
X622079D03*
X624047D03*
X626016D03*
X627984D03*
X629953D03*
X631921D03*
X633890D03*
X634890Y1476417D03*
X632921D03*
X630953D03*
X628984D03*
X627016D03*
X625047D03*
X623079D03*
X621110D03*
X619142D03*
X617173D03*
Y1503583D03*
X619142D03*
X621110D03*
X623079D03*
X625047D03*
X627016D03*
X628984D03*
X630953D03*
X632921D03*
X634890D03*
X637827Y1403417D03*
X635858D03*
Y1430583D03*
X637827D03*
X638827Y1476417D03*
X636858D03*
Y1503583D03*
X638827D03*
X736953Y1404417D03*
X734984D03*
X733016D03*
X731047D03*
X729079D03*
X727110D03*
X725142D03*
X723173D03*
Y1431583D03*
X725142D03*
X727110D03*
X729079D03*
X731047D03*
X733016D03*
X734984D03*
X736953D03*
X737953Y1476417D03*
X735984D03*
X734016D03*
X732047D03*
X730079D03*
X728110D03*
X726142D03*
X724173D03*
Y1503583D03*
X726142D03*
X728110D03*
X730079D03*
X732047D03*
X734016D03*
X735984D03*
X737953D03*
X744827Y1404417D03*
X742858D03*
X740890D03*
X738921D03*
Y1431583D03*
X740890D03*
X742858D03*
X744827D03*
X745827Y1476417D03*
X743858D03*
X741890D03*
X739921D03*
Y1503583D03*
X741890D03*
X743858D03*
X745827D03*
X819858Y1405417D03*
X817890D03*
X815921D03*
X813953D03*
X811984D03*
X810016D03*
X808047D03*
X806079D03*
X804110D03*
X802142D03*
X800173D03*
Y1432583D03*
X802142D03*
X804110D03*
X806079D03*
X808047D03*
X810016D03*
X811984D03*
X813953D03*
X815921D03*
X817890D03*
X819858D03*
X818890Y1476417D03*
X816921D03*
X814953D03*
X812984D03*
X811016D03*
X809047D03*
X807079D03*
X805110D03*
X803142D03*
X801173D03*
Y1503583D03*
X803142D03*
X805110D03*
X807079D03*
X809047D03*
X811016D03*
X812984D03*
X814953D03*
X816921D03*
X818890D03*
X819858Y1552417D03*
X817890D03*
X815921D03*
X813953D03*
X811984D03*
X810016D03*
X808047D03*
X806079D03*
X804110D03*
X802142D03*
X800173D03*
Y1579583D03*
X802142D03*
X804110D03*
X806079D03*
X808047D03*
X810016D03*
X811984D03*
X813953D03*
X815921D03*
X817890D03*
X819858D03*
X821827Y1405417D03*
Y1432583D03*
X822827Y1476417D03*
X820858D03*
Y1503583D03*
X822827D03*
X821827Y1552417D03*
Y1579583D03*
G54D33*
X670000Y1391000D03*
X680000D03*
X840000Y1660000D03*
Y1650000D03*
Y1680000D03*
Y1670000D03*
G54D52*
X793366Y1618484D03*
Y1621043D03*
Y1623602D03*
Y1626161D03*
Y1628720D03*
Y1631280D03*
Y1633839D03*
Y1636398D03*
Y1638957D03*
Y1641516D03*
X820634Y1618484D03*
Y1638957D03*
Y1636398D03*
Y1633839D03*
Y1631280D03*
Y1628720D03*
Y1626161D03*
Y1623602D03*
Y1621043D03*
Y1641516D03*
G54D34*
X674000Y1412654D03*
Y1419346D03*
X690000Y1412654D03*
X682000D03*
X690000Y1419346D03*
X682000D03*
X709000Y1632346D03*
Y1625654D03*
X733000Y1619654D03*
X727000D03*
X733000Y1626346D03*
X727000D03*
X773000Y1641654D03*
Y1648346D03*
X766000Y1641654D03*
Y1648346D03*
X793000Y1689346D03*
Y1682654D03*
G54D43*
X717744Y1657087D03*
Y1655512D03*
Y1653937D03*
Y1652362D03*
Y1650787D03*
Y1649213D03*
Y1647638D03*
Y1646063D03*
Y1644488D03*
Y1642913D03*
X698256D03*
Y1644488D03*
Y1646063D03*
Y1647638D03*
Y1649213D03*
Y1650787D03*
Y1652362D03*
Y1653937D03*
Y1655512D03*
Y1657087D03*
G54D25*
X604000Y1672378D03*
G54D16*
X536417Y1408173D03*
Y1410142D03*
Y1412110D03*
Y1414079D03*
Y1416047D03*
Y1418016D03*
Y1419984D03*
Y1421953D03*
Y1423921D03*
Y1425890D03*
Y1427858D03*
Y1429827D03*
X534417Y1479173D03*
Y1481142D03*
Y1483110D03*
Y1485079D03*
Y1487047D03*
Y1489016D03*
Y1490984D03*
Y1492953D03*
Y1494921D03*
Y1496890D03*
Y1498858D03*
Y1500827D03*
Y1555173D03*
Y1557142D03*
Y1559110D03*
Y1561079D03*
Y1563047D03*
Y1565016D03*
Y1566984D03*
Y1568953D03*
Y1570921D03*
Y1572890D03*
Y1574858D03*
Y1576827D03*
X563583Y1414079D03*
Y1412110D03*
Y1410142D03*
Y1408173D03*
Y1429827D03*
Y1427858D03*
Y1425890D03*
Y1423921D03*
Y1421953D03*
Y1419984D03*
Y1418016D03*
Y1416047D03*
X561583Y1494921D03*
Y1492953D03*
Y1490984D03*
Y1489016D03*
Y1487047D03*
Y1485079D03*
Y1483110D03*
Y1481142D03*
Y1479173D03*
Y1500827D03*
Y1498858D03*
Y1496890D03*
Y1557142D03*
Y1555173D03*
Y1576827D03*
Y1574858D03*
Y1572890D03*
Y1570921D03*
Y1568953D03*
Y1566984D03*
Y1565016D03*
Y1563047D03*
Y1561079D03*
Y1559110D03*
X613417Y1406173D03*
Y1408142D03*
Y1410110D03*
Y1412079D03*
Y1414047D03*
Y1416016D03*
Y1417984D03*
Y1419953D03*
Y1421921D03*
Y1423890D03*
Y1425858D03*
Y1427827D03*
X614417Y1479173D03*
Y1481142D03*
Y1483110D03*
Y1485079D03*
Y1487047D03*
Y1489016D03*
Y1490984D03*
Y1492953D03*
Y1494921D03*
Y1496890D03*
Y1498858D03*
Y1500827D03*
X640583Y1414047D03*
Y1412079D03*
Y1410110D03*
Y1408142D03*
Y1406173D03*
Y1427827D03*
Y1425858D03*
Y1423890D03*
Y1421921D03*
Y1419953D03*
Y1417984D03*
Y1416016D03*
X641583Y1494921D03*
Y1492953D03*
Y1490984D03*
Y1489016D03*
Y1487047D03*
Y1485079D03*
Y1483110D03*
Y1481142D03*
Y1479173D03*
Y1500827D03*
Y1498858D03*
Y1496890D03*
X720417Y1407173D03*
Y1409142D03*
Y1411110D03*
Y1413079D03*
Y1415047D03*
Y1417016D03*
Y1418984D03*
Y1420953D03*
Y1422921D03*
Y1424890D03*
Y1426858D03*
Y1428827D03*
X721417Y1479173D03*
Y1481142D03*
Y1483110D03*
Y1485079D03*
Y1487047D03*
Y1489016D03*
Y1490984D03*
Y1492953D03*
Y1494921D03*
Y1496890D03*
Y1498858D03*
Y1500827D03*
X747583Y1413079D03*
Y1411110D03*
Y1409142D03*
Y1407173D03*
Y1428827D03*
Y1426858D03*
Y1424890D03*
Y1422921D03*
Y1420953D03*
Y1418984D03*
Y1417016D03*
Y1415047D03*
X748583Y1494921D03*
Y1492953D03*
Y1490984D03*
Y1489016D03*
Y1487047D03*
Y1485079D03*
Y1483110D03*
Y1481142D03*
Y1479173D03*
Y1500827D03*
Y1498858D03*
Y1496890D03*
X797417Y1408173D03*
Y1410142D03*
Y1412110D03*
Y1414079D03*
Y1416047D03*
Y1418016D03*
Y1419984D03*
Y1421953D03*
Y1423921D03*
Y1425890D03*
Y1427858D03*
Y1429827D03*
X798417Y1479173D03*
Y1481142D03*
Y1483110D03*
Y1485079D03*
Y1487047D03*
Y1489016D03*
Y1490984D03*
Y1492953D03*
Y1494921D03*
Y1496890D03*
Y1498858D03*
Y1500827D03*
X797417Y1555173D03*
Y1557142D03*
Y1559110D03*
Y1561079D03*
Y1563047D03*
Y1565016D03*
Y1566984D03*
Y1568953D03*
Y1570921D03*
Y1572890D03*
Y1574858D03*
Y1576827D03*
X824583Y1414079D03*
Y1412110D03*
Y1410142D03*
Y1408173D03*
Y1429827D03*
Y1427858D03*
Y1425890D03*
Y1423921D03*
Y1421953D03*
Y1419984D03*
Y1418016D03*
Y1416047D03*
X825583Y1494921D03*
Y1492953D03*
Y1490984D03*
Y1489016D03*
Y1487047D03*
Y1485079D03*
Y1483110D03*
Y1481142D03*
Y1479173D03*
Y1500827D03*
Y1498858D03*
Y1496890D03*
X824583Y1557142D03*
Y1555173D03*
Y1576827D03*
Y1574858D03*
Y1572890D03*
Y1570921D03*
Y1568953D03*
Y1566984D03*
Y1565016D03*
Y1563047D03*
Y1561079D03*
Y1559110D03*
G54D44*
X704306Y1690945D03*
X723695D03*
G54D35*
X673500Y1458224D03*
Y1477776D03*
X688500Y1458224D03*
X683500D03*
X678500D03*
Y1477776D03*
X683500D03*
X688500D03*
G54D53*
X800248Y1648780D03*
X793752D03*
Y1655220D03*
X800248D03*
G54D26*
X604000Y1696000D03*
G54D17*
X541191Y1410158D03*
Y1413658D03*
X548191Y1410158D03*
X551691D03*
X544691Y1413658D03*
X548191D03*
X551691D03*
X544691Y1410158D03*
X541191Y1420658D03*
Y1424158D03*
Y1427658D03*
Y1417158D03*
X544691Y1427658D03*
X548191D03*
X551691D03*
X544691Y1417158D03*
X548191D03*
X551691D03*
X544691Y1420658D03*
X548191D03*
X551691D03*
X544691Y1424158D03*
X548191D03*
X551691D03*
X536000Y1444000D03*
X542591Y1488258D03*
X546091D03*
X549591D03*
X553091D03*
X542591Y1491758D03*
X546091D03*
X549591D03*
X553091D03*
X542591Y1495258D03*
X546091D03*
X549591D03*
X553091D03*
X542591Y1481258D03*
X546091D03*
X549591D03*
X553091D03*
X542591Y1484758D03*
X546091D03*
X549591D03*
X553091D03*
X539091Y1488258D03*
Y1491758D03*
Y1495258D03*
Y1481258D03*
Y1484758D03*
X534000Y1515000D03*
X542591Y1498758D03*
X546091D03*
X553091D03*
X549591D03*
X539091D03*
X546264Y1557369D03*
X542764D03*
X549764D03*
X539264D03*
X553264D03*
X546264Y1574869D03*
X542764D03*
X539264Y1567869D03*
X542764D03*
X549764Y1574869D03*
X539264Y1571369D03*
Y1574869D03*
X549764Y1571369D03*
X553264D03*
X546264D03*
X542764D03*
X539264Y1560869D03*
X542764D03*
X546264D03*
X549764D03*
X553264D03*
X539264Y1564369D03*
X542764D03*
X546264D03*
X549764D03*
X553264D03*
Y1574869D03*
X546264Y1567869D03*
X549764D03*
X553264D03*
X534000Y1591000D03*
X555191Y1413658D03*
X558691D03*
X555191Y1410158D03*
X558691D03*
X555191Y1424158D03*
X558691D03*
X555191Y1427658D03*
X558691D03*
X555191Y1417158D03*
X558691D03*
X555191Y1420658D03*
X558691D03*
X563000Y1442000D03*
X556591Y1488258D03*
Y1491758D03*
Y1495258D03*
Y1481258D03*
Y1484758D03*
X561000Y1513000D03*
X556591Y1498758D03*
X556764Y1557369D03*
Y1571369D03*
Y1560869D03*
Y1564369D03*
Y1574869D03*
Y1567869D03*
X561000Y1589000D03*
X588126Y1666902D03*
Y1672378D03*
Y1677855D03*
X592126Y1672378D03*
Y1679331D03*
X588126Y1683331D03*
X593417D03*
X613000Y1442000D03*
X614000Y1515000D03*
X605513Y1536184D03*
X613513D03*
X605513Y1544184D03*
X613513D03*
X605513Y1552184D03*
X613513D03*
X605513Y1560184D03*
X613513D03*
X605513Y1568184D03*
X613513D03*
X605513Y1576184D03*
X613513D03*
X605513Y1584184D03*
X613513D03*
X605513Y1592184D03*
X613513D03*
X605513Y1600184D03*
X613513D03*
X605513Y1608184D03*
X613513D03*
X605513Y1616184D03*
X613513D03*
X605513Y1624184D03*
X613513D03*
X605513Y1632184D03*
X613513D03*
X605513Y1640184D03*
X613513D03*
Y1648184D03*
X605513Y1656184D03*
X613513D03*
X605513Y1648184D03*
X598063Y1679331D03*
X604000D03*
X609937D03*
X605513Y1664184D03*
X613513D03*
X598709Y1683331D03*
X604000D03*
X609291D03*
X614583D03*
X618291Y1408358D03*
Y1411858D03*
X621791Y1408358D03*
X625291D03*
X628791D03*
X632291D03*
X635791D03*
X621791Y1411858D03*
X625291D03*
X628791D03*
X632291D03*
X635791D03*
Y1418858D03*
X621791Y1422358D03*
X625291D03*
X628791D03*
X632291D03*
X635791D03*
X621791Y1425858D03*
X625291D03*
X632291D03*
X635791D03*
X628791D03*
X618291Y1415358D03*
Y1418858D03*
Y1422358D03*
Y1425858D03*
X632291Y1418858D03*
X625291D03*
X628791D03*
X621791Y1415358D03*
X625291D03*
X628791D03*
X632291D03*
X635791D03*
X621791Y1418858D03*
X619291Y1484958D03*
X629791Y1488458D03*
X633291D03*
X622791Y1491958D03*
X626291D03*
X629791D03*
X633291D03*
X622791Y1495458D03*
X626291D03*
X629791D03*
X633291D03*
X622791Y1481458D03*
X626291D03*
X629791D03*
X633291D03*
X622791Y1484958D03*
X626291D03*
X629791D03*
X633291D03*
X619291Y1488458D03*
Y1491958D03*
Y1495458D03*
Y1481458D03*
X622791Y1488458D03*
X626291D03*
X622791Y1498958D03*
X626291D03*
X633291D03*
X629791D03*
X619291D03*
X617513Y1540184D03*
Y1548184D03*
Y1556184D03*
Y1564184D03*
Y1572184D03*
Y1580184D03*
Y1588184D03*
Y1596184D03*
Y1604184D03*
Y1612184D03*
X633460Y1634189D03*
X617513Y1620184D03*
Y1628184D03*
Y1636184D03*
X633460Y1641811D03*
X617513Y1652184D03*
Y1660184D03*
Y1644184D03*
X619874Y1677854D03*
Y1672378D03*
X615874Y1679331D03*
Y1672378D03*
X619874Y1683331D03*
X640000Y1440000D03*
X636791Y1488458D03*
Y1491958D03*
Y1495458D03*
Y1481458D03*
Y1484958D03*
X641000Y1513000D03*
X636791Y1498958D03*
X655644Y1534157D03*
Y1542157D03*
Y1550157D03*
Y1558157D03*
Y1566157D03*
Y1574157D03*
X648539Y1634189D03*
X643513D03*
X638486D03*
Y1641811D03*
X643513D03*
X648539D03*
X659644Y1538157D03*
Y1546157D03*
Y1554157D03*
Y1562157D03*
Y1570157D03*
Y1578157D03*
X728691Y1409558D03*
X732191D03*
X735691D03*
X728691Y1413058D03*
X732191D03*
X735691D03*
X725191Y1409558D03*
Y1413058D03*
X735691Y1416558D03*
X728691Y1420058D03*
X732191D03*
X735691D03*
X728691Y1423558D03*
X732191D03*
X735691D03*
X728691Y1427058D03*
X732191D03*
X735691D03*
X725191Y1416558D03*
Y1420058D03*
Y1423558D03*
Y1427058D03*
X728691Y1416558D03*
X732191D03*
X720000Y1443000D03*
X726391Y1484758D03*
X729891Y1488258D03*
X733391D03*
X736891D03*
X729891Y1491758D03*
X733391D03*
X736891D03*
X729891Y1495258D03*
X733391D03*
X736891D03*
X729891Y1481258D03*
X733391D03*
X736891D03*
X729891Y1484758D03*
X733391D03*
X736891D03*
X726391Y1488258D03*
Y1491758D03*
Y1495258D03*
Y1481258D03*
X721000Y1515000D03*
X729891Y1498758D03*
X733391D03*
X736891D03*
X726391D03*
X739191Y1409558D03*
X742691D03*
X739191Y1413058D03*
X742691D03*
X739191Y1416558D03*
X742691D03*
X739191Y1420058D03*
X742691D03*
X739191Y1423558D03*
X742691D03*
X739191Y1427058D03*
X742691D03*
X747000Y1441000D03*
X740391Y1488258D03*
X743891D03*
X740391Y1491758D03*
X743891D03*
X740391Y1495258D03*
X743891D03*
X740391Y1481258D03*
X743891D03*
X740391Y1484758D03*
X743891D03*
X748000Y1513000D03*
X740391Y1498758D03*
X743891D03*
X797000Y1444000D03*
X798000Y1515000D03*
X797000Y1591000D03*
X802391Y1413858D03*
X805891Y1410358D03*
X809391D03*
X812891D03*
X816391D03*
X819891D03*
X805891Y1413858D03*
X809391D03*
X812891D03*
X816391D03*
X819891D03*
X802391Y1410358D03*
X805891Y1424358D03*
X809391D03*
X812891D03*
X816391D03*
X819891D03*
X805891Y1427858D03*
X809391D03*
X816391D03*
X819891D03*
X812891D03*
X802391Y1417358D03*
Y1420858D03*
Y1424358D03*
Y1427858D03*
X805891Y1417358D03*
X809391D03*
X812891D03*
X816391D03*
X819891D03*
X805891Y1420858D03*
X809391D03*
X812891D03*
X816391D03*
X819891D03*
X803191Y1484858D03*
X806691Y1488358D03*
X810191D03*
X813691D03*
X817191D03*
X820691D03*
X806691Y1491858D03*
X810191D03*
X813691D03*
X817191D03*
X820691D03*
X806691Y1495358D03*
X810191D03*
X813691D03*
X817191D03*
X820691D03*
X806691Y1481358D03*
X810191D03*
X813691D03*
X817191D03*
X820691D03*
X806691Y1484858D03*
X810191D03*
X813691D03*
X817191D03*
X820691D03*
X803191Y1488358D03*
Y1491858D03*
Y1495358D03*
Y1481358D03*
X806691Y1498858D03*
X810191D03*
X817191D03*
X820691D03*
X813691D03*
X803191D03*
X805791Y1557458D03*
X809291D03*
X812791D03*
X816291D03*
X819791D03*
X802291D03*
X805791Y1564458D03*
X809291D03*
X812791D03*
X816291D03*
X819791D03*
X805791Y1567958D03*
X809291D03*
X812791D03*
X816291D03*
X819791D03*
X805791Y1571458D03*
X809291D03*
X812791D03*
X816291D03*
X819791D03*
X805791Y1574958D03*
X809291D03*
X816291D03*
X819791D03*
X812791D03*
X805791Y1560958D03*
X809291D03*
X812791D03*
X816291D03*
X819791D03*
X802291Y1564458D03*
Y1567958D03*
Y1571458D03*
Y1574958D03*
Y1560958D03*
X824000Y1442000D03*
X825000Y1513000D03*
X824000Y1589000D03*
G54D54*
G01X549000Y1672862D02*
Y1671041D01*
X546167Y1668208D01*
X544346D01*
X543907Y1667769D01*
X537552D01*
X537471Y1667850D01*
X531000D01*
G01X525000D02*
X531000D01*
G01X524000Y1696150D02*
X531000D01*
G01X538665Y1696500D02*
X531350D01*
X531000Y1696150D01*
G01X577469D02*
Y1680220D01*
X574099Y1676850D01*
X574000D01*
G01D02*
X567000D01*
G01X558055Y1672862D02*
X562913D01*
X566901Y1676850D01*
X567000D01*
G01X574000Y1696150D02*
X577469D01*
G01X574000D02*
X567000D01*
G01X559335Y1696500D02*
X566650D01*
X567000Y1696150D01*
G01X580169Y1696000D02*
X580000D01*
X579850Y1696150D01*
X577469D01*
G54D45*
X708882Y1689528D03*
X711441D03*
X714000D03*
X716559D03*
X719118D03*
G54D18*
X546346Y1444000D03*
X539654D03*
X544346Y1515000D03*
X537654D03*
X544346Y1591000D03*
X537654D03*
X616654Y1442000D03*
X623346D03*
X624346Y1515000D03*
X617654D03*
X656654Y1689000D03*
X663346D03*
X677654D03*
X682654Y1487000D03*
X689346D03*
X684346Y1689000D03*
X704654Y1563000D03*
X711346D03*
X730346Y1443000D03*
X723654D03*
X731346Y1515000D03*
X724654D03*
X729346Y1570000D03*
X722654D03*
X733346Y1613000D03*
X726654D03*
X739654D03*
Y1620000D03*
Y1627000D03*
X746346Y1613000D03*
Y1620000D03*
Y1627000D03*
X753654Y1637000D03*
X760346D03*
X800654Y1444000D03*
Y1591000D03*
X807346Y1444000D03*
X808346Y1515000D03*
X801654D03*
X807346Y1591000D03*
X815346Y1689000D03*
X808654D03*
G54D36*
X664220Y1694441D03*
X685000D03*
X799780D03*
X821560D03*
G54D27*
X637000Y1549878D03*
Y1560122D03*
G54D55*
G01X531000Y1667850D02*
Y1655000D01*
G01X548000Y1690000D02*
Y1694900D01*
X546400Y1696500D01*
X538665D01*
G01X668000Y1458000D02*
X670500D01*
X670724Y1458224D01*
X673500D01*
G01X711000Y1599000D02*
X690204D01*
X686260Y1602944D01*
Y1607000D01*
G01X693075Y1613925D02*
X693150Y1614000D01*
G01X688964Y1610393D02*
X692496Y1613925D01*
X693075D01*
G01X688964Y1610393D02*
X686260Y1607689D01*
Y1607000D01*
G01X684530Y1648452D02*
X686398D01*
X689000Y1645850D01*
G01X711173Y1604976D02*
X711105Y1604908D01*
Y1601937D01*
X711000Y1601832D01*
Y1599000D01*
G01X719751Y1661000D02*
Y1661099D01*
X714850Y1666000D01*
G01X726921Y1577024D02*
Y1581457D01*
X728890Y1583426D01*
Y1585000D01*
G01Y1598890D02*
Y1604976D01*
G01Y1585000D02*
X746684D01*
X746944Y1584740D01*
X751000D01*
G01X755731Y1584150D02*
X759000D01*
G01X754656Y1584740D02*
X755141D01*
X755731Y1584150D01*
G01X754656Y1584740D02*
X751000D01*
G01X767952Y1637000D02*
X767000D01*
G01X767952D02*
X771221D01*
X773000Y1638779D01*
Y1641654D01*
G01X793366Y1633839D02*
X780815D01*
X775889Y1638765D01*
Y1639159D01*
X773394Y1641654D01*
X773000D01*
G01X807773Y1633839D02*
X793366D01*
G01Y1623602D02*
X800601D01*
X807773Y1630774D01*
G01X820634Y1628720D02*
X809827D01*
X807773Y1630774D01*
G01Y1633839D02*
Y1630774D01*
G01Y1641383D02*
Y1633839D01*
G01X800248Y1648780D02*
X800376D01*
X807773Y1641383D01*
G01X820634Y1641516D02*
X807906D01*
X807773Y1641383D01*
G54D46*
X710703Y1700000D03*
X717297D03*
G54D28*
X637000Y1576700D03*
Y1615300D03*
G54D19*
X549000Y1649138D03*
G54D37*
X690000Y1391000D03*
X840000Y1640000D03*
G54D56*
G01X530150Y1409000D02*
X531292Y1410142D01*
X536417D01*
G01X532000Y1413000D02*
X533079Y1414079D01*
X536417D01*
G01X530150Y1425000D02*
X532920D01*
X533810Y1425890D01*
X536417D01*
G01X528000Y1431000D02*
X530800D01*
X533942Y1427858D01*
X536417D01*
G01X531000Y1434000D02*
Y1432769D01*
X533942Y1429827D01*
X536417D01*
G01Y1418016D02*
X535046D01*
X534230Y1417200D01*
X530850D01*
G01X528150Y1480000D02*
X529292Y1481142D01*
X534417D01*
G01X528150Y1496000D02*
X530920D01*
X531810Y1496890D01*
X534417D01*
G01X529000Y1484000D02*
X530079Y1485079D01*
X534417D01*
G01Y1489016D02*
X529566D01*
X528750Y1488200D01*
G01X526600Y1502000D02*
X529731Y1498869D01*
X530393D01*
X530404Y1498858D01*
X534417D01*
G01X530000Y1505000D02*
Y1504161D01*
X533334Y1500827D01*
X534417D01*
G01X528150Y1556000D02*
X529292Y1557142D01*
X534417D01*
G01X528150Y1572000D02*
X530920D01*
X531810Y1572890D01*
X534417D01*
G01Y1561079D02*
X529079D01*
G01X528000Y1577000D02*
X530904D01*
X532469Y1575435D01*
X533840D01*
X534417Y1574858D01*
G01X523000Y1579000D02*
X527030D01*
X527130Y1579100D01*
X531061D01*
X533334Y1576827D01*
X534417D01*
G01Y1565016D02*
X531604D01*
X530920Y1565700D01*
X528150D01*
G01X532650Y1583900D02*
Y1583801D01*
X535157Y1581294D01*
X535462D01*
X537173Y1579583D01*
G01X551000Y1399150D02*
Y1401920D01*
X550984Y1401936D01*
Y1405417D01*
G01X538000Y1399150D02*
X539173Y1400323D01*
Y1405417D01*
G01X536417Y1408173D02*
X539173D01*
X547047Y1416047D01*
G01X543000Y1400000D02*
X545079Y1402079D01*
Y1405417D01*
G01X546000Y1399000D02*
X547047Y1400047D01*
Y1405417D01*
G01Y1432583D02*
Y1435058D01*
X546346Y1435759D01*
Y1444000D01*
G01X553000Y1438850D02*
Y1436080D01*
X552953Y1436033D01*
Y1432583D01*
G01X547047Y1416047D02*
X550000Y1419000D01*
G01X547047Y1416047D02*
X536417D01*
G01X556890Y1412110D02*
X550000Y1419000D01*
G01D02*
X547047Y1421953D01*
X536417D01*
G01X558858Y1432583D02*
Y1427858D01*
X550000Y1419000D01*
G01X536417Y1419984D02*
Y1418016D01*
G01X546150Y1451000D02*
Y1448131D01*
X546346Y1447935D01*
Y1444000D01*
G01X539654D02*
X536000D01*
G01X549000Y1470150D02*
Y1472920D01*
X548984Y1472936D01*
Y1476417D01*
G01X536000Y1470150D02*
X537173Y1471323D01*
Y1476417D01*
G01X541000Y1470000D02*
X543079Y1472079D01*
Y1476417D01*
G01X544000Y1466000D02*
Y1471161D01*
X545047Y1472208D01*
Y1476417D01*
G01Y1487047D02*
X548000Y1490000D01*
G01X534417Y1479173D02*
X537173D01*
X545047Y1487047D01*
G01D02*
X534417D01*
G01X554890Y1483110D02*
X548000Y1490000D01*
G01D02*
X545047Y1492953D01*
X534417D01*
G01X556858Y1503583D02*
Y1498858D01*
X548000Y1490000D01*
G01X534417Y1490984D02*
Y1489016D01*
G01X544150Y1522000D02*
Y1519131D01*
X544346Y1518935D01*
Y1515000D01*
G01X545047Y1503583D02*
Y1506058D01*
X544346Y1506759D01*
Y1515000D01*
G01X537654D02*
X534000D01*
G01X551000Y1509850D02*
Y1507080D01*
X550953Y1507033D01*
Y1503583D01*
G01X549000Y1546150D02*
Y1548920D01*
X548984Y1548936D01*
Y1552417D01*
G01X536000Y1546150D02*
X537173Y1547323D01*
Y1552417D01*
G01X534417Y1555173D02*
X537173D01*
X545047Y1563047D01*
G01X541000Y1544000D02*
X543079Y1546079D01*
Y1552417D01*
G01X544000Y1542000D02*
X545047Y1543047D01*
Y1552417D01*
G01Y1563047D02*
X548000Y1566000D01*
G01X545047Y1563047D02*
X534417D01*
G01X554890Y1559110D02*
X548000Y1566000D01*
G01D02*
X545047Y1568953D01*
X534417D01*
G01X556858Y1579583D02*
Y1574858D01*
X548000Y1566000D01*
G01X534417Y1566984D02*
Y1565016D01*
G01X537654Y1591000D02*
X534000D01*
G01X551000Y1585850D02*
Y1583080D01*
X550953Y1583033D01*
Y1579583D01*
G01X544150Y1598000D02*
Y1595131D01*
X544346Y1594935D01*
Y1591000D01*
G01X545047Y1579583D02*
Y1582058D01*
X544346Y1582759D01*
Y1591000D01*
G01X567000Y1401000D02*
X565150Y1399150D01*
X562000D01*
G01X560827Y1405417D02*
Y1400323D01*
X562000Y1399150D01*
G01X569850Y1408000D02*
X567080D01*
X566907Y1408173D01*
X563583D01*
G01X556890Y1412110D02*
X563583D01*
G01X558858Y1405417D02*
Y1410142D01*
X556890Y1412110D01*
G01X560827Y1432583D02*
Y1433666D01*
X562850Y1435689D01*
Y1439000D01*
G01X569850Y1424000D02*
X567080D01*
X567001Y1423921D01*
X563583D01*
G01X569850Y1417000D02*
X567080D01*
X566064Y1418016D01*
X563583D01*
G01X569300Y1433300D02*
Y1428658D01*
X568500Y1427858D01*
X563583D01*
G01X564900Y1434500D02*
X563583Y1433183D01*
Y1429827D01*
G01X562850Y1439000D02*
X563000Y1439150D01*
Y1442000D01*
G01X569000Y1439000D02*
X569150D01*
G01X565000Y1472000D02*
X563150Y1470150D01*
X560000D01*
G01X558827Y1476417D02*
Y1471323D01*
X560000Y1470150D01*
G01X567850Y1488000D02*
X565080D01*
X564064Y1489016D01*
X561583D01*
G01X567850Y1495000D02*
X565080D01*
X565001Y1494921D01*
X561583D01*
G01X567850Y1479000D02*
X565080D01*
X564907Y1479173D01*
X561583D01*
G01X554890Y1483110D02*
X561583D01*
G01X556858Y1476417D02*
Y1481142D01*
X554890Y1483110D01*
G01X558827Y1503583D02*
Y1504666D01*
X560850Y1506689D01*
Y1510000D01*
G01D02*
X561000Y1510150D01*
Y1513000D01*
G01X567000Y1510000D02*
X567150D01*
G01X568000Y1500000D02*
X566858Y1498858D01*
X561583D01*
G01X567400Y1503100D02*
X564939D01*
X562666Y1500827D01*
X561583D01*
G01X565000Y1548000D02*
X563150Y1546150D01*
X560000D01*
G01X558827Y1552417D02*
Y1547323D01*
X560000Y1546150D01*
G01X567850Y1555000D02*
X565080D01*
X564907Y1555173D01*
X561583D01*
G01X556858Y1552417D02*
Y1557142D01*
X554890Y1559110D01*
G01X567850Y1571000D02*
X565080D01*
X565001Y1570921D01*
X561583D01*
G01X567850Y1564000D02*
X565080D01*
X564064Y1565016D01*
X561583D01*
G01Y1559110D02*
X554890D01*
G01X558827Y1579583D02*
Y1580666D01*
X560850Y1582689D01*
Y1586000D01*
G01D02*
X561000Y1586150D01*
Y1589000D01*
G01X567000Y1586000D02*
X567150D01*
G01X590849Y1395086D02*
X600849D01*
G01X607150Y1407000D02*
X608292Y1408142D01*
X613417D01*
G01X615000Y1397150D02*
X616173Y1398323D01*
Y1403417D01*
G01X613417Y1406173D02*
X616173D01*
X624047Y1414047D01*
G01D02*
X613417D01*
G01Y1412079D02*
X609079D01*
G01X607150Y1423000D02*
X609920D01*
X610810Y1423890D01*
X613417D01*
G01X627000Y1417000D02*
X624047Y1419953D01*
X613417D01*
G01X603300Y1429900D02*
X605400D01*
X605700Y1429600D01*
X606400D01*
X610142Y1425858D01*
X613417D01*
G01X607000Y1432100D02*
X608954D01*
X612334Y1428720D01*
Y1427827D01*
X613417D01*
G01Y1416016D02*
X610804D01*
X609920Y1416900D01*
X607150D01*
G01X613417Y1417984D02*
Y1416016D01*
G01X616654Y1442000D02*
X613000D01*
G01X608150Y1496000D02*
X610920D01*
X611810Y1496890D01*
X614417D01*
G01X608150Y1480000D02*
X609292Y1481142D01*
X614417D01*
G01Y1479173D02*
X617173D01*
X625047Y1487047D01*
G01D02*
X614417D01*
G01X628000Y1490000D02*
X625047Y1492953D01*
X614417D01*
G01Y1485079D02*
X609079D01*
G01X614417Y1489016D02*
X611942D01*
X611158Y1489800D01*
X608150D01*
G01X614417Y1490984D02*
Y1489016D01*
G01X617654Y1515000D02*
X614000D01*
G01X607700Y1500500D02*
X609800D01*
X611442Y1498858D01*
X614417D01*
G01X607500Y1504700D02*
X611936D01*
X614417Y1502219D01*
Y1500827D01*
G01X621000Y1391000D02*
Y1394030D01*
X620000Y1395030D01*
Y1398000D01*
G01X628000Y1397150D02*
Y1399920D01*
X627984Y1399936D01*
Y1403417D01*
G01X633890Y1410110D02*
X640583D01*
G01X635858Y1403417D02*
Y1408142D01*
X633890Y1410110D01*
G01X624047Y1414047D02*
X627000Y1417000D01*
G01X633890Y1410110D02*
X627000Y1417000D01*
G01X620000Y1398000D02*
X622079Y1400079D01*
Y1403417D01*
G01X623200Y1395100D02*
Y1397200D01*
X624047Y1398047D01*
Y1403417D01*
G01X630000Y1436850D02*
Y1434080D01*
X629953Y1434033D01*
Y1430583D01*
G01X635858D02*
Y1425858D01*
X627000Y1417000D01*
G01X624047Y1430583D02*
Y1433058D01*
X623346Y1433759D01*
Y1442000D01*
G01X623150Y1449000D02*
Y1446131D01*
X623346Y1445935D01*
Y1442000D01*
G01X629000Y1470150D02*
Y1472920D01*
X628984Y1472936D01*
Y1476417D01*
G01X616000Y1470150D02*
X617173Y1471323D01*
Y1476417D01*
G01X621000Y1468000D02*
Y1471863D01*
X623079Y1473942D01*
Y1476417D01*
G01X624000Y1465000D02*
Y1472895D01*
X625047Y1473942D01*
Y1476417D01*
G01X634890Y1483110D02*
X641583D01*
G01X636858Y1476417D02*
Y1481142D01*
X634890Y1483110D01*
G01X625047Y1487047D02*
X628000Y1490000D01*
G01X634890Y1483110D02*
X628000Y1490000D01*
G01X636858Y1503583D02*
Y1498858D01*
X628000Y1490000D01*
G01X631000Y1509850D02*
Y1507080D01*
X630953Y1507033D01*
Y1503583D01*
G01X624150Y1522000D02*
Y1519131D01*
X624346Y1518935D01*
Y1515000D01*
G01X625047Y1503583D02*
Y1506058D01*
X624346Y1506759D01*
Y1515000D01*
G01X644000Y1399000D02*
X642150Y1397150D01*
X639000D01*
G01X637827Y1403417D02*
Y1398323D01*
X639000Y1397150D01*
G01X646850Y1406000D02*
X644080D01*
X643907Y1406173D01*
X640583D01*
G01X637827Y1430583D02*
Y1431666D01*
X639850Y1433689D01*
Y1437000D01*
G01X646850Y1415000D02*
X644080D01*
X643064Y1416016D01*
X640583D01*
G01X646850Y1422000D02*
X644080D01*
X644001Y1421921D01*
X640583D01*
G01X646500Y1427100D02*
X644400D01*
X643158Y1425858D01*
X640583D01*
G01X641300Y1431800D02*
Y1430300D01*
X640583Y1429583D01*
Y1427827D01*
G01X639850Y1437000D02*
X640000Y1437150D01*
Y1440000D01*
G01X646000Y1437000D02*
X646150D01*
G01X645000Y1472000D02*
X643150Y1470150D01*
X640000D01*
G01X638827Y1476417D02*
Y1471323D01*
X640000Y1470150D01*
G01X647850Y1495000D02*
X645080D01*
X645001Y1494921D01*
X641583D01*
G01X647850Y1488000D02*
X645080D01*
X644064Y1489016D01*
X641583D01*
G01X647850Y1479000D02*
X645080D01*
X644907Y1479173D01*
X641583D01*
G01X638827Y1503583D02*
Y1504666D01*
X640850Y1506689D01*
Y1510000D01*
G01D02*
X641000Y1510150D01*
Y1513000D01*
G01X647000Y1510000D02*
X647150D01*
G01X648000Y1500000D02*
X645200D01*
X644058Y1498858D01*
X641583D01*
G01X642700Y1504200D02*
Y1503700D01*
X641583Y1502583D01*
Y1500827D01*
G01X637000Y1560122D02*
X647640D01*
G01D02*
X652000Y1564482D01*
Y1568000D01*
G01X658000Y1626000D02*
X657100D01*
X655000Y1628100D01*
G01X699362Y1577024D02*
Y1580424D01*
X699358Y1580428D01*
Y1581805D01*
X699356Y1581807D01*
Y1581966D01*
X699354Y1581968D01*
Y1587646D01*
X696000Y1591000D01*
X687001D01*
X687000Y1591001D01*
X686000D01*
X685999Y1591002D01*
X685708D01*
X685706Y1591004D01*
X685471D01*
X685469Y1591006D01*
X685000D01*
X677090Y1598915D01*
X675998Y1600007D01*
Y1619001D01*
X657099Y1637900D01*
X655000D01*
G01D02*
Y1642850D01*
G01X673000Y1607000D02*
X653800Y1626200D01*
X653777D01*
X653131Y1626846D01*
X648500D01*
G01X703299Y1577024D02*
Y1581702D01*
X701954Y1583047D01*
Y1592046D01*
X698000Y1596000D01*
X687000D01*
X679002Y1603998D01*
Y1625249D01*
X659169Y1645082D01*
Y1647850D01*
X657869Y1649150D01*
X655000D01*
G01X648500Y1649154D02*
X652127D01*
X652131Y1649150D01*
X655000D01*
G01X701331Y1577024D02*
Y1581830D01*
X700654Y1582507D01*
Y1589346D01*
X696000Y1594000D01*
X686000D01*
X677702Y1602298D01*
Y1624710D01*
X657869Y1644543D01*
Y1645093D01*
X656962Y1646000D01*
X649027D01*
X649021Y1646006D01*
X649018D01*
X648888Y1646136D01*
X648887D01*
X648886Y1646137D01*
X645287D01*
X643500Y1647924D01*
Y1649154D01*
G01X670000Y1391000D02*
Y1394656D01*
X669094Y1395562D01*
Y1403000D01*
G01X674000Y1412654D02*
X674394D01*
X676606Y1410442D01*
Y1410048D01*
X678005Y1408649D01*
Y1407181D01*
X680906Y1404280D01*
Y1403000D01*
G01X671000Y1424000D02*
Y1422346D01*
X674000Y1419346D01*
G01X682000D02*
X681606D01*
X679394Y1421558D01*
Y1421952D01*
X673500Y1427846D01*
Y1458224D01*
G01X682000Y1523000D02*
X676200D01*
X673500Y1520300D01*
Y1477776D01*
G01X673906Y1578056D02*
Y1576776D01*
X676807Y1573875D01*
Y1573180D01*
X677070Y1572917D01*
Y1570930D01*
X705000Y1543000D01*
X738000D01*
G01X656654Y1689000D02*
Y1691869D01*
X657330Y1692545D01*
Y1697000D01*
G01X670000Y1684000D02*
Y1684821D01*
X665821Y1689000D01*
X663346D01*
G01X680000Y1391000D02*
Y1397650D01*
X680906Y1398556D01*
Y1403000D01*
G01X690000Y1391000D02*
Y1395950D01*
X688500Y1397450D01*
Y1399200D01*
G01X682000Y1412654D02*
X690000D01*
G01X688500Y1406700D02*
Y1408679D01*
X690000Y1410179D01*
Y1412654D01*
G01X697000Y1399000D02*
X695500Y1400500D01*
Y1403000D01*
G01X690000Y1419346D02*
Y1421821D01*
X688500Y1423321D01*
Y1458224D01*
G01X683500Y1469500D02*
Y1477776D01*
G01X682654Y1487000D02*
Y1484131D01*
X683500Y1483285D01*
Y1477776D01*
G01X677000Y1519000D02*
Y1501000D01*
X678500Y1499500D01*
Y1477776D01*
G01X691776D02*
X688500D01*
G01X689346Y1487000D02*
Y1484131D01*
X688500Y1483285D01*
Y1477776D01*
G01X688964Y1610393D02*
X689543D01*
X693075Y1613925D01*
G01X699362Y1604976D02*
X695764D01*
X693740Y1607000D01*
G01X678868Y1634736D02*
X680353Y1636221D01*
X685221D01*
X695063Y1646063D01*
X698256D01*
G01X681300Y1632600D02*
X683400Y1634700D01*
X685539D01*
X690839Y1640000D01*
X692000D01*
X692780Y1640780D01*
X692881D01*
X694169Y1642068D01*
Y1642778D01*
X695254Y1643862D01*
Y1643863D01*
X695879Y1644488D01*
X698256D01*
G01X693000Y1632000D02*
X700829D01*
X703531Y1634702D01*
Y1635372D01*
X704063Y1635904D01*
Y1640256D01*
G01X687000Y1628000D02*
X693000D01*
X695700Y1630700D01*
X701368D01*
X704831Y1634163D01*
Y1634833D01*
X705600Y1635602D01*
Y1637030D01*
X705638Y1637068D01*
Y1640256D01*
G01X693000Y1659000D02*
X694913Y1657087D01*
X698256D01*
G01Y1647638D02*
X690788D01*
X689000Y1645850D01*
G01Y1652150D02*
X692942D01*
X695879Y1649213D01*
G01D02*
X698256D01*
G01X697000Y1663000D02*
Y1662363D01*
X699619Y1659744D01*
X700913D01*
G01X677654Y1689000D02*
Y1691869D01*
X678110Y1692325D01*
Y1697000D01*
G01X691000Y1685000D02*
X687952D01*
X684346Y1688606D01*
Y1689000D01*
G01X714150Y1408000D02*
X715292Y1409142D01*
X720417D01*
G01Y1413079D02*
X716079D01*
G01X714150Y1424000D02*
X716920D01*
X717810Y1424890D01*
X720417D01*
G01X714300Y1429200D02*
X716642Y1426858D01*
X720417D01*
G01X716900Y1431500D02*
Y1429400D01*
X717473Y1428827D01*
X720417D01*
G01Y1417016D02*
X716904D01*
X716820Y1417100D01*
X714050D01*
G01X715150Y1496000D02*
X717920D01*
X718810Y1496890D01*
X721417D01*
G01X715150Y1480000D02*
X716292Y1481142D01*
X721417D01*
G01Y1485079D02*
X717079D01*
G01X721417Y1489016D02*
X718504D01*
X717920Y1489600D01*
X715150D01*
G01X713300Y1501300D02*
X716500D01*
X718942Y1498858D01*
X721417D01*
G01X715800Y1504100D02*
X719900D01*
X721417Y1502583D01*
Y1500827D01*
G01X699000Y1563000D02*
X704654D01*
G01D02*
Y1565869D01*
X704850Y1566065D01*
Y1570000D01*
G01X711173Y1577024D02*
Y1574619D01*
X710178Y1573624D01*
X708375D01*
X704850Y1570099D01*
Y1570000D01*
G01X710000D02*
X711150D01*
G01X713142Y1577024D02*
Y1571992D01*
X711150Y1570000D01*
G01X710000Y1563000D02*
X711346D01*
G01X715110Y1577024D02*
Y1566764D01*
X714716D01*
X711346Y1563394D01*
Y1563000D01*
G01X719047Y1577024D02*
X717079D01*
G01D02*
Y1559640D01*
X717850Y1558869D01*
Y1556099D01*
G01X699000Y1611000D02*
X699362Y1610638D01*
Y1604976D01*
G01X703000Y1610000D02*
X701331Y1608331D01*
Y1604976D01*
G01X717079D02*
Y1634870D01*
X713512Y1638437D01*
Y1640256D01*
G01X715110Y1604976D02*
Y1635000D01*
X711937Y1638173D01*
Y1640256D01*
G01X713142Y1604976D02*
Y1635099D01*
X710362Y1637879D01*
Y1640256D01*
G01X705000Y1622048D02*
X708606Y1625654D01*
X709000D01*
G01X699000Y1635000D02*
X700485Y1636485D01*
X701094D01*
X702488Y1637879D01*
Y1640256D01*
G01X709000Y1632346D02*
Y1635621D01*
G01D02*
Y1637666D01*
X708787Y1637879D01*
Y1640256D01*
G01X698000Y1627000D02*
X700100D01*
X706131Y1633031D01*
Y1634294D01*
X706900Y1635063D01*
Y1636491D01*
X707213Y1636804D01*
Y1640256D01*
G01X719047Y1604976D02*
Y1635213D01*
X715087Y1639173D01*
Y1640256D01*
G01X704063Y1659744D02*
Y1664143D01*
X704700Y1664780D01*
Y1667550D01*
G01X702488Y1659744D02*
Y1663761D01*
X698699Y1667550D01*
X698600D01*
G01X728000Y1672000D02*
X720505D01*
X717374Y1668869D01*
X712607D01*
X712080Y1668342D01*
Y1663310D01*
X710362Y1661592D01*
Y1659744D01*
G01X725000Y1676000D02*
X722666D01*
X716835Y1670169D01*
X712068D01*
X710780Y1668881D01*
Y1663849D01*
X708787Y1661856D01*
Y1659744D01*
G01X717000Y1677000D02*
Y1674900D01*
X716996Y1674896D01*
Y1673798D01*
X714670Y1671472D01*
X711532D01*
X709480Y1669420D01*
Y1664388D01*
X707213Y1662121D01*
Y1659744D01*
G01X712000Y1675000D02*
X708180Y1671180D01*
Y1664927D01*
X705638Y1662385D01*
Y1659744D01*
G01X711937D02*
Y1661328D01*
X713380Y1662771D01*
Y1663036D01*
X714680Y1664336D01*
Y1665731D01*
X714850Y1665901D01*
Y1666000D01*
G01X716559Y1689528D02*
Y1685508D01*
X708812Y1677761D01*
Y1674732D01*
X708643Y1674322D01*
X708171Y1673850D01*
X704700D01*
G01X714000Y1689528D02*
Y1684931D01*
X707757Y1678688D01*
X707748Y1678666D01*
X707595Y1678437D01*
X707208Y1678050D01*
Y1677785D01*
X706047Y1676624D01*
X701473D01*
X698699Y1673850D01*
X698600D01*
G01X723695Y1690945D02*
X720890Y1693750D01*
Y1694471D01*
X720363Y1694998D01*
X719642D01*
X719640Y1695000D01*
X709682D01*
X708882Y1694200D01*
Y1689528D01*
G01D02*
Y1687210D01*
X707568Y1685896D01*
X705250D01*
Y1682600D01*
X704950Y1682900D01*
X704150D01*
G01X728000Y1391000D02*
Y1394900D01*
X727000Y1395900D01*
Y1398000D01*
G01X722000Y1398150D02*
X723173Y1399323D01*
Y1404417D01*
G01X735000Y1398150D02*
Y1400920D01*
X734984Y1400936D01*
Y1404417D01*
G01X720417Y1407173D02*
X723173D01*
X731047Y1415047D01*
G01X740890Y1411110D02*
X734000Y1418000D01*
G01X727000Y1398000D02*
X729079Y1400079D01*
Y1404417D01*
G01X730000Y1397000D02*
X731047Y1398047D01*
Y1404417D01*
G01X737000Y1437850D02*
Y1435080D01*
X736953Y1435033D01*
Y1431583D01*
G01X731047Y1415047D02*
X734000Y1418000D01*
G01X731047Y1415047D02*
X720417D01*
G01X734000Y1418000D02*
X731047Y1420953D01*
X720417D01*
G01X742858Y1431583D02*
Y1426858D01*
X734000Y1418000D01*
G01X731047Y1431583D02*
Y1434058D01*
X730346Y1434759D01*
Y1443000D01*
G01X720417Y1418984D02*
Y1417016D01*
G01X723654Y1443000D02*
X720000D01*
G01X730150Y1450000D02*
Y1447131D01*
X730346Y1446935D01*
Y1443000D01*
G01X736000Y1470150D02*
Y1472920D01*
X735984Y1472936D01*
Y1476417D01*
G01X723000Y1470150D02*
X724173Y1471323D01*
Y1476417D01*
G01X728000Y1468000D02*
X728900Y1468900D01*
Y1470870D01*
X730079Y1472049D01*
Y1476417D01*
G01X731000Y1470000D02*
Y1471131D01*
X732047Y1472178D01*
Y1476417D01*
G01Y1487047D02*
X735000Y1490000D01*
G01X721417Y1479173D02*
X724173D01*
X732047Y1487047D01*
G01D02*
X721417D01*
G01X741890Y1483110D02*
X735000Y1490000D01*
G01D02*
X732047Y1492953D01*
X721417D01*
G01X743858Y1503583D02*
Y1498858D01*
X735000Y1490000D01*
G01X721417Y1490984D02*
Y1489016D01*
G01X724654Y1515000D02*
X721000D01*
G01X738000Y1509850D02*
Y1507080D01*
X737953Y1507033D01*
Y1503583D01*
G01X731150Y1522000D02*
Y1519131D01*
X731346Y1518935D01*
Y1515000D01*
G01X732047Y1503583D02*
Y1506058D01*
X731346Y1506759D01*
Y1515000D01*
G01X738000Y1543000D02*
Y1567000D01*
X735000Y1570000D01*
X729346D01*
G01X729150Y1563000D02*
Y1562901D01*
X726380Y1560131D01*
X721882D01*
X717850Y1556099D01*
G01D02*
Y1556000D01*
G01X721000Y1587000D02*
Y1584900D01*
X721016Y1584884D01*
Y1577024D01*
G01X725000Y1590000D02*
Y1587900D01*
X724953Y1587853D01*
Y1577024D01*
G01X728890D02*
Y1573325D01*
X729346Y1572869D01*
Y1570000D01*
G01X722654D02*
X720000D01*
G01X722850Y1563000D02*
X720000D01*
G01X731000Y1582000D02*
Y1577166D01*
X730858Y1577024D01*
G01X732827Y1604976D02*
Y1608376D01*
X733346Y1608895D01*
Y1613000D01*
G01X730858Y1604976D02*
Y1608402D01*
X726654Y1612606D01*
Y1613000D01*
G01X727000Y1619654D02*
Y1616215D01*
X726654Y1615869D01*
Y1613000D01*
G01X733000Y1619654D02*
X733394D01*
X739654Y1613394D01*
Y1613000D01*
G01X721016Y1604976D02*
Y1640722D01*
X721014Y1640724D01*
Y1640726D01*
X718827Y1642913D01*
X717744D01*
G01X722984Y1604976D02*
Y1641175D01*
X719671Y1644488D01*
X717744D01*
G01X726297Y1639406D02*
X727782Y1640891D01*
Y1642188D01*
X725870Y1644100D01*
X723740D01*
X721255Y1646584D01*
X721019Y1646742D01*
X720123Y1647638D01*
X717744D01*
G01X725000Y1642000D02*
X724000D01*
X720425Y1645574D01*
X720189Y1645732D01*
X719622Y1646299D01*
X717980D01*
X717744Y1646063D01*
G01Y1653937D02*
X720098D01*
X723081Y1656920D01*
X729920D01*
X749000Y1676000D01*
X771949D01*
X775850Y1679901D01*
Y1680000D01*
G01X717744Y1655512D02*
X719312D01*
X720121Y1656321D01*
Y1656872D01*
X742150Y1678901D01*
Y1679000D01*
G01X732000Y1649000D02*
X730850Y1647850D01*
X726000D01*
G01X717744Y1650787D02*
X722964D01*
X725901Y1647850D01*
X726000D01*
G01X725700Y1654000D02*
X724062Y1652362D01*
G01D02*
X717744D01*
G01X721150Y1666000D02*
X721100D01*
G01X721150D02*
Y1666050D01*
G01Y1666000D02*
X726700D01*
G01X721400Y1667600D02*
X721150Y1667350D01*
Y1666050D01*
G01D02*
X722000Y1666900D01*
G01X726700Y1666000D02*
X735850Y1675150D01*
Y1679000D01*
G01X751000Y1400000D02*
X749150Y1398150D01*
X746000D01*
G01X744827Y1404417D02*
Y1399323D01*
X746000Y1398150D01*
G01X753850Y1407000D02*
X751080D01*
X750907Y1407173D01*
X747583D01*
G01X740890Y1411110D02*
X747583D01*
G01X742858Y1404417D02*
Y1409142D01*
X740890Y1411110D01*
G01X744827Y1431583D02*
Y1432666D01*
X746850Y1434689D01*
Y1438000D01*
G01X753850Y1416000D02*
X751080D01*
X750064Y1417016D01*
X747583D01*
G01X753850Y1423000D02*
X751080D01*
X751001Y1422921D01*
X747583D01*
G01X753800Y1429400D02*
X751258Y1426858D01*
X747583D01*
G01X753500Y1433000D02*
X749301D01*
X748215Y1431914D01*
Y1431215D01*
X747583Y1430583D01*
Y1428827D01*
G01X746850Y1438000D02*
X747000Y1438150D01*
Y1441000D01*
G01X753000Y1438000D02*
X753150D01*
G01X752000Y1472000D02*
X750150Y1470150D01*
X747000D01*
G01X745827Y1476417D02*
Y1471323D01*
X747000Y1470150D01*
G01X754850Y1479000D02*
X752080D01*
X751907Y1479173D01*
X748583D01*
G01X754850Y1488000D02*
X752080D01*
X751064Y1489016D01*
X748583D01*
G01X754850Y1495000D02*
X752080D01*
X752001Y1494921D01*
X748583D01*
G01X741890Y1483110D02*
X748583D01*
G01X743858Y1476417D02*
Y1481142D01*
X741890Y1483110D01*
G01X745827Y1503583D02*
Y1504666D01*
X747850Y1506689D01*
Y1510000D01*
G01D02*
X748000Y1510150D01*
Y1513000D01*
G01X754000Y1510000D02*
X754150D01*
G01X755804Y1501098D02*
X753564Y1498858D01*
X748583D01*
G01X754400Y1504500D02*
X750727Y1500827D01*
X748583D01*
G01X744638Y1577024D02*
X747108D01*
X747344Y1577260D01*
X751000D01*
G01X755731Y1584150D02*
X755246D01*
X754656Y1584740D01*
G01X744638Y1604976D02*
X746138D01*
X746964Y1604150D01*
X750000D01*
G01X742669Y1604976D02*
Y1608376D01*
X744293Y1610000D01*
X748200D01*
X749000Y1610800D01*
Y1623952D01*
X746346Y1626606D01*
Y1627000D01*
G01Y1620000D02*
Y1613000D01*
G01X740701Y1604976D02*
Y1608701D01*
X745000Y1613000D01*
X746346D01*
G01X738732Y1604976D02*
Y1609209D01*
X739654Y1610131D01*
Y1613000D01*
G01X758311Y1642862D02*
Y1641657D01*
X758227Y1641573D01*
Y1641308D01*
X756525Y1639606D01*
X755866D01*
X753654Y1637394D01*
Y1637000D01*
G01X750000Y1638000D02*
X752654D01*
X753654Y1637000D01*
G01X739654Y1633654D02*
Y1627000D01*
G01D02*
Y1620000D01*
G01X756933Y1642862D02*
X757011Y1642940D01*
Y1644410D01*
X757544Y1644943D01*
X759078D01*
X759611Y1644410D01*
Y1642940D01*
X759689Y1642862D01*
G01X757011Y1642784D02*
X756933Y1642862D01*
G01X758311Y1647138D02*
Y1648839D01*
X755829Y1651321D01*
Y1652840D01*
X755441Y1653228D01*
G01X750000Y1656000D02*
X752296D01*
X753742Y1657446D01*
X757860D01*
X759688Y1655618D01*
Y1654099D01*
X760559Y1653228D01*
G01X758000D02*
X757129Y1654099D01*
Y1655618D01*
X756601Y1656146D01*
X754281D01*
X753753Y1655618D01*
Y1650838D01*
G01D02*
X754591Y1650000D01*
X754858D01*
X756933Y1647925D01*
Y1647138D01*
G01X750000Y1661000D02*
X753525D01*
X753753Y1660772D01*
X755441D01*
G01X741839Y1694000D02*
Y1682719D01*
X742150Y1682408D01*
Y1679000D01*
G01X755000Y1668000D02*
X758000Y1665000D01*
Y1660772D01*
G01X759689Y1642862D02*
Y1640526D01*
X760346Y1639869D01*
Y1637000D01*
G01X767952D02*
X772606Y1641654D01*
X766000D01*
G01Y1654850D02*
X764378Y1653228D01*
X760559D01*
G01X761067Y1642862D02*
X764792D01*
X766000Y1641654D01*
G01X778000Y1646000D02*
X775654Y1648346D01*
X773000D01*
G01X759689Y1647138D02*
X759767Y1647216D01*
Y1648686D01*
X760300Y1649219D01*
X762056D01*
X763658Y1650821D01*
X768342D01*
X768869Y1650294D01*
Y1649608D01*
X770131Y1648346D01*
X773000D01*
G01X781000Y1643000D02*
X777400D01*
X775400Y1645000D01*
X769740D01*
X766394Y1648346D01*
X766000D01*
G01X761067Y1647138D02*
X764792D01*
X766000Y1648346D01*
G01X760000Y1669000D02*
Y1664249D01*
X760559Y1663690D01*
Y1660772D01*
G01X778161Y1694000D02*
Y1685180D01*
X775850Y1682869D01*
Y1680000D01*
G01X766000Y1661150D02*
X766099D01*
X779643Y1674694D01*
G01X791150Y1409000D02*
X792292Y1410142D01*
X797417D01*
G01X799000Y1399150D02*
X800173Y1400323D01*
Y1405417D01*
G01X797417Y1408173D02*
X800173D01*
X808047Y1416047D01*
G01X797417Y1414079D02*
X793079D01*
G01X791150Y1425000D02*
X793920D01*
X794810Y1425890D01*
X797417D01*
G01X808047Y1416047D02*
X797417D01*
G01X811000Y1419000D02*
X808047Y1421953D01*
X797417D01*
G01X790100Y1430700D02*
X792800Y1428000D01*
X797275D01*
X797417Y1427858D01*
G01X793000Y1434000D02*
X796334Y1430666D01*
Y1429827D01*
X797417D01*
G01Y1418016D02*
X793736D01*
X793720Y1418000D01*
X790950D01*
G01X797417Y1419984D02*
Y1418016D01*
G01X800654Y1444000D02*
X797000D01*
G01X792150Y1480000D02*
X793292Y1481142D01*
X798417D01*
G01X792150Y1496000D02*
X794920D01*
X795810Y1496890D01*
X798417D01*
G01Y1479173D02*
X801173D01*
X809047Y1487047D01*
G01D02*
X798417D01*
G01X812000Y1490000D02*
X809047Y1492953D01*
X798417D01*
G01Y1485079D02*
X793079D01*
G01X798417Y1489016D02*
X795604D01*
X795420Y1489200D01*
X792650D01*
G01X798417Y1490984D02*
Y1489016D01*
G01X801654Y1515000D02*
X798000D01*
G01X791800Y1500300D02*
X793900D01*
X795342Y1498858D01*
X798417D01*
G01X791600Y1504000D02*
X794161D01*
X797334Y1500827D01*
X798417D01*
G01X799000Y1546150D02*
X800173Y1547323D01*
Y1552417D01*
G01X791150Y1556000D02*
X792292Y1557142D01*
X797417D01*
G01Y1555173D02*
X800173D01*
X808047Y1563047D01*
G01X791150Y1572000D02*
X793920D01*
X794810Y1572890D01*
X797417D01*
G01X808047Y1563047D02*
X797417D01*
G01X811000Y1566000D02*
X808047Y1568953D01*
X797417D01*
G01X790700Y1578900D02*
X794261D01*
X796334Y1576827D01*
X797417D01*
G01X788700Y1576200D02*
X792800D01*
X794142Y1574858D01*
X797417D01*
G01Y1561079D02*
X793079D01*
G01X797417Y1565016D02*
X792936D01*
X790220Y1562300D01*
X787450D01*
G01X797417Y1566984D02*
Y1565016D01*
G01X800654Y1591000D02*
X797000D01*
G01X786989Y1637385D02*
Y1637196D01*
X787789Y1636396D01*
X789091D01*
X789093Y1636398D01*
X793366D01*
G01X783000Y1630000D02*
X787839D01*
X789119Y1631280D01*
X793366D01*
G01X786000Y1621000D02*
X789076D01*
X789119Y1621043D01*
X793366D01*
G01X786000Y1626000D02*
X788958D01*
X789119Y1626161D01*
X793366D01*
G01Y1641516D02*
Y1643302D01*
X793752Y1643688D01*
Y1648780D01*
G01X791000Y1678000D02*
X793000Y1680000D01*
Y1682654D01*
G01X779643Y1674694D02*
Y1677394D01*
X782150Y1679901D01*
Y1680000D01*
G01X793000Y1689346D02*
Y1691821D01*
X792890Y1691931D01*
Y1697000D01*
G01X804000Y1392000D02*
Y1399000D01*
G01X812000Y1399150D02*
Y1401920D01*
X811984Y1401936D01*
Y1405417D01*
G01X817890Y1412110D02*
X824583D01*
G01X819858Y1405417D02*
Y1410142D01*
X817890Y1412110D01*
G01D02*
X811000Y1419000D01*
G01X804000Y1399000D02*
X806079Y1401079D01*
Y1405417D01*
G01X807000Y1397000D02*
X808047Y1398047D01*
Y1405417D01*
G01X814000Y1438850D02*
Y1436080D01*
X813953Y1436033D01*
Y1432583D01*
G01X808047Y1416047D02*
X811000Y1419000D01*
G01X819858Y1432583D02*
Y1427858D01*
X811000Y1419000D01*
G01X808047Y1432583D02*
Y1435058D01*
X807346Y1435759D01*
Y1444000D01*
G01X807150Y1451000D02*
Y1448131D01*
X807346Y1447935D01*
Y1444000D01*
G01X813000Y1470150D02*
Y1472920D01*
X812984Y1472936D01*
Y1476417D01*
G01X800000Y1470150D02*
X801173Y1471323D01*
Y1476417D01*
G01X805000Y1469000D02*
X807079Y1471079D01*
Y1476417D01*
G01X809000Y1468000D02*
Y1473895D01*
X809047Y1473942D01*
Y1476417D01*
G01X818890Y1483110D02*
X825583D01*
G01X820858Y1476417D02*
Y1481142D01*
X818890Y1483110D01*
G01X809047Y1487047D02*
X812000Y1490000D01*
G01X818890Y1483110D02*
X812000Y1490000D01*
G01X820858Y1503583D02*
Y1498858D01*
X812000Y1490000D01*
G01X815000Y1509850D02*
Y1507080D01*
X814953Y1507033D01*
Y1503583D01*
G01X808150Y1522000D02*
Y1519131D01*
X808346Y1518935D01*
Y1515000D01*
G01X809047Y1503583D02*
Y1506058D01*
X808346Y1506759D01*
Y1515000D01*
G01X812000Y1546150D02*
Y1548920D01*
X811984Y1548936D01*
Y1552417D01*
G01X819858D02*
Y1557142D01*
X817890Y1559110D01*
G01X804000Y1547000D02*
X806079Y1549079D01*
Y1552417D01*
G01X807000Y1545000D02*
X808047Y1546047D01*
Y1552417D01*
G01X817890Y1559110D02*
X824583D01*
G01X808047Y1563047D02*
X811000Y1566000D01*
G01X817890Y1559110D02*
X811000Y1566000D01*
G01X819858Y1579583D02*
Y1574858D01*
X811000Y1566000D01*
G01X814000Y1585850D02*
Y1583080D01*
X813953Y1583033D01*
Y1579583D01*
G01X807150Y1598000D02*
Y1595131D01*
X807346Y1594935D01*
Y1591000D01*
G01X808047Y1579583D02*
Y1582058D01*
X807346Y1582759D01*
Y1591000D01*
G01X813000Y1618000D02*
X815903D01*
X816387Y1618484D01*
X820634D01*
G01X815346Y1689000D02*
Y1691869D01*
X814670Y1692545D01*
Y1697000D01*
G01X806000Y1683000D02*
X808654Y1685654D01*
Y1689000D01*
G01X828000Y1401000D02*
X826150Y1399150D01*
X823000D01*
G01X821827Y1405417D02*
Y1400323D01*
X823000Y1399150D01*
G01X830850Y1408000D02*
X828080D01*
X827907Y1408173D01*
X824583D01*
G01X821827Y1432583D02*
Y1433666D01*
X823850Y1435689D01*
Y1439000D01*
G01X830850Y1424000D02*
X828080D01*
X828001Y1423921D01*
X824583D01*
G01X830850Y1417000D02*
X828080D01*
X827064Y1418016D01*
X824583D01*
G01X831000Y1429000D02*
X829858Y1427858D01*
X824583D01*
G01X825100Y1432700D02*
Y1431736D01*
X824583Y1431219D01*
Y1429827D01*
G01X823850Y1439000D02*
X824000Y1439150D01*
Y1442000D01*
G01X830000Y1439000D02*
X830150D01*
G01X829000Y1472000D02*
X827150Y1470150D01*
X824000D01*
G01X822827Y1476417D02*
Y1471323D01*
X824000Y1470150D01*
G01X831850Y1479000D02*
X829080D01*
X828907Y1479173D01*
X825583D01*
G01X831850Y1495000D02*
X829080D01*
X829001Y1494921D01*
X825583D01*
G01X831850Y1488000D02*
X829080D01*
X828064Y1489016D01*
X825583D01*
G01X822827Y1503583D02*
Y1504666D01*
X824850Y1506689D01*
Y1510000D01*
G01D02*
X825000Y1510150D01*
Y1513000D01*
G01X831000Y1510000D02*
X831150D01*
G01X832000Y1501000D02*
X829858Y1498858D01*
X825583D01*
G01X826500Y1504200D02*
X825583Y1503283D01*
Y1500827D01*
G01X828000Y1548000D02*
X826150Y1546150D01*
X823000D01*
G01X821827Y1552417D02*
Y1547323D01*
X823000Y1546150D01*
G01X830850Y1555000D02*
X828080D01*
X827907Y1555173D01*
X824583D01*
G01X830850Y1564000D02*
X828080D01*
X827064Y1565016D01*
X824583D01*
G01X830850Y1571000D02*
X828080D01*
X828001Y1570921D01*
X824583D01*
G01X832000Y1577000D02*
X829858Y1574858D01*
X824583D01*
G01X830700Y1580300D02*
X829215Y1578815D01*
X829015D01*
X828715Y1578515D01*
X827354D01*
X825666Y1576827D01*
X824583D01*
G01X821827Y1579583D02*
Y1580666D01*
X823850Y1582689D01*
Y1586000D01*
G01D02*
X824000Y1586150D01*
Y1589000D01*
G01X830000Y1586000D02*
X830150D01*
G01X828000Y1636000D02*
X825279D01*
X824881Y1636398D01*
X820634D01*
G01X828000Y1621000D02*
X824924D01*
X824881Y1621043D01*
X820634D01*
G01X828000Y1639000D02*
X824924D01*
X824881Y1638957D01*
X820634D01*
G01X828000Y1631000D02*
X825161D01*
X824881Y1631280D01*
X820634D01*
G01X828000Y1626000D02*
X825042D01*
X824881Y1626161D01*
X820634D01*
G54D47*
X702533Y1700000D03*
X725467D03*
G54D29*
X641000Y1638000D03*
G54D38*
X688500Y1399200D03*
Y1406700D03*
X695500Y1403000D03*
G54D39*
X686260Y1607000D03*
X693740D03*
G54D48*
X741839Y1694000D03*
X778161D03*
G54D49*
X751000Y1577260D03*
Y1584740D03*
M02*
