G04 (created by PCBNEW (2013-mar-13)-testing) date Thu 13 Jun 2013 11:54:31 PM ICT*
%MOIN*%
G04 Gerber Fmt 3.4, Leading zero omitted, Abs format*
%FSLAX34Y34*%
G01*
G70*
G90*
G04 APERTURE LIST*
%ADD10C,0.00393701*%
%ADD11C,0.00590551*%
%ADD12R,0.0314961X0.0590551*%
%ADD13R,0.137795X0.102362*%
%ADD14R,0.0255906X0.0334646*%
%ADD15R,0.06X0.06*%
%ADD16C,0.06*%
%ADD17R,0.016X0.05*%
%ADD18R,0.0433X0.0393*%
%ADD19R,0.0393X0.0433*%
%ADD20R,0.0512X0.0551*%
%ADD21R,0.0354X0.0275*%
%ADD22R,0.0275X0.0354*%
%ADD23R,0.0590551X0.141732*%
%ADD24R,0.0394X0.0315*%
%ADD25R,0.063X0.0276*%
%ADD26R,0.0827X0.0276*%
%ADD27R,0.1083X0.0787*%
%ADD28R,0.0118X0.0196*%
%ADD29R,0.0196X0.0118*%
%ADD30R,0.212598X0.212598*%
%ADD31R,0.0393701X0.0393701*%
%ADD32R,0.02X0.012*%
%ADD33C,0.023622*%
%ADD34C,0.019685*%
%ADD35C,0.0314961*%
%ADD36C,0.0314961*%
%ADD37C,0.011811*%
%ADD38C,0.019685*%
%ADD39C,0.00787402*%
G04 APERTURE END LIST*
G54D10*
G54D11*
X53681Y-32066D02*
X53681Y-26988D01*
X59055Y-32066D02*
X53681Y-32066D01*
X59055Y-22224D02*
X53681Y-22224D01*
X59055Y-26988D02*
X53681Y-26988D01*
X53681Y-36830D02*
X53681Y-39370D01*
X53681Y-22224D02*
X53681Y-19685D01*
X59055Y-36830D02*
X53681Y-36830D01*
G54D10*
X39370Y-19685D02*
X53681Y-19685D01*
X59055Y-22224D02*
X59055Y-26988D01*
X59055Y-32066D02*
X59055Y-36830D01*
X53681Y-39370D02*
X39370Y-39370D01*
X39370Y-39370D02*
X39370Y-19685D01*
G54D12*
X50076Y-35708D03*
X50076Y-37677D03*
X50576Y-35708D03*
X51076Y-35708D03*
X51576Y-35708D03*
X50576Y-37677D03*
X51076Y-37677D03*
X51576Y-37677D03*
G54D13*
X50826Y-36692D03*
G54D14*
X46555Y-32007D03*
X47204Y-32007D03*
X46555Y-31397D03*
X47204Y-31397D03*
G54D15*
X39960Y-35448D03*
G54D16*
X39960Y-34448D03*
X39960Y-33448D03*
G54D17*
X49657Y-33215D03*
X49907Y-33215D03*
X50167Y-33215D03*
X50427Y-33215D03*
X50677Y-33215D03*
X50937Y-33215D03*
X51197Y-33215D03*
X51447Y-33215D03*
X51707Y-33215D03*
X51957Y-33215D03*
X51957Y-31115D03*
X51707Y-31115D03*
X51447Y-31115D03*
X51197Y-31115D03*
X50937Y-31115D03*
X50677Y-31115D03*
X50427Y-31115D03*
X50167Y-31115D03*
X49907Y-31115D03*
X49657Y-31115D03*
G54D18*
X50551Y-38622D03*
X51219Y-38622D03*
G54D19*
X49389Y-35630D03*
X49389Y-36298D03*
X49409Y-36910D03*
X49409Y-37578D03*
X51023Y-34979D03*
X51023Y-34311D03*
G54D18*
X48542Y-35905D03*
X47874Y-35905D03*
G54D19*
X52223Y-34980D03*
X51555Y-34980D03*
X52223Y-34389D03*
X51555Y-34389D03*
X49823Y-34311D03*
X50491Y-34311D03*
X51416Y-30334D03*
X50748Y-30334D03*
X51949Y-30334D03*
X52617Y-30334D03*
G54D20*
X48582Y-38681D03*
X49724Y-38681D03*
G54D18*
X48542Y-35374D03*
X47874Y-35374D03*
G54D21*
X47775Y-31437D03*
X47775Y-31947D03*
G54D22*
X49646Y-30374D03*
X50156Y-30374D03*
G54D23*
X48681Y-37125D03*
X47696Y-37125D03*
G54D19*
X53090Y-35786D03*
X53090Y-35118D03*
X52224Y-37756D03*
X52224Y-38424D03*
G54D24*
X53090Y-36712D03*
X52224Y-37087D03*
X52224Y-36337D03*
G54D18*
X47874Y-34724D03*
X48542Y-34724D03*
G54D21*
X42460Y-37087D03*
X42460Y-37597D03*
X42185Y-32223D03*
X42185Y-31713D03*
G54D22*
X44036Y-37125D03*
X44546Y-37125D03*
X45471Y-37125D03*
X44961Y-37125D03*
X46044Y-34980D03*
X46554Y-34980D03*
X41317Y-35098D03*
X40807Y-35098D03*
X46024Y-33897D03*
X46534Y-33897D03*
G54D21*
X42677Y-32223D03*
X42677Y-31713D03*
X44744Y-32361D03*
X44744Y-31851D03*
X42952Y-37087D03*
X42952Y-37597D03*
G54D22*
X41317Y-33838D03*
X40807Y-33838D03*
G54D25*
X47322Y-32834D03*
G54D26*
X47420Y-33425D03*
G54D25*
X47322Y-34016D03*
G54D27*
X48365Y-33425D03*
G54D22*
X44546Y-37618D03*
X44036Y-37618D03*
G54D21*
X47027Y-34430D03*
X47027Y-34940D03*
G54D28*
X44635Y-36111D03*
X44438Y-36111D03*
X44241Y-36111D03*
X44045Y-36111D03*
X43848Y-36111D03*
X43651Y-36111D03*
X43455Y-36111D03*
X43258Y-36111D03*
X43061Y-36111D03*
X42865Y-36111D03*
X42668Y-36111D03*
X42471Y-36111D03*
G54D29*
X42176Y-35816D03*
X42176Y-35619D03*
X42176Y-35422D03*
X42176Y-35226D03*
X42176Y-35029D03*
X42176Y-34832D03*
X42176Y-34636D03*
X42176Y-34439D03*
X42176Y-34242D03*
X42176Y-34046D03*
X42176Y-33849D03*
X42176Y-33652D03*
G54D28*
X42471Y-33357D03*
X42668Y-33357D03*
X42865Y-33357D03*
X43061Y-33357D03*
X43258Y-33357D03*
X43455Y-33357D03*
X43651Y-33357D03*
X43848Y-33357D03*
X44045Y-33357D03*
X44241Y-33357D03*
X44438Y-33357D03*
X44635Y-33357D03*
G54D29*
X44930Y-33652D03*
X44930Y-33849D03*
X44930Y-34046D03*
X44930Y-34242D03*
X44930Y-34439D03*
X44930Y-34636D03*
X44930Y-34832D03*
X44930Y-35029D03*
X44930Y-35226D03*
X44930Y-35422D03*
X44930Y-35619D03*
X44930Y-35816D03*
G54D30*
X43553Y-34734D03*
G54D22*
X45345Y-32086D03*
X45855Y-32086D03*
G54D31*
X45759Y-30295D03*
X46759Y-30295D03*
X47759Y-30295D03*
X44759Y-30295D03*
X48759Y-30295D03*
G54D32*
X45249Y-31098D03*
X45249Y-31598D03*
X46049Y-31098D03*
X45249Y-31348D03*
X46049Y-31598D03*
G54D18*
X43326Y-31398D03*
X43326Y-32066D03*
X44133Y-31221D03*
X44133Y-31889D03*
G54D33*
X46594Y-32273D03*
X46151Y-33454D03*
X49645Y-32224D03*
X47204Y-30984D03*
X52539Y-33720D03*
X53110Y-34547D03*
X45964Y-35472D03*
X51456Y-33740D03*
X45984Y-35807D03*
X51751Y-33937D03*
X49163Y-30383D03*
X50944Y-31624D03*
X47765Y-30688D03*
X50600Y-31594D03*
X40413Y-30521D03*
X49734Y-33769D03*
X50305Y-33710D03*
X44753Y-30738D03*
X50944Y-32657D03*
X50570Y-35216D03*
X51948Y-32637D03*
X45856Y-32431D03*
X45472Y-31348D03*
X51712Y-31633D03*
X44025Y-32155D03*
X45482Y-31013D03*
X43651Y-32076D03*
X51957Y-30688D03*
X51447Y-30688D03*
X52224Y-35433D03*
X47874Y-35649D03*
G54D34*
X48720Y-33641D03*
X47992Y-33661D03*
X48700Y-33208D03*
X48011Y-33208D03*
X48365Y-33425D03*
G54D35*
X53149Y-36279D03*
G54D33*
X46555Y-31062D03*
X44744Y-31496D03*
G54D34*
X43976Y-34744D03*
X44409Y-34744D03*
X44409Y-34311D03*
X44409Y-33877D03*
X43976Y-33877D03*
X43976Y-34311D03*
X43543Y-34744D03*
X43533Y-34734D03*
X43966Y-35167D03*
X44399Y-35167D03*
X44399Y-35600D03*
X43966Y-35600D03*
X43533Y-35600D03*
X43533Y-35167D03*
X43110Y-34744D03*
X42677Y-34744D03*
X42677Y-35177D03*
X42677Y-35610D03*
X43110Y-35610D03*
X43110Y-35177D03*
X43543Y-34744D03*
X43543Y-34744D03*
X43110Y-34311D03*
X42677Y-34311D03*
X42677Y-33877D03*
X43110Y-33877D03*
X43543Y-33877D03*
X43543Y-34311D03*
G54D33*
X46377Y-34685D03*
X46535Y-33503D03*
X44763Y-37125D03*
X42696Y-37597D03*
X42440Y-31713D03*
X49370Y-31122D03*
G54D34*
X51259Y-36397D03*
X51259Y-36948D03*
X50826Y-36948D03*
X50393Y-36948D03*
X50393Y-36397D03*
X50826Y-36397D03*
G54D33*
X49862Y-36909D03*
X51082Y-38188D03*
X43769Y-31221D03*
X39921Y-38690D03*
X49389Y-33208D03*
X45866Y-31259D03*
X47775Y-32303D03*
X44921Y-37618D03*
X42106Y-37086D03*
X41811Y-32224D03*
X52618Y-30807D03*
G54D35*
X52224Y-37401D03*
G54D36*
X47322Y-34016D02*
X47322Y-34488D01*
X47559Y-34724D02*
X47874Y-34724D01*
X47322Y-34488D02*
X47559Y-34724D01*
G54D37*
X44930Y-34636D02*
X45698Y-34636D01*
X47322Y-34232D02*
X47322Y-34016D01*
X47185Y-34370D02*
X47322Y-34232D01*
X45964Y-34370D02*
X47185Y-34370D01*
X45698Y-34636D02*
X45964Y-34370D01*
X45669Y-33464D02*
X46141Y-33464D01*
X46574Y-32263D02*
X46574Y-32027D01*
X46584Y-32263D02*
X46574Y-32263D01*
X46594Y-32273D02*
X46584Y-32263D01*
X46141Y-33464D02*
X46151Y-33454D01*
X44930Y-34242D02*
X45462Y-34242D01*
X45462Y-34242D02*
X45669Y-34035D01*
X45669Y-34035D02*
X45669Y-33464D01*
X45669Y-33464D02*
X45669Y-33484D01*
X50167Y-33215D02*
X50167Y-32745D01*
X49907Y-32485D02*
X49645Y-32224D01*
X47204Y-30984D02*
X47204Y-31397D01*
X50167Y-32745D02*
X49907Y-32485D01*
X49907Y-31737D02*
X50275Y-32106D01*
X50275Y-32106D02*
X52362Y-32106D01*
X52362Y-32106D02*
X52539Y-32283D01*
X52539Y-32283D02*
X52539Y-33720D01*
X49907Y-31115D02*
X49907Y-31737D01*
X52814Y-33818D02*
X52814Y-34251D01*
X50167Y-31653D02*
X50423Y-31909D01*
X50423Y-31909D02*
X52480Y-31909D01*
X52480Y-31909D02*
X52814Y-32244D01*
X52814Y-32244D02*
X52814Y-33818D01*
X50167Y-31115D02*
X50167Y-31653D01*
X52814Y-34251D02*
X53110Y-34547D01*
X51447Y-33215D02*
X51447Y-33730D01*
X45826Y-35610D02*
X44930Y-35619D01*
X45964Y-35472D02*
X45826Y-35610D01*
X51447Y-33730D02*
X51456Y-33740D01*
X51707Y-33215D02*
X51707Y-33892D01*
X45975Y-35816D02*
X44930Y-35816D01*
X45984Y-35807D02*
X45975Y-35816D01*
X51707Y-33892D02*
X51751Y-33937D01*
X50937Y-31115D02*
X50937Y-31616D01*
X49074Y-30295D02*
X48759Y-30295D01*
X49163Y-30383D02*
X49074Y-30295D01*
X50937Y-31616D02*
X50944Y-31624D01*
X50677Y-31115D02*
X50677Y-31517D01*
X47759Y-30683D02*
X47759Y-30295D01*
X47765Y-30688D02*
X47759Y-30683D01*
X50677Y-31517D02*
X50600Y-31594D01*
X49907Y-33215D02*
X49907Y-33596D01*
X49907Y-33596D02*
X49734Y-33769D01*
X44759Y-30295D02*
X44759Y-30732D01*
X50427Y-33588D02*
X50427Y-33215D01*
X50305Y-33710D02*
X50427Y-33588D01*
X44759Y-30732D02*
X44753Y-30738D01*
X50570Y-35216D02*
X50570Y-35648D01*
X50570Y-35648D02*
X50576Y-35642D01*
X50937Y-32665D02*
X50937Y-33215D01*
X50944Y-32657D02*
X50937Y-32665D01*
X50576Y-35210D02*
X50570Y-35216D01*
X45855Y-32086D02*
X45855Y-32430D01*
X51957Y-32646D02*
X51957Y-33215D01*
X51948Y-32637D02*
X51957Y-32646D01*
X45855Y-32430D02*
X45856Y-32431D01*
X46049Y-31598D02*
X46000Y-31598D01*
X45834Y-32063D02*
X45855Y-32086D01*
X45834Y-31764D02*
X45834Y-32063D01*
X46000Y-31598D02*
X45834Y-31764D01*
X44005Y-32174D02*
X44005Y-32036D01*
X44005Y-32036D02*
X44153Y-31889D01*
X45249Y-31348D02*
X45472Y-31348D01*
X43848Y-33357D02*
X43848Y-32322D01*
X43848Y-32322D02*
X44005Y-32174D01*
X44005Y-32174D02*
X44025Y-32155D01*
X51707Y-31628D02*
X51712Y-31633D01*
X51707Y-31628D02*
X51707Y-31115D01*
X44025Y-32155D02*
X44025Y-32155D01*
X43326Y-32066D02*
X43641Y-32066D01*
X43641Y-32066D02*
X43651Y-32076D01*
X43651Y-33357D02*
X43651Y-32077D01*
X45397Y-31098D02*
X45249Y-31098D01*
X45482Y-31013D02*
X45397Y-31098D01*
X43651Y-32077D02*
X43651Y-32076D01*
X51957Y-31115D02*
X51957Y-30688D01*
X51957Y-30688D02*
X51957Y-30342D01*
X51957Y-30342D02*
X51949Y-30334D01*
X51447Y-31115D02*
X51447Y-30688D01*
X51447Y-30688D02*
X51447Y-30365D01*
X51447Y-30365D02*
X51416Y-30334D01*
X52223Y-34980D02*
X52223Y-35432D01*
X52223Y-35432D02*
X52224Y-35433D01*
X47953Y-35374D02*
X47953Y-35905D01*
X48503Y-33425D02*
X48365Y-33425D01*
X48720Y-33641D02*
X48503Y-33425D01*
X47992Y-33661D02*
X48228Y-33425D01*
X48228Y-33425D02*
X48365Y-33425D01*
X48484Y-33425D02*
X48365Y-33425D01*
X48700Y-33208D02*
X48484Y-33425D01*
X48228Y-33425D02*
X48365Y-33425D01*
X48011Y-33208D02*
X48228Y-33425D01*
X47420Y-33425D02*
X48365Y-33425D01*
G54D38*
X53090Y-36712D02*
X53090Y-38484D01*
X53090Y-38484D02*
X52559Y-39015D01*
X52559Y-39015D02*
X50688Y-39015D01*
X50688Y-39015D02*
X50551Y-38878D01*
X50551Y-38878D02*
X50551Y-38681D01*
G54D36*
X53149Y-36279D02*
X53149Y-35845D01*
X53149Y-35845D02*
X53090Y-35786D01*
X53090Y-36338D02*
X53090Y-36712D01*
X53149Y-36279D02*
X53090Y-36338D01*
X50118Y-38681D02*
X49744Y-38681D01*
X50576Y-38675D02*
X50570Y-38681D01*
X50576Y-37742D02*
X50576Y-38675D01*
X50570Y-38681D02*
X50118Y-38681D01*
X49744Y-38681D02*
X49724Y-38661D01*
G54D37*
X46759Y-30295D02*
X46759Y-30858D01*
X46555Y-31062D02*
X46555Y-31397D01*
X46759Y-30858D02*
X46555Y-31062D01*
X45345Y-32086D02*
X45345Y-31694D01*
X45345Y-31694D02*
X45249Y-31598D01*
X45249Y-31598D02*
X44846Y-31598D01*
X44744Y-31496D02*
X44744Y-31851D01*
X44846Y-31598D02*
X44744Y-31496D01*
X47027Y-34940D02*
X46594Y-34940D01*
X46594Y-34940D02*
X46554Y-34980D01*
X42668Y-33357D02*
X42668Y-33868D01*
X42668Y-33868D02*
X42677Y-33877D01*
X43258Y-33357D02*
X43258Y-33730D01*
X43258Y-33730D02*
X43110Y-33877D01*
X44930Y-34439D02*
X44537Y-34439D01*
X44537Y-34439D02*
X44409Y-34311D01*
X44930Y-35029D02*
X44537Y-35029D01*
X44537Y-35029D02*
X44399Y-35167D01*
X43455Y-36111D02*
X43455Y-35678D01*
X43455Y-35678D02*
X43533Y-35600D01*
X42668Y-36111D02*
X42668Y-35619D01*
X42668Y-35619D02*
X42677Y-35610D01*
X42176Y-35029D02*
X42529Y-35029D01*
X42529Y-35029D02*
X42677Y-35177D01*
X43976Y-34744D02*
X43543Y-34744D01*
X44409Y-34744D02*
X44409Y-34311D01*
X44409Y-33877D02*
X43976Y-33877D01*
X44399Y-35600D02*
X44399Y-35167D01*
X43533Y-35600D02*
X43966Y-35600D01*
X43533Y-35167D02*
X43533Y-34734D01*
X43110Y-34744D02*
X43543Y-34744D01*
X42677Y-34744D02*
X42677Y-35177D01*
X42677Y-35610D02*
X43110Y-35610D01*
X42677Y-33877D02*
X42677Y-34311D01*
X43543Y-33877D02*
X43110Y-33877D01*
X43543Y-34311D02*
X43543Y-34744D01*
G54D36*
X47322Y-32834D02*
X47342Y-32834D01*
X47480Y-32696D02*
X48484Y-32696D01*
X47342Y-32834D02*
X47480Y-32696D01*
G54D37*
X46554Y-34980D02*
X46554Y-34861D01*
X46554Y-34861D02*
X46377Y-34685D01*
X47775Y-31437D02*
X48405Y-31437D01*
X46534Y-33897D02*
X46534Y-33504D01*
X46534Y-33504D02*
X46535Y-33503D01*
X40807Y-33838D02*
X40350Y-33838D01*
X40350Y-33838D02*
X39960Y-33448D01*
X40807Y-35098D02*
X40807Y-33838D01*
X44546Y-37125D02*
X44763Y-37125D01*
X44763Y-37125D02*
X44961Y-37125D01*
X42460Y-37597D02*
X42696Y-37597D01*
X42696Y-37597D02*
X42952Y-37597D01*
X42185Y-31713D02*
X42440Y-31713D01*
X42440Y-31713D02*
X42677Y-31713D01*
X49657Y-31115D02*
X49376Y-31115D01*
X49376Y-31115D02*
X49370Y-31122D01*
X49657Y-31115D02*
X49657Y-30384D01*
X49657Y-30384D02*
X49646Y-30374D01*
X48621Y-35905D02*
X48621Y-35374D01*
X50826Y-36692D02*
X50826Y-36397D01*
X50826Y-36948D02*
X51259Y-36948D01*
X50393Y-36397D02*
X50393Y-36948D01*
X44036Y-37125D02*
X44036Y-37618D01*
X44045Y-36111D02*
X44045Y-37117D01*
X44045Y-37117D02*
X44036Y-37125D01*
X51555Y-34980D02*
X51555Y-34389D01*
X51576Y-35642D02*
X51576Y-35001D01*
X51576Y-35001D02*
X51555Y-34980D01*
X50076Y-35642D02*
X49362Y-35642D01*
X49362Y-35642D02*
X49350Y-35630D01*
X51076Y-35642D02*
X51076Y-35032D01*
X51076Y-35032D02*
X51023Y-34979D01*
X50491Y-34311D02*
X51022Y-34311D01*
X51022Y-34311D02*
X51023Y-34311D01*
X51076Y-37677D02*
X51076Y-38183D01*
X49861Y-36910D02*
X49409Y-36910D01*
X49862Y-36909D02*
X49861Y-36910D01*
X51076Y-38183D02*
X51082Y-38188D01*
X50427Y-31115D02*
X50427Y-30644D01*
X50427Y-30644D02*
X50156Y-30374D01*
G54D36*
X49350Y-37578D02*
X48917Y-37578D01*
X48582Y-37047D02*
X48582Y-37047D01*
X48562Y-38700D02*
X48582Y-37047D01*
X49515Y-37742D02*
X49350Y-37578D01*
X50076Y-37742D02*
X49515Y-37742D01*
X48917Y-37578D02*
X48582Y-37242D01*
X48582Y-37242D02*
X48582Y-37047D01*
G54D37*
X43356Y-31398D02*
X43375Y-31398D01*
X43552Y-31221D02*
X43769Y-31221D01*
X43769Y-31221D02*
X44153Y-31221D01*
X43375Y-31398D02*
X43552Y-31221D01*
X42194Y-33208D02*
X42194Y-33228D01*
X42185Y-32223D02*
X42195Y-32234D01*
X42194Y-33218D02*
X42195Y-32234D01*
X42323Y-33357D02*
X42471Y-33357D01*
X42194Y-33228D02*
X42323Y-33357D01*
X49657Y-33215D02*
X49396Y-33215D01*
X49396Y-33215D02*
X49389Y-33208D01*
X45759Y-30295D02*
X45759Y-31153D01*
X46027Y-31098D02*
X45866Y-31259D01*
X46027Y-31098D02*
X46049Y-31098D01*
X45759Y-31153D02*
X45866Y-31259D01*
X47775Y-31947D02*
X47775Y-32303D01*
X47204Y-32007D02*
X47715Y-32007D01*
X47715Y-32007D02*
X47775Y-31947D01*
X44546Y-37618D02*
X44921Y-37618D01*
X42460Y-37087D02*
X42107Y-37087D01*
X42107Y-37087D02*
X42106Y-37086D01*
X42471Y-36111D02*
X42471Y-37077D01*
X42471Y-37077D02*
X42460Y-37087D01*
X42185Y-32223D02*
X41811Y-32223D01*
X41811Y-32223D02*
X41811Y-32224D01*
X52617Y-30334D02*
X52617Y-30806D01*
X52617Y-30806D02*
X52618Y-30807D01*
G54D36*
X52224Y-37087D02*
X52224Y-37401D01*
X52224Y-37401D02*
X52224Y-37756D01*
X52224Y-37756D02*
X52224Y-37756D01*
G54D37*
X50748Y-30334D02*
X50748Y-30038D01*
X52617Y-30078D02*
X52617Y-30334D01*
X52480Y-29940D02*
X52617Y-30078D01*
X50846Y-29940D02*
X52480Y-29940D01*
X50748Y-30038D02*
X50846Y-29940D01*
G54D10*
G36*
X48110Y-39251D02*
X41063Y-39251D01*
X41063Y-35252D01*
X41063Y-34898D01*
X41045Y-34854D01*
X41012Y-34821D01*
X40985Y-34810D01*
X40985Y-34126D01*
X41012Y-34115D01*
X41045Y-34082D01*
X41063Y-34039D01*
X41063Y-33992D01*
X41063Y-33638D01*
X41045Y-33594D01*
X41012Y-33561D01*
X40969Y-33543D01*
X40922Y-33543D01*
X40649Y-33543D01*
X40649Y-30474D01*
X40613Y-30388D01*
X40547Y-30321D01*
X40460Y-30285D01*
X40366Y-30285D01*
X40279Y-30321D01*
X40213Y-30387D01*
X40177Y-30474D01*
X40177Y-30568D01*
X40213Y-30655D01*
X40279Y-30721D01*
X40366Y-30757D01*
X40460Y-30757D01*
X40547Y-30722D01*
X40613Y-30655D01*
X40649Y-30568D01*
X40649Y-30474D01*
X40649Y-33543D01*
X40647Y-33543D01*
X40603Y-33561D01*
X40570Y-33594D01*
X40552Y-33637D01*
X40552Y-33661D01*
X40423Y-33661D01*
X40354Y-33591D01*
X40378Y-33532D01*
X40378Y-33366D01*
X40315Y-33212D01*
X40197Y-33094D01*
X40044Y-33030D01*
X39877Y-33030D01*
X39724Y-33094D01*
X39606Y-33211D01*
X39542Y-33365D01*
X39542Y-33531D01*
X39605Y-33685D01*
X39723Y-33803D01*
X39877Y-33866D01*
X40043Y-33867D01*
X40103Y-33842D01*
X40225Y-33963D01*
X40282Y-34002D01*
X40350Y-34015D01*
X40552Y-34015D01*
X40552Y-34038D01*
X40570Y-34082D01*
X40603Y-34115D01*
X40630Y-34126D01*
X40630Y-34810D01*
X40603Y-34821D01*
X40570Y-34854D01*
X40552Y-34897D01*
X40552Y-34944D01*
X40552Y-35298D01*
X40570Y-35342D01*
X40603Y-35375D01*
X40646Y-35393D01*
X40693Y-35393D01*
X40968Y-35393D01*
X41012Y-35375D01*
X41045Y-35342D01*
X41063Y-35299D01*
X41063Y-35252D01*
X41063Y-39251D01*
X40378Y-39251D01*
X40378Y-34366D01*
X40315Y-34212D01*
X40197Y-34094D01*
X40044Y-34030D01*
X39877Y-34030D01*
X39724Y-34094D01*
X39606Y-34211D01*
X39542Y-34365D01*
X39542Y-34531D01*
X39605Y-34685D01*
X39723Y-34803D01*
X39877Y-34866D01*
X40043Y-34867D01*
X40197Y-34803D01*
X40314Y-34685D01*
X40378Y-34532D01*
X40378Y-34366D01*
X40378Y-39251D01*
X40378Y-39251D01*
X40378Y-35725D01*
X40378Y-35125D01*
X40360Y-35082D01*
X40327Y-35048D01*
X40284Y-35030D01*
X40237Y-35030D01*
X39637Y-35030D01*
X39593Y-35048D01*
X39560Y-35081D01*
X39542Y-35125D01*
X39542Y-35172D01*
X39542Y-35772D01*
X39560Y-35815D01*
X39593Y-35848D01*
X39637Y-35866D01*
X39684Y-35866D01*
X40284Y-35866D01*
X40327Y-35849D01*
X40360Y-35815D01*
X40378Y-35772D01*
X40378Y-35725D01*
X40378Y-39251D01*
X40157Y-39251D01*
X40157Y-38644D01*
X40121Y-38557D01*
X40055Y-38490D01*
X39968Y-38454D01*
X39874Y-38454D01*
X39787Y-38490D01*
X39721Y-38556D01*
X39685Y-38643D01*
X39684Y-38737D01*
X39720Y-38824D01*
X39787Y-38891D01*
X39874Y-38927D01*
X39968Y-38927D01*
X40054Y-38891D01*
X40121Y-38824D01*
X40157Y-38738D01*
X40157Y-38644D01*
X40157Y-39251D01*
X39488Y-39251D01*
X39488Y-29645D01*
X48110Y-29645D01*
X48110Y-31260D01*
X48074Y-31260D01*
X48074Y-30468D01*
X48074Y-30075D01*
X48056Y-30031D01*
X48023Y-29998D01*
X47980Y-29980D01*
X47933Y-29980D01*
X47539Y-29980D01*
X47496Y-29998D01*
X47462Y-30031D01*
X47444Y-30074D01*
X47444Y-30121D01*
X47444Y-30515D01*
X47462Y-30558D01*
X47496Y-30592D01*
X47539Y-30610D01*
X47542Y-30610D01*
X47529Y-30641D01*
X47529Y-30735D01*
X47565Y-30822D01*
X47631Y-30889D01*
X47718Y-30925D01*
X47812Y-30925D01*
X47899Y-30889D01*
X47965Y-30822D01*
X48001Y-30736D01*
X48002Y-30642D01*
X47987Y-30607D01*
X48023Y-30592D01*
X48056Y-30559D01*
X48074Y-30515D01*
X48074Y-30468D01*
X48074Y-31260D01*
X48063Y-31260D01*
X48052Y-31233D01*
X48019Y-31200D01*
X47976Y-31182D01*
X47929Y-31182D01*
X47575Y-31182D01*
X47531Y-31200D01*
X47498Y-31233D01*
X47480Y-31276D01*
X47480Y-31323D01*
X47480Y-31598D01*
X47498Y-31642D01*
X47531Y-31675D01*
X47573Y-31692D01*
X47531Y-31710D01*
X47498Y-31743D01*
X47480Y-31786D01*
X47480Y-31830D01*
X47450Y-31830D01*
X47450Y-31817D01*
X47450Y-31541D01*
X47450Y-31206D01*
X47432Y-31163D01*
X47399Y-31130D01*
X47394Y-31128D01*
X47404Y-31118D01*
X47440Y-31031D01*
X47440Y-30937D01*
X47405Y-30850D01*
X47338Y-30784D01*
X47251Y-30748D01*
X47157Y-30747D01*
X47074Y-30782D01*
X47074Y-30468D01*
X47074Y-30075D01*
X47056Y-30031D01*
X47023Y-29998D01*
X46980Y-29980D01*
X46933Y-29980D01*
X46539Y-29980D01*
X46496Y-29998D01*
X46462Y-30031D01*
X46444Y-30074D01*
X46444Y-30121D01*
X46444Y-30515D01*
X46462Y-30558D01*
X46496Y-30592D01*
X46539Y-30610D01*
X46582Y-30610D01*
X46582Y-30784D01*
X46540Y-30826D01*
X46508Y-30826D01*
X46421Y-30862D01*
X46354Y-30929D01*
X46318Y-31015D01*
X46318Y-31109D01*
X46336Y-31153D01*
X46327Y-31163D01*
X46309Y-31206D01*
X46309Y-31253D01*
X46309Y-31588D01*
X46326Y-31631D01*
X46360Y-31665D01*
X46403Y-31683D01*
X46450Y-31683D01*
X46706Y-31683D01*
X46749Y-31665D01*
X46783Y-31631D01*
X46801Y-31588D01*
X46801Y-31541D01*
X46801Y-31206D01*
X46783Y-31163D01*
X46773Y-31153D01*
X46791Y-31110D01*
X46791Y-31077D01*
X46885Y-30983D01*
X46923Y-30926D01*
X46923Y-30926D01*
X46937Y-30858D01*
X46937Y-30610D01*
X46980Y-30610D01*
X47023Y-30592D01*
X47056Y-30559D01*
X47074Y-30515D01*
X47074Y-30468D01*
X47074Y-30782D01*
X47071Y-30783D01*
X47004Y-30850D01*
X46968Y-30937D01*
X46968Y-31031D01*
X47004Y-31117D01*
X47014Y-31128D01*
X47009Y-31130D01*
X46976Y-31163D01*
X46958Y-31206D01*
X46958Y-31253D01*
X46958Y-31588D01*
X46976Y-31631D01*
X47009Y-31665D01*
X47053Y-31683D01*
X47100Y-31683D01*
X47356Y-31683D01*
X47399Y-31665D01*
X47432Y-31631D01*
X47450Y-31588D01*
X47450Y-31541D01*
X47450Y-31817D01*
X47432Y-31773D01*
X47399Y-31740D01*
X47356Y-31722D01*
X47309Y-31722D01*
X47053Y-31722D01*
X47009Y-31740D01*
X46976Y-31773D01*
X46958Y-31816D01*
X46958Y-31863D01*
X46958Y-32198D01*
X46976Y-32242D01*
X47009Y-32275D01*
X47053Y-32293D01*
X47100Y-32293D01*
X47356Y-32293D01*
X47399Y-32275D01*
X47432Y-32242D01*
X47450Y-32198D01*
X47450Y-32185D01*
X47531Y-32185D01*
X47531Y-32185D01*
X47563Y-32198D01*
X47539Y-32255D01*
X47539Y-32349D01*
X47568Y-32421D01*
X47480Y-32421D01*
X47480Y-32421D01*
X47374Y-32442D01*
X47330Y-32472D01*
X47285Y-32501D01*
X47285Y-32501D01*
X47209Y-32578D01*
X46984Y-32578D01*
X46941Y-32596D01*
X46907Y-32629D01*
X46889Y-32672D01*
X46889Y-32719D01*
X46889Y-32995D01*
X46907Y-33039D01*
X46940Y-33072D01*
X46984Y-33090D01*
X47031Y-33090D01*
X47225Y-33090D01*
X47322Y-33109D01*
X47342Y-33109D01*
X47440Y-33090D01*
X47440Y-33090D01*
X47661Y-33090D01*
X47704Y-33072D01*
X47706Y-33070D01*
X47706Y-33169D01*
X46983Y-33169D01*
X46940Y-33187D01*
X46907Y-33220D01*
X46889Y-33263D01*
X46889Y-33310D01*
X46889Y-33586D01*
X46907Y-33630D01*
X46940Y-33663D01*
X46983Y-33681D01*
X47030Y-33681D01*
X47706Y-33681D01*
X47706Y-33779D01*
X47704Y-33778D01*
X47661Y-33760D01*
X47614Y-33760D01*
X47420Y-33760D01*
X47322Y-33740D01*
X47225Y-33760D01*
X46984Y-33760D01*
X46941Y-33778D01*
X46907Y-33811D01*
X46889Y-33854D01*
X46889Y-33901D01*
X46889Y-34174D01*
X46830Y-34174D01*
X46830Y-32226D01*
X46801Y-32155D01*
X46801Y-32151D01*
X46801Y-31817D01*
X46783Y-31773D01*
X46750Y-31740D01*
X46706Y-31722D01*
X46659Y-31722D01*
X46403Y-31722D01*
X46360Y-31740D01*
X46327Y-31773D01*
X46309Y-31816D01*
X46309Y-31863D01*
X46309Y-32198D01*
X46326Y-32242D01*
X46358Y-32273D01*
X46358Y-32320D01*
X46394Y-32407D01*
X46460Y-32473D01*
X46547Y-32509D01*
X46641Y-32509D01*
X46728Y-32473D01*
X46794Y-32407D01*
X46830Y-32320D01*
X46830Y-32226D01*
X46830Y-34174D01*
X46827Y-34174D01*
X46783Y-34192D01*
X46783Y-34192D01*
X45964Y-34192D01*
X45896Y-34206D01*
X45839Y-34244D01*
X45625Y-34459D01*
X45146Y-34459D01*
X45146Y-34419D01*
X45462Y-34419D01*
X45530Y-34405D01*
X45530Y-34405D01*
X45587Y-34367D01*
X45794Y-34160D01*
X45832Y-34103D01*
X45832Y-34103D01*
X45846Y-34035D01*
X45846Y-33641D01*
X46004Y-33641D01*
X46017Y-33654D01*
X46104Y-33690D01*
X46198Y-33690D01*
X46285Y-33655D01*
X46325Y-33614D01*
X46328Y-33622D01*
X46296Y-33653D01*
X46278Y-33697D01*
X46278Y-33744D01*
X46278Y-34098D01*
X46296Y-34141D01*
X46330Y-34174D01*
X46373Y-34192D01*
X46420Y-34192D01*
X46695Y-34192D01*
X46738Y-34174D01*
X46772Y-34141D01*
X46790Y-34098D01*
X46790Y-34051D01*
X46790Y-33697D01*
X46772Y-33653D01*
X46741Y-33623D01*
X46771Y-33551D01*
X46771Y-33457D01*
X46735Y-33370D01*
X46669Y-33303D01*
X46582Y-33267D01*
X46488Y-33267D01*
X46401Y-33303D01*
X46361Y-33343D01*
X46351Y-33321D01*
X46285Y-33254D01*
X46198Y-33218D01*
X46104Y-33218D01*
X46017Y-33254D01*
X45984Y-33287D01*
X45669Y-33287D01*
X45601Y-33300D01*
X45544Y-33339D01*
X45505Y-33396D01*
X45492Y-33464D01*
X45492Y-33484D01*
X45492Y-33962D01*
X45389Y-34065D01*
X45146Y-34065D01*
X45146Y-33963D01*
X45128Y-33920D01*
X45095Y-33887D01*
X45051Y-33869D01*
X45004Y-33869D01*
X44808Y-33869D01*
X44765Y-33887D01*
X44734Y-33918D01*
X44734Y-33647D01*
X44716Y-33604D01*
X44683Y-33571D01*
X44639Y-33553D01*
X44592Y-33553D01*
X43976Y-33553D01*
X44007Y-33522D01*
X44025Y-33478D01*
X44025Y-33431D01*
X44025Y-33357D01*
X44025Y-33357D01*
X44026Y-32397D01*
X44033Y-32391D01*
X44072Y-32391D01*
X44159Y-32355D01*
X44225Y-32289D01*
X44261Y-32203D01*
X44373Y-32203D01*
X44417Y-32185D01*
X44450Y-32152D01*
X44468Y-32109D01*
X44468Y-32062D01*
X44468Y-32057D01*
X44500Y-32088D01*
X44543Y-32106D01*
X44590Y-32106D01*
X44944Y-32106D01*
X44987Y-32088D01*
X45021Y-32055D01*
X45039Y-32012D01*
X45039Y-31965D01*
X45039Y-31775D01*
X45123Y-31775D01*
X45126Y-31776D01*
X45168Y-31776D01*
X45168Y-31798D01*
X45141Y-31809D01*
X45107Y-31842D01*
X45089Y-31886D01*
X45089Y-31933D01*
X45089Y-32287D01*
X45107Y-32330D01*
X45140Y-32363D01*
X45184Y-32381D01*
X45231Y-32381D01*
X45506Y-32381D01*
X45549Y-32363D01*
X45582Y-32330D01*
X45600Y-32288D01*
X45617Y-32330D01*
X45635Y-32347D01*
X45620Y-32383D01*
X45620Y-32477D01*
X45655Y-32564D01*
X45722Y-32631D01*
X45809Y-32667D01*
X45903Y-32667D01*
X45989Y-32631D01*
X46056Y-32565D01*
X46092Y-32478D01*
X46092Y-32384D01*
X46076Y-32346D01*
X46092Y-32330D01*
X46110Y-32287D01*
X46111Y-32240D01*
X46111Y-31886D01*
X46093Y-31842D01*
X46059Y-31809D01*
X46045Y-31803D01*
X46072Y-31776D01*
X46172Y-31776D01*
X46216Y-31758D01*
X46249Y-31725D01*
X46267Y-31682D01*
X46267Y-31635D01*
X46267Y-31515D01*
X46249Y-31471D01*
X46216Y-31438D01*
X46173Y-31420D01*
X46126Y-31420D01*
X46039Y-31420D01*
X46066Y-31393D01*
X46102Y-31307D01*
X46102Y-31276D01*
X46172Y-31276D01*
X46216Y-31258D01*
X46249Y-31225D01*
X46267Y-31182D01*
X46267Y-31135D01*
X46267Y-31015D01*
X46249Y-30971D01*
X46216Y-30938D01*
X46173Y-30920D01*
X46126Y-30920D01*
X45937Y-30920D01*
X45937Y-30610D01*
X45980Y-30610D01*
X46023Y-30592D01*
X46056Y-30559D01*
X46074Y-30515D01*
X46074Y-30468D01*
X46074Y-30075D01*
X46056Y-30031D01*
X46023Y-29998D01*
X45980Y-29980D01*
X45933Y-29980D01*
X45539Y-29980D01*
X45496Y-29998D01*
X45462Y-30031D01*
X45444Y-30074D01*
X45444Y-30121D01*
X45444Y-30515D01*
X45462Y-30558D01*
X45496Y-30592D01*
X45539Y-30610D01*
X45582Y-30610D01*
X45582Y-30799D01*
X45529Y-30777D01*
X45435Y-30777D01*
X45348Y-30813D01*
X45282Y-30879D01*
X45265Y-30920D01*
X45126Y-30920D01*
X45082Y-30938D01*
X45074Y-30946D01*
X45074Y-30468D01*
X45074Y-30075D01*
X45056Y-30031D01*
X45023Y-29998D01*
X44980Y-29980D01*
X44933Y-29980D01*
X44539Y-29980D01*
X44496Y-29998D01*
X44462Y-30031D01*
X44444Y-30074D01*
X44444Y-30121D01*
X44444Y-30515D01*
X44462Y-30558D01*
X44496Y-30592D01*
X44539Y-30610D01*
X44551Y-30610D01*
X44517Y-30690D01*
X44517Y-30784D01*
X44553Y-30871D01*
X44619Y-30938D01*
X44706Y-30974D01*
X44800Y-30974D01*
X44887Y-30938D01*
X44954Y-30872D01*
X44990Y-30785D01*
X44990Y-30691D01*
X44956Y-30610D01*
X44980Y-30610D01*
X45023Y-30592D01*
X45056Y-30559D01*
X45074Y-30515D01*
X45074Y-30468D01*
X45074Y-30946D01*
X45049Y-30971D01*
X45031Y-31014D01*
X45031Y-31061D01*
X45031Y-31181D01*
X45048Y-31223D01*
X45031Y-31264D01*
X45031Y-31311D01*
X45031Y-31421D01*
X44968Y-31421D01*
X44944Y-31362D01*
X44878Y-31295D01*
X44791Y-31259D01*
X44697Y-31259D01*
X44610Y-31295D01*
X44543Y-31362D01*
X44507Y-31448D01*
X44507Y-31542D01*
X44531Y-31600D01*
X44500Y-31613D01*
X44468Y-31645D01*
X44468Y-31394D01*
X44468Y-31001D01*
X44450Y-30957D01*
X44417Y-30924D01*
X44373Y-30906D01*
X44326Y-30906D01*
X43893Y-30906D01*
X43850Y-30924D01*
X43817Y-30957D01*
X43805Y-30984D01*
X43722Y-30984D01*
X43636Y-31020D01*
X43612Y-31043D01*
X43552Y-31043D01*
X43484Y-31057D01*
X43445Y-31083D01*
X43086Y-31083D01*
X43043Y-31101D01*
X43010Y-31134D01*
X42992Y-31178D01*
X42992Y-31225D01*
X42992Y-31618D01*
X43010Y-31661D01*
X43043Y-31694D01*
X43086Y-31712D01*
X43133Y-31712D01*
X43566Y-31712D01*
X43610Y-31694D01*
X43643Y-31661D01*
X43661Y-31618D01*
X43661Y-31571D01*
X43661Y-31431D01*
X43722Y-31457D01*
X43805Y-31457D01*
X43817Y-31484D01*
X43850Y-31517D01*
X43893Y-31535D01*
X43940Y-31535D01*
X44373Y-31535D01*
X44417Y-31517D01*
X44450Y-31484D01*
X44468Y-31441D01*
X44468Y-31394D01*
X44468Y-31645D01*
X44467Y-31646D01*
X44463Y-31656D01*
X44450Y-31625D01*
X44417Y-31592D01*
X44373Y-31574D01*
X44326Y-31574D01*
X43893Y-31574D01*
X43850Y-31592D01*
X43817Y-31625D01*
X43799Y-31669D01*
X43799Y-31716D01*
X43799Y-31890D01*
X43785Y-31876D01*
X43698Y-31840D01*
X43658Y-31840D01*
X43643Y-31802D01*
X43610Y-31769D01*
X43566Y-31751D01*
X43519Y-31751D01*
X43086Y-31751D01*
X43043Y-31769D01*
X43010Y-31802D01*
X42992Y-31846D01*
X42992Y-31893D01*
X42992Y-32286D01*
X43010Y-32329D01*
X43043Y-32362D01*
X43086Y-32380D01*
X43133Y-32380D01*
X43473Y-32380D01*
X43473Y-33357D01*
X43474Y-33357D01*
X43474Y-33478D01*
X43491Y-33522D01*
X43522Y-33553D01*
X43435Y-33553D01*
X43435Y-33357D01*
X43435Y-33357D01*
X43435Y-33235D01*
X43417Y-33192D01*
X43384Y-33159D01*
X43340Y-33141D01*
X43293Y-33141D01*
X43175Y-33141D01*
X43132Y-33159D01*
X43099Y-33192D01*
X43081Y-33235D01*
X43081Y-33282D01*
X43081Y-33357D01*
X43080Y-33357D01*
X43080Y-33553D01*
X42845Y-33553D01*
X42845Y-33357D01*
X42845Y-33357D01*
X42845Y-33235D01*
X42827Y-33192D01*
X42794Y-33159D01*
X42750Y-33141D01*
X42703Y-33141D01*
X42585Y-33141D01*
X42569Y-33147D01*
X42553Y-33141D01*
X42506Y-33141D01*
X42388Y-33141D01*
X42372Y-33147D01*
X42373Y-32479D01*
X42385Y-32479D01*
X42428Y-32461D01*
X42462Y-32427D01*
X42480Y-32384D01*
X42480Y-32337D01*
X42480Y-32062D01*
X42462Y-32019D01*
X42429Y-31985D01*
X42387Y-31968D01*
X42428Y-31951D01*
X42430Y-31949D01*
X42431Y-31949D01*
X42433Y-31951D01*
X42476Y-31969D01*
X42523Y-31969D01*
X42877Y-31969D01*
X42920Y-31951D01*
X42954Y-31917D01*
X42972Y-31874D01*
X42972Y-31827D01*
X42972Y-31552D01*
X42954Y-31509D01*
X42921Y-31475D01*
X42877Y-31457D01*
X42830Y-31457D01*
X42476Y-31457D01*
X42433Y-31475D01*
X42431Y-31477D01*
X42430Y-31477D01*
X42429Y-31475D01*
X42385Y-31457D01*
X42338Y-31457D01*
X41984Y-31457D01*
X41941Y-31475D01*
X41907Y-31509D01*
X41889Y-31552D01*
X41889Y-31599D01*
X41889Y-31874D01*
X41907Y-31917D01*
X41941Y-31951D01*
X41983Y-31968D01*
X41941Y-31985D01*
X41915Y-32011D01*
X41858Y-31988D01*
X41764Y-31988D01*
X41677Y-32024D01*
X41610Y-32090D01*
X41574Y-32177D01*
X41574Y-32271D01*
X41610Y-32358D01*
X41677Y-32424D01*
X41763Y-32460D01*
X41857Y-32460D01*
X41916Y-32436D01*
X41941Y-32461D01*
X41984Y-32479D01*
X42019Y-32479D01*
X42017Y-33208D01*
X42017Y-33208D01*
X42017Y-33228D01*
X42031Y-33296D01*
X42069Y-33353D01*
X42198Y-33482D01*
X42255Y-33520D01*
X42255Y-33520D01*
X42323Y-33534D01*
X42324Y-33534D01*
X42345Y-33555D01*
X42388Y-33573D01*
X42421Y-33573D01*
X42390Y-33604D01*
X42372Y-33647D01*
X42372Y-33694D01*
X42372Y-34311D01*
X42341Y-34280D01*
X42297Y-34262D01*
X42250Y-34262D01*
X42054Y-34262D01*
X42011Y-34280D01*
X41978Y-34313D01*
X41960Y-34356D01*
X41960Y-34403D01*
X41960Y-34521D01*
X41966Y-34537D01*
X41960Y-34553D01*
X41960Y-34600D01*
X41960Y-34718D01*
X41977Y-34762D01*
X42011Y-34795D01*
X42054Y-34813D01*
X42101Y-34813D01*
X42297Y-34813D01*
X42340Y-34795D01*
X42372Y-34764D01*
X42372Y-34852D01*
X42176Y-34852D01*
X42175Y-34852D01*
X42054Y-34852D01*
X42011Y-34870D01*
X41978Y-34903D01*
X41960Y-34946D01*
X41960Y-34993D01*
X41960Y-35111D01*
X41977Y-35155D01*
X42011Y-35188D01*
X42054Y-35206D01*
X42101Y-35206D01*
X42175Y-35206D01*
X42176Y-35206D01*
X42372Y-35206D01*
X42372Y-35491D01*
X42341Y-35460D01*
X42297Y-35442D01*
X42250Y-35442D01*
X42054Y-35442D01*
X42011Y-35460D01*
X41978Y-35493D01*
X41960Y-35536D01*
X41960Y-35583D01*
X41960Y-35701D01*
X41966Y-35717D01*
X41960Y-35733D01*
X41960Y-35780D01*
X41960Y-35898D01*
X41977Y-35942D01*
X42011Y-35975D01*
X42054Y-35993D01*
X42101Y-35993D01*
X42294Y-35993D01*
X42294Y-36036D01*
X42294Y-36111D01*
X42293Y-36111D01*
X42293Y-36831D01*
X42260Y-36831D01*
X42216Y-36849D01*
X42197Y-36868D01*
X42153Y-36850D01*
X42059Y-36850D01*
X41972Y-36886D01*
X41906Y-36952D01*
X41870Y-37039D01*
X41870Y-37133D01*
X41905Y-37220D01*
X41972Y-37286D01*
X42059Y-37322D01*
X42153Y-37322D01*
X42196Y-37304D01*
X42216Y-37325D01*
X42258Y-37342D01*
X42216Y-37359D01*
X42183Y-37393D01*
X42165Y-37436D01*
X42165Y-37483D01*
X42165Y-37758D01*
X42183Y-37801D01*
X42216Y-37835D01*
X42260Y-37853D01*
X42307Y-37853D01*
X42661Y-37853D01*
X42704Y-37835D01*
X42705Y-37833D01*
X42707Y-37833D01*
X42708Y-37835D01*
X42752Y-37853D01*
X42799Y-37853D01*
X43153Y-37853D01*
X43196Y-37835D01*
X43229Y-37802D01*
X43247Y-37758D01*
X43247Y-37711D01*
X43247Y-37436D01*
X43229Y-37393D01*
X43196Y-37359D01*
X43153Y-37341D01*
X43106Y-37341D01*
X42752Y-37341D01*
X42708Y-37359D01*
X42707Y-37361D01*
X42705Y-37361D01*
X42704Y-37359D01*
X42662Y-37342D01*
X42704Y-37325D01*
X42737Y-37292D01*
X42755Y-37248D01*
X42755Y-37201D01*
X42755Y-36926D01*
X42737Y-36883D01*
X42704Y-36849D01*
X42661Y-36831D01*
X42648Y-36831D01*
X42648Y-36327D01*
X42750Y-36327D01*
X42793Y-36309D01*
X42827Y-36276D01*
X42845Y-36232D01*
X42845Y-36185D01*
X42845Y-36111D01*
X42845Y-36111D01*
X42845Y-35915D01*
X43277Y-35915D01*
X43277Y-36111D01*
X43278Y-36111D01*
X43278Y-36232D01*
X43295Y-36276D01*
X43329Y-36309D01*
X43372Y-36327D01*
X43419Y-36327D01*
X43537Y-36327D01*
X43580Y-36309D01*
X43614Y-36276D01*
X43632Y-36232D01*
X43632Y-36185D01*
X43632Y-36111D01*
X43632Y-36111D01*
X43632Y-35915D01*
X43720Y-35915D01*
X43689Y-35946D01*
X43671Y-35989D01*
X43671Y-36036D01*
X43671Y-36232D01*
X43688Y-36276D01*
X43722Y-36309D01*
X43765Y-36327D01*
X43812Y-36327D01*
X43867Y-36327D01*
X43867Y-36833D01*
X43832Y-36848D01*
X43798Y-36881D01*
X43780Y-36925D01*
X43780Y-36972D01*
X43780Y-37326D01*
X43798Y-37369D01*
X43800Y-37372D01*
X43798Y-37374D01*
X43780Y-37417D01*
X43780Y-37464D01*
X43780Y-37818D01*
X43798Y-37861D01*
X43831Y-37895D01*
X43875Y-37913D01*
X43922Y-37913D01*
X44197Y-37913D01*
X44240Y-37895D01*
X44273Y-37862D01*
X44291Y-37820D01*
X44308Y-37861D01*
X44341Y-37895D01*
X44385Y-37913D01*
X44432Y-37913D01*
X44707Y-37913D01*
X44750Y-37895D01*
X44783Y-37862D01*
X44799Y-37823D01*
X44874Y-37854D01*
X44968Y-37854D01*
X45054Y-37818D01*
X45121Y-37752D01*
X45157Y-37665D01*
X45157Y-37571D01*
X45121Y-37484D01*
X45058Y-37421D01*
X45122Y-37421D01*
X45165Y-37403D01*
X45199Y-37369D01*
X45217Y-37326D01*
X45217Y-37279D01*
X45217Y-36925D01*
X45199Y-36882D01*
X45166Y-36848D01*
X45122Y-36830D01*
X45075Y-36830D01*
X44800Y-36830D01*
X44757Y-36848D01*
X44753Y-36852D01*
X44750Y-36848D01*
X44707Y-36830D01*
X44660Y-36830D01*
X44385Y-36830D01*
X44342Y-36848D01*
X44308Y-36881D01*
X44291Y-36924D01*
X44274Y-36882D01*
X44240Y-36848D01*
X44222Y-36841D01*
X44222Y-36111D01*
X44222Y-36111D01*
X44222Y-35989D01*
X44204Y-35946D01*
X44173Y-35915D01*
X44639Y-35915D01*
X44682Y-35897D01*
X44714Y-35866D01*
X44714Y-35898D01*
X44731Y-35942D01*
X44765Y-35975D01*
X44808Y-35993D01*
X44855Y-35993D01*
X44929Y-35993D01*
X44930Y-35993D01*
X45836Y-35993D01*
X45850Y-36007D01*
X45937Y-36043D01*
X46031Y-36043D01*
X46117Y-36007D01*
X46184Y-35941D01*
X46220Y-35854D01*
X46220Y-35760D01*
X46184Y-35673D01*
X46141Y-35629D01*
X46164Y-35606D01*
X46200Y-35519D01*
X46200Y-35425D01*
X46164Y-35338D01*
X46098Y-35272D01*
X46011Y-35236D01*
X45917Y-35236D01*
X45830Y-35272D01*
X45764Y-35338D01*
X45728Y-35425D01*
X45728Y-35435D01*
X44928Y-35442D01*
X44928Y-35442D01*
X44808Y-35442D01*
X44765Y-35460D01*
X44734Y-35491D01*
X44734Y-35206D01*
X44930Y-35206D01*
X44930Y-35206D01*
X45051Y-35206D01*
X45094Y-35188D01*
X45128Y-35155D01*
X45146Y-35111D01*
X45146Y-35064D01*
X45146Y-34946D01*
X45128Y-34903D01*
X45095Y-34870D01*
X45051Y-34852D01*
X45004Y-34852D01*
X44930Y-34852D01*
X44930Y-34852D01*
X44734Y-34852D01*
X44734Y-34764D01*
X44765Y-34795D01*
X44808Y-34813D01*
X44855Y-34813D01*
X44929Y-34813D01*
X44930Y-34813D01*
X45698Y-34813D01*
X45766Y-34799D01*
X45766Y-34799D01*
X45823Y-34761D01*
X46037Y-34547D01*
X46181Y-34547D01*
X46177Y-34551D01*
X46141Y-34637D01*
X46141Y-34731D01*
X46177Y-34818D01*
X46243Y-34885D01*
X46298Y-34907D01*
X46298Y-35180D01*
X46316Y-35224D01*
X46349Y-35257D01*
X46393Y-35275D01*
X46440Y-35275D01*
X46715Y-35275D01*
X46758Y-35257D01*
X46791Y-35224D01*
X46807Y-35187D01*
X46826Y-35195D01*
X46873Y-35195D01*
X47227Y-35195D01*
X47271Y-35177D01*
X47304Y-35144D01*
X47322Y-35101D01*
X47322Y-35054D01*
X47322Y-34877D01*
X47364Y-34919D01*
X47453Y-34979D01*
X47453Y-34979D01*
X47559Y-35000D01*
X47570Y-35000D01*
X47591Y-35020D01*
X47634Y-35038D01*
X47681Y-35039D01*
X48110Y-35039D01*
X48110Y-39251D01*
X48110Y-39251D01*
G37*
G54D39*
X48110Y-39251D02*
X41063Y-39251D01*
X41063Y-35252D01*
X41063Y-34898D01*
X41045Y-34854D01*
X41012Y-34821D01*
X40985Y-34810D01*
X40985Y-34126D01*
X41012Y-34115D01*
X41045Y-34082D01*
X41063Y-34039D01*
X41063Y-33992D01*
X41063Y-33638D01*
X41045Y-33594D01*
X41012Y-33561D01*
X40969Y-33543D01*
X40922Y-33543D01*
X40649Y-33543D01*
X40649Y-30474D01*
X40613Y-30388D01*
X40547Y-30321D01*
X40460Y-30285D01*
X40366Y-30285D01*
X40279Y-30321D01*
X40213Y-30387D01*
X40177Y-30474D01*
X40177Y-30568D01*
X40213Y-30655D01*
X40279Y-30721D01*
X40366Y-30757D01*
X40460Y-30757D01*
X40547Y-30722D01*
X40613Y-30655D01*
X40649Y-30568D01*
X40649Y-30474D01*
X40649Y-33543D01*
X40647Y-33543D01*
X40603Y-33561D01*
X40570Y-33594D01*
X40552Y-33637D01*
X40552Y-33661D01*
X40423Y-33661D01*
X40354Y-33591D01*
X40378Y-33532D01*
X40378Y-33366D01*
X40315Y-33212D01*
X40197Y-33094D01*
X40044Y-33030D01*
X39877Y-33030D01*
X39724Y-33094D01*
X39606Y-33211D01*
X39542Y-33365D01*
X39542Y-33531D01*
X39605Y-33685D01*
X39723Y-33803D01*
X39877Y-33866D01*
X40043Y-33867D01*
X40103Y-33842D01*
X40225Y-33963D01*
X40282Y-34002D01*
X40350Y-34015D01*
X40552Y-34015D01*
X40552Y-34038D01*
X40570Y-34082D01*
X40603Y-34115D01*
X40630Y-34126D01*
X40630Y-34810D01*
X40603Y-34821D01*
X40570Y-34854D01*
X40552Y-34897D01*
X40552Y-34944D01*
X40552Y-35298D01*
X40570Y-35342D01*
X40603Y-35375D01*
X40646Y-35393D01*
X40693Y-35393D01*
X40968Y-35393D01*
X41012Y-35375D01*
X41045Y-35342D01*
X41063Y-35299D01*
X41063Y-35252D01*
X41063Y-39251D01*
X40378Y-39251D01*
X40378Y-34366D01*
X40315Y-34212D01*
X40197Y-34094D01*
X40044Y-34030D01*
X39877Y-34030D01*
X39724Y-34094D01*
X39606Y-34211D01*
X39542Y-34365D01*
X39542Y-34531D01*
X39605Y-34685D01*
X39723Y-34803D01*
X39877Y-34866D01*
X40043Y-34867D01*
X40197Y-34803D01*
X40314Y-34685D01*
X40378Y-34532D01*
X40378Y-34366D01*
X40378Y-39251D01*
X40378Y-39251D01*
X40378Y-35725D01*
X40378Y-35125D01*
X40360Y-35082D01*
X40327Y-35048D01*
X40284Y-35030D01*
X40237Y-35030D01*
X39637Y-35030D01*
X39593Y-35048D01*
X39560Y-35081D01*
X39542Y-35125D01*
X39542Y-35172D01*
X39542Y-35772D01*
X39560Y-35815D01*
X39593Y-35848D01*
X39637Y-35866D01*
X39684Y-35866D01*
X40284Y-35866D01*
X40327Y-35849D01*
X40360Y-35815D01*
X40378Y-35772D01*
X40378Y-35725D01*
X40378Y-39251D01*
X40157Y-39251D01*
X40157Y-38644D01*
X40121Y-38557D01*
X40055Y-38490D01*
X39968Y-38454D01*
X39874Y-38454D01*
X39787Y-38490D01*
X39721Y-38556D01*
X39685Y-38643D01*
X39684Y-38737D01*
X39720Y-38824D01*
X39787Y-38891D01*
X39874Y-38927D01*
X39968Y-38927D01*
X40054Y-38891D01*
X40121Y-38824D01*
X40157Y-38738D01*
X40157Y-38644D01*
X40157Y-39251D01*
X39488Y-39251D01*
X39488Y-29645D01*
X48110Y-29645D01*
X48110Y-31260D01*
X48074Y-31260D01*
X48074Y-30468D01*
X48074Y-30075D01*
X48056Y-30031D01*
X48023Y-29998D01*
X47980Y-29980D01*
X47933Y-29980D01*
X47539Y-29980D01*
X47496Y-29998D01*
X47462Y-30031D01*
X47444Y-30074D01*
X47444Y-30121D01*
X47444Y-30515D01*
X47462Y-30558D01*
X47496Y-30592D01*
X47539Y-30610D01*
X47542Y-30610D01*
X47529Y-30641D01*
X47529Y-30735D01*
X47565Y-30822D01*
X47631Y-30889D01*
X47718Y-30925D01*
X47812Y-30925D01*
X47899Y-30889D01*
X47965Y-30822D01*
X48001Y-30736D01*
X48002Y-30642D01*
X47987Y-30607D01*
X48023Y-30592D01*
X48056Y-30559D01*
X48074Y-30515D01*
X48074Y-30468D01*
X48074Y-31260D01*
X48063Y-31260D01*
X48052Y-31233D01*
X48019Y-31200D01*
X47976Y-31182D01*
X47929Y-31182D01*
X47575Y-31182D01*
X47531Y-31200D01*
X47498Y-31233D01*
X47480Y-31276D01*
X47480Y-31323D01*
X47480Y-31598D01*
X47498Y-31642D01*
X47531Y-31675D01*
X47573Y-31692D01*
X47531Y-31710D01*
X47498Y-31743D01*
X47480Y-31786D01*
X47480Y-31830D01*
X47450Y-31830D01*
X47450Y-31817D01*
X47450Y-31541D01*
X47450Y-31206D01*
X47432Y-31163D01*
X47399Y-31130D01*
X47394Y-31128D01*
X47404Y-31118D01*
X47440Y-31031D01*
X47440Y-30937D01*
X47405Y-30850D01*
X47338Y-30784D01*
X47251Y-30748D01*
X47157Y-30747D01*
X47074Y-30782D01*
X47074Y-30468D01*
X47074Y-30075D01*
X47056Y-30031D01*
X47023Y-29998D01*
X46980Y-29980D01*
X46933Y-29980D01*
X46539Y-29980D01*
X46496Y-29998D01*
X46462Y-30031D01*
X46444Y-30074D01*
X46444Y-30121D01*
X46444Y-30515D01*
X46462Y-30558D01*
X46496Y-30592D01*
X46539Y-30610D01*
X46582Y-30610D01*
X46582Y-30784D01*
X46540Y-30826D01*
X46508Y-30826D01*
X46421Y-30862D01*
X46354Y-30929D01*
X46318Y-31015D01*
X46318Y-31109D01*
X46336Y-31153D01*
X46327Y-31163D01*
X46309Y-31206D01*
X46309Y-31253D01*
X46309Y-31588D01*
X46326Y-31631D01*
X46360Y-31665D01*
X46403Y-31683D01*
X46450Y-31683D01*
X46706Y-31683D01*
X46749Y-31665D01*
X46783Y-31631D01*
X46801Y-31588D01*
X46801Y-31541D01*
X46801Y-31206D01*
X46783Y-31163D01*
X46773Y-31153D01*
X46791Y-31110D01*
X46791Y-31077D01*
X46885Y-30983D01*
X46923Y-30926D01*
X46923Y-30926D01*
X46937Y-30858D01*
X46937Y-30610D01*
X46980Y-30610D01*
X47023Y-30592D01*
X47056Y-30559D01*
X47074Y-30515D01*
X47074Y-30468D01*
X47074Y-30782D01*
X47071Y-30783D01*
X47004Y-30850D01*
X46968Y-30937D01*
X46968Y-31031D01*
X47004Y-31117D01*
X47014Y-31128D01*
X47009Y-31130D01*
X46976Y-31163D01*
X46958Y-31206D01*
X46958Y-31253D01*
X46958Y-31588D01*
X46976Y-31631D01*
X47009Y-31665D01*
X47053Y-31683D01*
X47100Y-31683D01*
X47356Y-31683D01*
X47399Y-31665D01*
X47432Y-31631D01*
X47450Y-31588D01*
X47450Y-31541D01*
X47450Y-31817D01*
X47432Y-31773D01*
X47399Y-31740D01*
X47356Y-31722D01*
X47309Y-31722D01*
X47053Y-31722D01*
X47009Y-31740D01*
X46976Y-31773D01*
X46958Y-31816D01*
X46958Y-31863D01*
X46958Y-32198D01*
X46976Y-32242D01*
X47009Y-32275D01*
X47053Y-32293D01*
X47100Y-32293D01*
X47356Y-32293D01*
X47399Y-32275D01*
X47432Y-32242D01*
X47450Y-32198D01*
X47450Y-32185D01*
X47531Y-32185D01*
X47531Y-32185D01*
X47563Y-32198D01*
X47539Y-32255D01*
X47539Y-32349D01*
X47568Y-32421D01*
X47480Y-32421D01*
X47480Y-32421D01*
X47374Y-32442D01*
X47330Y-32472D01*
X47285Y-32501D01*
X47285Y-32501D01*
X47209Y-32578D01*
X46984Y-32578D01*
X46941Y-32596D01*
X46907Y-32629D01*
X46889Y-32672D01*
X46889Y-32719D01*
X46889Y-32995D01*
X46907Y-33039D01*
X46940Y-33072D01*
X46984Y-33090D01*
X47031Y-33090D01*
X47225Y-33090D01*
X47322Y-33109D01*
X47342Y-33109D01*
X47440Y-33090D01*
X47440Y-33090D01*
X47661Y-33090D01*
X47704Y-33072D01*
X47706Y-33070D01*
X47706Y-33169D01*
X46983Y-33169D01*
X46940Y-33187D01*
X46907Y-33220D01*
X46889Y-33263D01*
X46889Y-33310D01*
X46889Y-33586D01*
X46907Y-33630D01*
X46940Y-33663D01*
X46983Y-33681D01*
X47030Y-33681D01*
X47706Y-33681D01*
X47706Y-33779D01*
X47704Y-33778D01*
X47661Y-33760D01*
X47614Y-33760D01*
X47420Y-33760D01*
X47322Y-33740D01*
X47225Y-33760D01*
X46984Y-33760D01*
X46941Y-33778D01*
X46907Y-33811D01*
X46889Y-33854D01*
X46889Y-33901D01*
X46889Y-34174D01*
X46830Y-34174D01*
X46830Y-32226D01*
X46801Y-32155D01*
X46801Y-32151D01*
X46801Y-31817D01*
X46783Y-31773D01*
X46750Y-31740D01*
X46706Y-31722D01*
X46659Y-31722D01*
X46403Y-31722D01*
X46360Y-31740D01*
X46327Y-31773D01*
X46309Y-31816D01*
X46309Y-31863D01*
X46309Y-32198D01*
X46326Y-32242D01*
X46358Y-32273D01*
X46358Y-32320D01*
X46394Y-32407D01*
X46460Y-32473D01*
X46547Y-32509D01*
X46641Y-32509D01*
X46728Y-32473D01*
X46794Y-32407D01*
X46830Y-32320D01*
X46830Y-32226D01*
X46830Y-34174D01*
X46827Y-34174D01*
X46783Y-34192D01*
X46783Y-34192D01*
X45964Y-34192D01*
X45896Y-34206D01*
X45839Y-34244D01*
X45625Y-34459D01*
X45146Y-34459D01*
X45146Y-34419D01*
X45462Y-34419D01*
X45530Y-34405D01*
X45530Y-34405D01*
X45587Y-34367D01*
X45794Y-34160D01*
X45832Y-34103D01*
X45832Y-34103D01*
X45846Y-34035D01*
X45846Y-33641D01*
X46004Y-33641D01*
X46017Y-33654D01*
X46104Y-33690D01*
X46198Y-33690D01*
X46285Y-33655D01*
X46325Y-33614D01*
X46328Y-33622D01*
X46296Y-33653D01*
X46278Y-33697D01*
X46278Y-33744D01*
X46278Y-34098D01*
X46296Y-34141D01*
X46330Y-34174D01*
X46373Y-34192D01*
X46420Y-34192D01*
X46695Y-34192D01*
X46738Y-34174D01*
X46772Y-34141D01*
X46790Y-34098D01*
X46790Y-34051D01*
X46790Y-33697D01*
X46772Y-33653D01*
X46741Y-33623D01*
X46771Y-33551D01*
X46771Y-33457D01*
X46735Y-33370D01*
X46669Y-33303D01*
X46582Y-33267D01*
X46488Y-33267D01*
X46401Y-33303D01*
X46361Y-33343D01*
X46351Y-33321D01*
X46285Y-33254D01*
X46198Y-33218D01*
X46104Y-33218D01*
X46017Y-33254D01*
X45984Y-33287D01*
X45669Y-33287D01*
X45601Y-33300D01*
X45544Y-33339D01*
X45505Y-33396D01*
X45492Y-33464D01*
X45492Y-33484D01*
X45492Y-33962D01*
X45389Y-34065D01*
X45146Y-34065D01*
X45146Y-33963D01*
X45128Y-33920D01*
X45095Y-33887D01*
X45051Y-33869D01*
X45004Y-33869D01*
X44808Y-33869D01*
X44765Y-33887D01*
X44734Y-33918D01*
X44734Y-33647D01*
X44716Y-33604D01*
X44683Y-33571D01*
X44639Y-33553D01*
X44592Y-33553D01*
X43976Y-33553D01*
X44007Y-33522D01*
X44025Y-33478D01*
X44025Y-33431D01*
X44025Y-33357D01*
X44025Y-33357D01*
X44026Y-32397D01*
X44033Y-32391D01*
X44072Y-32391D01*
X44159Y-32355D01*
X44225Y-32289D01*
X44261Y-32203D01*
X44373Y-32203D01*
X44417Y-32185D01*
X44450Y-32152D01*
X44468Y-32109D01*
X44468Y-32062D01*
X44468Y-32057D01*
X44500Y-32088D01*
X44543Y-32106D01*
X44590Y-32106D01*
X44944Y-32106D01*
X44987Y-32088D01*
X45021Y-32055D01*
X45039Y-32012D01*
X45039Y-31965D01*
X45039Y-31775D01*
X45123Y-31775D01*
X45126Y-31776D01*
X45168Y-31776D01*
X45168Y-31798D01*
X45141Y-31809D01*
X45107Y-31842D01*
X45089Y-31886D01*
X45089Y-31933D01*
X45089Y-32287D01*
X45107Y-32330D01*
X45140Y-32363D01*
X45184Y-32381D01*
X45231Y-32381D01*
X45506Y-32381D01*
X45549Y-32363D01*
X45582Y-32330D01*
X45600Y-32288D01*
X45617Y-32330D01*
X45635Y-32347D01*
X45620Y-32383D01*
X45620Y-32477D01*
X45655Y-32564D01*
X45722Y-32631D01*
X45809Y-32667D01*
X45903Y-32667D01*
X45989Y-32631D01*
X46056Y-32565D01*
X46092Y-32478D01*
X46092Y-32384D01*
X46076Y-32346D01*
X46092Y-32330D01*
X46110Y-32287D01*
X46111Y-32240D01*
X46111Y-31886D01*
X46093Y-31842D01*
X46059Y-31809D01*
X46045Y-31803D01*
X46072Y-31776D01*
X46172Y-31776D01*
X46216Y-31758D01*
X46249Y-31725D01*
X46267Y-31682D01*
X46267Y-31635D01*
X46267Y-31515D01*
X46249Y-31471D01*
X46216Y-31438D01*
X46173Y-31420D01*
X46126Y-31420D01*
X46039Y-31420D01*
X46066Y-31393D01*
X46102Y-31307D01*
X46102Y-31276D01*
X46172Y-31276D01*
X46216Y-31258D01*
X46249Y-31225D01*
X46267Y-31182D01*
X46267Y-31135D01*
X46267Y-31015D01*
X46249Y-30971D01*
X46216Y-30938D01*
X46173Y-30920D01*
X46126Y-30920D01*
X45937Y-30920D01*
X45937Y-30610D01*
X45980Y-30610D01*
X46023Y-30592D01*
X46056Y-30559D01*
X46074Y-30515D01*
X46074Y-30468D01*
X46074Y-30075D01*
X46056Y-30031D01*
X46023Y-29998D01*
X45980Y-29980D01*
X45933Y-29980D01*
X45539Y-29980D01*
X45496Y-29998D01*
X45462Y-30031D01*
X45444Y-30074D01*
X45444Y-30121D01*
X45444Y-30515D01*
X45462Y-30558D01*
X45496Y-30592D01*
X45539Y-30610D01*
X45582Y-30610D01*
X45582Y-30799D01*
X45529Y-30777D01*
X45435Y-30777D01*
X45348Y-30813D01*
X45282Y-30879D01*
X45265Y-30920D01*
X45126Y-30920D01*
X45082Y-30938D01*
X45074Y-30946D01*
X45074Y-30468D01*
X45074Y-30075D01*
X45056Y-30031D01*
X45023Y-29998D01*
X44980Y-29980D01*
X44933Y-29980D01*
X44539Y-29980D01*
X44496Y-29998D01*
X44462Y-30031D01*
X44444Y-30074D01*
X44444Y-30121D01*
X44444Y-30515D01*
X44462Y-30558D01*
X44496Y-30592D01*
X44539Y-30610D01*
X44551Y-30610D01*
X44517Y-30690D01*
X44517Y-30784D01*
X44553Y-30871D01*
X44619Y-30938D01*
X44706Y-30974D01*
X44800Y-30974D01*
X44887Y-30938D01*
X44954Y-30872D01*
X44990Y-30785D01*
X44990Y-30691D01*
X44956Y-30610D01*
X44980Y-30610D01*
X45023Y-30592D01*
X45056Y-30559D01*
X45074Y-30515D01*
X45074Y-30468D01*
X45074Y-30946D01*
X45049Y-30971D01*
X45031Y-31014D01*
X45031Y-31061D01*
X45031Y-31181D01*
X45048Y-31223D01*
X45031Y-31264D01*
X45031Y-31311D01*
X45031Y-31421D01*
X44968Y-31421D01*
X44944Y-31362D01*
X44878Y-31295D01*
X44791Y-31259D01*
X44697Y-31259D01*
X44610Y-31295D01*
X44543Y-31362D01*
X44507Y-31448D01*
X44507Y-31542D01*
X44531Y-31600D01*
X44500Y-31613D01*
X44468Y-31645D01*
X44468Y-31394D01*
X44468Y-31001D01*
X44450Y-30957D01*
X44417Y-30924D01*
X44373Y-30906D01*
X44326Y-30906D01*
X43893Y-30906D01*
X43850Y-30924D01*
X43817Y-30957D01*
X43805Y-30984D01*
X43722Y-30984D01*
X43636Y-31020D01*
X43612Y-31043D01*
X43552Y-31043D01*
X43484Y-31057D01*
X43445Y-31083D01*
X43086Y-31083D01*
X43043Y-31101D01*
X43010Y-31134D01*
X42992Y-31178D01*
X42992Y-31225D01*
X42992Y-31618D01*
X43010Y-31661D01*
X43043Y-31694D01*
X43086Y-31712D01*
X43133Y-31712D01*
X43566Y-31712D01*
X43610Y-31694D01*
X43643Y-31661D01*
X43661Y-31618D01*
X43661Y-31571D01*
X43661Y-31431D01*
X43722Y-31457D01*
X43805Y-31457D01*
X43817Y-31484D01*
X43850Y-31517D01*
X43893Y-31535D01*
X43940Y-31535D01*
X44373Y-31535D01*
X44417Y-31517D01*
X44450Y-31484D01*
X44468Y-31441D01*
X44468Y-31394D01*
X44468Y-31645D01*
X44467Y-31646D01*
X44463Y-31656D01*
X44450Y-31625D01*
X44417Y-31592D01*
X44373Y-31574D01*
X44326Y-31574D01*
X43893Y-31574D01*
X43850Y-31592D01*
X43817Y-31625D01*
X43799Y-31669D01*
X43799Y-31716D01*
X43799Y-31890D01*
X43785Y-31876D01*
X43698Y-31840D01*
X43658Y-31840D01*
X43643Y-31802D01*
X43610Y-31769D01*
X43566Y-31751D01*
X43519Y-31751D01*
X43086Y-31751D01*
X43043Y-31769D01*
X43010Y-31802D01*
X42992Y-31846D01*
X42992Y-31893D01*
X42992Y-32286D01*
X43010Y-32329D01*
X43043Y-32362D01*
X43086Y-32380D01*
X43133Y-32380D01*
X43473Y-32380D01*
X43473Y-33357D01*
X43474Y-33357D01*
X43474Y-33478D01*
X43491Y-33522D01*
X43522Y-33553D01*
X43435Y-33553D01*
X43435Y-33357D01*
X43435Y-33357D01*
X43435Y-33235D01*
X43417Y-33192D01*
X43384Y-33159D01*
X43340Y-33141D01*
X43293Y-33141D01*
X43175Y-33141D01*
X43132Y-33159D01*
X43099Y-33192D01*
X43081Y-33235D01*
X43081Y-33282D01*
X43081Y-33357D01*
X43080Y-33357D01*
X43080Y-33553D01*
X42845Y-33553D01*
X42845Y-33357D01*
X42845Y-33357D01*
X42845Y-33235D01*
X42827Y-33192D01*
X42794Y-33159D01*
X42750Y-33141D01*
X42703Y-33141D01*
X42585Y-33141D01*
X42569Y-33147D01*
X42553Y-33141D01*
X42506Y-33141D01*
X42388Y-33141D01*
X42372Y-33147D01*
X42373Y-32479D01*
X42385Y-32479D01*
X42428Y-32461D01*
X42462Y-32427D01*
X42480Y-32384D01*
X42480Y-32337D01*
X42480Y-32062D01*
X42462Y-32019D01*
X42429Y-31985D01*
X42387Y-31968D01*
X42428Y-31951D01*
X42430Y-31949D01*
X42431Y-31949D01*
X42433Y-31951D01*
X42476Y-31969D01*
X42523Y-31969D01*
X42877Y-31969D01*
X42920Y-31951D01*
X42954Y-31917D01*
X42972Y-31874D01*
X42972Y-31827D01*
X42972Y-31552D01*
X42954Y-31509D01*
X42921Y-31475D01*
X42877Y-31457D01*
X42830Y-31457D01*
X42476Y-31457D01*
X42433Y-31475D01*
X42431Y-31477D01*
X42430Y-31477D01*
X42429Y-31475D01*
X42385Y-31457D01*
X42338Y-31457D01*
X41984Y-31457D01*
X41941Y-31475D01*
X41907Y-31509D01*
X41889Y-31552D01*
X41889Y-31599D01*
X41889Y-31874D01*
X41907Y-31917D01*
X41941Y-31951D01*
X41983Y-31968D01*
X41941Y-31985D01*
X41915Y-32011D01*
X41858Y-31988D01*
X41764Y-31988D01*
X41677Y-32024D01*
X41610Y-32090D01*
X41574Y-32177D01*
X41574Y-32271D01*
X41610Y-32358D01*
X41677Y-32424D01*
X41763Y-32460D01*
X41857Y-32460D01*
X41916Y-32436D01*
X41941Y-32461D01*
X41984Y-32479D01*
X42019Y-32479D01*
X42017Y-33208D01*
X42017Y-33208D01*
X42017Y-33228D01*
X42031Y-33296D01*
X42069Y-33353D01*
X42198Y-33482D01*
X42255Y-33520D01*
X42255Y-33520D01*
X42323Y-33534D01*
X42324Y-33534D01*
X42345Y-33555D01*
X42388Y-33573D01*
X42421Y-33573D01*
X42390Y-33604D01*
X42372Y-33647D01*
X42372Y-33694D01*
X42372Y-34311D01*
X42341Y-34280D01*
X42297Y-34262D01*
X42250Y-34262D01*
X42054Y-34262D01*
X42011Y-34280D01*
X41978Y-34313D01*
X41960Y-34356D01*
X41960Y-34403D01*
X41960Y-34521D01*
X41966Y-34537D01*
X41960Y-34553D01*
X41960Y-34600D01*
X41960Y-34718D01*
X41977Y-34762D01*
X42011Y-34795D01*
X42054Y-34813D01*
X42101Y-34813D01*
X42297Y-34813D01*
X42340Y-34795D01*
X42372Y-34764D01*
X42372Y-34852D01*
X42176Y-34852D01*
X42175Y-34852D01*
X42054Y-34852D01*
X42011Y-34870D01*
X41978Y-34903D01*
X41960Y-34946D01*
X41960Y-34993D01*
X41960Y-35111D01*
X41977Y-35155D01*
X42011Y-35188D01*
X42054Y-35206D01*
X42101Y-35206D01*
X42175Y-35206D01*
X42176Y-35206D01*
X42372Y-35206D01*
X42372Y-35491D01*
X42341Y-35460D01*
X42297Y-35442D01*
X42250Y-35442D01*
X42054Y-35442D01*
X42011Y-35460D01*
X41978Y-35493D01*
X41960Y-35536D01*
X41960Y-35583D01*
X41960Y-35701D01*
X41966Y-35717D01*
X41960Y-35733D01*
X41960Y-35780D01*
X41960Y-35898D01*
X41977Y-35942D01*
X42011Y-35975D01*
X42054Y-35993D01*
X42101Y-35993D01*
X42294Y-35993D01*
X42294Y-36036D01*
X42294Y-36111D01*
X42293Y-36111D01*
X42293Y-36831D01*
X42260Y-36831D01*
X42216Y-36849D01*
X42197Y-36868D01*
X42153Y-36850D01*
X42059Y-36850D01*
X41972Y-36886D01*
X41906Y-36952D01*
X41870Y-37039D01*
X41870Y-37133D01*
X41905Y-37220D01*
X41972Y-37286D01*
X42059Y-37322D01*
X42153Y-37322D01*
X42196Y-37304D01*
X42216Y-37325D01*
X42258Y-37342D01*
X42216Y-37359D01*
X42183Y-37393D01*
X42165Y-37436D01*
X42165Y-37483D01*
X42165Y-37758D01*
X42183Y-37801D01*
X42216Y-37835D01*
X42260Y-37853D01*
X42307Y-37853D01*
X42661Y-37853D01*
X42704Y-37835D01*
X42705Y-37833D01*
X42707Y-37833D01*
X42708Y-37835D01*
X42752Y-37853D01*
X42799Y-37853D01*
X43153Y-37853D01*
X43196Y-37835D01*
X43229Y-37802D01*
X43247Y-37758D01*
X43247Y-37711D01*
X43247Y-37436D01*
X43229Y-37393D01*
X43196Y-37359D01*
X43153Y-37341D01*
X43106Y-37341D01*
X42752Y-37341D01*
X42708Y-37359D01*
X42707Y-37361D01*
X42705Y-37361D01*
X42704Y-37359D01*
X42662Y-37342D01*
X42704Y-37325D01*
X42737Y-37292D01*
X42755Y-37248D01*
X42755Y-37201D01*
X42755Y-36926D01*
X42737Y-36883D01*
X42704Y-36849D01*
X42661Y-36831D01*
X42648Y-36831D01*
X42648Y-36327D01*
X42750Y-36327D01*
X42793Y-36309D01*
X42827Y-36276D01*
X42845Y-36232D01*
X42845Y-36185D01*
X42845Y-36111D01*
X42845Y-36111D01*
X42845Y-35915D01*
X43277Y-35915D01*
X43277Y-36111D01*
X43278Y-36111D01*
X43278Y-36232D01*
X43295Y-36276D01*
X43329Y-36309D01*
X43372Y-36327D01*
X43419Y-36327D01*
X43537Y-36327D01*
X43580Y-36309D01*
X43614Y-36276D01*
X43632Y-36232D01*
X43632Y-36185D01*
X43632Y-36111D01*
X43632Y-36111D01*
X43632Y-35915D01*
X43720Y-35915D01*
X43689Y-35946D01*
X43671Y-35989D01*
X43671Y-36036D01*
X43671Y-36232D01*
X43688Y-36276D01*
X43722Y-36309D01*
X43765Y-36327D01*
X43812Y-36327D01*
X43867Y-36327D01*
X43867Y-36833D01*
X43832Y-36848D01*
X43798Y-36881D01*
X43780Y-36925D01*
X43780Y-36972D01*
X43780Y-37326D01*
X43798Y-37369D01*
X43800Y-37372D01*
X43798Y-37374D01*
X43780Y-37417D01*
X43780Y-37464D01*
X43780Y-37818D01*
X43798Y-37861D01*
X43831Y-37895D01*
X43875Y-37913D01*
X43922Y-37913D01*
X44197Y-37913D01*
X44240Y-37895D01*
X44273Y-37862D01*
X44291Y-37820D01*
X44308Y-37861D01*
X44341Y-37895D01*
X44385Y-37913D01*
X44432Y-37913D01*
X44707Y-37913D01*
X44750Y-37895D01*
X44783Y-37862D01*
X44799Y-37823D01*
X44874Y-37854D01*
X44968Y-37854D01*
X45054Y-37818D01*
X45121Y-37752D01*
X45157Y-37665D01*
X45157Y-37571D01*
X45121Y-37484D01*
X45058Y-37421D01*
X45122Y-37421D01*
X45165Y-37403D01*
X45199Y-37369D01*
X45217Y-37326D01*
X45217Y-37279D01*
X45217Y-36925D01*
X45199Y-36882D01*
X45166Y-36848D01*
X45122Y-36830D01*
X45075Y-36830D01*
X44800Y-36830D01*
X44757Y-36848D01*
X44753Y-36852D01*
X44750Y-36848D01*
X44707Y-36830D01*
X44660Y-36830D01*
X44385Y-36830D01*
X44342Y-36848D01*
X44308Y-36881D01*
X44291Y-36924D01*
X44274Y-36882D01*
X44240Y-36848D01*
X44222Y-36841D01*
X44222Y-36111D01*
X44222Y-36111D01*
X44222Y-35989D01*
X44204Y-35946D01*
X44173Y-35915D01*
X44639Y-35915D01*
X44682Y-35897D01*
X44714Y-35866D01*
X44714Y-35898D01*
X44731Y-35942D01*
X44765Y-35975D01*
X44808Y-35993D01*
X44855Y-35993D01*
X44929Y-35993D01*
X44930Y-35993D01*
X45836Y-35993D01*
X45850Y-36007D01*
X45937Y-36043D01*
X46031Y-36043D01*
X46117Y-36007D01*
X46184Y-35941D01*
X46220Y-35854D01*
X46220Y-35760D01*
X46184Y-35673D01*
X46141Y-35629D01*
X46164Y-35606D01*
X46200Y-35519D01*
X46200Y-35425D01*
X46164Y-35338D01*
X46098Y-35272D01*
X46011Y-35236D01*
X45917Y-35236D01*
X45830Y-35272D01*
X45764Y-35338D01*
X45728Y-35425D01*
X45728Y-35435D01*
X44928Y-35442D01*
X44928Y-35442D01*
X44808Y-35442D01*
X44765Y-35460D01*
X44734Y-35491D01*
X44734Y-35206D01*
X44930Y-35206D01*
X44930Y-35206D01*
X45051Y-35206D01*
X45094Y-35188D01*
X45128Y-35155D01*
X45146Y-35111D01*
X45146Y-35064D01*
X45146Y-34946D01*
X45128Y-34903D01*
X45095Y-34870D01*
X45051Y-34852D01*
X45004Y-34852D01*
X44930Y-34852D01*
X44930Y-34852D01*
X44734Y-34852D01*
X44734Y-34764D01*
X44765Y-34795D01*
X44808Y-34813D01*
X44855Y-34813D01*
X44929Y-34813D01*
X44930Y-34813D01*
X45698Y-34813D01*
X45766Y-34799D01*
X45766Y-34799D01*
X45823Y-34761D01*
X46037Y-34547D01*
X46181Y-34547D01*
X46177Y-34551D01*
X46141Y-34637D01*
X46141Y-34731D01*
X46177Y-34818D01*
X46243Y-34885D01*
X46298Y-34907D01*
X46298Y-35180D01*
X46316Y-35224D01*
X46349Y-35257D01*
X46393Y-35275D01*
X46440Y-35275D01*
X46715Y-35275D01*
X46758Y-35257D01*
X46791Y-35224D01*
X46807Y-35187D01*
X46826Y-35195D01*
X46873Y-35195D01*
X47227Y-35195D01*
X47271Y-35177D01*
X47304Y-35144D01*
X47322Y-35101D01*
X47322Y-35054D01*
X47322Y-34877D01*
X47364Y-34919D01*
X47453Y-34979D01*
X47453Y-34979D01*
X47559Y-35000D01*
X47570Y-35000D01*
X47591Y-35020D01*
X47634Y-35038D01*
X47681Y-35039D01*
X48110Y-35039D01*
X48110Y-39251D01*
G54D10*
G36*
X53602Y-36709D02*
X53576Y-36726D01*
X53544Y-36774D01*
X53533Y-36830D01*
X53533Y-39251D01*
X48287Y-39251D01*
X48287Y-39068D01*
X48302Y-39074D01*
X48349Y-39074D01*
X48861Y-39074D01*
X48905Y-39056D01*
X48938Y-39023D01*
X48956Y-38980D01*
X48956Y-38933D01*
X48956Y-38382D01*
X48938Y-38338D01*
X48905Y-38305D01*
X48862Y-38287D01*
X48843Y-38287D01*
X48847Y-37952D01*
X48999Y-37952D01*
X49043Y-37934D01*
X49076Y-37901D01*
X49094Y-37858D01*
X49094Y-37853D01*
X49109Y-37853D01*
X49112Y-37861D01*
X49145Y-37894D01*
X49189Y-37912D01*
X49236Y-37912D01*
X49295Y-37912D01*
X49320Y-37937D01*
X49320Y-37937D01*
X49409Y-37997D01*
X49409Y-37997D01*
X49515Y-38018D01*
X49810Y-38018D01*
X49819Y-38039D01*
X49852Y-38072D01*
X49895Y-38090D01*
X49942Y-38090D01*
X50257Y-38090D01*
X50301Y-38072D01*
X50301Y-38072D01*
X50301Y-38311D01*
X50268Y-38325D01*
X50235Y-38358D01*
X50217Y-38401D01*
X50217Y-38405D01*
X50118Y-38405D01*
X50098Y-38405D01*
X50098Y-38382D01*
X50080Y-38338D01*
X50047Y-38305D01*
X50004Y-38287D01*
X49957Y-38287D01*
X49445Y-38287D01*
X49401Y-38305D01*
X49368Y-38338D01*
X49350Y-38382D01*
X49350Y-38428D01*
X49350Y-38979D01*
X49368Y-39023D01*
X49401Y-39056D01*
X49444Y-39074D01*
X49491Y-39074D01*
X50003Y-39074D01*
X50047Y-39056D01*
X50080Y-39023D01*
X50098Y-38980D01*
X50098Y-38956D01*
X50118Y-38956D01*
X50350Y-38956D01*
X50351Y-38961D01*
X50352Y-38961D01*
X50352Y-38962D01*
X50369Y-38988D01*
X50398Y-39031D01*
X50535Y-39168D01*
X50535Y-39168D01*
X50606Y-39215D01*
X50688Y-39232D01*
X52559Y-39232D01*
X52641Y-39215D01*
X52712Y-39168D01*
X53237Y-38643D01*
X53246Y-38637D01*
X53293Y-38566D01*
X53310Y-38483D01*
X53307Y-36988D01*
X53310Y-36988D01*
X53354Y-36970D01*
X53387Y-36937D01*
X53405Y-36893D01*
X53405Y-36846D01*
X53405Y-36531D01*
X53387Y-36488D01*
X53366Y-36466D01*
X53366Y-36452D01*
X53383Y-36435D01*
X53404Y-36384D01*
X53404Y-36384D01*
X53404Y-36384D01*
X53404Y-36384D01*
X53425Y-36334D01*
X53425Y-36279D01*
X53425Y-36279D01*
X53425Y-36279D01*
X53425Y-36279D01*
X53425Y-36279D01*
X53425Y-36224D01*
X53425Y-36224D01*
X53425Y-35845D01*
X53405Y-35745D01*
X53405Y-35745D01*
X53405Y-35546D01*
X53387Y-35503D01*
X53354Y-35470D01*
X53346Y-35467D01*
X53346Y-34500D01*
X53310Y-34413D01*
X53244Y-34347D01*
X53157Y-34311D01*
X53124Y-34311D01*
X52992Y-34178D01*
X52992Y-33818D01*
X52992Y-32244D01*
X52978Y-32176D01*
X52978Y-32176D01*
X52940Y-32118D01*
X52605Y-31784D01*
X52548Y-31745D01*
X52480Y-31732D01*
X51927Y-31732D01*
X51948Y-31681D01*
X51948Y-31587D01*
X51912Y-31500D01*
X51896Y-31483D01*
X51900Y-31483D01*
X52060Y-31483D01*
X52103Y-31465D01*
X52137Y-31432D01*
X52155Y-31388D01*
X52155Y-31341D01*
X52155Y-30841D01*
X52150Y-30829D01*
X52157Y-30822D01*
X52193Y-30736D01*
X52193Y-30659D01*
X52212Y-30651D01*
X52246Y-30618D01*
X52264Y-30574D01*
X52264Y-30527D01*
X52264Y-30118D01*
X52302Y-30118D01*
X52302Y-30141D01*
X52302Y-30574D01*
X52320Y-30617D01*
X52353Y-30651D01*
X52397Y-30669D01*
X52421Y-30669D01*
X52417Y-30673D01*
X52381Y-30759D01*
X52381Y-30853D01*
X52417Y-30940D01*
X52484Y-31007D01*
X52570Y-31043D01*
X52664Y-31043D01*
X52751Y-31007D01*
X52818Y-30941D01*
X52854Y-30854D01*
X52854Y-30760D01*
X52818Y-30673D01*
X52814Y-30669D01*
X52837Y-30669D01*
X52880Y-30651D01*
X52914Y-30618D01*
X52932Y-30574D01*
X52932Y-30527D01*
X52932Y-30094D01*
X52914Y-30051D01*
X52880Y-30018D01*
X52837Y-30000D01*
X52790Y-30000D01*
X52774Y-30000D01*
X52742Y-29952D01*
X52605Y-29815D01*
X52548Y-29777D01*
X52480Y-29763D01*
X50846Y-29763D01*
X50778Y-29777D01*
X50721Y-29815D01*
X50623Y-29913D01*
X50584Y-29970D01*
X50579Y-30000D01*
X50528Y-30000D01*
X50485Y-30017D01*
X50452Y-30051D01*
X50434Y-30094D01*
X50434Y-30141D01*
X50434Y-30400D01*
X50412Y-30379D01*
X50412Y-30173D01*
X50394Y-30130D01*
X50361Y-30096D01*
X50317Y-30078D01*
X50270Y-30078D01*
X49995Y-30078D01*
X49952Y-30096D01*
X49919Y-30130D01*
X49900Y-30173D01*
X49900Y-30220D01*
X49900Y-30574D01*
X49918Y-30617D01*
X49952Y-30651D01*
X49995Y-30669D01*
X50042Y-30669D01*
X50201Y-30669D01*
X50249Y-30717D01*
X50249Y-30747D01*
X50223Y-30747D01*
X50063Y-30747D01*
X50037Y-30758D01*
X50010Y-30747D01*
X49963Y-30747D01*
X49803Y-30747D01*
X49760Y-30765D01*
X49727Y-30798D01*
X49708Y-30841D01*
X49708Y-30888D01*
X49708Y-31388D01*
X49726Y-31432D01*
X49729Y-31435D01*
X49729Y-31737D01*
X49743Y-31805D01*
X49781Y-31863D01*
X50150Y-32231D01*
X50207Y-32269D01*
X50207Y-32269D01*
X50275Y-32283D01*
X52288Y-32283D01*
X52362Y-32356D01*
X52362Y-33563D01*
X52339Y-33586D01*
X52303Y-33673D01*
X52303Y-33767D01*
X52338Y-33854D01*
X52405Y-33920D01*
X52492Y-33956D01*
X52586Y-33956D01*
X52637Y-33935D01*
X52637Y-34251D01*
X52651Y-34319D01*
X52689Y-34377D01*
X52874Y-34561D01*
X52873Y-34594D01*
X52909Y-34680D01*
X52976Y-34747D01*
X53063Y-34783D01*
X53157Y-34783D01*
X53243Y-34747D01*
X53310Y-34681D01*
X53346Y-34594D01*
X53346Y-34500D01*
X53346Y-35467D01*
X53310Y-35452D01*
X53263Y-35452D01*
X52870Y-35452D01*
X52827Y-35470D01*
X52793Y-35503D01*
X52775Y-35546D01*
X52775Y-35593D01*
X52775Y-36026D01*
X52793Y-36070D01*
X52827Y-36103D01*
X52870Y-36121D01*
X52874Y-36121D01*
X52874Y-36176D01*
X52835Y-36233D01*
X52814Y-36338D01*
X52814Y-36466D01*
X52793Y-36488D01*
X52775Y-36531D01*
X52775Y-36578D01*
X52775Y-36893D01*
X52793Y-36936D01*
X52826Y-36970D01*
X52869Y-36988D01*
X52874Y-36988D01*
X52876Y-38391D01*
X52539Y-38728D01*
X52539Y-37221D01*
X52539Y-36906D01*
X52538Y-36903D01*
X52538Y-35173D01*
X52538Y-34740D01*
X52520Y-34696D01*
X52487Y-34663D01*
X52443Y-34645D01*
X52396Y-34645D01*
X52185Y-34645D01*
X52185Y-32591D01*
X52149Y-32504D01*
X52082Y-32437D01*
X51996Y-32401D01*
X51902Y-32401D01*
X51815Y-32437D01*
X51748Y-32503D01*
X51712Y-32590D01*
X51712Y-32684D01*
X51748Y-32771D01*
X51779Y-32802D01*
X51779Y-32847D01*
X51763Y-32847D01*
X51603Y-32847D01*
X51577Y-32858D01*
X51550Y-32847D01*
X51503Y-32847D01*
X51343Y-32847D01*
X51322Y-32856D01*
X51300Y-32847D01*
X51253Y-32847D01*
X51114Y-32847D01*
X51114Y-32822D01*
X51145Y-32791D01*
X51181Y-32704D01*
X51181Y-32610D01*
X51145Y-32523D01*
X51078Y-32457D01*
X50992Y-32421D01*
X50898Y-32421D01*
X50811Y-32457D01*
X50744Y-32523D01*
X50708Y-32610D01*
X50708Y-32704D01*
X50744Y-32791D01*
X50759Y-32806D01*
X50759Y-32847D01*
X50733Y-32847D01*
X50573Y-32847D01*
X50552Y-32856D01*
X50530Y-32847D01*
X50483Y-32847D01*
X50344Y-32847D01*
X50344Y-32745D01*
X50330Y-32678D01*
X50330Y-32678D01*
X50292Y-32620D01*
X50032Y-32360D01*
X49881Y-32210D01*
X49881Y-32177D01*
X49846Y-32090D01*
X49779Y-32024D01*
X49692Y-31988D01*
X49598Y-31988D01*
X49512Y-32024D01*
X49445Y-32090D01*
X49409Y-32177D01*
X49409Y-32271D01*
X49445Y-32358D01*
X49511Y-32424D01*
X49598Y-32460D01*
X49631Y-32460D01*
X49781Y-32611D01*
X49989Y-32819D01*
X49989Y-32847D01*
X49963Y-32847D01*
X49803Y-32847D01*
X49782Y-32856D01*
X49760Y-32847D01*
X49713Y-32847D01*
X49553Y-32847D01*
X49510Y-32865D01*
X49477Y-32898D01*
X49458Y-32941D01*
X49458Y-32981D01*
X49436Y-32972D01*
X49399Y-32972D01*
X49399Y-30337D01*
X49363Y-30250D01*
X49297Y-30183D01*
X49210Y-30147D01*
X49166Y-30147D01*
X49166Y-30147D01*
X49142Y-30131D01*
X49074Y-30118D01*
X49074Y-30075D01*
X49056Y-30031D01*
X49023Y-29998D01*
X48980Y-29980D01*
X48933Y-29980D01*
X48539Y-29980D01*
X48496Y-29998D01*
X48462Y-30031D01*
X48444Y-30074D01*
X48444Y-30121D01*
X48444Y-30515D01*
X48462Y-30558D01*
X48496Y-30592D01*
X48539Y-30610D01*
X48586Y-30610D01*
X48980Y-30610D01*
X49023Y-30592D01*
X49031Y-30584D01*
X49116Y-30620D01*
X49210Y-30620D01*
X49297Y-30584D01*
X49363Y-30517D01*
X49399Y-30431D01*
X49399Y-30337D01*
X49399Y-32972D01*
X49342Y-32972D01*
X49256Y-33008D01*
X49189Y-33074D01*
X49153Y-33161D01*
X49153Y-33255D01*
X49189Y-33342D01*
X49255Y-33408D01*
X49342Y-33444D01*
X49436Y-33444D01*
X49458Y-33435D01*
X49458Y-33488D01*
X49476Y-33532D01*
X49510Y-33565D01*
X49553Y-33583D01*
X49586Y-33583D01*
X49534Y-33635D01*
X49498Y-33722D01*
X49497Y-33816D01*
X49533Y-33903D01*
X49600Y-33969D01*
X49687Y-34005D01*
X49781Y-34005D01*
X49867Y-33970D01*
X49934Y-33903D01*
X49970Y-33816D01*
X49970Y-33784D01*
X50032Y-33722D01*
X50068Y-33667D01*
X50068Y-33757D01*
X50104Y-33844D01*
X50171Y-33910D01*
X50257Y-33946D01*
X50351Y-33946D01*
X50438Y-33911D01*
X50505Y-33844D01*
X50541Y-33757D01*
X50541Y-33724D01*
X50552Y-33713D01*
X50590Y-33656D01*
X50604Y-33588D01*
X50604Y-33583D01*
X50620Y-33583D01*
X50780Y-33583D01*
X50807Y-33572D01*
X50833Y-33583D01*
X50880Y-33583D01*
X51040Y-33583D01*
X51067Y-33572D01*
X51093Y-33583D01*
X51140Y-33583D01*
X51269Y-33583D01*
X51269Y-33592D01*
X51256Y-33606D01*
X51220Y-33692D01*
X51220Y-33786D01*
X51256Y-33873D01*
X51322Y-33940D01*
X51409Y-33976D01*
X51503Y-33976D01*
X51515Y-33971D01*
X51515Y-33983D01*
X51545Y-34055D01*
X51335Y-34055D01*
X51332Y-34056D01*
X51320Y-34028D01*
X51287Y-33995D01*
X51243Y-33977D01*
X51196Y-33977D01*
X50803Y-33977D01*
X50760Y-33994D01*
X50757Y-33997D01*
X50754Y-33994D01*
X50711Y-33976D01*
X50664Y-33976D01*
X50271Y-33976D01*
X50228Y-33994D01*
X50194Y-34027D01*
X50176Y-34070D01*
X50176Y-34117D01*
X50176Y-34550D01*
X50194Y-34594D01*
X50227Y-34627D01*
X50271Y-34645D01*
X50318Y-34645D01*
X50711Y-34645D01*
X50754Y-34627D01*
X50757Y-34625D01*
X50760Y-34628D01*
X50802Y-34645D01*
X50760Y-34662D01*
X50727Y-34696D01*
X50709Y-34739D01*
X50708Y-34786D01*
X50708Y-35020D01*
X50704Y-35016D01*
X50618Y-34980D01*
X50524Y-34980D01*
X50437Y-35016D01*
X50370Y-35082D01*
X50334Y-35169D01*
X50334Y-35263D01*
X50354Y-35312D01*
X50352Y-35313D01*
X50326Y-35338D01*
X50301Y-35313D01*
X50257Y-35295D01*
X50210Y-35295D01*
X49895Y-35295D01*
X49852Y-35313D01*
X49819Y-35346D01*
X49801Y-35389D01*
X49801Y-35436D01*
X49801Y-35465D01*
X49704Y-35465D01*
X49704Y-35390D01*
X49686Y-35347D01*
X49653Y-35313D01*
X49609Y-35295D01*
X49562Y-35295D01*
X49169Y-35295D01*
X49126Y-35313D01*
X49093Y-35347D01*
X49075Y-35390D01*
X49075Y-35437D01*
X49075Y-35870D01*
X49093Y-35913D01*
X49126Y-35947D01*
X49169Y-35965D01*
X49216Y-35965D01*
X49609Y-35965D01*
X49653Y-35947D01*
X49686Y-35914D01*
X49704Y-35870D01*
X49704Y-35823D01*
X49704Y-35820D01*
X49801Y-35820D01*
X49801Y-36027D01*
X49819Y-36070D01*
X49852Y-36104D01*
X49895Y-36122D01*
X49942Y-36122D01*
X50257Y-36122D01*
X50301Y-36104D01*
X50326Y-36078D01*
X50352Y-36104D01*
X50395Y-36122D01*
X50442Y-36122D01*
X50757Y-36122D01*
X50801Y-36104D01*
X50826Y-36078D01*
X50852Y-36104D01*
X50895Y-36122D01*
X50942Y-36122D01*
X51257Y-36122D01*
X51301Y-36104D01*
X51326Y-36078D01*
X51352Y-36104D01*
X51395Y-36122D01*
X51442Y-36122D01*
X51757Y-36122D01*
X51801Y-36104D01*
X51834Y-36070D01*
X51852Y-36027D01*
X51852Y-35980D01*
X51852Y-35389D01*
X51834Y-35346D01*
X51801Y-35313D01*
X51790Y-35308D01*
X51819Y-35297D01*
X51852Y-35263D01*
X51870Y-35220D01*
X51870Y-35173D01*
X51870Y-34740D01*
X51852Y-34696D01*
X51840Y-34685D01*
X51852Y-34673D01*
X51870Y-34629D01*
X51870Y-34582D01*
X51870Y-34149D01*
X51868Y-34144D01*
X51885Y-34137D01*
X51952Y-34070D01*
X51988Y-33984D01*
X51988Y-33890D01*
X51952Y-33803D01*
X51885Y-33736D01*
X51884Y-33736D01*
X51884Y-33583D01*
X51900Y-33583D01*
X52060Y-33583D01*
X52103Y-33565D01*
X52137Y-33532D01*
X52155Y-33488D01*
X52155Y-33441D01*
X52155Y-32941D01*
X52137Y-32898D01*
X52134Y-32895D01*
X52134Y-32786D01*
X52148Y-32771D01*
X52184Y-32684D01*
X52185Y-32591D01*
X52185Y-34645D01*
X52003Y-34645D01*
X51960Y-34663D01*
X51927Y-34696D01*
X51909Y-34740D01*
X51909Y-34787D01*
X51909Y-35220D01*
X51927Y-35263D01*
X51960Y-35296D01*
X52003Y-35314D01*
X52017Y-35314D01*
X51988Y-35385D01*
X51988Y-35479D01*
X52024Y-35566D01*
X52090Y-35633D01*
X52177Y-35669D01*
X52271Y-35669D01*
X52358Y-35633D01*
X52424Y-35567D01*
X52460Y-35480D01*
X52460Y-35386D01*
X52431Y-35314D01*
X52443Y-35314D01*
X52487Y-35297D01*
X52520Y-35263D01*
X52538Y-35220D01*
X52538Y-35173D01*
X52538Y-36903D01*
X52521Y-36863D01*
X52488Y-36830D01*
X52445Y-36812D01*
X52398Y-36811D01*
X52004Y-36811D01*
X51960Y-36829D01*
X51927Y-36863D01*
X51909Y-36906D01*
X51909Y-36953D01*
X51909Y-37268D01*
X51927Y-37311D01*
X51948Y-37333D01*
X51948Y-37401D01*
X51948Y-37452D01*
X51927Y-37473D01*
X51909Y-37516D01*
X51909Y-37563D01*
X51909Y-37996D01*
X51927Y-38039D01*
X51960Y-38073D01*
X52004Y-38091D01*
X52051Y-38091D01*
X52444Y-38091D01*
X52487Y-38073D01*
X52520Y-38040D01*
X52538Y-37996D01*
X52539Y-37949D01*
X52539Y-37516D01*
X52521Y-37473D01*
X52500Y-37452D01*
X52500Y-37401D01*
X52500Y-37401D01*
X52500Y-37346D01*
X52500Y-37346D01*
X52500Y-37333D01*
X52521Y-37312D01*
X52539Y-37268D01*
X52539Y-37221D01*
X52539Y-38728D01*
X52469Y-38799D01*
X50886Y-38799D01*
X50886Y-38795D01*
X50886Y-38402D01*
X50868Y-38358D01*
X50852Y-38342D01*
X50852Y-38250D01*
X50882Y-38322D01*
X50948Y-38389D01*
X51035Y-38425D01*
X51129Y-38425D01*
X51216Y-38389D01*
X51282Y-38322D01*
X51318Y-38236D01*
X51318Y-38142D01*
X51291Y-38076D01*
X51301Y-38072D01*
X51334Y-38039D01*
X51352Y-37996D01*
X51352Y-37949D01*
X51352Y-37358D01*
X51334Y-37315D01*
X51301Y-37281D01*
X51257Y-37263D01*
X51210Y-37263D01*
X50895Y-37263D01*
X50852Y-37281D01*
X50826Y-37307D01*
X50801Y-37281D01*
X50757Y-37263D01*
X50710Y-37263D01*
X50395Y-37263D01*
X50352Y-37281D01*
X50326Y-37307D01*
X50301Y-37281D01*
X50257Y-37263D01*
X50210Y-37263D01*
X49895Y-37263D01*
X49852Y-37281D01*
X49819Y-37314D01*
X49801Y-37358D01*
X49801Y-37405D01*
X49801Y-37467D01*
X49724Y-37467D01*
X49724Y-37338D01*
X49706Y-37294D01*
X49672Y-37261D01*
X49630Y-37244D01*
X49672Y-37226D01*
X49706Y-37193D01*
X49724Y-37150D01*
X49724Y-37105D01*
X49728Y-37109D01*
X49815Y-37145D01*
X49908Y-37145D01*
X49995Y-37109D01*
X50062Y-37043D01*
X50098Y-36956D01*
X50098Y-36862D01*
X50062Y-36775D01*
X49996Y-36709D01*
X49909Y-36673D01*
X49815Y-36673D01*
X49728Y-36709D01*
X49724Y-36713D01*
X49724Y-36670D01*
X49706Y-36626D01*
X49672Y-36593D01*
X49629Y-36575D01*
X49582Y-36575D01*
X49189Y-36575D01*
X49146Y-36593D01*
X49112Y-36626D01*
X49094Y-36669D01*
X49094Y-36716D01*
X49094Y-37149D01*
X49112Y-37193D01*
X49145Y-37226D01*
X49187Y-37244D01*
X49146Y-37261D01*
X49112Y-37294D01*
X49109Y-37302D01*
X49094Y-37302D01*
X49094Y-36393D01*
X49076Y-36350D01*
X49043Y-36317D01*
X48999Y-36299D01*
X48952Y-36299D01*
X48362Y-36299D01*
X48319Y-36317D01*
X48287Y-36348D01*
X48287Y-33936D01*
X48930Y-33936D01*
X48974Y-33918D01*
X49007Y-33885D01*
X49025Y-33842D01*
X49025Y-33795D01*
X49025Y-33008D01*
X49007Y-32964D01*
X48974Y-32931D01*
X48930Y-32913D01*
X48883Y-32913D01*
X48287Y-32913D01*
X48287Y-29645D01*
X53533Y-29645D01*
X53533Y-32066D01*
X53544Y-32123D01*
X53576Y-32171D01*
X53602Y-32188D01*
X53602Y-36709D01*
X53602Y-36709D01*
G37*
G54D39*
X53602Y-36709D02*
X53576Y-36726D01*
X53544Y-36774D01*
X53533Y-36830D01*
X53533Y-39251D01*
X48287Y-39251D01*
X48287Y-39068D01*
X48302Y-39074D01*
X48349Y-39074D01*
X48861Y-39074D01*
X48905Y-39056D01*
X48938Y-39023D01*
X48956Y-38980D01*
X48956Y-38933D01*
X48956Y-38382D01*
X48938Y-38338D01*
X48905Y-38305D01*
X48862Y-38287D01*
X48843Y-38287D01*
X48847Y-37952D01*
X48999Y-37952D01*
X49043Y-37934D01*
X49076Y-37901D01*
X49094Y-37858D01*
X49094Y-37853D01*
X49109Y-37853D01*
X49112Y-37861D01*
X49145Y-37894D01*
X49189Y-37912D01*
X49236Y-37912D01*
X49295Y-37912D01*
X49320Y-37937D01*
X49320Y-37937D01*
X49409Y-37997D01*
X49409Y-37997D01*
X49515Y-38018D01*
X49810Y-38018D01*
X49819Y-38039D01*
X49852Y-38072D01*
X49895Y-38090D01*
X49942Y-38090D01*
X50257Y-38090D01*
X50301Y-38072D01*
X50301Y-38072D01*
X50301Y-38311D01*
X50268Y-38325D01*
X50235Y-38358D01*
X50217Y-38401D01*
X50217Y-38405D01*
X50118Y-38405D01*
X50098Y-38405D01*
X50098Y-38382D01*
X50080Y-38338D01*
X50047Y-38305D01*
X50004Y-38287D01*
X49957Y-38287D01*
X49445Y-38287D01*
X49401Y-38305D01*
X49368Y-38338D01*
X49350Y-38382D01*
X49350Y-38428D01*
X49350Y-38979D01*
X49368Y-39023D01*
X49401Y-39056D01*
X49444Y-39074D01*
X49491Y-39074D01*
X50003Y-39074D01*
X50047Y-39056D01*
X50080Y-39023D01*
X50098Y-38980D01*
X50098Y-38956D01*
X50118Y-38956D01*
X50350Y-38956D01*
X50351Y-38961D01*
X50352Y-38961D01*
X50352Y-38962D01*
X50369Y-38988D01*
X50398Y-39031D01*
X50535Y-39168D01*
X50535Y-39168D01*
X50606Y-39215D01*
X50688Y-39232D01*
X52559Y-39232D01*
X52641Y-39215D01*
X52712Y-39168D01*
X53237Y-38643D01*
X53246Y-38637D01*
X53293Y-38566D01*
X53310Y-38483D01*
X53307Y-36988D01*
X53310Y-36988D01*
X53354Y-36970D01*
X53387Y-36937D01*
X53405Y-36893D01*
X53405Y-36846D01*
X53405Y-36531D01*
X53387Y-36488D01*
X53366Y-36466D01*
X53366Y-36452D01*
X53383Y-36435D01*
X53404Y-36384D01*
X53404Y-36384D01*
X53404Y-36384D01*
X53404Y-36384D01*
X53425Y-36334D01*
X53425Y-36279D01*
X53425Y-36279D01*
X53425Y-36279D01*
X53425Y-36279D01*
X53425Y-36279D01*
X53425Y-36224D01*
X53425Y-36224D01*
X53425Y-35845D01*
X53405Y-35745D01*
X53405Y-35745D01*
X53405Y-35546D01*
X53387Y-35503D01*
X53354Y-35470D01*
X53346Y-35467D01*
X53346Y-34500D01*
X53310Y-34413D01*
X53244Y-34347D01*
X53157Y-34311D01*
X53124Y-34311D01*
X52992Y-34178D01*
X52992Y-33818D01*
X52992Y-32244D01*
X52978Y-32176D01*
X52978Y-32176D01*
X52940Y-32118D01*
X52605Y-31784D01*
X52548Y-31745D01*
X52480Y-31732D01*
X51927Y-31732D01*
X51948Y-31681D01*
X51948Y-31587D01*
X51912Y-31500D01*
X51896Y-31483D01*
X51900Y-31483D01*
X52060Y-31483D01*
X52103Y-31465D01*
X52137Y-31432D01*
X52155Y-31388D01*
X52155Y-31341D01*
X52155Y-30841D01*
X52150Y-30829D01*
X52157Y-30822D01*
X52193Y-30736D01*
X52193Y-30659D01*
X52212Y-30651D01*
X52246Y-30618D01*
X52264Y-30574D01*
X52264Y-30527D01*
X52264Y-30118D01*
X52302Y-30118D01*
X52302Y-30141D01*
X52302Y-30574D01*
X52320Y-30617D01*
X52353Y-30651D01*
X52397Y-30669D01*
X52421Y-30669D01*
X52417Y-30673D01*
X52381Y-30759D01*
X52381Y-30853D01*
X52417Y-30940D01*
X52484Y-31007D01*
X52570Y-31043D01*
X52664Y-31043D01*
X52751Y-31007D01*
X52818Y-30941D01*
X52854Y-30854D01*
X52854Y-30760D01*
X52818Y-30673D01*
X52814Y-30669D01*
X52837Y-30669D01*
X52880Y-30651D01*
X52914Y-30618D01*
X52932Y-30574D01*
X52932Y-30527D01*
X52932Y-30094D01*
X52914Y-30051D01*
X52880Y-30018D01*
X52837Y-30000D01*
X52790Y-30000D01*
X52774Y-30000D01*
X52742Y-29952D01*
X52605Y-29815D01*
X52548Y-29777D01*
X52480Y-29763D01*
X50846Y-29763D01*
X50778Y-29777D01*
X50721Y-29815D01*
X50623Y-29913D01*
X50584Y-29970D01*
X50579Y-30000D01*
X50528Y-30000D01*
X50485Y-30017D01*
X50452Y-30051D01*
X50434Y-30094D01*
X50434Y-30141D01*
X50434Y-30400D01*
X50412Y-30379D01*
X50412Y-30173D01*
X50394Y-30130D01*
X50361Y-30096D01*
X50317Y-30078D01*
X50270Y-30078D01*
X49995Y-30078D01*
X49952Y-30096D01*
X49919Y-30130D01*
X49900Y-30173D01*
X49900Y-30220D01*
X49900Y-30574D01*
X49918Y-30617D01*
X49952Y-30651D01*
X49995Y-30669D01*
X50042Y-30669D01*
X50201Y-30669D01*
X50249Y-30717D01*
X50249Y-30747D01*
X50223Y-30747D01*
X50063Y-30747D01*
X50037Y-30758D01*
X50010Y-30747D01*
X49963Y-30747D01*
X49803Y-30747D01*
X49760Y-30765D01*
X49727Y-30798D01*
X49708Y-30841D01*
X49708Y-30888D01*
X49708Y-31388D01*
X49726Y-31432D01*
X49729Y-31435D01*
X49729Y-31737D01*
X49743Y-31805D01*
X49781Y-31863D01*
X50150Y-32231D01*
X50207Y-32269D01*
X50207Y-32269D01*
X50275Y-32283D01*
X52288Y-32283D01*
X52362Y-32356D01*
X52362Y-33563D01*
X52339Y-33586D01*
X52303Y-33673D01*
X52303Y-33767D01*
X52338Y-33854D01*
X52405Y-33920D01*
X52492Y-33956D01*
X52586Y-33956D01*
X52637Y-33935D01*
X52637Y-34251D01*
X52651Y-34319D01*
X52689Y-34377D01*
X52874Y-34561D01*
X52873Y-34594D01*
X52909Y-34680D01*
X52976Y-34747D01*
X53063Y-34783D01*
X53157Y-34783D01*
X53243Y-34747D01*
X53310Y-34681D01*
X53346Y-34594D01*
X53346Y-34500D01*
X53346Y-35467D01*
X53310Y-35452D01*
X53263Y-35452D01*
X52870Y-35452D01*
X52827Y-35470D01*
X52793Y-35503D01*
X52775Y-35546D01*
X52775Y-35593D01*
X52775Y-36026D01*
X52793Y-36070D01*
X52827Y-36103D01*
X52870Y-36121D01*
X52874Y-36121D01*
X52874Y-36176D01*
X52835Y-36233D01*
X52814Y-36338D01*
X52814Y-36466D01*
X52793Y-36488D01*
X52775Y-36531D01*
X52775Y-36578D01*
X52775Y-36893D01*
X52793Y-36936D01*
X52826Y-36970D01*
X52869Y-36988D01*
X52874Y-36988D01*
X52876Y-38391D01*
X52539Y-38728D01*
X52539Y-37221D01*
X52539Y-36906D01*
X52538Y-36903D01*
X52538Y-35173D01*
X52538Y-34740D01*
X52520Y-34696D01*
X52487Y-34663D01*
X52443Y-34645D01*
X52396Y-34645D01*
X52185Y-34645D01*
X52185Y-32591D01*
X52149Y-32504D01*
X52082Y-32437D01*
X51996Y-32401D01*
X51902Y-32401D01*
X51815Y-32437D01*
X51748Y-32503D01*
X51712Y-32590D01*
X51712Y-32684D01*
X51748Y-32771D01*
X51779Y-32802D01*
X51779Y-32847D01*
X51763Y-32847D01*
X51603Y-32847D01*
X51577Y-32858D01*
X51550Y-32847D01*
X51503Y-32847D01*
X51343Y-32847D01*
X51322Y-32856D01*
X51300Y-32847D01*
X51253Y-32847D01*
X51114Y-32847D01*
X51114Y-32822D01*
X51145Y-32791D01*
X51181Y-32704D01*
X51181Y-32610D01*
X51145Y-32523D01*
X51078Y-32457D01*
X50992Y-32421D01*
X50898Y-32421D01*
X50811Y-32457D01*
X50744Y-32523D01*
X50708Y-32610D01*
X50708Y-32704D01*
X50744Y-32791D01*
X50759Y-32806D01*
X50759Y-32847D01*
X50733Y-32847D01*
X50573Y-32847D01*
X50552Y-32856D01*
X50530Y-32847D01*
X50483Y-32847D01*
X50344Y-32847D01*
X50344Y-32745D01*
X50330Y-32678D01*
X50330Y-32678D01*
X50292Y-32620D01*
X50032Y-32360D01*
X49881Y-32210D01*
X49881Y-32177D01*
X49846Y-32090D01*
X49779Y-32024D01*
X49692Y-31988D01*
X49598Y-31988D01*
X49512Y-32024D01*
X49445Y-32090D01*
X49409Y-32177D01*
X49409Y-32271D01*
X49445Y-32358D01*
X49511Y-32424D01*
X49598Y-32460D01*
X49631Y-32460D01*
X49781Y-32611D01*
X49989Y-32819D01*
X49989Y-32847D01*
X49963Y-32847D01*
X49803Y-32847D01*
X49782Y-32856D01*
X49760Y-32847D01*
X49713Y-32847D01*
X49553Y-32847D01*
X49510Y-32865D01*
X49477Y-32898D01*
X49458Y-32941D01*
X49458Y-32981D01*
X49436Y-32972D01*
X49399Y-32972D01*
X49399Y-30337D01*
X49363Y-30250D01*
X49297Y-30183D01*
X49210Y-30147D01*
X49166Y-30147D01*
X49166Y-30147D01*
X49142Y-30131D01*
X49074Y-30118D01*
X49074Y-30075D01*
X49056Y-30031D01*
X49023Y-29998D01*
X48980Y-29980D01*
X48933Y-29980D01*
X48539Y-29980D01*
X48496Y-29998D01*
X48462Y-30031D01*
X48444Y-30074D01*
X48444Y-30121D01*
X48444Y-30515D01*
X48462Y-30558D01*
X48496Y-30592D01*
X48539Y-30610D01*
X48586Y-30610D01*
X48980Y-30610D01*
X49023Y-30592D01*
X49031Y-30584D01*
X49116Y-30620D01*
X49210Y-30620D01*
X49297Y-30584D01*
X49363Y-30517D01*
X49399Y-30431D01*
X49399Y-30337D01*
X49399Y-32972D01*
X49342Y-32972D01*
X49256Y-33008D01*
X49189Y-33074D01*
X49153Y-33161D01*
X49153Y-33255D01*
X49189Y-33342D01*
X49255Y-33408D01*
X49342Y-33444D01*
X49436Y-33444D01*
X49458Y-33435D01*
X49458Y-33488D01*
X49476Y-33532D01*
X49510Y-33565D01*
X49553Y-33583D01*
X49586Y-33583D01*
X49534Y-33635D01*
X49498Y-33722D01*
X49497Y-33816D01*
X49533Y-33903D01*
X49600Y-33969D01*
X49687Y-34005D01*
X49781Y-34005D01*
X49867Y-33970D01*
X49934Y-33903D01*
X49970Y-33816D01*
X49970Y-33784D01*
X50032Y-33722D01*
X50068Y-33667D01*
X50068Y-33757D01*
X50104Y-33844D01*
X50171Y-33910D01*
X50257Y-33946D01*
X50351Y-33946D01*
X50438Y-33911D01*
X50505Y-33844D01*
X50541Y-33757D01*
X50541Y-33724D01*
X50552Y-33713D01*
X50590Y-33656D01*
X50604Y-33588D01*
X50604Y-33583D01*
X50620Y-33583D01*
X50780Y-33583D01*
X50807Y-33572D01*
X50833Y-33583D01*
X50880Y-33583D01*
X51040Y-33583D01*
X51067Y-33572D01*
X51093Y-33583D01*
X51140Y-33583D01*
X51269Y-33583D01*
X51269Y-33592D01*
X51256Y-33606D01*
X51220Y-33692D01*
X51220Y-33786D01*
X51256Y-33873D01*
X51322Y-33940D01*
X51409Y-33976D01*
X51503Y-33976D01*
X51515Y-33971D01*
X51515Y-33983D01*
X51545Y-34055D01*
X51335Y-34055D01*
X51332Y-34056D01*
X51320Y-34028D01*
X51287Y-33995D01*
X51243Y-33977D01*
X51196Y-33977D01*
X50803Y-33977D01*
X50760Y-33994D01*
X50757Y-33997D01*
X50754Y-33994D01*
X50711Y-33976D01*
X50664Y-33976D01*
X50271Y-33976D01*
X50228Y-33994D01*
X50194Y-34027D01*
X50176Y-34070D01*
X50176Y-34117D01*
X50176Y-34550D01*
X50194Y-34594D01*
X50227Y-34627D01*
X50271Y-34645D01*
X50318Y-34645D01*
X50711Y-34645D01*
X50754Y-34627D01*
X50757Y-34625D01*
X50760Y-34628D01*
X50802Y-34645D01*
X50760Y-34662D01*
X50727Y-34696D01*
X50709Y-34739D01*
X50708Y-34786D01*
X50708Y-35020D01*
X50704Y-35016D01*
X50618Y-34980D01*
X50524Y-34980D01*
X50437Y-35016D01*
X50370Y-35082D01*
X50334Y-35169D01*
X50334Y-35263D01*
X50354Y-35312D01*
X50352Y-35313D01*
X50326Y-35338D01*
X50301Y-35313D01*
X50257Y-35295D01*
X50210Y-35295D01*
X49895Y-35295D01*
X49852Y-35313D01*
X49819Y-35346D01*
X49801Y-35389D01*
X49801Y-35436D01*
X49801Y-35465D01*
X49704Y-35465D01*
X49704Y-35390D01*
X49686Y-35347D01*
X49653Y-35313D01*
X49609Y-35295D01*
X49562Y-35295D01*
X49169Y-35295D01*
X49126Y-35313D01*
X49093Y-35347D01*
X49075Y-35390D01*
X49075Y-35437D01*
X49075Y-35870D01*
X49093Y-35913D01*
X49126Y-35947D01*
X49169Y-35965D01*
X49216Y-35965D01*
X49609Y-35965D01*
X49653Y-35947D01*
X49686Y-35914D01*
X49704Y-35870D01*
X49704Y-35823D01*
X49704Y-35820D01*
X49801Y-35820D01*
X49801Y-36027D01*
X49819Y-36070D01*
X49852Y-36104D01*
X49895Y-36122D01*
X49942Y-36122D01*
X50257Y-36122D01*
X50301Y-36104D01*
X50326Y-36078D01*
X50352Y-36104D01*
X50395Y-36122D01*
X50442Y-36122D01*
X50757Y-36122D01*
X50801Y-36104D01*
X50826Y-36078D01*
X50852Y-36104D01*
X50895Y-36122D01*
X50942Y-36122D01*
X51257Y-36122D01*
X51301Y-36104D01*
X51326Y-36078D01*
X51352Y-36104D01*
X51395Y-36122D01*
X51442Y-36122D01*
X51757Y-36122D01*
X51801Y-36104D01*
X51834Y-36070D01*
X51852Y-36027D01*
X51852Y-35980D01*
X51852Y-35389D01*
X51834Y-35346D01*
X51801Y-35313D01*
X51790Y-35308D01*
X51819Y-35297D01*
X51852Y-35263D01*
X51870Y-35220D01*
X51870Y-35173D01*
X51870Y-34740D01*
X51852Y-34696D01*
X51840Y-34685D01*
X51852Y-34673D01*
X51870Y-34629D01*
X51870Y-34582D01*
X51870Y-34149D01*
X51868Y-34144D01*
X51885Y-34137D01*
X51952Y-34070D01*
X51988Y-33984D01*
X51988Y-33890D01*
X51952Y-33803D01*
X51885Y-33736D01*
X51884Y-33736D01*
X51884Y-33583D01*
X51900Y-33583D01*
X52060Y-33583D01*
X52103Y-33565D01*
X52137Y-33532D01*
X52155Y-33488D01*
X52155Y-33441D01*
X52155Y-32941D01*
X52137Y-32898D01*
X52134Y-32895D01*
X52134Y-32786D01*
X52148Y-32771D01*
X52184Y-32684D01*
X52185Y-32591D01*
X52185Y-34645D01*
X52003Y-34645D01*
X51960Y-34663D01*
X51927Y-34696D01*
X51909Y-34740D01*
X51909Y-34787D01*
X51909Y-35220D01*
X51927Y-35263D01*
X51960Y-35296D01*
X52003Y-35314D01*
X52017Y-35314D01*
X51988Y-35385D01*
X51988Y-35479D01*
X52024Y-35566D01*
X52090Y-35633D01*
X52177Y-35669D01*
X52271Y-35669D01*
X52358Y-35633D01*
X52424Y-35567D01*
X52460Y-35480D01*
X52460Y-35386D01*
X52431Y-35314D01*
X52443Y-35314D01*
X52487Y-35297D01*
X52520Y-35263D01*
X52538Y-35220D01*
X52538Y-35173D01*
X52538Y-36903D01*
X52521Y-36863D01*
X52488Y-36830D01*
X52445Y-36812D01*
X52398Y-36811D01*
X52004Y-36811D01*
X51960Y-36829D01*
X51927Y-36863D01*
X51909Y-36906D01*
X51909Y-36953D01*
X51909Y-37268D01*
X51927Y-37311D01*
X51948Y-37333D01*
X51948Y-37401D01*
X51948Y-37452D01*
X51927Y-37473D01*
X51909Y-37516D01*
X51909Y-37563D01*
X51909Y-37996D01*
X51927Y-38039D01*
X51960Y-38073D01*
X52004Y-38091D01*
X52051Y-38091D01*
X52444Y-38091D01*
X52487Y-38073D01*
X52520Y-38040D01*
X52538Y-37996D01*
X52539Y-37949D01*
X52539Y-37516D01*
X52521Y-37473D01*
X52500Y-37452D01*
X52500Y-37401D01*
X52500Y-37401D01*
X52500Y-37346D01*
X52500Y-37346D01*
X52500Y-37333D01*
X52521Y-37312D01*
X52539Y-37268D01*
X52539Y-37221D01*
X52539Y-38728D01*
X52469Y-38799D01*
X50886Y-38799D01*
X50886Y-38795D01*
X50886Y-38402D01*
X50868Y-38358D01*
X50852Y-38342D01*
X50852Y-38250D01*
X50882Y-38322D01*
X50948Y-38389D01*
X51035Y-38425D01*
X51129Y-38425D01*
X51216Y-38389D01*
X51282Y-38322D01*
X51318Y-38236D01*
X51318Y-38142D01*
X51291Y-38076D01*
X51301Y-38072D01*
X51334Y-38039D01*
X51352Y-37996D01*
X51352Y-37949D01*
X51352Y-37358D01*
X51334Y-37315D01*
X51301Y-37281D01*
X51257Y-37263D01*
X51210Y-37263D01*
X50895Y-37263D01*
X50852Y-37281D01*
X50826Y-37307D01*
X50801Y-37281D01*
X50757Y-37263D01*
X50710Y-37263D01*
X50395Y-37263D01*
X50352Y-37281D01*
X50326Y-37307D01*
X50301Y-37281D01*
X50257Y-37263D01*
X50210Y-37263D01*
X49895Y-37263D01*
X49852Y-37281D01*
X49819Y-37314D01*
X49801Y-37358D01*
X49801Y-37405D01*
X49801Y-37467D01*
X49724Y-37467D01*
X49724Y-37338D01*
X49706Y-37294D01*
X49672Y-37261D01*
X49630Y-37244D01*
X49672Y-37226D01*
X49706Y-37193D01*
X49724Y-37150D01*
X49724Y-37105D01*
X49728Y-37109D01*
X49815Y-37145D01*
X49908Y-37145D01*
X49995Y-37109D01*
X50062Y-37043D01*
X50098Y-36956D01*
X50098Y-36862D01*
X50062Y-36775D01*
X49996Y-36709D01*
X49909Y-36673D01*
X49815Y-36673D01*
X49728Y-36709D01*
X49724Y-36713D01*
X49724Y-36670D01*
X49706Y-36626D01*
X49672Y-36593D01*
X49629Y-36575D01*
X49582Y-36575D01*
X49189Y-36575D01*
X49146Y-36593D01*
X49112Y-36626D01*
X49094Y-36669D01*
X49094Y-36716D01*
X49094Y-37149D01*
X49112Y-37193D01*
X49145Y-37226D01*
X49187Y-37244D01*
X49146Y-37261D01*
X49112Y-37294D01*
X49109Y-37302D01*
X49094Y-37302D01*
X49094Y-36393D01*
X49076Y-36350D01*
X49043Y-36317D01*
X48999Y-36299D01*
X48952Y-36299D01*
X48362Y-36299D01*
X48319Y-36317D01*
X48287Y-36348D01*
X48287Y-33936D01*
X48930Y-33936D01*
X48974Y-33918D01*
X49007Y-33885D01*
X49025Y-33842D01*
X49025Y-33795D01*
X49025Y-33008D01*
X49007Y-32964D01*
X48974Y-32931D01*
X48930Y-32913D01*
X48883Y-32913D01*
X48287Y-32913D01*
X48287Y-29645D01*
X53533Y-29645D01*
X53533Y-32066D01*
X53544Y-32123D01*
X53576Y-32171D01*
X53602Y-32188D01*
X53602Y-36709D01*
M02*
