G04 (created by PCBNEW (2013-mar-13)-testing) date Sun 19 May 2013 09:45:04 PM ICT*
%MOIN*%
G04 Gerber Fmt 3.4, Leading zero omitted, Abs format*
%FSLAX34Y34*%
G01*
G70*
G90*
G04 APERTURE LIST*
%ADD10C,0.005*%
%ADD11C,0.00590551*%
%ADD12C,0.00787402*%
%ADD13C,0.011811*%
G04 APERTURE END LIST*
G54D10*
G54D11*
X53681Y-32066D02*
X53681Y-29527D01*
X59055Y-32066D02*
X53681Y-32066D01*
X53681Y-36830D02*
X53681Y-39370D01*
X59055Y-36830D02*
X53681Y-36830D01*
G54D10*
X39370Y-19685D02*
X59055Y-19685D01*
X59055Y-19685D02*
X59055Y-39370D01*
X59055Y-39370D02*
X39370Y-39370D01*
X39370Y-39370D02*
X39370Y-19685D01*
G54D12*
X39862Y-38631D02*
X39980Y-38750D01*
X39980Y-38631D02*
X39862Y-38750D01*
X40354Y-30462D02*
X40472Y-30580D01*
X40472Y-30462D02*
X40354Y-30580D01*
X42027Y-32303D02*
X42145Y-32421D01*
X42145Y-32303D02*
X42027Y-32421D01*
X42047Y-37027D02*
X42165Y-37145D01*
X42165Y-37027D02*
X42047Y-37145D01*
X42618Y-33818D02*
X42736Y-33937D01*
X42736Y-33818D02*
X42618Y-33937D01*
X42618Y-34251D02*
X42736Y-34370D01*
X42736Y-34251D02*
X42618Y-34370D01*
X42618Y-34685D02*
X42736Y-34803D01*
X42736Y-34685D02*
X42618Y-34803D01*
X42618Y-35118D02*
X42736Y-35236D01*
X42736Y-35118D02*
X42618Y-35236D01*
X42618Y-35551D02*
X42736Y-35669D01*
X42736Y-35551D02*
X42618Y-35669D01*
X42637Y-37538D02*
X42755Y-37656D01*
X42755Y-37538D02*
X42637Y-37656D01*
X42657Y-31792D02*
X42775Y-31910D01*
X42775Y-31792D02*
X42657Y-31910D01*
X43051Y-33818D02*
X43169Y-33937D01*
X43169Y-33818D02*
X43051Y-33937D01*
X43051Y-34251D02*
X43169Y-34370D01*
X43169Y-34251D02*
X43051Y-34370D01*
X43051Y-34685D02*
X43169Y-34803D01*
X43169Y-34685D02*
X43051Y-34803D01*
X43051Y-35118D02*
X43169Y-35236D01*
X43169Y-35118D02*
X43051Y-35236D01*
X43051Y-35551D02*
X43169Y-35669D01*
X43169Y-35551D02*
X43051Y-35669D01*
X43474Y-34675D02*
X43592Y-34793D01*
X43592Y-34675D02*
X43474Y-34793D01*
X43474Y-35108D02*
X43592Y-35226D01*
X43592Y-35108D02*
X43474Y-35226D01*
X43474Y-35541D02*
X43592Y-35659D01*
X43592Y-35541D02*
X43474Y-35659D01*
X43484Y-33818D02*
X43602Y-33937D01*
X43602Y-33818D02*
X43484Y-33937D01*
X43484Y-34251D02*
X43602Y-34370D01*
X43602Y-34251D02*
X43484Y-34370D01*
X43484Y-34685D02*
X43602Y-34803D01*
X43602Y-34685D02*
X43484Y-34803D01*
X43484Y-34685D02*
X43602Y-34803D01*
X43602Y-34685D02*
X43484Y-34803D01*
X43484Y-34685D02*
X43602Y-34803D01*
X43602Y-34685D02*
X43484Y-34803D01*
X43592Y-32017D02*
X43710Y-32135D01*
X43710Y-32017D02*
X43592Y-32135D01*
X43907Y-35108D02*
X44025Y-35226D01*
X44025Y-35108D02*
X43907Y-35226D01*
X43907Y-35541D02*
X44025Y-35659D01*
X44025Y-35541D02*
X43907Y-35659D01*
X43917Y-33818D02*
X44035Y-33937D01*
X44035Y-33818D02*
X43917Y-33937D01*
X43917Y-34251D02*
X44035Y-34370D01*
X44035Y-34251D02*
X43917Y-34370D01*
X43917Y-34685D02*
X44035Y-34803D01*
X44035Y-34685D02*
X43917Y-34803D01*
X43966Y-32096D02*
X44084Y-32214D01*
X44084Y-32096D02*
X43966Y-32214D01*
X44340Y-35108D02*
X44458Y-35226D01*
X44458Y-35108D02*
X44340Y-35226D01*
X44340Y-35541D02*
X44458Y-35659D01*
X44458Y-35541D02*
X44340Y-35659D01*
X44350Y-33818D02*
X44468Y-33937D01*
X44468Y-33818D02*
X44350Y-33937D01*
X44350Y-34251D02*
X44468Y-34370D01*
X44468Y-34251D02*
X44350Y-34370D01*
X44350Y-34685D02*
X44468Y-34803D01*
X44468Y-34685D02*
X44350Y-34803D01*
X44685Y-31437D02*
X44803Y-31555D01*
X44803Y-31437D02*
X44685Y-31555D01*
X44694Y-30679D02*
X44812Y-30797D01*
X44812Y-30679D02*
X44694Y-30797D01*
X44704Y-37066D02*
X44822Y-37185D01*
X44822Y-37066D02*
X44704Y-37185D01*
X44862Y-37559D02*
X44980Y-37677D01*
X44980Y-37559D02*
X44862Y-37677D01*
X45413Y-31289D02*
X45531Y-31407D01*
X45531Y-31289D02*
X45413Y-31407D01*
X45423Y-30954D02*
X45541Y-31072D01*
X45541Y-30954D02*
X45423Y-31072D01*
X45797Y-32372D02*
X45915Y-32490D01*
X45915Y-32372D02*
X45797Y-32490D01*
X45807Y-31200D02*
X45925Y-31318D01*
X45925Y-31200D02*
X45807Y-31318D01*
X45905Y-35413D02*
X46023Y-35531D01*
X46023Y-35413D02*
X45905Y-35531D01*
X45925Y-35748D02*
X46043Y-35866D01*
X46043Y-35748D02*
X45925Y-35866D01*
X46318Y-34625D02*
X46437Y-34744D01*
X46437Y-34625D02*
X46318Y-34744D01*
X46476Y-33444D02*
X46594Y-33562D01*
X46594Y-33444D02*
X46476Y-33562D01*
X46496Y-31003D02*
X46614Y-31122D01*
X46614Y-31003D02*
X46496Y-31122D01*
X47145Y-30925D02*
X47263Y-31043D01*
X47263Y-30925D02*
X47145Y-31043D01*
X47706Y-30629D02*
X47824Y-30748D01*
X47824Y-30629D02*
X47706Y-30748D01*
X47716Y-32244D02*
X47834Y-32362D01*
X47834Y-32244D02*
X47716Y-32362D01*
X47814Y-35590D02*
X47933Y-35708D01*
X47933Y-35590D02*
X47814Y-35708D01*
X47933Y-33602D02*
X48051Y-33720D01*
X48051Y-33602D02*
X47933Y-33720D01*
X47952Y-33149D02*
X48070Y-33267D01*
X48070Y-33149D02*
X47952Y-33267D01*
X48306Y-33366D02*
X48424Y-33484D01*
X48424Y-33366D02*
X48306Y-33484D01*
X48641Y-33149D02*
X48759Y-33267D01*
X48759Y-33149D02*
X48641Y-33267D01*
X48661Y-33582D02*
X48779Y-33700D01*
X48779Y-33582D02*
X48661Y-33700D01*
X49104Y-30324D02*
X49222Y-30442D01*
X49222Y-30324D02*
X49104Y-30442D01*
X49311Y-31062D02*
X49429Y-31181D01*
X49429Y-31062D02*
X49311Y-31181D01*
X49330Y-33149D02*
X49448Y-33267D01*
X49448Y-33149D02*
X49330Y-33267D01*
X49586Y-32165D02*
X49704Y-32283D01*
X49704Y-32165D02*
X49586Y-32283D01*
X49675Y-33710D02*
X49793Y-33828D01*
X49793Y-33710D02*
X49675Y-33828D01*
X49803Y-36850D02*
X49921Y-36968D01*
X49921Y-36850D02*
X49803Y-36968D01*
X50246Y-33651D02*
X50364Y-33769D01*
X50364Y-33651D02*
X50246Y-33769D01*
X50334Y-36338D02*
X50452Y-36456D01*
X50452Y-36338D02*
X50334Y-36456D01*
X50334Y-36889D02*
X50452Y-37007D01*
X50452Y-36889D02*
X50334Y-37007D01*
X50511Y-35157D02*
X50629Y-35275D01*
X50629Y-35157D02*
X50511Y-35275D01*
X50541Y-31535D02*
X50659Y-31653D01*
X50659Y-31535D02*
X50541Y-31653D01*
X50767Y-36338D02*
X50885Y-36456D01*
X50885Y-36338D02*
X50767Y-36456D01*
X50767Y-36889D02*
X50885Y-37007D01*
X50885Y-36889D02*
X50767Y-37007D01*
X50885Y-31564D02*
X51003Y-31683D01*
X51003Y-31564D02*
X50885Y-31683D01*
X50885Y-32598D02*
X51003Y-32716D01*
X51003Y-32598D02*
X50885Y-32716D01*
X51023Y-38129D02*
X51141Y-38248D01*
X51141Y-38129D02*
X51023Y-38248D01*
X51200Y-36338D02*
X51318Y-36456D01*
X51318Y-36338D02*
X51200Y-36456D01*
X51200Y-36889D02*
X51318Y-37007D01*
X51318Y-36889D02*
X51200Y-37007D01*
X51388Y-30629D02*
X51506Y-30748D01*
X51506Y-30629D02*
X51388Y-30748D01*
X51397Y-33681D02*
X51515Y-33799D01*
X51515Y-33681D02*
X51397Y-33799D01*
X51653Y-31574D02*
X51771Y-31692D01*
X51771Y-31574D02*
X51653Y-31692D01*
X51692Y-33877D02*
X51811Y-33996D01*
X51811Y-33877D02*
X51692Y-33996D01*
X51889Y-32578D02*
X52007Y-32696D01*
X52007Y-32578D02*
X51889Y-32696D01*
X51898Y-30629D02*
X52016Y-30748D01*
X52016Y-30629D02*
X51898Y-30748D01*
X52165Y-35374D02*
X52283Y-35492D01*
X52283Y-35374D02*
X52165Y-35492D01*
X52480Y-33661D02*
X52598Y-33779D01*
X52598Y-33661D02*
X52480Y-33779D01*
X52559Y-30748D02*
X52677Y-30866D01*
X52677Y-30748D02*
X52559Y-30866D01*
X53051Y-34488D02*
X53169Y-34606D01*
X53169Y-34488D02*
X53051Y-34606D01*
X52322Y-37401D02*
G75*
G03X52322Y-37401I-98J0D01*
G74*
G01*
X53248Y-36279D02*
G75*
G03X53248Y-36279I-98J0D01*
G74*
G01*
X39960Y-33248D02*
X39960Y-33648D01*
X39760Y-33448D02*
X40160Y-33448D01*
X39960Y-34248D02*
X39960Y-34648D01*
X39760Y-34448D02*
X40160Y-34448D01*
X39960Y-35248D02*
X39960Y-35648D01*
X39760Y-35448D02*
X40160Y-35448D01*
G54D13*
X40438Y-41233D02*
X40438Y-40052D01*
X40719Y-40052D01*
X40888Y-40108D01*
X41001Y-40220D01*
X41057Y-40333D01*
X41113Y-40558D01*
X41113Y-40726D01*
X41057Y-40951D01*
X41001Y-41064D01*
X40888Y-41176D01*
X40719Y-41233D01*
X40438Y-41233D01*
X41619Y-41233D02*
X41619Y-40445D01*
X41619Y-40670D02*
X41676Y-40558D01*
X41732Y-40501D01*
X41844Y-40445D01*
X41957Y-40445D01*
X42350Y-41233D02*
X42350Y-40445D01*
X42350Y-40052D02*
X42294Y-40108D01*
X42350Y-40164D01*
X42407Y-40108D01*
X42350Y-40052D01*
X42350Y-40164D01*
X43082Y-41233D02*
X42969Y-41176D01*
X42913Y-41064D01*
X42913Y-40052D01*
X43700Y-41233D02*
X43588Y-41176D01*
X43532Y-41064D01*
X43532Y-40052D01*
X45050Y-41233D02*
X45050Y-40052D01*
X45444Y-40895D01*
X45838Y-40052D01*
X45838Y-41233D01*
X46906Y-41233D02*
X46906Y-40614D01*
X46850Y-40501D01*
X46737Y-40445D01*
X46512Y-40445D01*
X46400Y-40501D01*
X46906Y-41176D02*
X46794Y-41233D01*
X46512Y-41233D01*
X46400Y-41176D01*
X46344Y-41064D01*
X46344Y-40951D01*
X46400Y-40839D01*
X46512Y-40783D01*
X46794Y-40783D01*
X46906Y-40726D01*
X47469Y-40445D02*
X47469Y-41626D01*
X47469Y-40501D02*
X47581Y-40445D01*
X47806Y-40445D01*
X47919Y-40501D01*
X47975Y-40558D01*
X48031Y-40670D01*
X48031Y-41008D01*
X47975Y-41120D01*
X47919Y-41176D01*
X47806Y-41233D01*
X47581Y-41233D01*
X47469Y-41176D01*
X48537Y-41120D02*
X48593Y-41176D01*
X48537Y-41233D01*
X48481Y-41176D01*
X48537Y-41120D01*
X48537Y-41233D01*
X48537Y-40501D02*
X48593Y-40558D01*
X48537Y-40614D01*
X48481Y-40558D01*
X48537Y-40501D01*
X48537Y-40614D01*
X39251Y-43120D02*
X39370Y-43238D01*
X39370Y-43120D02*
X39251Y-43238D01*
X40663Y-42532D02*
X40776Y-42532D01*
X40888Y-42588D01*
X40944Y-42644D01*
X41001Y-42757D01*
X41057Y-42982D01*
X41057Y-43263D01*
X41001Y-43488D01*
X40944Y-43600D01*
X40888Y-43657D01*
X40776Y-43713D01*
X40663Y-43713D01*
X40551Y-43657D01*
X40494Y-43600D01*
X40438Y-43488D01*
X40382Y-43263D01*
X40382Y-42982D01*
X40438Y-42757D01*
X40494Y-42644D01*
X40551Y-42588D01*
X40663Y-42532D01*
X41563Y-43600D02*
X41619Y-43657D01*
X41563Y-43713D01*
X41507Y-43657D01*
X41563Y-43600D01*
X41563Y-43713D01*
X42013Y-42532D02*
X42744Y-42532D01*
X42350Y-42982D01*
X42519Y-42982D01*
X42632Y-43038D01*
X42688Y-43094D01*
X42744Y-43207D01*
X42744Y-43488D01*
X42688Y-43600D01*
X42632Y-43657D01*
X42519Y-43713D01*
X42182Y-43713D01*
X42069Y-43657D01*
X42013Y-43600D01*
X43475Y-42532D02*
X43588Y-42532D01*
X43700Y-42588D01*
X43757Y-42644D01*
X43813Y-42757D01*
X43869Y-42982D01*
X43869Y-43263D01*
X43813Y-43488D01*
X43757Y-43600D01*
X43700Y-43657D01*
X43588Y-43713D01*
X43475Y-43713D01*
X43363Y-43657D01*
X43307Y-43600D01*
X43250Y-43488D01*
X43194Y-43263D01*
X43194Y-42982D01*
X43250Y-42757D01*
X43307Y-42644D01*
X43363Y-42588D01*
X43475Y-42532D01*
X44375Y-43713D02*
X44375Y-42926D01*
X44375Y-43038D02*
X44431Y-42982D01*
X44544Y-42926D01*
X44713Y-42926D01*
X44825Y-42982D01*
X44881Y-43094D01*
X44881Y-43713D01*
X44881Y-43094D02*
X44938Y-42982D01*
X45050Y-42926D01*
X45219Y-42926D01*
X45331Y-42982D01*
X45388Y-43094D01*
X45388Y-43713D01*
X45950Y-43713D02*
X45950Y-42926D01*
X45950Y-43038D02*
X46006Y-42982D01*
X46119Y-42926D01*
X46287Y-42926D01*
X46400Y-42982D01*
X46456Y-43094D01*
X46456Y-43713D01*
X46456Y-43094D02*
X46512Y-42982D01*
X46625Y-42926D01*
X46794Y-42926D01*
X46906Y-42982D01*
X46962Y-43094D01*
X46962Y-43713D01*
X49268Y-42476D02*
X48256Y-43994D01*
X50787Y-42532D02*
X50899Y-42532D01*
X51012Y-42588D01*
X51068Y-42644D01*
X51124Y-42757D01*
X51181Y-42982D01*
X51181Y-43263D01*
X51124Y-43488D01*
X51068Y-43600D01*
X51012Y-43657D01*
X50899Y-43713D01*
X50787Y-43713D01*
X50674Y-43657D01*
X50618Y-43600D01*
X50562Y-43488D01*
X50506Y-43263D01*
X50506Y-42982D01*
X50562Y-42757D01*
X50618Y-42644D01*
X50674Y-42588D01*
X50787Y-42532D01*
X51687Y-43600D02*
X51743Y-43657D01*
X51687Y-43713D01*
X51631Y-43657D01*
X51687Y-43600D01*
X51687Y-43713D01*
X52474Y-42532D02*
X52587Y-42532D01*
X52699Y-42588D01*
X52755Y-42644D01*
X52812Y-42757D01*
X52868Y-42982D01*
X52868Y-43263D01*
X52812Y-43488D01*
X52755Y-43600D01*
X52699Y-43657D01*
X52587Y-43713D01*
X52474Y-43713D01*
X52362Y-43657D01*
X52305Y-43600D01*
X52249Y-43488D01*
X52193Y-43263D01*
X52193Y-42982D01*
X52249Y-42757D01*
X52305Y-42644D01*
X52362Y-42588D01*
X52474Y-42532D01*
X53993Y-43713D02*
X53318Y-43713D01*
X53655Y-43713D02*
X53655Y-42532D01*
X53543Y-42701D01*
X53430Y-42813D01*
X53318Y-42869D01*
X54443Y-42644D02*
X54499Y-42588D01*
X54611Y-42532D01*
X54893Y-42532D01*
X55005Y-42588D01*
X55061Y-42644D01*
X55118Y-42757D01*
X55118Y-42869D01*
X55061Y-43038D01*
X54386Y-43713D01*
X55118Y-43713D01*
X55568Y-42532D02*
X55568Y-42757D01*
X56017Y-42532D02*
X56017Y-42757D01*
X57761Y-44163D02*
X57705Y-44107D01*
X57592Y-43938D01*
X57536Y-43825D01*
X57480Y-43657D01*
X57424Y-43375D01*
X57424Y-43151D01*
X57480Y-42869D01*
X57536Y-42701D01*
X57592Y-42588D01*
X57705Y-42419D01*
X57761Y-42363D01*
X58380Y-43038D02*
X58267Y-42982D01*
X58211Y-42926D01*
X58155Y-42813D01*
X58155Y-42757D01*
X58211Y-42644D01*
X58267Y-42588D01*
X58380Y-42532D01*
X58605Y-42532D01*
X58717Y-42588D01*
X58773Y-42644D01*
X58830Y-42757D01*
X58830Y-42813D01*
X58773Y-42926D01*
X58717Y-42982D01*
X58605Y-43038D01*
X58380Y-43038D01*
X58267Y-43094D01*
X58211Y-43151D01*
X58155Y-43263D01*
X58155Y-43488D01*
X58211Y-43600D01*
X58267Y-43657D01*
X58380Y-43713D01*
X58605Y-43713D01*
X58717Y-43657D01*
X58773Y-43600D01*
X58830Y-43488D01*
X58830Y-43263D01*
X58773Y-43151D01*
X58717Y-43094D01*
X58605Y-43038D01*
X59842Y-42532D02*
X59617Y-42532D01*
X59505Y-42588D01*
X59448Y-42644D01*
X59336Y-42813D01*
X59280Y-43038D01*
X59280Y-43488D01*
X59336Y-43600D01*
X59392Y-43657D01*
X59505Y-43713D01*
X59730Y-43713D01*
X59842Y-43657D01*
X59898Y-43600D01*
X59955Y-43488D01*
X59955Y-43207D01*
X59898Y-43094D01*
X59842Y-43038D01*
X59730Y-42982D01*
X59505Y-42982D01*
X59392Y-43038D01*
X59336Y-43094D01*
X59280Y-43207D01*
X61361Y-43713D02*
X61361Y-42532D01*
X61867Y-43713D02*
X61867Y-43094D01*
X61811Y-42982D01*
X61698Y-42926D01*
X61529Y-42926D01*
X61417Y-42982D01*
X61361Y-43038D01*
X62598Y-43713D02*
X62485Y-43657D01*
X62429Y-43600D01*
X62373Y-43488D01*
X62373Y-43151D01*
X62429Y-43038D01*
X62485Y-42982D01*
X62598Y-42926D01*
X62767Y-42926D01*
X62879Y-42982D01*
X62935Y-43038D01*
X62992Y-43151D01*
X62992Y-43488D01*
X62935Y-43600D01*
X62879Y-43657D01*
X62767Y-43713D01*
X62598Y-43713D01*
X63667Y-43713D02*
X63554Y-43657D01*
X63498Y-43544D01*
X63498Y-42532D01*
X64566Y-43657D02*
X64454Y-43713D01*
X64229Y-43713D01*
X64116Y-43657D01*
X64060Y-43544D01*
X64060Y-43094D01*
X64116Y-42982D01*
X64229Y-42926D01*
X64454Y-42926D01*
X64566Y-42982D01*
X64623Y-43094D01*
X64623Y-43207D01*
X64060Y-43319D01*
X65073Y-43657D02*
X65185Y-43713D01*
X65410Y-43713D01*
X65523Y-43657D01*
X65579Y-43544D01*
X65579Y-43488D01*
X65523Y-43375D01*
X65410Y-43319D01*
X65241Y-43319D01*
X65129Y-43263D01*
X65073Y-43151D01*
X65073Y-43094D01*
X65129Y-42982D01*
X65241Y-42926D01*
X65410Y-42926D01*
X65523Y-42982D01*
X65973Y-44163D02*
X66029Y-44107D01*
X66141Y-43938D01*
X66197Y-43825D01*
X66254Y-43657D01*
X66310Y-43375D01*
X66310Y-43151D01*
X66254Y-42869D01*
X66197Y-42701D01*
X66141Y-42588D01*
X66029Y-42419D01*
X65973Y-42363D01*
G54D12*
X39370Y-44738D02*
G75*
G03X39370Y-44738I-98J0D01*
G74*
G01*
G54D13*
X40663Y-44091D02*
X40776Y-44091D01*
X40888Y-44147D01*
X40944Y-44203D01*
X41001Y-44316D01*
X41057Y-44541D01*
X41057Y-44822D01*
X41001Y-45047D01*
X40944Y-45160D01*
X40888Y-45216D01*
X40776Y-45272D01*
X40663Y-45272D01*
X40551Y-45216D01*
X40494Y-45160D01*
X40438Y-45047D01*
X40382Y-44822D01*
X40382Y-44541D01*
X40438Y-44316D01*
X40494Y-44203D01*
X40551Y-44147D01*
X40663Y-44091D01*
X41563Y-45160D02*
X41619Y-45216D01*
X41563Y-45272D01*
X41507Y-45216D01*
X41563Y-45160D01*
X41563Y-45272D01*
X42688Y-44091D02*
X42125Y-44091D01*
X42069Y-44653D01*
X42125Y-44597D01*
X42238Y-44541D01*
X42519Y-44541D01*
X42632Y-44597D01*
X42688Y-44653D01*
X42744Y-44766D01*
X42744Y-45047D01*
X42688Y-45160D01*
X42632Y-45216D01*
X42519Y-45272D01*
X42238Y-45272D01*
X42125Y-45216D01*
X42069Y-45160D01*
X43475Y-44091D02*
X43588Y-44091D01*
X43700Y-44147D01*
X43757Y-44203D01*
X43813Y-44316D01*
X43869Y-44541D01*
X43869Y-44822D01*
X43813Y-45047D01*
X43757Y-45160D01*
X43700Y-45216D01*
X43588Y-45272D01*
X43475Y-45272D01*
X43363Y-45216D01*
X43307Y-45160D01*
X43250Y-45047D01*
X43194Y-44822D01*
X43194Y-44541D01*
X43250Y-44316D01*
X43307Y-44203D01*
X43363Y-44147D01*
X43475Y-44091D01*
X44375Y-45272D02*
X44375Y-44485D01*
X44375Y-44597D02*
X44431Y-44541D01*
X44544Y-44485D01*
X44713Y-44485D01*
X44825Y-44541D01*
X44881Y-44653D01*
X44881Y-45272D01*
X44881Y-44653D02*
X44938Y-44541D01*
X45050Y-44485D01*
X45219Y-44485D01*
X45331Y-44541D01*
X45388Y-44653D01*
X45388Y-45272D01*
X45950Y-45272D02*
X45950Y-44485D01*
X45950Y-44597D02*
X46006Y-44541D01*
X46119Y-44485D01*
X46287Y-44485D01*
X46400Y-44541D01*
X46456Y-44653D01*
X46456Y-45272D01*
X46456Y-44653D02*
X46512Y-44541D01*
X46625Y-44485D01*
X46794Y-44485D01*
X46906Y-44541D01*
X46962Y-44653D01*
X46962Y-45272D01*
X49268Y-44035D02*
X48256Y-45553D01*
X50787Y-44091D02*
X50899Y-44091D01*
X51012Y-44147D01*
X51068Y-44203D01*
X51124Y-44316D01*
X51181Y-44541D01*
X51181Y-44822D01*
X51124Y-45047D01*
X51068Y-45160D01*
X51012Y-45216D01*
X50899Y-45272D01*
X50787Y-45272D01*
X50674Y-45216D01*
X50618Y-45160D01*
X50562Y-45047D01*
X50506Y-44822D01*
X50506Y-44541D01*
X50562Y-44316D01*
X50618Y-44203D01*
X50674Y-44147D01*
X50787Y-44091D01*
X51687Y-45160D02*
X51743Y-45216D01*
X51687Y-45272D01*
X51631Y-45216D01*
X51687Y-45160D01*
X51687Y-45272D01*
X52474Y-44091D02*
X52587Y-44091D01*
X52699Y-44147D01*
X52755Y-44203D01*
X52812Y-44316D01*
X52868Y-44541D01*
X52868Y-44822D01*
X52812Y-45047D01*
X52755Y-45160D01*
X52699Y-45216D01*
X52587Y-45272D01*
X52474Y-45272D01*
X52362Y-45216D01*
X52305Y-45160D01*
X52249Y-45047D01*
X52193Y-44822D01*
X52193Y-44541D01*
X52249Y-44316D01*
X52305Y-44203D01*
X52362Y-44147D01*
X52474Y-44091D01*
X53318Y-44203D02*
X53374Y-44147D01*
X53487Y-44091D01*
X53768Y-44091D01*
X53880Y-44147D01*
X53937Y-44203D01*
X53993Y-44316D01*
X53993Y-44428D01*
X53937Y-44597D01*
X53262Y-45272D01*
X53993Y-45272D01*
X54724Y-44091D02*
X54836Y-44091D01*
X54949Y-44147D01*
X55005Y-44203D01*
X55061Y-44316D01*
X55118Y-44541D01*
X55118Y-44822D01*
X55061Y-45047D01*
X55005Y-45160D01*
X54949Y-45216D01*
X54836Y-45272D01*
X54724Y-45272D01*
X54611Y-45216D01*
X54555Y-45160D01*
X54499Y-45047D01*
X54443Y-44822D01*
X54443Y-44541D01*
X54499Y-44316D01*
X54555Y-44203D01*
X54611Y-44147D01*
X54724Y-44091D01*
X55568Y-44091D02*
X55568Y-44316D01*
X56017Y-44091D02*
X56017Y-44316D01*
X57761Y-45722D02*
X57705Y-45666D01*
X57592Y-45497D01*
X57536Y-45384D01*
X57480Y-45216D01*
X57424Y-44935D01*
X57424Y-44710D01*
X57480Y-44428D01*
X57536Y-44260D01*
X57592Y-44147D01*
X57705Y-43978D01*
X57761Y-43922D01*
X58155Y-44203D02*
X58211Y-44147D01*
X58323Y-44091D01*
X58605Y-44091D01*
X58717Y-44147D01*
X58773Y-44203D01*
X58830Y-44316D01*
X58830Y-44428D01*
X58773Y-44597D01*
X58098Y-45272D01*
X58830Y-45272D01*
X60236Y-45272D02*
X60236Y-44091D01*
X60742Y-45272D02*
X60742Y-44653D01*
X60686Y-44541D01*
X60573Y-44485D01*
X60404Y-44485D01*
X60292Y-44541D01*
X60236Y-44597D01*
X61473Y-45272D02*
X61361Y-45216D01*
X61304Y-45160D01*
X61248Y-45047D01*
X61248Y-44710D01*
X61304Y-44597D01*
X61361Y-44541D01*
X61473Y-44485D01*
X61642Y-44485D01*
X61754Y-44541D01*
X61811Y-44597D01*
X61867Y-44710D01*
X61867Y-45047D01*
X61811Y-45160D01*
X61754Y-45216D01*
X61642Y-45272D01*
X61473Y-45272D01*
X62542Y-45272D02*
X62429Y-45216D01*
X62373Y-45103D01*
X62373Y-44091D01*
X63442Y-45216D02*
X63329Y-45272D01*
X63104Y-45272D01*
X62992Y-45216D01*
X62935Y-45103D01*
X62935Y-44653D01*
X62992Y-44541D01*
X63104Y-44485D01*
X63329Y-44485D01*
X63442Y-44541D01*
X63498Y-44653D01*
X63498Y-44766D01*
X62935Y-44878D01*
X63948Y-45216D02*
X64060Y-45272D01*
X64285Y-45272D01*
X64398Y-45216D01*
X64454Y-45103D01*
X64454Y-45047D01*
X64398Y-44935D01*
X64285Y-44878D01*
X64116Y-44878D01*
X64004Y-44822D01*
X63948Y-44710D01*
X63948Y-44653D01*
X64004Y-44541D01*
X64116Y-44485D01*
X64285Y-44485D01*
X64398Y-44541D01*
X64848Y-45722D02*
X64904Y-45666D01*
X65016Y-45497D01*
X65073Y-45384D01*
X65129Y-45216D01*
X65185Y-44935D01*
X65185Y-44710D01*
X65129Y-44428D01*
X65073Y-44260D01*
X65016Y-44147D01*
X64904Y-43978D01*
X64848Y-43922D01*
X39170Y-46097D02*
X39170Y-46497D01*
X38970Y-46297D02*
X39370Y-46297D01*
X41057Y-46831D02*
X40382Y-46831D01*
X40719Y-46831D02*
X40719Y-45650D01*
X40607Y-45819D01*
X40494Y-45931D01*
X40382Y-45987D01*
X41563Y-46719D02*
X41619Y-46775D01*
X41563Y-46831D01*
X41507Y-46775D01*
X41563Y-46719D01*
X41563Y-46831D01*
X42350Y-45650D02*
X42463Y-45650D01*
X42575Y-45706D01*
X42632Y-45762D01*
X42688Y-45875D01*
X42744Y-46100D01*
X42744Y-46381D01*
X42688Y-46606D01*
X42632Y-46719D01*
X42575Y-46775D01*
X42463Y-46831D01*
X42350Y-46831D01*
X42238Y-46775D01*
X42182Y-46719D01*
X42125Y-46606D01*
X42069Y-46381D01*
X42069Y-46100D01*
X42125Y-45875D01*
X42182Y-45762D01*
X42238Y-45706D01*
X42350Y-45650D01*
X43194Y-45762D02*
X43250Y-45706D01*
X43363Y-45650D01*
X43644Y-45650D01*
X43757Y-45706D01*
X43813Y-45762D01*
X43869Y-45875D01*
X43869Y-45987D01*
X43813Y-46156D01*
X43138Y-46831D01*
X43869Y-46831D01*
X44375Y-46831D02*
X44375Y-46044D01*
X44375Y-46156D02*
X44431Y-46100D01*
X44544Y-46044D01*
X44713Y-46044D01*
X44825Y-46100D01*
X44881Y-46212D01*
X44881Y-46831D01*
X44881Y-46212D02*
X44938Y-46100D01*
X45050Y-46044D01*
X45219Y-46044D01*
X45331Y-46100D01*
X45388Y-46212D01*
X45388Y-46831D01*
X45950Y-46831D02*
X45950Y-46044D01*
X45950Y-46156D02*
X46006Y-46100D01*
X46119Y-46044D01*
X46287Y-46044D01*
X46400Y-46100D01*
X46456Y-46212D01*
X46456Y-46831D01*
X46456Y-46212D02*
X46512Y-46100D01*
X46625Y-46044D01*
X46794Y-46044D01*
X46906Y-46100D01*
X46962Y-46212D01*
X46962Y-46831D01*
X49268Y-45594D02*
X48256Y-47112D01*
X50787Y-45650D02*
X50899Y-45650D01*
X51012Y-45706D01*
X51068Y-45762D01*
X51124Y-45875D01*
X51181Y-46100D01*
X51181Y-46381D01*
X51124Y-46606D01*
X51068Y-46719D01*
X51012Y-46775D01*
X50899Y-46831D01*
X50787Y-46831D01*
X50674Y-46775D01*
X50618Y-46719D01*
X50562Y-46606D01*
X50506Y-46381D01*
X50506Y-46100D01*
X50562Y-45875D01*
X50618Y-45762D01*
X50674Y-45706D01*
X50787Y-45650D01*
X51687Y-46719D02*
X51743Y-46775D01*
X51687Y-46831D01*
X51631Y-46775D01*
X51687Y-46719D01*
X51687Y-46831D01*
X52474Y-45650D02*
X52587Y-45650D01*
X52699Y-45706D01*
X52755Y-45762D01*
X52812Y-45875D01*
X52868Y-46100D01*
X52868Y-46381D01*
X52812Y-46606D01*
X52755Y-46719D01*
X52699Y-46775D01*
X52587Y-46831D01*
X52474Y-46831D01*
X52362Y-46775D01*
X52305Y-46719D01*
X52249Y-46606D01*
X52193Y-46381D01*
X52193Y-46100D01*
X52249Y-45875D01*
X52305Y-45762D01*
X52362Y-45706D01*
X52474Y-45650D01*
X53880Y-46044D02*
X53880Y-46831D01*
X53599Y-45594D02*
X53318Y-46437D01*
X54049Y-46437D01*
X54724Y-45650D02*
X54836Y-45650D01*
X54949Y-45706D01*
X55005Y-45762D01*
X55061Y-45875D01*
X55118Y-46100D01*
X55118Y-46381D01*
X55061Y-46606D01*
X55005Y-46719D01*
X54949Y-46775D01*
X54836Y-46831D01*
X54724Y-46831D01*
X54611Y-46775D01*
X54555Y-46719D01*
X54499Y-46606D01*
X54443Y-46381D01*
X54443Y-46100D01*
X54499Y-45875D01*
X54555Y-45762D01*
X54611Y-45706D01*
X54724Y-45650D01*
X55568Y-45650D02*
X55568Y-45875D01*
X56017Y-45650D02*
X56017Y-45875D01*
X57761Y-47281D02*
X57705Y-47225D01*
X57592Y-47056D01*
X57536Y-46944D01*
X57480Y-46775D01*
X57424Y-46494D01*
X57424Y-46269D01*
X57480Y-45987D01*
X57536Y-45819D01*
X57592Y-45706D01*
X57705Y-45537D01*
X57761Y-45481D01*
X58098Y-45650D02*
X58830Y-45650D01*
X58436Y-46100D01*
X58605Y-46100D01*
X58717Y-46156D01*
X58773Y-46212D01*
X58830Y-46325D01*
X58830Y-46606D01*
X58773Y-46719D01*
X58717Y-46775D01*
X58605Y-46831D01*
X58267Y-46831D01*
X58155Y-46775D01*
X58098Y-46719D01*
X60236Y-46831D02*
X60236Y-45650D01*
X60742Y-46831D02*
X60742Y-46212D01*
X60686Y-46100D01*
X60573Y-46044D01*
X60404Y-46044D01*
X60292Y-46100D01*
X60236Y-46156D01*
X61473Y-46831D02*
X61361Y-46775D01*
X61304Y-46719D01*
X61248Y-46606D01*
X61248Y-46269D01*
X61304Y-46156D01*
X61361Y-46100D01*
X61473Y-46044D01*
X61642Y-46044D01*
X61754Y-46100D01*
X61811Y-46156D01*
X61867Y-46269D01*
X61867Y-46606D01*
X61811Y-46719D01*
X61754Y-46775D01*
X61642Y-46831D01*
X61473Y-46831D01*
X62542Y-46831D02*
X62429Y-46775D01*
X62373Y-46662D01*
X62373Y-45650D01*
X63442Y-46775D02*
X63329Y-46831D01*
X63104Y-46831D01*
X62992Y-46775D01*
X62935Y-46662D01*
X62935Y-46212D01*
X62992Y-46100D01*
X63104Y-46044D01*
X63329Y-46044D01*
X63442Y-46100D01*
X63498Y-46212D01*
X63498Y-46325D01*
X62935Y-46437D01*
X63948Y-46775D02*
X64060Y-46831D01*
X64285Y-46831D01*
X64398Y-46775D01*
X64454Y-46662D01*
X64454Y-46606D01*
X64398Y-46494D01*
X64285Y-46437D01*
X64116Y-46437D01*
X64004Y-46381D01*
X63948Y-46269D01*
X63948Y-46212D01*
X64004Y-46100D01*
X64116Y-46044D01*
X64285Y-46044D01*
X64398Y-46100D01*
X64848Y-47281D02*
X64904Y-47225D01*
X65016Y-47056D01*
X65073Y-46944D01*
X65129Y-46775D01*
X65185Y-46494D01*
X65185Y-46269D01*
X65129Y-45987D01*
X65073Y-45819D01*
X65016Y-45706D01*
X64904Y-45537D01*
X64848Y-45481D01*
M02*
