G04 (created by PCBNEW (2013-mar-13)-testing) date Tue 23 Jul 2013 09:24:16 PM ICT*
%MOIN*%
G04 Gerber Fmt 3.4, Leading zero omitted, Abs format*
%FSLAX34Y34*%
G01*
G70*
G90*
G04 APERTURE LIST*
%ADD10C,0.00393701*%
%ADD11C,0.00787402*%
%ADD12C,0.00590551*%
%ADD13C,0.005*%
%ADD14C,0.0031*%
%ADD15C,0.003*%
%ADD16C,0.0079*%
%ADD17C,0.000984252*%
%ADD18C,0.011811*%
%ADD19R,0.0472441X0.0748031*%
%ADD20R,0.153543X0.11811*%
%ADD21R,0.0413386X0.0492126*%
%ADD22R,0.059048X0.055048*%
%ADD23R,0.055048X0.059048*%
%ADD24R,0.0748031X0.15748*%
%ADD25R,0.055148X0.047248*%
%ADD26R,0.027548X0.035348*%
%ADD27R,0.035348X0.027548*%
%ADD28R,0.228346X0.228346*%
%ADD29R,0.0472441X0.0551181*%
%ADD30R,0.0354331X0.0354331*%
%ADD31R,0.065748X0.065748*%
%ADD32R,0.037448X0.027548*%
%ADD33R,0.114173X0.114173*%
%ADD34R,0.0472441X0.0275591*%
%ADD35R,0.0275591X0.0472441*%
%ADD36R,0.0275591X0.047248*%
%ADD37R,0.0393701X0.0354331*%
%ADD38R,0.0669291X0.0511811*%
%ADD39R,0.0905512X0.0511811*%
%ADD40R,0.122047X0.0826772*%
%ADD41R,0.0314961X0.0452756*%
%ADD42R,0.0275591X0.0452756*%
%ADD43R,0.0944882X0.065748*%
%ADD44R,0.0433071X0.0354331*%
%ADD45R,0.0354331X0.0433071*%
%ADD46R,0.0433071X0.0511811*%
%ADD47R,0.0669291X0.0708661*%
%ADD48C,0.133858*%
G04 APERTURE END LIST*
G54D10*
X39370Y-39370D02*
X39370Y-29527D01*
G54D11*
X44281Y-30610D02*
X44448Y-30777D01*
X47411Y-31141D02*
X47559Y-31141D01*
X47411Y-30974D02*
X47411Y-31141D01*
G54D10*
X44955Y-36172D02*
X44955Y-36490D01*
X44974Y-36528D01*
X44993Y-36547D01*
X45030Y-36565D01*
X45105Y-36565D01*
X45143Y-36547D01*
X45162Y-36528D01*
X45180Y-36490D01*
X45180Y-36172D01*
X45330Y-36172D02*
X45574Y-36172D01*
X45443Y-36322D01*
X45499Y-36322D01*
X45537Y-36340D01*
X45555Y-36359D01*
X45574Y-36397D01*
X45574Y-36490D01*
X45555Y-36528D01*
X45537Y-36547D01*
X45499Y-36565D01*
X45387Y-36565D01*
X45349Y-36547D01*
X45330Y-36528D01*
X44949Y-38768D02*
X45005Y-38925D01*
X45061Y-38768D01*
X45151Y-38903D02*
X45163Y-38914D01*
X45151Y-38925D01*
X45140Y-38914D01*
X45151Y-38903D01*
X45151Y-38925D01*
X45309Y-38689D02*
X45331Y-38689D01*
X45354Y-38700D01*
X45365Y-38712D01*
X45376Y-38734D01*
X45388Y-38779D01*
X45388Y-38835D01*
X45376Y-38880D01*
X45365Y-38903D01*
X45354Y-38914D01*
X45331Y-38925D01*
X45309Y-38925D01*
X45286Y-38914D01*
X45275Y-38903D01*
X45264Y-38880D01*
X45253Y-38835D01*
X45253Y-38779D01*
X45264Y-38734D01*
X45275Y-38712D01*
X45286Y-38700D01*
X45309Y-38689D01*
X45489Y-38903D02*
X45500Y-38914D01*
X45489Y-38925D01*
X45478Y-38914D01*
X45489Y-38903D01*
X45489Y-38925D01*
X45579Y-38689D02*
X45725Y-38689D01*
X45646Y-38779D01*
X45680Y-38779D01*
X45703Y-38790D01*
X45714Y-38802D01*
X45725Y-38824D01*
X45725Y-38880D01*
X45714Y-38903D01*
X45703Y-38914D01*
X45680Y-38925D01*
X45613Y-38925D01*
X45590Y-38914D01*
X45579Y-38903D01*
X45826Y-38903D02*
X45838Y-38914D01*
X45826Y-38925D01*
X45815Y-38914D01*
X45826Y-38903D01*
X45826Y-38925D01*
X45984Y-38689D02*
X46006Y-38689D01*
X46029Y-38700D01*
X46040Y-38712D01*
X46051Y-38734D01*
X46062Y-38779D01*
X46062Y-38835D01*
X46051Y-38880D01*
X46040Y-38903D01*
X46029Y-38914D01*
X46006Y-38925D01*
X45984Y-38925D01*
X45961Y-38914D01*
X45950Y-38903D01*
X45939Y-38880D01*
X45928Y-38835D01*
X45928Y-38779D01*
X45939Y-38734D01*
X45950Y-38712D01*
X45961Y-38700D01*
X45984Y-38689D01*
G54D11*
X43095Y-38454D02*
X43095Y-37954D01*
X43380Y-38454D02*
X43166Y-38168D01*
X43380Y-37954D02*
X43095Y-38240D01*
X43666Y-38454D02*
X43619Y-38430D01*
X43595Y-38383D01*
X43595Y-37954D01*
X43928Y-38454D02*
X43880Y-38430D01*
X43857Y-38406D01*
X43833Y-38359D01*
X43833Y-38216D01*
X43857Y-38168D01*
X43880Y-38145D01*
X43928Y-38121D01*
X44000Y-38121D01*
X44047Y-38145D01*
X44071Y-38168D01*
X44095Y-38216D01*
X44095Y-38359D01*
X44071Y-38406D01*
X44047Y-38430D01*
X44000Y-38454D01*
X43928Y-38454D01*
X44309Y-38121D02*
X44309Y-38454D01*
X44309Y-38168D02*
X44333Y-38145D01*
X44380Y-38121D01*
X44452Y-38121D01*
X44500Y-38145D01*
X44523Y-38192D01*
X44523Y-38454D01*
X44976Y-38454D02*
X44976Y-37954D01*
X44976Y-38430D02*
X44928Y-38454D01*
X44833Y-38454D01*
X44785Y-38430D01*
X44761Y-38406D01*
X44738Y-38359D01*
X44738Y-38216D01*
X44761Y-38168D01*
X44785Y-38145D01*
X44833Y-38121D01*
X44928Y-38121D01*
X44976Y-38145D01*
X45214Y-38454D02*
X45214Y-38121D01*
X45214Y-37954D02*
X45190Y-37978D01*
X45214Y-38002D01*
X45238Y-37978D01*
X45214Y-37954D01*
X45214Y-38002D01*
X45452Y-38454D02*
X45452Y-37954D01*
X45500Y-38264D02*
X45642Y-38454D01*
X45642Y-38121D02*
X45452Y-38311D01*
X46047Y-38430D02*
X46000Y-38454D01*
X45904Y-38454D01*
X45857Y-38430D01*
X45833Y-38383D01*
X45833Y-38192D01*
X45857Y-38145D01*
X45904Y-38121D01*
X46000Y-38121D01*
X46047Y-38145D01*
X46071Y-38192D01*
X46071Y-38240D01*
X45833Y-38287D01*
X46928Y-38454D02*
X46642Y-38454D01*
X46785Y-38454D02*
X46785Y-37954D01*
X46738Y-38025D01*
X46690Y-38073D01*
X46642Y-38097D01*
G54D12*
X53681Y-32066D02*
X53681Y-29527D01*
X59055Y-32066D02*
X53681Y-32066D01*
X53681Y-36830D02*
X53681Y-39370D01*
X59055Y-36830D02*
X53681Y-36830D01*
G54D11*
X39370Y-29527D02*
X53681Y-29527D01*
G54D10*
X59055Y-32066D02*
X59055Y-36830D01*
X53681Y-39370D02*
X39370Y-39370D01*
G54D13*
X49776Y-37392D02*
X49776Y-37442D01*
X49776Y-37442D02*
X51876Y-37442D01*
X51876Y-35942D02*
X49776Y-35942D01*
X49776Y-35942D02*
X49776Y-37392D01*
X49776Y-36492D02*
X49976Y-36492D01*
X49976Y-36492D02*
X49976Y-36892D01*
X49976Y-36892D02*
X49776Y-36892D01*
X51876Y-35942D02*
X51876Y-37442D01*
G54D12*
X47372Y-31309D02*
X46387Y-31309D01*
X46387Y-31309D02*
X46387Y-32096D01*
X46387Y-32096D02*
X47372Y-32096D01*
X47372Y-32096D02*
X47372Y-31309D01*
X48976Y-37913D02*
X48976Y-36338D01*
X48976Y-36338D02*
X47401Y-36338D01*
X47401Y-36338D02*
X47401Y-37913D01*
X47401Y-37913D02*
X48976Y-37913D01*
G54D14*
X52582Y-36249D02*
G75*
G03X52582Y-36249I-62J0D01*
G74*
G01*
X52857Y-37212D02*
X52457Y-37212D01*
X52857Y-36187D02*
X52457Y-36187D01*
X52457Y-37212D02*
X52457Y-36187D01*
X52857Y-36187D02*
X52857Y-37212D01*
G54D13*
X42176Y-33357D02*
X42176Y-36111D01*
X42176Y-36111D02*
X44930Y-36111D01*
X44930Y-36111D02*
X44930Y-33357D01*
X44930Y-33357D02*
X42176Y-33357D01*
X44733Y-35816D02*
G75*
G03X44733Y-35816I-98J0D01*
G74*
G01*
X49253Y-29775D02*
X49253Y-30775D01*
X49253Y-30775D02*
X44250Y-30775D01*
X44250Y-30765D02*
X44250Y-29765D01*
X44250Y-29775D02*
X49253Y-29775D01*
G54D15*
X45590Y-30827D02*
X45472Y-30945D01*
X45708Y-30827D02*
X45708Y-31535D01*
X45708Y-31535D02*
X45472Y-31535D01*
X45472Y-31535D02*
X45472Y-30827D01*
X45472Y-30827D02*
X45708Y-30827D01*
G54D16*
X49852Y-31250D02*
X49753Y-31348D01*
X49753Y-32824D02*
X49753Y-31348D01*
X51328Y-32824D02*
X49753Y-32824D01*
X51328Y-31250D02*
X51328Y-32824D01*
X49852Y-31250D02*
X51328Y-31250D01*
G54D13*
X47085Y-33915D02*
X47085Y-34115D01*
X47085Y-34115D02*
X47555Y-34115D01*
X47085Y-33915D02*
X47555Y-33915D01*
X47085Y-33325D02*
X47555Y-33325D01*
X47085Y-33525D02*
X47555Y-33525D01*
X47085Y-33325D02*
X47085Y-33525D01*
X47085Y-32735D02*
X47085Y-32935D01*
X47085Y-32935D02*
X47555Y-32935D01*
X47085Y-32735D02*
X47555Y-32735D01*
X48780Y-33070D02*
X48780Y-33780D01*
X48780Y-33780D02*
X48585Y-33780D01*
X48780Y-33070D02*
X48585Y-33070D01*
X47555Y-32520D02*
X48585Y-32520D01*
X48585Y-32520D02*
X48585Y-34330D01*
X48585Y-34330D02*
X47555Y-34330D01*
X47555Y-34330D02*
X47555Y-32520D01*
G54D17*
X44035Y-31338D02*
X43248Y-31338D01*
X43248Y-31338D02*
X43248Y-32244D01*
X43248Y-32244D02*
X44035Y-32244D01*
X44035Y-32244D02*
X44035Y-31338D01*
G54D12*
X40324Y-33533D02*
X38454Y-33533D01*
X38454Y-33533D02*
X38464Y-33346D01*
X38464Y-33346D02*
X40334Y-33346D01*
X40334Y-33346D02*
X40334Y-33523D01*
X40334Y-34537D02*
X38454Y-34537D01*
X38464Y-34537D02*
X38464Y-34350D01*
X38464Y-34350D02*
X40334Y-34350D01*
X40334Y-34350D02*
X40334Y-34537D01*
X40354Y-35354D02*
X40354Y-35531D01*
X40354Y-35531D02*
X40344Y-35521D01*
X40354Y-35531D02*
X38454Y-35531D01*
X38454Y-35531D02*
X38454Y-35364D01*
X38454Y-35364D02*
X40354Y-35364D01*
X38464Y-35944D02*
X38464Y-32952D01*
X38464Y-32952D02*
X37480Y-32952D01*
X37480Y-32952D02*
X37480Y-35944D01*
X37480Y-35944D02*
X38464Y-35944D01*
G54D13*
X49310Y-39006D02*
X49310Y-38218D01*
X49113Y-39006D02*
X50295Y-39006D01*
X50295Y-39006D02*
X50295Y-38218D01*
X50295Y-38218D02*
X49113Y-38218D01*
X49113Y-38218D02*
X49113Y-39006D01*
G54D18*
X52598Y-30511D02*
G75*
G03X52598Y-30511I-787J0D01*
G74*
G01*
X41929Y-38385D02*
G75*
G03X41929Y-38385I-787J0D01*
G74*
G01*
%LPC*%
G54D19*
X50076Y-35708D03*
X50076Y-37677D03*
X50576Y-35708D03*
X51076Y-35708D03*
X51576Y-35708D03*
X50576Y-37677D03*
X51076Y-37677D03*
X51576Y-37677D03*
G54D20*
X50826Y-36692D03*
G54D21*
X46555Y-32007D03*
X47204Y-32007D03*
X46555Y-31397D03*
X47204Y-31397D03*
G54D22*
X50896Y-38661D03*
X51564Y-38661D03*
G54D23*
X49389Y-35630D03*
X49389Y-36298D03*
X49409Y-36910D03*
X49409Y-37578D03*
X51023Y-34979D03*
X51023Y-34311D03*
G54D22*
X48542Y-35905D03*
X47874Y-35905D03*
X48542Y-35374D03*
X47874Y-35374D03*
G54D24*
X48681Y-37125D03*
X47696Y-37125D03*
G54D23*
X53090Y-35786D03*
X53090Y-35118D03*
X52224Y-37756D03*
X52224Y-38424D03*
G54D25*
X53090Y-36712D03*
X52224Y-37087D03*
X52224Y-36337D03*
G54D22*
X47874Y-34724D03*
X48542Y-34724D03*
G54D26*
X44635Y-36111D03*
X44438Y-36111D03*
X44241Y-36111D03*
X44045Y-36111D03*
X43848Y-36111D03*
X43651Y-36111D03*
X43455Y-36111D03*
X43258Y-36111D03*
X43061Y-36111D03*
X42865Y-36111D03*
X42668Y-36111D03*
X42471Y-36111D03*
G54D27*
X42176Y-35816D03*
X42176Y-35619D03*
X42176Y-35422D03*
X42176Y-35226D03*
X42176Y-35029D03*
X42176Y-34832D03*
X42176Y-34636D03*
X42176Y-34439D03*
X42176Y-34242D03*
X42176Y-34046D03*
X42176Y-33849D03*
X42176Y-33652D03*
G54D26*
X42471Y-33357D03*
X42668Y-33357D03*
X42865Y-33357D03*
X43061Y-33357D03*
X43258Y-33357D03*
X43455Y-33357D03*
X43651Y-33357D03*
X43848Y-33357D03*
X44045Y-33357D03*
X44241Y-33357D03*
X44438Y-33357D03*
X44635Y-33357D03*
G54D27*
X44930Y-33652D03*
X44930Y-33849D03*
X44930Y-34046D03*
X44930Y-34242D03*
X44930Y-34439D03*
X44930Y-34636D03*
X44930Y-34832D03*
X44930Y-35029D03*
X44930Y-35226D03*
X44930Y-35422D03*
X44930Y-35619D03*
X44930Y-35816D03*
G54D28*
X43553Y-34734D03*
G54D23*
X47844Y-31358D03*
X47844Y-32026D03*
G54D29*
X45787Y-34527D03*
X46417Y-34527D03*
G54D30*
X52657Y-32027D03*
X52657Y-32381D03*
X53070Y-32027D03*
X53070Y-32381D03*
G54D31*
X47753Y-30275D03*
X46753Y-30275D03*
X45753Y-30275D03*
X48753Y-30275D03*
X44753Y-30275D03*
G54D32*
X45873Y-30984D03*
X45873Y-31181D03*
X45873Y-31378D03*
X45307Y-31378D03*
X45307Y-31181D03*
X45307Y-30984D03*
G54D33*
X50541Y-32037D03*
G54D34*
X49767Y-31643D03*
X49767Y-31840D03*
X49767Y-32037D03*
X49767Y-32234D03*
X49767Y-32431D03*
G54D35*
X50147Y-32811D03*
X50344Y-32811D03*
X50541Y-32811D03*
X50738Y-32811D03*
X50935Y-32811D03*
G54D34*
X51314Y-32431D03*
X51314Y-32234D03*
X51314Y-32037D03*
X51314Y-31840D03*
X51314Y-31643D03*
G54D36*
X50935Y-31263D03*
X50738Y-31263D03*
X50541Y-31263D03*
X50344Y-31263D03*
X50147Y-31263D03*
G54D37*
X44064Y-37549D03*
X44064Y-37155D03*
G54D38*
X47322Y-32834D03*
G54D39*
X47420Y-33425D03*
G54D38*
X47322Y-34016D03*
G54D40*
X48307Y-33425D03*
G54D41*
X43956Y-32332D03*
X43326Y-32332D03*
G54D42*
X43543Y-32332D03*
X43740Y-32332D03*
X43740Y-31250D03*
X43543Y-31250D03*
G54D41*
X43326Y-31250D03*
X43956Y-31250D03*
G54D43*
X39960Y-34448D03*
X39960Y-33444D03*
X39960Y-35452D03*
G54D44*
X52244Y-32431D03*
X52244Y-32037D03*
G54D45*
X50748Y-30629D03*
X50354Y-30629D03*
X45629Y-32086D03*
X45236Y-32086D03*
X43435Y-30049D03*
X43828Y-30049D03*
X45905Y-35078D03*
X46299Y-35078D03*
X41456Y-33838D03*
X41062Y-33838D03*
G54D44*
X42893Y-37145D03*
X42893Y-37539D03*
X44744Y-32303D03*
X44744Y-31909D03*
G54D45*
X42480Y-32244D03*
X42086Y-32244D03*
X46062Y-33976D03*
X46456Y-33976D03*
X41456Y-35098D03*
X41062Y-35098D03*
X45905Y-35511D03*
X46299Y-35511D03*
G54D44*
X44921Y-37155D03*
X44921Y-37549D03*
X44488Y-37155D03*
X44488Y-37549D03*
G54D45*
X42480Y-32637D03*
X42086Y-32637D03*
G54D44*
X42460Y-37145D03*
X42460Y-37539D03*
G54D46*
X40059Y-36181D03*
X40649Y-36181D03*
X40059Y-36830D03*
X40649Y-36830D03*
X45531Y-32834D03*
X46122Y-32834D03*
X51594Y-33661D03*
X52185Y-33661D03*
X43907Y-30570D03*
X43316Y-30570D03*
X42145Y-30570D03*
X42736Y-30570D03*
X42145Y-31200D03*
X42736Y-31200D03*
X40492Y-31771D03*
X39901Y-31771D03*
X49862Y-34311D03*
X50452Y-34311D03*
X52185Y-34389D03*
X51594Y-34389D03*
X52185Y-34980D03*
X51594Y-34980D03*
G54D47*
X49133Y-38612D03*
X50275Y-38612D03*
G54D46*
X39901Y-31102D03*
X40492Y-31102D03*
G54D48*
X51811Y-30511D03*
X41141Y-38385D03*
M02*
