M48
;DRILL file {Pcbnew (2013-mar-13)-testing} date Sun 19 May 2013 09:45:03 PM ICT
;FORMAT={-:-/ absolute / inch / decimal}
FMAT,2
INCH,TZ
T1C0.012
T2C0.020
T3C0.040
%
G90
G05
M72
T1
X3.9921Y-3.8691
X4.0413Y-3.0522
X4.2087Y-3.2362
X4.2106Y-3.7087
X4.2677Y-3.3878
X4.2677Y-3.4311
X4.2677Y-3.4744
X4.2677Y-3.5177
X4.2677Y-3.561
X4.2697Y-3.7598
X4.2717Y-3.1851
X4.311Y-3.3878
X4.311Y-3.4311
X4.311Y-3.4744
X4.311Y-3.5177
X4.311Y-3.561
X4.3533Y-3.4734
X4.3533Y-3.5167
X4.3533Y-3.56
X4.3543Y-3.3878
X4.3543Y-3.4311
X4.3543Y-3.4744
X4.3543Y-3.4744
X4.3543Y-3.4744
X4.3652Y-3.2077
X4.3967Y-3.5167
X4.3967Y-3.56
X4.3976Y-3.3878
X4.3976Y-3.4311
X4.3976Y-3.4744
X4.4026Y-3.2156
X4.44Y-3.5167
X4.44Y-3.56
X4.4409Y-3.3878
X4.4409Y-3.4311
X4.4409Y-3.4744
X4.4744Y-3.1496
X4.4754Y-3.0738
X4.4764Y-3.7126
X4.4921Y-3.7618
X4.5472Y-3.1348
X4.5482Y-3.1014
X4.5856Y-3.2431
X4.5866Y-3.126
X4.5965Y-3.5472
X4.5984Y-3.5807
X4.6378Y-3.4685
X4.6535Y-3.3504
X4.6555Y-3.1063
X4.7205Y-3.0984
X4.7766Y-3.0689
X4.7776Y-3.2303
X4.7874Y-3.565
X4.7992Y-3.3661
X4.8012Y-3.3209
X4.8366Y-3.3425
X4.8701Y-3.3209
X4.872Y-3.3642
X4.9163Y-3.0384
X4.937Y-3.1122
X4.939Y-3.3209
X4.9646Y-3.2224
X4.9734Y-3.377
X4.9862Y-3.6909
X5.0305Y-3.3711
X5.0394Y-3.6398
X5.0394Y-3.6949
X5.0571Y-3.5217
X5.06Y-3.1594
X5.0827Y-3.6398
X5.0827Y-3.6949
X5.0945Y-3.1624
X5.0945Y-3.2657
X5.1083Y-3.8189
X5.126Y-3.6398
X5.126Y-3.6949
X5.1447Y-3.0689
X5.1457Y-3.374
X5.1713Y-3.1634
X5.1752Y-3.3937
X5.1949Y-3.2638
X5.1957Y-3.0689
X5.2224Y-3.5433
X5.2539Y-3.372
X5.2618Y-3.0807
X5.311Y-3.4547
T2
X5.2224Y-3.7402
X5.315Y-3.628
T3
X3.9961Y-3.3449
X3.9961Y-3.4449
X3.9961Y-3.5449
T0
M30
