<?xml version="1.0" standalone="no"?>
 <!DOCTYPE svg PUBLIC "-//W3C//DTD SVG 1.1//EN" 
 "http://www.w3.org/Graphics/SVG/1.1/DTD/svg11.dtd"> 
<svg xmlns="http://www.w3.org/2000/svg" version="1.1" 
    width="29.7002cm" height="21.0007cm" viewBox="0 0 116930 82680 ">
<title>SVG Picture created as nano-F_Cu.svg date 2013/06/16 07:49:47 </title>
  <desc>Picture generated by PCBNEW </desc>
<g style="fill:#000000; fill-opacity:1;stroke:#000000; stroke-opacity:1;
stroke-linecap:round; stroke-linejoin:round; "
 transform="translate(0 0) scale(1 1)">
</g>
<g style="fill:#000000; fill-opacity:0.0; 
stroke:#000000; stroke-width:59.0551; stroke-opacity:1; 
stroke-linecap:round; stroke-linejoin:round;">
<path d="M53681 32066
L53681 26988
" />
<path d="M59055 32066
L53681 32066
" />
<path d="M59055 22224
L53681 22224
" />
<path d="M59055 26988
L53681 26988
" />
<path d="M53681 36830
L53681 39370
" />
<path d="M53681 22224
L53681 19685
" />
<path d="M59055 36830
L53681 36830
" />
</g>
<g style="fill:#000000; fill-opacity:0.0; 
stroke:#000000; stroke-width:0; stroke-opacity:1; 
stroke-linecap:round; stroke-linejoin:round;">
<path d="M39370 19685
L53681 19685
" />
<path d="M59055 22224
L59055 26988
" />
<path d="M59055 32066
L59055 36830
" />
<path d="M53681 39370
L39370 39370
" />
<path d="M39370 39370
L39370 19685
" />
</g>
<g style="fill:#000000; fill-opacity:0.0; 
stroke:#000000; stroke-width:39.3701; stroke-opacity:1; 
stroke-linecap:round; stroke-linejoin:round;">
</g>
<g style="fill:#000000; fill-opacity:1.0; 
stroke:#000000; stroke-width:39.3701; stroke-opacity:1; 
stroke-linecap:round; stroke-linejoin:round;">
<polyline style="fill-rule:evenodd;"
points="49938,35984
49938,35433
50214,35433
50214,35984
49938,35984
" /> 
<polyline style="fill-rule:evenodd;"
points="49938,37952
49938,37401
50214,37401
50214,37952
49938,37952
" /> 
<polyline style="fill-rule:evenodd;"
points="50438,35984
50438,35433
50714,35433
50714,35984
50438,35984
" /> 
<polyline style="fill-rule:evenodd;"
points="50938,35984
50938,35433
51214,35433
51214,35984
50938,35984
" /> 
<polyline style="fill-rule:evenodd;"
points="51438,35984
51438,35433
51714,35433
51714,35984
51438,35984
" /> 
<polyline style="fill-rule:evenodd;"
points="50438,37952
50438,37401
50714,37401
50714,37952
50438,37952
" /> 
<polyline style="fill-rule:evenodd;"
points="50938,37952
50938,37401
51214,37401
51214,37952
50938,37952
" /> 
<polyline style="fill-rule:evenodd;"
points="51438,37952
51438,37401
51714,37401
51714,37952
51438,37952
" /> 
<polyline style="fill-rule:evenodd;"
points="50157,37185
50157,36200
51496,36200
51496,37185
50157,37185
" /> 
<polyline style="fill-rule:evenodd;"
points="46663,31860
46663,32155
46446,32155
46446,31860
46663,31860
" /> 
<polyline style="fill-rule:evenodd;"
points="47312,31860
47312,32155
47096,32155
47096,31860
47312,31860
" /> 
<polyline style="fill-rule:evenodd;"
points="46663,31250
46663,31545
46446,31545
46446,31250
46663,31250
" /> 
<polyline style="fill-rule:evenodd;"
points="47312,31250
47312,31545
47096,31545
47096,31250
47312,31250
" /> 
<polyline style="fill-rule:evenodd;"
points="40240,35729
39680,35729
39680,35168
40240,35168
40240,35729
" /> 
<circle cx="39960.6" cy="34448.8" r="280.315" /> 
<circle cx="39960.6" cy="33448.8" r="280.315" /> 
<polyline style="fill-rule:evenodd;"
points="49596,33445
49596,32985
49717,32985
49717,33445
49596,33445
" /> 
<polyline style="fill-rule:evenodd;"
points="49846,33445
49846,32985
49967,32985
49967,33445
49846,33445
" /> 
<polyline style="fill-rule:evenodd;"
points="50106,33445
50106,32985
50227,32985
50227,33445
50106,33445
" /> 
<polyline style="fill-rule:evenodd;"
points="50366,33445
50366,32985
50487,32985
50487,33445
50366,33445
" /> 
<polyline style="fill-rule:evenodd;"
points="50616,33445
50616,32985
50737,32985
50737,33445
50616,33445
" /> 
<polyline style="fill-rule:evenodd;"
points="50876,33445
50876,32985
50997,32985
50997,33445
50876,33445
" /> 
<polyline style="fill-rule:evenodd;"
points="51136,33445
51136,32985
51257,32985
51257,33445
51136,33445
" /> 
<polyline style="fill-rule:evenodd;"
points="51386,33445
51386,32985
51507,32985
51507,33445
51386,33445
" /> 
<polyline style="fill-rule:evenodd;"
points="51646,33445
51646,32985
51767,32985
51767,33445
51646,33445
" /> 
<polyline style="fill-rule:evenodd;"
points="51896,33445
51896,32985
52017,32985
52017,33445
51896,33445
" /> 
<polyline style="fill-rule:evenodd;"
points="51896,31345
51896,30885
52017,30885
52017,31345
51896,31345
" /> 
<polyline style="fill-rule:evenodd;"
points="51646,31345
51646,30885
51767,30885
51767,31345
51646,31345
" /> 
<polyline style="fill-rule:evenodd;"
points="51386,31345
51386,30885
51507,30885
51507,31345
51386,31345
" /> 
<polyline style="fill-rule:evenodd;"
points="51136,31345
51136,30885
51257,30885
51257,31345
51136,31345
" /> 
<polyline style="fill-rule:evenodd;"
points="50876,31345
50876,30885
50997,30885
50997,31345
50876,31345
" /> 
<polyline style="fill-rule:evenodd;"
points="50616,31345
50616,30885
50737,30885
50737,31345
50616,31345
" /> 
<polyline style="fill-rule:evenodd;"
points="50366,31345
50366,30885
50487,30885
50487,31345
50366,31345
" /> 
<polyline style="fill-rule:evenodd;"
points="50106,31345
50106,30885
50227,30885
50227,31345
50106,31345
" /> 
<polyline style="fill-rule:evenodd;"
points="49846,31345
49846,30885
49967,30885
49967,31345
49846,31345
" /> 
<polyline style="fill-rule:evenodd;"
points="49596,31345
49596,30885
49717,30885
49717,31345
49596,31345
" /> 
<polyline style="fill-rule:evenodd;"
points="50355,38798
50355,38445
50748,38445
50748,38798
50355,38798
" /> 
<polyline style="fill-rule:evenodd;"
points="51023,38798
51023,38445
51416,38445
51416,38798
51023,38798
" /> 
<polyline style="fill-rule:evenodd;"
points="49212,35433
49566,35433
49566,35827
49212,35827
49212,35433
" /> 
<polyline style="fill-rule:evenodd;"
points="49212,36101
49566,36101
49566,36495
49212,36495
49212,36101
" /> 
<polyline style="fill-rule:evenodd;"
points="49232,36713
49586,36713
49586,37106
49232,37106
49232,36713
" /> 
<polyline style="fill-rule:evenodd;"
points="49232,37381
49586,37381
49586,37774
49232,37774
49232,37381
" /> 
<polyline style="fill-rule:evenodd;"
points="51200,35176
50846,35176
50846,34782
51200,34782
51200,35176
" /> 
<polyline style="fill-rule:evenodd;"
points="51200,34508
50846,34508
50846,34114
51200,34114
51200,34508
" /> 
<polyline style="fill-rule:evenodd;"
points="48739,35728
48739,36082
48345,36082
48345,35728
48739,35728
" /> 
<polyline style="fill-rule:evenodd;"
points="48071,35728
48071,36082
47677,36082
47677,35728
48071,35728
" /> 
<polyline style="fill-rule:evenodd;"
points="52400,34783
52400,35177
52046,35177
52046,34783
52400,34783
" /> 
<polyline style="fill-rule:evenodd;"
points="51732,34783
51732,35177
51378,35177
51378,34783
51732,34783
" /> 
<polyline style="fill-rule:evenodd;"
points="52400,34192
52400,34586
52046,34586
52046,34192
52400,34192
" /> 
<polyline style="fill-rule:evenodd;"
points="51732,34192
51732,34586
51378,34586
51378,34192
51732,34192
" /> 
<polyline style="fill-rule:evenodd;"
points="49646,34507
49646,34114
50000,34114
50000,34507
49646,34507
" /> 
<polyline style="fill-rule:evenodd;"
points="50314,34507
50314,34114
50668,34114
50668,34507
50314,34507
" /> 
<polyline style="fill-rule:evenodd;"
points="51593,30137
51593,30531
51239,30531
51239,30137
51593,30137
" /> 
<polyline style="fill-rule:evenodd;"
points="50925,30137
50925,30531
50571,30531
50571,30137
50925,30137
" /> 
<polyline style="fill-rule:evenodd;"
points="51772,30531
51772,30137
52126,30137
52126,30531
51772,30531
" /> 
<polyline style="fill-rule:evenodd;"
points="52440,30531
52440,30137
52794,30137
52794,30531
52440,30531
" /> 
<polyline style="fill-rule:evenodd;"
points="48818,38425
48818,38936
48346,38936
48346,38425
48818,38425
" /> 
<polyline style="fill-rule:evenodd;"
points="49960,38425
49960,38936
49488,38936
49488,38425
49960,38425
" /> 
<polyline style="fill-rule:evenodd;"
points="48739,35197
48739,35550
48345,35550
48345,35197
48739,35197
" /> 
<polyline style="fill-rule:evenodd;"
points="48071,35197
48071,35550
47677,35550
47677,35197
48071,35197
" /> 
<polyline style="fill-rule:evenodd;"
points="47618,31320
47932,31320
47932,31555
47618,31555
47618,31320
" /> 
<polyline style="fill-rule:evenodd;"
points="47618,31830
47932,31830
47932,32065
47618,32065
47618,31830
" /> 
<polyline style="fill-rule:evenodd;"
points="49528,30531
49528,30216
49764,30216
49764,30531
49528,30531
" /> 
<polyline style="fill-rule:evenodd;"
points="50038,30531
50038,30216
50274,30216
50274,30531
50038,30531
" /> 
<polyline style="fill-rule:evenodd;"
points="48405,37814
48405,36437
48956,36437
48956,37814
48405,37814
" /> 
<polyline style="fill-rule:evenodd;"
points="47421,37814
47421,36437
47972,36437
47972,37814
47421,37814
" /> 
<polyline style="fill-rule:evenodd;"
points="53267,35983
52913,35983
52913,35589
53267,35589
53267,35983
" /> 
<polyline style="fill-rule:evenodd;"
points="53267,35315
52913,35315
52913,34921
53267,34921
53267,35315
" /> 
<polyline style="fill-rule:evenodd;"
points="52047,37559
52401,37559
52401,37953
52047,37953
52047,37559
" /> 
<polyline style="fill-rule:evenodd;"
points="52047,38227
52401,38227
52401,38621
52047,38621
52047,38227
" /> 
<polyline style="fill-rule:evenodd;"
points="52913,36574
53267,36574
53267,36850
52913,36850
52913,36574
" /> 
<polyline style="fill-rule:evenodd;"
points="52047,36949
52401,36949
52401,37225
52047,37225
52047,36949
" /> 
<polyline style="fill-rule:evenodd;"
points="52047,36199
52401,36199
52401,36475
52047,36475
52047,36199
" /> 
<polyline style="fill-rule:evenodd;"
points="47677,34901
47677,34547
48071,34547
48071,34901
47677,34901
" /> 
<polyline style="fill-rule:evenodd;"
points="48345,34901
48345,34547
48739,34547
48739,34901
48345,34901
" /> 
<polyline style="fill-rule:evenodd;"
points="42303,36969
42617,36969
42617,37205
42303,37205
42303,36969
" /> 
<polyline style="fill-rule:evenodd;"
points="42303,37479
42617,37479
42617,37715
42303,37715
42303,37479
" /> 
<polyline style="fill-rule:evenodd;"
points="42342,32341
42027,32341
42027,32105
42342,32105
42342,32341
" /> 
<polyline style="fill-rule:evenodd;"
points="42342,31831
42027,31831
42027,31595
42342,31595
42342,31831
" /> 
<polyline style="fill-rule:evenodd;"
points="43918,37283
43918,36968
44154,36968
44154,37283
43918,37283
" /> 
<polyline style="fill-rule:evenodd;"
points="44428,37283
44428,36968
44664,36968
44664,37283
44428,37283
" /> 
<polyline style="fill-rule:evenodd;"
points="45589,36968
45589,37283
45353,37283
45353,36968
45589,36968
" /> 
<polyline style="fill-rule:evenodd;"
points="45079,36968
45079,37283
44843,37283
44843,36968
45079,36968
" /> 
<polyline style="fill-rule:evenodd;"
points="45926,35137
45926,34823
46162,34823
46162,35137
45926,35137
" /> 
<polyline style="fill-rule:evenodd;"
points="46436,35137
46436,34823
46672,34823
46672,35137
46436,35137
" /> 
<polyline style="fill-rule:evenodd;"
points="41435,34941
41435,35255
41200,35255
41200,34941
41435,34941
" /> 
<polyline style="fill-rule:evenodd;"
points="40925,34941
40925,35255
40690,35255
40690,34941
40925,34941
" /> 
<polyline style="fill-rule:evenodd;"
points="45906,34054
45906,33740
46142,33740
46142,34054
45906,34054
" /> 
<polyline style="fill-rule:evenodd;"
points="46416,34054
46416,33740
46652,33740
46652,34054
46416,34054
" /> 
<polyline style="fill-rule:evenodd;"
points="42834,32341
42519,32341
42519,32105
42834,32105
42834,32341
" /> 
<polyline style="fill-rule:evenodd;"
points="42834,31831
42519,31831
42519,31595
42834,31595
42834,31831
" /> 
<polyline style="fill-rule:evenodd;"
points="44901,32479
44586,32479
44586,32243
44901,32243
44901,32479
" /> 
<polyline style="fill-rule:evenodd;"
points="44901,31969
44586,31969
44586,31733
44901,31733
44901,31969
" /> 
<polyline style="fill-rule:evenodd;"
points="42795,36969
43110,36969
43110,37205
42795,37205
42795,36969
" /> 
<polyline style="fill-rule:evenodd;"
points="42795,37479
43110,37479
43110,37715
42795,37715
42795,37479
" /> 
<polyline style="fill-rule:evenodd;"
points="41435,33681
41435,33995
41200,33995
41200,33681
41435,33681
" /> 
<polyline style="fill-rule:evenodd;"
points="40925,33681
40925,33995
40690,33995
40690,33681
40925,33681
" /> 
<polyline style="fill-rule:evenodd;"
points="47027,32715
47618,32715
47618,32952
47027,32952
47027,32715
" /> 
<polyline style="fill-rule:evenodd;"
points="47027,33306
47814,33306
47814,33543
47027,33543
47027,33306
" /> 
<polyline style="fill-rule:evenodd;"
points="47027,33897
47618,33897
47618,34134
47027,34134
47027,33897
" /> 
<polyline style="fill-rule:evenodd;"
points="47844,33051
48887,33051
48887,33799
47844,33799
47844,33051
" /> 
<polyline style="fill-rule:evenodd;"
points="44664,37460
44664,37775
44428,37775
44428,37460
44664,37460
" /> 
<polyline style="fill-rule:evenodd;"
points="44154,37460
44154,37775
43918,37775
43918,37460
44154,37460
" /> 
<polyline style="fill-rule:evenodd;"
points="46870,34312
47184,34312
47184,34547
46870,34547
46870,34312
" /> 
<polyline style="fill-rule:evenodd;"
points="46870,34822
47184,34822
47184,35057
46870,35057
46870,34822
" /> 
<polyline style="fill-rule:evenodd;"
points="44595,36032
44674,36032
44674,36189
44595,36189
44595,36032
" /> 
<polyline style="fill-rule:evenodd;"
points="44398,36032
44477,36032
44477,36189
44398,36189
44398,36032
" /> 
<polyline style="fill-rule:evenodd;"
points="44201,36032
44280,36032
44280,36189
44201,36189
44201,36032
" /> 
<polyline style="fill-rule:evenodd;"
points="44005,36032
44084,36032
44084,36189
44005,36189
44005,36032
" /> 
<polyline style="fill-rule:evenodd;"
points="43808,36032
43887,36032
43887,36189
43808,36189
43808,36032
" /> 
<polyline style="fill-rule:evenodd;"
points="43611,36032
43690,36032
43690,36189
43611,36189
43611,36032
" /> 
<polyline style="fill-rule:evenodd;"
points="43415,36032
43494,36032
43494,36189
43415,36189
43415,36032
" /> 
<polyline style="fill-rule:evenodd;"
points="43218,36032
43297,36032
43297,36189
43218,36189
43218,36032
" /> 
<polyline style="fill-rule:evenodd;"
points="43021,36032
43100,36032
43100,36189
43021,36189
43021,36032
" /> 
<polyline style="fill-rule:evenodd;"
points="42825,36032
42904,36032
42904,36189
42825,36189
42825,36032
" /> 
<polyline style="fill-rule:evenodd;"
points="42628,36032
42707,36032
42707,36189
42628,36189
42628,36032
" /> 
<polyline style="fill-rule:evenodd;"
points="42431,36032
42510,36032
42510,36189
42431,36189
42431,36032
" /> 
<polyline style="fill-rule:evenodd;"
points="42254,35776
42254,35855
42097,35855
42097,35776
42254,35776
" /> 
<polyline style="fill-rule:evenodd;"
points="42254,35579
42254,35658
42097,35658
42097,35579
42254,35579
" /> 
<polyline style="fill-rule:evenodd;"
points="42254,35382
42254,35461
42097,35461
42097,35382
42254,35382
" /> 
<polyline style="fill-rule:evenodd;"
points="42254,35186
42254,35265
42097,35265
42097,35186
42254,35186
" /> 
<polyline style="fill-rule:evenodd;"
points="42254,34989
42254,35068
42097,35068
42097,34989
42254,34989
" /> 
<polyline style="fill-rule:evenodd;"
points="42254,34792
42254,34871
42097,34871
42097,34792
42254,34792
" /> 
<polyline style="fill-rule:evenodd;"
points="42254,34596
42254,34675
42097,34675
42097,34596
42254,34596
" /> 
<polyline style="fill-rule:evenodd;"
points="42254,34399
42254,34478
42097,34478
42097,34399
42254,34399
" /> 
<polyline style="fill-rule:evenodd;"
points="42254,34202
42254,34281
42097,34281
42097,34202
42254,34202
" /> 
<polyline style="fill-rule:evenodd;"
points="42254,34006
42254,34085
42097,34085
42097,34006
42254,34006
" /> 
<polyline style="fill-rule:evenodd;"
points="42254,33809
42254,33888
42097,33888
42097,33809
42254,33809
" /> 
<polyline style="fill-rule:evenodd;"
points="42254,33612
42254,33691
42097,33691
42097,33612
42254,33612
" /> 
<polyline style="fill-rule:evenodd;"
points="42510,33435
42431,33435
42431,33278
42510,33278
42510,33435
" /> 
<polyline style="fill-rule:evenodd;"
points="42707,33435
42628,33435
42628,33278
42707,33278
42707,33435
" /> 
<polyline style="fill-rule:evenodd;"
points="42904,33435
42825,33435
42825,33278
42904,33278
42904,33435
" /> 
<polyline style="fill-rule:evenodd;"
points="43100,33435
43021,33435
43021,33278
43100,33278
43100,33435
" /> 
<polyline style="fill-rule:evenodd;"
points="43297,33435
43218,33435
43218,33278
43297,33278
43297,33435
" /> 
<polyline style="fill-rule:evenodd;"
points="43494,33435
43415,33435
43415,33278
43494,33278
43494,33435
" /> 
<polyline style="fill-rule:evenodd;"
points="43690,33435
43611,33435
43611,33278
43690,33278
43690,33435
" /> 
<polyline style="fill-rule:evenodd;"
points="43887,33435
43808,33435
43808,33278
43887,33278
43887,33435
" /> 
<polyline style="fill-rule:evenodd;"
points="44084,33435
44005,33435
44005,33278
44084,33278
44084,33435
" /> 
<polyline style="fill-rule:evenodd;"
points="44280,33435
44201,33435
44201,33278
44280,33278
44280,33435
" /> 
<polyline style="fill-rule:evenodd;"
points="44477,33435
44398,33435
44398,33278
44477,33278
44477,33435
" /> 
<polyline style="fill-rule:evenodd;"
points="44674,33435
44595,33435
44595,33278
44674,33278
44674,33435
" /> 
<polyline style="fill-rule:evenodd;"
points="44851,33691
44851,33612
45008,33612
45008,33691
44851,33691
" /> 
<polyline style="fill-rule:evenodd;"
points="44851,33888
44851,33809
45008,33809
45008,33888
44851,33888
" /> 
<polyline style="fill-rule:evenodd;"
points="44851,34085
44851,34006
45008,34006
45008,34085
44851,34085
" /> 
<polyline style="fill-rule:evenodd;"
points="44851,34281
44851,34202
45008,34202
45008,34281
44851,34281
" /> 
<polyline style="fill-rule:evenodd;"
points="44851,34478
44851,34399
45008,34399
45008,34478
44851,34478
" /> 
<polyline style="fill-rule:evenodd;"
points="44851,34675
44851,34596
45008,34596
45008,34675
44851,34675
" /> 
<polyline style="fill-rule:evenodd;"
points="44851,34871
44851,34792
45008,34792
45008,34871
44851,34871
" /> 
<polyline style="fill-rule:evenodd;"
points="44851,35068
44851,34989
45008,34989
45008,35068
44851,35068
" /> 
<polyline style="fill-rule:evenodd;"
points="44851,35265
44851,35186
45008,35186
45008,35265
44851,35265
" /> 
<polyline style="fill-rule:evenodd;"
points="44851,35461
44851,35382
45008,35382
45008,35461
44851,35461
" /> 
<polyline style="fill-rule:evenodd;"
points="44851,35658
44851,35579
45008,35579
45008,35658
44851,35658
" /> 
<polyline style="fill-rule:evenodd;"
points="44851,35855
44851,35776
45008,35776
45008,35855
44851,35855
" /> 
<polyline style="fill-rule:evenodd;"
points="42509,33690
44596,33690
44596,35777
42509,35777
42509,33690
" /> 
<polyline style="fill-rule:evenodd;"
points="45227,32243
45227,31929
45463,31929
45463,32243
45227,32243
" /> 
<polyline style="fill-rule:evenodd;"
points="45737,32243
45737,31929
45973,31929
45973,32243
45737,32243
" /> 
<polyline style="fill-rule:evenodd;"
points="45937,30472
45582,30472
45582,30118
45937,30118
45937,30472
" /> 
<polyline style="fill-rule:evenodd;"
points="46937,30472
46582,30472
46582,30118
46937,30118
46937,30472
" /> 
<polyline style="fill-rule:evenodd;"
points="47937,30472
47582,30472
47582,30118
47937,30118
47937,30472
" /> 
<polyline style="fill-rule:evenodd;"
points="44937,30472
44582,30472
44582,30118
44937,30118
44937,30472
" /> 
<polyline style="fill-rule:evenodd;"
points="48937,30472
48582,30472
48582,30118
48937,30118
48937,30472
" /> 
<polyline style="fill-rule:evenodd;"
points="45169,31138
45169,31058
45329,31058
45329,31138
45169,31138
" /> 
<polyline style="fill-rule:evenodd;"
points="45169,31638
45169,31558
45329,31558
45329,31638
45169,31638
" /> 
<polyline style="fill-rule:evenodd;"
points="45969,31138
45969,31058
46129,31058
46129,31138
45969,31138
" /> 
<polyline style="fill-rule:evenodd;"
points="45169,31388
45169,31308
45329,31308
45329,31388
45169,31388
" /> 
<polyline style="fill-rule:evenodd;"
points="45969,31638
45969,31558
46129,31558
46129,31638
45969,31638
" /> 
<polyline style="fill-rule:evenodd;"
points="43129,31221
43523,31221
43523,31575
43129,31575
43129,31221
" /> 
<polyline style="fill-rule:evenodd;"
points="43129,31889
43523,31889
43523,32243
43129,32243
43129,31889
" /> 
<polyline style="fill-rule:evenodd;"
points="43937,31044
44330,31044
44330,31397
43937,31397
43937,31044
" /> 
<polyline style="fill-rule:evenodd;"
points="43937,31712
44330,31712
44330,32065
43937,32065
43937,31712
" /> 
<circle cx="46594.5" cy="32273.6" r="98.4252" /> 
<circle cx="46151.6" cy="33454.7" r="98.4252" /> 
<circle cx="49645.7" cy="32224.4" r="98.4252" /> 
<circle cx="47204.7" cy="30984.3" r="98.4252" /> 
<circle cx="52539.4" cy="33720.5" r="98.4252" /> 
<circle cx="53110.2" cy="34547.2" r="98.4252" /> 
<circle cx="45964.6" cy="35472.4" r="98.4252" /> 
<circle cx="51456.7" cy="33740.2" r="98.4252" /> 
<circle cx="45984.3" cy="35807.1" r="98.4252" /> 
<circle cx="51752" cy="33937" r="98.4252" /> 
<circle cx="49163.4" cy="30383.9" r="98.4252" /> 
<circle cx="50944.9" cy="31624" r="98.4252" /> 
<circle cx="47765.7" cy="30689" r="98.4252" /> 
<circle cx="50600.4" cy="31594.5" r="98.4252" /> 
<circle cx="40413.4" cy="30521.7" r="98.4252" /> 
<circle cx="49734.3" cy="33769.7" r="98.4252" /> 
<circle cx="50305.1" cy="33710.6" r="98.4252" /> 
<circle cx="44753.9" cy="30738.2" r="98.4252" /> 
<circle cx="50944.9" cy="32657.5" r="98.4252" /> 
<circle cx="50570.9" cy="35216.5" r="98.4252" /> 
<circle cx="51948.8" cy="32637.8" r="98.4252" /> 
<circle cx="45856.3" cy="32431.1" r="98.4252" /> 
<circle cx="45472.4" cy="31348.4" r="98.4252" /> 
<circle cx="51712.6" cy="31633.9" r="98.4252" /> 
<circle cx="44025.6" cy="32155.5" r="98.4252" /> 
<circle cx="45482.3" cy="31013.8" r="98.4252" /> 
<circle cx="43651.6" cy="32076.8" r="98.4252" /> 
<circle cx="51957.1" cy="30689" r="98.4252" /> 
<circle cx="51447.1" cy="30689" r="98.4252" /> 
<circle cx="52224.4" cy="35433.1" r="98.4252" /> 
<circle cx="47874" cy="35649.6" r="98.4252" /> 
<circle cx="48720.5" cy="33641.7" r="78.7402" /> 
<circle cx="47992.1" cy="33661.4" r="78.7402" /> 
<circle cx="48700.8" cy="33208.7" r="78.7402" /> 
<circle cx="48011.8" cy="33208.7" r="78.7402" /> 
<circle cx="48365.9" cy="33425.2" r="78.7402" /> 
<circle cx="53149.6" cy="36279.5" r="137.795" /> 
<circle cx="46555.1" cy="31063" r="98.4252" /> 
<circle cx="44744.1" cy="31496.1" r="98.4252" /> 
<circle cx="43976.4" cy="34744.1" r="78.7402" /> 
<circle cx="44409.4" cy="34744.1" r="78.7402" /> 
<circle cx="44409.4" cy="34311" r="78.7402" /> 
<circle cx="44409.4" cy="33878" r="78.7402" /> 
<circle cx="43976.4" cy="33878" r="78.7402" /> 
<circle cx="43976.4" cy="34311" r="78.7402" /> 
<circle cx="43543.3" cy="34744.1" r="78.7402" /> 
<circle cx="43533.5" cy="34734.3" r="78.7402" /> 
<circle cx="43966.5" cy="35167.3" r="78.7402" /> 
<circle cx="44399.6" cy="35167.3" r="78.7402" /> 
<circle cx="44399.6" cy="35600.4" r="78.7402" /> 
<circle cx="43966.5" cy="35600.4" r="78.7402" /> 
<circle cx="43533.5" cy="35600.4" r="78.7402" /> 
<circle cx="43533.5" cy="35167.3" r="78.7402" /> 
<circle cx="43110.2" cy="34744.1" r="78.7402" /> 
<circle cx="42677.2" cy="34744.1" r="78.7402" /> 
<circle cx="42677.2" cy="35177.2" r="78.7402" /> 
<circle cx="42677.2" cy="35610.2" r="78.7402" /> 
<circle cx="43110.2" cy="35610.2" r="78.7402" /> 
<circle cx="43110.2" cy="35177.2" r="78.7402" /> 
<circle cx="43543.3" cy="34744.1" r="78.7402" /> 
<circle cx="43543.3" cy="34744.1" r="78.7402" /> 
<circle cx="43110.2" cy="34311" r="78.7402" /> 
<circle cx="42677.2" cy="34311" r="78.7402" /> 
<circle cx="42677.2" cy="33878" r="78.7402" /> 
<circle cx="43110.2" cy="33878" r="78.7402" /> 
<circle cx="43543.3" cy="33878" r="78.7402" /> 
<circle cx="43543.3" cy="34311" r="78.7402" /> 
<circle cx="46378" cy="34685" r="98.4252" /> 
<circle cx="46535.4" cy="33503.9" r="98.4252" /> 
<circle cx="44763.8" cy="37126" r="98.4252" /> 
<circle cx="42696.9" cy="37597.5" r="98.4252" /> 
<circle cx="42440.9" cy="31713.5" r="98.4252" /> 
<circle cx="49370.1" cy="31122" r="98.4252" /> 
<circle cx="51259.8" cy="36397.6" r="78.7402" /> 
<circle cx="51259.8" cy="36948.8" r="78.7402" /> 
<circle cx="50826.8" cy="36948.8" r="78.7402" /> 
<circle cx="50393.7" cy="36948.8" r="78.7402" /> 
<circle cx="50393.7" cy="36397.6" r="78.7402" /> 
<circle cx="50826.8" cy="36397.6" r="78.7402" /> 
<circle cx="49862.2" cy="36909.4" r="98.4252" /> 
<circle cx="51082.7" cy="38189" r="98.4252" /> 
<circle cx="43769.7" cy="31221.1" r="98.4252" /> 
<circle cx="39921.3" cy="38690.9" r="98.4252" /> 
<circle cx="49389.8" cy="33208.7" r="98.4252" /> 
<circle cx="45866.1" cy="31259.8" r="98.4252" /> 
<circle cx="47775.6" cy="32303.1" r="98.4252" /> 
<circle cx="44921.3" cy="37618.1" r="98.4252" /> 
<circle cx="42106.3" cy="37086.6" r="98.4252" /> 
<circle cx="41811" cy="32224.4" r="98.4252" /> 
<circle cx="52618.1" cy="30807.1" r="98.4252" /> 
<circle cx="52224.5" cy="37401.6" r="137.795" /> 
</g>
<g style="fill:#000000; fill-opacity:1.0; 
stroke:#000000; stroke-width:314.961; stroke-opacity:1; 
stroke-linecap:round; stroke-linejoin:round;">
<path d="M47322 34016
L47322 34488
" />
<path d="M47559 34724
L47874 34724
" />
<path d="M47322 34488
L47559 34724
" />
</g>
<g style="fill:#000000; fill-opacity:1.0; 
stroke:#000000; stroke-width:118.11; stroke-opacity:1; 
stroke-linecap:round; stroke-linejoin:round;">
<path d="M44930 34636
L45698 34636
" />
<path d="M47322 34232
L47322 34016
" />
<path d="M47185 34370
L47322 34232
" />
<path d="M45964 34370
L47185 34370
" />
<path d="M45698 34636
L45964 34370
" />
<path d="M45669 33464
L46141 33464
" />
<path d="M46574 32263
L46574 32027
" />
<path d="M46584 32263
L46574 32263
" />
<path d="M46594 32273
L46584 32263
" />
<path d="M46141 33464
L46151 33454
" />
<path d="M44930 34242
L45462 34242
" />
<path d="M45462 34242
L45669 34035
" />
<path d="M45669 34035
L45669 33464
" />
<path d="M45669 33464
L45669 33484
" />
<path d="M50167 33215
L50167 32745
" />
<path d="M49907 32485
L49645 32224
" />
<path d="M47204 30984
L47204 31397
" />
<path d="M50167 32745
L49907 32485
" />
<path d="M49907 31737
L50275 32106
" />
<path d="M50275 32106
L52362 32106
" />
<path d="M52362 32106
L52539 32283
" />
<path d="M52539 32283
L52539 33720
" />
<path d="M49907 31115
L49907 31737
" />
<path d="M52814 33818
L52814 34251
" />
<path d="M50167 31653
L50423 31909
" />
<path d="M50423 31909
L52480 31909
" />
<path d="M52480 31909
L52814 32244
" />
<path d="M52814 32244
L52814 33818
" />
<path d="M50167 31115
L50167 31653
" />
<path d="M52814 34251
L53110 34547
" />
<path d="M51447 33215
L51447 33730
" />
<path d="M45826 35610
L44930 35619
" />
<path d="M45964 35472
L45826 35610
" />
<path d="M51447 33730
L51456 33740
" />
<path d="M51707 33215
L51707 33892
" />
<path d="M45975 35816
L44930 35816
" />
<path d="M45984 35807
L45975 35816
" />
<path d="M51707 33892
L51751 33937
" />
<path d="M50937 31115
L50937 31616
" />
<path d="M49074 30295
L48759 30295
" />
<path d="M49163 30383
L49074 30295
" />
<path d="M50937 31616
L50944 31624
" />
<path d="M50677 31115
L50677 31517
" />
<path d="M47759 30683
L47759 30295
" />
<path d="M47765 30688
L47759 30683
" />
<path d="M50677 31517
L50600 31594
" />
<path d="M49907 33215
L49907 33596
" />
<path d="M49907 33596
L49734 33769
" />
<path d="M44759 30295
L44759 30732
" />
<path d="M50427 33588
L50427 33215
" />
<path d="M50305 33710
L50427 33588
" />
<path d="M44759 30732
L44753 30738
" />
<path d="M50570 35216
L50570 35648
" />
<path d="M50570 35648
L50576 35642
" />
<path d="M50937 32665
L50937 33215
" />
<path d="M50944 32657
L50937 32665
" />
<path d="M50576 35210
L50570 35216
" />
<path d="M45855 32086
L45855 32430
" />
<path d="M51957 32646
L51957 33215
" />
<path d="M51948 32637
L51957 32646
" />
<path d="M45855 32430
L45856 32431
" />
<path d="M46049 31598
L46000 31598
" />
<path d="M45834 32063
L45855 32086
" />
<path d="M45834 31764
L45834 32063
" />
<path d="M46000 31598
L45834 31764
" />
<path d="M44005 32174
L44005 32036
" />
<path d="M44005 32036
L44153 31889
" />
<path d="M45249 31348
L45472 31348
" />
<path d="M43848 33357
L43848 32322
" />
<path d="M43848 32322
L44005 32174
" />
<path d="M44005 32174
L44025 32155
" />
<path d="M51707 31628
L51712 31633
" />
<path d="M51707 31628
L51707 31115
" />
<path d="M44025 32155
L44025 32155
" />
<path d="M43326 32066
L43641 32066
" />
<path d="M43641 32066
L43651 32076
" />
<path d="M43651 33357
L43651 32077
" />
<path d="M45397 31098
L45249 31098
" />
<path d="M45482 31013
L45397 31098
" />
<path d="M43651 32077
L43651 32076
" />
<path d="M51957 31115
L51957 30688
" />
<path d="M51957 30688
L51957 30342
" />
<path d="M51957 30342
L51949 30334
" />
<path d="M51447 31115
L51447 30688
" />
<path d="M51447 30688
L51447 30365
" />
<path d="M51447 30365
L51416 30334
" />
<path d="M52223 34980
L52223 35432
" />
<path d="M52223 35432
L52224 35433
" />
<path d="M47953 35374
L47953 35905
" />
<path d="M48503 33425
L48365 33425
" />
<path d="M48720 33641
L48503 33425
" />
<path d="M47992 33661
L48228 33425
" />
<path d="M48228 33425
L48365 33425
" />
<path d="M48484 33425
L48365 33425
" />
<path d="M48700 33208
L48484 33425
" />
<path d="M48228 33425
L48365 33425
" />
<path d="M48011 33208
L48228 33425
" />
<path d="M47420 33425
L48365 33425
" />
</g>
<g style="fill:#000000; fill-opacity:1.0; 
stroke:#000000; stroke-width:196.85; stroke-opacity:1; 
stroke-linecap:round; stroke-linejoin:round;">
<path d="M53090 36712
L53090 38484
" />
<path d="M53090 38484
L52559 39015
" />
<path d="M52559 39015
L50688 39015
" />
<path d="M50688 39015
L50551 38878
" />
<path d="M50551 38878
L50551 38681
" />
</g>
<g style="fill:#000000; fill-opacity:1.0; 
stroke:#000000; stroke-width:314.961; stroke-opacity:1; 
stroke-linecap:round; stroke-linejoin:round;">
<path d="M53149 36279
L53149 35845
" />
<path d="M53149 35845
L53090 35786
" />
<path d="M53090 36338
L53090 36712
" />
<path d="M53149 36279
L53090 36338
" />
<path d="M50118 38681
L49744 38681
" />
<path d="M50576 38675
L50570 38681
" />
<path d="M50576 37742
L50576 38675
" />
<path d="M50570 38681
L50118 38681
" />
<path d="M49744 38681
L49724 38661
" />
</g>
<g style="fill:#000000; fill-opacity:1.0; 
stroke:#000000; stroke-width:118.11; stroke-opacity:1; 
stroke-linecap:round; stroke-linejoin:round;">
<path d="M46759 30295
L46759 30858
" />
<path d="M46555 31062
L46555 31397
" />
<path d="M46759 30858
L46555 31062
" />
<path d="M45345 32086
L45345 31694
" />
<path d="M45345 31694
L45249 31598
" />
<path d="M45249 31598
L44846 31598
" />
<path d="M44744 31496
L44744 31851
" />
<path d="M44846 31598
L44744 31496
" />
<path d="M47027 34940
L46594 34940
" />
<path d="M46594 34940
L46554 34980
" />
<path d="M42668 33357
L42668 33868
" />
<path d="M42668 33868
L42677 33877
" />
<path d="M43258 33357
L43258 33730
" />
<path d="M43258 33730
L43110 33877
" />
<path d="M44930 34439
L44537 34439
" />
<path d="M44537 34439
L44409 34311
" />
<path d="M44930 35029
L44537 35029
" />
<path d="M44537 35029
L44399 35167
" />
<path d="M43455 36111
L43455 35678
" />
<path d="M43455 35678
L43533 35600
" />
<path d="M42668 36111
L42668 35619
" />
<path d="M42668 35619
L42677 35610
" />
<path d="M42176 35029
L42529 35029
" />
<path d="M42529 35029
L42677 35177
" />
<path d="M43976 34744
L43543 34744
" />
<path d="M44409 34744
L44409 34311
" />
<path d="M44409 33877
L43976 33877
" />
<path d="M44399 35600
L44399 35167
" />
<path d="M43533 35600
L43966 35600
" />
<path d="M43533 35167
L43533 34734
" />
<path d="M43110 34744
L43543 34744
" />
<path d="M42677 34744
L42677 35177
" />
<path d="M42677 35610
L43110 35610
" />
<path d="M42677 33877
L42677 34311
" />
<path d="M43543 33877
L43110 33877
" />
<path d="M43543 34311
L43543 34744
" />
</g>
<g style="fill:#000000; fill-opacity:1.0; 
stroke:#000000; stroke-width:314.961; stroke-opacity:1; 
stroke-linecap:round; stroke-linejoin:round;">
<path d="M47322 32834
L47342 32834
" />
<path d="M47480 32696
L48484 32696
" />
<path d="M47342 32834
L47480 32696
" />
</g>
<g style="fill:#000000; fill-opacity:1.0; 
stroke:#000000; stroke-width:118.11; stroke-opacity:1; 
stroke-linecap:round; stroke-linejoin:round;">
<path d="M46554 34980
L46554 34861
" />
<path d="M46554 34861
L46377 34685
" />
<path d="M47775 31437
L48405 31437
" />
<path d="M46534 33897
L46534 33504
" />
<path d="M46534 33504
L46535 33503
" />
<path d="M40807 33838
L40350 33838
" />
<path d="M40350 33838
L39960 33448
" />
<path d="M40807 35098
L40807 33838
" />
<path d="M44546 37125
L44763 37125
" />
<path d="M44763 37125
L44961 37125
" />
<path d="M42460 37597
L42696 37597
" />
<path d="M42696 37597
L42952 37597
" />
<path d="M42185 31713
L42440 31713
" />
<path d="M42440 31713
L42677 31713
" />
<path d="M49657 31115
L49376 31115
" />
<path d="M49376 31115
L49370 31122
" />
<path d="M49657 31115
L49657 30384
" />
<path d="M49657 30384
L49646 30374
" />
<path d="M48621 35905
L48621 35374
" />
<path d="M50826 36692
L50826 36397
" />
<path d="M50826 36948
L51259 36948
" />
<path d="M50393 36397
L50393 36948
" />
<path d="M44036 37125
L44036 37618
" />
<path d="M44045 36111
L44045 37117
" />
<path d="M44045 37117
L44036 37125
" />
<path d="M51555 34980
L51555 34389
" />
<path d="M51576 35642
L51576 35001
" />
<path d="M51576 35001
L51555 34980
" />
<path d="M50076 35642
L49362 35642
" />
<path d="M49362 35642
L49350 35630
" />
<path d="M51076 35642
L51076 35032
" />
<path d="M51076 35032
L51023 34979
" />
<path d="M50491 34311
L51022 34311
" />
<path d="M51022 34311
L51023 34311
" />
<path d="M51076 37677
L51076 38183
" />
<path d="M49861 36910
L49409 36910
" />
<path d="M49862 36909
L49861 36910
" />
<path d="M51076 38183
L51082 38188
" />
<path d="M50427 31115
L50427 30644
" />
<path d="M50427 30644
L50156 30374
" />
</g>
<g style="fill:#000000; fill-opacity:1.0; 
stroke:#000000; stroke-width:314.961; stroke-opacity:1; 
stroke-linecap:round; stroke-linejoin:round;">
<path d="M49350 37578
L48917 37578
" />
<path d="M48582 37047
L48582 37047
" />
<path d="M48562 38700
L48582 37047
" />
<path d="M49515 37742
L49350 37578
" />
<path d="M50076 37742
L49515 37742
" />
<path d="M48917 37578
L48582 37242
" />
<path d="M48582 37242
L48582 37047
" />
</g>
<g style="fill:#000000; fill-opacity:1.0; 
stroke:#000000; stroke-width:118.11; stroke-opacity:1; 
stroke-linecap:round; stroke-linejoin:round;">
<path d="M43356 31398
L43375 31398
" />
<path d="M43552 31221
L43769 31221
" />
<path d="M43769 31221
L44153 31221
" />
<path d="M43375 31398
L43552 31221
" />
<path d="M42194 33208
L42194 33228
" />
<path d="M42185 32223
L42195 32234
" />
<path d="M42194 33218
L42195 32234
" />
<path d="M42323 33357
L42471 33357
" />
<path d="M42194 33228
L42323 33357
" />
<path d="M49657 33215
L49396 33215
" />
<path d="M49396 33215
L49389 33208
" />
<path d="M45759 30295
L45759 31153
" />
<path d="M46027 31098
L45866 31259
" />
<path d="M46027 31098
L46049 31098
" />
<path d="M45759 31153
L45866 31259
" />
<path d="M47775 31947
L47775 32303
" />
<path d="M47204 32007
L47715 32007
" />
<path d="M47715 32007
L47775 31947
" />
<path d="M44546 37618
L44921 37618
" />
<path d="M42460 37087
L42107 37087
" />
<path d="M42107 37087
L42106 37086
" />
<path d="M42471 36111
L42471 37077
" />
<path d="M42471 37077
L42460 37087
" />
<path d="M42185 32223
L41811 32223
" />
<path d="M41811 32223
L41811 32224
" />
<path d="M52617 30334
L52617 30806
" />
<path d="M52617 30806
L52618 30807
" />
</g>
<g style="fill:#000000; fill-opacity:1.0; 
stroke:#000000; stroke-width:314.961; stroke-opacity:1; 
stroke-linecap:round; stroke-linejoin:round;">
<path d="M52224 37087
L52224 37401
" />
<path d="M52224 37401
L52224 37756
" />
<path d="M52224 37756
L52224 37756
" />
</g>
<g style="fill:#000000; fill-opacity:1.0; 
stroke:#000000; stroke-width:118.11; stroke-opacity:1; 
stroke-linecap:round; stroke-linejoin:round;">
<path d="M50748 30334
L50748 30038
" />
<path d="M52617 30078
L52617 30334
" />
<path d="M52480 29940
L52617 30078
" />
<path d="M50846 29940
L52480 29940
" />
<path d="M50748 30038
L50846 29940
" />
</g>
<g style="fill:#000000; fill-opacity:1.0; 
stroke:#000000; stroke-width:39.3701; stroke-opacity:1; 
stroke-linecap:round; stroke-linejoin:round;">
<polyline style="fill-rule:evenodd;"
points="48110,39251
41063,39251
41063,35252
41063,34898
41045,34854
41012,34821
40985,34810
40985,34126
41012,34115
41045,34082
41063,34039
41063,33992
41063,33638
41045,33594
41012,33561
40969,33543
40922,33543
40649,33543
40649,30474
40613,30388
40547,30321
40460,30285
40366,30285
40279,30321
40213,30387
40177,30474
40177,30568
40213,30655
40279,30721
40366,30757
40460,30757
40547,30722
40613,30655
40649,30568
40649,30474
40649,33543
40647,33543
40603,33561
40570,33594
40552,33637
40552,33661
40423,33661
40354,33591
40378,33532
40378,33366
40315,33212
40197,33094
40044,33030
39877,33030
39724,33094
39606,33211
39542,33365
39542,33531
39605,33685
39723,33803
39877,33866
40043,33867
40103,33842
40225,33963
40282,34002
40350,34015
40552,34015
40552,34038
40570,34082
40603,34115
40630,34126
40630,34810
40603,34821
40570,34854
40552,34897
40552,34944
40552,35298
40570,35342
40603,35375
40646,35393
40693,35393
40968,35393
41012,35375
41045,35342
41063,35299
41063,35252
41063,39251
40378,39251
40378,34366
40315,34212
40197,34094
40044,34030
39877,34030
39724,34094
39606,34211
39542,34365
39542,34531
39605,34685
39723,34803
39877,34866
40043,34867
40197,34803
40314,34685
40378,34532
40378,34366
40378,39251
40378,39251
40378,35725
40378,35125
40360,35082
40327,35048
40284,35030
40237,35030
39637,35030
39593,35048
39560,35081
39542,35125
39542,35172
39542,35772
39560,35815
39593,35848
39637,35866
39684,35866
40284,35866
40327,35849
40360,35815
40378,35772
40378,35725
40378,39251
40157,39251
40157,38644
40121,38557
40055,38490
39968,38454
39874,38454
39787,38490
39721,38556
39685,38643
39684,38737
39720,38824
39787,38891
39874,38927
39968,38927
40054,38891
40121,38824
40157,38738
40157,38644
40157,39251
39488,39251
39488,29645
48110,29645
48110,31260
48074,31260
48074,30468
48074,30075
48056,30031
48023,29998
47980,29980
47933,29980
47539,29980
47496,29998
47462,30031
47444,30074
47444,30121
47444,30515
47462,30558
47496,30592
47539,30610
47542,30610
47529,30641
47529,30735
47565,30822
47631,30889
47718,30925
47812,30925
47899,30889
47965,30822
48001,30736
48002,30642
47987,30607
48023,30592
48056,30559
48074,30515
48074,30468
48074,31260
48063,31260
48052,31233
48019,31200
47976,31182
47929,31182
47575,31182
47531,31200
47498,31233
47480,31276
47480,31323
47480,31598
47498,31642
47531,31675
47573,31692
47531,31710
47498,31743
47480,31786
47480,31830
47450,31830
47450,31817
47450,31541
47450,31206
47432,31163
47399,31130
47394,31128
47404,31118
47440,31031
47440,30937
47405,30850
47338,30784
47251,30748
47157,30747
47074,30782
47074,30468
47074,30075
47056,30031
47023,29998
46980,29980
46933,29980
46539,29980
46496,29998
46462,30031
46444,30074
46444,30121
46444,30515
46462,30558
46496,30592
46539,30610
46582,30610
46582,30784
46540,30826
46508,30826
46421,30862
46354,30929
46318,31015
46318,31109
46336,31153
46327,31163
46309,31206
46309,31253
46309,31588
46326,31631
46360,31665
46403,31683
46450,31683
46706,31683
46749,31665
46783,31631
46801,31588
46801,31541
46801,31206
46783,31163
46773,31153
46791,31110
46791,31077
46885,30983
46923,30926
46923,30926
46937,30858
46937,30610
46980,30610
47023,30592
47056,30559
47074,30515
47074,30468
47074,30782
47071,30783
47004,30850
46968,30937
46968,31031
47004,31117
47014,31128
47009,31130
46976,31163
46958,31206
46958,31253
46958,31588
46976,31631
47009,31665
47053,31683
47100,31683
47356,31683
47399,31665
47432,31631
47450,31588
47450,31541
47450,31817
47432,31773
47399,31740
47356,31722
47309,31722
47053,31722
47009,31740
46976,31773
46958,31816
46958,31863
46958,32198
46976,32242
47009,32275
47053,32293
47100,32293
47356,32293
47399,32275
47432,32242
47450,32198
47450,32185
47531,32185
47531,32185
47563,32198
47539,32255
47539,32349
47568,32421
47480,32421
47480,32421
47374,32442
47330,32472
47285,32501
47285,32501
47209,32578
46984,32578
46941,32596
46907,32629
46889,32672
46889,32719
46889,32995
46907,33039
46940,33072
46984,33090
47031,33090
47225,33090
47322,33109
47342,33109
47440,33090
47440,33090
47661,33090
47704,33072
47706,33070
47706,33169
46983,33169
46940,33187
46907,33220
46889,33263
46889,33310
46889,33586
46907,33630
46940,33663
46983,33681
47030,33681
47706,33681
47706,33779
47704,33778
47661,33760
47614,33760
47420,33760
47322,33740
47225,33760
46984,33760
46941,33778
46907,33811
46889,33854
46889,33901
46889,34174
46830,34174
46830,32226
46801,32155
46801,32151
46801,31817
46783,31773
46750,31740
46706,31722
46659,31722
46403,31722
46360,31740
46327,31773
46309,31816
46309,31863
46309,32198
46326,32242
46358,32273
46358,32320
46394,32407
46460,32473
46547,32509
46641,32509
46728,32473
46794,32407
46830,32320
46830,32226
46830,34174
46827,34174
46783,34192
46783,34192
45964,34192
45896,34206
45839,34244
45625,34459
45146,34459
45146,34419
45462,34419
45530,34405
45530,34405
45587,34367
45794,34160
45832,34103
45832,34103
45846,34035
45846,33641
46004,33641
46017,33654
46104,33690
46198,33690
46285,33655
46325,33614
46328,33622
46296,33653
46278,33697
46278,33744
46278,34098
46296,34141
46330,34174
46373,34192
46420,34192
46695,34192
46738,34174
46772,34141
46790,34098
46790,34051
46790,33697
46772,33653
46741,33623
46771,33551
46771,33457
46735,33370
46669,33303
46582,33267
46488,33267
46401,33303
46361,33343
46351,33321
46285,33254
46198,33218
46104,33218
46017,33254
45984,33287
45669,33287
45601,33300
45544,33339
45505,33396
45492,33464
45492,33484
45492,33962
45389,34065
45146,34065
45146,33963
45128,33920
45095,33887
45051,33869
45004,33869
44808,33869
44765,33887
44734,33918
44734,33647
44716,33604
44683,33571
44639,33553
44592,33553
43976,33553
44007,33522
44025,33478
44025,33431
44025,33357
44025,33357
44026,32397
44033,32391
44072,32391
44159,32355
44225,32289
44261,32203
44373,32203
44417,32185
44450,32152
44468,32109
44468,32062
44468,32057
44500,32088
44543,32106
44590,32106
44944,32106
44987,32088
45021,32055
45039,32012
45039,31965
45039,31775
45123,31775
45126,31776
45168,31776
45168,31798
45141,31809
45107,31842
45089,31886
45089,31933
45089,32287
45107,32330
45140,32363
45184,32381
45231,32381
45506,32381
45549,32363
45582,32330
45600,32288
45617,32330
45635,32347
45620,32383
45620,32477
45655,32564
45722,32631
45809,32667
45903,32667
45989,32631
46056,32565
46092,32478
46092,32384
46076,32346
46092,32330
46110,32287
46111,32240
46111,31886
46093,31842
46059,31809
46045,31803
46072,31776
46172,31776
46216,31758
46249,31725
46267,31682
46267,31635
46267,31515
46249,31471
46216,31438
46173,31420
46126,31420
46039,31420
46066,31393
46102,31307
46102,31276
46172,31276
46216,31258
46249,31225
46267,31182
46267,31135
46267,31015
46249,30971
46216,30938
46173,30920
46126,30920
45937,30920
45937,30610
45980,30610
46023,30592
46056,30559
46074,30515
46074,30468
46074,30075
46056,30031
46023,29998
45980,29980
45933,29980
45539,29980
45496,29998
45462,30031
45444,30074
45444,30121
45444,30515
45462,30558
45496,30592
45539,30610
45582,30610
45582,30799
45529,30777
45435,30777
45348,30813
45282,30879
45265,30920
45126,30920
45082,30938
45074,30946
45074,30468
45074,30075
45056,30031
45023,29998
44980,29980
44933,29980
44539,29980
44496,29998
44462,30031
44444,30074
44444,30121
44444,30515
44462,30558
44496,30592
44539,30610
44551,30610
44517,30690
44517,30784
44553,30871
44619,30938
44706,30974
44800,30974
44887,30938
44954,30872
44990,30785
44990,30691
44956,30610
44980,30610
45023,30592
45056,30559
45074,30515
45074,30468
45074,30946
45049,30971
45031,31014
45031,31061
45031,31181
45048,31223
45031,31264
45031,31311
45031,31421
44968,31421
44944,31362
44878,31295
44791,31259
44697,31259
44610,31295
44543,31362
44507,31448
44507,31542
44531,31600
44500,31613
44468,31645
44468,31394
44468,31001
44450,30957
44417,30924
44373,30906
44326,30906
43893,30906
43850,30924
43817,30957
43805,30984
43722,30984
43636,31020
43612,31043
43552,31043
43484,31057
43445,31083
43086,31083
43043,31101
43010,31134
42992,31178
42992,31225
42992,31618
43010,31661
43043,31694
43086,31712
43133,31712
43566,31712
43610,31694
43643,31661
43661,31618
43661,31571
43661,31431
43722,31457
43805,31457
43817,31484
43850,31517
43893,31535
43940,31535
44373,31535
44417,31517
44450,31484
44468,31441
44468,31394
44468,31645
44467,31646
44463,31656
44450,31625
44417,31592
44373,31574
44326,31574
43893,31574
43850,31592
43817,31625
43799,31669
43799,31716
43799,31890
43785,31876
43698,31840
43658,31840
43643,31802
43610,31769
43566,31751
43519,31751
43086,31751
43043,31769
43010,31802
42992,31846
42992,31893
42992,32286
43010,32329
43043,32362
43086,32380
43133,32380
43473,32380
43473,33357
43474,33357
43474,33478
43491,33522
43522,33553
43435,33553
43435,33357
43435,33357
43435,33235
43417,33192
43384,33159
43340,33141
43293,33141
43175,33141
43132,33159
43099,33192
43081,33235
43081,33282
43081,33357
43080,33357
43080,33553
42845,33553
42845,33357
42845,33357
42845,33235
42827,33192
42794,33159
42750,33141
42703,33141
42585,33141
42569,33147
42553,33141
42506,33141
42388,33141
42372,33147
42373,32479
42385,32479
42428,32461
42462,32427
42480,32384
42480,32337
42480,32062
42462,32019
42429,31985
42387,31968
42428,31951
42430,31949
42431,31949
42433,31951
42476,31969
42523,31969
42877,31969
42920,31951
42954,31917
42972,31874
42972,31827
42972,31552
42954,31509
42921,31475
42877,31457
42830,31457
42476,31457
42433,31475
42431,31477
42430,31477
42429,31475
42385,31457
42338,31457
41984,31457
41941,31475
41907,31509
41889,31552
41889,31599
41889,31874
41907,31917
41941,31951
41983,31968
41941,31985
41915,32011
41858,31988
41764,31988
41677,32024
41610,32090
41574,32177
41574,32271
41610,32358
41677,32424
41763,32460
41857,32460
41916,32436
41941,32461
41984,32479
42019,32479
42017,33208
42017,33208
42017,33228
42031,33296
42069,33353
42198,33482
42255,33520
42255,33520
42323,33534
42324,33534
42345,33555
42388,33573
42421,33573
42390,33604
42372,33647
42372,33694
42372,34311
42341,34280
42297,34262
42250,34262
42054,34262
42011,34280
41978,34313
41960,34356
41960,34403
41960,34521
41966,34537
41960,34553
41960,34600
41960,34718
41977,34762
42011,34795
42054,34813
42101,34813
42297,34813
42340,34795
42372,34764
42372,34852
42176,34852
42175,34852
42054,34852
42011,34870
41978,34903
41960,34946
41960,34993
41960,35111
41977,35155
42011,35188
42054,35206
42101,35206
42175,35206
42176,35206
42372,35206
42372,35491
42341,35460
42297,35442
42250,35442
42054,35442
42011,35460
41978,35493
41960,35536
41960,35583
41960,35701
41966,35717
41960,35733
41960,35780
41960,35898
41977,35942
42011,35975
42054,35993
42101,35993
42294,35993
42294,36036
42294,36111
42293,36111
42293,36831
42260,36831
42216,36849
42197,36868
42153,36850
42059,36850
41972,36886
41906,36952
41870,37039
41870,37133
41905,37220
41972,37286
42059,37322
42153,37322
42196,37304
42216,37325
42258,37342
42216,37359
42183,37393
42165,37436
42165,37483
42165,37758
42183,37801
42216,37835
42260,37853
42307,37853
42661,37853
42704,37835
42705,37833
42707,37833
42708,37835
42752,37853
42799,37853
43153,37853
43196,37835
43229,37802
43247,37758
43247,37711
43247,37436
43229,37393
43196,37359
43153,37341
43106,37341
42752,37341
42708,37359
42707,37361
42705,37361
42704,37359
42662,37342
42704,37325
42737,37292
42755,37248
42755,37201
42755,36926
42737,36883
42704,36849
42661,36831
42648,36831
42648,36327
42750,36327
42793,36309
42827,36276
42845,36232
42845,36185
42845,36111
42845,36111
42845,35915
43277,35915
43277,36111
43278,36111
43278,36232
43295,36276
43329,36309
43372,36327
43419,36327
43537,36327
43580,36309
43614,36276
43632,36232
43632,36185
43632,36111
43632,36111
43632,35915
43720,35915
43689,35946
43671,35989
43671,36036
43671,36232
43688,36276
43722,36309
43765,36327
43812,36327
43867,36327
43867,36833
43832,36848
43798,36881
43780,36925
43780,36972
43780,37326
43798,37369
43800,37372
43798,37374
43780,37417
43780,37464
43780,37818
43798,37861
43831,37895
43875,37913
43922,37913
44197,37913
44240,37895
44273,37862
44291,37820
44308,37861
44341,37895
44385,37913
44432,37913
44707,37913
44750,37895
44783,37862
44799,37823
44874,37854
44968,37854
45054,37818
45121,37752
45157,37665
45157,37571
45121,37484
45058,37421
45122,37421
45165,37403
45199,37369
45217,37326
45217,37279
45217,36925
45199,36882
45166,36848
45122,36830
45075,36830
44800,36830
44757,36848
44753,36852
44750,36848
44707,36830
44660,36830
44385,36830
44342,36848
44308,36881
44291,36924
44274,36882
44240,36848
44222,36841
44222,36111
44222,36111
44222,35989
44204,35946
44173,35915
44639,35915
44682,35897
44714,35866
44714,35898
44731,35942
44765,35975
44808,35993
44855,35993
44929,35993
44930,35993
45836,35993
45850,36007
45937,36043
46031,36043
46117,36007
46184,35941
46220,35854
46220,35760
46184,35673
46141,35629
46164,35606
46200,35519
46200,35425
46164,35338
46098,35272
46011,35236
45917,35236
45830,35272
45764,35338
45728,35425
45728,35435
44928,35442
44928,35442
44808,35442
44765,35460
44734,35491
44734,35206
44930,35206
44930,35206
45051,35206
45094,35188
45128,35155
45146,35111
45146,35064
45146,34946
45128,34903
45095,34870
45051,34852
45004,34852
44930,34852
44930,34852
44734,34852
44734,34764
44765,34795
44808,34813
44855,34813
44929,34813
44930,34813
45698,34813
45766,34799
45766,34799
45823,34761
46037,34547
46181,34547
46177,34551
46141,34637
46141,34731
46177,34818
46243,34885
46298,34907
46298,35180
46316,35224
46349,35257
46393,35275
46440,35275
46715,35275
46758,35257
46791,35224
46807,35187
46826,35195
46873,35195
47227,35195
47271,35177
47304,35144
47322,35101
47322,35054
47322,34877
47364,34919
47453,34979
47453,34979
47559,35000
47570,35000
47591,35020
47634,35038
47681,35039
48110,35039
48110,39251
" /> 
</g>
<g style="fill:#000000; fill-opacity:0.0; 
stroke:#000000; stroke-width:78.7402; stroke-opacity:1; 
stroke-linecap:round; stroke-linejoin:round;">
<polyline fill="none;"
points="48110,39251
41063,39251
41063,35252
41063,34898
41045,34854
41012,34821
40985,34810
40985,34126
41012,34115
41045,34082
41063,34039
41063,33992
41063,33638
41045,33594
41012,33561
40969,33543
40922,33543
40649,33543
40649,30474
40613,30388
40547,30321
40460,30285
40366,30285
40279,30321
40213,30387
40177,30474
40177,30568
40213,30655
40279,30721
40366,30757
40460,30757
40547,30722
40613,30655
40649,30568
40649,30474
40649,33543
40647,33543
40603,33561
40570,33594
40552,33637
40552,33661
40423,33661
40354,33591
40378,33532
40378,33366
40315,33212
40197,33094
40044,33030
39877,33030
39724,33094
39606,33211
39542,33365
39542,33531
39605,33685
39723,33803
39877,33866
40043,33867
40103,33842
40225,33963
40282,34002
40350,34015
40552,34015
40552,34038
40570,34082
40603,34115
40630,34126
40630,34810
40603,34821
40570,34854
40552,34897
40552,34944
40552,35298
40570,35342
40603,35375
40646,35393
40693,35393
40968,35393
41012,35375
41045,35342
41063,35299
41063,35252
41063,39251
40378,39251
40378,34366
40315,34212
40197,34094
40044,34030
39877,34030
39724,34094
39606,34211
39542,34365
39542,34531
39605,34685
39723,34803
39877,34866
40043,34867
40197,34803
40314,34685
40378,34532
40378,34366
40378,39251
40378,39251
40378,35725
40378,35125
40360,35082
40327,35048
40284,35030
40237,35030
39637,35030
39593,35048
39560,35081
39542,35125
39542,35172
39542,35772
39560,35815
39593,35848
39637,35866
39684,35866
40284,35866
40327,35849
40360,35815
40378,35772
40378,35725
40378,39251
40157,39251
40157,38644
40121,38557
40055,38490
39968,38454
39874,38454
39787,38490
39721,38556
39685,38643
39684,38737
39720,38824
39787,38891
39874,38927
39968,38927
40054,38891
40121,38824
40157,38738
40157,38644
40157,39251
39488,39251
39488,29645
48110,29645
48110,31260
48074,31260
48074,30468
48074,30075
48056,30031
48023,29998
47980,29980
47933,29980
47539,29980
47496,29998
47462,30031
47444,30074
47444,30121
47444,30515
47462,30558
47496,30592
47539,30610
47542,30610
47529,30641
47529,30735
47565,30822
47631,30889
47718,30925
47812,30925
47899,30889
47965,30822
48001,30736
48002,30642
47987,30607
48023,30592
48056,30559
48074,30515
48074,30468
48074,31260
48063,31260
48052,31233
48019,31200
47976,31182
47929,31182
47575,31182
47531,31200
47498,31233
47480,31276
47480,31323
47480,31598
47498,31642
47531,31675
47573,31692
47531,31710
47498,31743
47480,31786
47480,31830
47450,31830
47450,31817
47450,31541
47450,31206
47432,31163
47399,31130
47394,31128
47404,31118
47440,31031
47440,30937
47405,30850
47338,30784
47251,30748
47157,30747
47074,30782
47074,30468
47074,30075
47056,30031
47023,29998
46980,29980
46933,29980
46539,29980
46496,29998
46462,30031
46444,30074
46444,30121
46444,30515
46462,30558
46496,30592
46539,30610
46582,30610
46582,30784
46540,30826
46508,30826
46421,30862
46354,30929
46318,31015
46318,31109
46336,31153
46327,31163
46309,31206
46309,31253
46309,31588
46326,31631
46360,31665
46403,31683
46450,31683
46706,31683
46749,31665
46783,31631
46801,31588
46801,31541
46801,31206
46783,31163
46773,31153
46791,31110
46791,31077
46885,30983
46923,30926
46923,30926
46937,30858
46937,30610
46980,30610
47023,30592
47056,30559
47074,30515
47074,30468
47074,30782
47071,30783
47004,30850
46968,30937
46968,31031
47004,31117
47014,31128
47009,31130
46976,31163
46958,31206
46958,31253
46958,31588
46976,31631
47009,31665
47053,31683
47100,31683
47356,31683
47399,31665
47432,31631
47450,31588
47450,31541
47450,31817
47432,31773
47399,31740
47356,31722
47309,31722
47053,31722
47009,31740
46976,31773
46958,31816
46958,31863
46958,32198
46976,32242
47009,32275
47053,32293
47100,32293
47356,32293
47399,32275
47432,32242
47450,32198
47450,32185
47531,32185
47531,32185
47563,32198
47539,32255
47539,32349
47568,32421
47480,32421
47480,32421
47374,32442
47330,32472
47285,32501
47285,32501
47209,32578
46984,32578
46941,32596
46907,32629
46889,32672
46889,32719
46889,32995
46907,33039
46940,33072
46984,33090
47031,33090
47225,33090
47322,33109
47342,33109
47440,33090
47440,33090
47661,33090
47704,33072
47706,33070
47706,33169
46983,33169
46940,33187
46907,33220
46889,33263
46889,33310
46889,33586
46907,33630
46940,33663
46983,33681
47030,33681
47706,33681
47706,33779
47704,33778
47661,33760
47614,33760
47420,33760
47322,33740
47225,33760
46984,33760
46941,33778
46907,33811
46889,33854
46889,33901
46889,34174
46830,34174
46830,32226
46801,32155
46801,32151
46801,31817
46783,31773
46750,31740
46706,31722
46659,31722
46403,31722
46360,31740
46327,31773
46309,31816
46309,31863
46309,32198
46326,32242
46358,32273
46358,32320
46394,32407
46460,32473
46547,32509
46641,32509
46728,32473
46794,32407
46830,32320
46830,32226
46830,34174
46827,34174
46783,34192
46783,34192
45964,34192
45896,34206
45839,34244
45625,34459
45146,34459
45146,34419
45462,34419
45530,34405
45530,34405
45587,34367
45794,34160
45832,34103
45832,34103
45846,34035
45846,33641
46004,33641
46017,33654
46104,33690
46198,33690
46285,33655
46325,33614
46328,33622
46296,33653
46278,33697
46278,33744
46278,34098
46296,34141
46330,34174
46373,34192
46420,34192
46695,34192
46738,34174
46772,34141
46790,34098
46790,34051
46790,33697
46772,33653
46741,33623
46771,33551
46771,33457
46735,33370
46669,33303
46582,33267
46488,33267
46401,33303
46361,33343
46351,33321
46285,33254
46198,33218
46104,33218
46017,33254
45984,33287
45669,33287
45601,33300
45544,33339
45505,33396
45492,33464
45492,33484
45492,33962
45389,34065
45146,34065
45146,33963
45128,33920
45095,33887
45051,33869
45004,33869
44808,33869
44765,33887
44734,33918
44734,33647
44716,33604
44683,33571
44639,33553
44592,33553
43976,33553
44007,33522
44025,33478
44025,33431
44025,33357
44025,33357
44026,32397
44033,32391
44072,32391
44159,32355
44225,32289
44261,32203
44373,32203
44417,32185
44450,32152
44468,32109
44468,32062
44468,32057
44500,32088
44543,32106
44590,32106
44944,32106
44987,32088
45021,32055
45039,32012
45039,31965
45039,31775
45123,31775
45126,31776
45168,31776
45168,31798
45141,31809
45107,31842
45089,31886
45089,31933
45089,32287
45107,32330
45140,32363
45184,32381
45231,32381
45506,32381
45549,32363
45582,32330
45600,32288
45617,32330
45635,32347
45620,32383
45620,32477
45655,32564
45722,32631
45809,32667
45903,32667
45989,32631
46056,32565
46092,32478
46092,32384
46076,32346
46092,32330
46110,32287
46111,32240
46111,31886
46093,31842
46059,31809
46045,31803
46072,31776
46172,31776
46216,31758
46249,31725
46267,31682
46267,31635
46267,31515
46249,31471
46216,31438
46173,31420
46126,31420
46039,31420
46066,31393
46102,31307
46102,31276
46172,31276
46216,31258
46249,31225
46267,31182
46267,31135
46267,31015
46249,30971
46216,30938
46173,30920
46126,30920
45937,30920
45937,30610
45980,30610
46023,30592
46056,30559
46074,30515
46074,30468
46074,30075
46056,30031
46023,29998
45980,29980
45933,29980
45539,29980
45496,29998
45462,30031
45444,30074
45444,30121
45444,30515
45462,30558
45496,30592
45539,30610
45582,30610
45582,30799
45529,30777
45435,30777
45348,30813
45282,30879
45265,30920
45126,30920
45082,30938
45074,30946
45074,30468
45074,30075
45056,30031
45023,29998
44980,29980
44933,29980
44539,29980
44496,29998
44462,30031
44444,30074
44444,30121
44444,30515
44462,30558
44496,30592
44539,30610
44551,30610
44517,30690
44517,30784
44553,30871
44619,30938
44706,30974
44800,30974
44887,30938
44954,30872
44990,30785
44990,30691
44956,30610
44980,30610
45023,30592
45056,30559
45074,30515
45074,30468
45074,30946
45049,30971
45031,31014
45031,31061
45031,31181
45048,31223
45031,31264
45031,31311
45031,31421
44968,31421
44944,31362
44878,31295
44791,31259
44697,31259
44610,31295
44543,31362
44507,31448
44507,31542
44531,31600
44500,31613
44468,31645
44468,31394
44468,31001
44450,30957
44417,30924
44373,30906
44326,30906
43893,30906
43850,30924
43817,30957
43805,30984
43722,30984
43636,31020
43612,31043
43552,31043
43484,31057
43445,31083
43086,31083
43043,31101
43010,31134
42992,31178
42992,31225
42992,31618
43010,31661
43043,31694
43086,31712
43133,31712
43566,31712
43610,31694
43643,31661
43661,31618
43661,31571
43661,31431
43722,31457
43805,31457
43817,31484
43850,31517
43893,31535
43940,31535
44373,31535
44417,31517
44450,31484
44468,31441
44468,31394
44468,31645
44467,31646
44463,31656
44450,31625
44417,31592
44373,31574
44326,31574
43893,31574
43850,31592
43817,31625
43799,31669
43799,31716
43799,31890
43785,31876
43698,31840
43658,31840
43643,31802
43610,31769
43566,31751
43519,31751
43086,31751
43043,31769
43010,31802
42992,31846
42992,31893
42992,32286
43010,32329
43043,32362
43086,32380
43133,32380
43473,32380
43473,33357
43474,33357
43474,33478
43491,33522
43522,33553
43435,33553
43435,33357
43435,33357
43435,33235
43417,33192
43384,33159
43340,33141
43293,33141
43175,33141
43132,33159
43099,33192
43081,33235
43081,33282
43081,33357
43080,33357
43080,33553
42845,33553
42845,33357
42845,33357
42845,33235
42827,33192
42794,33159
42750,33141
42703,33141
42585,33141
42569,33147
42553,33141
42506,33141
42388,33141
42372,33147
42373,32479
42385,32479
42428,32461
42462,32427
42480,32384
42480,32337
42480,32062
42462,32019
42429,31985
42387,31968
42428,31951
42430,31949
42431,31949
42433,31951
42476,31969
42523,31969
42877,31969
42920,31951
42954,31917
42972,31874
42972,31827
42972,31552
42954,31509
42921,31475
42877,31457
42830,31457
42476,31457
42433,31475
42431,31477
42430,31477
42429,31475
42385,31457
42338,31457
41984,31457
41941,31475
41907,31509
41889,31552
41889,31599
41889,31874
41907,31917
41941,31951
41983,31968
41941,31985
41915,32011
41858,31988
41764,31988
41677,32024
41610,32090
41574,32177
41574,32271
41610,32358
41677,32424
41763,32460
41857,32460
41916,32436
41941,32461
41984,32479
42019,32479
42017,33208
42017,33208
42017,33228
42031,33296
42069,33353
42198,33482
42255,33520
42255,33520
42323,33534
42324,33534
42345,33555
42388,33573
42421,33573
42390,33604
42372,33647
42372,33694
42372,34311
42341,34280
42297,34262
42250,34262
42054,34262
42011,34280
41978,34313
41960,34356
41960,34403
41960,34521
41966,34537
41960,34553
41960,34600
41960,34718
41977,34762
42011,34795
42054,34813
42101,34813
42297,34813
42340,34795
42372,34764
42372,34852
42176,34852
42175,34852
42054,34852
42011,34870
41978,34903
41960,34946
41960,34993
41960,35111
41977,35155
42011,35188
42054,35206
42101,35206
42175,35206
42176,35206
42372,35206
42372,35491
42341,35460
42297,35442
42250,35442
42054,35442
42011,35460
41978,35493
41960,35536
41960,35583
41960,35701
41966,35717
41960,35733
41960,35780
41960,35898
41977,35942
42011,35975
42054,35993
42101,35993
42294,35993
42294,36036
42294,36111
42293,36111
42293,36831
42260,36831
42216,36849
42197,36868
42153,36850
42059,36850
41972,36886
41906,36952
41870,37039
41870,37133
41905,37220
41972,37286
42059,37322
42153,37322
42196,37304
42216,37325
42258,37342
42216,37359
42183,37393
42165,37436
42165,37483
42165,37758
42183,37801
42216,37835
42260,37853
42307,37853
42661,37853
42704,37835
42705,37833
42707,37833
42708,37835
42752,37853
42799,37853
43153,37853
43196,37835
43229,37802
43247,37758
43247,37711
43247,37436
43229,37393
43196,37359
43153,37341
43106,37341
42752,37341
42708,37359
42707,37361
42705,37361
42704,37359
42662,37342
42704,37325
42737,37292
42755,37248
42755,37201
42755,36926
42737,36883
42704,36849
42661,36831
42648,36831
42648,36327
42750,36327
42793,36309
42827,36276
42845,36232
42845,36185
42845,36111
42845,36111
42845,35915
43277,35915
43277,36111
43278,36111
43278,36232
43295,36276
43329,36309
43372,36327
43419,36327
43537,36327
43580,36309
43614,36276
43632,36232
43632,36185
43632,36111
43632,36111
43632,35915
43720,35915
43689,35946
43671,35989
43671,36036
43671,36232
43688,36276
43722,36309
43765,36327
43812,36327
43867,36327
43867,36833
43832,36848
43798,36881
43780,36925
43780,36972
43780,37326
43798,37369
43800,37372
43798,37374
43780,37417
43780,37464
43780,37818
43798,37861
43831,37895
43875,37913
43922,37913
44197,37913
44240,37895
44273,37862
44291,37820
44308,37861
44341,37895
44385,37913
44432,37913
44707,37913
44750,37895
44783,37862
44799,37823
44874,37854
44968,37854
45054,37818
45121,37752
45157,37665
45157,37571
45121,37484
45058,37421
45122,37421
45165,37403
45199,37369
45217,37326
45217,37279
45217,36925
45199,36882
45166,36848
45122,36830
45075,36830
44800,36830
44757,36848
44753,36852
44750,36848
44707,36830
44660,36830
44385,36830
44342,36848
44308,36881
44291,36924
44274,36882
44240,36848
44222,36841
44222,36111
44222,36111
44222,35989
44204,35946
44173,35915
44639,35915
44682,35897
44714,35866
44714,35898
44731,35942
44765,35975
44808,35993
44855,35993
44929,35993
44930,35993
45836,35993
45850,36007
45937,36043
46031,36043
46117,36007
46184,35941
46220,35854
46220,35760
46184,35673
46141,35629
46164,35606
46200,35519
46200,35425
46164,35338
46098,35272
46011,35236
45917,35236
45830,35272
45764,35338
45728,35425
45728,35435
44928,35442
44928,35442
44808,35442
44765,35460
44734,35491
44734,35206
44930,35206
44930,35206
45051,35206
45094,35188
45128,35155
45146,35111
45146,35064
45146,34946
45128,34903
45095,34870
45051,34852
45004,34852
44930,34852
44930,34852
44734,34852
44734,34764
44765,34795
44808,34813
44855,34813
44929,34813
44930,34813
45698,34813
45766,34799
45766,34799
45823,34761
46037,34547
46181,34547
46177,34551
46141,34637
46141,34731
46177,34818
46243,34885
46298,34907
46298,35180
46316,35224
46349,35257
46393,35275
46440,35275
46715,35275
46758,35257
46791,35224
46807,35187
46826,35195
46873,35195
47227,35195
47271,35177
47304,35144
47322,35101
47322,35054
47322,34877
47364,34919
47453,34979
47453,34979
47559,35000
47570,35000
47591,35020
47634,35038
47681,35039
48110,35039
48110,39251
" /> 
</g>
<g style="fill:#000000; fill-opacity:1.0; 
stroke:#000000; stroke-width:39.3701; stroke-opacity:1; 
stroke-linecap:round; stroke-linejoin:round;">
<polyline style="fill-rule:evenodd;"
points="53602,36709
53576,36726
53544,36774
53533,36830
53533,39251
48287,39251
48287,39068
48302,39074
48349,39074
48861,39074
48905,39056
48938,39023
48956,38980
48956,38933
48956,38382
48938,38338
48905,38305
48862,38287
48843,38287
48847,37952
48999,37952
49043,37934
49076,37901
49094,37858
49094,37853
49109,37853
49112,37861
49145,37894
49189,37912
49236,37912
49295,37912
49320,37937
49320,37937
49409,37997
49409,37997
49515,38018
49810,38018
49819,38039
49852,38072
49895,38090
49942,38090
50257,38090
50301,38072
50301,38072
50301,38311
50268,38325
50235,38358
50217,38401
50217,38405
50118,38405
50098,38405
50098,38382
50080,38338
50047,38305
50004,38287
49957,38287
49445,38287
49401,38305
49368,38338
49350,38382
49350,38428
49350,38979
49368,39023
49401,39056
49444,39074
49491,39074
50003,39074
50047,39056
50080,39023
50098,38980
50098,38956
50118,38956
50350,38956
50351,38961
50352,38961
50352,38962
50369,38988
50398,39031
50535,39168
50535,39168
50606,39215
50688,39232
52559,39232
52641,39215
52712,39168
53237,38643
53246,38637
53293,38566
53310,38483
53307,36988
53310,36988
53354,36970
53387,36937
53405,36893
53405,36846
53405,36531
53387,36488
53366,36466
53366,36452
53383,36435
53404,36384
53404,36384
53404,36384
53404,36384
53425,36334
53425,36279
53425,36279
53425,36279
53425,36279
53425,36279
53425,36224
53425,36224
53425,35845
53405,35745
53405,35745
53405,35546
53387,35503
53354,35470
53346,35467
53346,34500
53310,34413
53244,34347
53157,34311
53124,34311
52992,34178
52992,33818
52992,32244
52978,32176
52978,32176
52940,32118
52605,31784
52548,31745
52480,31732
51927,31732
51948,31681
51948,31587
51912,31500
51896,31483
51900,31483
52060,31483
52103,31465
52137,31432
52155,31388
52155,31341
52155,30841
52150,30829
52157,30822
52193,30736
52193,30659
52212,30651
52246,30618
52264,30574
52264,30527
52264,30118
52302,30118
52302,30141
52302,30574
52320,30617
52353,30651
52397,30669
52421,30669
52417,30673
52381,30759
52381,30853
52417,30940
52484,31007
52570,31043
52664,31043
52751,31007
52818,30941
52854,30854
52854,30760
52818,30673
52814,30669
52837,30669
52880,30651
52914,30618
52932,30574
52932,30527
52932,30094
52914,30051
52880,30018
52837,30000
52790,30000
52774,30000
52742,29952
52605,29815
52548,29777
52480,29763
50846,29763
50778,29777
50721,29815
50623,29913
50584,29970
50579,30000
50528,30000
50485,30017
50452,30051
50434,30094
50434,30141
50434,30400
50412,30379
50412,30173
50394,30130
50361,30096
50317,30078
50270,30078
49995,30078
49952,30096
49919,30130
49900,30173
49900,30220
49900,30574
49918,30617
49952,30651
49995,30669
50042,30669
50201,30669
50249,30717
50249,30747
50223,30747
50063,30747
50037,30758
50010,30747
49963,30747
49803,30747
49760,30765
49727,30798
49708,30841
49708,30888
49708,31388
49726,31432
49729,31435
49729,31737
49743,31805
49781,31863
50150,32231
50207,32269
50207,32269
50275,32283
52288,32283
52362,32356
52362,33563
52339,33586
52303,33673
52303,33767
52338,33854
52405,33920
52492,33956
52586,33956
52637,33935
52637,34251
52651,34319
52689,34377
52874,34561
52873,34594
52909,34680
52976,34747
53063,34783
53157,34783
53243,34747
53310,34681
53346,34594
53346,34500
53346,35467
53310,35452
53263,35452
52870,35452
52827,35470
52793,35503
52775,35546
52775,35593
52775,36026
52793,36070
52827,36103
52870,36121
52874,36121
52874,36176
52835,36233
52814,36338
52814,36466
52793,36488
52775,36531
52775,36578
52775,36893
52793,36936
52826,36970
52869,36988
52874,36988
52876,38391
52539,38728
52539,37221
52539,36906
52538,36903
52538,35173
52538,34740
52520,34696
52487,34663
52443,34645
52396,34645
52185,34645
52185,32591
52149,32504
52082,32437
51996,32401
51902,32401
51815,32437
51748,32503
51712,32590
51712,32684
51748,32771
51779,32802
51779,32847
51763,32847
51603,32847
51577,32858
51550,32847
51503,32847
51343,32847
51322,32856
51300,32847
51253,32847
51114,32847
51114,32822
51145,32791
51181,32704
51181,32610
51145,32523
51078,32457
50992,32421
50898,32421
50811,32457
50744,32523
50708,32610
50708,32704
50744,32791
50759,32806
50759,32847
50733,32847
50573,32847
50552,32856
50530,32847
50483,32847
50344,32847
50344,32745
50330,32678
50330,32678
50292,32620
50032,32360
49881,32210
49881,32177
49846,32090
49779,32024
49692,31988
49598,31988
49512,32024
49445,32090
49409,32177
49409,32271
49445,32358
49511,32424
49598,32460
49631,32460
49781,32611
49989,32819
49989,32847
49963,32847
49803,32847
49782,32856
49760,32847
49713,32847
49553,32847
49510,32865
49477,32898
49458,32941
49458,32981
49436,32972
49399,32972
49399,30337
49363,30250
49297,30183
49210,30147
49166,30147
49166,30147
49142,30131
49074,30118
49074,30075
49056,30031
49023,29998
48980,29980
48933,29980
48539,29980
48496,29998
48462,30031
48444,30074
48444,30121
48444,30515
48462,30558
48496,30592
48539,30610
48586,30610
48980,30610
49023,30592
49031,30584
49116,30620
49210,30620
49297,30584
49363,30517
49399,30431
49399,30337
49399,32972
49342,32972
49256,33008
49189,33074
49153,33161
49153,33255
49189,33342
49255,33408
49342,33444
49436,33444
49458,33435
49458,33488
49476,33532
49510,33565
49553,33583
49586,33583
49534,33635
49498,33722
49497,33816
49533,33903
49600,33969
49687,34005
49781,34005
49867,33970
49934,33903
49970,33816
49970,33784
50032,33722
50068,33667
50068,33757
50104,33844
50171,33910
50257,33946
50351,33946
50438,33911
50505,33844
50541,33757
50541,33724
50552,33713
50590,33656
50604,33588
50604,33583
50620,33583
50780,33583
50807,33572
50833,33583
50880,33583
51040,33583
51067,33572
51093,33583
51140,33583
51269,33583
51269,33592
51256,33606
51220,33692
51220,33786
51256,33873
51322,33940
51409,33976
51503,33976
51515,33971
51515,33983
51545,34055
51335,34055
51332,34056
51320,34028
51287,33995
51243,33977
51196,33977
50803,33977
50760,33994
50757,33997
50754,33994
50711,33976
50664,33976
50271,33976
50228,33994
50194,34027
50176,34070
50176,34117
50176,34550
50194,34594
50227,34627
50271,34645
50318,34645
50711,34645
50754,34627
50757,34625
50760,34628
50802,34645
50760,34662
50727,34696
50709,34739
50708,34786
50708,35020
50704,35016
50618,34980
50524,34980
50437,35016
50370,35082
50334,35169
50334,35263
50354,35312
50352,35313
50326,35338
50301,35313
50257,35295
50210,35295
49895,35295
49852,35313
49819,35346
49801,35389
49801,35436
49801,35465
49704,35465
49704,35390
49686,35347
49653,35313
49609,35295
49562,35295
49169,35295
49126,35313
49093,35347
49075,35390
49075,35437
49075,35870
49093,35913
49126,35947
49169,35965
49216,35965
49609,35965
49653,35947
49686,35914
49704,35870
49704,35823
49704,35820
49801,35820
49801,36027
49819,36070
49852,36104
49895,36122
49942,36122
50257,36122
50301,36104
50326,36078
50352,36104
50395,36122
50442,36122
50757,36122
50801,36104
50826,36078
50852,36104
50895,36122
50942,36122
51257,36122
51301,36104
51326,36078
51352,36104
51395,36122
51442,36122
51757,36122
51801,36104
51834,36070
51852,36027
51852,35980
51852,35389
51834,35346
51801,35313
51790,35308
51819,35297
51852,35263
51870,35220
51870,35173
51870,34740
51852,34696
51840,34685
51852,34673
51870,34629
51870,34582
51870,34149
51868,34144
51885,34137
51952,34070
51988,33984
51988,33890
51952,33803
51885,33736
51884,33736
51884,33583
51900,33583
52060,33583
52103,33565
52137,33532
52155,33488
52155,33441
52155,32941
52137,32898
52134,32895
52134,32786
52148,32771
52184,32684
52185,32591
52185,34645
52003,34645
51960,34663
51927,34696
51909,34740
51909,34787
51909,35220
51927,35263
51960,35296
52003,35314
52017,35314
51988,35385
51988,35479
52024,35566
52090,35633
52177,35669
52271,35669
52358,35633
52424,35567
52460,35480
52460,35386
52431,35314
52443,35314
52487,35297
52520,35263
52538,35220
52538,35173
52538,36903
52521,36863
52488,36830
52445,36812
52398,36811
52004,36811
51960,36829
51927,36863
51909,36906
51909,36953
51909,37268
51927,37311
51948,37333
51948,37401
51948,37452
51927,37473
51909,37516
51909,37563
51909,37996
51927,38039
51960,38073
52004,38091
52051,38091
52444,38091
52487,38073
52520,38040
52538,37996
52539,37949
52539,37516
52521,37473
52500,37452
52500,37401
52500,37401
52500,37346
52500,37346
52500,37333
52521,37312
52539,37268
52539,37221
52539,38728
52469,38799
50886,38799
50886,38795
50886,38402
50868,38358
50852,38342
50852,38250
50882,38322
50948,38389
51035,38425
51129,38425
51216,38389
51282,38322
51318,38236
51318,38142
51291,38076
51301,38072
51334,38039
51352,37996
51352,37949
51352,37358
51334,37315
51301,37281
51257,37263
51210,37263
50895,37263
50852,37281
50826,37307
50801,37281
50757,37263
50710,37263
50395,37263
50352,37281
50326,37307
50301,37281
50257,37263
50210,37263
49895,37263
49852,37281
49819,37314
49801,37358
49801,37405
49801,37467
49724,37467
49724,37338
49706,37294
49672,37261
49630,37244
49672,37226
49706,37193
49724,37150
49724,37105
49728,37109
49815,37145
49908,37145
49995,37109
50062,37043
50098,36956
50098,36862
50062,36775
49996,36709
49909,36673
49815,36673
49728,36709
49724,36713
49724,36670
49706,36626
49672,36593
49629,36575
49582,36575
49189,36575
49146,36593
49112,36626
49094,36669
49094,36716
49094,37149
49112,37193
49145,37226
49187,37244
49146,37261
49112,37294
49109,37302
49094,37302
49094,36393
49076,36350
49043,36317
48999,36299
48952,36299
48362,36299
48319,36317
48287,36348
48287,33936
48930,33936
48974,33918
49007,33885
49025,33842
49025,33795
49025,33008
49007,32964
48974,32931
48930,32913
48883,32913
48287,32913
48287,29645
53533,29645
53533,32066
53544,32123
53576,32171
53602,32188
53602,36709
" /> 
</g>
<g style="fill:#000000; fill-opacity:0.0; 
stroke:#000000; stroke-width:78.7402; stroke-opacity:1; 
stroke-linecap:round; stroke-linejoin:round;">
<polyline fill="none;"
points="53602,36709
53576,36726
53544,36774
53533,36830
53533,39251
48287,39251
48287,39068
48302,39074
48349,39074
48861,39074
48905,39056
48938,39023
48956,38980
48956,38933
48956,38382
48938,38338
48905,38305
48862,38287
48843,38287
48847,37952
48999,37952
49043,37934
49076,37901
49094,37858
49094,37853
49109,37853
49112,37861
49145,37894
49189,37912
49236,37912
49295,37912
49320,37937
49320,37937
49409,37997
49409,37997
49515,38018
49810,38018
49819,38039
49852,38072
49895,38090
49942,38090
50257,38090
50301,38072
50301,38072
50301,38311
50268,38325
50235,38358
50217,38401
50217,38405
50118,38405
50098,38405
50098,38382
50080,38338
50047,38305
50004,38287
49957,38287
49445,38287
49401,38305
49368,38338
49350,38382
49350,38428
49350,38979
49368,39023
49401,39056
49444,39074
49491,39074
50003,39074
50047,39056
50080,39023
50098,38980
50098,38956
50118,38956
50350,38956
50351,38961
50352,38961
50352,38962
50369,38988
50398,39031
50535,39168
50535,39168
50606,39215
50688,39232
52559,39232
52641,39215
52712,39168
53237,38643
53246,38637
53293,38566
53310,38483
53307,36988
53310,36988
53354,36970
53387,36937
53405,36893
53405,36846
53405,36531
53387,36488
53366,36466
53366,36452
53383,36435
53404,36384
53404,36384
53404,36384
53404,36384
53425,36334
53425,36279
53425,36279
53425,36279
53425,36279
53425,36279
53425,36224
53425,36224
53425,35845
53405,35745
53405,35745
53405,35546
53387,35503
53354,35470
53346,35467
53346,34500
53310,34413
53244,34347
53157,34311
53124,34311
52992,34178
52992,33818
52992,32244
52978,32176
52978,32176
52940,32118
52605,31784
52548,31745
52480,31732
51927,31732
51948,31681
51948,31587
51912,31500
51896,31483
51900,31483
52060,31483
52103,31465
52137,31432
52155,31388
52155,31341
52155,30841
52150,30829
52157,30822
52193,30736
52193,30659
52212,30651
52246,30618
52264,30574
52264,30527
52264,30118
52302,30118
52302,30141
52302,30574
52320,30617
52353,30651
52397,30669
52421,30669
52417,30673
52381,30759
52381,30853
52417,30940
52484,31007
52570,31043
52664,31043
52751,31007
52818,30941
52854,30854
52854,30760
52818,30673
52814,30669
52837,30669
52880,30651
52914,30618
52932,30574
52932,30527
52932,30094
52914,30051
52880,30018
52837,30000
52790,30000
52774,30000
52742,29952
52605,29815
52548,29777
52480,29763
50846,29763
50778,29777
50721,29815
50623,29913
50584,29970
50579,30000
50528,30000
50485,30017
50452,30051
50434,30094
50434,30141
50434,30400
50412,30379
50412,30173
50394,30130
50361,30096
50317,30078
50270,30078
49995,30078
49952,30096
49919,30130
49900,30173
49900,30220
49900,30574
49918,30617
49952,30651
49995,30669
50042,30669
50201,30669
50249,30717
50249,30747
50223,30747
50063,30747
50037,30758
50010,30747
49963,30747
49803,30747
49760,30765
49727,30798
49708,30841
49708,30888
49708,31388
49726,31432
49729,31435
49729,31737
49743,31805
49781,31863
50150,32231
50207,32269
50207,32269
50275,32283
52288,32283
52362,32356
52362,33563
52339,33586
52303,33673
52303,33767
52338,33854
52405,33920
52492,33956
52586,33956
52637,33935
52637,34251
52651,34319
52689,34377
52874,34561
52873,34594
52909,34680
52976,34747
53063,34783
53157,34783
53243,34747
53310,34681
53346,34594
53346,34500
53346,35467
53310,35452
53263,35452
52870,35452
52827,35470
52793,35503
52775,35546
52775,35593
52775,36026
52793,36070
52827,36103
52870,36121
52874,36121
52874,36176
52835,36233
52814,36338
52814,36466
52793,36488
52775,36531
52775,36578
52775,36893
52793,36936
52826,36970
52869,36988
52874,36988
52876,38391
52539,38728
52539,37221
52539,36906
52538,36903
52538,35173
52538,34740
52520,34696
52487,34663
52443,34645
52396,34645
52185,34645
52185,32591
52149,32504
52082,32437
51996,32401
51902,32401
51815,32437
51748,32503
51712,32590
51712,32684
51748,32771
51779,32802
51779,32847
51763,32847
51603,32847
51577,32858
51550,32847
51503,32847
51343,32847
51322,32856
51300,32847
51253,32847
51114,32847
51114,32822
51145,32791
51181,32704
51181,32610
51145,32523
51078,32457
50992,32421
50898,32421
50811,32457
50744,32523
50708,32610
50708,32704
50744,32791
50759,32806
50759,32847
50733,32847
50573,32847
50552,32856
50530,32847
50483,32847
50344,32847
50344,32745
50330,32678
50330,32678
50292,32620
50032,32360
49881,32210
49881,32177
49846,32090
49779,32024
49692,31988
49598,31988
49512,32024
49445,32090
49409,32177
49409,32271
49445,32358
49511,32424
49598,32460
49631,32460
49781,32611
49989,32819
49989,32847
49963,32847
49803,32847
49782,32856
49760,32847
49713,32847
49553,32847
49510,32865
49477,32898
49458,32941
49458,32981
49436,32972
49399,32972
49399,30337
49363,30250
49297,30183
49210,30147
49166,30147
49166,30147
49142,30131
49074,30118
49074,30075
49056,30031
49023,29998
48980,29980
48933,29980
48539,29980
48496,29998
48462,30031
48444,30074
48444,30121
48444,30515
48462,30558
48496,30592
48539,30610
48586,30610
48980,30610
49023,30592
49031,30584
49116,30620
49210,30620
49297,30584
49363,30517
49399,30431
49399,30337
49399,32972
49342,32972
49256,33008
49189,33074
49153,33161
49153,33255
49189,33342
49255,33408
49342,33444
49436,33444
49458,33435
49458,33488
49476,33532
49510,33565
49553,33583
49586,33583
49534,33635
49498,33722
49497,33816
49533,33903
49600,33969
49687,34005
49781,34005
49867,33970
49934,33903
49970,33816
49970,33784
50032,33722
50068,33667
50068,33757
50104,33844
50171,33910
50257,33946
50351,33946
50438,33911
50505,33844
50541,33757
50541,33724
50552,33713
50590,33656
50604,33588
50604,33583
50620,33583
50780,33583
50807,33572
50833,33583
50880,33583
51040,33583
51067,33572
51093,33583
51140,33583
51269,33583
51269,33592
51256,33606
51220,33692
51220,33786
51256,33873
51322,33940
51409,33976
51503,33976
51515,33971
51515,33983
51545,34055
51335,34055
51332,34056
51320,34028
51287,33995
51243,33977
51196,33977
50803,33977
50760,33994
50757,33997
50754,33994
50711,33976
50664,33976
50271,33976
50228,33994
50194,34027
50176,34070
50176,34117
50176,34550
50194,34594
50227,34627
50271,34645
50318,34645
50711,34645
50754,34627
50757,34625
50760,34628
50802,34645
50760,34662
50727,34696
50709,34739
50708,34786
50708,35020
50704,35016
50618,34980
50524,34980
50437,35016
50370,35082
50334,35169
50334,35263
50354,35312
50352,35313
50326,35338
50301,35313
50257,35295
50210,35295
49895,35295
49852,35313
49819,35346
49801,35389
49801,35436
49801,35465
49704,35465
49704,35390
49686,35347
49653,35313
49609,35295
49562,35295
49169,35295
49126,35313
49093,35347
49075,35390
49075,35437
49075,35870
49093,35913
49126,35947
49169,35965
49216,35965
49609,35965
49653,35947
49686,35914
49704,35870
49704,35823
49704,35820
49801,35820
49801,36027
49819,36070
49852,36104
49895,36122
49942,36122
50257,36122
50301,36104
50326,36078
50352,36104
50395,36122
50442,36122
50757,36122
50801,36104
50826,36078
50852,36104
50895,36122
50942,36122
51257,36122
51301,36104
51326,36078
51352,36104
51395,36122
51442,36122
51757,36122
51801,36104
51834,36070
51852,36027
51852,35980
51852,35389
51834,35346
51801,35313
51790,35308
51819,35297
51852,35263
51870,35220
51870,35173
51870,34740
51852,34696
51840,34685
51852,34673
51870,34629
51870,34582
51870,34149
51868,34144
51885,34137
51952,34070
51988,33984
51988,33890
51952,33803
51885,33736
51884,33736
51884,33583
51900,33583
52060,33583
52103,33565
52137,33532
52155,33488
52155,33441
52155,32941
52137,32898
52134,32895
52134,32786
52148,32771
52184,32684
52185,32591
52185,34645
52003,34645
51960,34663
51927,34696
51909,34740
51909,34787
51909,35220
51927,35263
51960,35296
52003,35314
52017,35314
51988,35385
51988,35479
52024,35566
52090,35633
52177,35669
52271,35669
52358,35633
52424,35567
52460,35480
52460,35386
52431,35314
52443,35314
52487,35297
52520,35263
52538,35220
52538,35173
52538,36903
52521,36863
52488,36830
52445,36812
52398,36811
52004,36811
51960,36829
51927,36863
51909,36906
51909,36953
51909,37268
51927,37311
51948,37333
51948,37401
51948,37452
51927,37473
51909,37516
51909,37563
51909,37996
51927,38039
51960,38073
52004,38091
52051,38091
52444,38091
52487,38073
52520,38040
52538,37996
52539,37949
52539,37516
52521,37473
52500,37452
52500,37401
52500,37401
52500,37346
52500,37346
52500,37333
52521,37312
52539,37268
52539,37221
52539,38728
52469,38799
50886,38799
50886,38795
50886,38402
50868,38358
50852,38342
50852,38250
50882,38322
50948,38389
51035,38425
51129,38425
51216,38389
51282,38322
51318,38236
51318,38142
51291,38076
51301,38072
51334,38039
51352,37996
51352,37949
51352,37358
51334,37315
51301,37281
51257,37263
51210,37263
50895,37263
50852,37281
50826,37307
50801,37281
50757,37263
50710,37263
50395,37263
50352,37281
50326,37307
50301,37281
50257,37263
50210,37263
49895,37263
49852,37281
49819,37314
49801,37358
49801,37405
49801,37467
49724,37467
49724,37338
49706,37294
49672,37261
49630,37244
49672,37226
49706,37193
49724,37150
49724,37105
49728,37109
49815,37145
49908,37145
49995,37109
50062,37043
50098,36956
50098,36862
50062,36775
49996,36709
49909,36673
49815,36673
49728,36709
49724,36713
49724,36670
49706,36626
49672,36593
49629,36575
49582,36575
49189,36575
49146,36593
49112,36626
49094,36669
49094,36716
49094,37149
49112,37193
49145,37226
49187,37244
49146,37261
49112,37294
49109,37302
49094,37302
49094,36393
49076,36350
49043,36317
48999,36299
48952,36299
48362,36299
48319,36317
48287,36348
48287,33936
48930,33936
48974,33918
49007,33885
49025,33842
49025,33795
49025,33008
49007,32964
48974,32931
48930,32913
48883,32913
48287,32913
48287,29645
53533,29645
53533,32066
53544,32123
53576,32171
53602,32188
53602,36709
" /> 
</g> 
</svg>
