<?xml version="1.0" standalone="no"?>
 <!DOCTYPE svg PUBLIC "-//W3C//DTD SVG 1.1//EN" 
 "http://www.w3.org/Graphics/SVG/1.1/DTD/svg11.dtd"> 
<svg xmlns="http://www.w3.org/2000/svg" version="1.1" 
    width="29.7002cm" height="21.0007cm" viewBox="0 0 116930 82680 ">
<title>SVG Picture created as nano-Inner1_Cu.svg date 2013/06/16 07:49:47 </title>
  <desc>Picture generated by PCBNEW </desc>
<g style="fill:#000000; fill-opacity:1;stroke:#000000; stroke-opacity:1;
stroke-linecap:round; stroke-linejoin:round; "
 transform="translate(0 0) scale(1 1)">
</g>
<g style="fill:#000000; fill-opacity:0.0; 
stroke:#000000; stroke-width:59.0551; stroke-opacity:1; 
stroke-linecap:round; stroke-linejoin:round;">
<path d="M53681 32066
L53681 26988
" />
<path d="M59055 32066
L53681 32066
" />
<path d="M59055 22224
L53681 22224
" />
<path d="M59055 26988
L53681 26988
" />
<path d="M53681 36830
L53681 39370
" />
<path d="M53681 22224
L53681 19685
" />
<path d="M59055 36830
L53681 36830
" />
</g>
<g style="fill:#000000; fill-opacity:0.0; 
stroke:#000000; stroke-width:0; stroke-opacity:1; 
stroke-linecap:round; stroke-linejoin:round;">
<path d="M39370 19685
L53681 19685
" />
<path d="M59055 22224
L59055 26988
" />
<path d="M59055 32066
L59055 36830
" />
<path d="M53681 39370
L39370 39370
" />
<path d="M39370 39370
L39370 19685
" />
</g>
<g style="fill:#000000; fill-opacity:0.0; 
stroke:#000000; stroke-width:39.3701; stroke-opacity:1; 
stroke-linecap:round; stroke-linejoin:round;">
</g>
<g style="fill:#000000; fill-opacity:1.0; 
stroke:#000000; stroke-width:39.3701; stroke-opacity:1; 
stroke-linecap:round; stroke-linejoin:round;">
<polyline style="fill-rule:evenodd;"
points="40240,35729
39680,35729
39680,35168
40240,35168
40240,35729
" /> 
<circle cx="39960.6" cy="34448.8" r="280.315" /> 
<circle cx="39960.6" cy="33448.8" r="280.315" /> 
<circle cx="46594.5" cy="32273.6" r="98.4252" /> 
<circle cx="46151.6" cy="33454.7" r="98.4252" /> 
<circle cx="49645.7" cy="32224.4" r="98.4252" /> 
<circle cx="47204.7" cy="30984.3" r="98.4252" /> 
<circle cx="52539.4" cy="33720.5" r="98.4252" /> 
<circle cx="53110.2" cy="34547.2" r="98.4252" /> 
<circle cx="45964.6" cy="35472.4" r="98.4252" /> 
<circle cx="51456.7" cy="33740.2" r="98.4252" /> 
<circle cx="45984.3" cy="35807.1" r="98.4252" /> 
<circle cx="51752" cy="33937" r="98.4252" /> 
<circle cx="49163.4" cy="30383.9" r="98.4252" /> 
<circle cx="50944.9" cy="31624" r="98.4252" /> 
<circle cx="47765.7" cy="30689" r="98.4252" /> 
<circle cx="50600.4" cy="31594.5" r="98.4252" /> 
<circle cx="40413.4" cy="30521.7" r="98.4252" /> 
<circle cx="49734.3" cy="33769.7" r="98.4252" /> 
<circle cx="50305.1" cy="33710.6" r="98.4252" /> 
<circle cx="44753.9" cy="30738.2" r="98.4252" /> 
<circle cx="50944.9" cy="32657.5" r="98.4252" /> 
<circle cx="50570.9" cy="35216.5" r="98.4252" /> 
<circle cx="51948.8" cy="32637.8" r="98.4252" /> 
<circle cx="45856.3" cy="32431.1" r="98.4252" /> 
<circle cx="45472.4" cy="31348.4" r="98.4252" /> 
<circle cx="51712.6" cy="31633.9" r="98.4252" /> 
<circle cx="44025.6" cy="32155.5" r="98.4252" /> 
<circle cx="45482.3" cy="31013.8" r="98.4252" /> 
<circle cx="43651.6" cy="32076.8" r="98.4252" /> 
<circle cx="51957.1" cy="30689" r="98.4252" /> 
<circle cx="51447.1" cy="30689" r="98.4252" /> 
<circle cx="52224.4" cy="35433.1" r="98.4252" /> 
<circle cx="47874" cy="35649.6" r="98.4252" /> 
<circle cx="48720.5" cy="33641.7" r="78.7402" /> 
<circle cx="47992.1" cy="33661.4" r="78.7402" /> 
<circle cx="48700.8" cy="33208.7" r="78.7402" /> 
<circle cx="48011.8" cy="33208.7" r="78.7402" /> 
<circle cx="48365.9" cy="33425.2" r="78.7402" /> 
<circle cx="53149.6" cy="36279.5" r="137.795" /> 
<circle cx="46555.1" cy="31063" r="98.4252" /> 
<circle cx="44744.1" cy="31496.1" r="98.4252" /> 
<circle cx="43976.4" cy="34744.1" r="78.7402" /> 
<circle cx="44409.4" cy="34744.1" r="78.7402" /> 
<circle cx="44409.4" cy="34311" r="78.7402" /> 
<circle cx="44409.4" cy="33878" r="78.7402" /> 
<circle cx="43976.4" cy="33878" r="78.7402" /> 
<circle cx="43976.4" cy="34311" r="78.7402" /> 
<circle cx="43543.3" cy="34744.1" r="78.7402" /> 
<circle cx="43533.5" cy="34734.3" r="78.7402" /> 
<circle cx="43966.5" cy="35167.3" r="78.7402" /> 
<circle cx="44399.6" cy="35167.3" r="78.7402" /> 
<circle cx="44399.6" cy="35600.4" r="78.7402" /> 
<circle cx="43966.5" cy="35600.4" r="78.7402" /> 
<circle cx="43533.5" cy="35600.4" r="78.7402" /> 
<circle cx="43533.5" cy="35167.3" r="78.7402" /> 
<circle cx="43110.2" cy="34744.1" r="78.7402" /> 
<circle cx="42677.2" cy="34744.1" r="78.7402" /> 
<circle cx="42677.2" cy="35177.2" r="78.7402" /> 
<circle cx="42677.2" cy="35610.2" r="78.7402" /> 
<circle cx="43110.2" cy="35610.2" r="78.7402" /> 
<circle cx="43110.2" cy="35177.2" r="78.7402" /> 
<circle cx="43543.3" cy="34744.1" r="78.7402" /> 
<circle cx="43543.3" cy="34744.1" r="78.7402" /> 
<circle cx="43110.2" cy="34311" r="78.7402" /> 
<circle cx="42677.2" cy="34311" r="78.7402" /> 
<circle cx="42677.2" cy="33878" r="78.7402" /> 
<circle cx="43110.2" cy="33878" r="78.7402" /> 
<circle cx="43543.3" cy="33878" r="78.7402" /> 
<circle cx="43543.3" cy="34311" r="78.7402" /> 
<circle cx="46378" cy="34685" r="98.4252" /> 
<circle cx="46535.4" cy="33503.9" r="98.4252" /> 
<circle cx="44763.8" cy="37126" r="98.4252" /> 
<circle cx="42696.9" cy="37597.5" r="98.4252" /> 
<circle cx="42440.9" cy="31713.5" r="98.4252" /> 
<circle cx="49370.1" cy="31122" r="98.4252" /> 
<circle cx="51259.8" cy="36397.6" r="78.7402" /> 
<circle cx="51259.8" cy="36948.8" r="78.7402" /> 
<circle cx="50826.8" cy="36948.8" r="78.7402" /> 
<circle cx="50393.7" cy="36948.8" r="78.7402" /> 
<circle cx="50393.7" cy="36397.6" r="78.7402" /> 
<circle cx="50826.8" cy="36397.6" r="78.7402" /> 
<circle cx="49862.2" cy="36909.4" r="98.4252" /> 
<circle cx="51082.7" cy="38189" r="98.4252" /> 
<circle cx="43769.7" cy="31221.1" r="98.4252" /> 
<circle cx="39921.3" cy="38690.9" r="98.4252" /> 
<circle cx="49389.8" cy="33208.7" r="98.4252" /> 
<circle cx="45866.1" cy="31259.8" r="98.4252" /> 
<circle cx="47775.6" cy="32303.1" r="98.4252" /> 
<circle cx="44921.3" cy="37618.1" r="98.4252" /> 
<circle cx="42106.3" cy="37086.6" r="98.4252" /> 
<circle cx="41811" cy="32224.4" r="98.4252" /> 
<circle cx="52618.1" cy="30807.1" r="98.4252" /> 
<circle cx="52224.5" cy="37401.6" r="137.795" /> 
</g>
<g style="fill:#000000; fill-opacity:1.0; 
stroke:#000000; stroke-width:118.11; stroke-opacity:1; 
stroke-linecap:round; stroke-linejoin:round;">
<path d="M49645 32224
L48405 30984
" />
<path d="M48405 30984
L47204 30984
" />
<path d="M50118 30383
L49163 30383
" />
<path d="M50935 31200
L50118 30383
" />
<path d="M50935 31614
L50935 31200
" />
<path d="M50944 31624
L50935 31614
" />
<path d="M48494 30688
L47765 30688
" />
<path d="M49389 31584
L48494 30688
" />
<path d="M50590 31584
L49389 31584
" />
<path d="M50600 31594
L50590 31584
" />
<path d="M49448 32854
L50305 33710
" />
<path d="M45738 32854
L49448 32854
" />
<path d="M45059 32175
L45738 32854
" />
<path d="M45059 31043
L45059 32175
" />
<path d="M44753 30738
L45059 31043
" />
<path d="M50944 32641
L50944 32657
" />
<path d="M50570 33011
L50944 32641
" />
<path d="M50570 33129
L50570 33011
" />
<path d="M50570 35216
L50570 33129
" />
<path d="M46043 32618
L50541 32618
" />
<path d="M51683 32372
L51948 32637
" />
<path d="M50787 32372
L51683 32372
" />
<path d="M50541 32618
L50787 32372
" />
<path d="M45856 32431
L46043 32618
" />
<path d="M39960 34448
L40492 33917
" />
<path d="M40492 30925
L40492 33917
" />
<path d="M41574 29842
L40492 30925
" />
<path d="M51110 29842
L41574 29842
" />
<path d="M51110 29842
L51957 30688
" />
<path d="M39960 35448
L40393 35452
" />
<path d="M40393 35452
L40728 35118
" />
<path d="M40728 31043
L40728 35118
" />
<path d="M41692 30088
L40728 31043
" />
<path d="M41692 30088
L50875 30088
" />
<path d="M50875 30088
L51447 30688
" />
<path d="M48365 33425
L48503 33425
" />
<path d="M48503 33425
L48720 33641
" />
<path d="M48365 33425
L48228 33425
" />
<path d="M48228 33425
L47992 33661
" />
<path d="M48365 33425
L48484 33425
" />
<path d="M48484 33425
L48700 33208
" />
<path d="M48228 33425
L48011 33208
" />
<path d="M48365 33425
L48366 33425
" />
<path d="M48366 33425
L48366 33444
" />
</g>
<g style="fill:#000000; fill-opacity:1.0; 
stroke:#000000; stroke-width:314.961; stroke-opacity:1; 
stroke-linecap:round; stroke-linejoin:round;">
<path d="M53149 36279
L52716 35846
" />
<path d="M52716 35846
L49507 35846
" />
<path d="M48366 34724
L48366 33425
" />
<path d="M48366 33425
L48366 33444
" />
<path d="M49507 35846
L48366 34724
" />
</g>
<g style="fill:#000000; fill-opacity:1.0; 
stroke:#000000; stroke-width:39.3701; stroke-opacity:1; 
stroke-linecap:round; stroke-linejoin:round;">
<polyline style="fill-rule:evenodd;"
points="53641,36690
53624,36694
53576,36726
53544,36774
53533,36830
53533,39251
53425,39251
53425,36224
53404,36174
53404,36174
53404,36174
53383,36123
53346,36086
53346,34500
53310,34413
53244,34347
53157,34311
53063,34310
52976,34346
52910,34413
52874,34500
52873,34594
52909,34680
52976,34747
53063,34783
53157,34783
53243,34747
53310,34681
53346,34594
53346,34500
53346,36086
53344,36084
53344,36084
53305,36046
53305,36045
52911,35651
52821,35591
52775,35582
52775,33673
52739,33586
52673,33520
52586,33484
52492,33484
52405,33520
52339,33586
52303,33673
52303,33767
52338,33854
52405,33920
52492,33956
52586,33956
52673,33920
52739,33854
52775,33767
52775,33673
52775,35582
52716,35570
52420,35570
52424,35567
52460,35480
52460,35386
52424,35299
52358,35232
52271,35196
52177,35196
52090,35232
52024,35299
51988,35385
51988,33890
51952,33803
51885,33736
51799,33700
51705,33700
51692,33705
51692,33693
51657,33606
51590,33540
51503,33503
51409,33503
51323,33539
51256,33606
51220,33692
51220,33786
51256,33873
51322,33940
51409,33976
51503,33976
51515,33971
51515,33983
51551,34070
51617,34137
51704,34173
51798,34173
51885,34137
51952,34070
51988,33984
51988,33890
51988,35385
51988,35479
52024,35566
52028,35570
49970,35570
49970,33722
49934,33636
49868,33569
49781,33533
49687,33533
49600,33569
49534,33635
49498,33722
49497,33816
49533,33903
49600,33969
49687,34005
49781,34005
49867,33970
49934,33903
49970,33816
49970,33722
49970,35570
49620,35570
49015,34976
48641,34608
48641,33937
49015,33937
49015,33031
49375,33031
50068,33724
50068,33757
50104,33844
50171,33910
50257,33946
50351,33946
50393,33929
50393,35059
50370,35082
50334,35169
50334,35263
50370,35350
50436,35416
50523,35452
50617,35452
50704,35416
50771,35350
50807,35263
50807,35169
50771,35082
50748,35059
50748,33129
50748,33085
50942,32893
50991,32893
51078,32857
51145,32791
51181,32704
51181,32610
51155,32549
51609,32549
51712,32652
51712,32684
51748,32771
51814,32837
51901,32873
51995,32874
52082,32838
52148,32771
52184,32684
52185,32591
52149,32504
52082,32437
51996,32401
51963,32401
51948,32387
51948,31587
51912,31500
51846,31433
51759,31397
51665,31397
51578,31433
51512,31499
51476,31586
51476,31680
51512,31767
51578,31833
51665,31870
51759,31870
51846,31834
51912,31767
51948,31681
51948,31587
51948,32387
51808,32246
51750,32208
51683,32194
50787,32194
50719,32208
50662,32246
50467,32440
49740,32440
49779,32424
49845,32358
49881,32271
49881,32177
49846,32090
49779,32024
49692,31988
49660,31988
49433,31761
50433,31761
50466,31794
50553,31830
50647,31830
50734,31794
50757,31771
50810,31824
50897,31860
50991,31860
51078,31824
51145,31757
51181,31671
51181,31577
51145,31490
51112,31457
51112,31200
51098,31132
51098,31132
51060,31075
50250,30265
50800,30265
51210,30697
51210,30735
51246,30822
51313,30889
51399,30925
51493,30925
51580,30889
51647,30822
51683,30736
51683,30665
51720,30703
51720,30735
51756,30822
51823,30889
51909,30925
52003,30925
52090,30889
52157,30822
52193,30736
52193,30642
52157,30555
52091,30488
52004,30452
51971,30452
51235,29717
51178,29678
51110,29665
41574,29665
41507,29678
41449,29717
40649,30517
40649,30474
40613,30388
40547,30321
40460,30285
40366,30285
40279,30321
40213,30387
40177,30474
40177,30568
40213,30655
40279,30721
40366,30757
40408,30757
40366,30799
40328,30857
40314,30925
40314,33211
40197,33094
40044,33030
39877,33030
39724,33094
39606,33211
39542,33365
39542,33531
39605,33685
39723,33803
39877,33866
40043,33867
40197,33803
40314,33685
40314,33685
40314,33843
40103,34055
40044,34030
39877,34030
39724,34094
39606,34211
39542,34365
39542,34531
39605,34685
39723,34803
39877,34866
40043,34867
40197,34803
40314,34685
40378,34532
40378,34366
40354,34305
40551,34108
40551,35044
40378,35217
40378,35125
40360,35082
40327,35048
40284,35030
40237,35030
39637,35030
39593,35048
39560,35081
39542,35125
39542,35172
39542,35772
39560,35815
39593,35848
39637,35866
39684,35866
40284,35866
40327,35849
40360,35815
40378,35772
40378,35725
40378,35629
40392,35629
40392,35629
40393,35629
40444,35619
40460,35616
40460,35616
40461,35616
40502,35589
40517,35578
40518,35578
40518,35578
40853,35243
40892,35185
40892,35185
40905,35118
40905,31117
41765,30265
48956,30265
48927,30336
48927,30430
48963,30517
49029,30583
49116,30620
49210,30620
49297,30584
49320,30561
50044,30561
50757,31274
50757,31417
50734,31394
50647,31358
50553,31358
50466,31394
50453,31407
49463,31407
49413,31358
49416,31358
49503,31322
49570,31256
49606,31169
49606,31075
49570,30988
49504,30921
49417,30885
49323,30885
49236,30921
49169,30988
49133,31074
49133,31078
48619,30563
48561,30525
48494,30511
47922,30511
47899,30488
47812,30452
47718,30452
47632,30488
47565,30554
47529,30641
47529,30735
47558,30807
47361,30807
47338,30784
47251,30748
47157,30747
47071,30783
47004,30850
46968,30937
46968,31031
47004,31117
47070,31184
47157,31220
47251,31220
47338,31184
47361,31161
48332,31161
49409,32238
49409,32271
49445,32358
49511,32424
49551,32440
46761,32440
46794,32407
46830,32320
46830,32226
46794,32139
46791,32136
46791,31016
46755,30929
46689,30862
46602,30826
46508,30826
46421,30862
46354,30929
46318,31015
46318,31109
46354,31196
46421,31263
46507,31299
46601,31299
46688,31263
46755,31196
46791,31110
46791,31016
46791,32136
46728,32073
46641,32037
46547,32037
46460,32073
46394,32139
46358,32226
46358,32320
46394,32407
46427,32440
46116,32440
46092,32416
46092,32384
46056,32297
45990,32230
45903,32194
45809,32194
45722,32230
45656,32297
45620,32383
45620,32477
45625,32491
45236,32101
45236,31395
45272,31482
45338,31548
45425,31584
45519,31584
45606,31548
45672,31482
45708,31395
45708,31301
45672,31214
45644,31186
45682,31147
45718,31060
45718,30966
45682,30880
45616,30813
45529,30777
45435,30777
45348,30813
45282,30879
45246,30966
45246,31060
45281,31147
45310,31176
45272,31214
45236,31301
45236,31348
45236,31043
45222,30975
45222,30975
45184,30918
44990,30723
44990,30691
44954,30604
44887,30538
44801,30502
44707,30501
44620,30537
44553,30604
44517,30690
44517,30784
44553,30871
44619,30938
44706,30974
44739,30974
44881,31116
44881,31299
44878,31295
44791,31259
44697,31259
44610,31295
44543,31362
44507,31448
44507,31542
44543,31629
44610,31696
44696,31732
44790,31732
44877,31696
44881,31692
44881,32175
44895,32242
44933,32300
45612,32979
45670,33018
45738,33031
47716,33031
47716,33877
47716,33937
48090,33937
48090,34724
48090,34725
48090,34726
48101,34778
48111,34829
48112,34830
48112,34832
48142,34875
48171,34919
48172,34919
48172,34920
49015,35749
49312,36041
49313,36041
49313,36041
49314,36042
49354,36068
49402,36101
49403,36101
49404,36101
49451,36110
49507,36122
52602,36122
52954,36474
52993,36513
53044,36534
53044,36534
53044,36534
53094,36555
53149,36555
53204,36555
53255,36534
53255,36534
53255,36534
53305,36513
53344,36474
53344,36474
53344,36474
53383,36435
53404,36384
53404,36384
53404,36384
53425,36334
53425,36279
53425,36224
53425,39251
51476,39251
51476,36905
51476,36354
51443,36275
51382,36214
51303,36181
51216,36181
51137,36213
51076,36274
51043,36354
51043,36354
51010,36275
50949,36214
50870,36181
50783,36181
50704,36213
50643,36274
50610,36354
50610,36354
50577,36275
50516,36214
50436,36181
50350,36181
50271,36213
50210,36274
50177,36354
50177,36440
50210,36520
50270,36581
50350,36614
50436,36614
50516,36581
50577,36520
50610,36440
50610,36354
50610,36440
50643,36520
50703,36581
50783,36614
50869,36614
50949,36581
51010,36520
51043,36440
51043,36354
51043,36440
51076,36520
51137,36581
51216,36614
51302,36614
51382,36581
51443,36520
51476,36440
51476,36354
51476,36905
51443,36826
51382,36765
51303,36732
51216,36732
51137,36765
51076,36826
51043,36905
51043,36905
51010,36826
50949,36765
50870,36732
50783,36732
50704,36765
50643,36826
50610,36905
50610,36905
50577,36826
50516,36765
50436,36732
50350,36732
50271,36765
50210,36826
50177,36905
50177,36991
50210,37071
50270,37132
50350,37165
50436,37165
50516,37132
50577,37071
50610,36992
50610,36905
50610,36991
50643,37071
50703,37132
50783,37165
50869,37165
50949,37132
51010,37071
51043,36992
51043,36905
51043,36991
51076,37071
51137,37132
51216,37165
51302,37165
51382,37132
51443,37071
51476,36992
51476,36905
51476,39251
51318,39251
51318,38142
51283,38055
51216,37988
51129,37952
51035,37952
50949,37988
50882,38054
50846,38141
50846,38235
50882,38322
50948,38389
51035,38425
51129,38425
51216,38389
51282,38322
51318,38236
51318,38142
51318,39251
50098,39251
50098,36862
50062,36775
49996,36709
49909,36673
49815,36673
49728,36709
49662,36775
49626,36862
49625,36956
49661,37043
49728,37109
49815,37145
49908,37145
49995,37109
50062,37043
50098,36956
50098,36862
50098,39251
49015,39251
48110,39251
48110,35602
48074,35515
48007,35449
47921,35413
47827,35413
47740,35449
47673,35515
47637,35602
47637,35696
47673,35783
47740,35849
47826,35885
47920,35885
48007,35849
48074,35783
48110,35696
48110,35602
48110,39251
46771,39251
46771,33457
46735,33370
46669,33303
46582,33267
46488,33267
46401,33303
46361,33343
46351,33321
46285,33254
46198,33218
46104,33218
46017,33254
45951,33320
45915,33407
45915,33501
45951,33588
46017,33654
46104,33690
46198,33690
46285,33655
46325,33614
46335,33637
46401,33704
46488,33740
46582,33740
46669,33704
46735,33637
46771,33551
46771,33457
46771,39251
46614,39251
46614,34638
46578,34551
46511,34484
46425,34448
46331,34448
46244,34484
46177,34551
46141,34637
46141,34731
46177,34818
46243,34885
46330,34921
46424,34921
46511,34885
46578,34819
46614,34732
46614,34638
46614,39251
46220,39251
46220,35760
46184,35673
46141,35629
46164,35606
46200,35519
46200,35425
46164,35338
46098,35272
46011,35236
45917,35236
45830,35272
45764,35338
45728,35425
45728,35519
45764,35606
45807,35649
45784,35673
45748,35759
45747,35853
45783,35940
45850,36007
45937,36043
46031,36043
46117,36007
46184,35941
46220,35854
46220,35760
46220,39251
45000,39251
45000,37079
44964,36992
44897,36925
44810,36889
44716,36889
44630,36925
44626,36929
44626,34701
44593,34621
44532,34560
44452,34527
44452,34527
44531,34494
44592,34433
44625,34354
44626,34268
44593,34188
44532,34127
44452,34094
44452,34094
44531,34061
44592,34000
44625,33921
44626,33835
44593,33755
44532,33694
44452,33661
44366,33661
44286,33694
44261,33719
44261,32108
44225,32021
44159,31955
44072,31919
43978,31919
43891,31955
43867,31979
43851,31943
43785,31876
43698,31840
43604,31840
43517,31876
43451,31942
43415,32029
43415,32123
43451,32210
43517,32276
43604,32312
43698,32313
43785,32277
43810,32252
43825,32289
43891,32355
43978,32391
44072,32391
44159,32355
44225,32289
44261,32202
44261,32108
44261,33719
44225,33755
44192,33834
44192,33835
44160,33755
44099,33694
44019,33661
43933,33661
43853,33694
43792,33755
43759,33834
43759,33835
43726,33755
43666,33694
43586,33661
43500,33661
43420,33694
43359,33755
43326,33834
43326,33835
43293,33755
43233,33694
43153,33661
43067,33661
42987,33694
42926,33755
42893,33834
42893,33835
42860,33755
42799,33694
42720,33661
42677,33661
42677,31666
42641,31579
42574,31513
42488,31477
42394,31477
42307,31513
42240,31579
42204,31666
42204,31760
42240,31847
42306,31913
42393,31949
42487,31949
42574,31913
42641,31847
42677,31760
42677,31666
42677,33661
42634,33661
42554,33694
42493,33755
42460,33834
42460,33920
42493,34000
42554,34061
42633,34094
42720,34094
42634,34094
42554,34127
42493,34188
42460,34267
42460,34353
42493,34433
42554,34494
42633,34527
42720,34527
42634,34527
42554,34560
42493,34621
42460,34700
42460,34786
42493,34866
42554,34927
42633,34960
42720,34960
42634,34960
42554,34993
42493,35054
42460,35133
42460,35220
42493,35299
42554,35360
42633,35393
42720,35393
42634,35393
42554,35426
42493,35487
42460,35566
42460,35653
42493,35732
42554,35793
42633,35826
42720,35826
42799,35793
42860,35733
42893,35653
42893,35567
42893,35653
42926,35732
42987,35793
43066,35826
43153,35826
43232,35793
43293,35733
43323,35660
43349,35722
43410,35783
43490,35816
43576,35816
43655,35784
43716,35723
43749,35643
43750,35557
43749,35643
43782,35722
43843,35783
43923,35816
44009,35816
44089,35784
44149,35723
44183,35643
44183,35557
44183,35643
44215,35722
44276,35783
44356,35816
44442,35816
44522,35784
44583,35723
44616,35643
44616,35557
44583,35477
44522,35416
44442,35383
44442,35383
44522,35350
44583,35290
44616,35210
44616,35124
44583,35044
44522,34983
44459,34957
44531,34927
44592,34866
44625,34787
44626,34701
44626,36929
44563,36992
44527,37078
44527,37172
44563,37259
44629,37326
44716,37362
44810,37362
44897,37326
44963,37259
44999,37173
45000,37079
45000,39251
42933,39251
42933,37550
42897,37463
42830,37397
42744,37361
42650,37361
42563,37397
42496,37463
42460,37550
42460,37644
42496,37731
42562,37797
42649,37833
42743,37833
42830,37797
42896,37731
42933,37644
42933,37550
42933,39251
39488,39251
39488,29566
53533,29566
53533,32066
53544,32123
53576,32171
53624,32203
53641,32206
53641,36690
" /> 
</g>
<g style="fill:#000000; fill-opacity:0.0; 
stroke:#000000; stroke-width:78.7402; stroke-opacity:1; 
stroke-linecap:round; stroke-linejoin:round;">
<polyline fill="none;"
points="53641,36690
53624,36694
53576,36726
53544,36774
53533,36830
53533,39251
53425,39251
53425,36224
53404,36174
53404,36174
53404,36174
53383,36123
53346,36086
53346,34500
53310,34413
53244,34347
53157,34311
53063,34310
52976,34346
52910,34413
52874,34500
52873,34594
52909,34680
52976,34747
53063,34783
53157,34783
53243,34747
53310,34681
53346,34594
53346,34500
53346,36086
53344,36084
53344,36084
53305,36046
53305,36045
52911,35651
52821,35591
52775,35582
52775,33673
52739,33586
52673,33520
52586,33484
52492,33484
52405,33520
52339,33586
52303,33673
52303,33767
52338,33854
52405,33920
52492,33956
52586,33956
52673,33920
52739,33854
52775,33767
52775,33673
52775,35582
52716,35570
52420,35570
52424,35567
52460,35480
52460,35386
52424,35299
52358,35232
52271,35196
52177,35196
52090,35232
52024,35299
51988,35385
51988,33890
51952,33803
51885,33736
51799,33700
51705,33700
51692,33705
51692,33693
51657,33606
51590,33540
51503,33503
51409,33503
51323,33539
51256,33606
51220,33692
51220,33786
51256,33873
51322,33940
51409,33976
51503,33976
51515,33971
51515,33983
51551,34070
51617,34137
51704,34173
51798,34173
51885,34137
51952,34070
51988,33984
51988,33890
51988,35385
51988,35479
52024,35566
52028,35570
49970,35570
49970,33722
49934,33636
49868,33569
49781,33533
49687,33533
49600,33569
49534,33635
49498,33722
49497,33816
49533,33903
49600,33969
49687,34005
49781,34005
49867,33970
49934,33903
49970,33816
49970,33722
49970,35570
49620,35570
49015,34976
48641,34608
48641,33937
49015,33937
49015,33031
49375,33031
50068,33724
50068,33757
50104,33844
50171,33910
50257,33946
50351,33946
50393,33929
50393,35059
50370,35082
50334,35169
50334,35263
50370,35350
50436,35416
50523,35452
50617,35452
50704,35416
50771,35350
50807,35263
50807,35169
50771,35082
50748,35059
50748,33129
50748,33085
50942,32893
50991,32893
51078,32857
51145,32791
51181,32704
51181,32610
51155,32549
51609,32549
51712,32652
51712,32684
51748,32771
51814,32837
51901,32873
51995,32874
52082,32838
52148,32771
52184,32684
52185,32591
52149,32504
52082,32437
51996,32401
51963,32401
51948,32387
51948,31587
51912,31500
51846,31433
51759,31397
51665,31397
51578,31433
51512,31499
51476,31586
51476,31680
51512,31767
51578,31833
51665,31870
51759,31870
51846,31834
51912,31767
51948,31681
51948,31587
51948,32387
51808,32246
51750,32208
51683,32194
50787,32194
50719,32208
50662,32246
50467,32440
49740,32440
49779,32424
49845,32358
49881,32271
49881,32177
49846,32090
49779,32024
49692,31988
49660,31988
49433,31761
50433,31761
50466,31794
50553,31830
50647,31830
50734,31794
50757,31771
50810,31824
50897,31860
50991,31860
51078,31824
51145,31757
51181,31671
51181,31577
51145,31490
51112,31457
51112,31200
51098,31132
51098,31132
51060,31075
50250,30265
50800,30265
51210,30697
51210,30735
51246,30822
51313,30889
51399,30925
51493,30925
51580,30889
51647,30822
51683,30736
51683,30665
51720,30703
51720,30735
51756,30822
51823,30889
51909,30925
52003,30925
52090,30889
52157,30822
52193,30736
52193,30642
52157,30555
52091,30488
52004,30452
51971,30452
51235,29717
51178,29678
51110,29665
41574,29665
41507,29678
41449,29717
40649,30517
40649,30474
40613,30388
40547,30321
40460,30285
40366,30285
40279,30321
40213,30387
40177,30474
40177,30568
40213,30655
40279,30721
40366,30757
40408,30757
40366,30799
40328,30857
40314,30925
40314,33211
40197,33094
40044,33030
39877,33030
39724,33094
39606,33211
39542,33365
39542,33531
39605,33685
39723,33803
39877,33866
40043,33867
40197,33803
40314,33685
40314,33685
40314,33843
40103,34055
40044,34030
39877,34030
39724,34094
39606,34211
39542,34365
39542,34531
39605,34685
39723,34803
39877,34866
40043,34867
40197,34803
40314,34685
40378,34532
40378,34366
40354,34305
40551,34108
40551,35044
40378,35217
40378,35125
40360,35082
40327,35048
40284,35030
40237,35030
39637,35030
39593,35048
39560,35081
39542,35125
39542,35172
39542,35772
39560,35815
39593,35848
39637,35866
39684,35866
40284,35866
40327,35849
40360,35815
40378,35772
40378,35725
40378,35629
40392,35629
40392,35629
40393,35629
40444,35619
40460,35616
40460,35616
40461,35616
40502,35589
40517,35578
40518,35578
40518,35578
40853,35243
40892,35185
40892,35185
40905,35118
40905,31117
41765,30265
48956,30265
48927,30336
48927,30430
48963,30517
49029,30583
49116,30620
49210,30620
49297,30584
49320,30561
50044,30561
50757,31274
50757,31417
50734,31394
50647,31358
50553,31358
50466,31394
50453,31407
49463,31407
49413,31358
49416,31358
49503,31322
49570,31256
49606,31169
49606,31075
49570,30988
49504,30921
49417,30885
49323,30885
49236,30921
49169,30988
49133,31074
49133,31078
48619,30563
48561,30525
48494,30511
47922,30511
47899,30488
47812,30452
47718,30452
47632,30488
47565,30554
47529,30641
47529,30735
47558,30807
47361,30807
47338,30784
47251,30748
47157,30747
47071,30783
47004,30850
46968,30937
46968,31031
47004,31117
47070,31184
47157,31220
47251,31220
47338,31184
47361,31161
48332,31161
49409,32238
49409,32271
49445,32358
49511,32424
49551,32440
46761,32440
46794,32407
46830,32320
46830,32226
46794,32139
46791,32136
46791,31016
46755,30929
46689,30862
46602,30826
46508,30826
46421,30862
46354,30929
46318,31015
46318,31109
46354,31196
46421,31263
46507,31299
46601,31299
46688,31263
46755,31196
46791,31110
46791,31016
46791,32136
46728,32073
46641,32037
46547,32037
46460,32073
46394,32139
46358,32226
46358,32320
46394,32407
46427,32440
46116,32440
46092,32416
46092,32384
46056,32297
45990,32230
45903,32194
45809,32194
45722,32230
45656,32297
45620,32383
45620,32477
45625,32491
45236,32101
45236,31395
45272,31482
45338,31548
45425,31584
45519,31584
45606,31548
45672,31482
45708,31395
45708,31301
45672,31214
45644,31186
45682,31147
45718,31060
45718,30966
45682,30880
45616,30813
45529,30777
45435,30777
45348,30813
45282,30879
45246,30966
45246,31060
45281,31147
45310,31176
45272,31214
45236,31301
45236,31348
45236,31043
45222,30975
45222,30975
45184,30918
44990,30723
44990,30691
44954,30604
44887,30538
44801,30502
44707,30501
44620,30537
44553,30604
44517,30690
44517,30784
44553,30871
44619,30938
44706,30974
44739,30974
44881,31116
44881,31299
44878,31295
44791,31259
44697,31259
44610,31295
44543,31362
44507,31448
44507,31542
44543,31629
44610,31696
44696,31732
44790,31732
44877,31696
44881,31692
44881,32175
44895,32242
44933,32300
45612,32979
45670,33018
45738,33031
47716,33031
47716,33877
47716,33937
48090,33937
48090,34724
48090,34725
48090,34726
48101,34778
48111,34829
48112,34830
48112,34832
48142,34875
48171,34919
48172,34919
48172,34920
49015,35749
49312,36041
49313,36041
49313,36041
49314,36042
49354,36068
49402,36101
49403,36101
49404,36101
49451,36110
49507,36122
52602,36122
52954,36474
52993,36513
53044,36534
53044,36534
53044,36534
53094,36555
53149,36555
53204,36555
53255,36534
53255,36534
53255,36534
53305,36513
53344,36474
53344,36474
53344,36474
53383,36435
53404,36384
53404,36384
53404,36384
53425,36334
53425,36279
53425,36224
53425,39251
51476,39251
51476,36905
51476,36354
51443,36275
51382,36214
51303,36181
51216,36181
51137,36213
51076,36274
51043,36354
51043,36354
51010,36275
50949,36214
50870,36181
50783,36181
50704,36213
50643,36274
50610,36354
50610,36354
50577,36275
50516,36214
50436,36181
50350,36181
50271,36213
50210,36274
50177,36354
50177,36440
50210,36520
50270,36581
50350,36614
50436,36614
50516,36581
50577,36520
50610,36440
50610,36354
50610,36440
50643,36520
50703,36581
50783,36614
50869,36614
50949,36581
51010,36520
51043,36440
51043,36354
51043,36440
51076,36520
51137,36581
51216,36614
51302,36614
51382,36581
51443,36520
51476,36440
51476,36354
51476,36905
51443,36826
51382,36765
51303,36732
51216,36732
51137,36765
51076,36826
51043,36905
51043,36905
51010,36826
50949,36765
50870,36732
50783,36732
50704,36765
50643,36826
50610,36905
50610,36905
50577,36826
50516,36765
50436,36732
50350,36732
50271,36765
50210,36826
50177,36905
50177,36991
50210,37071
50270,37132
50350,37165
50436,37165
50516,37132
50577,37071
50610,36992
50610,36905
50610,36991
50643,37071
50703,37132
50783,37165
50869,37165
50949,37132
51010,37071
51043,36992
51043,36905
51043,36991
51076,37071
51137,37132
51216,37165
51302,37165
51382,37132
51443,37071
51476,36992
51476,36905
51476,39251
51318,39251
51318,38142
51283,38055
51216,37988
51129,37952
51035,37952
50949,37988
50882,38054
50846,38141
50846,38235
50882,38322
50948,38389
51035,38425
51129,38425
51216,38389
51282,38322
51318,38236
51318,38142
51318,39251
50098,39251
50098,36862
50062,36775
49996,36709
49909,36673
49815,36673
49728,36709
49662,36775
49626,36862
49625,36956
49661,37043
49728,37109
49815,37145
49908,37145
49995,37109
50062,37043
50098,36956
50098,36862
50098,39251
49015,39251
48110,39251
48110,35602
48074,35515
48007,35449
47921,35413
47827,35413
47740,35449
47673,35515
47637,35602
47637,35696
47673,35783
47740,35849
47826,35885
47920,35885
48007,35849
48074,35783
48110,35696
48110,35602
48110,39251
46771,39251
46771,33457
46735,33370
46669,33303
46582,33267
46488,33267
46401,33303
46361,33343
46351,33321
46285,33254
46198,33218
46104,33218
46017,33254
45951,33320
45915,33407
45915,33501
45951,33588
46017,33654
46104,33690
46198,33690
46285,33655
46325,33614
46335,33637
46401,33704
46488,33740
46582,33740
46669,33704
46735,33637
46771,33551
46771,33457
46771,39251
46614,39251
46614,34638
46578,34551
46511,34484
46425,34448
46331,34448
46244,34484
46177,34551
46141,34637
46141,34731
46177,34818
46243,34885
46330,34921
46424,34921
46511,34885
46578,34819
46614,34732
46614,34638
46614,39251
46220,39251
46220,35760
46184,35673
46141,35629
46164,35606
46200,35519
46200,35425
46164,35338
46098,35272
46011,35236
45917,35236
45830,35272
45764,35338
45728,35425
45728,35519
45764,35606
45807,35649
45784,35673
45748,35759
45747,35853
45783,35940
45850,36007
45937,36043
46031,36043
46117,36007
46184,35941
46220,35854
46220,35760
46220,39251
45000,39251
45000,37079
44964,36992
44897,36925
44810,36889
44716,36889
44630,36925
44626,36929
44626,34701
44593,34621
44532,34560
44452,34527
44452,34527
44531,34494
44592,34433
44625,34354
44626,34268
44593,34188
44532,34127
44452,34094
44452,34094
44531,34061
44592,34000
44625,33921
44626,33835
44593,33755
44532,33694
44452,33661
44366,33661
44286,33694
44261,33719
44261,32108
44225,32021
44159,31955
44072,31919
43978,31919
43891,31955
43867,31979
43851,31943
43785,31876
43698,31840
43604,31840
43517,31876
43451,31942
43415,32029
43415,32123
43451,32210
43517,32276
43604,32312
43698,32313
43785,32277
43810,32252
43825,32289
43891,32355
43978,32391
44072,32391
44159,32355
44225,32289
44261,32202
44261,32108
44261,33719
44225,33755
44192,33834
44192,33835
44160,33755
44099,33694
44019,33661
43933,33661
43853,33694
43792,33755
43759,33834
43759,33835
43726,33755
43666,33694
43586,33661
43500,33661
43420,33694
43359,33755
43326,33834
43326,33835
43293,33755
43233,33694
43153,33661
43067,33661
42987,33694
42926,33755
42893,33834
42893,33835
42860,33755
42799,33694
42720,33661
42677,33661
42677,31666
42641,31579
42574,31513
42488,31477
42394,31477
42307,31513
42240,31579
42204,31666
42204,31760
42240,31847
42306,31913
42393,31949
42487,31949
42574,31913
42641,31847
42677,31760
42677,31666
42677,33661
42634,33661
42554,33694
42493,33755
42460,33834
42460,33920
42493,34000
42554,34061
42633,34094
42720,34094
42634,34094
42554,34127
42493,34188
42460,34267
42460,34353
42493,34433
42554,34494
42633,34527
42720,34527
42634,34527
42554,34560
42493,34621
42460,34700
42460,34786
42493,34866
42554,34927
42633,34960
42720,34960
42634,34960
42554,34993
42493,35054
42460,35133
42460,35220
42493,35299
42554,35360
42633,35393
42720,35393
42634,35393
42554,35426
42493,35487
42460,35566
42460,35653
42493,35732
42554,35793
42633,35826
42720,35826
42799,35793
42860,35733
42893,35653
42893,35567
42893,35653
42926,35732
42987,35793
43066,35826
43153,35826
43232,35793
43293,35733
43323,35660
43349,35722
43410,35783
43490,35816
43576,35816
43655,35784
43716,35723
43749,35643
43750,35557
43749,35643
43782,35722
43843,35783
43923,35816
44009,35816
44089,35784
44149,35723
44183,35643
44183,35557
44183,35643
44215,35722
44276,35783
44356,35816
44442,35816
44522,35784
44583,35723
44616,35643
44616,35557
44583,35477
44522,35416
44442,35383
44442,35383
44522,35350
44583,35290
44616,35210
44616,35124
44583,35044
44522,34983
44459,34957
44531,34927
44592,34866
44625,34787
44626,34701
44626,36929
44563,36992
44527,37078
44527,37172
44563,37259
44629,37326
44716,37362
44810,37362
44897,37326
44963,37259
44999,37173
45000,37079
45000,39251
42933,39251
42933,37550
42897,37463
42830,37397
42744,37361
42650,37361
42563,37397
42496,37463
42460,37550
42460,37644
42496,37731
42562,37797
42649,37833
42743,37833
42830,37797
42896,37731
42933,37644
42933,37550
42933,39251
39488,39251
39488,29566
53533,29566
53533,32066
53544,32123
53576,32171
53624,32203
53641,32206
53641,36690
" /> 
</g>
<g style="fill:#000000; fill-opacity:1.0; 
stroke:#000000; stroke-width:39.3701; stroke-opacity:1; 
stroke-linecap:round; stroke-linejoin:round;">
<polyline style="fill-rule:evenodd;"
points="48858,33779
47874,33779
47874,33090
48858,33090
48858,33779
" /> 
</g>
<g style="fill:#000000; fill-opacity:0.0; 
stroke:#000000; stroke-width:78.7402; stroke-opacity:1; 
stroke-linecap:round; stroke-linejoin:round;">
<polyline fill="none;"
points="48858,33779
47874,33779
47874,33090
48858,33090
48858,33779
" /> 
</g> 
</svg>
