G04 (created by PCBNEW (2013-mar-13)-testing) date Thu 16 May 2013 04:44:18 PM ICT*
%MOIN*%
G04 Gerber Fmt 3.4, Leading zero omitted, Abs format*
%FSLAX34Y34*%
G01*
G70*
G90*
G04 APERTURE LIST*
%ADD10C,0.00393701*%
%ADD11R,0.0472441X0.0748031*%
%ADD12R,0.0255906X0.0255906*%
%ADD13R,0.0413386X0.0492126*%
%ADD14R,0.027548X0.035348*%
%ADD15R,0.035348X0.027548*%
%ADD16R,0.075748X0.075748*%
%ADD17C,0.075748*%
%ADD18R,0.031748X0.065748*%
%ADD19R,0.059048X0.055048*%
%ADD20R,0.055048X0.059048*%
%ADD21R,0.066948X0.070848*%
%ADD22R,0.051148X0.043248*%
%ADD23R,0.043248X0.051148*%
%ADD24R,0.0748031X0.15748*%
%ADD25R,0.055148X0.047248*%
%ADD26R,0.078748X0.043348*%
%ADD27R,0.098448X0.043348*%
%ADD28R,0.124048X0.094448*%
G04 APERTURE END LIST*
G54D10*
G54D11*
X50076Y-35708D03*
X50076Y-37677D03*
X50576Y-35708D03*
X51076Y-35708D03*
X51576Y-35708D03*
X50576Y-37677D03*
X51076Y-37677D03*
X51576Y-37677D03*
G54D12*
X50826Y-36692D03*
G54D13*
X46555Y-32007D03*
X47204Y-32007D03*
X46555Y-31397D03*
X47204Y-31397D03*
G54D14*
X44635Y-36111D03*
X44438Y-36111D03*
X44241Y-36111D03*
X44045Y-36111D03*
X43848Y-36111D03*
X43651Y-36111D03*
X43455Y-36111D03*
X43258Y-36111D03*
X43061Y-36111D03*
X42865Y-36111D03*
X42668Y-36111D03*
X42471Y-36111D03*
G54D15*
X42176Y-35816D03*
X42176Y-35619D03*
X42176Y-35422D03*
X42176Y-35226D03*
X42176Y-35029D03*
X42176Y-34832D03*
X42176Y-34636D03*
X42176Y-34439D03*
X42176Y-34242D03*
X42176Y-34046D03*
X42176Y-33849D03*
X42176Y-33652D03*
G54D14*
X42471Y-33357D03*
X42668Y-33357D03*
X42865Y-33357D03*
X43061Y-33357D03*
X43258Y-33357D03*
X43455Y-33357D03*
X43651Y-33357D03*
X43848Y-33357D03*
X44045Y-33357D03*
X44241Y-33357D03*
X44438Y-33357D03*
X44635Y-33357D03*
G54D15*
X44930Y-33652D03*
X44930Y-33849D03*
X44930Y-34046D03*
X44930Y-34242D03*
X44930Y-34439D03*
X44930Y-34636D03*
X44930Y-34832D03*
X44930Y-35029D03*
X44930Y-35226D03*
X44930Y-35422D03*
X44930Y-35619D03*
X44930Y-35816D03*
G54D14*
X43553Y-34734D03*
G54D16*
X39960Y-35448D03*
G54D17*
X39960Y-34448D03*
X39960Y-33448D03*
G54D18*
X49657Y-33215D03*
X49907Y-33215D03*
X50167Y-33215D03*
X50427Y-33215D03*
X50677Y-33215D03*
X50937Y-33215D03*
X51197Y-33215D03*
X51447Y-33215D03*
X51707Y-33215D03*
X51957Y-33215D03*
X51957Y-31115D03*
X51707Y-31115D03*
X51447Y-31115D03*
X51197Y-31115D03*
X50937Y-31115D03*
X50677Y-31115D03*
X50427Y-31115D03*
X50167Y-31115D03*
X49907Y-31115D03*
X49657Y-31115D03*
G54D19*
X50551Y-38622D03*
X51219Y-38622D03*
G54D20*
X49389Y-35630D03*
X49389Y-36298D03*
X49409Y-36910D03*
X49409Y-37578D03*
X51023Y-34979D03*
X51023Y-34311D03*
G54D19*
X48542Y-35905D03*
X47874Y-35905D03*
G54D20*
X52223Y-34980D03*
X51555Y-34980D03*
X52223Y-34389D03*
X51555Y-34389D03*
X49823Y-34311D03*
X50491Y-34311D03*
X51416Y-30334D03*
X50748Y-30334D03*
X51949Y-30334D03*
X52617Y-30334D03*
G54D21*
X48582Y-38681D03*
X49724Y-38681D03*
G54D19*
X48542Y-35374D03*
X47874Y-35374D03*
G54D22*
X47775Y-31437D03*
X47775Y-31947D03*
G54D23*
X49646Y-30374D03*
X50156Y-30374D03*
G54D24*
X48681Y-37125D03*
X47696Y-37125D03*
G54D20*
X53090Y-35786D03*
X53090Y-35118D03*
X52224Y-37756D03*
X52224Y-38424D03*
G54D25*
X53090Y-36712D03*
X52224Y-37087D03*
X52224Y-36337D03*
G54D19*
X47874Y-34724D03*
X48542Y-34724D03*
G54D22*
X42460Y-37087D03*
X42460Y-37597D03*
X42460Y-32361D03*
X42460Y-31851D03*
G54D23*
X44036Y-37125D03*
X44546Y-37125D03*
X45471Y-37125D03*
X44961Y-37125D03*
X46044Y-34980D03*
X46554Y-34980D03*
X41317Y-35098D03*
X40807Y-35098D03*
X46024Y-33897D03*
X46534Y-33897D03*
G54D22*
X42952Y-32361D03*
X42952Y-31851D03*
X44744Y-32361D03*
X44744Y-31851D03*
X42952Y-37087D03*
X42952Y-37597D03*
G54D23*
X41317Y-33838D03*
X40807Y-33838D03*
G54D26*
X47322Y-32834D03*
G54D27*
X47420Y-33425D03*
G54D26*
X47322Y-34016D03*
G54D28*
X48365Y-33425D03*
G54D23*
X44546Y-37618D03*
X44036Y-37618D03*
G54D22*
X47027Y-34430D03*
X47027Y-34940D03*
M02*
