<?xml version="1.0" standalone="no"?>
 <!DOCTYPE svg PUBLIC "-//W3C//DTD SVG 1.1//EN" 
 "http://www.w3.org/Graphics/SVG/1.1/DTD/svg11.dtd"> 
<svg xmlns="http://www.w3.org/2000/svg" version="1.1" 
    width="29.7002cm" height="21.0007cm" viewBox="0 0 116930 82680 ">
<title>SVG Picture created as nano-B_Mask.svg date 2013/06/16 07:49:47 </title>
  <desc>Picture generated by PCBNEW </desc>
<g style="fill:#000000; fill-opacity:1;stroke:#000000; stroke-opacity:1;
stroke-linecap:round; stroke-linejoin:round; "
 transform="translate(0 0) scale(1 1)">
</g>
<g style="fill:#000000; fill-opacity:0.0; 
stroke:#000000; stroke-width:59.0551; stroke-opacity:1; 
stroke-linecap:round; stroke-linejoin:round;">
<path d="M53681 32066
L53681 26988
" />
<path d="M59055 32066
L53681 32066
" />
<path d="M59055 22224
L53681 22224
" />
<path d="M59055 26988
L53681 26988
" />
<path d="M53681 36830
L53681 39370
" />
<path d="M53681 22224
L53681 19685
" />
<path d="M59055 36830
L53681 36830
" />
</g>
<g style="fill:#000000; fill-opacity:0.0; 
stroke:#000000; stroke-width:0; stroke-opacity:1; 
stroke-linecap:round; stroke-linejoin:round;">
<path d="M39370 19685
L53681 19685
" />
<path d="M59055 22224
L59055 26988
" />
<path d="M59055 32066
L59055 36830
" />
<path d="M53681 39370
L39370 39370
" />
<path d="M39370 39370
L39370 19685
" />
</g>
<g style="fill:#000000; fill-opacity:0.0; 
stroke:#000000; stroke-width:39.3701; stroke-opacity:1; 
stroke-linecap:round; stroke-linejoin:round;">
</g>
<g style="fill:#000000; fill-opacity:1.0; 
stroke:#000000; stroke-width:39.3701; stroke-opacity:1; 
stroke-linecap:round; stroke-linejoin:round;">
<polyline style="fill-rule:evenodd;"
points="40319,35807
39601,35807
39601,35089
40319,35089
40319,35807
" /> 
<circle cx="39960.6" cy="34448.8" r="359.055" /> 
<circle cx="39960.6" cy="33448.8" r="359.055" /> 
<polyline style="fill-rule:evenodd;"
points="53720,35639
58838,35639
58838,36257
53720,36257
53720,35639
" /> 
<polyline style="fill-rule:evenodd;"
points="53720,32639
58838,32639
58838,33257
53720,33257
53720,32639
" /> 
<polyline style="fill-rule:evenodd;"
points="53736,33714
58578,33714
58578,34332
53736,34332
53736,33714
" /> 
<polyline style="fill-rule:evenodd;"
points="53736,34564
58578,34564
58578,35183
53736,35183
53736,34564
" /> 
<polyline style="fill-rule:evenodd;"
points="40216,37312
39705,37312
39705,36761
40216,36761
40216,37312
" /> 
<polyline style="fill-rule:evenodd;"
points="40216,36644
39705,36644
39705,36093
40216,36093
40216,36644
" /> 
<polyline style="fill-rule:evenodd;"
points="39754,31467
40265,31467
40265,32018
39754,32018
39754,31467
" /> 
<polyline style="fill-rule:evenodd;"
points="39754,32135
40265,32135
40265,32686
39754,32686
39754,32135
" /> 
<polyline style="fill-rule:evenodd;"
points="39675,37373
40226,37373
40226,37884
39675,37884
39675,37373
" /> 
<polyline style="fill-rule:evenodd;"
points="39675,38041
40226,38041
40226,38552
39675,38552
39675,38041
" /> 
<polyline style="fill-rule:evenodd;"
points="39753,30256
40305,30256
40305,30768
39753,30768
39753,30256
" /> 
<polyline style="fill-rule:evenodd;"
points="39753,30924
40305,30924
40305,31436
39753,31436
39753,30924
" /> 
<polyline style="fill-rule:evenodd;"
points="45472,36673
41614,36673
41614,32814
45472,32814
45472,36673
" /> 
</g>
<g style="fill:#000000; fill-opacity:0.0; 
stroke:#000000; stroke-width:78.7402; stroke-opacity:1; 
stroke-linecap:round; stroke-linejoin:round;">
<polyline fill="none;"
points="45472,36673
41614,36673
41614,32814
45472,32814
45472,36673
" /> 
</g> 
</svg>
