<?xml version="1.0" standalone="no"?>
 <!DOCTYPE svg PUBLIC "-//W3C//DTD SVG 1.1//EN" 
 "http://www.w3.org/Graphics/SVG/1.1/DTD/svg11.dtd"> 
<svg xmlns="http://www.w3.org/2000/svg" version="1.1" 
    width="29.7002cm" height="21.0007cm" viewBox="0 0 116930 82680 ">
<title>SVG Picture created as nano-F_Mask.svg date 2013/06/16 07:49:47 </title>
  <desc>Picture generated by PCBNEW </desc>
<g style="fill:#000000; fill-opacity:1;stroke:#000000; stroke-opacity:1;
stroke-linecap:round; stroke-linejoin:round; "
 transform="translate(0 0) scale(1 1)">
</g>
<g style="fill:#000000; fill-opacity:0.0; 
stroke:#000000; stroke-width:59.0551; stroke-opacity:1; 
stroke-linecap:round; stroke-linejoin:round;">
<path d="M53681 32066
L53681 26988
" />
<path d="M59055 32066
L53681 32066
" />
<path d="M59055 22224
L53681 22224
" />
<path d="M59055 26988
L53681 26988
" />
<path d="M53681 36830
L53681 39370
" />
<path d="M53681 22224
L53681 19685
" />
<path d="M59055 36830
L53681 36830
" />
</g>
<g style="fill:#000000; fill-opacity:0.0; 
stroke:#000000; stroke-width:0; stroke-opacity:1; 
stroke-linecap:round; stroke-linejoin:round;">
<path d="M39370 19685
L53681 19685
" />
<path d="M59055 22224
L59055 26988
" />
<path d="M59055 32066
L59055 36830
" />
<path d="M53681 39370
L39370 39370
" />
<path d="M39370 39370
L39370 19685
" />
</g>
<g style="fill:#000000; fill-opacity:0.0; 
stroke:#000000; stroke-width:39.3701; stroke-opacity:1; 
stroke-linecap:round; stroke-linejoin:round;">
</g>
<g style="fill:#000000; fill-opacity:1.0; 
stroke:#000000; stroke-width:39.3701; stroke-opacity:1; 
stroke-linecap:round; stroke-linejoin:round;">
<polyline style="fill-rule:evenodd;"
points="49860,36062
49860,35354
50293,35354
50293,36062
49860,36062
" /> 
<polyline style="fill-rule:evenodd;"
points="49860,38031
49860,37322
50293,37322
50293,38031
49860,38031
" /> 
<polyline style="fill-rule:evenodd;"
points="50360,36062
50360,35354
50793,35354
50793,36062
50360,36062
" /> 
<polyline style="fill-rule:evenodd;"
points="50860,36062
50860,35354
51293,35354
51293,36062
50860,36062
" /> 
<polyline style="fill-rule:evenodd;"
points="51360,36062
51360,35354
51793,35354
51793,36062
51360,36062
" /> 
<polyline style="fill-rule:evenodd;"
points="50360,38031
50360,37322
50793,37322
50793,38031
50360,38031
" /> 
<polyline style="fill-rule:evenodd;"
points="50860,38031
50860,37322
51293,37322
51293,38031
50860,38031
" /> 
<polyline style="fill-rule:evenodd;"
points="51360,38031
51360,37322
51793,37322
51793,38031
51360,38031
" /> 
<polyline style="fill-rule:evenodd;"
points="50078,37263
50078,36122
51574,36122
51574,37263
50078,37263
" /> 
<polyline style="fill-rule:evenodd;"
points="46742,31781
46742,32234
46368,32234
46368,31781
46742,31781
" /> 
<polyline style="fill-rule:evenodd;"
points="47391,31781
47391,32234
47017,32234
47017,31781
47391,31781
" /> 
<polyline style="fill-rule:evenodd;"
points="46742,31171
46742,31624
46368,31624
46368,31171
46742,31171
" /> 
<polyline style="fill-rule:evenodd;"
points="47391,31171
47391,31624
47017,31624
47017,31171
47391,31171
" /> 
<polyline style="fill-rule:evenodd;"
points="40319,35807
39601,35807
39601,35089
40319,35089
40319,35807
" /> 
<circle cx="39960.6" cy="34448.8" r="359.055" /> 
<circle cx="39960.6" cy="33448.8" r="359.055" /> 
<polyline style="fill-rule:evenodd;"
points="49518,33524
49518,32906
49796,32906
49796,33524
49518,33524
" /> 
<polyline style="fill-rule:evenodd;"
points="49768,33524
49768,32906
50046,32906
50046,33524
49768,33524
" /> 
<polyline style="fill-rule:evenodd;"
points="50028,33524
50028,32906
50306,32906
50306,33524
50028,33524
" /> 
<polyline style="fill-rule:evenodd;"
points="50288,33524
50288,32906
50566,32906
50566,33524
50288,33524
" /> 
<polyline style="fill-rule:evenodd;"
points="50538,33524
50538,32906
50816,32906
50816,33524
50538,33524
" /> 
<polyline style="fill-rule:evenodd;"
points="50798,33524
50798,32906
51076,32906
51076,33524
50798,33524
" /> 
<polyline style="fill-rule:evenodd;"
points="51058,33524
51058,32906
51336,32906
51336,33524
51058,33524
" /> 
<polyline style="fill-rule:evenodd;"
points="51308,33524
51308,32906
51586,32906
51586,33524
51308,33524
" /> 
<polyline style="fill-rule:evenodd;"
points="51568,33524
51568,32906
51846,32906
51846,33524
51568,33524
" /> 
<polyline style="fill-rule:evenodd;"
points="51818,33524
51818,32906
52096,32906
52096,33524
51818,33524
" /> 
<polyline style="fill-rule:evenodd;"
points="51818,31424
51818,30806
52096,30806
52096,31424
51818,31424
" /> 
<polyline style="fill-rule:evenodd;"
points="51568,31424
51568,30806
51846,30806
51846,31424
51568,31424
" /> 
<polyline style="fill-rule:evenodd;"
points="51308,31424
51308,30806
51586,30806
51586,31424
51308,31424
" /> 
<polyline style="fill-rule:evenodd;"
points="51058,31424
51058,30806
51336,30806
51336,31424
51058,31424
" /> 
<polyline style="fill-rule:evenodd;"
points="50798,31424
50798,30806
51076,30806
51076,31424
50798,31424
" /> 
<polyline style="fill-rule:evenodd;"
points="50538,31424
50538,30806
50816,30806
50816,31424
50538,31424
" /> 
<polyline style="fill-rule:evenodd;"
points="50288,31424
50288,30806
50566,30806
50566,31424
50288,31424
" /> 
<polyline style="fill-rule:evenodd;"
points="50028,31424
50028,30806
50306,30806
50306,31424
50028,31424
" /> 
<polyline style="fill-rule:evenodd;"
points="49768,31424
49768,30806
50046,30806
50046,31424
49768,31424
" /> 
<polyline style="fill-rule:evenodd;"
points="49518,31424
49518,30806
49796,30806
49796,31424
49518,31424
" /> 
<polyline style="fill-rule:evenodd;"
points="50276,38877
50276,38366
50827,38366
50827,38877
50276,38877
" /> 
<polyline style="fill-rule:evenodd;"
points="50944,38877
50944,38366
51495,38366
51495,38877
50944,38877
" /> 
<polyline style="fill-rule:evenodd;"
points="49134,35355
49645,35355
49645,35906
49134,35906
49134,35355
" /> 
<polyline style="fill-rule:evenodd;"
points="49134,36023
49645,36023
49645,36574
49134,36574
49134,36023
" /> 
<polyline style="fill-rule:evenodd;"
points="49153,36634
49665,36634
49665,37185
49153,37185
49153,36634
" /> 
<polyline style="fill-rule:evenodd;"
points="49153,37302
49665,37302
49665,37853
49153,37853
49153,37302
" /> 
<polyline style="fill-rule:evenodd;"
points="51279,35255
50768,35255
50768,34704
51279,34704
51279,35255
" /> 
<polyline style="fill-rule:evenodd;"
points="51279,34587
50768,34587
50768,34036
51279,34036
51279,34587
" /> 
<polyline style="fill-rule:evenodd;"
points="48818,35649
48818,36161
48267,36161
48267,35649
48818,35649
" /> 
<polyline style="fill-rule:evenodd;"
points="48150,35649
48150,36161
47599,36161
47599,35649
48150,35649
" /> 
<polyline style="fill-rule:evenodd;"
points="52479,34704
52479,35255
51968,35255
51968,34704
52479,34704
" /> 
<polyline style="fill-rule:evenodd;"
points="51811,34704
51811,35255
51300,35255
51300,34704
51811,34704
" /> 
<polyline style="fill-rule:evenodd;"
points="52479,34114
52479,34665
51968,34665
51968,34114
52479,34114
" /> 
<polyline style="fill-rule:evenodd;"
points="51811,34114
51811,34665
51300,34665
51300,34114
51811,34114
" /> 
<polyline style="fill-rule:evenodd;"
points="49567,34586
49567,34035
50079,34035
50079,34586
49567,34586
" /> 
<polyline style="fill-rule:evenodd;"
points="50235,34586
50235,34035
50747,34035
50747,34586
50235,34586
" /> 
<polyline style="fill-rule:evenodd;"
points="51672,30059
51672,30610
51161,30610
51161,30059
51672,30059
" /> 
<polyline style="fill-rule:evenodd;"
points="51004,30059
51004,30610
50493,30610
50493,30059
51004,30059
" /> 
<polyline style="fill-rule:evenodd;"
points="51693,30610
51693,30059
52205,30059
52205,30610
51693,30610
" /> 
<polyline style="fill-rule:evenodd;"
points="52361,30610
52361,30059
52873,30059
52873,30610
52361,30610
" /> 
<polyline style="fill-rule:evenodd;"
points="48897,38346
48897,39015
48267,39015
48267,38346
48897,38346
" /> 
<polyline style="fill-rule:evenodd;"
points="50039,38346
50039,39015
49409,39015
49409,38346
50039,38346
" /> 
<polyline style="fill-rule:evenodd;"
points="48818,35118
48818,35629
48267,35629
48267,35118
48818,35118
" /> 
<polyline style="fill-rule:evenodd;"
points="48150,35118
48150,35629
47599,35629
47599,35118
48150,35118
" /> 
<polyline style="fill-rule:evenodd;"
points="47539,31241
48011,31241
48011,31634
47539,31634
47539,31241
" /> 
<polyline style="fill-rule:evenodd;"
points="47539,31751
48011,31751
48011,32144
47539,32144
47539,31751
" /> 
<polyline style="fill-rule:evenodd;"
points="49450,30610
49450,30137
49843,30137
49843,30610
49450,30610
" /> 
<polyline style="fill-rule:evenodd;"
points="49960,30610
49960,30137
50353,30137
50353,30610
49960,30610
" /> 
<polyline style="fill-rule:evenodd;"
points="48326,37893
48326,36358
49035,36358
49035,37893
48326,37893
" /> 
<polyline style="fill-rule:evenodd;"
points="47342,37893
47342,36358
48051,36358
48051,37893
47342,37893
" /> 
<polyline style="fill-rule:evenodd;"
points="53346,36062
52834,36062
52834,35511
53346,35511
53346,36062
" /> 
<polyline style="fill-rule:evenodd;"
points="53346,35394
52834,35394
52834,34843
53346,34843
53346,35394
" /> 
<polyline style="fill-rule:evenodd;"
points="51968,37480
52479,37480
52479,38032
51968,38032
51968,37480
" /> 
<polyline style="fill-rule:evenodd;"
points="51968,38148
52479,38148
52479,38700
51968,38700
51968,38148
" /> 
<polyline style="fill-rule:evenodd;"
points="52834,36496
53346,36496
53346,36929
52834,36929
52834,36496
" /> 
<polyline style="fill-rule:evenodd;"
points="51968,36871
52480,36871
52480,37304
51968,37304
51968,36871
" /> 
<polyline style="fill-rule:evenodd;"
points="51968,36121
52480,36121
52480,36554
51968,36554
51968,36121
" /> 
<polyline style="fill-rule:evenodd;"
points="47599,34979
47599,34468
48150,34468
48150,34979
47599,34979
" /> 
<polyline style="fill-rule:evenodd;"
points="48267,34979
48267,34468
48818,34468
48818,34979
48267,34979
" /> 
<polyline style="fill-rule:evenodd;"
points="42224,36890
42696,36890
42696,37284
42224,37284
42224,36890
" /> 
<polyline style="fill-rule:evenodd;"
points="42224,37400
42696,37400
42696,37794
42224,37794
42224,37400
" /> 
<polyline style="fill-rule:evenodd;"
points="42421,32420
41948,32420
41948,32026
42421,32026
42421,32420
" /> 
<polyline style="fill-rule:evenodd;"
points="42421,31910
41948,31910
41948,31516
42421,31516
42421,31910
" /> 
<polyline style="fill-rule:evenodd;"
points="43839,37362
43839,36889
44232,36889
44232,37362
43839,37362
" /> 
<polyline style="fill-rule:evenodd;"
points="44349,37362
44349,36889
44742,36889
44742,37362
44349,37362
" /> 
<polyline style="fill-rule:evenodd;"
points="45668,36889
45668,37362
45274,37362
45274,36889
45668,36889
" /> 
<polyline style="fill-rule:evenodd;"
points="45158,36889
45158,37362
44764,37362
44764,36889
45158,36889
" /> 
<polyline style="fill-rule:evenodd;"
points="45847,35216
45847,34744
46240,34744
46240,35216
45847,35216
" /> 
<polyline style="fill-rule:evenodd;"
points="46357,35216
46357,34744
46750,34744
46750,35216
46357,35216
" /> 
<polyline style="fill-rule:evenodd;"
points="41514,34862
41514,35334
41121,35334
41121,34862
41514,34862
" /> 
<polyline style="fill-rule:evenodd;"
points="41004,34862
41004,35334
40611,35334
40611,34862
41004,34862
" /> 
<polyline style="fill-rule:evenodd;"
points="45827,34133
45827,33661
46221,33661
46221,34133
45827,34133
" /> 
<polyline style="fill-rule:evenodd;"
points="46337,34133
46337,33661
46731,33661
46731,34133
46337,34133
" /> 
<polyline style="fill-rule:evenodd;"
points="42913,32420
42441,32420
42441,32026
42913,32026
42913,32420
" /> 
<polyline style="fill-rule:evenodd;"
points="42913,31910
42441,31910
42441,31516
42913,31516
42913,31910
" /> 
<polyline style="fill-rule:evenodd;"
points="44980,32557
44508,32557
44508,32164
44980,32164
44980,32557
" /> 
<polyline style="fill-rule:evenodd;"
points="44980,32047
44508,32047
44508,31654
44980,31654
44980,32047
" /> 
<polyline style="fill-rule:evenodd;"
points="42716,36890
43188,36890
43188,37284
42716,37284
42716,36890
" /> 
<polyline style="fill-rule:evenodd;"
points="42716,37400
43188,37400
43188,37794
42716,37794
42716,37400
" /> 
<polyline style="fill-rule:evenodd;"
points="41514,33602
41514,34074
41121,34074
41121,33602
41514,33602
" /> 
<polyline style="fill-rule:evenodd;"
points="41004,33602
41004,34074
40611,34074
40611,33602
41004,33602
" /> 
<polyline style="fill-rule:evenodd;"
points="46948,32637
47696,32637
47696,33031
46948,33031
46948,32637
" /> 
<polyline style="fill-rule:evenodd;"
points="46948,33228
47893,33228
47893,33622
46948,33622
46948,33228
" /> 
<polyline style="fill-rule:evenodd;"
points="46948,33819
47696,33819
47696,34213
46948,34213
46948,33819
" /> 
<polyline style="fill-rule:evenodd;"
points="47765,32972
48966,32972
48966,33877
47765,33877
47765,32972
" /> 
<polyline style="fill-rule:evenodd;"
points="44742,37382
44742,37854
44349,37854
44349,37382
44742,37382
" /> 
<polyline style="fill-rule:evenodd;"
points="44232,37382
44232,37854
43839,37854
43839,37382
44232,37382
" /> 
<polyline style="fill-rule:evenodd;"
points="46791,34233
47263,34233
47263,34626
46791,34626
46791,34233
" /> 
<polyline style="fill-rule:evenodd;"
points="46791,34743
47263,34743
47263,35136
46791,35136
46791,34743
" /> 
<polyline style="fill-rule:evenodd;"
points="44517,35954
44753,35954
44753,36268
44517,36268
44517,35954
" /> 
<polyline style="fill-rule:evenodd;"
points="44320,35954
44556,35954
44556,36268
44320,36268
44320,35954
" /> 
<polyline style="fill-rule:evenodd;"
points="44123,35954
44359,35954
44359,36268
44123,36268
44123,35954
" /> 
<polyline style="fill-rule:evenodd;"
points="43927,35954
44163,35954
44163,36268
43927,36268
43927,35954
" /> 
<polyline style="fill-rule:evenodd;"
points="43730,35954
43966,35954
43966,36268
43730,36268
43730,35954
" /> 
<polyline style="fill-rule:evenodd;"
points="43533,35954
43769,35954
43769,36268
43533,36268
43533,35954
" /> 
<polyline style="fill-rule:evenodd;"
points="43337,35954
43573,35954
43573,36268
43337,36268
43337,35954
" /> 
<polyline style="fill-rule:evenodd;"
points="43140,35954
43376,35954
43376,36268
43140,36268
43140,35954
" /> 
<polyline style="fill-rule:evenodd;"
points="42943,35954
43179,35954
43179,36268
42943,36268
42943,35954
" /> 
<polyline style="fill-rule:evenodd;"
points="42747,35954
42983,35954
42983,36268
42747,36268
42747,35954
" /> 
<polyline style="fill-rule:evenodd;"
points="42550,35954
42786,35954
42786,36268
42550,36268
42550,35954
" /> 
<polyline style="fill-rule:evenodd;"
points="42353,35954
42589,35954
42589,36268
42353,36268
42353,35954
" /> 
<polyline style="fill-rule:evenodd;"
points="42333,35698
42333,35934
42019,35934
42019,35698
42333,35698
" /> 
<polyline style="fill-rule:evenodd;"
points="42333,35501
42333,35737
42019,35737
42019,35501
42333,35501
" /> 
<polyline style="fill-rule:evenodd;"
points="42333,35304
42333,35540
42019,35540
42019,35304
42333,35304
" /> 
<polyline style="fill-rule:evenodd;"
points="42333,35108
42333,35344
42019,35344
42019,35108
42333,35108
" /> 
<polyline style="fill-rule:evenodd;"
points="42333,34911
42333,35147
42019,35147
42019,34911
42333,34911
" /> 
<polyline style="fill-rule:evenodd;"
points="42333,34714
42333,34950
42019,34950
42019,34714
42333,34714
" /> 
<polyline style="fill-rule:evenodd;"
points="42333,34518
42333,34754
42019,34754
42019,34518
42333,34518
" /> 
<polyline style="fill-rule:evenodd;"
points="42333,34321
42333,34557
42019,34557
42019,34321
42333,34321
" /> 
<polyline style="fill-rule:evenodd;"
points="42333,34124
42333,34360
42019,34360
42019,34124
42333,34124
" /> 
<polyline style="fill-rule:evenodd;"
points="42333,33928
42333,34164
42019,34164
42019,33928
42333,33928
" /> 
<polyline style="fill-rule:evenodd;"
points="42333,33731
42333,33967
42019,33967
42019,33731
42333,33731
" /> 
<polyline style="fill-rule:evenodd;"
points="42333,33534
42333,33770
42019,33770
42019,33534
42333,33534
" /> 
<polyline style="fill-rule:evenodd;"
points="42589,33514
42353,33514
42353,33200
42589,33200
42589,33514
" /> 
<polyline style="fill-rule:evenodd;"
points="42786,33514
42550,33514
42550,33200
42786,33200
42786,33514
" /> 
<polyline style="fill-rule:evenodd;"
points="42983,33514
42747,33514
42747,33200
42983,33200
42983,33514
" /> 
<polyline style="fill-rule:evenodd;"
points="43179,33514
42943,33514
42943,33200
43179,33200
43179,33514
" /> 
<polyline style="fill-rule:evenodd;"
points="43376,33514
43140,33514
43140,33200
43376,33200
43376,33514
" /> 
<polyline style="fill-rule:evenodd;"
points="43573,33514
43337,33514
43337,33200
43573,33200
43573,33514
" /> 
<polyline style="fill-rule:evenodd;"
points="43769,33514
43533,33514
43533,33200
43769,33200
43769,33514
" /> 
<polyline style="fill-rule:evenodd;"
points="43966,33514
43730,33514
43730,33200
43966,33200
43966,33514
" /> 
<polyline style="fill-rule:evenodd;"
points="44163,33514
43927,33514
43927,33200
44163,33200
44163,33514
" /> 
<polyline style="fill-rule:evenodd;"
points="44359,33514
44123,33514
44123,33200
44359,33200
44359,33514
" /> 
<polyline style="fill-rule:evenodd;"
points="44556,33514
44320,33514
44320,33200
44556,33200
44556,33514
" /> 
<polyline style="fill-rule:evenodd;"
points="44753,33514
44517,33514
44517,33200
44753,33200
44753,33514
" /> 
<polyline style="fill-rule:evenodd;"
points="44773,33770
44773,33534
45087,33534
45087,33770
44773,33770
" /> 
<polyline style="fill-rule:evenodd;"
points="44773,33967
44773,33731
45087,33731
45087,33967
44773,33967
" /> 
<polyline style="fill-rule:evenodd;"
points="44773,34164
44773,33928
45087,33928
45087,34164
44773,34164
" /> 
<polyline style="fill-rule:evenodd;"
points="44773,34360
44773,34124
45087,34124
45087,34360
44773,34360
" /> 
<polyline style="fill-rule:evenodd;"
points="44773,34557
44773,34321
45087,34321
45087,34557
44773,34557
" /> 
<polyline style="fill-rule:evenodd;"
points="44773,34754
44773,34518
45087,34518
45087,34754
44773,34754
" /> 
<polyline style="fill-rule:evenodd;"
points="44773,34950
44773,34714
45087,34714
45087,34950
44773,34950
" /> 
<polyline style="fill-rule:evenodd;"
points="44773,35147
44773,34911
45087,34911
45087,35147
44773,35147
" /> 
<polyline style="fill-rule:evenodd;"
points="44773,35344
44773,35108
45087,35108
45087,35344
44773,35344
" /> 
<polyline style="fill-rule:evenodd;"
points="44773,35540
44773,35304
45087,35304
45087,35540
44773,35540
" /> 
<polyline style="fill-rule:evenodd;"
points="44773,35737
44773,35501
45087,35501
45087,35737
44773,35737
" /> 
<polyline style="fill-rule:evenodd;"
points="44773,35934
44773,35698
45087,35698
45087,35934
44773,35934
" /> 
<polyline style="fill-rule:evenodd;"
points="42431,33612
44675,33612
44675,35856
42431,35856
42431,33612
" /> 
<polyline style="fill-rule:evenodd;"
points="45148,32322
45148,31850
45541,31850
45541,32322
45148,32322
" /> 
<polyline style="fill-rule:evenodd;"
points="45658,32322
45658,31850
46051,31850
46051,32322
45658,32322
" /> 
<polyline style="fill-rule:evenodd;"
points="46015,30551
45503,30551
45503,30039
46015,30039
46015,30551
" /> 
<polyline style="fill-rule:evenodd;"
points="47015,30551
46503,30551
46503,30039
47015,30039
47015,30551
" /> 
<polyline style="fill-rule:evenodd;"
points="48015,30551
47503,30551
47503,30039
48015,30039
48015,30551
" /> 
<polyline style="fill-rule:evenodd;"
points="45015,30551
44503,30551
44503,30039
45015,30039
45015,30551
" /> 
<polyline style="fill-rule:evenodd;"
points="49015,30551
48503,30551
48503,30039
49015,30039
49015,30551
" /> 
<polyline style="fill-rule:evenodd;"
points="45090,31217
45090,30979
45408,30979
45408,31217
45090,31217
" /> 
<polyline style="fill-rule:evenodd;"
points="45090,31717
45090,31479
45408,31479
45408,31717
45090,31717
" /> 
<polyline style="fill-rule:evenodd;"
points="45890,31217
45890,30979
46208,30979
46208,31217
45890,31217
" /> 
<polyline style="fill-rule:evenodd;"
points="45090,31467
45090,31229
45408,31229
45408,31467
45090,31467
" /> 
<polyline style="fill-rule:evenodd;"
points="45890,31717
45890,31479
46208,31479
46208,31717
45890,31717
" /> 
<polyline style="fill-rule:evenodd;"
points="43051,31142
43602,31142
43602,31653
43051,31653
43051,31142
" /> 
<polyline style="fill-rule:evenodd;"
points="43051,31810
43602,31810
43602,32321
43051,32321
43051,31810
" /> 
<polyline style="fill-rule:evenodd;"
points="43858,30965
44409,30965
44409,31476
43858,31476
43858,30965
" /> 
<polyline style="fill-rule:evenodd;"
points="43858,31633
44409,31633
44409,32144
43858,32144
43858,31633
" /> 
</g> 
</svg>
