<?xml version="1.0" standalone="no"?>
 <!DOCTYPE svg PUBLIC "-//W3C//DTD SVG 1.1//EN" 
 "http://www.w3.org/Graphics/SVG/1.1/DTD/svg11.dtd"> 
<svg xmlns="http://www.w3.org/2000/svg" version="1.1" 
    width="29.7002cm" height="21.0007cm" viewBox="0 0 116930 82680 ">
<title>SVG Picture created as nano-F_SilkS.svg date 2013/06/16 07:49:47 </title>
  <desc>Picture generated by PCBNEW </desc>
<g style="fill:#000000; fill-opacity:1;stroke:#000000; stroke-opacity:1;
stroke-linecap:round; stroke-linejoin:round; "
 transform="translate(0 0) scale(1 1)">
</g>
<g style="fill:#000000; fill-opacity:0.0; 
stroke:#000000; stroke-width:78.7402; stroke-opacity:1; 
stroke-linecap:round; stroke-linejoin:round;">
<path d="M44281 30610
L44448 30777
" />
<path d="M47411 31141
L47559 31141
" />
<path d="M47411 30974
L47411 31141
" />
</g>
<g style="fill:#000000; fill-opacity:0.0; 
stroke:#000000; stroke-width:39.3701; stroke-opacity:1; 
stroke-linecap:round; stroke-linejoin:round;">
<path d="M44955 36172
L44955 36490
L44974 36528
L44993 36547
L45030 36565
L45105 36565
L45143 36547
L45162 36528
L45180 36490
L45180 36172
" />
<path d="M45330 36172
L45574 36172
L45443 36322
L45499 36322
L45537 36340
L45555 36359
L45574 36397
L45574 36490
L45555 36528
L45537 36547
L45499 36565
L45387 36565
L45349 36547
L45330 36528
" />
<path d="M45869 37838
L45963 38101
L46056 37838
" />
<path d="M46206 38063
L46225 38082
L46206 38101
L46188 38082
L46206 38063
L46206 38101
" />
<path d="M46469 37707
L46506 37707
L46544 37726
L46563 37745
L46581 37782
L46600 37857
L46600 37951
L46581 38026
L46563 38063
L46544 38082
L46506 38101
L46469 38101
L46431 38082
L46413 38063
L46394 38026
L46375 37951
L46375 37857
L46394 37782
L46413 37745
L46431 37726
L46469 37707
" />
<path d="M46769 38063
L46788 38082
L46769 38101
L46750 38082
L46769 38063
L46769 38101
" />
<path d="M47163 38101
L46938 38101
" />
<path d="M47050 38101
L47050 37707
L47013 37763
L46975 37801
L46938 37820
" />
</g>
<g style="fill:#000000; fill-opacity:0.0; 
stroke:#000000; stroke-width:78.7402; stroke-opacity:1; 
stroke-linecap:round; stroke-linejoin:round;">
<path d="M43459 38966
L43459 38466
" />
<path d="M43745 38966
L43530 38680
" />
<path d="M43745 38466
L43459 38752
" />
<path d="M44030 38966
L43983 38942
L43959 38894
L43959 38466
" />
<path d="M44292 38966
L44245 38942
L44221 38918
L44197 38871
L44197 38728
L44221 38680
L44245 38656
L44292 38633
L44364 38633
L44411 38656
L44435 38680
L44459 38728
L44459 38871
L44435 38918
L44411 38942
L44364 38966
L44292 38966
" />
<path d="M44673 38633
L44673 38966
" />
<path d="M44673 38680
L44697 38656
L44745 38633
L44816 38633
L44864 38656
L44887 38704
L44887 38966
" />
<path d="M45340 38966
L45340 38466
" />
<path d="M45340 38942
L45292 38966
L45197 38966
L45149 38942
L45126 38918
L45102 38871
L45102 38728
L45126 38680
L45149 38656
L45197 38633
L45292 38633
L45340 38656
" />
<path d="M45578 38966
L45578 38633
" />
<path d="M45578 38466
L45554 38490
L45578 38513
L45602 38490
L45578 38466
L45578 38513
" />
<path d="M45816 38966
L45816 38466
" />
<path d="M45864 38775
L46007 38966
" />
<path d="M46007 38633
L45816 38823
" />
<path d="M46411 38942
L46364 38966
L46268 38966
L46221 38942
L46197 38894
L46197 38704
L46221 38656
L46268 38633
L46364 38633
L46411 38656
L46435 38704
L46435 38752
L46197 38799
" />
<path d="M47292 38966
L47007 38966
" />
<path d="M47149 38966
L47149 38466
L47102 38537
L47054 38585
L47007 38609
" />
</g>
<g style="fill:#000000; fill-opacity:0.0; 
stroke:#000000; stroke-width:59.0551; stroke-opacity:1; 
stroke-linecap:round; stroke-linejoin:round;">
<path d="M53681 32066
L53681 26988
" />
<path d="M59055 32066
L53681 32066
" />
<path d="M59055 22224
L53681 22224
" />
<path d="M59055 26988
L53681 26988
" />
<path d="M53681 36830
L53681 39370
" />
<path d="M53681 22224
L53681 19685
" />
<path d="M59055 36830
L53681 36830
" />
</g>
<g style="fill:#000000; fill-opacity:0.0; 
stroke:#000000; stroke-width:78.7402; stroke-opacity:1; 
stroke-linecap:round; stroke-linejoin:round;">
<path d="M39370 29527
L53681 29527
" />
</g>
<g style="fill:#000000; fill-opacity:0.0; 
stroke:#000000; stroke-width:0; stroke-opacity:1; 
stroke-linecap:round; stroke-linejoin:round;">
<path d="M39370 19685
L53681 19685
" />
<path d="M59055 22224
L59055 26988
" />
<path d="M59055 32066
L59055 36830
" />
<path d="M53681 39370
L39370 39370
" />
<path d="M39370 39370
L39370 19685
" />
</g>
<g style="fill:#000000; fill-opacity:0.0; 
stroke:#000000; stroke-width:50; stroke-opacity:1; 
stroke-linecap:round; stroke-linejoin:round;">
<path d="M49776 37392
L49776 37442
" />
<path d="M49776 37442
L51876 37442
" />
<path d="M51876 35942
L49776 35942
" />
<path d="M49776 35942
L49776 37392
" />
<path d="M49776 36492
L49976 36492
" />
<path d="M49976 36492
L49976 36892
" />
<path d="M49976 36892
L49776 36892
" />
<path d="M51876 35942
L51876 37442
" />
</g>
<g style="fill:#000000; fill-opacity:0.0; 
stroke:#000000; stroke-width:59.0551; stroke-opacity:1; 
stroke-linecap:round; stroke-linejoin:round;">
<path d="M47372 31309
L46387 31309
" />
<path d="M46387 31309
L46387 32096
" />
<path d="M46387 32096
L47372 32096
" />
<path d="M47372 32096
L47372 31309
" />
</g>
<g style="fill:#000000; fill-opacity:0.0; 
stroke:#000000; stroke-width:60; stroke-opacity:1; 
stroke-linecap:round; stroke-linejoin:round;">
<path d="M40460 35948
L39460 35948
" />
<path d="M39460 35948
L39460 32948
" />
<path d="M39460 32948
L40460 32948
" />
<path d="M40460 32948
L40460 35948
" />
<path d="M39460 34948
L40460 34948
" />
</g>
<g style="fill:#000000; fill-opacity:0.0; 
stroke:#000000; stroke-width:65; stroke-opacity:1; 
stroke-linecap:round; stroke-linejoin:round;">
<path d="M52307 31465
L49307 31465
" />
<path d="M49307 32865
L52307 32865
" />
<path d="M52307 31465
L52307 32865
" />
</g>
<g style="fill:#000000; fill-opacity:0.0; 
stroke:#000000; stroke-width:60; stroke-opacity:1; 
stroke-linecap:round; stroke-linejoin:round;">
<path d="M49307 32865
L49307 31465
" />
</g>
<g style="fill:#000000; fill-opacity:0.0; 
stroke:#000000; stroke-width:50; stroke-opacity:1; 
stroke-linecap:round; stroke-linejoin:round;">
<circle cx="49507.1" cy="32665.4" r="141.421" /> 
<path d="M49307 31915
L49607 31915
" />
<path d="M49607 31915
L49607 32415
" />
<path d="M49607 32415
L49307 32415
" />
<path d="M48759 39075
L48759 38287
" />
<path d="M48562 39075
L49744 39075
" />
<path d="M49744 39075
L49744 38287
" />
<path d="M49744 38287
L48562 38287
" />
<path d="M48562 38287
L48562 39075
" />
</g>
<g style="fill:#000000; fill-opacity:0.0; 
stroke:#000000; stroke-width:59.0551; stroke-opacity:1; 
stroke-linecap:round; stroke-linejoin:round;">
<path d="M48976 37913
L48976 36338
" />
<path d="M48976 36338
L47401 36338
" />
<path d="M47401 36338
L47401 37913
" />
<path d="M47401 37913
L48976 37913
" />
</g>
<g style="fill:#000000; fill-opacity:0.0; 
stroke:#000000; stroke-width:31; stroke-opacity:1; 
stroke-linecap:round; stroke-linejoin:round;">
<circle cx="52519.5" cy="36249.6" r="62.626" /> 
<path d="M52857 37212
L52457 37212
" />
<path d="M52857 36187
L52457 36187
" />
<path d="M52457 37212
L52457 36187
" />
<path d="M52857 36187
L52857 37212
" />
</g>
<g style="fill:#000000; fill-opacity:0.0; 
stroke:#000000; stroke-width:50; stroke-opacity:1; 
stroke-linecap:round; stroke-linejoin:round;">
<path d="M47085 33915
L47085 34115
" />
<path d="M47085 34115
L47555 34115
" />
<path d="M47085 33915
L47555 33915
" />
<path d="M47085 33325
L47555 33325
" />
<path d="M47085 33525
L47555 33525
" />
<path d="M47085 33325
L47085 33525
" />
<path d="M47085 32735
L47085 32935
" />
<path d="M47085 32935
L47555 32935
" />
<path d="M47085 32735
L47555 32735
" />
<path d="M48780 33070
L48780 33780
" />
<path d="M48780 33780
L48585 33780
" />
<path d="M48780 33070
L48585 33070
" />
<path d="M47555 32520
L48585 32520
" />
<path d="M48585 32520
L48585 34330
" />
<path d="M48585 34330
L47555 34330
" />
<path d="M47555 34330
L47555 32520
" />
<path d="M42176 33357
L42176 36111
" />
<path d="M42176 36111
L44930 36111
" />
<path d="M44930 36111
L44930 33357
" />
<path d="M44930 33357
L42176 33357
" />
<circle cx="44635.1" cy="35816.3" r="98" /> 
<path d="M44259 30795
L44259 29795
" />
<path d="M44259 29795
L49263 29795
" />
<path d="M49263 29805
L49263 30805
" />
<path d="M49263 30795
L44259 30795
" />
</g>
<g style="fill:#000000; fill-opacity:0.0; 
stroke:#000000; stroke-width:60; stroke-opacity:1; 
stroke-linecap:round; stroke-linejoin:round;">
<path d="M45899 31748
L45899 30948
" />
<path d="M45899 30948
L45399 30948
" />
<path d="M45399 30948
L45399 31748
" />
<path d="M45399 31748
L45899 31748
" />
</g>
<g style="fill:#000000; fill-opacity:1.0; 
stroke:#000000; stroke-width:1; stroke-opacity:1; 
stroke-linecap:round; stroke-linejoin:round;">
<polyline style="fill-rule:evenodd;"
points="43640,37070
43639,37087
43637,37110
43633,37139
43629,37172
43624,37206
43619,37237
43619,37097
43618,37082
43615,37078
43610,37086
43603,37104
43594,37134
43588,37156
43573,37209
43573,37127
43570,37124
43566,37130
43559,37145
43551,37169
43550,37174
43505,37313
43456,37444
43402,37563
43344,37673
43330,37696
43304,37737
43283,37770
43265,37794
43251,37809
43242,37814
43242,37814
43235,37815
43236,37820
43244,37830
43249,37834
43259,37847
43262,37860
43260,37871
43252,37901
43238,37929
43238,37864
43237,37855
43231,37850
43216,37839
43194,37823
43163,37802
43126,37779
43083,37751
43045,37728
42977,37685
42916,37647
42861,37613
42809,37581
42759,37549
42708,37517
42653,37483
42594,37444
42544,37413
42508,37389
42475,37368
42446,37350
42422,37335
42406,37324
42397,37319
42396,37318
42389,37321
42377,37328
42360,37341
42341,37355
42323,37370
42307,37384
42296,37395
42293,37401
42293,37402
42297,37406
42310,37416
42330,37432
42356,37452
42386,37474
42419,37499
42426,37505
42484,37548
42545,37594
42606,37641
42668,37689
42730,37737
42791,37784
42848,37829
42902,37871
42952,37911
42996,37946
43033,37976
43063,38001
43079,38015
43094,38027
43107,38032
43119,38030
43130,38025
43150,38011
43171,37990
43191,37965
43210,37938
43224,37910
43234,37885
43238,37864
43238,37929
43236,37934
43215,37969
43192,38000
43180,38013
43155,38036
43135,38050
43116,38055
43098,38052
43094,38051
43083,38048
43080,38050
43081,38054
43080,38063
43072,38080
43058,38104
43051,38115
42991,38204
42921,38296
42844,38387
42762,38477
42675,38562
42642,38593
42625,38609
42617,38618
42616,38619
42624,38614
42640,38602
42663,38583
42693,38559
42699,38553
42796,38467
42890,38371
42979,38267
43061,38156
43084,38123
43098,38104
43110,38089
43120,38080
43122,38079
43135,38075
43154,38063
43175,38047
43196,38026
43212,38008
43240,37970
43261,37930
43276,37891
43283,37854
43283,37852
43284,37836
43287,37823
43292,37809
43301,37792
43314,37768
43323,37754
43369,37673
43414,37583
43457,37488
43496,37388
43531,37289
43559,37191
43566,37164
43571,37141
43573,37127
43573,37209
43572,37213
43553,37273
43534,37334
43515,37391
43496,37442
43490,37459
43473,37499
43452,37546
43427,37597
43402,37649
43377,37698
43353,37742
43345,37756
43329,37784
43319,37803
43314,37816
43313,37823
43315,37826
43324,37832
43339,37842
43349,37848
43364,37858
43375,37864
43379,37866
43383,37861
43391,37848
43401,37829
43410,37810
43469,37674
43519,37536
43561,37395
43594,37255
43605,37197
43610,37166
43614,37137
43617,37115
43619,37100
43619,37097
43619,37237
43619,37239
43613,37270
43610,37289
43585,37394
43552,37505
43512,37619
43464,37736
43432,37808
43399,37879
43415,37892
43426,37903
43431,37915
43431,37930
43432,37948
43438,37960
43447,37970
43459,37983
43463,37993
43461,38009
43451,38043
43438,38068
43438,37995
43437,37994
43431,37981
43423,37978
43414,37986
43412,37990
43412,37929
43407,37920
43393,37907
43368,37889
43363,37886
43342,37873
43325,37862
43313,37856
43310,37855
43305,37860
43302,37873
43301,37879
43292,37911
43275,37946
43253,37983
43228,38019
43200,38051
43172,38075
43172,38076
43158,38086
43150,38094
43148,38096
43153,38101
43164,38111
43180,38124
43197,38137
43214,38150
43228,38160
43236,38164
43237,38165
43245,38162
43259,38153
43271,38143
43290,38125
43311,38101
43333,38073
43355,38042
43374,38011
43392,37982
43404,37956
43411,37936
43412,37929
43412,37990
43403,38005
43401,38009
43389,38031
43371,38057
43352,38085
43331,38112
43313,38134
43301,38147
43291,38158
43290,38166
43292,38169
43303,38175
43317,38174
43332,38168
43349,38155
43367,38136
43386,38112
43404,38085
43419,38058
43431,38032
43437,38010
43438,37995
43438,38068
43431,38081
43403,38120
43377,38149
43352,38173
43331,38189
43314,38197
43298,38197
43283,38191
43281,38189
43268,38182
43256,38182
43253,38184
43235,38187
43225,38183
43217,38181
43211,38182
43202,38189
43194,38196
43194,38160
43159,38133
43142,38121
43128,38113
43120,38111
43120,38111
43114,38118
43104,38132
43093,38148
43014,38252
42924,38357
42824,38462
42712,38566
42630,38638
42605,38660
42639,38638
42658,38626
42684,38610
42711,38592
42731,38579
42805,38526
42881,38467
42957,38403
43029,38337
43096,38271
43155,38206
43171,38188
43194,38160
43194,38196
43188,38202
43181,38210
43152,38242
43116,38278
43077,38317
43037,38356
42997,38393
42961,38426
42930,38454
42924,38459
42812,38547
42699,38623
42585,38689
42520,38722
42486,38738
42461,38749
42445,38756
42437,38759
42436,38757
42441,38752
42451,38743
42452,38742
42557,38650
42652,38562
42738,38475
42817,38389
42891,38302
42941,38237
42980,38184
43012,38139
43035,38102
43052,38074
43060,38054
43062,38046
43062,38042
43061,38038
43059,38033
43055,38027
43048,38020
43037,38010
43022,37996
43002,37979
42975,37957
42942,37930
42901,37896
42870,37871
42841,37847
42807,37819
42768,37789
42726,37755
42681,37720
42634,37684
42587,37647
42540,37611
42494,37576
42450,37542
42409,37512
42372,37484
42339,37459
42313,37439
42292,37425
42279,37415
42274,37413
42269,37416
42257,37427
42238,37443
42212,37463
42182,37488
42149,37516
42114,37545
42070,37582
42035,37612
42007,37636
41986,37656
41970,37671
41960,37682
41954,37690
41953,37694
41950,37700
41943,37709
41931,37722
41929,37724
41929,37690
41926,37674
41916,37655
41901,37636
41884,37619
41867,37606
41852,37602
41851,37602
41845,37605
41830,37616
41809,37632
41782,37653
41751,37678
41717,37706
41679,37737
41641,37770
41602,37802
41563,37835
41526,37866
41493,37896
41462,37923
41457,37928
41363,38019
41275,38115
41255,38139
41235,38163
41221,38178
41215,38184
41215,38181
41222,38170
41236,38149
41257,38119
41270,38101
41298,38063
41325,38028
41354,37995
41386,37962
41425,37924
41437,37913
41470,37883
41437,37839
41422,37818
41408,37799
41398,37785
41395,37781
41392,37777
41389,37776
41384,37777
41376,37781
41364,37789
41348,37802
41324,37821
41294,37846
41281,37858
41202,37926
41134,37990
41075,38049
41026,38105
40986,38157
40955,38207
40945,38225
40930,38260
40920,38288
40914,38316
40913,38346
40913,38348
40916,38385
40927,38416
40947,38444
40952,38449
40987,38477
41031,38498
41081,38510
41137,38514
41199,38510
41212,38508
41275,38493
41344,38471
41415,38441
41488,38405
41560,38363
41583,38348
41603,38334
41628,38317
41656,38297
41687,38274
41718,38251
41748,38229
41777,38207
41802,38188
41822,38172
41837,38160
41843,38154
41843,38153
41838,38150
41825,38143
41806,38133
41788,38125
41757,38109
41722,38091
41690,38072
41680,38067
41656,38052
41639,38043
41629,38039
41621,38040
41619,38041
41612,38046
41597,38058
41577,38073
41553,38092
41540,38102
41501,38131
41470,38155
41446,38173
41429,38185
41421,38191
41421,38190
41427,38184
41440,38172
41459,38155
41483,38134
41510,38110
41522,38099
41553,38070
41577,38048
41594,38031
41607,38018
41615,38008
41620,37998
41623,37989
41623,37988
41630,37969
41639,37951
41641,37948
41648,37940
41663,37926
41684,37908
41711,37884
41742,37858
41775,37829
41790,37817
41835,37779
41872,37747
41899,37722
41918,37704
41927,37693
41929,37690
41929,37724
41914,37739
41890,37760
41858,37788
41819,37821
41812,37827
41778,37856
41745,37885
41717,37910
41693,37932
41674,37949
41664,37961
41661,37963
41653,37980
41649,37996
41648,37999
41651,38010
41659,38021
41673,38034
41695,38048
41725,38066
41764,38087
41793,38101
41884,38146
41751,38252
41701,38292
41657,38327
41619,38355
41586,38379
41556,38399
41528,38417
41500,38432
41471,38448
41464,38451
41382,38487
41303,38513
41226,38529
41147,38536
41131,38536
41097,38535
41070,38534
41049,38531
41028,38526
41018,38523
40973,38504
40937,38478
40911,38445
40893,38405
40888,38384
40885,38338
40893,38288
40912,38235
40940,38180
40979,38122
41027,38062
41056,38031
41072,38015
41088,37999
41106,37982
41126,37963
41151,37941
41179,37916
41213,37887
41253,37853
41299,37814
41354,37767
41364,37759
41394,37734
41415,37768
41428,37788
41443,37809
41458,37829
41473,37847
41484,37860
41491,37866
41492,37866
41497,37863
41510,37852
41530,37836
41555,37815
41586,37790
41620,37761
41657,37730
41665,37722
41712,37684
41750,37652
41781,37626
41805,37607
41823,37593
41837,37584
41846,37580
41851,37579
41857,37577
41868,37571
41883,37560
41904,37544
41931,37523
41966,37495
42008,37460
42013,37455
42054,37421
42087,37393
42112,37371
42131,37354
42143,37342
42151,37333
42154,37327
42153,37324
42153,37324
42143,37316
42125,37302
42099,37283
42065,37258
42025,37230
41979,37197
41927,37162
41872,37123
41812,37082
41750,37039
41685,36994
41619,36949
41553,36904
41486,36858
41420,36813
41355,36769
41293,36728
41286,36723
41059,36571
41059,36539
41061,36517
41066,36499
41076,36483
41095,36462
41116,36448
41137,36440
41156,36441
41156,36441
41164,36446
41180,36456
41203,36472
41233,36492
41269,36517
41310,36545
41355,36577
41403,36610
41440,36636
41564,36723
41679,36804
41786,36878
41884,36947
41974,37009
42055,37065
42127,37114
42171,37144
42207,37168
42235,37187
42256,37200
42271,37210
42281,37215
42289,37217
42294,37217
42298,37215
42300,37213
42307,37208
42322,37195
42344,37177
42372,37154
42406,37126
42444,37094
42486,37059
42530,37021
42564,36993
42622,36944
42672,36902
42713,36867
42747,36837
42774,36814
42793,36795
42806,36782
42813,36774
42814,36771
42819,36761
42832,36745
42853,36725
42859,36720
42903,36680
42903,36623
42904,36595
42907,36571
42913,36551
42923,36533
42938,36513
42959,36491
42989,36466
43008,36449
43036,36425
43064,36400
43090,36377
43110,36358
43116,36351
43141,36328
43163,36315
43182,36310
43202,36314
43215,36321
43233,36332
43256,36347
43284,36366
43316,36387
43349,36410
43382,36434
43415,36457
43444,36478
43470,36497
43491,36512
43505,36523
43510,36529
43513,36545
43508,36564
43496,36584
43491,36590
43491,36546
43486,36533
43474,36529
43459,36535
43458,36535
43458,36507
43453,36503
43441,36494
43422,36480
43397,36463
43369,36445
43339,36424
43308,36403
43278,36383
43250,36365
43226,36349
43208,36337
43196,36330
43192,36328
43179,36329
43163,36338
43146,36352
43134,36368
43133,36369
43126,36383
43125,36391
43130,36398
43132,36399
43139,36405
43154,36417
43176,36432
43204,36452
43235,36474
43267,36496
43392,36583
43403,36561
43415,36543
43432,36527
43436,36523
43449,36515
43457,36508
43458,36507
43458,36535
43452,36539
43443,36547
43442,36550
43450,36550
43451,36550
43464,36555
43471,36562
43479,36569
43486,36566
43491,36556
43491,36546
43491,36590
43481,36601
43476,36605
43461,36614
43452,36618
43452,36579
43451,36575
43445,36575
43434,36581
43417,36592
43394,36611
43377,36624
43377,36598
43377,36598
43373,36594
43361,36584
43341,36570
43317,36553
43290,36535
43261,36514
43231,36494
43202,36474
43176,36457
43154,36442
43138,36432
43128,36427
43128,36427
43120,36429
43107,36437
43107,36406
43106,36404
43104,36402
43104,36401
43098,36402
43085,36411
43067,36424
43046,36441
43023,36462
43000,36483
42977,36504
42958,36524
42943,36540
42935,36553
42933,36555
42925,36580
42920,36608
42919,36632
42920,36646
42924,36656
42929,36656
42933,36654
42939,36643
42938,36627
42937,36608
42942,36584
42943,36577
42947,36564
42953,36553
42960,36542
42972,36530
42989,36514
43013,36492
43020,36487
43050,36460
43073,36441
43088,36427
43099,36417
43105,36410
43107,36406
43107,36437
43106,36438
43087,36452
43066,36470
43043,36490
43020,36510
43000,36530
42983,36547
42973,36561
42971,36564
42963,36582
42958,36601
42958,36606
42958,36626
42979,36611
42995,36602
43008,36597
43011,36597
43030,36601
43052,36612
43075,36628
43096,36647
43098,36649
43118,36674
43127,36696
43128,36714
43124,36721
43121,36726
43123,36729
43133,36729
43152,36727
43154,36727
43181,36723
43210,36715
43230,36709
43260,36693
43295,36670
43323,36648
43344,36630
43361,36615
43373,36604
43377,36598
43377,36624
43363,36636
43357,36641
43317,36673
43283,36698
43253,36717
43224,36730
43195,36739
43164,36744
43128,36746
43107,36746
43106,36746
43106,36701
43104,36694
43097,36680
43083,36662
43066,36645
43050,36632
43044,36628
43032,36622
43021,36620
43010,36622
42996,36629
42979,36641
42957,36659
42928,36685
42925,36687
42849,36754
42868,36765
42891,36781
42912,36801
42929,36821
42933,36828
42941,36845
42977,36816
42996,36800
43007,36788
43011,36778
43011,36776
43015,36763
43028,36746
43031,36744
43046,36731
43058,36725
43071,36725
43089,36724
43101,36715
43106,36701
43106,36746
43080,36747
43062,36749
43052,36753
43051,36754
43047,36761
43051,36765
43064,36767
43084,36768
43111,36768
43138,36767
43166,36765
43189,36762
43195,36761
43218,36755
43240,36748
43253,36742
43263,36736
43280,36724
43301,36707
43326,36688
43352,36667
43378,36645
43402,36625
43423,36607
43440,36592
43450,36582
43452,36579
43452,36618
43449,36619
43446,36620
43439,36624
43425,36633
43406,36648
43383,36665
43375,36672
43340,36701
43311,36724
43288,36740
43269,36753
43251,36762
43234,36770
43232,36770
43196,36780
43155,36787
43114,36789
43087,36787
43053,36782
42996,36827
42973,36845
42953,36859
42937,36869
42927,36873
42927,36873
42918,36876
42911,36880
42911,36842
42908,36831
42898,36817
42884,36803
42869,36792
42855,36787
42852,36787
42844,36791
42827,36803
42804,36820
42775,36843
42741,36871
42704,36901
42673,36928
42634,36960
42589,36998
42540,37039
42489,37083
42436,37127
42384,37171
42333,37214
42332,37215
42283,37256
42263,37273
42263,37240
42260,37235
42252,37227
42238,37217
42218,37202
42191,37183
42156,37159
42112,37129
42107,37126
41993,37050
41887,36978
41787,36909
41691,36844
41599,36779
41507,36714
41414,36647
41319,36578
41287,36555
41254,36531
41224,36510
41197,36491
41176,36477
41162,36467
41156,36464
41137,36462
41117,36471
41101,36486
41085,36507
41078,36529
41080,36549
41086,36555
41101,36568
41124,36585
41156,36608
41195,36635
41242,36667
41290,36699
41345,36736
41404,36776
41466,36818
41529,36862
41594,36906
41659,36951
41724,36996
41787,37040
41848,37083
41907,37124
41961,37162
42010,37197
42054,37228
42091,37256
42122,37278
42144,37295
42154,37303
42166,37311
42173,37315
42173,37315
42180,37312
42193,37303
42210,37289
42218,37283
42236,37268
42251,37255
42261,37245
42263,37243
42263,37240
42263,37273
42234,37298
42185,37339
42137,37379
42093,37416
42054,37448
42021,37476
41995,37498
41992,37501
41963,37525
41937,37546
41916,37565
41900,37579
41891,37587
41890,37589
41893,37594
41902,37605
41916,37620
41929,37635
41938,37648
41941,37654
41942,37656
41942,37656
41944,37656
41948,37654
41954,37650
41963,37643
41975,37634
41991,37621
42011,37604
42036,37583
42067,37558
42103,37528
42146,37493
42196,37451
42253,37403
42318,37348
42347,37323
42407,37273
42466,37223
42524,37175
42579,37129
42630,37085
42678,37045
42721,37009
42758,36979
42788,36953
42811,36934
42819,36927
42847,36904
42871,36882
42891,36864
42904,36850
42911,36843
42911,36842
42911,36880
42902,36887
42881,36902
42855,36922
42851,36926
42776,36988
42710,37044
42652,37094
42600,37136
42557,37174
42519,37205
42489,37232
42464,37253
42444,37270
42429,37284
42419,37293
42413,37300
42410,37303
42410,37304
42419,37311
42436,37323
42462,37339
42495,37361
42534,37386
42578,37415
42627,37446
42680,37479
42736,37514
42793,37550
42852,37587
42911,37623
42970,37660
43027,37695
43082,37729
43095,37736
43134,37761
43165,37779
43189,37792
43208,37798
43223,37799
43236,37793
43249,37782
43262,37764
43279,37740
43287,37728
43311,37690
43338,37643
43366,37592
43394,37538
43420,37484
43442,37433
43461,37388
43461,37387
43472,37356
43485,37319
43498,37278
43511,37238
43515,37223
43526,37186
43535,37158
43543,37137
43552,37119
43561,37104
43571,37090
43584,37071
43594,37060
43601,37056
43609,37055
43618,37057
43631,37060
43639,37063
43640,37064
43640,37070
43640,37070
" /> 
</g>
<g style="fill:#000000; fill-opacity:0.0; 
stroke:#000000; stroke-width:40; stroke-opacity:1; 
stroke-linecap:round; stroke-linejoin:round;">
<path d="M50595 36437
L50595 36756
L50614 36794
L50633 36812
L50670 36831
L50745 36831
L50783 36812
L50801 36794
L50820 36756
L50820 36437
" />
<path d="M51214 36831
L50989 36831
" />
<path d="M51101 36831
L51101 36437
L51064 36494
L51026 36531
L50989 36550
" />
</g>
<g style="fill:#000000; fill-opacity:0.0; 
stroke:#000000; stroke-width:59.0551; stroke-opacity:1; 
stroke-linecap:round; stroke-linejoin:round;">
<path d="M46490 31399
L46884 31989
" />
<path d="M46884 31399
L46490 31989
" />
<path d="M47418 31989
L47080 31989
" />
<path d="M47249 31989
L47249 31399
L47193 31483
L47137 31539
L47080 31567
" />
</g>
<g style="fill:#000000; fill-opacity:0.0; 
stroke:#000000; stroke-width:50; stroke-opacity:1; 
stroke-linecap:round; stroke-linejoin:round;">
<path d="M49948 32040
L49948 32283
L49962 32311
L49977 32326
L50005 32340
L50062 32340
L50091 32326
L50105 32311
L50120 32283
L50120 32040
" />
<path d="M50248 32069
L50262 32054
L50291 32040
L50362 32040
L50391 32054
L50405 32069
L50420 32097
L50420 32126
L50405 32169
L50234 32340
L50420 32340
" />
</g>
<g style="fill:#000000; fill-opacity:0.0; 
stroke:#000000; stroke-width:39; stroke-opacity:1; 
stroke-linecap:round; stroke-linejoin:round;">
<path d="M49057 38742
L49057 38585
L49094 38585
L49117 38592
L49132 38607
L49139 38622
L49147 38652
L49147 38674
L49139 38704
L49132 38719
L49117 38734
L49094 38742
L49057 38742
" />
<path d="M49296 38742
L49206 38742
" />
<path d="M49251 38742
L49251 38585
L49236 38607
L49221 38622
L49206 38630
" />
</g>
<g style="fill:#000000; fill-opacity:0.0; 
stroke:#000000; stroke-width:59.0551; stroke-opacity:1; 
stroke-linecap:round; stroke-linejoin:round;">
<path d="M48110 37432
L47829 37432
L47829 36841
" />
<path d="M48616 37432
L48278 37432
" />
<path d="M48447 37432
L48447 36841
L48391 36926
L48335 36982
L48278 37010
" />
</g>
<g style="fill:#000000; fill-opacity:0.0; 
stroke:#000000; stroke-width:47; stroke-opacity:1; 
stroke-linecap:round; stroke-linejoin:round;">
<path d="M52330 36597
L52330 36840
L52344 36868
L52359 36883
L52387 36897
L52444 36897
L52473 36883
L52487 36868
L52501 36840
L52501 36597
" />
<path d="M52773 36697
L52773 36897
" />
<path d="M52701 36583
L52630 36797
L52816 36797
" />
</g>
<g style="fill:#000000; fill-opacity:0.0; 
stroke:#000000; stroke-width:39.3701; stroke-opacity:1; 
stroke-linecap:round; stroke-linejoin:round;">
<path d="M47819 33160
L47819 33479
L47838 33516
L47857 33535
L47894 33554
L47969 33554
L48007 33535
L48026 33516
L48045 33479
L48045 33160
" />
<path d="M48420 33160
L48232 33160
L48213 33347
L48232 33329
L48270 33310
L48363 33310
L48401 33329
L48420 33347
L48439 33385
L48439 33479
L48420 33516
L48401 33535
L48363 33554
L48270 33554
L48232 33535
L48213 33516
" />
</g>
<g style="fill:#000000; fill-opacity:0.0; 
stroke:#000000; stroke-width:19.685; stroke-opacity:1; 
stroke-linecap:round; stroke-linejoin:round;">
<path d="M45037 36102
L45037 36262
L45046 36280
L45055 36290
L45074 36299
L45112 36299
L45130 36290
L45140 36280
L45149 36262
L45149 36102
" />
<path d="M45224 36102
L45346 36102
L45280 36177
L45308 36177
L45327 36187
L45336 36196
L45346 36215
L45346 36262
L45336 36280
L45327 36290
L45308 36299
L45252 36299
L45233 36290
L45224 36280
" />
</g>
<g style="fill:#000000; fill-opacity:0.0; 
stroke:#000000; stroke-width:50; stroke-opacity:1; 
stroke-linecap:round; stroke-linejoin:round;">
<path d="M45524 31538
L45767 31538
L45795 31526
L45810 31515
L45824 31491
L45824 31443
L45810 31419
L45795 31407
L45767 31396
L45524 31396
" />
<path d="M45524 31169
L45524 31217
L45538 31241
L45552 31253
L45595 31276
L45652 31288
L45767 31288
L45795 31276
L45810 31265
L45824 31241
L45824 31193
L45810 31169
L45795 31157
L45767 31146
L45695 31146
L45667 31157
L45652 31169
L45638 31193
L45638 31241
L45652 31265
L45667 31276
L45695 31288
" />
</g> 
</svg>
