<?xml version="1.0" standalone="no"?>
 <!DOCTYPE svg PUBLIC "-//W3C//DTD SVG 1.1//EN" 
 "http://www.w3.org/Graphics/SVG/1.1/DTD/svg11.dtd"> 
<svg xmlns="http://www.w3.org/2000/svg" version="1.1" 
    width="29.7002cm" height="21.0007cm" viewBox="0 0 116930 82680 ">
<title>SVG Picture created as nano-B_Paste.svg date 2013/06/16 07:49:47 </title>
  <desc>Picture generated by PCBNEW </desc>
<g style="fill:#000000; fill-opacity:1;stroke:#000000; stroke-opacity:1;
stroke-linecap:round; stroke-linejoin:round; "
 transform="translate(0 0) scale(1 1)">
</g>
<g style="fill:#000000; fill-opacity:0.0; 
stroke:#000000; stroke-width:59.0551; stroke-opacity:1; 
stroke-linecap:round; stroke-linejoin:round;">
<path d="M53681 32066
L53681 26988
" />
<path d="M59055 32066
L53681 32066
" />
<path d="M59055 22224
L53681 22224
" />
<path d="M59055 26988
L53681 26988
" />
<path d="M53681 36830
L53681 39370
" />
<path d="M53681 22224
L53681 19685
" />
<path d="M59055 36830
L53681 36830
" />
</g>
<g style="fill:#000000; fill-opacity:0.0; 
stroke:#000000; stroke-width:0; stroke-opacity:1; 
stroke-linecap:round; stroke-linejoin:round;">
<path d="M39370 19685
L53681 19685
" />
<path d="M59055 22224
L59055 26988
" />
<path d="M59055 32066
L59055 36830
" />
<path d="M53681 39370
L39370 39370
" />
<path d="M39370 39370
L39370 19685
" />
</g>
<g style="fill:#000000; fill-opacity:0.0; 
stroke:#000000; stroke-width:39.3701; stroke-opacity:1; 
stroke-linecap:round; stroke-linejoin:round;">
</g>
<g style="fill:#000000; fill-opacity:1.0; 
stroke:#000000; stroke-width:39.3701; stroke-opacity:1; 
stroke-linecap:round; stroke-linejoin:round;">
<polyline style="fill-rule:evenodd;"
points="40137,37233
39783,37233
39783,36839
40137,36839
40137,37233
" /> 
<polyline style="fill-rule:evenodd;"
points="40137,36565
39783,36565
39783,36171
40137,36171
40137,36565
" /> 
<polyline style="fill-rule:evenodd;"
points="39833,31545
40186,31545
40186,31939
39833,31939
39833,31545
" /> 
<polyline style="fill-rule:evenodd;"
points="39833,32213
40186,32213
40186,32607
39833,32607
39833,32213
" /> 
<polyline style="fill-rule:evenodd;"
points="39753,37451
40147,37451
40147,37805
39753,37805
39753,37451
" /> 
<polyline style="fill-rule:evenodd;"
points="39753,38119
40147,38119
40147,38473
39753,38473
39753,38119
" /> 
<polyline style="fill-rule:evenodd;"
points="39832,30335
40226,30335
40226,30689
39832,30689
39832,30335
" /> 
<polyline style="fill-rule:evenodd;"
points="39832,31003
40226,31003
40226,31357
39832,31357
39832,31003
" /> 
</g> 
</svg>
