<?xml version="1.0" standalone="no"?>
 <!DOCTYPE svg PUBLIC "-//W3C//DTD SVG 1.1//EN" 
 "http://www.w3.org/Graphics/SVG/1.1/DTD/svg11.dtd"> 
<svg xmlns="http://www.w3.org/2000/svg" version="1.1" 
    width="29.7002cm" height="21.0007cm" viewBox="0 0 116930 82680 ">
<title>SVG Picture created as nano-Dwgs_User.svg date 2013/06/16 07:49:47 </title>
  <desc>Picture generated by PCBNEW </desc>
<g style="fill:#000000; fill-opacity:1;stroke:#000000; stroke-opacity:1;
stroke-linecap:round; stroke-linejoin:round; "
 transform="translate(0 0) scale(1 1)">
</g>
<g style="fill:#000000; fill-opacity:0.0; 
stroke:#000000; stroke-width:59.0551; stroke-opacity:1; 
stroke-linecap:round; stroke-linejoin:round;">
<path d="M53681 32066
L53681 26988
" />
<path d="M59055 32066
L53681 32066
" />
<path d="M59055 22224
L53681 22224
" />
<path d="M59055 26988
L53681 26988
" />
<path d="M53681 36830
L53681 39370
" />
<path d="M53681 22224
L53681 19685
" />
<path d="M59055 36830
L53681 36830
" />
</g>
<g style="fill:#000000; fill-opacity:0.0; 
stroke:#000000; stroke-width:0; stroke-opacity:1; 
stroke-linecap:round; stroke-linejoin:round;">
<path d="M39370 19685
L53681 19685
" />
<path d="M59055 22224
L59055 26988
" />
<path d="M59055 32066
L59055 36830
" />
<path d="M53681 39370
L39370 39370
" />
<path d="M39370 39370
L39370 19685
" />
</g>
<g style="fill:#000000; fill-opacity:0.0; 
stroke:#000000; stroke-width:19.685; stroke-opacity:1; 
stroke-linecap:round; stroke-linejoin:round;">
<path d="M51515 36181
L51515 37204
" />
<path d="M51515 37204
L50137 37204
" />
<path d="M50137 37204
L50137 36181
" />
<path d="M50137 36181
L51515 36181
" />
</g>
<g style="fill:#000000; fill-opacity:0.0; 
stroke:#000000; stroke-width:20; stroke-opacity:1; 
stroke-linecap:round; stroke-linejoin:round;">
<path d="M50306 38235
L51464 38235
" />
<path d="M51464 38235
L51464 39009
" />
<path d="M51464 39009
L50306 39009
" />
<path d="M50306 39009
L50306 38235
" />
<path d="M49776 35385
L49776 36543
" />
<path d="M49776 36543
L49002 36543
" />
<path d="M49002 36543
L49002 35385
" />
<path d="M49002 35385
L49776 35385
" />
<path d="M49796 36665
L49796 37823
" />
<path d="M49796 37823
L49022 37823
" />
<path d="M49022 37823
L49022 36665
" />
<path d="M49022 36665
L49796 36665
" />
<path d="M50636 35224
L50636 34066
" />
<path d="M50636 34066
L51410 34066
" />
<path d="M51410 34066
L51410 35224
" />
<path d="M51410 35224
L50636 35224
" />
<path d="M48787 36292
L47629 36292
" />
<path d="M47629 36292
L47629 35518
" />
<path d="M47629 35518
L48787 35518
" />
<path d="M48787 35518
L48787 36292
" />
<path d="M52468 35367
L51310 35367
" />
<path d="M51310 35367
L51310 34593
" />
<path d="M51310 34593
L52468 34593
" />
<path d="M52468 34593
L52468 35367
" />
<path d="M52468 34776
L51310 34776
" />
<path d="M51310 34776
L51310 34002
" />
<path d="M51310 34002
L52468 34002
" />
<path d="M52468 34002
L52468 34776
" />
<path d="M49578 33924
L50736 33924
" />
<path d="M50736 33924
L50736 34698
" />
<path d="M50736 34698
L49578 34698
" />
<path d="M49578 34698
L49578 33924
" />
<path d="M51661 30721
L50503 30721
" />
<path d="M50503 30721
L50503 29947
" />
<path d="M50503 29947
L51661 29947
" />
<path d="M51661 29947
L51661 30721
" />
<path d="M51704 29947
L52862 29947
" />
<path d="M52862 29947
L52862 30721
" />
<path d="M52862 30721
L51704 30721
" />
<path d="M51704 30721
L51704 29947
" />
<path d="M48787 35761
L47629 35761
" />
<path d="M47629 35761
L47629 34987
" />
<path d="M47629 34987
L48787 34987
" />
<path d="M48787 34987
L48787 35761
" />
<path d="M47965 31113
L47965 32271
" />
<path d="M47965 32271
L47585 32271
" />
<path d="M47585 32271
L47585 31113
" />
<path d="M47585 31113
L47965 31113
" />
<path d="M49322 30184
L50480 30184
" />
<path d="M50480 30184
L50480 30564
" />
<path d="M50480 30564
L49322 30564
" />
<path d="M49322 30564
L49322 30184
" />
<path d="M52703 36031
L52703 34873
" />
<path d="M52703 34873
L53477 34873
" />
<path d="M53477 34873
L53477 36031
" />
<path d="M53477 36031
L52703 36031
" />
<path d="M52611 37511
L52611 38669
" />
<path d="M52611 38669
L51837 38669
" />
<path d="M51837 38669
L51837 37511
" />
<path d="M51837 37511
L52611 37511
" />
<path d="M47629 34337
L48787 34337
" />
<path d="M48787 34337
L48787 35111
" />
<path d="M48787 35111
L47629 35111
" />
<path d="M47629 35111
L47629 34337
" />
<path d="M42650 36763
L42650 37921
" />
<path d="M42650 37921
L42270 37921
" />
<path d="M42270 37921
L42270 36763
" />
<path d="M42270 36763
L42650 36763
" />
<path d="M41995 32547
L41995 31389
" />
<path d="M41995 31389
L42375 31389
" />
<path d="M42375 31389
L42375 32547
" />
<path d="M42375 32547
L41995 32547
" />
<path d="M43712 36935
L44870 36935
" />
<path d="M44870 36935
L44870 37315
" />
<path d="M44870 37315
L43712 37315
" />
<path d="M43712 37315
L43712 36935
" />
<path d="M45795 37315
L44637 37315
" />
<path d="M44637 37315
L44637 36935
" />
<path d="M44637 36935
L45795 36935
" />
<path d="M45795 36935
L45795 37315
" />
<path d="M45720 34790
L46878 34790
" />
<path d="M46878 34790
L46878 35170
" />
<path d="M46878 35170
L45720 35170
" />
<path d="M45720 35170
L45720 34790
" />
<path d="M41641 35288
L40483 35288
" />
<path d="M40483 35288
L40483 34908
" />
<path d="M40483 34908
L41641 34908
" />
<path d="M41641 34908
L41641 35288
" />
<path d="M45700 33707
L46858 33707
" />
<path d="M46858 33707
L46858 34087
" />
<path d="M46858 34087
L45700 34087
" />
<path d="M45700 34087
L45700 33707
" />
<path d="M42487 32547
L42487 31389
" />
<path d="M42487 31389
L42867 31389
" />
<path d="M42867 31389
L42867 32547
" />
<path d="M42867 32547
L42487 32547
" />
<path d="M44554 32685
L44554 31527
" />
<path d="M44554 31527
L44934 31527
" />
<path d="M44934 31527
L44934 32685
" />
<path d="M44934 32685
L44554 32685
" />
<path d="M43142 36763
L43142 37921
" />
<path d="M43142 37921
L42762 37921
" />
<path d="M42762 37921
L42762 36763
" />
<path d="M42762 36763
L43142 36763
" />
<path d="M41641 34028
L40483 34028
" />
<path d="M40483 34028
L40483 33648
" />
<path d="M40483 33648
L41641 33648
" />
<path d="M41641 33648
L41641 34028
" />
<path d="M44870 37808
L43712 37808
" />
<path d="M43712 37808
L43712 37428
" />
<path d="M43712 37428
L44870 37428
" />
<path d="M44870 37428
L44870 37808
" />
<path d="M47217 34106
L47217 35264
" />
<path d="M47217 35264
L46837 35264
" />
<path d="M46837 35264
L46837 34106
" />
<path d="M46837 34106
L47217 34106
" />
<path d="M45021 31896
L46179 31896
" />
<path d="M46179 31896
L46179 32276
" />
<path d="M46179 32276
L45021 32276
" />
<path d="M45021 32276
L45021 31896
" />
<path d="M40347 37281
L40347 36123
" />
<path d="M40347 36123
L39573 36123
" />
<path d="M39573 36123
L39573 37281
" />
<path d="M39573 37281
L40347 37281
" />
<path d="M39622 31497
L39622 32655
" />
<path d="M39622 32655
L40396 32655
" />
<path d="M40396 32655
L40396 31497
" />
<path d="M40396 31497
L39622 31497
" />
<path d="M39563 37383
L39563 38541
" />
<path d="M39563 38541
L40337 38541
" />
<path d="M40337 38541
L40337 37383
" />
<path d="M40337 37383
L39563 37383
" />
<path d="M39642 30267
L39642 31425
" />
<path d="M39642 31425
L40416 31425
" />
<path d="M40416 31425
L40416 30267
" />
<path d="M40416 30267
L39642 30267
" />
<path d="M43713 31153
L43713 32311
" />
<path d="M43713 32311
L42939 32311
" />
<path d="M42939 32311
L42939 31153
" />
<path d="M42939 31153
L43713 31153
" />
<path d="M44520 30976
L44520 32134
" />
<path d="M44520 32134
L43746 32134
" />
<path d="M43746 32134
L43746 30976
" />
<path d="M43746 30976
L44520 30976
" />
</g> 
</svg>
