G04 (created by PCBNEW (2013-mar-13)-testing) date Thu 25 Jul 2013 04:42:25 PM ICT*
%MOIN*%
G04 Gerber Fmt 3.4, Leading zero omitted, Abs format*
%FSLAX34Y34*%
G01*
G70*
G90*
G04 APERTURE LIST*
%ADD10C,0.00393701*%
%ADD11C,0.00787402*%
%ADD12C,0.00590551*%
%ADD13C,0.005*%
%ADD14C,0.0031*%
%ADD15C,0.003*%
%ADD16C,0.011811*%
%ADD17C,0.0001*%
%ADD18C,0.0079*%
%ADD19C,0.0019685*%
%ADD20C,0.000984252*%
%ADD21R,0.0472441X0.0748031*%
%ADD22R,0.153543X0.11811*%
%ADD23R,0.0413386X0.0492126*%
%ADD24R,0.059048X0.055048*%
%ADD25R,0.055048X0.059048*%
%ADD26R,0.0748031X0.15748*%
%ADD27R,0.055148X0.047248*%
%ADD28R,0.027548X0.035348*%
%ADD29R,0.035348X0.027548*%
%ADD30R,0.228346X0.228346*%
%ADD31R,0.0472441X0.0551181*%
%ADD32R,0.065748X0.065748*%
%ADD33R,0.037448X0.027548*%
%ADD34R,0.0393701X0.0354331*%
%ADD35R,0.0669291X0.0511811*%
%ADD36R,0.0905512X0.0511811*%
%ADD37R,0.122047X0.0826772*%
%ADD38R,0.0433071X0.0354331*%
%ADD39R,0.0354331X0.0433071*%
%ADD40R,0.0433071X0.0511811*%
%ADD41R,0.0669291X0.0708661*%
%ADD42C,0.133858*%
%ADD43R,0.0944882X0.065748*%
%ADD44R,0.0314961X0.0314961*%
%ADD45R,0.110236X0.110236*%
%ADD46R,0.0433071X0.023622*%
%ADD47R,0.023622X0.0433071*%
%ADD48R,0.023622X0.043311*%
%ADD49R,0.0255906X0.0393701*%
%ADD50R,0.0216535X0.0393701*%
G04 APERTURE END LIST*
G54D10*
X39370Y-39370D02*
X39370Y-29527D01*
G54D11*
X44281Y-30610D02*
X44448Y-30777D01*
X47411Y-31141D02*
X47559Y-31141D01*
X47411Y-30974D02*
X47411Y-31141D01*
G54D10*
X44955Y-36172D02*
X44955Y-36490D01*
X44974Y-36528D01*
X44993Y-36547D01*
X45030Y-36565D01*
X45105Y-36565D01*
X45143Y-36547D01*
X45162Y-36528D01*
X45180Y-36490D01*
X45180Y-36172D01*
X45330Y-36172D02*
X45574Y-36172D01*
X45443Y-36322D01*
X45499Y-36322D01*
X45537Y-36340D01*
X45555Y-36359D01*
X45574Y-36397D01*
X45574Y-36490D01*
X45555Y-36528D01*
X45537Y-36547D01*
X45499Y-36565D01*
X45387Y-36565D01*
X45349Y-36547D01*
X45330Y-36528D01*
X44949Y-38768D02*
X45005Y-38925D01*
X45061Y-38768D01*
X45151Y-38903D02*
X45163Y-38914D01*
X45151Y-38925D01*
X45140Y-38914D01*
X45151Y-38903D01*
X45151Y-38925D01*
X45309Y-38689D02*
X45331Y-38689D01*
X45354Y-38700D01*
X45365Y-38712D01*
X45376Y-38734D01*
X45388Y-38779D01*
X45388Y-38835D01*
X45376Y-38880D01*
X45365Y-38903D01*
X45354Y-38914D01*
X45331Y-38925D01*
X45309Y-38925D01*
X45286Y-38914D01*
X45275Y-38903D01*
X45264Y-38880D01*
X45253Y-38835D01*
X45253Y-38779D01*
X45264Y-38734D01*
X45275Y-38712D01*
X45286Y-38700D01*
X45309Y-38689D01*
X45489Y-38903D02*
X45500Y-38914D01*
X45489Y-38925D01*
X45478Y-38914D01*
X45489Y-38903D01*
X45489Y-38925D01*
X45579Y-38689D02*
X45725Y-38689D01*
X45646Y-38779D01*
X45680Y-38779D01*
X45703Y-38790D01*
X45714Y-38802D01*
X45725Y-38824D01*
X45725Y-38880D01*
X45714Y-38903D01*
X45703Y-38914D01*
X45680Y-38925D01*
X45613Y-38925D01*
X45590Y-38914D01*
X45579Y-38903D01*
X45826Y-38903D02*
X45838Y-38914D01*
X45826Y-38925D01*
X45815Y-38914D01*
X45826Y-38903D01*
X45826Y-38925D01*
X45984Y-38689D02*
X46006Y-38689D01*
X46029Y-38700D01*
X46040Y-38712D01*
X46051Y-38734D01*
X46062Y-38779D01*
X46062Y-38835D01*
X46051Y-38880D01*
X46040Y-38903D01*
X46029Y-38914D01*
X46006Y-38925D01*
X45984Y-38925D01*
X45961Y-38914D01*
X45950Y-38903D01*
X45939Y-38880D01*
X45928Y-38835D01*
X45928Y-38779D01*
X45939Y-38734D01*
X45950Y-38712D01*
X45961Y-38700D01*
X45984Y-38689D01*
G54D11*
X43095Y-38454D02*
X43095Y-37954D01*
X43380Y-38454D02*
X43166Y-38168D01*
X43380Y-37954D02*
X43095Y-38240D01*
X43666Y-38454D02*
X43619Y-38430D01*
X43595Y-38383D01*
X43595Y-37954D01*
X43928Y-38454D02*
X43880Y-38430D01*
X43857Y-38406D01*
X43833Y-38359D01*
X43833Y-38216D01*
X43857Y-38168D01*
X43880Y-38145D01*
X43928Y-38121D01*
X44000Y-38121D01*
X44047Y-38145D01*
X44071Y-38168D01*
X44095Y-38216D01*
X44095Y-38359D01*
X44071Y-38406D01*
X44047Y-38430D01*
X44000Y-38454D01*
X43928Y-38454D01*
X44309Y-38121D02*
X44309Y-38454D01*
X44309Y-38168D02*
X44333Y-38145D01*
X44380Y-38121D01*
X44452Y-38121D01*
X44500Y-38145D01*
X44523Y-38192D01*
X44523Y-38454D01*
X44976Y-38454D02*
X44976Y-37954D01*
X44976Y-38430D02*
X44928Y-38454D01*
X44833Y-38454D01*
X44785Y-38430D01*
X44761Y-38406D01*
X44738Y-38359D01*
X44738Y-38216D01*
X44761Y-38168D01*
X44785Y-38145D01*
X44833Y-38121D01*
X44928Y-38121D01*
X44976Y-38145D01*
X45214Y-38454D02*
X45214Y-38121D01*
X45214Y-37954D02*
X45190Y-37978D01*
X45214Y-38002D01*
X45238Y-37978D01*
X45214Y-37954D01*
X45214Y-38002D01*
X45452Y-38454D02*
X45452Y-37954D01*
X45500Y-38264D02*
X45642Y-38454D01*
X45642Y-38121D02*
X45452Y-38311D01*
X46047Y-38430D02*
X46000Y-38454D01*
X45904Y-38454D01*
X45857Y-38430D01*
X45833Y-38383D01*
X45833Y-38192D01*
X45857Y-38145D01*
X45904Y-38121D01*
X46000Y-38121D01*
X46047Y-38145D01*
X46071Y-38192D01*
X46071Y-38240D01*
X45833Y-38287D01*
X46928Y-38454D02*
X46642Y-38454D01*
X46785Y-38454D02*
X46785Y-37954D01*
X46738Y-38025D01*
X46690Y-38073D01*
X46642Y-38097D01*
G54D12*
X53681Y-32066D02*
X53681Y-29527D01*
X59055Y-32066D02*
X53681Y-32066D01*
X53681Y-36830D02*
X53681Y-39370D01*
X59055Y-36830D02*
X53681Y-36830D01*
G54D11*
X39370Y-29527D02*
X53681Y-29527D01*
G54D10*
X59055Y-32066D02*
X59055Y-36830D01*
X53681Y-39370D02*
X39370Y-39370D01*
G54D13*
X49776Y-37392D02*
X49776Y-37442D01*
X49776Y-37442D02*
X51876Y-37442D01*
X51876Y-35942D02*
X49776Y-35942D01*
X49776Y-35942D02*
X49776Y-37392D01*
X49776Y-36492D02*
X49976Y-36492D01*
X49976Y-36492D02*
X49976Y-36892D01*
X49976Y-36892D02*
X49776Y-36892D01*
X51876Y-35942D02*
X51876Y-37442D01*
G54D12*
X47372Y-31309D02*
X46387Y-31309D01*
X46387Y-31309D02*
X46387Y-32096D01*
X46387Y-32096D02*
X47372Y-32096D01*
X47372Y-32096D02*
X47372Y-31309D01*
X48976Y-37913D02*
X48976Y-36338D01*
X48976Y-36338D02*
X47401Y-36338D01*
X47401Y-36338D02*
X47401Y-37913D01*
X47401Y-37913D02*
X48976Y-37913D01*
G54D14*
X52582Y-36249D02*
G75*
G03X52582Y-36249I-62J0D01*
G74*
G01*
X52857Y-37212D02*
X52457Y-37212D01*
X52857Y-36187D02*
X52457Y-36187D01*
X52457Y-37212D02*
X52457Y-36187D01*
X52857Y-36187D02*
X52857Y-37212D01*
G54D13*
X42176Y-33357D02*
X42176Y-36111D01*
X42176Y-36111D02*
X44930Y-36111D01*
X44930Y-36111D02*
X44930Y-33357D01*
X44930Y-33357D02*
X42176Y-33357D01*
X44733Y-35816D02*
G75*
G03X44733Y-35816I-98J0D01*
G74*
G01*
X49253Y-29775D02*
X49253Y-30775D01*
X49253Y-30775D02*
X44250Y-30775D01*
X44250Y-30765D02*
X44250Y-29765D01*
X44250Y-29775D02*
X49253Y-29775D01*
G54D15*
X45590Y-30827D02*
X45472Y-30945D01*
X45708Y-30827D02*
X45708Y-31535D01*
X45708Y-31535D02*
X45472Y-31535D01*
X45472Y-31535D02*
X45472Y-30827D01*
X45472Y-30827D02*
X45708Y-30827D01*
G54D13*
X47085Y-33915D02*
X47085Y-34115D01*
X47085Y-34115D02*
X47555Y-34115D01*
X47085Y-33915D02*
X47555Y-33915D01*
X47085Y-33325D02*
X47555Y-33325D01*
X47085Y-33525D02*
X47555Y-33525D01*
X47085Y-33325D02*
X47085Y-33525D01*
X47085Y-32735D02*
X47085Y-32935D01*
X47085Y-32935D02*
X47555Y-32935D01*
X47085Y-32735D02*
X47555Y-32735D01*
X48780Y-33070D02*
X48780Y-33780D01*
X48780Y-33780D02*
X48585Y-33780D01*
X48780Y-33070D02*
X48585Y-33070D01*
X47555Y-32520D02*
X48585Y-32520D01*
X48585Y-32520D02*
X48585Y-34330D01*
X48585Y-34330D02*
X47555Y-34330D01*
X47555Y-34330D02*
X47555Y-32520D01*
X49310Y-39006D02*
X49310Y-38218D01*
X49113Y-39006D02*
X50295Y-39006D01*
X50295Y-39006D02*
X50295Y-38218D01*
X50295Y-38218D02*
X49113Y-38218D01*
X49113Y-38218D02*
X49113Y-39006D01*
G54D16*
X52598Y-30511D02*
G75*
G03X52598Y-30511I-787J0D01*
G74*
G01*
X41929Y-38385D02*
G75*
G03X41929Y-38385I-787J0D01*
G74*
G01*
G54D17*
G36*
X56960Y-33267D02*
X56966Y-33271D01*
X56980Y-33283D01*
X57000Y-33301D01*
X57025Y-33325D01*
X57053Y-33353D01*
X57085Y-33383D01*
X57091Y-33389D01*
X56925Y-33389D01*
X56844Y-33472D01*
X56810Y-33507D01*
X56784Y-33535D01*
X56765Y-33559D01*
X56752Y-33580D01*
X56744Y-33600D01*
X56740Y-33620D01*
X56738Y-33642D01*
X56738Y-33651D01*
X56743Y-33696D01*
X56760Y-33736D01*
X56787Y-33770D01*
X56823Y-33796D01*
X56834Y-33802D01*
X56865Y-33811D01*
X56902Y-33814D01*
X56938Y-33811D01*
X56970Y-33802D01*
X56981Y-33795D01*
X56999Y-33781D01*
X57021Y-33763D01*
X57046Y-33740D01*
X57071Y-33717D01*
X57096Y-33693D01*
X57119Y-33670D01*
X57138Y-33651D01*
X57151Y-33636D01*
X57156Y-33628D01*
X57156Y-33627D01*
X57152Y-33621D01*
X57140Y-33608D01*
X57122Y-33588D01*
X57098Y-33564D01*
X57071Y-33535D01*
X57041Y-33505D01*
X56925Y-33389D01*
X57091Y-33389D01*
X57117Y-33416D01*
X57150Y-33449D01*
X57182Y-33481D01*
X57211Y-33511D01*
X57238Y-33539D01*
X57259Y-33562D01*
X57275Y-33579D01*
X57284Y-33590D01*
X57285Y-33593D01*
X57281Y-33600D01*
X57269Y-33613D01*
X57251Y-33634D01*
X57227Y-33659D01*
X57199Y-33688D01*
X57167Y-33720D01*
X57164Y-33723D01*
X57127Y-33760D01*
X57097Y-33789D01*
X57073Y-33812D01*
X57053Y-33829D01*
X57037Y-33842D01*
X57023Y-33852D01*
X57010Y-33860D01*
X56999Y-33865D01*
X56977Y-33875D01*
X56959Y-33881D01*
X56940Y-33884D01*
X56916Y-33885D01*
X56901Y-33885D01*
X56868Y-33884D01*
X56844Y-33880D01*
X56824Y-33874D01*
X56818Y-33872D01*
X56790Y-33859D01*
X56702Y-33946D01*
X56615Y-34033D01*
X56567Y-33985D01*
X56520Y-33937D01*
X56607Y-33850D01*
X56636Y-33820D01*
X56658Y-33798D01*
X56673Y-33781D01*
X56683Y-33770D01*
X56688Y-33761D01*
X56689Y-33755D01*
X56687Y-33750D01*
X56686Y-33747D01*
X56671Y-33705D01*
X56665Y-33658D01*
X56670Y-33609D01*
X56685Y-33561D01*
X56691Y-33547D01*
X56699Y-33532D01*
X56708Y-33518D01*
X56719Y-33503D01*
X56734Y-33485D01*
X56754Y-33464D01*
X56780Y-33437D01*
X56813Y-33404D01*
X56832Y-33385D01*
X56863Y-33354D01*
X56892Y-33326D01*
X56918Y-33302D01*
X56938Y-33284D01*
X56953Y-33271D01*
X56959Y-33267D01*
X56960Y-33267D01*
X56960Y-33267D01*
X56960Y-33267D01*
G37*
G36*
X56628Y-35069D02*
X56633Y-35074D01*
X56646Y-35085D01*
X56666Y-35104D01*
X56691Y-35128D01*
X56721Y-35157D01*
X56755Y-35189D01*
X56782Y-35215D01*
X56824Y-35256D01*
X56868Y-35299D01*
X56912Y-35342D01*
X56954Y-35383D01*
X56992Y-35420D01*
X57025Y-35452D01*
X57032Y-35459D01*
X57065Y-35491D01*
X57090Y-35517D01*
X57109Y-35536D01*
X57121Y-35551D01*
X57128Y-35562D01*
X57131Y-35569D01*
X57132Y-35573D01*
X57130Y-35583D01*
X57123Y-35594D01*
X57110Y-35610D01*
X57090Y-35631D01*
X57077Y-35643D01*
X57055Y-35664D01*
X57035Y-35681D01*
X57020Y-35693D01*
X57011Y-35697D01*
X57011Y-35697D01*
X57002Y-35693D01*
X56987Y-35680D01*
X56965Y-35660D01*
X56938Y-35634D01*
X56907Y-35603D01*
X56879Y-35575D01*
X56845Y-35541D01*
X56806Y-35501D01*
X56764Y-35458D01*
X56721Y-35415D01*
X56679Y-35372D01*
X56658Y-35351D01*
X56502Y-35192D01*
X56563Y-35131D01*
X56585Y-35109D01*
X56604Y-35090D01*
X56619Y-35077D01*
X56627Y-35070D01*
X56628Y-35069D01*
X56628Y-35069D01*
X56628Y-35069D01*
G37*
G36*
X56066Y-33820D02*
X56080Y-33896D01*
X56087Y-33936D01*
X56092Y-33966D01*
X56097Y-33988D01*
X56102Y-34002D01*
X56108Y-34011D01*
X56116Y-34017D01*
X56127Y-34021D01*
X56141Y-34024D01*
X56145Y-34025D01*
X56170Y-34033D01*
X56200Y-34044D01*
X56231Y-34057D01*
X56246Y-34064D01*
X56305Y-34092D01*
X56382Y-34039D01*
X56410Y-34021D01*
X56433Y-34006D01*
X56452Y-33994D01*
X56463Y-33987D01*
X56465Y-33987D01*
X56471Y-33991D01*
X56484Y-34002D01*
X56502Y-34018D01*
X56519Y-34035D01*
X56567Y-34084D01*
X56511Y-34165D01*
X56456Y-34246D01*
X56474Y-34274D01*
X56483Y-34291D01*
X56487Y-34303D01*
X56487Y-34307D01*
X56480Y-34310D01*
X56464Y-34318D01*
X56439Y-34328D01*
X56408Y-34341D01*
X56373Y-34356D01*
X56352Y-34365D01*
X56222Y-34419D01*
X56187Y-34381D01*
X56144Y-34343D01*
X56096Y-34316D01*
X56046Y-34300D01*
X55993Y-34294D01*
X55940Y-34301D01*
X55888Y-34318D01*
X55852Y-34338D01*
X55810Y-34372D01*
X55777Y-34413D01*
X55754Y-34459D01*
X55740Y-34509D01*
X55736Y-34561D01*
X55742Y-34612D01*
X55759Y-34663D01*
X55786Y-34710D01*
X55786Y-34711D01*
X55822Y-34749D01*
X55865Y-34780D01*
X55913Y-34802D01*
X55964Y-34814D01*
X56016Y-34815D01*
X56053Y-34809D01*
X56093Y-34796D01*
X56126Y-34780D01*
X56157Y-34757D01*
X56183Y-34733D01*
X56200Y-34716D01*
X56214Y-34703D01*
X56222Y-34695D01*
X56224Y-34694D01*
X56231Y-34696D01*
X56247Y-34703D01*
X56271Y-34712D01*
X56300Y-34724D01*
X56332Y-34737D01*
X56366Y-34751D01*
X56399Y-34765D01*
X56429Y-34778D01*
X56455Y-34789D01*
X56474Y-34798D01*
X56485Y-34803D01*
X56487Y-34803D01*
X56486Y-34811D01*
X56480Y-34825D01*
X56473Y-34836D01*
X56456Y-34865D01*
X56510Y-34944D01*
X56565Y-35024D01*
X56514Y-35075D01*
X56462Y-35126D01*
X56385Y-35073D01*
X56358Y-35055D01*
X56334Y-35039D01*
X56315Y-35027D01*
X56304Y-35021D01*
X56302Y-35020D01*
X56293Y-35023D01*
X56277Y-35031D01*
X56262Y-35038D01*
X56242Y-35048D01*
X56215Y-35060D01*
X56184Y-35071D01*
X56166Y-35078D01*
X56137Y-35087D01*
X56119Y-35094D01*
X56108Y-35100D01*
X56102Y-35106D01*
X56099Y-35114D01*
X56097Y-35119D01*
X56095Y-35134D01*
X56090Y-35157D01*
X56085Y-35185D01*
X56080Y-35215D01*
X56066Y-35291D01*
X55994Y-35291D01*
X55922Y-35291D01*
X55904Y-35196D01*
X55898Y-35163D01*
X55892Y-35134D01*
X55887Y-35112D01*
X55884Y-35099D01*
X55883Y-35096D01*
X55876Y-35092D01*
X55860Y-35085D01*
X55838Y-35078D01*
X55827Y-35074D01*
X55797Y-35063D01*
X55765Y-35049D01*
X55738Y-35035D01*
X55735Y-35034D01*
X55695Y-35010D01*
X55610Y-35068D01*
X55525Y-35126D01*
X55473Y-35076D01*
X55422Y-35025D01*
X55481Y-34939D01*
X55539Y-34854D01*
X55518Y-34812D01*
X55493Y-34758D01*
X55475Y-34706D01*
X55471Y-34691D01*
X55464Y-34666D01*
X55389Y-34652D01*
X55357Y-34646D01*
X55326Y-34640D01*
X55300Y-34635D01*
X55284Y-34631D01*
X55255Y-34625D01*
X55256Y-34554D01*
X55258Y-34483D01*
X55359Y-34464D01*
X55460Y-34445D01*
X55480Y-34389D01*
X55491Y-34359D01*
X55504Y-34328D01*
X55516Y-34302D01*
X55519Y-34296D01*
X55530Y-34273D01*
X55535Y-34257D01*
X55535Y-34250D01*
X55529Y-34242D01*
X55519Y-34227D01*
X55504Y-34204D01*
X55486Y-34178D01*
X55476Y-34164D01*
X55423Y-34086D01*
X55474Y-34035D01*
X55525Y-33984D01*
X55609Y-34041D01*
X55692Y-34098D01*
X55746Y-34071D01*
X55774Y-34057D01*
X55804Y-34044D01*
X55829Y-34035D01*
X55836Y-34032D01*
X55857Y-34026D01*
X55873Y-34019D01*
X55880Y-34015D01*
X55884Y-34007D01*
X55889Y-33989D01*
X55895Y-33963D01*
X55901Y-33932D01*
X55905Y-33914D01*
X55922Y-33820D01*
X55994Y-33820D01*
X56066Y-33820D01*
X56066Y-33820D01*
X56066Y-33820D01*
G37*
G36*
X56119Y-33016D02*
X56129Y-33018D01*
X56130Y-33020D01*
X56129Y-33020D01*
X56119Y-33023D01*
X56101Y-33031D01*
X56075Y-33043D01*
X56043Y-33058D01*
X56008Y-33075D01*
X55971Y-33094D01*
X55934Y-33113D01*
X55898Y-33131D01*
X55866Y-33149D01*
X55839Y-33163D01*
X55829Y-33169D01*
X55722Y-33234D01*
X55612Y-33308D01*
X55503Y-33388D01*
X55396Y-33471D01*
X55296Y-33556D01*
X55262Y-33586D01*
X55222Y-33622D01*
X55240Y-33643D01*
X55249Y-33654D01*
X55265Y-33671D01*
X55287Y-33695D01*
X55313Y-33724D01*
X55343Y-33756D01*
X55374Y-33790D01*
X55490Y-33914D01*
X55421Y-33984D01*
X55351Y-34054D01*
X55332Y-34037D01*
X55321Y-34027D01*
X55303Y-34011D01*
X55280Y-33990D01*
X55254Y-33966D01*
X55237Y-33950D01*
X55206Y-33922D01*
X55174Y-33892D01*
X55144Y-33863D01*
X55118Y-33839D01*
X55110Y-33831D01*
X55060Y-33782D01*
X54991Y-33861D01*
X54877Y-33997D01*
X54773Y-34134D01*
X54679Y-34271D01*
X54593Y-34412D01*
X54580Y-34436D01*
X54564Y-34463D01*
X54553Y-34482D01*
X54543Y-34494D01*
X54534Y-34502D01*
X54522Y-34507D01*
X54515Y-34510D01*
X54499Y-34516D01*
X54488Y-34517D01*
X54486Y-34516D01*
X54488Y-34503D01*
X54493Y-34482D01*
X54499Y-34455D01*
X54507Y-34427D01*
X54516Y-34400D01*
X54521Y-34385D01*
X54578Y-34244D01*
X54646Y-34107D01*
X54726Y-33973D01*
X54816Y-33844D01*
X54910Y-33729D01*
X54949Y-33684D01*
X54935Y-33670D01*
X54922Y-33655D01*
X54934Y-33638D01*
X54946Y-33624D01*
X54963Y-33605D01*
X54984Y-33583D01*
X55007Y-33561D01*
X55030Y-33539D01*
X55052Y-33520D01*
X55069Y-33505D01*
X55082Y-33496D01*
X55086Y-33494D01*
X55100Y-33498D01*
X55108Y-33504D01*
X55113Y-33508D01*
X55120Y-33508D01*
X55128Y-33504D01*
X55142Y-33493D01*
X55162Y-33476D01*
X55170Y-33470D01*
X55277Y-33383D01*
X55390Y-33303D01*
X55506Y-33231D01*
X55626Y-33168D01*
X55745Y-33114D01*
X55865Y-33071D01*
X55983Y-33038D01*
X56021Y-33030D01*
X56053Y-33024D01*
X56081Y-33019D01*
X56104Y-33017D01*
X56118Y-33016D01*
X56119Y-33016D01*
X56119Y-33016D01*
X56119Y-33016D01*
G37*
G36*
X55132Y-34930D02*
X55141Y-34931D01*
X55150Y-34937D01*
X55162Y-34950D01*
X55177Y-34971D01*
X55189Y-34989D01*
X55208Y-35016D01*
X55230Y-35045D01*
X55252Y-35074D01*
X55273Y-35100D01*
X55291Y-35121D01*
X55302Y-35132D01*
X55309Y-35137D01*
X55315Y-35138D01*
X55324Y-35132D01*
X55337Y-35120D01*
X55344Y-35112D01*
X55375Y-35082D01*
X55422Y-35129D01*
X55470Y-35177D01*
X55439Y-35208D01*
X55408Y-35240D01*
X55443Y-35271D01*
X55464Y-35289D01*
X55490Y-35311D01*
X55518Y-35332D01*
X55528Y-35340D01*
X55560Y-35364D01*
X55583Y-35381D01*
X55599Y-35394D01*
X55610Y-35404D01*
X55615Y-35411D01*
X55618Y-35417D01*
X55618Y-35422D01*
X55615Y-35430D01*
X55604Y-35444D01*
X55585Y-35464D01*
X55559Y-35492D01*
X55525Y-35528D01*
X55481Y-35571D01*
X55478Y-35574D01*
X55442Y-35610D01*
X55407Y-35644D01*
X55374Y-35675D01*
X55344Y-35703D01*
X55320Y-35724D01*
X55303Y-35739D01*
X55298Y-35743D01*
X55223Y-35792D01*
X55149Y-35830D01*
X55072Y-35857D01*
X54992Y-35875D01*
X54966Y-35878D01*
X54918Y-35879D01*
X54869Y-35871D01*
X54821Y-35856D01*
X54777Y-35835D01*
X54749Y-35814D01*
X54728Y-35790D01*
X54708Y-35756D01*
X54691Y-35718D01*
X54679Y-35677D01*
X54676Y-35659D01*
X54673Y-35604D01*
X54680Y-35542D01*
X54695Y-35477D01*
X54719Y-35409D01*
X54729Y-35387D01*
X54745Y-35354D01*
X54763Y-35321D01*
X54786Y-35288D01*
X54813Y-35252D01*
X54846Y-35213D01*
X54885Y-35169D01*
X54932Y-35120D01*
X54967Y-35084D01*
X55002Y-35050D01*
X55034Y-35017D01*
X55063Y-34989D01*
X55088Y-34965D01*
X55107Y-34947D01*
X55119Y-34937D01*
X55123Y-34934D01*
X55132Y-34930D01*
X55132Y-34930D01*
X55132Y-34930D01*
G37*
G54D12*
X40354Y-35531D02*
X40344Y-35521D01*
G54D18*
X49852Y-31250D02*
X49753Y-31348D01*
X49753Y-32824D02*
X49753Y-31348D01*
X51328Y-32824D02*
X49753Y-32824D01*
X51328Y-31250D02*
X51328Y-32824D01*
X49852Y-31250D02*
X51328Y-31250D01*
G54D19*
X43396Y-32035D02*
G75*
G03X43396Y-32035I-50J0D01*
G74*
G01*
G54D20*
X44035Y-31338D02*
X43248Y-31338D01*
X43248Y-31338D02*
X43248Y-32244D01*
X43248Y-32244D02*
X44035Y-32244D01*
X44035Y-32244D02*
X44035Y-31338D01*
%LPC*%
G54D21*
X50076Y-35708D03*
X50076Y-37677D03*
X50576Y-35708D03*
X51076Y-35708D03*
X51576Y-35708D03*
X50576Y-37677D03*
X51076Y-37677D03*
X51576Y-37677D03*
G54D22*
X50826Y-36692D03*
G54D23*
X46555Y-32007D03*
X47204Y-32007D03*
X46555Y-31397D03*
X47204Y-31397D03*
G54D24*
X50896Y-38661D03*
X51564Y-38661D03*
G54D25*
X49389Y-35630D03*
X49389Y-36298D03*
X49409Y-36910D03*
X49409Y-37578D03*
X51023Y-34979D03*
X51023Y-34311D03*
G54D24*
X48542Y-35905D03*
X47874Y-35905D03*
X48542Y-35374D03*
X47874Y-35374D03*
G54D26*
X48681Y-37125D03*
X47696Y-37125D03*
G54D25*
X53090Y-35786D03*
X53090Y-35118D03*
X52224Y-37756D03*
X52224Y-38424D03*
G54D27*
X53090Y-36712D03*
X52224Y-37087D03*
X52224Y-36337D03*
G54D24*
X47874Y-34724D03*
X48542Y-34724D03*
G54D28*
X44635Y-36111D03*
X44438Y-36111D03*
X44241Y-36111D03*
X44045Y-36111D03*
X43848Y-36111D03*
X43651Y-36111D03*
X43455Y-36111D03*
X43258Y-36111D03*
X43061Y-36111D03*
X42865Y-36111D03*
X42668Y-36111D03*
X42471Y-36111D03*
G54D29*
X42176Y-35816D03*
X42176Y-35619D03*
X42176Y-35422D03*
X42176Y-35226D03*
X42176Y-35029D03*
X42176Y-34832D03*
X42176Y-34636D03*
X42176Y-34439D03*
X42176Y-34242D03*
X42176Y-34046D03*
X42176Y-33849D03*
X42176Y-33652D03*
G54D28*
X42471Y-33357D03*
X42668Y-33357D03*
X42865Y-33357D03*
X43061Y-33357D03*
X43258Y-33357D03*
X43455Y-33357D03*
X43651Y-33357D03*
X43848Y-33357D03*
X44045Y-33357D03*
X44241Y-33357D03*
X44438Y-33357D03*
X44635Y-33357D03*
G54D29*
X44930Y-33652D03*
X44930Y-33849D03*
X44930Y-34046D03*
X44930Y-34242D03*
X44930Y-34439D03*
X44930Y-34636D03*
X44930Y-34832D03*
X44930Y-35029D03*
X44930Y-35226D03*
X44930Y-35422D03*
X44930Y-35619D03*
X44930Y-35816D03*
G54D30*
X43553Y-34734D03*
G54D25*
X47844Y-31358D03*
X47844Y-32026D03*
G54D31*
X45787Y-34527D03*
X46417Y-34527D03*
G54D32*
X47753Y-30275D03*
X46753Y-30275D03*
X45753Y-30275D03*
X48753Y-30275D03*
X44753Y-30275D03*
G54D33*
X45873Y-30984D03*
X45873Y-31181D03*
X45873Y-31378D03*
X45307Y-31378D03*
X45307Y-31181D03*
X45307Y-30984D03*
G54D34*
X44064Y-37549D03*
X44064Y-37155D03*
G54D35*
X47322Y-32834D03*
G54D36*
X47420Y-33425D03*
G54D35*
X47322Y-34016D03*
G54D37*
X48307Y-33425D03*
G54D38*
X52244Y-32431D03*
X52244Y-32037D03*
G54D39*
X50748Y-30629D03*
X50354Y-30629D03*
X45629Y-32086D03*
X45236Y-32086D03*
X43435Y-30049D03*
X43828Y-30049D03*
X45905Y-35078D03*
X46299Y-35078D03*
X41456Y-33838D03*
X41062Y-33838D03*
G54D38*
X42893Y-37145D03*
X42893Y-37539D03*
X44744Y-32303D03*
X44744Y-31909D03*
G54D39*
X42480Y-32244D03*
X42086Y-32244D03*
X46062Y-33976D03*
X46456Y-33976D03*
X41456Y-35098D03*
X41062Y-35098D03*
X45905Y-35511D03*
X46299Y-35511D03*
G54D38*
X44921Y-37155D03*
X44921Y-37549D03*
X44488Y-37155D03*
X44488Y-37549D03*
G54D39*
X42480Y-32637D03*
X42086Y-32637D03*
G54D38*
X42460Y-37145D03*
X42460Y-37539D03*
G54D40*
X40059Y-36181D03*
X40649Y-36181D03*
X40059Y-36830D03*
X40649Y-36830D03*
X45531Y-32834D03*
X46122Y-32834D03*
X51594Y-33661D03*
X52185Y-33661D03*
X43907Y-30570D03*
X43316Y-30570D03*
X42145Y-30570D03*
X42736Y-30570D03*
X42145Y-31200D03*
X42736Y-31200D03*
X40492Y-31771D03*
X39901Y-31771D03*
X49862Y-34311D03*
X50452Y-34311D03*
X52185Y-34389D03*
X51594Y-34389D03*
X52185Y-34980D03*
X51594Y-34980D03*
G54D41*
X49133Y-38612D03*
X50275Y-38612D03*
G54D40*
X39901Y-31102D03*
X40492Y-31102D03*
G54D42*
X51811Y-30511D03*
X41141Y-38385D03*
G54D43*
X39960Y-34448D03*
X39960Y-33444D03*
X39960Y-35452D03*
G54D44*
X53070Y-32027D03*
X53070Y-32381D03*
X52657Y-32027D03*
X52657Y-32381D03*
G54D45*
X50541Y-32037D03*
G54D46*
X49767Y-31643D03*
X49767Y-31840D03*
X49767Y-32037D03*
X49767Y-32234D03*
X49767Y-32431D03*
G54D47*
X50147Y-32811D03*
X50344Y-32811D03*
X50541Y-32811D03*
X50738Y-32811D03*
X50935Y-32811D03*
G54D46*
X51314Y-32431D03*
X51314Y-32234D03*
X51314Y-32037D03*
X51314Y-31840D03*
X51314Y-31643D03*
G54D48*
X50935Y-31263D03*
X50738Y-31263D03*
X50541Y-31263D03*
X50344Y-31263D03*
X50147Y-31263D03*
G54D49*
X43956Y-32332D03*
X43326Y-32332D03*
G54D50*
X43543Y-32332D03*
X43740Y-32332D03*
X43740Y-31250D03*
X43543Y-31250D03*
G54D49*
X43326Y-31250D03*
X43956Y-31250D03*
M02*
