G04 (created by PCBNEW (2013-mar-13)-testing) date Thu 16 May 2013 04:44:18 PM ICT*
%MOIN*%
G04 Gerber Fmt 3.4, Leading zero omitted, Abs format*
%FSLAX34Y34*%
G01*
G70*
G90*
G04 APERTURE LIST*
%ADD10C,0.00393701*%
%ADD11R,0.06X0.06*%
%ADD12C,0.06*%
%ADD13C,0.023622*%
%ADD14C,0.019685*%
%ADD15C,0.0314961*%
%ADD16C,0.011811*%
%ADD17C,0.00787402*%
G04 APERTURE END LIST*
G54D10*
G54D11*
X39960Y-35448D03*
G54D12*
X39960Y-34448D03*
X39960Y-33448D03*
G54D13*
X47204Y-30984D03*
X49645Y-32224D03*
X52539Y-33720D03*
X53110Y-34547D03*
X45964Y-35472D03*
X51456Y-33740D03*
X45984Y-35807D03*
X51751Y-33937D03*
G54D14*
X43976Y-34744D03*
X44409Y-34744D03*
X44409Y-34311D03*
X44409Y-33877D03*
X43976Y-33877D03*
X43976Y-34311D03*
X43543Y-34744D03*
X43533Y-34734D03*
X43966Y-35167D03*
X44399Y-35167D03*
X44399Y-35600D03*
X43966Y-35600D03*
X43533Y-35600D03*
X43533Y-35167D03*
X43110Y-34744D03*
X42677Y-34744D03*
X42677Y-35177D03*
X42677Y-35610D03*
X43110Y-35610D03*
X43110Y-35177D03*
X43543Y-34744D03*
X43543Y-34744D03*
X43110Y-34311D03*
X42677Y-34311D03*
X42677Y-33877D03*
X43110Y-33877D03*
X43543Y-33877D03*
X43543Y-34311D03*
G54D13*
X46377Y-34685D03*
X46555Y-31062D03*
X46535Y-33503D03*
X44763Y-37125D03*
X42696Y-37597D03*
X42716Y-31851D03*
X44744Y-31496D03*
X49370Y-31122D03*
X50944Y-32657D03*
X50570Y-35216D03*
X43641Y-32322D03*
X51712Y-31633D03*
X51957Y-30688D03*
X51447Y-30688D03*
X47775Y-32303D03*
X44921Y-37618D03*
X42106Y-37086D03*
X42086Y-32362D03*
X52618Y-30807D03*
G54D15*
X52224Y-37401D03*
G54D13*
X52224Y-35433D03*
X47874Y-35649D03*
G54D14*
X48720Y-33641D03*
X47992Y-33661D03*
X48700Y-33208D03*
X48011Y-33208D03*
X48365Y-33425D03*
G54D15*
X53149Y-36279D03*
G54D14*
X51259Y-36397D03*
X51259Y-36948D03*
X50826Y-36948D03*
X50393Y-36948D03*
X50393Y-36397D03*
X50826Y-36397D03*
G54D13*
X49862Y-36909D03*
X51082Y-38188D03*
G54D16*
X50570Y-34625D02*
X46811Y-34625D01*
X46811Y-34625D02*
X45964Y-35472D01*
X51456Y-33740D02*
X50570Y-34625D01*
X46929Y-34862D02*
X45984Y-35807D01*
X50826Y-34862D02*
X46929Y-34862D01*
X51751Y-33937D02*
X50826Y-34862D01*
X44094Y-31870D02*
X43641Y-32322D01*
X51476Y-31870D02*
X44094Y-31870D01*
X51712Y-31633D02*
X51476Y-31870D01*
X52224Y-37401D02*
X52244Y-37401D01*
X52224Y-35433D02*
X52007Y-35649D01*
X52007Y-35649D02*
X47874Y-35649D01*
X49862Y-37519D02*
X49862Y-36909D01*
X50551Y-38208D02*
X49862Y-37519D01*
X51062Y-38208D02*
X50551Y-38208D01*
X51082Y-38188D02*
X51062Y-38208D01*
G54D10*
G36*
X53582Y-36722D02*
X53576Y-36726D01*
X53544Y-36774D01*
X53533Y-36830D01*
X53533Y-39251D01*
X53425Y-39251D01*
X53425Y-36224D01*
X53383Y-36123D01*
X53346Y-36086D01*
X53346Y-34500D01*
X53310Y-34413D01*
X53244Y-34347D01*
X53157Y-34311D01*
X53063Y-34310D01*
X52976Y-34346D01*
X52910Y-34413D01*
X52874Y-34500D01*
X52873Y-34594D01*
X52909Y-34680D01*
X52976Y-34747D01*
X53063Y-34783D01*
X53157Y-34783D01*
X53243Y-34747D01*
X53310Y-34681D01*
X53346Y-34594D01*
X53346Y-34500D01*
X53346Y-36086D01*
X53305Y-36046D01*
X53204Y-36003D01*
X53095Y-36003D01*
X52993Y-36045D01*
X52916Y-36123D01*
X52874Y-36224D01*
X52873Y-36334D01*
X52915Y-36435D01*
X52993Y-36513D01*
X53094Y-36555D01*
X53204Y-36555D01*
X53305Y-36513D01*
X53383Y-36435D01*
X53425Y-36334D01*
X53425Y-36224D01*
X53425Y-39251D01*
X52854Y-39251D01*
X52854Y-30760D01*
X52818Y-30673D01*
X52752Y-30606D01*
X52665Y-30570D01*
X52571Y-30570D01*
X52484Y-30606D01*
X52417Y-30673D01*
X52381Y-30759D01*
X52381Y-30853D01*
X52417Y-30940D01*
X52484Y-31007D01*
X52570Y-31043D01*
X52664Y-31043D01*
X52751Y-31007D01*
X52818Y-30941D01*
X52854Y-30854D01*
X52854Y-30760D01*
X52854Y-39251D01*
X52775Y-39251D01*
X52775Y-33673D01*
X52739Y-33586D01*
X52673Y-33520D01*
X52586Y-33484D01*
X52492Y-33484D01*
X52405Y-33520D01*
X52339Y-33586D01*
X52303Y-33673D01*
X52303Y-33767D01*
X52338Y-33854D01*
X52405Y-33920D01*
X52492Y-33956D01*
X52586Y-33956D01*
X52673Y-33920D01*
X52739Y-33854D01*
X52775Y-33767D01*
X52775Y-33673D01*
X52775Y-39251D01*
X52500Y-39251D01*
X52500Y-37346D01*
X52460Y-37251D01*
X52460Y-35386D01*
X52424Y-35299D01*
X52358Y-35232D01*
X52271Y-35196D01*
X52193Y-35196D01*
X52193Y-30642D01*
X52157Y-30555D01*
X52091Y-30488D01*
X52004Y-30452D01*
X51910Y-30452D01*
X51823Y-30488D01*
X51756Y-30554D01*
X51720Y-30641D01*
X51720Y-30735D01*
X51756Y-30822D01*
X51823Y-30889D01*
X51909Y-30925D01*
X52003Y-30925D01*
X52090Y-30889D01*
X52157Y-30822D01*
X52193Y-30736D01*
X52193Y-30642D01*
X52193Y-35196D01*
X52177Y-35196D01*
X52090Y-35232D01*
X52024Y-35299D01*
X51988Y-35385D01*
X51988Y-33890D01*
X51952Y-33803D01*
X51948Y-33799D01*
X51948Y-31587D01*
X51912Y-31500D01*
X51846Y-31433D01*
X51759Y-31397D01*
X51683Y-31397D01*
X51683Y-30642D01*
X51647Y-30555D01*
X51581Y-30488D01*
X51494Y-30452D01*
X51400Y-30452D01*
X51313Y-30488D01*
X51246Y-30554D01*
X51210Y-30641D01*
X51210Y-30735D01*
X51246Y-30822D01*
X51313Y-30889D01*
X51399Y-30925D01*
X51493Y-30925D01*
X51580Y-30889D01*
X51647Y-30822D01*
X51683Y-30736D01*
X51683Y-30642D01*
X51683Y-31397D01*
X51665Y-31397D01*
X51578Y-31433D01*
X51512Y-31499D01*
X51476Y-31586D01*
X51476Y-31619D01*
X51402Y-31692D01*
X47440Y-31692D01*
X47440Y-30937D01*
X47405Y-30850D01*
X47338Y-30784D01*
X47251Y-30748D01*
X47157Y-30747D01*
X47071Y-30783D01*
X47004Y-30850D01*
X46968Y-30937D01*
X46968Y-31031D01*
X47004Y-31117D01*
X47070Y-31184D01*
X47157Y-31220D01*
X47251Y-31220D01*
X47338Y-31184D01*
X47404Y-31118D01*
X47440Y-31031D01*
X47440Y-30937D01*
X47440Y-31692D01*
X44094Y-31692D01*
X44026Y-31706D01*
X43969Y-31744D01*
X43627Y-32086D01*
X43594Y-32086D01*
X43508Y-32122D01*
X43441Y-32188D01*
X43405Y-32275D01*
X43405Y-32369D01*
X43441Y-32456D01*
X43507Y-32522D01*
X43594Y-32559D01*
X43688Y-32559D01*
X43775Y-32523D01*
X43841Y-32456D01*
X43877Y-32370D01*
X43877Y-32337D01*
X44167Y-32047D01*
X49488Y-32047D01*
X49445Y-32090D01*
X49409Y-32177D01*
X49409Y-32271D01*
X49445Y-32358D01*
X49511Y-32424D01*
X49598Y-32460D01*
X49692Y-32460D01*
X49779Y-32424D01*
X49845Y-32358D01*
X49881Y-32271D01*
X49881Y-32177D01*
X49846Y-32090D01*
X49802Y-32047D01*
X51476Y-32047D01*
X51544Y-32033D01*
X51544Y-32033D01*
X51601Y-31995D01*
X51726Y-31870D01*
X51759Y-31870D01*
X51846Y-31834D01*
X51912Y-31767D01*
X51948Y-31681D01*
X51948Y-31587D01*
X51948Y-33799D01*
X51885Y-33736D01*
X51799Y-33700D01*
X51705Y-33700D01*
X51692Y-33705D01*
X51692Y-33693D01*
X51657Y-33606D01*
X51590Y-33540D01*
X51503Y-33503D01*
X51409Y-33503D01*
X51323Y-33539D01*
X51256Y-33606D01*
X51220Y-33692D01*
X51220Y-33725D01*
X51181Y-33765D01*
X51181Y-32610D01*
X51145Y-32523D01*
X51078Y-32457D01*
X50992Y-32421D01*
X50898Y-32421D01*
X50811Y-32457D01*
X50744Y-32523D01*
X50708Y-32610D01*
X50708Y-32704D01*
X50744Y-32791D01*
X50810Y-32857D01*
X50897Y-32893D01*
X50991Y-32893D01*
X51078Y-32857D01*
X51145Y-32791D01*
X51181Y-32704D01*
X51181Y-32610D01*
X51181Y-33765D01*
X50497Y-34448D01*
X48937Y-34448D01*
X48937Y-33598D01*
X48904Y-33519D01*
X48843Y-33458D01*
X48763Y-33425D01*
X48743Y-33425D01*
X48823Y-33392D01*
X48884Y-33331D01*
X48917Y-33251D01*
X48917Y-33165D01*
X48884Y-33086D01*
X48823Y-33025D01*
X48744Y-32992D01*
X48657Y-32992D01*
X48578Y-33024D01*
X48517Y-33085D01*
X48484Y-33165D01*
X48484Y-33239D01*
X48409Y-33208D01*
X48322Y-33208D01*
X48243Y-33241D01*
X48225Y-33259D01*
X48228Y-33251D01*
X48228Y-33165D01*
X48195Y-33086D01*
X48134Y-33025D01*
X48055Y-32992D01*
X48011Y-32992D01*
X48011Y-32256D01*
X47975Y-32169D01*
X47909Y-32103D01*
X47822Y-32066D01*
X47728Y-32066D01*
X47641Y-32102D01*
X47575Y-32169D01*
X47539Y-32255D01*
X47539Y-32349D01*
X47575Y-32436D01*
X47641Y-32503D01*
X47728Y-32539D01*
X47822Y-32539D01*
X47909Y-32503D01*
X47975Y-32437D01*
X48011Y-32350D01*
X48011Y-32256D01*
X48011Y-32992D01*
X47968Y-32992D01*
X47889Y-33024D01*
X47828Y-33085D01*
X47795Y-33165D01*
X47795Y-33251D01*
X47828Y-33331D01*
X47888Y-33392D01*
X47968Y-33425D01*
X48054Y-33425D01*
X48134Y-33392D01*
X48152Y-33374D01*
X48149Y-33381D01*
X48149Y-33468D01*
X48182Y-33547D01*
X48243Y-33608D01*
X48322Y-33641D01*
X48408Y-33641D01*
X48488Y-33608D01*
X48507Y-33589D01*
X48503Y-33598D01*
X48503Y-33684D01*
X48536Y-33764D01*
X48597Y-33825D01*
X48677Y-33858D01*
X48763Y-33858D01*
X48842Y-33825D01*
X48903Y-33764D01*
X48936Y-33684D01*
X48937Y-33598D01*
X48937Y-34448D01*
X48208Y-34448D01*
X48208Y-33618D01*
X48175Y-33538D01*
X48114Y-33477D01*
X48035Y-33444D01*
X47949Y-33444D01*
X47869Y-33477D01*
X47808Y-33538D01*
X47775Y-33618D01*
X47775Y-33704D01*
X47808Y-33783D01*
X47869Y-33844D01*
X47948Y-33877D01*
X48035Y-33877D01*
X48114Y-33845D01*
X48175Y-33784D01*
X48208Y-33704D01*
X48208Y-33618D01*
X48208Y-34448D01*
X46811Y-34448D01*
X46743Y-34462D01*
X46685Y-34500D01*
X45950Y-35236D01*
X45917Y-35236D01*
X45830Y-35272D01*
X45764Y-35338D01*
X45728Y-35425D01*
X45728Y-35519D01*
X45764Y-35606D01*
X45807Y-35649D01*
X45784Y-35673D01*
X45748Y-35759D01*
X45747Y-35853D01*
X45783Y-35940D01*
X45850Y-36007D01*
X45937Y-36043D01*
X46031Y-36043D01*
X46117Y-36007D01*
X46184Y-35941D01*
X46220Y-35854D01*
X46220Y-35821D01*
X47002Y-35039D01*
X50413Y-35039D01*
X50370Y-35082D01*
X50334Y-35169D01*
X50334Y-35263D01*
X50370Y-35350D01*
X50436Y-35416D01*
X50523Y-35452D01*
X50617Y-35452D01*
X50704Y-35416D01*
X50771Y-35350D01*
X50807Y-35263D01*
X50807Y-35169D01*
X50771Y-35082D01*
X50727Y-35039D01*
X50826Y-35039D01*
X50894Y-35025D01*
X50894Y-35025D01*
X50952Y-34987D01*
X51766Y-34173D01*
X51798Y-34173D01*
X51885Y-34137D01*
X51952Y-34070D01*
X51988Y-33984D01*
X51988Y-33890D01*
X51988Y-35385D01*
X51988Y-35418D01*
X51934Y-35472D01*
X48030Y-35472D01*
X48007Y-35449D01*
X47921Y-35413D01*
X47827Y-35413D01*
X47740Y-35449D01*
X47673Y-35515D01*
X47637Y-35602D01*
X47637Y-35696D01*
X47673Y-35783D01*
X47740Y-35849D01*
X47826Y-35885D01*
X47920Y-35885D01*
X48007Y-35849D01*
X48030Y-35826D01*
X52007Y-35826D01*
X52075Y-35813D01*
X52075Y-35813D01*
X52133Y-35774D01*
X52238Y-35669D01*
X52271Y-35669D01*
X52358Y-35633D01*
X52424Y-35567D01*
X52460Y-35480D01*
X52460Y-35386D01*
X52460Y-37251D01*
X52458Y-37245D01*
X52380Y-37168D01*
X52279Y-37126D01*
X52169Y-37125D01*
X52068Y-37167D01*
X51990Y-37245D01*
X51948Y-37346D01*
X51948Y-37456D01*
X51990Y-37557D01*
X52068Y-37635D01*
X52169Y-37677D01*
X52279Y-37677D01*
X52380Y-37635D01*
X52457Y-37557D01*
X52500Y-37456D01*
X52500Y-37346D01*
X52500Y-39251D01*
X51476Y-39251D01*
X51476Y-36905D01*
X51476Y-36354D01*
X51443Y-36275D01*
X51382Y-36214D01*
X51303Y-36181D01*
X51216Y-36181D01*
X51137Y-36213D01*
X51076Y-36274D01*
X51043Y-36354D01*
X51043Y-36354D01*
X51010Y-36275D01*
X50949Y-36214D01*
X50870Y-36181D01*
X50783Y-36181D01*
X50704Y-36213D01*
X50643Y-36274D01*
X50610Y-36354D01*
X50610Y-36354D01*
X50577Y-36275D01*
X50516Y-36214D01*
X50436Y-36181D01*
X50350Y-36181D01*
X50271Y-36213D01*
X50210Y-36274D01*
X50177Y-36354D01*
X50177Y-36440D01*
X50210Y-36520D01*
X50270Y-36581D01*
X50350Y-36614D01*
X50436Y-36614D01*
X50516Y-36581D01*
X50577Y-36520D01*
X50610Y-36440D01*
X50610Y-36354D01*
X50610Y-36440D01*
X50643Y-36520D01*
X50703Y-36581D01*
X50783Y-36614D01*
X50869Y-36614D01*
X50949Y-36581D01*
X51010Y-36520D01*
X51043Y-36440D01*
X51043Y-36354D01*
X51043Y-36440D01*
X51076Y-36520D01*
X51137Y-36581D01*
X51216Y-36614D01*
X51302Y-36614D01*
X51382Y-36581D01*
X51443Y-36520D01*
X51476Y-36440D01*
X51476Y-36354D01*
X51476Y-36905D01*
X51443Y-36826D01*
X51382Y-36765D01*
X51303Y-36732D01*
X51216Y-36732D01*
X51137Y-36765D01*
X51076Y-36826D01*
X51043Y-36905D01*
X51043Y-36905D01*
X51010Y-36826D01*
X50949Y-36765D01*
X50870Y-36732D01*
X50783Y-36732D01*
X50704Y-36765D01*
X50643Y-36826D01*
X50610Y-36905D01*
X50610Y-36905D01*
X50577Y-36826D01*
X50516Y-36765D01*
X50436Y-36732D01*
X50350Y-36732D01*
X50271Y-36765D01*
X50210Y-36826D01*
X50177Y-36905D01*
X50177Y-36991D01*
X50210Y-37071D01*
X50270Y-37132D01*
X50350Y-37165D01*
X50436Y-37165D01*
X50516Y-37132D01*
X50577Y-37071D01*
X50610Y-36992D01*
X50610Y-36905D01*
X50610Y-36991D01*
X50643Y-37071D01*
X50703Y-37132D01*
X50783Y-37165D01*
X50869Y-37165D01*
X50949Y-37132D01*
X51010Y-37071D01*
X51043Y-36992D01*
X51043Y-36905D01*
X51043Y-36991D01*
X51076Y-37071D01*
X51137Y-37132D01*
X51216Y-37165D01*
X51302Y-37165D01*
X51382Y-37132D01*
X51443Y-37071D01*
X51476Y-36992D01*
X51476Y-36905D01*
X51476Y-39251D01*
X51318Y-39251D01*
X51318Y-38142D01*
X51283Y-38055D01*
X51216Y-37988D01*
X51129Y-37952D01*
X51035Y-37952D01*
X50949Y-37988D01*
X50906Y-38031D01*
X50624Y-38031D01*
X50039Y-37446D01*
X50039Y-37066D01*
X50062Y-37043D01*
X50098Y-36956D01*
X50098Y-36862D01*
X50062Y-36775D01*
X49996Y-36709D01*
X49909Y-36673D01*
X49815Y-36673D01*
X49728Y-36709D01*
X49662Y-36775D01*
X49626Y-36862D01*
X49625Y-36956D01*
X49661Y-37043D01*
X49685Y-37066D01*
X49685Y-37519D01*
X49698Y-37587D01*
X49736Y-37644D01*
X50425Y-38333D01*
X50483Y-38372D01*
X50483Y-38372D01*
X50551Y-38385D01*
X50945Y-38385D01*
X50948Y-38389D01*
X51035Y-38425D01*
X51129Y-38425D01*
X51216Y-38389D01*
X51282Y-38322D01*
X51318Y-38236D01*
X51318Y-38142D01*
X51318Y-39251D01*
X45157Y-39251D01*
X45157Y-37571D01*
X45121Y-37484D01*
X45055Y-37417D01*
X44968Y-37381D01*
X44874Y-37381D01*
X44787Y-37417D01*
X44721Y-37484D01*
X44685Y-37570D01*
X44684Y-37664D01*
X44720Y-37751D01*
X44787Y-37818D01*
X44874Y-37854D01*
X44968Y-37854D01*
X45054Y-37818D01*
X45121Y-37752D01*
X45157Y-37665D01*
X45157Y-37571D01*
X45157Y-39251D01*
X42342Y-39251D01*
X42342Y-37039D01*
X42322Y-36992D01*
X42322Y-32315D01*
X42286Y-32228D01*
X42220Y-32162D01*
X42133Y-32126D01*
X42039Y-32125D01*
X41952Y-32161D01*
X41886Y-32228D01*
X41850Y-32315D01*
X41850Y-32408D01*
X41886Y-32495D01*
X41952Y-32562D01*
X42039Y-32598D01*
X42133Y-32598D01*
X42220Y-32562D01*
X42286Y-32496D01*
X42322Y-32409D01*
X42322Y-32315D01*
X42322Y-36992D01*
X42306Y-36952D01*
X42240Y-36886D01*
X42153Y-36850D01*
X42059Y-36850D01*
X41972Y-36886D01*
X41906Y-36952D01*
X41870Y-37039D01*
X41870Y-37133D01*
X41905Y-37220D01*
X41972Y-37286D01*
X42059Y-37322D01*
X42153Y-37322D01*
X42239Y-37286D01*
X42306Y-37220D01*
X42342Y-37133D01*
X42342Y-37039D01*
X42342Y-39251D01*
X40506Y-39251D01*
X40506Y-33517D01*
X40491Y-33303D01*
X40438Y-33176D01*
X40347Y-33147D01*
X40261Y-33233D01*
X40261Y-33062D01*
X40232Y-32970D01*
X40029Y-32903D01*
X39815Y-32918D01*
X39688Y-32970D01*
X39659Y-33062D01*
X39960Y-33363D01*
X40261Y-33062D01*
X40261Y-33233D01*
X40046Y-33448D01*
X40347Y-33749D01*
X40438Y-33721D01*
X40506Y-33517D01*
X40506Y-39251D01*
X40378Y-39251D01*
X40378Y-34366D01*
X40315Y-34212D01*
X40261Y-34158D01*
X40261Y-33835D01*
X39960Y-33534D01*
X39659Y-33835D01*
X39688Y-33926D01*
X39891Y-33994D01*
X40106Y-33979D01*
X40232Y-33926D01*
X40261Y-33835D01*
X40261Y-34158D01*
X40197Y-34094D01*
X40044Y-34030D01*
X39877Y-34030D01*
X39724Y-34094D01*
X39606Y-34211D01*
X39542Y-34365D01*
X39542Y-34531D01*
X39605Y-34685D01*
X39723Y-34803D01*
X39877Y-34866D01*
X40043Y-34867D01*
X40197Y-34803D01*
X40314Y-34685D01*
X40378Y-34532D01*
X40378Y-34366D01*
X40378Y-39251D01*
X40378Y-39251D01*
X40378Y-35725D01*
X40378Y-35125D01*
X40360Y-35082D01*
X40327Y-35048D01*
X40284Y-35030D01*
X40237Y-35030D01*
X39637Y-35030D01*
X39593Y-35048D01*
X39560Y-35081D01*
X39542Y-35125D01*
X39542Y-35172D01*
X39542Y-35772D01*
X39560Y-35815D01*
X39593Y-35848D01*
X39637Y-35866D01*
X39684Y-35866D01*
X40284Y-35866D01*
X40327Y-35849D01*
X40360Y-35815D01*
X40378Y-35772D01*
X40378Y-35725D01*
X40378Y-39251D01*
X39488Y-39251D01*
X39488Y-33722D01*
X39573Y-33749D01*
X39874Y-33448D01*
X39573Y-33147D01*
X39488Y-33174D01*
X39488Y-29645D01*
X53533Y-29645D01*
X53533Y-32066D01*
X53544Y-32123D01*
X53576Y-32171D01*
X53582Y-32175D01*
X53582Y-36722D01*
X53582Y-36722D01*
G37*
G54D17*
X53582Y-36722D02*
X53576Y-36726D01*
X53544Y-36774D01*
X53533Y-36830D01*
X53533Y-39251D01*
X53425Y-39251D01*
X53425Y-36224D01*
X53383Y-36123D01*
X53346Y-36086D01*
X53346Y-34500D01*
X53310Y-34413D01*
X53244Y-34347D01*
X53157Y-34311D01*
X53063Y-34310D01*
X52976Y-34346D01*
X52910Y-34413D01*
X52874Y-34500D01*
X52873Y-34594D01*
X52909Y-34680D01*
X52976Y-34747D01*
X53063Y-34783D01*
X53157Y-34783D01*
X53243Y-34747D01*
X53310Y-34681D01*
X53346Y-34594D01*
X53346Y-34500D01*
X53346Y-36086D01*
X53305Y-36046D01*
X53204Y-36003D01*
X53095Y-36003D01*
X52993Y-36045D01*
X52916Y-36123D01*
X52874Y-36224D01*
X52873Y-36334D01*
X52915Y-36435D01*
X52993Y-36513D01*
X53094Y-36555D01*
X53204Y-36555D01*
X53305Y-36513D01*
X53383Y-36435D01*
X53425Y-36334D01*
X53425Y-36224D01*
X53425Y-39251D01*
X52854Y-39251D01*
X52854Y-30760D01*
X52818Y-30673D01*
X52752Y-30606D01*
X52665Y-30570D01*
X52571Y-30570D01*
X52484Y-30606D01*
X52417Y-30673D01*
X52381Y-30759D01*
X52381Y-30853D01*
X52417Y-30940D01*
X52484Y-31007D01*
X52570Y-31043D01*
X52664Y-31043D01*
X52751Y-31007D01*
X52818Y-30941D01*
X52854Y-30854D01*
X52854Y-30760D01*
X52854Y-39251D01*
X52775Y-39251D01*
X52775Y-33673D01*
X52739Y-33586D01*
X52673Y-33520D01*
X52586Y-33484D01*
X52492Y-33484D01*
X52405Y-33520D01*
X52339Y-33586D01*
X52303Y-33673D01*
X52303Y-33767D01*
X52338Y-33854D01*
X52405Y-33920D01*
X52492Y-33956D01*
X52586Y-33956D01*
X52673Y-33920D01*
X52739Y-33854D01*
X52775Y-33767D01*
X52775Y-33673D01*
X52775Y-39251D01*
X52500Y-39251D01*
X52500Y-37346D01*
X52460Y-37251D01*
X52460Y-35386D01*
X52424Y-35299D01*
X52358Y-35232D01*
X52271Y-35196D01*
X52193Y-35196D01*
X52193Y-30642D01*
X52157Y-30555D01*
X52091Y-30488D01*
X52004Y-30452D01*
X51910Y-30452D01*
X51823Y-30488D01*
X51756Y-30554D01*
X51720Y-30641D01*
X51720Y-30735D01*
X51756Y-30822D01*
X51823Y-30889D01*
X51909Y-30925D01*
X52003Y-30925D01*
X52090Y-30889D01*
X52157Y-30822D01*
X52193Y-30736D01*
X52193Y-30642D01*
X52193Y-35196D01*
X52177Y-35196D01*
X52090Y-35232D01*
X52024Y-35299D01*
X51988Y-35385D01*
X51988Y-33890D01*
X51952Y-33803D01*
X51948Y-33799D01*
X51948Y-31587D01*
X51912Y-31500D01*
X51846Y-31433D01*
X51759Y-31397D01*
X51683Y-31397D01*
X51683Y-30642D01*
X51647Y-30555D01*
X51581Y-30488D01*
X51494Y-30452D01*
X51400Y-30452D01*
X51313Y-30488D01*
X51246Y-30554D01*
X51210Y-30641D01*
X51210Y-30735D01*
X51246Y-30822D01*
X51313Y-30889D01*
X51399Y-30925D01*
X51493Y-30925D01*
X51580Y-30889D01*
X51647Y-30822D01*
X51683Y-30736D01*
X51683Y-30642D01*
X51683Y-31397D01*
X51665Y-31397D01*
X51578Y-31433D01*
X51512Y-31499D01*
X51476Y-31586D01*
X51476Y-31619D01*
X51402Y-31692D01*
X47440Y-31692D01*
X47440Y-30937D01*
X47405Y-30850D01*
X47338Y-30784D01*
X47251Y-30748D01*
X47157Y-30747D01*
X47071Y-30783D01*
X47004Y-30850D01*
X46968Y-30937D01*
X46968Y-31031D01*
X47004Y-31117D01*
X47070Y-31184D01*
X47157Y-31220D01*
X47251Y-31220D01*
X47338Y-31184D01*
X47404Y-31118D01*
X47440Y-31031D01*
X47440Y-30937D01*
X47440Y-31692D01*
X44094Y-31692D01*
X44026Y-31706D01*
X43969Y-31744D01*
X43627Y-32086D01*
X43594Y-32086D01*
X43508Y-32122D01*
X43441Y-32188D01*
X43405Y-32275D01*
X43405Y-32369D01*
X43441Y-32456D01*
X43507Y-32522D01*
X43594Y-32559D01*
X43688Y-32559D01*
X43775Y-32523D01*
X43841Y-32456D01*
X43877Y-32370D01*
X43877Y-32337D01*
X44167Y-32047D01*
X49488Y-32047D01*
X49445Y-32090D01*
X49409Y-32177D01*
X49409Y-32271D01*
X49445Y-32358D01*
X49511Y-32424D01*
X49598Y-32460D01*
X49692Y-32460D01*
X49779Y-32424D01*
X49845Y-32358D01*
X49881Y-32271D01*
X49881Y-32177D01*
X49846Y-32090D01*
X49802Y-32047D01*
X51476Y-32047D01*
X51544Y-32033D01*
X51544Y-32033D01*
X51601Y-31995D01*
X51726Y-31870D01*
X51759Y-31870D01*
X51846Y-31834D01*
X51912Y-31767D01*
X51948Y-31681D01*
X51948Y-31587D01*
X51948Y-33799D01*
X51885Y-33736D01*
X51799Y-33700D01*
X51705Y-33700D01*
X51692Y-33705D01*
X51692Y-33693D01*
X51657Y-33606D01*
X51590Y-33540D01*
X51503Y-33503D01*
X51409Y-33503D01*
X51323Y-33539D01*
X51256Y-33606D01*
X51220Y-33692D01*
X51220Y-33725D01*
X51181Y-33765D01*
X51181Y-32610D01*
X51145Y-32523D01*
X51078Y-32457D01*
X50992Y-32421D01*
X50898Y-32421D01*
X50811Y-32457D01*
X50744Y-32523D01*
X50708Y-32610D01*
X50708Y-32704D01*
X50744Y-32791D01*
X50810Y-32857D01*
X50897Y-32893D01*
X50991Y-32893D01*
X51078Y-32857D01*
X51145Y-32791D01*
X51181Y-32704D01*
X51181Y-32610D01*
X51181Y-33765D01*
X50497Y-34448D01*
X48937Y-34448D01*
X48937Y-33598D01*
X48904Y-33519D01*
X48843Y-33458D01*
X48763Y-33425D01*
X48743Y-33425D01*
X48823Y-33392D01*
X48884Y-33331D01*
X48917Y-33251D01*
X48917Y-33165D01*
X48884Y-33086D01*
X48823Y-33025D01*
X48744Y-32992D01*
X48657Y-32992D01*
X48578Y-33024D01*
X48517Y-33085D01*
X48484Y-33165D01*
X48484Y-33239D01*
X48409Y-33208D01*
X48322Y-33208D01*
X48243Y-33241D01*
X48225Y-33259D01*
X48228Y-33251D01*
X48228Y-33165D01*
X48195Y-33086D01*
X48134Y-33025D01*
X48055Y-32992D01*
X48011Y-32992D01*
X48011Y-32256D01*
X47975Y-32169D01*
X47909Y-32103D01*
X47822Y-32066D01*
X47728Y-32066D01*
X47641Y-32102D01*
X47575Y-32169D01*
X47539Y-32255D01*
X47539Y-32349D01*
X47575Y-32436D01*
X47641Y-32503D01*
X47728Y-32539D01*
X47822Y-32539D01*
X47909Y-32503D01*
X47975Y-32437D01*
X48011Y-32350D01*
X48011Y-32256D01*
X48011Y-32992D01*
X47968Y-32992D01*
X47889Y-33024D01*
X47828Y-33085D01*
X47795Y-33165D01*
X47795Y-33251D01*
X47828Y-33331D01*
X47888Y-33392D01*
X47968Y-33425D01*
X48054Y-33425D01*
X48134Y-33392D01*
X48152Y-33374D01*
X48149Y-33381D01*
X48149Y-33468D01*
X48182Y-33547D01*
X48243Y-33608D01*
X48322Y-33641D01*
X48408Y-33641D01*
X48488Y-33608D01*
X48507Y-33589D01*
X48503Y-33598D01*
X48503Y-33684D01*
X48536Y-33764D01*
X48597Y-33825D01*
X48677Y-33858D01*
X48763Y-33858D01*
X48842Y-33825D01*
X48903Y-33764D01*
X48936Y-33684D01*
X48937Y-33598D01*
X48937Y-34448D01*
X48208Y-34448D01*
X48208Y-33618D01*
X48175Y-33538D01*
X48114Y-33477D01*
X48035Y-33444D01*
X47949Y-33444D01*
X47869Y-33477D01*
X47808Y-33538D01*
X47775Y-33618D01*
X47775Y-33704D01*
X47808Y-33783D01*
X47869Y-33844D01*
X47948Y-33877D01*
X48035Y-33877D01*
X48114Y-33845D01*
X48175Y-33784D01*
X48208Y-33704D01*
X48208Y-33618D01*
X48208Y-34448D01*
X46811Y-34448D01*
X46743Y-34462D01*
X46685Y-34500D01*
X45950Y-35236D01*
X45917Y-35236D01*
X45830Y-35272D01*
X45764Y-35338D01*
X45728Y-35425D01*
X45728Y-35519D01*
X45764Y-35606D01*
X45807Y-35649D01*
X45784Y-35673D01*
X45748Y-35759D01*
X45747Y-35853D01*
X45783Y-35940D01*
X45850Y-36007D01*
X45937Y-36043D01*
X46031Y-36043D01*
X46117Y-36007D01*
X46184Y-35941D01*
X46220Y-35854D01*
X46220Y-35821D01*
X47002Y-35039D01*
X50413Y-35039D01*
X50370Y-35082D01*
X50334Y-35169D01*
X50334Y-35263D01*
X50370Y-35350D01*
X50436Y-35416D01*
X50523Y-35452D01*
X50617Y-35452D01*
X50704Y-35416D01*
X50771Y-35350D01*
X50807Y-35263D01*
X50807Y-35169D01*
X50771Y-35082D01*
X50727Y-35039D01*
X50826Y-35039D01*
X50894Y-35025D01*
X50894Y-35025D01*
X50952Y-34987D01*
X51766Y-34173D01*
X51798Y-34173D01*
X51885Y-34137D01*
X51952Y-34070D01*
X51988Y-33984D01*
X51988Y-33890D01*
X51988Y-35385D01*
X51988Y-35418D01*
X51934Y-35472D01*
X48030Y-35472D01*
X48007Y-35449D01*
X47921Y-35413D01*
X47827Y-35413D01*
X47740Y-35449D01*
X47673Y-35515D01*
X47637Y-35602D01*
X47637Y-35696D01*
X47673Y-35783D01*
X47740Y-35849D01*
X47826Y-35885D01*
X47920Y-35885D01*
X48007Y-35849D01*
X48030Y-35826D01*
X52007Y-35826D01*
X52075Y-35813D01*
X52075Y-35813D01*
X52133Y-35774D01*
X52238Y-35669D01*
X52271Y-35669D01*
X52358Y-35633D01*
X52424Y-35567D01*
X52460Y-35480D01*
X52460Y-35386D01*
X52460Y-37251D01*
X52458Y-37245D01*
X52380Y-37168D01*
X52279Y-37126D01*
X52169Y-37125D01*
X52068Y-37167D01*
X51990Y-37245D01*
X51948Y-37346D01*
X51948Y-37456D01*
X51990Y-37557D01*
X52068Y-37635D01*
X52169Y-37677D01*
X52279Y-37677D01*
X52380Y-37635D01*
X52457Y-37557D01*
X52500Y-37456D01*
X52500Y-37346D01*
X52500Y-39251D01*
X51476Y-39251D01*
X51476Y-36905D01*
X51476Y-36354D01*
X51443Y-36275D01*
X51382Y-36214D01*
X51303Y-36181D01*
X51216Y-36181D01*
X51137Y-36213D01*
X51076Y-36274D01*
X51043Y-36354D01*
X51043Y-36354D01*
X51010Y-36275D01*
X50949Y-36214D01*
X50870Y-36181D01*
X50783Y-36181D01*
X50704Y-36213D01*
X50643Y-36274D01*
X50610Y-36354D01*
X50610Y-36354D01*
X50577Y-36275D01*
X50516Y-36214D01*
X50436Y-36181D01*
X50350Y-36181D01*
X50271Y-36213D01*
X50210Y-36274D01*
X50177Y-36354D01*
X50177Y-36440D01*
X50210Y-36520D01*
X50270Y-36581D01*
X50350Y-36614D01*
X50436Y-36614D01*
X50516Y-36581D01*
X50577Y-36520D01*
X50610Y-36440D01*
X50610Y-36354D01*
X50610Y-36440D01*
X50643Y-36520D01*
X50703Y-36581D01*
X50783Y-36614D01*
X50869Y-36614D01*
X50949Y-36581D01*
X51010Y-36520D01*
X51043Y-36440D01*
X51043Y-36354D01*
X51043Y-36440D01*
X51076Y-36520D01*
X51137Y-36581D01*
X51216Y-36614D01*
X51302Y-36614D01*
X51382Y-36581D01*
X51443Y-36520D01*
X51476Y-36440D01*
X51476Y-36354D01*
X51476Y-36905D01*
X51443Y-36826D01*
X51382Y-36765D01*
X51303Y-36732D01*
X51216Y-36732D01*
X51137Y-36765D01*
X51076Y-36826D01*
X51043Y-36905D01*
X51043Y-36905D01*
X51010Y-36826D01*
X50949Y-36765D01*
X50870Y-36732D01*
X50783Y-36732D01*
X50704Y-36765D01*
X50643Y-36826D01*
X50610Y-36905D01*
X50610Y-36905D01*
X50577Y-36826D01*
X50516Y-36765D01*
X50436Y-36732D01*
X50350Y-36732D01*
X50271Y-36765D01*
X50210Y-36826D01*
X50177Y-36905D01*
X50177Y-36991D01*
X50210Y-37071D01*
X50270Y-37132D01*
X50350Y-37165D01*
X50436Y-37165D01*
X50516Y-37132D01*
X50577Y-37071D01*
X50610Y-36992D01*
X50610Y-36905D01*
X50610Y-36991D01*
X50643Y-37071D01*
X50703Y-37132D01*
X50783Y-37165D01*
X50869Y-37165D01*
X50949Y-37132D01*
X51010Y-37071D01*
X51043Y-36992D01*
X51043Y-36905D01*
X51043Y-36991D01*
X51076Y-37071D01*
X51137Y-37132D01*
X51216Y-37165D01*
X51302Y-37165D01*
X51382Y-37132D01*
X51443Y-37071D01*
X51476Y-36992D01*
X51476Y-36905D01*
X51476Y-39251D01*
X51318Y-39251D01*
X51318Y-38142D01*
X51283Y-38055D01*
X51216Y-37988D01*
X51129Y-37952D01*
X51035Y-37952D01*
X50949Y-37988D01*
X50906Y-38031D01*
X50624Y-38031D01*
X50039Y-37446D01*
X50039Y-37066D01*
X50062Y-37043D01*
X50098Y-36956D01*
X50098Y-36862D01*
X50062Y-36775D01*
X49996Y-36709D01*
X49909Y-36673D01*
X49815Y-36673D01*
X49728Y-36709D01*
X49662Y-36775D01*
X49626Y-36862D01*
X49625Y-36956D01*
X49661Y-37043D01*
X49685Y-37066D01*
X49685Y-37519D01*
X49698Y-37587D01*
X49736Y-37644D01*
X50425Y-38333D01*
X50483Y-38372D01*
X50483Y-38372D01*
X50551Y-38385D01*
X50945Y-38385D01*
X50948Y-38389D01*
X51035Y-38425D01*
X51129Y-38425D01*
X51216Y-38389D01*
X51282Y-38322D01*
X51318Y-38236D01*
X51318Y-38142D01*
X51318Y-39251D01*
X45157Y-39251D01*
X45157Y-37571D01*
X45121Y-37484D01*
X45055Y-37417D01*
X44968Y-37381D01*
X44874Y-37381D01*
X44787Y-37417D01*
X44721Y-37484D01*
X44685Y-37570D01*
X44684Y-37664D01*
X44720Y-37751D01*
X44787Y-37818D01*
X44874Y-37854D01*
X44968Y-37854D01*
X45054Y-37818D01*
X45121Y-37752D01*
X45157Y-37665D01*
X45157Y-37571D01*
X45157Y-39251D01*
X42342Y-39251D01*
X42342Y-37039D01*
X42322Y-36992D01*
X42322Y-32315D01*
X42286Y-32228D01*
X42220Y-32162D01*
X42133Y-32126D01*
X42039Y-32125D01*
X41952Y-32161D01*
X41886Y-32228D01*
X41850Y-32315D01*
X41850Y-32408D01*
X41886Y-32495D01*
X41952Y-32562D01*
X42039Y-32598D01*
X42133Y-32598D01*
X42220Y-32562D01*
X42286Y-32496D01*
X42322Y-32409D01*
X42322Y-32315D01*
X42322Y-36992D01*
X42306Y-36952D01*
X42240Y-36886D01*
X42153Y-36850D01*
X42059Y-36850D01*
X41972Y-36886D01*
X41906Y-36952D01*
X41870Y-37039D01*
X41870Y-37133D01*
X41905Y-37220D01*
X41972Y-37286D01*
X42059Y-37322D01*
X42153Y-37322D01*
X42239Y-37286D01*
X42306Y-37220D01*
X42342Y-37133D01*
X42342Y-37039D01*
X42342Y-39251D01*
X40506Y-39251D01*
X40506Y-33517D01*
X40491Y-33303D01*
X40438Y-33176D01*
X40347Y-33147D01*
X40261Y-33233D01*
X40261Y-33062D01*
X40232Y-32970D01*
X40029Y-32903D01*
X39815Y-32918D01*
X39688Y-32970D01*
X39659Y-33062D01*
X39960Y-33363D01*
X40261Y-33062D01*
X40261Y-33233D01*
X40046Y-33448D01*
X40347Y-33749D01*
X40438Y-33721D01*
X40506Y-33517D01*
X40506Y-39251D01*
X40378Y-39251D01*
X40378Y-34366D01*
X40315Y-34212D01*
X40261Y-34158D01*
X40261Y-33835D01*
X39960Y-33534D01*
X39659Y-33835D01*
X39688Y-33926D01*
X39891Y-33994D01*
X40106Y-33979D01*
X40232Y-33926D01*
X40261Y-33835D01*
X40261Y-34158D01*
X40197Y-34094D01*
X40044Y-34030D01*
X39877Y-34030D01*
X39724Y-34094D01*
X39606Y-34211D01*
X39542Y-34365D01*
X39542Y-34531D01*
X39605Y-34685D01*
X39723Y-34803D01*
X39877Y-34866D01*
X40043Y-34867D01*
X40197Y-34803D01*
X40314Y-34685D01*
X40378Y-34532D01*
X40378Y-34366D01*
X40378Y-39251D01*
X40378Y-39251D01*
X40378Y-35725D01*
X40378Y-35125D01*
X40360Y-35082D01*
X40327Y-35048D01*
X40284Y-35030D01*
X40237Y-35030D01*
X39637Y-35030D01*
X39593Y-35048D01*
X39560Y-35081D01*
X39542Y-35125D01*
X39542Y-35172D01*
X39542Y-35772D01*
X39560Y-35815D01*
X39593Y-35848D01*
X39637Y-35866D01*
X39684Y-35866D01*
X40284Y-35866D01*
X40327Y-35849D01*
X40360Y-35815D01*
X40378Y-35772D01*
X40378Y-35725D01*
X40378Y-39251D01*
X39488Y-39251D01*
X39488Y-33722D01*
X39573Y-33749D01*
X39874Y-33448D01*
X39573Y-33147D01*
X39488Y-33174D01*
X39488Y-29645D01*
X53533Y-29645D01*
X53533Y-32066D01*
X53544Y-32123D01*
X53576Y-32171D01*
X53582Y-32175D01*
X53582Y-36722D01*
M02*
