<?xml version="1.0" standalone="no"?>
 <!DOCTYPE svg PUBLIC "-//W3C//DTD SVG 1.1//EN" 
 "http://www.w3.org/Graphics/SVG/1.1/DTD/svg11.dtd"> 
<svg xmlns="http://www.w3.org/2000/svg" version="1.1" 
    width="29.7002cm" height="21.0007cm" viewBox="0 0 116930 82680 ">
<title>SVG Picture created as nano-F_Paste.svg date 2013/06/16 07:49:47 </title>
  <desc>Picture generated by PCBNEW </desc>
<g style="fill:#000000; fill-opacity:1;stroke:#000000; stroke-opacity:1;
stroke-linecap:round; stroke-linejoin:round; "
 transform="translate(0 0) scale(1 1)">
</g>
<g style="fill:#000000; fill-opacity:0.0; 
stroke:#000000; stroke-width:59.0551; stroke-opacity:1; 
stroke-linecap:round; stroke-linejoin:round;">
<path d="M53681 32066
L53681 26988
" />
<path d="M59055 32066
L53681 32066
" />
<path d="M59055 22224
L53681 22224
" />
<path d="M59055 26988
L53681 26988
" />
<path d="M53681 36830
L53681 39370
" />
<path d="M53681 22224
L53681 19685
" />
<path d="M59055 36830
L53681 36830
" />
</g>
<g style="fill:#000000; fill-opacity:0.0; 
stroke:#000000; stroke-width:0; stroke-opacity:1; 
stroke-linecap:round; stroke-linejoin:round;">
<path d="M39370 19685
L53681 19685
" />
<path d="M59055 22224
L59055 26988
" />
<path d="M59055 32066
L59055 36830
" />
<path d="M53681 39370
L39370 39370
" />
<path d="M39370 39370
L39370 19685
" />
</g>
<g style="fill:#000000; fill-opacity:0.0; 
stroke:#000000; stroke-width:39.3701; stroke-opacity:1; 
stroke-linecap:round; stroke-linejoin:round;">
</g>
<g style="fill:#000000; fill-opacity:1.0; 
stroke:#000000; stroke-width:39.3701; stroke-opacity:1; 
stroke-linecap:round; stroke-linejoin:round;">
<polyline style="fill-rule:evenodd;"
points="49938,35984
49938,35433
50214,35433
50214,35984
49938,35984
" /> 
<polyline style="fill-rule:evenodd;"
points="49938,37952
49938,37401
50214,37401
50214,37952
49938,37952
" /> 
<polyline style="fill-rule:evenodd;"
points="50438,35984
50438,35433
50714,35433
50714,35984
50438,35984
" /> 
<polyline style="fill-rule:evenodd;"
points="50938,35984
50938,35433
51214,35433
51214,35984
50938,35984
" /> 
<polyline style="fill-rule:evenodd;"
points="51438,35984
51438,35433
51714,35433
51714,35984
51438,35984
" /> 
<polyline style="fill-rule:evenodd;"
points="50438,37952
50438,37401
50714,37401
50714,37952
50438,37952
" /> 
<polyline style="fill-rule:evenodd;"
points="50938,37952
50938,37401
51214,37401
51214,37952
50938,37952
" /> 
<polyline style="fill-rule:evenodd;"
points="51438,37952
51438,37401
51714,37401
51714,37952
51438,37952
" /> 
<polyline style="fill-rule:evenodd;"
points="50915,36594
50915,36240
51466,36240
51466,36594
50915,36594
" /> 
<polyline style="fill-rule:evenodd;"
points="50187,36594
50187,36240
50738,36240
50738,36594
50187,36594
" /> 
<polyline style="fill-rule:evenodd;"
points="50187,37135
50187,36781
50738,36781
50738,37135
50187,37135
" /> 
<polyline style="fill-rule:evenodd;"
points="50915,37135
50915,36781
51466,36781
51466,37135
50915,37135
" /> 
<polyline style="fill-rule:evenodd;"
points="46663,31860
46663,32155
46446,32155
46446,31860
46663,31860
" /> 
<polyline style="fill-rule:evenodd;"
points="47312,31860
47312,32155
47096,32155
47096,31860
47312,31860
" /> 
<polyline style="fill-rule:evenodd;"
points="46663,31250
46663,31545
46446,31545
46446,31250
46663,31250
" /> 
<polyline style="fill-rule:evenodd;"
points="47312,31250
47312,31545
47096,31545
47096,31250
47312,31250
" /> 
<polyline style="fill-rule:evenodd;"
points="49596,33445
49596,32985
49717,32985
49717,33445
49596,33445
" /> 
<polyline style="fill-rule:evenodd;"
points="49846,33445
49846,32985
49967,32985
49967,33445
49846,33445
" /> 
<polyline style="fill-rule:evenodd;"
points="50106,33445
50106,32985
50227,32985
50227,33445
50106,33445
" /> 
<polyline style="fill-rule:evenodd;"
points="50366,33445
50366,32985
50487,32985
50487,33445
50366,33445
" /> 
<polyline style="fill-rule:evenodd;"
points="50616,33445
50616,32985
50737,32985
50737,33445
50616,33445
" /> 
<polyline style="fill-rule:evenodd;"
points="50876,33445
50876,32985
50997,32985
50997,33445
50876,33445
" /> 
<polyline style="fill-rule:evenodd;"
points="51136,33445
51136,32985
51257,32985
51257,33445
51136,33445
" /> 
<polyline style="fill-rule:evenodd;"
points="51386,33445
51386,32985
51507,32985
51507,33445
51386,33445
" /> 
<polyline style="fill-rule:evenodd;"
points="51646,33445
51646,32985
51767,32985
51767,33445
51646,33445
" /> 
<polyline style="fill-rule:evenodd;"
points="51896,33445
51896,32985
52017,32985
52017,33445
51896,33445
" /> 
<polyline style="fill-rule:evenodd;"
points="51896,31345
51896,30885
52017,30885
52017,31345
51896,31345
" /> 
<polyline style="fill-rule:evenodd;"
points="51646,31345
51646,30885
51767,30885
51767,31345
51646,31345
" /> 
<polyline style="fill-rule:evenodd;"
points="51386,31345
51386,30885
51507,30885
51507,31345
51386,31345
" /> 
<polyline style="fill-rule:evenodd;"
points="51136,31345
51136,30885
51257,30885
51257,31345
51136,31345
" /> 
<polyline style="fill-rule:evenodd;"
points="50876,31345
50876,30885
50997,30885
50997,31345
50876,31345
" /> 
<polyline style="fill-rule:evenodd;"
points="50616,31345
50616,30885
50737,30885
50737,31345
50616,31345
" /> 
<polyline style="fill-rule:evenodd;"
points="50366,31345
50366,30885
50487,30885
50487,31345
50366,31345
" /> 
<polyline style="fill-rule:evenodd;"
points="50106,31345
50106,30885
50227,30885
50227,31345
50106,31345
" /> 
<polyline style="fill-rule:evenodd;"
points="49846,31345
49846,30885
49967,30885
49967,31345
49846,31345
" /> 
<polyline style="fill-rule:evenodd;"
points="49596,31345
49596,30885
49717,30885
49717,31345
49596,31345
" /> 
<polyline style="fill-rule:evenodd;"
points="50355,38798
50355,38445
50748,38445
50748,38798
50355,38798
" /> 
<polyline style="fill-rule:evenodd;"
points="51023,38798
51023,38445
51416,38445
51416,38798
51023,38798
" /> 
<polyline style="fill-rule:evenodd;"
points="49212,35433
49566,35433
49566,35827
49212,35827
49212,35433
" /> 
<polyline style="fill-rule:evenodd;"
points="49212,36101
49566,36101
49566,36495
49212,36495
49212,36101
" /> 
<polyline style="fill-rule:evenodd;"
points="49232,36713
49586,36713
49586,37106
49232,37106
49232,36713
" /> 
<polyline style="fill-rule:evenodd;"
points="49232,37381
49586,37381
49586,37774
49232,37774
49232,37381
" /> 
<polyline style="fill-rule:evenodd;"
points="51200,35176
50846,35176
50846,34782
51200,34782
51200,35176
" /> 
<polyline style="fill-rule:evenodd;"
points="51200,34508
50846,34508
50846,34114
51200,34114
51200,34508
" /> 
<polyline style="fill-rule:evenodd;"
points="48739,35728
48739,36082
48345,36082
48345,35728
48739,35728
" /> 
<polyline style="fill-rule:evenodd;"
points="48071,35728
48071,36082
47677,36082
47677,35728
48071,35728
" /> 
<polyline style="fill-rule:evenodd;"
points="52400,34783
52400,35177
52046,35177
52046,34783
52400,34783
" /> 
<polyline style="fill-rule:evenodd;"
points="51732,34783
51732,35177
51378,35177
51378,34783
51732,34783
" /> 
<polyline style="fill-rule:evenodd;"
points="52400,34192
52400,34586
52046,34586
52046,34192
52400,34192
" /> 
<polyline style="fill-rule:evenodd;"
points="51732,34192
51732,34586
51378,34586
51378,34192
51732,34192
" /> 
<polyline style="fill-rule:evenodd;"
points="49646,34507
49646,34114
50000,34114
50000,34507
49646,34507
" /> 
<polyline style="fill-rule:evenodd;"
points="50314,34507
50314,34114
50668,34114
50668,34507
50314,34507
" /> 
<polyline style="fill-rule:evenodd;"
points="51593,30137
51593,30531
51239,30531
51239,30137
51593,30137
" /> 
<polyline style="fill-rule:evenodd;"
points="50925,30137
50925,30531
50571,30531
50571,30137
50925,30137
" /> 
<polyline style="fill-rule:evenodd;"
points="51772,30531
51772,30137
52126,30137
52126,30531
51772,30531
" /> 
<polyline style="fill-rule:evenodd;"
points="52440,30531
52440,30137
52794,30137
52794,30531
52440,30531
" /> 
<polyline style="fill-rule:evenodd;"
points="48818,38425
48818,38936
48346,38936
48346,38425
48818,38425
" /> 
<polyline style="fill-rule:evenodd;"
points="49960,38425
49960,38936
49488,38936
49488,38425
49960,38425
" /> 
<polyline style="fill-rule:evenodd;"
points="48739,35197
48739,35550
48345,35550
48345,35197
48739,35197
" /> 
<polyline style="fill-rule:evenodd;"
points="48071,35197
48071,35550
47677,35550
47677,35197
48071,35197
" /> 
<polyline style="fill-rule:evenodd;"
points="47618,31320
47932,31320
47932,31555
47618,31555
47618,31320
" /> 
<polyline style="fill-rule:evenodd;"
points="47618,31830
47932,31830
47932,32065
47618,32065
47618,31830
" /> 
<polyline style="fill-rule:evenodd;"
points="49528,30531
49528,30216
49764,30216
49764,30531
49528,30531
" /> 
<polyline style="fill-rule:evenodd;"
points="50038,30531
50038,30216
50274,30216
50274,30531
50038,30531
" /> 
<polyline style="fill-rule:evenodd;"
points="48405,37814
48405,36437
48956,36437
48956,37814
48405,37814
" /> 
<polyline style="fill-rule:evenodd;"
points="47421,37814
47421,36437
47972,36437
47972,37814
47421,37814
" /> 
<polyline style="fill-rule:evenodd;"
points="53267,35983
52913,35983
52913,35589
53267,35589
53267,35983
" /> 
<polyline style="fill-rule:evenodd;"
points="53267,35315
52913,35315
52913,34921
53267,34921
53267,35315
" /> 
<polyline style="fill-rule:evenodd;"
points="52047,37559
52401,37559
52401,37953
52047,37953
52047,37559
" /> 
<polyline style="fill-rule:evenodd;"
points="52047,38227
52401,38227
52401,38621
52047,38621
52047,38227
" /> 
<polyline style="fill-rule:evenodd;"
points="52913,36574
53267,36574
53267,36850
52913,36850
52913,36574
" /> 
<polyline style="fill-rule:evenodd;"
points="52047,36949
52401,36949
52401,37225
52047,37225
52047,36949
" /> 
<polyline style="fill-rule:evenodd;"
points="52047,36199
52401,36199
52401,36475
52047,36475
52047,36199
" /> 
<polyline style="fill-rule:evenodd;"
points="47677,34901
47677,34547
48071,34547
48071,34901
47677,34901
" /> 
<polyline style="fill-rule:evenodd;"
points="48345,34901
48345,34547
48739,34547
48739,34901
48345,34901
" /> 
<polyline style="fill-rule:evenodd;"
points="42303,36969
42617,36969
42617,37205
42303,37205
42303,36969
" /> 
<polyline style="fill-rule:evenodd;"
points="42303,37479
42617,37479
42617,37715
42303,37715
42303,37479
" /> 
<polyline style="fill-rule:evenodd;"
points="42342,32341
42027,32341
42027,32105
42342,32105
42342,32341
" /> 
<polyline style="fill-rule:evenodd;"
points="42342,31831
42027,31831
42027,31595
42342,31595
42342,31831
" /> 
<polyline style="fill-rule:evenodd;"
points="43918,37283
43918,36968
44154,36968
44154,37283
43918,37283
" /> 
<polyline style="fill-rule:evenodd;"
points="44428,37283
44428,36968
44664,36968
44664,37283
44428,37283
" /> 
<polyline style="fill-rule:evenodd;"
points="45589,36968
45589,37283
45353,37283
45353,36968
45589,36968
" /> 
<polyline style="fill-rule:evenodd;"
points="45079,36968
45079,37283
44843,37283
44843,36968
45079,36968
" /> 
<polyline style="fill-rule:evenodd;"
points="45926,35137
45926,34823
46162,34823
46162,35137
45926,35137
" /> 
<polyline style="fill-rule:evenodd;"
points="46436,35137
46436,34823
46672,34823
46672,35137
46436,35137
" /> 
<polyline style="fill-rule:evenodd;"
points="41435,34941
41435,35255
41200,35255
41200,34941
41435,34941
" /> 
<polyline style="fill-rule:evenodd;"
points="40925,34941
40925,35255
40690,35255
40690,34941
40925,34941
" /> 
<polyline style="fill-rule:evenodd;"
points="45906,34054
45906,33740
46142,33740
46142,34054
45906,34054
" /> 
<polyline style="fill-rule:evenodd;"
points="46416,34054
46416,33740
46652,33740
46652,34054
46416,34054
" /> 
<polyline style="fill-rule:evenodd;"
points="42834,32341
42519,32341
42519,32105
42834,32105
42834,32341
" /> 
<polyline style="fill-rule:evenodd;"
points="42834,31831
42519,31831
42519,31595
42834,31595
42834,31831
" /> 
<polyline style="fill-rule:evenodd;"
points="44901,32479
44586,32479
44586,32243
44901,32243
44901,32479
" /> 
<polyline style="fill-rule:evenodd;"
points="44901,31969
44586,31969
44586,31733
44901,31733
44901,31969
" /> 
<polyline style="fill-rule:evenodd;"
points="42795,36969
43110,36969
43110,37205
42795,37205
42795,36969
" /> 
<polyline style="fill-rule:evenodd;"
points="42795,37479
43110,37479
43110,37715
42795,37715
42795,37479
" /> 
<polyline style="fill-rule:evenodd;"
points="41435,33681
41435,33995
41200,33995
41200,33681
41435,33681
" /> 
<polyline style="fill-rule:evenodd;"
points="40925,33681
40925,33995
40690,33995
40690,33681
40925,33681
" /> 
<polyline style="fill-rule:evenodd;"
points="47027,32715
47618,32715
47618,32952
47027,32952
47027,32715
" /> 
<polyline style="fill-rule:evenodd;"
points="47027,33306
47814,33306
47814,33543
47027,33543
47027,33306
" /> 
<polyline style="fill-rule:evenodd;"
points="47027,33897
47618,33897
47618,34134
47027,34134
47027,33897
" /> 
<polyline style="fill-rule:evenodd;"
points="47844,33051
48887,33051
48887,33799
47844,33799
47844,33051
" /> 
<polyline style="fill-rule:evenodd;"
points="44664,37460
44664,37775
44428,37775
44428,37460
44664,37460
" /> 
<polyline style="fill-rule:evenodd;"
points="44154,37460
44154,37775
43918,37775
43918,37460
44154,37460
" /> 
<polyline style="fill-rule:evenodd;"
points="46870,34312
47184,34312
47184,34547
46870,34547
46870,34312
" /> 
<polyline style="fill-rule:evenodd;"
points="46870,34822
47184,34822
47184,35057
46870,35057
46870,34822
" /> 
<polyline style="fill-rule:evenodd;"
points="44595,36032
44674,36032
44674,36189
44595,36189
44595,36032
" /> 
<polyline style="fill-rule:evenodd;"
points="44398,36032
44477,36032
44477,36189
44398,36189
44398,36032
" /> 
<polyline style="fill-rule:evenodd;"
points="44201,36032
44280,36032
44280,36189
44201,36189
44201,36032
" /> 
<polyline style="fill-rule:evenodd;"
points="44005,36032
44084,36032
44084,36189
44005,36189
44005,36032
" /> 
<polyline style="fill-rule:evenodd;"
points="43808,36032
43887,36032
43887,36189
43808,36189
43808,36032
" /> 
<polyline style="fill-rule:evenodd;"
points="43611,36032
43690,36032
43690,36189
43611,36189
43611,36032
" /> 
<polyline style="fill-rule:evenodd;"
points="43415,36032
43494,36032
43494,36189
43415,36189
43415,36032
" /> 
<polyline style="fill-rule:evenodd;"
points="43218,36032
43297,36032
43297,36189
43218,36189
43218,36032
" /> 
<polyline style="fill-rule:evenodd;"
points="43021,36032
43100,36032
43100,36189
43021,36189
43021,36032
" /> 
<polyline style="fill-rule:evenodd;"
points="42825,36032
42904,36032
42904,36189
42825,36189
42825,36032
" /> 
<polyline style="fill-rule:evenodd;"
points="42628,36032
42707,36032
42707,36189
42628,36189
42628,36032
" /> 
<polyline style="fill-rule:evenodd;"
points="42431,36032
42510,36032
42510,36189
42431,36189
42431,36032
" /> 
<polyline style="fill-rule:evenodd;"
points="42254,35776
42254,35855
42097,35855
42097,35776
42254,35776
" /> 
<polyline style="fill-rule:evenodd;"
points="42254,35579
42254,35658
42097,35658
42097,35579
42254,35579
" /> 
<polyline style="fill-rule:evenodd;"
points="42254,35382
42254,35461
42097,35461
42097,35382
42254,35382
" /> 
<polyline style="fill-rule:evenodd;"
points="42254,35186
42254,35265
42097,35265
42097,35186
42254,35186
" /> 
<polyline style="fill-rule:evenodd;"
points="42254,34989
42254,35068
42097,35068
42097,34989
42254,34989
" /> 
<polyline style="fill-rule:evenodd;"
points="42254,34792
42254,34871
42097,34871
42097,34792
42254,34792
" /> 
<polyline style="fill-rule:evenodd;"
points="42254,34596
42254,34675
42097,34675
42097,34596
42254,34596
" /> 
<polyline style="fill-rule:evenodd;"
points="42254,34399
42254,34478
42097,34478
42097,34399
42254,34399
" /> 
<polyline style="fill-rule:evenodd;"
points="42254,34202
42254,34281
42097,34281
42097,34202
42254,34202
" /> 
<polyline style="fill-rule:evenodd;"
points="42254,34006
42254,34085
42097,34085
42097,34006
42254,34006
" /> 
<polyline style="fill-rule:evenodd;"
points="42254,33809
42254,33888
42097,33888
42097,33809
42254,33809
" /> 
<polyline style="fill-rule:evenodd;"
points="42254,33612
42254,33691
42097,33691
42097,33612
42254,33612
" /> 
<polyline style="fill-rule:evenodd;"
points="42510,33435
42431,33435
42431,33278
42510,33278
42510,33435
" /> 
<polyline style="fill-rule:evenodd;"
points="42707,33435
42628,33435
42628,33278
42707,33278
42707,33435
" /> 
<polyline style="fill-rule:evenodd;"
points="42904,33435
42825,33435
42825,33278
42904,33278
42904,33435
" /> 
<polyline style="fill-rule:evenodd;"
points="43100,33435
43021,33435
43021,33278
43100,33278
43100,33435
" /> 
<polyline style="fill-rule:evenodd;"
points="43297,33435
43218,33435
43218,33278
43297,33278
43297,33435
" /> 
<polyline style="fill-rule:evenodd;"
points="43494,33435
43415,33435
43415,33278
43494,33278
43494,33435
" /> 
<polyline style="fill-rule:evenodd;"
points="43690,33435
43611,33435
43611,33278
43690,33278
43690,33435
" /> 
<polyline style="fill-rule:evenodd;"
points="43887,33435
43808,33435
43808,33278
43887,33278
43887,33435
" /> 
<polyline style="fill-rule:evenodd;"
points="44084,33435
44005,33435
44005,33278
44084,33278
44084,33435
" /> 
<polyline style="fill-rule:evenodd;"
points="44280,33435
44201,33435
44201,33278
44280,33278
44280,33435
" /> 
<polyline style="fill-rule:evenodd;"
points="44477,33435
44398,33435
44398,33278
44477,33278
44477,33435
" /> 
<polyline style="fill-rule:evenodd;"
points="44674,33435
44595,33435
44595,33278
44674,33278
44674,33435
" /> 
<polyline style="fill-rule:evenodd;"
points="44851,33691
44851,33612
45008,33612
45008,33691
44851,33691
" /> 
<polyline style="fill-rule:evenodd;"
points="44851,33888
44851,33809
45008,33809
45008,33888
44851,33888
" /> 
<polyline style="fill-rule:evenodd;"
points="44851,34085
44851,34006
45008,34006
45008,34085
44851,34085
" /> 
<polyline style="fill-rule:evenodd;"
points="44851,34281
44851,34202
45008,34202
45008,34281
44851,34281
" /> 
<polyline style="fill-rule:evenodd;"
points="44851,34478
44851,34399
45008,34399
45008,34478
44851,34478
" /> 
<polyline style="fill-rule:evenodd;"
points="44851,34675
44851,34596
45008,34596
45008,34675
44851,34675
" /> 
<polyline style="fill-rule:evenodd;"
points="44851,34871
44851,34792
45008,34792
45008,34871
44851,34871
" /> 
<polyline style="fill-rule:evenodd;"
points="44851,35068
44851,34989
45008,34989
45008,35068
44851,35068
" /> 
<polyline style="fill-rule:evenodd;"
points="44851,35265
44851,35186
45008,35186
45008,35265
44851,35265
" /> 
<polyline style="fill-rule:evenodd;"
points="44851,35461
44851,35382
45008,35382
45008,35461
44851,35461
" /> 
<polyline style="fill-rule:evenodd;"
points="44851,35658
44851,35579
45008,35579
45008,35658
44851,35658
" /> 
<polyline style="fill-rule:evenodd;"
points="44851,35855
44851,35776
45008,35776
45008,35855
44851,35855
" /> 
<polyline style="fill-rule:evenodd;"
points="43986,33750
44537,33750
44537,34301
43986,34301
43986,33750
" /> 
<polyline style="fill-rule:evenodd;"
points="43986,34458
44537,34458
44537,35009
43986,35009
43986,34458
" /> 
<polyline style="fill-rule:evenodd;"
points="43986,35167
44537,35167
44537,35718
43986,35718
43986,35167
" /> 
<polyline style="fill-rule:evenodd;"
points="43277,33750
43828,33750
43828,34301
43277,34301
43277,33750
" /> 
<polyline style="fill-rule:evenodd;"
points="43277,34458
43828,34458
43828,35009
43277,35009
43277,34458
" /> 
<polyline style="fill-rule:evenodd;"
points="43277,35167
43828,35167
43828,35718
43277,35718
43277,35167
" /> 
<polyline style="fill-rule:evenodd;"
points="42568,33750
43120,33750
43120,34301
42568,34301
42568,33750
" /> 
<polyline style="fill-rule:evenodd;"
points="42568,34458
43120,34458
43120,35009
42568,35009
42568,34458
" /> 
<polyline style="fill-rule:evenodd;"
points="42568,35167
43120,35167
43120,35718
42568,35718
42568,35167
" /> 
<polyline style="fill-rule:evenodd;"
points="45227,32243
45227,31929
45463,31929
45463,32243
45227,32243
" /> 
<polyline style="fill-rule:evenodd;"
points="45737,32243
45737,31929
45973,31929
45973,32243
45737,32243
" /> 
<polyline style="fill-rule:evenodd;"
points="45937,30472
45582,30472
45582,30118
45937,30118
45937,30472
" /> 
<polyline style="fill-rule:evenodd;"
points="46937,30472
46582,30472
46582,30118
46937,30118
46937,30472
" /> 
<polyline style="fill-rule:evenodd;"
points="47937,30472
47582,30472
47582,30118
47937,30118
47937,30472
" /> 
<polyline style="fill-rule:evenodd;"
points="44937,30472
44582,30472
44582,30118
44937,30118
44937,30472
" /> 
<polyline style="fill-rule:evenodd;"
points="48937,30472
48582,30472
48582,30118
48937,30118
48937,30472
" /> 
<polyline style="fill-rule:evenodd;"
points="45169,31138
45169,31058
45329,31058
45329,31138
45169,31138
" /> 
<polyline style="fill-rule:evenodd;"
points="45169,31638
45169,31558
45329,31558
45329,31638
45169,31638
" /> 
<polyline style="fill-rule:evenodd;"
points="45969,31138
45969,31058
46129,31058
46129,31138
45969,31138
" /> 
<polyline style="fill-rule:evenodd;"
points="45169,31388
45169,31308
45329,31308
45329,31388
45169,31388
" /> 
<polyline style="fill-rule:evenodd;"
points="45969,31638
45969,31558
46129,31558
46129,31638
45969,31638
" /> 
<polyline style="fill-rule:evenodd;"
points="43129,31221
43523,31221
43523,31575
43129,31575
43129,31221
" /> 
<polyline style="fill-rule:evenodd;"
points="43129,31889
43523,31889
43523,32243
43129,32243
43129,31889
" /> 
<polyline style="fill-rule:evenodd;"
points="43937,31044
44330,31044
44330,31397
43937,31397
43937,31044
" /> 
<polyline style="fill-rule:evenodd;"
points="43937,31712
44330,31712
44330,32065
43937,32065
43937,31712
" /> 
</g> 
</svg>
