G04 (created by PCBNEW (2013-mar-13)-testing) date Wed 15 May 2013 11:43:23 PM ICT*
%MOIN*%
G04 Gerber Fmt 3.4, Leading zero omitted, Abs format*
%FSLAX34Y34*%
G01*
G70*
G90*
G04 APERTURE LIST*
%ADD10C,0.00393701*%
%ADD11C,0.00787402*%
%ADD12C,0.005*%
%ADD13C,0.00590551*%
%ADD14C,0.006*%
%ADD15C,0.0065*%
%ADD16C,0.0031*%
G04 APERTURE END LIST*
G54D10*
G54D11*
X39566Y-29527D02*
X58858Y-29527D01*
G54D12*
X49776Y-37392D02*
X49776Y-37442D01*
X49776Y-37442D02*
X51876Y-37442D01*
X51876Y-35942D02*
X49776Y-35942D01*
X49776Y-35942D02*
X49776Y-37392D01*
X49776Y-36492D02*
X49976Y-36492D01*
X49976Y-36492D02*
X49976Y-36892D01*
X49976Y-36892D02*
X49776Y-36892D01*
X51876Y-35942D02*
X51876Y-37442D01*
G54D13*
X47372Y-31309D02*
X46387Y-31309D01*
X46387Y-31309D02*
X46387Y-32096D01*
X46387Y-32096D02*
X47372Y-32096D01*
X47372Y-32096D02*
X47372Y-31309D01*
G54D12*
X42176Y-33357D02*
X42176Y-36111D01*
X42176Y-36111D02*
X44930Y-36111D01*
X44930Y-36111D02*
X44930Y-33357D01*
X44930Y-33357D02*
X42176Y-33357D01*
X44733Y-35816D02*
G75*
G03X44733Y-35816I-98J0D01*
G74*
G01*
G54D14*
X40460Y-35948D02*
X39460Y-35948D01*
X39460Y-35948D02*
X39460Y-32948D01*
X39460Y-32948D02*
X40460Y-32948D01*
X40460Y-32948D02*
X40460Y-35948D01*
X39460Y-34948D02*
X40460Y-34948D01*
G54D15*
X52307Y-31465D02*
X49307Y-31465D01*
X49307Y-32865D02*
X52307Y-32865D01*
X52307Y-31465D02*
X52307Y-32865D01*
G54D14*
X49307Y-32865D02*
X49307Y-31465D01*
G54D12*
X49648Y-32665D02*
G75*
G03X49648Y-32665I-141J0D01*
G74*
G01*
X49307Y-31915D02*
X49607Y-31915D01*
X49607Y-31915D02*
X49607Y-32415D01*
X49607Y-32415D02*
X49307Y-32415D01*
X48759Y-39075D02*
X48759Y-38287D01*
X48562Y-39075D02*
X49744Y-39075D01*
X49744Y-39075D02*
X49744Y-38287D01*
X49744Y-38287D02*
X48562Y-38287D01*
X48562Y-38287D02*
X48562Y-39075D01*
G54D13*
X48976Y-37913D02*
X48976Y-36338D01*
X48976Y-36338D02*
X47401Y-36338D01*
X47401Y-36338D02*
X47401Y-37913D01*
X47401Y-37913D02*
X48976Y-37913D01*
G54D16*
X52582Y-36249D02*
G75*
G03X52582Y-36249I-62J0D01*
G74*
G01*
X52857Y-37212D02*
X52457Y-37212D01*
X52857Y-36187D02*
X52457Y-36187D01*
X52457Y-37212D02*
X52457Y-36187D01*
X52857Y-36187D02*
X52857Y-37212D01*
G54D12*
X47085Y-33915D02*
X47085Y-34115D01*
X47085Y-34115D02*
X47555Y-34115D01*
X47085Y-33915D02*
X47555Y-33915D01*
X47085Y-33325D02*
X47555Y-33325D01*
X47085Y-33525D02*
X47555Y-33525D01*
X47085Y-33325D02*
X47085Y-33525D01*
X47085Y-32735D02*
X47085Y-32935D01*
X47085Y-32935D02*
X47555Y-32935D01*
X47085Y-32735D02*
X47555Y-32735D01*
X48780Y-33070D02*
X48780Y-33780D01*
X48780Y-33780D02*
X48585Y-33780D01*
X48780Y-33070D02*
X48585Y-33070D01*
X47555Y-32520D02*
X48585Y-32520D01*
X48585Y-32520D02*
X48585Y-34330D01*
X48585Y-34330D02*
X47555Y-34330D01*
X47555Y-34330D02*
X47555Y-32520D01*
M02*
