<?xml version="1.0" standalone="no"?>
 <!DOCTYPE svg PUBLIC "-//W3C//DTD SVG 1.1//EN" 
 "http://www.w3.org/Graphics/SVG/1.1/DTD/svg11.dtd"> 
<svg xmlns="http://www.w3.org/2000/svg" version="1.1" 
    width="29.7002cm" height="21.0007cm" viewBox="0 0 116930 82680 ">
<title>SVG Picture created as nano-B_Cu.svg date 2013/06/16 07:49:47 </title>
  <desc>Picture generated by PCBNEW </desc>
<g style="fill:#000000; fill-opacity:1;stroke:#000000; stroke-opacity:1;
stroke-linecap:round; stroke-linejoin:round; "
 transform="translate(0 0) scale(1 1)">
</g>
<g style="fill:#000000; fill-opacity:0.0; 
stroke:#000000; stroke-width:59.0551; stroke-opacity:1; 
stroke-linecap:round; stroke-linejoin:round;">
<path d="M53681 32066
L53681 26988
" />
<path d="M59055 32066
L53681 32066
" />
<path d="M59055 22224
L53681 22224
" />
<path d="M59055 26988
L53681 26988
" />
<path d="M53681 36830
L53681 39370
" />
<path d="M53681 22224
L53681 19685
" />
<path d="M59055 36830
L53681 36830
" />
</g>
<g style="fill:#000000; fill-opacity:0.0; 
stroke:#000000; stroke-width:0; stroke-opacity:1; 
stroke-linecap:round; stroke-linejoin:round;">
<path d="M39370 19685
L53681 19685
" />
<path d="M59055 22224
L59055 26988
" />
<path d="M59055 32066
L59055 36830
" />
<path d="M53681 39370
L39370 39370
" />
<path d="M39370 39370
L39370 19685
" />
</g>
<g style="fill:#000000; fill-opacity:0.0; 
stroke:#000000; stroke-width:39.3701; stroke-opacity:1; 
stroke-linecap:round; stroke-linejoin:round;">
</g>
<g style="fill:#000000; fill-opacity:1.0; 
stroke:#000000; stroke-width:39.3701; stroke-opacity:1; 
stroke-linecap:round; stroke-linejoin:round;">
<polyline style="fill-rule:evenodd;"
points="40240,35729
39680,35729
39680,35168
40240,35168
40240,35729
" /> 
<circle cx="39960.6" cy="34448.8" r="280.315" /> 
<circle cx="39960.6" cy="33448.8" r="280.315" /> 
<polyline style="fill-rule:evenodd;"
points="53799,35718
58759,35718
58759,36179
53799,36179
53799,35718
" /> 
<polyline style="fill-rule:evenodd;"
points="53799,32718
58759,32718
58759,33179
53799,33179
53799,32718
" /> 
<polyline style="fill-rule:evenodd;"
points="53814,33793
58500,33793
58500,34253
53814,34253
53814,33793
" /> 
<polyline style="fill-rule:evenodd;"
points="53814,34643
58500,34643
58500,35104
53814,35104
53814,34643
" /> 
<polyline style="fill-rule:evenodd;"
points="40137,37233
39783,37233
39783,36839
40137,36839
40137,37233
" /> 
<polyline style="fill-rule:evenodd;"
points="40137,36565
39783,36565
39783,36171
40137,36171
40137,36565
" /> 
<polyline style="fill-rule:evenodd;"
points="39833,31545
40186,31545
40186,31939
39833,31939
39833,31545
" /> 
<polyline style="fill-rule:evenodd;"
points="39833,32213
40186,32213
40186,32607
39833,32607
39833,32213
" /> 
<polyline style="fill-rule:evenodd;"
points="39753,37451
40147,37451
40147,37805
39753,37805
39753,37451
" /> 
<polyline style="fill-rule:evenodd;"
points="39753,38119
40147,38119
40147,38473
39753,38473
39753,38119
" /> 
<polyline style="fill-rule:evenodd;"
points="39832,30335
40226,30335
40226,30689
39832,30689
39832,30335
" /> 
<polyline style="fill-rule:evenodd;"
points="39832,31003
40226,31003
40226,31357
39832,31357
39832,31003
" /> 
<circle cx="46594.5" cy="32273.6" r="98.4252" /> 
<circle cx="46151.6" cy="33454.7" r="98.4252" /> 
<circle cx="49645.7" cy="32224.4" r="98.4252" /> 
<circle cx="47204.7" cy="30984.3" r="98.4252" /> 
<circle cx="52539.4" cy="33720.5" r="98.4252" /> 
<circle cx="53110.2" cy="34547.2" r="98.4252" /> 
<circle cx="45964.6" cy="35472.4" r="98.4252" /> 
<circle cx="51456.7" cy="33740.2" r="98.4252" /> 
<circle cx="45984.3" cy="35807.1" r="98.4252" /> 
<circle cx="51752" cy="33937" r="98.4252" /> 
<circle cx="49163.4" cy="30383.9" r="98.4252" /> 
<circle cx="50944.9" cy="31624" r="98.4252" /> 
<circle cx="47765.7" cy="30689" r="98.4252" /> 
<circle cx="50600.4" cy="31594.5" r="98.4252" /> 
<circle cx="40413.4" cy="30521.7" r="98.4252" /> 
<circle cx="49734.3" cy="33769.7" r="98.4252" /> 
<circle cx="50305.1" cy="33710.6" r="98.4252" /> 
<circle cx="44753.9" cy="30738.2" r="98.4252" /> 
<circle cx="50944.9" cy="32657.5" r="98.4252" /> 
<circle cx="50570.9" cy="35216.5" r="98.4252" /> 
<circle cx="51948.8" cy="32637.8" r="98.4252" /> 
<circle cx="45856.3" cy="32431.1" r="98.4252" /> 
<circle cx="45472.4" cy="31348.4" r="98.4252" /> 
<circle cx="51712.6" cy="31633.9" r="98.4252" /> 
<circle cx="44025.6" cy="32155.5" r="98.4252" /> 
<circle cx="45482.3" cy="31013.8" r="98.4252" /> 
<circle cx="43651.6" cy="32076.8" r="98.4252" /> 
<circle cx="51957.1" cy="30689" r="98.4252" /> 
<circle cx="51447.1" cy="30689" r="98.4252" /> 
<circle cx="52224.4" cy="35433.1" r="98.4252" /> 
<circle cx="47874" cy="35649.6" r="98.4252" /> 
<circle cx="48720.5" cy="33641.7" r="78.7402" /> 
<circle cx="47992.1" cy="33661.4" r="78.7402" /> 
<circle cx="48700.8" cy="33208.7" r="78.7402" /> 
<circle cx="48011.8" cy="33208.7" r="78.7402" /> 
<circle cx="48365.9" cy="33425.2" r="78.7402" /> 
<circle cx="53149.6" cy="36279.5" r="137.795" /> 
<circle cx="46555.1" cy="31063" r="98.4252" /> 
<circle cx="44744.1" cy="31496.1" r="98.4252" /> 
<circle cx="43976.4" cy="34744.1" r="78.7402" /> 
<circle cx="44409.4" cy="34744.1" r="78.7402" /> 
<circle cx="44409.4" cy="34311" r="78.7402" /> 
<circle cx="44409.4" cy="33878" r="78.7402" /> 
<circle cx="43976.4" cy="33878" r="78.7402" /> 
<circle cx="43976.4" cy="34311" r="78.7402" /> 
<circle cx="43543.3" cy="34744.1" r="78.7402" /> 
<circle cx="43533.5" cy="34734.3" r="78.7402" /> 
<circle cx="43966.5" cy="35167.3" r="78.7402" /> 
<circle cx="44399.6" cy="35167.3" r="78.7402" /> 
<circle cx="44399.6" cy="35600.4" r="78.7402" /> 
<circle cx="43966.5" cy="35600.4" r="78.7402" /> 
<circle cx="43533.5" cy="35600.4" r="78.7402" /> 
<circle cx="43533.5" cy="35167.3" r="78.7402" /> 
<circle cx="43110.2" cy="34744.1" r="78.7402" /> 
<circle cx="42677.2" cy="34744.1" r="78.7402" /> 
<circle cx="42677.2" cy="35177.2" r="78.7402" /> 
<circle cx="42677.2" cy="35610.2" r="78.7402" /> 
<circle cx="43110.2" cy="35610.2" r="78.7402" /> 
<circle cx="43110.2" cy="35177.2" r="78.7402" /> 
<circle cx="43543.3" cy="34744.1" r="78.7402" /> 
<circle cx="43543.3" cy="34744.1" r="78.7402" /> 
<circle cx="43110.2" cy="34311" r="78.7402" /> 
<circle cx="42677.2" cy="34311" r="78.7402" /> 
<circle cx="42677.2" cy="33878" r="78.7402" /> 
<circle cx="43110.2" cy="33878" r="78.7402" /> 
<circle cx="43543.3" cy="33878" r="78.7402" /> 
<circle cx="43543.3" cy="34311" r="78.7402" /> 
<circle cx="46378" cy="34685" r="98.4252" /> 
<circle cx="46535.4" cy="33503.9" r="98.4252" /> 
<circle cx="44763.8" cy="37126" r="98.4252" /> 
<circle cx="42696.9" cy="37597.5" r="98.4252" /> 
<circle cx="42440.9" cy="31713.5" r="98.4252" /> 
<circle cx="49370.1" cy="31122" r="98.4252" /> 
<circle cx="51259.8" cy="36397.6" r="78.7402" /> 
<circle cx="51259.8" cy="36948.8" r="78.7402" /> 
<circle cx="50826.8" cy="36948.8" r="78.7402" /> 
<circle cx="50393.7" cy="36948.8" r="78.7402" /> 
<circle cx="50393.7" cy="36397.6" r="78.7402" /> 
<circle cx="50826.8" cy="36397.6" r="78.7402" /> 
<circle cx="49862.2" cy="36909.4" r="98.4252" /> 
<circle cx="51082.7" cy="38189" r="98.4252" /> 
<circle cx="43769.7" cy="31221.1" r="98.4252" /> 
<circle cx="39921.3" cy="38690.9" r="98.4252" /> 
<circle cx="49389.8" cy="33208.7" r="98.4252" /> 
<circle cx="45866.1" cy="31259.8" r="98.4252" /> 
<circle cx="47775.6" cy="32303.1" r="98.4252" /> 
<circle cx="44921.3" cy="37618.1" r="98.4252" /> 
<circle cx="42106.3" cy="37086.6" r="98.4252" /> 
<circle cx="41811" cy="32224.4" r="98.4252" /> 
<circle cx="52618.1" cy="30807.1" r="98.4252" /> 
<circle cx="52224.5" cy="37401.6" r="137.795" /> 
</g>
<g style="fill:#000000; fill-opacity:1.0; 
stroke:#000000; stroke-width:118.11; stroke-opacity:1; 
stroke-linecap:round; stroke-linejoin:round;">
<path d="M42716 31851
L42716 31830
" />
<path d="M56145 34035
L56157 34023
" />
<path d="M52854 34035
L56145 34035
" />
<path d="M52539 33720
L52854 34035
" />
<path d="M56149 34881
L56157 34874
" />
<path d="M53444 34881
L56149 34881
" />
<path d="M53110 34547
L53444 34881
" />
</g>
<g style="fill:#000000; fill-opacity:1.0; 
stroke:#000000; stroke-width:314.961; stroke-opacity:1; 
stroke-linecap:round; stroke-linejoin:round;">
<path d="M56279 32948
L53429 32948
" />
<path d="M53425 32952
L53425 32972
" />
<path d="M53429 32948
L53425 32952
" />
</g>
<g style="fill:#000000; fill-opacity:1.0; 
stroke:#000000; stroke-width:118.11; stroke-opacity:1; 
stroke-linecap:round; stroke-linejoin:round;">
<path d="M40039 30512
L40404 30512
" />
<path d="M40404 30512
L40413 30521
" />
</g>
<g style="fill:#000000; fill-opacity:1.0; 
stroke:#000000; stroke-width:314.961; stroke-opacity:1; 
stroke-linecap:round; stroke-linejoin:round;">
<path d="M56279 35948
L53480 35948
" />
<path d="M53480 35948
L53149 36279
" />
</g>
<g style="fill:#000000; fill-opacity:1.0; 
stroke:#000000; stroke-width:118.11; stroke-opacity:1; 
stroke-linecap:round; stroke-linejoin:round;">
<path d="M43976 34744
L44409 34744
" />
<path d="M44409 34311
L44409 33877
" />
<path d="M43976 34311
L43976 33877
" />
<path d="M43966 35167
L44399 35167
" />
<path d="M43966 35600
L44399 35600
" />
<path d="M43533 35167
L43533 35600
" />
<path d="M43110 34744
L42677 34744
" />
<path d="M42677 35177
L42677 35610
" />
<path d="M43110 35177
L43110 35610
" />
<path d="M43110 34311
L42677 34311
" />
<path d="M43110 33877
L42677 33877
" />
<path d="M43543 34311
L43543 33877
" />
<path d="M42696 37597
L42696 37618
" />
<path d="M51259 36948
L51259 36397
" />
<path d="M50393 36948
L50826 36948
" />
<path d="M50826 36397
L50393 36397
" />
<path d="M40039 31180
L40039 31713
" />
<path d="M40039 31713
L40009 31742
" />
<path d="M39960 37036
L39960 37618
" />
<path d="M39960 37618
L39950 37628
" />
<path d="M39950 38296
L39950 38661
" />
<path d="M39950 38661
L39921 38690
" />
</g>
<g style="fill:#000000; fill-opacity:1.0; 
stroke:#000000; stroke-width:39.3701; stroke-opacity:1; 
stroke-linecap:round; stroke-linejoin:round;">
<polyline style="fill-rule:evenodd;"
points="53582,36722
53576,36726
53544,36774
53533,36830
53533,39251
52500,39251
52500,37346
52460,37251
52460,35386
52424,35299
52358,35232
52271,35196
52193,35196
52193,30642
52157,30555
52091,30488
52004,30452
51910,30452
51823,30488
51756,30554
51720,30641
51720,30735
51756,30822
51823,30889
51909,30925
52003,30925
52090,30889
52157,30822
52193,30736
52193,30642
52193,35196
52185,35196
52185,32591
52149,32504
52082,32437
51996,32401
51948,32401
51948,31587
51912,31500
51846,31433
51759,31397
51683,31397
51683,30642
51647,30555
51581,30488
51494,30452
51400,30452
51313,30488
51246,30554
51210,30641
51210,30735
51246,30822
51313,30889
51399,30925
51493,30925
51580,30889
51647,30822
51683,30736
51683,30642
51683,31397
51665,31397
51578,31433
51512,31499
51476,31586
51476,31680
51512,31767
51578,31833
51665,31870
51759,31870
51846,31834
51912,31767
51948,31681
51948,31587
51948,32401
51902,32401
51815,32437
51748,32503
51712,32590
51712,32684
51748,32771
51814,32837
51901,32873
51995,32874
52082,32838
52148,32771
52184,32684
52185,32591
52185,35196
52177,35196
52090,35232
52024,35299
51988,35385
51988,33890
51952,33803
51885,33736
51799,33700
51705,33700
51692,33705
51692,33693
51657,33606
51590,33540
51503,33503
51409,33503
51323,33539
51256,33606
51220,33692
51220,33786
51256,33873
51322,33940
51409,33976
51503,33976
51515,33971
51515,33983
51551,34070
51617,34137
51704,34173
51798,34173
51885,34137
51952,34070
51988,33984
51988,33890
51988,35385
51988,35479
52024,35566
52090,35633
52177,35669
52271,35669
52358,35633
52424,35567
52460,35480
52460,35386
52460,37251
52458,37245
52380,37168
52279,37126
52169,37125
52068,37167
51990,37245
51948,37346
51948,37456
51990,37557
52068,37635
52169,37677
52279,37677
52380,37635
52457,37557
52500,37456
52500,37346
52500,39251
51318,39251
51318,38142
51283,38055
51216,37988
51181,37974
51181,32610
51181,31577
51145,31490
51078,31423
50992,31387
50898,31387
50811,31423
50787,31447
50734,31394
50647,31358
50553,31358
50466,31394
50400,31460
50364,31547
50364,31641
50400,31728
50466,31794
50553,31830
50647,31830
50734,31794
50757,31771
50810,31824
50897,31860
50991,31860
51078,31824
51145,31757
51181,31671
51181,31577
51181,32610
51145,32523
51078,32457
50992,32421
50898,32421
50811,32457
50744,32523
50708,32610
50708,32704
50744,32791
50810,32857
50897,32893
50991,32893
51078,32857
51145,32791
51181,32704
51181,32610
51181,37974
51129,37952
51035,37952
50949,37988
50882,38054
50846,38141
50846,38235
50882,38322
50948,38389
51035,38425
51129,38425
51216,38389
51282,38322
51318,38236
51318,38142
51318,39251
50807,39251
50807,35169
50771,35082
50704,35016
50618,34980
50541,34980
50541,33663
50505,33576
50439,33510
50352,33474
50258,33474
50171,33510
50104,33576
50068,33663
50068,33757
50104,33844
50171,33910
50257,33946
50351,33946
50438,33911
50505,33844
50541,33757
50541,33663
50541,34980
50524,34980
50437,35016
50370,35082
50334,35169
50334,35263
50370,35350
50436,35416
50523,35452
50617,35452
50704,35416
50771,35350
50807,35263
50807,35169
50807,39251
50098,39251
50098,36862
50062,36775
49996,36709
49970,36698
49970,33722
49934,33636
49881,33583
49881,32177
49846,32090
49779,32024
49692,31988
49598,31988
49512,32024
49445,32090
49409,32177
49409,32271
49445,32358
49511,32424
49598,32460
49692,32460
49779,32424
49845,32358
49881,32271
49881,32177
49881,33583
49868,33569
49781,33533
49687,33533
49626,33558
49626,33161
49590,33075
49523,33008
49436,32972
49399,32972
49399,30337
49363,30250
49297,30183
49210,30147
49116,30147
49029,30183
48963,30249
48927,30336
48927,30430
48963,30517
49029,30583
49116,30620
49210,30620
49297,30584
49363,30517
49399,30431
49399,30337
49399,32972
49342,32972
49256,33008
49189,33074
49153,33161
49153,33255
49189,33342
49255,33408
49342,33444
49436,33444
49523,33409
49589,33342
49625,33255
49626,33161
49626,33558
49600,33569
49534,33635
49498,33722
49497,33816
49533,33903
49600,33969
49687,34005
49781,34005
49867,33970
49934,33903
49970,33816
49970,33722
49970,36698
49909,36673
49815,36673
49728,36709
49662,36775
49626,36862
49625,36956
49661,37043
49728,37109
49815,37145
49908,37145
49995,37109
50062,37043
50098,36956
50098,36862
50098,39251
48937,39251
48937,33598
48904,33519
48843,33458
48763,33425
48743,33425
48823,33392
48884,33331
48917,33251
48917,33165
48884,33086
48823,33025
48744,32992
48657,32992
48578,33024
48517,33085
48484,33165
48484,33239
48409,33208
48322,33208
48243,33241
48225,33259
48228,33251
48228,33165
48195,33086
48134,33025
48055,32992
48011,32992
48011,32256
48002,32232
48002,30642
47966,30555
47899,30488
47812,30452
47718,30452
47632,30488
47565,30554
47529,30641
47529,30735
47565,30822
47631,30889
47718,30925
47812,30925
47899,30889
47965,30822
48001,30736
48002,30642
48002,32232
47975,32169
47909,32103
47822,32066
47728,32066
47641,32102
47575,32169
47539,32255
47539,32349
47575,32436
47641,32503
47728,32539
47822,32539
47909,32503
47975,32437
48011,32350
48011,32256
48011,32992
47968,32992
47889,33024
47828,33085
47795,33165
47795,33251
47828,33331
47888,33392
47968,33425
48054,33425
48134,33392
48152,33374
48149,33381
48149,33468
48182,33547
48243,33608
48322,33641
48408,33641
48488,33608
48507,33589
48503,33598
48503,33684
48536,33764
48597,33825
48677,33858
48763,33858
48842,33825
48903,33764
48936,33684
48937,33598
48937,39251
48208,39251
48208,33618
48175,33538
48114,33477
48035,33444
47949,33444
47869,33477
47808,33538
47775,33618
47775,33704
47808,33783
47869,33844
47948,33877
48035,33877
48114,33845
48175,33784
48208,33704
48208,33618
48208,39251
48110,39251
48110,35602
48074,35515
48007,35449
47921,35413
47827,35413
47740,35449
47673,35515
47637,35602
47637,35696
47673,35783
47740,35849
47826,35885
47920,35885
48007,35849
48074,35783
48110,35696
48110,35602
48110,39251
47440,39251
47440,30937
47405,30850
47338,30784
47251,30748
47157,30747
47071,30783
47004,30850
46968,30937
46968,31031
47004,31117
47070,31184
47157,31220
47251,31220
47338,31184
47404,31118
47440,31031
47440,30937
47440,39251
46830,39251
46830,32226
46794,32139
46728,32073
46641,32037
46547,32037
46460,32073
46394,32139
46358,32226
46358,32320
46394,32407
46460,32473
46547,32509
46641,32509
46728,32473
46794,32407
46830,32320
46830,32226
46830,39251
46387,39251
46387,33407
46351,33321
46285,33254
46198,33218
46104,33218
46102,33219
46102,31213
46066,31126
46000,31059
45913,31023
45819,31023
45732,31059
45709,31082
45718,31060
45718,30966
45682,30880
45616,30813
45529,30777
45435,30777
45348,30813
45282,30879
45246,30966
45246,31060
45281,31147
45310,31176
45272,31214
45236,31301
45236,31395
45272,31482
45338,31548
45425,31584
45519,31584
45606,31548
45672,31482
45696,31424
45732,31459
45818,31496
45912,31496
45999,31460
46066,31393
46102,31307
46102,31213
46102,33219
46092,33223
46092,32384
46056,32297
45990,32230
45903,32194
45809,32194
45722,32230
45656,32297
45620,32383
45620,32477
45655,32564
45722,32631
45809,32667
45903,32667
45989,32631
46056,32565
46092,32478
46092,32384
46092,33223
46017,33254
45951,33320
45915,33407
45915,33501
45951,33588
46017,33654
46104,33690
46198,33690
46285,33655
46351,33588
46387,33501
46387,33407
46387,39251
46220,39251
46220,35760
46184,35673
46141,35629
46164,35606
46200,35519
46200,35425
46164,35338
46098,35272
46011,35236
45917,35236
45830,35272
45764,35338
45728,35425
45728,35519
45764,35606
45807,35649
45784,35673
45748,35759
45747,35853
45783,35940
45850,36007
45937,36043
46031,36043
46117,36007
46184,35941
46220,35854
46220,35760
46220,39251
45157,39251
45157,37571
45121,37484
45055,37417
44990,37390
44990,30691
44954,30604
44887,30538
44801,30502
44707,30501
44620,30537
44553,30604
44517,30690
44517,30784
44553,30871
44619,30938
44706,30974
44800,30974
44887,30938
44954,30872
44990,30785
44990,30691
44990,37390
44968,37381
44874,37381
44787,37417
44721,37484
44685,37570
44684,37664
44720,37751
44787,37818
44874,37854
44968,37854
45054,37818
45121,37752
45157,37665
45157,37571
45157,39251
44261,39251
44261,32108
44225,32021
44159,31955
44072,31919
44005,31919
44005,31174
43970,31087
43903,31020
43816,30984
43722,30984
43636,31020
43569,31087
43533,31173
43533,31267
43569,31354
43635,31421
43722,31457
43816,31457
43903,31421
43969,31355
44005,31268
44005,31174
44005,31919
43978,31919
43891,31955
43867,31979
43851,31943
43785,31876
43698,31840
43604,31840
43517,31876
43451,31942
43415,32029
43415,32123
43451,32210
43517,32276
43604,32312
43698,32313
43785,32277
43810,32252
43825,32289
43891,32355
43978,32391
44072,32391
44159,32355
44225,32289
44261,32202
44261,32108
44261,39251
42893,39251
42893,31851
42893,31830
42880,31762
42841,31705
42784,31667
42716,31653
42648,31667
42591,31705
42552,31762
42539,31830
42539,31851
42552,31919
42591,31976
42648,32014
42716,32028
42784,32014
42841,31976
42880,31919
42893,31851
42893,39251
42342,39251
42342,37039
42306,36952
42240,36886
42153,36850
42059,36850
42047,36855
42047,32177
42011,32090
41945,32024
41858,31988
41764,31988
41677,32024
41610,32090
41574,32177
41574,32271
41610,32358
41677,32424
41763,32460
41857,32460
41944,32424
42011,32358
42047,32271
42047,32177
42047,36855
41972,36886
41906,36952
41870,37039
41870,37133
41905,37220
41972,37286
42059,37322
42153,37322
42239,37286
42306,37220
42342,37133
42342,37039
42342,39251
40649,39251
40649,30474
40613,30388
40547,30321
40460,30285
40366,30285
40361,30287
40346,30249
40313,30215
40269,30197
40222,30197
39789,30197
39746,30215
39712,30248
39694,30292
39694,30339
39694,30732
39712,30775
39746,30809
39789,30827
39836,30827
40269,30827
40312,30809
40346,30775
40355,30753
40366,30757
40460,30757
40547,30722
40613,30655
40649,30568
40649,30474
40649,39251
40506,39251
40506,33517
40491,33303
40438,33176
40364,33153
40364,31353
40364,30960
40346,30917
40313,30883
40269,30865
40222,30865
39789,30865
39746,30883
39712,30916
39694,30960
39694,31007
39694,31400
39712,31443
39720,31451
39713,31459
39695,31502
39695,31549
39695,31982
39713,32026
39746,32059
39789,32077
39836,32077
40229,32077
40273,32059
40306,32026
40324,31982
40324,31935
40324,31502
40313,31476
40346,31443
40364,31400
40364,31353
40364,33153
40347,33147
40261,33233
40261,33062
40232,32970
40029,32903
39815,32918
39688,32970
39659,33062
39960,33363
40261,33062
40261,33233
40046,33448
40347,33749
40438,33721
40506,33517
40506,39251
40378,39251
40378,34366
40315,34212
40261,34158
40261,33835
39960,33534
39659,33835
39688,33926
39891,33994
40106,33979
40232,33926
40261,33835
40261,34158
40197,34094
40044,34030
39877,34030
39724,34094
39606,34211
39542,34365
39542,34531
39605,34685
39723,34803
39877,34866
40043,34867
40197,34803
40314,34685
40378,34532
40378,34366
40378,39251
40378,39251
40378,35725
40378,35125
40360,35082
40327,35048
40284,35030
40237,35030
39637,35030
39593,35048
39560,35081
39542,35125
39542,35172
39542,35772
39560,35815
39593,35848
39637,35866
39684,35866
40284,35866
40327,35849
40360,35815
40378,35772
40378,35725
40378,39251
40285,39251
40285,38469
40285,38076
40285,37801
40285,37408
40267,37365
40239,37337
40257,37320
40275,37276
40275,37229
40275,36796
40257,36753
40224,36720
40180,36702
40133,36702
39740,36702
39697,36720
39664,36753
39646,36796
39645,36843
39645,37276
39663,37320
39673,37329
39667,37331
39634,37365
39616,37408
39616,37455
39616,37848
39634,37891
39667,37925
39710,37943
39757,37943
40190,37943
40234,37925
40267,37892
40285,37848
40285,37801
40285,38076
40267,38033
40234,38000
40190,37982
40143,37981
39710,37981
39667,37999
39634,38033
39616,38076
39616,38123
39616,38516
39634,38559
39667,38593
39700,38606
39685,38643
39684,38737
39720,38824
39787,38891
39874,38927
39968,38927
40054,38891
40121,38824
40157,38738
40157,38644
40143,38611
40190,38611
40234,38593
40267,38560
40285,38516
40285,38469
40285,39251
39488,39251
39488,33722
39573,33749
39874,33448
39573,33147
39488,33174
39488,29645
53533,29645
53533,32066
53544,32123
53576,32171
53582,32175
53582,32673
53429,32673
53323,32694
53234,32753
53230,32757
53170,32847
53149,32952
53149,32972
53170,33077
53230,33167
53319,33227
53425,33248
53530,33227
53534,33224
53582,33224
53582,33858
52927,33858
52854,33784
52854,30760
52818,30673
52752,30606
52665,30570
52571,30570
52484,30606
52417,30673
52381,30759
52381,30853
52417,30940
52484,31007
52570,31043
52664,31043
52751,31007
52818,30941
52854,30854
52854,30760
52854,33784
52775,33706
52775,33673
52739,33586
52673,33520
52586,33484
52492,33484
52405,33520
52339,33586
52303,33673
52303,33767
52338,33854
52405,33920
52492,33956
52525,33956
52729,34160
52786,34199
52786,34199
52854,34212
53582,34212
53582,34704
53518,34704
53346,34532
53346,34500
53310,34413
53244,34347
53157,34311
53063,34310
52976,34346
52910,34413
52874,34500
52873,34594
52909,34680
52976,34747
53063,34783
53095,34783
53319,35007
53377,35045
53377,35045
53444,35059
53582,35059
53582,35673
53480,35673
53374,35694
53285,35753
53285,35753
52954,36084
52954,36084
52916,36123
52894,36174
52894,36174
52894,36174
52874,36224
52873,36334
52894,36384
52894,36384
52894,36384
52915,36435
52954,36474
52954,36474
52993,36513
53044,36534
53044,36534
53044,36534
53094,36555
53149,36555
53204,36555
53255,36534
53255,36534
53255,36534
53305,36513
53344,36474
53344,36474
53344,36474
53383,36435
53383,36435
53582,36236
53582,36722
" /> 
</g>
<g style="fill:#000000; fill-opacity:0.0; 
stroke:#000000; stroke-width:78.7402; stroke-opacity:1; 
stroke-linecap:round; stroke-linejoin:round;">
<polyline fill="none;"
points="53582,36722
53576,36726
53544,36774
53533,36830
53533,39251
52500,39251
52500,37346
52460,37251
52460,35386
52424,35299
52358,35232
52271,35196
52193,35196
52193,30642
52157,30555
52091,30488
52004,30452
51910,30452
51823,30488
51756,30554
51720,30641
51720,30735
51756,30822
51823,30889
51909,30925
52003,30925
52090,30889
52157,30822
52193,30736
52193,30642
52193,35196
52185,35196
52185,32591
52149,32504
52082,32437
51996,32401
51948,32401
51948,31587
51912,31500
51846,31433
51759,31397
51683,31397
51683,30642
51647,30555
51581,30488
51494,30452
51400,30452
51313,30488
51246,30554
51210,30641
51210,30735
51246,30822
51313,30889
51399,30925
51493,30925
51580,30889
51647,30822
51683,30736
51683,30642
51683,31397
51665,31397
51578,31433
51512,31499
51476,31586
51476,31680
51512,31767
51578,31833
51665,31870
51759,31870
51846,31834
51912,31767
51948,31681
51948,31587
51948,32401
51902,32401
51815,32437
51748,32503
51712,32590
51712,32684
51748,32771
51814,32837
51901,32873
51995,32874
52082,32838
52148,32771
52184,32684
52185,32591
52185,35196
52177,35196
52090,35232
52024,35299
51988,35385
51988,33890
51952,33803
51885,33736
51799,33700
51705,33700
51692,33705
51692,33693
51657,33606
51590,33540
51503,33503
51409,33503
51323,33539
51256,33606
51220,33692
51220,33786
51256,33873
51322,33940
51409,33976
51503,33976
51515,33971
51515,33983
51551,34070
51617,34137
51704,34173
51798,34173
51885,34137
51952,34070
51988,33984
51988,33890
51988,35385
51988,35479
52024,35566
52090,35633
52177,35669
52271,35669
52358,35633
52424,35567
52460,35480
52460,35386
52460,37251
52458,37245
52380,37168
52279,37126
52169,37125
52068,37167
51990,37245
51948,37346
51948,37456
51990,37557
52068,37635
52169,37677
52279,37677
52380,37635
52457,37557
52500,37456
52500,37346
52500,39251
51318,39251
51318,38142
51283,38055
51216,37988
51181,37974
51181,32610
51181,31577
51145,31490
51078,31423
50992,31387
50898,31387
50811,31423
50787,31447
50734,31394
50647,31358
50553,31358
50466,31394
50400,31460
50364,31547
50364,31641
50400,31728
50466,31794
50553,31830
50647,31830
50734,31794
50757,31771
50810,31824
50897,31860
50991,31860
51078,31824
51145,31757
51181,31671
51181,31577
51181,32610
51145,32523
51078,32457
50992,32421
50898,32421
50811,32457
50744,32523
50708,32610
50708,32704
50744,32791
50810,32857
50897,32893
50991,32893
51078,32857
51145,32791
51181,32704
51181,32610
51181,37974
51129,37952
51035,37952
50949,37988
50882,38054
50846,38141
50846,38235
50882,38322
50948,38389
51035,38425
51129,38425
51216,38389
51282,38322
51318,38236
51318,38142
51318,39251
50807,39251
50807,35169
50771,35082
50704,35016
50618,34980
50541,34980
50541,33663
50505,33576
50439,33510
50352,33474
50258,33474
50171,33510
50104,33576
50068,33663
50068,33757
50104,33844
50171,33910
50257,33946
50351,33946
50438,33911
50505,33844
50541,33757
50541,33663
50541,34980
50524,34980
50437,35016
50370,35082
50334,35169
50334,35263
50370,35350
50436,35416
50523,35452
50617,35452
50704,35416
50771,35350
50807,35263
50807,35169
50807,39251
50098,39251
50098,36862
50062,36775
49996,36709
49970,36698
49970,33722
49934,33636
49881,33583
49881,32177
49846,32090
49779,32024
49692,31988
49598,31988
49512,32024
49445,32090
49409,32177
49409,32271
49445,32358
49511,32424
49598,32460
49692,32460
49779,32424
49845,32358
49881,32271
49881,32177
49881,33583
49868,33569
49781,33533
49687,33533
49626,33558
49626,33161
49590,33075
49523,33008
49436,32972
49399,32972
49399,30337
49363,30250
49297,30183
49210,30147
49116,30147
49029,30183
48963,30249
48927,30336
48927,30430
48963,30517
49029,30583
49116,30620
49210,30620
49297,30584
49363,30517
49399,30431
49399,30337
49399,32972
49342,32972
49256,33008
49189,33074
49153,33161
49153,33255
49189,33342
49255,33408
49342,33444
49436,33444
49523,33409
49589,33342
49625,33255
49626,33161
49626,33558
49600,33569
49534,33635
49498,33722
49497,33816
49533,33903
49600,33969
49687,34005
49781,34005
49867,33970
49934,33903
49970,33816
49970,33722
49970,36698
49909,36673
49815,36673
49728,36709
49662,36775
49626,36862
49625,36956
49661,37043
49728,37109
49815,37145
49908,37145
49995,37109
50062,37043
50098,36956
50098,36862
50098,39251
48937,39251
48937,33598
48904,33519
48843,33458
48763,33425
48743,33425
48823,33392
48884,33331
48917,33251
48917,33165
48884,33086
48823,33025
48744,32992
48657,32992
48578,33024
48517,33085
48484,33165
48484,33239
48409,33208
48322,33208
48243,33241
48225,33259
48228,33251
48228,33165
48195,33086
48134,33025
48055,32992
48011,32992
48011,32256
48002,32232
48002,30642
47966,30555
47899,30488
47812,30452
47718,30452
47632,30488
47565,30554
47529,30641
47529,30735
47565,30822
47631,30889
47718,30925
47812,30925
47899,30889
47965,30822
48001,30736
48002,30642
48002,32232
47975,32169
47909,32103
47822,32066
47728,32066
47641,32102
47575,32169
47539,32255
47539,32349
47575,32436
47641,32503
47728,32539
47822,32539
47909,32503
47975,32437
48011,32350
48011,32256
48011,32992
47968,32992
47889,33024
47828,33085
47795,33165
47795,33251
47828,33331
47888,33392
47968,33425
48054,33425
48134,33392
48152,33374
48149,33381
48149,33468
48182,33547
48243,33608
48322,33641
48408,33641
48488,33608
48507,33589
48503,33598
48503,33684
48536,33764
48597,33825
48677,33858
48763,33858
48842,33825
48903,33764
48936,33684
48937,33598
48937,39251
48208,39251
48208,33618
48175,33538
48114,33477
48035,33444
47949,33444
47869,33477
47808,33538
47775,33618
47775,33704
47808,33783
47869,33844
47948,33877
48035,33877
48114,33845
48175,33784
48208,33704
48208,33618
48208,39251
48110,39251
48110,35602
48074,35515
48007,35449
47921,35413
47827,35413
47740,35449
47673,35515
47637,35602
47637,35696
47673,35783
47740,35849
47826,35885
47920,35885
48007,35849
48074,35783
48110,35696
48110,35602
48110,39251
47440,39251
47440,30937
47405,30850
47338,30784
47251,30748
47157,30747
47071,30783
47004,30850
46968,30937
46968,31031
47004,31117
47070,31184
47157,31220
47251,31220
47338,31184
47404,31118
47440,31031
47440,30937
47440,39251
46830,39251
46830,32226
46794,32139
46728,32073
46641,32037
46547,32037
46460,32073
46394,32139
46358,32226
46358,32320
46394,32407
46460,32473
46547,32509
46641,32509
46728,32473
46794,32407
46830,32320
46830,32226
46830,39251
46387,39251
46387,33407
46351,33321
46285,33254
46198,33218
46104,33218
46102,33219
46102,31213
46066,31126
46000,31059
45913,31023
45819,31023
45732,31059
45709,31082
45718,31060
45718,30966
45682,30880
45616,30813
45529,30777
45435,30777
45348,30813
45282,30879
45246,30966
45246,31060
45281,31147
45310,31176
45272,31214
45236,31301
45236,31395
45272,31482
45338,31548
45425,31584
45519,31584
45606,31548
45672,31482
45696,31424
45732,31459
45818,31496
45912,31496
45999,31460
46066,31393
46102,31307
46102,31213
46102,33219
46092,33223
46092,32384
46056,32297
45990,32230
45903,32194
45809,32194
45722,32230
45656,32297
45620,32383
45620,32477
45655,32564
45722,32631
45809,32667
45903,32667
45989,32631
46056,32565
46092,32478
46092,32384
46092,33223
46017,33254
45951,33320
45915,33407
45915,33501
45951,33588
46017,33654
46104,33690
46198,33690
46285,33655
46351,33588
46387,33501
46387,33407
46387,39251
46220,39251
46220,35760
46184,35673
46141,35629
46164,35606
46200,35519
46200,35425
46164,35338
46098,35272
46011,35236
45917,35236
45830,35272
45764,35338
45728,35425
45728,35519
45764,35606
45807,35649
45784,35673
45748,35759
45747,35853
45783,35940
45850,36007
45937,36043
46031,36043
46117,36007
46184,35941
46220,35854
46220,35760
46220,39251
45157,39251
45157,37571
45121,37484
45055,37417
44990,37390
44990,30691
44954,30604
44887,30538
44801,30502
44707,30501
44620,30537
44553,30604
44517,30690
44517,30784
44553,30871
44619,30938
44706,30974
44800,30974
44887,30938
44954,30872
44990,30785
44990,30691
44990,37390
44968,37381
44874,37381
44787,37417
44721,37484
44685,37570
44684,37664
44720,37751
44787,37818
44874,37854
44968,37854
45054,37818
45121,37752
45157,37665
45157,37571
45157,39251
44261,39251
44261,32108
44225,32021
44159,31955
44072,31919
44005,31919
44005,31174
43970,31087
43903,31020
43816,30984
43722,30984
43636,31020
43569,31087
43533,31173
43533,31267
43569,31354
43635,31421
43722,31457
43816,31457
43903,31421
43969,31355
44005,31268
44005,31174
44005,31919
43978,31919
43891,31955
43867,31979
43851,31943
43785,31876
43698,31840
43604,31840
43517,31876
43451,31942
43415,32029
43415,32123
43451,32210
43517,32276
43604,32312
43698,32313
43785,32277
43810,32252
43825,32289
43891,32355
43978,32391
44072,32391
44159,32355
44225,32289
44261,32202
44261,32108
44261,39251
42893,39251
42893,31851
42893,31830
42880,31762
42841,31705
42784,31667
42716,31653
42648,31667
42591,31705
42552,31762
42539,31830
42539,31851
42552,31919
42591,31976
42648,32014
42716,32028
42784,32014
42841,31976
42880,31919
42893,31851
42893,39251
42342,39251
42342,37039
42306,36952
42240,36886
42153,36850
42059,36850
42047,36855
42047,32177
42011,32090
41945,32024
41858,31988
41764,31988
41677,32024
41610,32090
41574,32177
41574,32271
41610,32358
41677,32424
41763,32460
41857,32460
41944,32424
42011,32358
42047,32271
42047,32177
42047,36855
41972,36886
41906,36952
41870,37039
41870,37133
41905,37220
41972,37286
42059,37322
42153,37322
42239,37286
42306,37220
42342,37133
42342,37039
42342,39251
40649,39251
40649,30474
40613,30388
40547,30321
40460,30285
40366,30285
40361,30287
40346,30249
40313,30215
40269,30197
40222,30197
39789,30197
39746,30215
39712,30248
39694,30292
39694,30339
39694,30732
39712,30775
39746,30809
39789,30827
39836,30827
40269,30827
40312,30809
40346,30775
40355,30753
40366,30757
40460,30757
40547,30722
40613,30655
40649,30568
40649,30474
40649,39251
40506,39251
40506,33517
40491,33303
40438,33176
40364,33153
40364,31353
40364,30960
40346,30917
40313,30883
40269,30865
40222,30865
39789,30865
39746,30883
39712,30916
39694,30960
39694,31007
39694,31400
39712,31443
39720,31451
39713,31459
39695,31502
39695,31549
39695,31982
39713,32026
39746,32059
39789,32077
39836,32077
40229,32077
40273,32059
40306,32026
40324,31982
40324,31935
40324,31502
40313,31476
40346,31443
40364,31400
40364,31353
40364,33153
40347,33147
40261,33233
40261,33062
40232,32970
40029,32903
39815,32918
39688,32970
39659,33062
39960,33363
40261,33062
40261,33233
40046,33448
40347,33749
40438,33721
40506,33517
40506,39251
40378,39251
40378,34366
40315,34212
40261,34158
40261,33835
39960,33534
39659,33835
39688,33926
39891,33994
40106,33979
40232,33926
40261,33835
40261,34158
40197,34094
40044,34030
39877,34030
39724,34094
39606,34211
39542,34365
39542,34531
39605,34685
39723,34803
39877,34866
40043,34867
40197,34803
40314,34685
40378,34532
40378,34366
40378,39251
40378,39251
40378,35725
40378,35125
40360,35082
40327,35048
40284,35030
40237,35030
39637,35030
39593,35048
39560,35081
39542,35125
39542,35172
39542,35772
39560,35815
39593,35848
39637,35866
39684,35866
40284,35866
40327,35849
40360,35815
40378,35772
40378,35725
40378,39251
40285,39251
40285,38469
40285,38076
40285,37801
40285,37408
40267,37365
40239,37337
40257,37320
40275,37276
40275,37229
40275,36796
40257,36753
40224,36720
40180,36702
40133,36702
39740,36702
39697,36720
39664,36753
39646,36796
39645,36843
39645,37276
39663,37320
39673,37329
39667,37331
39634,37365
39616,37408
39616,37455
39616,37848
39634,37891
39667,37925
39710,37943
39757,37943
40190,37943
40234,37925
40267,37892
40285,37848
40285,37801
40285,38076
40267,38033
40234,38000
40190,37982
40143,37981
39710,37981
39667,37999
39634,38033
39616,38076
39616,38123
39616,38516
39634,38559
39667,38593
39700,38606
39685,38643
39684,38737
39720,38824
39787,38891
39874,38927
39968,38927
40054,38891
40121,38824
40157,38738
40157,38644
40143,38611
40190,38611
40234,38593
40267,38560
40285,38516
40285,38469
40285,39251
39488,39251
39488,33722
39573,33749
39874,33448
39573,33147
39488,33174
39488,29645
53533,29645
53533,32066
53544,32123
53576,32171
53582,32175
53582,32673
53429,32673
53323,32694
53234,32753
53230,32757
53170,32847
53149,32952
53149,32972
53170,33077
53230,33167
53319,33227
53425,33248
53530,33227
53534,33224
53582,33224
53582,33858
52927,33858
52854,33784
52854,30760
52818,30673
52752,30606
52665,30570
52571,30570
52484,30606
52417,30673
52381,30759
52381,30853
52417,30940
52484,31007
52570,31043
52664,31043
52751,31007
52818,30941
52854,30854
52854,30760
52854,33784
52775,33706
52775,33673
52739,33586
52673,33520
52586,33484
52492,33484
52405,33520
52339,33586
52303,33673
52303,33767
52338,33854
52405,33920
52492,33956
52525,33956
52729,34160
52786,34199
52786,34199
52854,34212
53582,34212
53582,34704
53518,34704
53346,34532
53346,34500
53310,34413
53244,34347
53157,34311
53063,34310
52976,34346
52910,34413
52874,34500
52873,34594
52909,34680
52976,34747
53063,34783
53095,34783
53319,35007
53377,35045
53377,35045
53444,35059
53582,35059
53582,35673
53480,35673
53374,35694
53285,35753
53285,35753
52954,36084
52954,36084
52916,36123
52894,36174
52894,36174
52894,36174
52874,36224
52873,36334
52894,36384
52894,36384
52894,36384
52915,36435
52954,36474
52954,36474
52993,36513
53044,36534
53044,36534
53044,36534
53094,36555
53149,36555
53204,36555
53255,36534
53255,36534
53255,36534
53305,36513
53344,36474
53344,36474
53344,36474
53383,36435
53383,36435
53582,36236
53582,36722
" /> 
</g> 
</svg>
