G04 (created by PCBNEW (2013-mar-13)-testing) date Thu 25 Jul 2013 04:06:27 PM ICT*
%MOIN*%
G04 Gerber Fmt 3.4, Leading zero omitted, Abs format*
%FSLAX34Y34*%
G01*
G70*
G90*
G04 APERTURE LIST*
%ADD10C,0.00393701*%
%ADD11C,0.00590551*%
%ADD12C,0.11811*%
%ADD13C,0.023622*%
%ADD14C,0.019685*%
%ADD15C,0.0314961*%
%ADD16C,0.019685*%
%ADD17C,0.011811*%
%ADD18C,0.00787402*%
G04 APERTURE END LIST*
G54D10*
X39370Y-39370D02*
X39370Y-29527D01*
G54D11*
X53681Y-32066D02*
X53681Y-29527D01*
X59055Y-32066D02*
X53681Y-32066D01*
X53681Y-36830D02*
X53681Y-39370D01*
X59055Y-36830D02*
X53681Y-36830D01*
G54D10*
X59055Y-32066D02*
X59055Y-36830D01*
X53681Y-39370D02*
X39370Y-39370D01*
G54D12*
X51811Y-30511D03*
X41141Y-38385D03*
G54D13*
X47322Y-34016D03*
X46417Y-34527D03*
X46141Y-32047D03*
X45669Y-34055D03*
X47204Y-30984D03*
X49842Y-31259D03*
X53070Y-34035D03*
X52814Y-34291D03*
X45748Y-36338D03*
X49015Y-34881D03*
X45826Y-36692D03*
X49409Y-34881D03*
X45196Y-30472D03*
X51811Y-32362D03*
X46181Y-30472D03*
X51850Y-32007D03*
X41456Y-30531D03*
X50000Y-30393D03*
X41555Y-32362D03*
X48661Y-32047D03*
X49094Y-31692D03*
X50118Y-34803D03*
X46023Y-31692D03*
X48661Y-31653D03*
X49409Y-33346D03*
X50236Y-33385D03*
X46220Y-30984D03*
X50748Y-33720D03*
X49291Y-33622D03*
X42736Y-30708D03*
X44724Y-30984D03*
X40590Y-34448D03*
X41102Y-36200D03*
X50472Y-33582D03*
X51062Y-33622D03*
X40669Y-36732D03*
X39960Y-33858D03*
X51574Y-33267D03*
X46496Y-32874D03*
X47952Y-35629D03*
X52165Y-35826D03*
G54D14*
X48720Y-33641D03*
X47992Y-33661D03*
X48700Y-33208D03*
X48011Y-33208D03*
X48365Y-33425D03*
G54D15*
X53149Y-36279D03*
G54D13*
X52185Y-33346D03*
X44685Y-37549D03*
X40492Y-31417D03*
X41062Y-34448D03*
X39960Y-35452D03*
X42086Y-32125D03*
X50748Y-30275D03*
X52244Y-32637D03*
X46299Y-35314D03*
X43149Y-30039D03*
X44744Y-31496D03*
X46555Y-31062D03*
G54D14*
X43976Y-34744D03*
X44409Y-34744D03*
X44409Y-34311D03*
X44409Y-33877D03*
X43976Y-33877D03*
X43976Y-34311D03*
X43543Y-34744D03*
X43533Y-34734D03*
X43966Y-35167D03*
X44399Y-35167D03*
X44399Y-35600D03*
X43966Y-35600D03*
X43533Y-35600D03*
X43533Y-35167D03*
X43110Y-34744D03*
X42677Y-34744D03*
X42677Y-35177D03*
X42677Y-35610D03*
X43110Y-35610D03*
X43110Y-35177D03*
X43543Y-34744D03*
X43543Y-34744D03*
X43110Y-34311D03*
X42677Y-34311D03*
X42677Y-33877D03*
X43110Y-33877D03*
X43543Y-33877D03*
X43543Y-34311D03*
G54D13*
X46456Y-33740D03*
X42696Y-37597D03*
G54D14*
X51259Y-36397D03*
X51259Y-36948D03*
X50826Y-36948D03*
X50393Y-36948D03*
X50393Y-36397D03*
X50826Y-36397D03*
G54D13*
X47834Y-32007D03*
X39881Y-31122D03*
X39881Y-31791D03*
G54D15*
X49438Y-37923D03*
X51082Y-38149D03*
G54D13*
X45314Y-31692D03*
X43740Y-31811D03*
X47755Y-29881D03*
X40059Y-36515D03*
X42145Y-30905D03*
X42480Y-32637D03*
X50354Y-30275D03*
X44055Y-37795D03*
X45629Y-31771D03*
X43464Y-31614D03*
X42165Y-37125D03*
G54D15*
X52224Y-37401D03*
G54D16*
X47322Y-34016D02*
X47322Y-34015D01*
X47322Y-34015D02*
X46929Y-34015D01*
X46929Y-34015D02*
X46417Y-34527D01*
G54D17*
X49488Y-30984D02*
X49566Y-30984D01*
X49488Y-30984D02*
X47204Y-30984D01*
X49566Y-30984D02*
X49842Y-31259D01*
X46062Y-31338D02*
X45196Y-30472D01*
X49409Y-31338D02*
X46062Y-31338D01*
X50433Y-32362D02*
X49409Y-31338D01*
X50669Y-32362D02*
X50433Y-32362D01*
X51811Y-32362D02*
X50669Y-32362D01*
X46220Y-30511D02*
X46181Y-30472D01*
X49724Y-30511D02*
X46220Y-30511D01*
X51850Y-32007D02*
X51220Y-32007D01*
X51220Y-32007D02*
X49724Y-30511D01*
X41633Y-30433D02*
X41555Y-30433D01*
X50000Y-30393D02*
X49763Y-30157D01*
X49763Y-30157D02*
X43543Y-30157D01*
X43543Y-30157D02*
X43267Y-30433D01*
X43267Y-30433D02*
X41633Y-30433D01*
X41555Y-30433D02*
X41456Y-30531D01*
X48346Y-32362D02*
X41712Y-32362D01*
X41712Y-32362D02*
X41555Y-32362D01*
X48661Y-32047D02*
X48346Y-32362D01*
X46023Y-31692D02*
X46062Y-31653D01*
X46062Y-31653D02*
X48661Y-31653D01*
X49409Y-33346D02*
X49448Y-33385D01*
X49448Y-33385D02*
X50236Y-33385D01*
X49330Y-33661D02*
X49527Y-33858D01*
X49527Y-33858D02*
X50590Y-33858D01*
X50590Y-33858D02*
X50748Y-33720D01*
X49291Y-33622D02*
X49330Y-33661D01*
X42913Y-30866D02*
X42736Y-30708D01*
X43070Y-30984D02*
X42913Y-30866D01*
X44724Y-30984D02*
X43070Y-30984D01*
X51220Y-32913D02*
X51574Y-33267D01*
X46535Y-32913D02*
X51220Y-32913D01*
X46496Y-32874D02*
X46535Y-32913D01*
X48070Y-35748D02*
X47952Y-35629D01*
X52086Y-35748D02*
X48070Y-35748D01*
X52165Y-35826D02*
X52086Y-35748D01*
X48365Y-33425D02*
X48503Y-33425D01*
X48503Y-33425D02*
X48720Y-33641D01*
X48365Y-33425D02*
X48228Y-33425D01*
X48228Y-33425D02*
X47992Y-33661D01*
X48365Y-33425D02*
X48484Y-33425D01*
X48484Y-33425D02*
X48700Y-33208D01*
X48228Y-33425D02*
X48011Y-33208D01*
G54D16*
X48365Y-33425D02*
X48366Y-33425D01*
X49147Y-35492D02*
X48366Y-34724D01*
X48366Y-33425D02*
X48366Y-33444D01*
X48366Y-34724D02*
X48366Y-33425D01*
X52362Y-35492D02*
X49147Y-35492D01*
X53149Y-36279D02*
X52362Y-35492D01*
X48366Y-33425D02*
X48366Y-33444D01*
G54D17*
X45236Y-31692D02*
X45314Y-31692D01*
X45118Y-31811D02*
X45236Y-31692D01*
X43740Y-31811D02*
X45118Y-31811D01*
X40059Y-36515D02*
X40078Y-36515D01*
X42145Y-30905D02*
X42135Y-30905D01*
G54D10*
G36*
X53641Y-36690D02*
X53624Y-36694D01*
X53576Y-36726D01*
X53544Y-36774D01*
X53533Y-36830D01*
X53533Y-39251D01*
X53425Y-39251D01*
X53425Y-36224D01*
X53383Y-36123D01*
X53307Y-36047D01*
X53307Y-33988D01*
X53271Y-33901D01*
X53204Y-33835D01*
X53118Y-33799D01*
X53024Y-33799D01*
X52937Y-33835D01*
X52870Y-33901D01*
X52834Y-33988D01*
X52834Y-34055D01*
X52768Y-34055D01*
X52681Y-34090D01*
X52614Y-34157D01*
X52578Y-34244D01*
X52578Y-34338D01*
X52614Y-34424D01*
X52680Y-34491D01*
X52767Y-34527D01*
X52861Y-34527D01*
X52948Y-34491D01*
X53015Y-34425D01*
X53051Y-34338D01*
X53051Y-34271D01*
X53117Y-34271D01*
X53204Y-34235D01*
X53271Y-34169D01*
X53307Y-34082D01*
X53307Y-33988D01*
X53307Y-36047D01*
X53305Y-36046D01*
X53204Y-36003D01*
X53180Y-36003D01*
X52519Y-35343D01*
X52519Y-30371D01*
X52412Y-30110D01*
X52212Y-29911D01*
X51952Y-29803D01*
X51670Y-29803D01*
X51410Y-29910D01*
X51210Y-30109D01*
X51102Y-30370D01*
X51102Y-30652D01*
X51209Y-30912D01*
X51409Y-31112D01*
X51669Y-31220D01*
X51951Y-31220D01*
X52211Y-31112D01*
X52411Y-30913D01*
X52519Y-30653D01*
X52519Y-30371D01*
X52519Y-35343D01*
X52515Y-35339D01*
X52480Y-35315D01*
X52480Y-32591D01*
X52444Y-32504D01*
X52378Y-32437D01*
X52291Y-32401D01*
X52197Y-32401D01*
X52110Y-32437D01*
X52086Y-32461D01*
X52086Y-31961D01*
X52050Y-31874D01*
X51984Y-31807D01*
X51897Y-31771D01*
X51803Y-31771D01*
X51716Y-31807D01*
X51693Y-31830D01*
X51293Y-31830D01*
X50984Y-31521D01*
X50984Y-30228D01*
X50948Y-30141D01*
X50882Y-30075D01*
X50795Y-30039D01*
X50701Y-30039D01*
X50614Y-30075D01*
X50547Y-30141D01*
X50511Y-30228D01*
X50511Y-30322D01*
X50547Y-30409D01*
X50614Y-30475D01*
X50700Y-30511D01*
X50794Y-30511D01*
X50881Y-30475D01*
X50948Y-30409D01*
X50984Y-30322D01*
X50984Y-30228D01*
X50984Y-31521D01*
X50079Y-30616D01*
X50133Y-30594D01*
X50200Y-30527D01*
X50236Y-30440D01*
X50236Y-30346D01*
X50200Y-30260D01*
X50133Y-30193D01*
X50047Y-30157D01*
X50014Y-30157D01*
X49889Y-30032D01*
X49831Y-29993D01*
X49763Y-29980D01*
X43543Y-29980D01*
X43475Y-29993D01*
X43418Y-30032D01*
X43385Y-30064D01*
X43385Y-29992D01*
X43349Y-29905D01*
X43283Y-29839D01*
X43196Y-29803D01*
X43102Y-29803D01*
X43015Y-29838D01*
X42949Y-29905D01*
X42913Y-29992D01*
X42913Y-30086D01*
X42949Y-30173D01*
X43015Y-30239D01*
X43055Y-30255D01*
X41633Y-30255D01*
X41555Y-30255D01*
X41487Y-30269D01*
X41448Y-30295D01*
X41409Y-30295D01*
X41323Y-30331D01*
X41256Y-30397D01*
X41220Y-30484D01*
X41220Y-30578D01*
X41256Y-30665D01*
X41322Y-30731D01*
X41409Y-30767D01*
X41503Y-30767D01*
X41590Y-30731D01*
X41656Y-30665D01*
X41679Y-30610D01*
X42521Y-30610D01*
X42500Y-30661D01*
X42499Y-30755D01*
X42535Y-30842D01*
X42602Y-30908D01*
X42689Y-30944D01*
X42735Y-30944D01*
X42795Y-30998D01*
X42801Y-31002D01*
X42807Y-31008D01*
X42964Y-31125D01*
X42983Y-31134D01*
X43003Y-31147D01*
X43016Y-31150D01*
X43027Y-31155D01*
X43047Y-31156D01*
X43070Y-31161D01*
X44567Y-31161D01*
X44590Y-31184D01*
X44677Y-31220D01*
X44771Y-31220D01*
X44858Y-31184D01*
X44924Y-31118D01*
X44960Y-31031D01*
X44960Y-30937D01*
X44924Y-30850D01*
X44858Y-30784D01*
X44771Y-30748D01*
X44677Y-30747D01*
X44590Y-30783D01*
X44567Y-30807D01*
X43130Y-30807D01*
X43026Y-30729D01*
X42972Y-30681D01*
X42972Y-30661D01*
X42951Y-30610D01*
X43267Y-30610D01*
X43335Y-30596D01*
X43335Y-30596D01*
X43392Y-30558D01*
X43616Y-30334D01*
X45000Y-30334D01*
X44996Y-30338D01*
X44960Y-30425D01*
X44960Y-30519D01*
X44996Y-30606D01*
X45062Y-30672D01*
X45149Y-30708D01*
X45182Y-30708D01*
X45937Y-31463D01*
X45946Y-31469D01*
X45889Y-31492D01*
X45823Y-31558D01*
X45787Y-31645D01*
X45787Y-31739D01*
X45823Y-31826D01*
X45889Y-31893D01*
X45941Y-31914D01*
X45905Y-32000D01*
X45905Y-32094D01*
X45941Y-32180D01*
X45945Y-32185D01*
X45551Y-32185D01*
X45551Y-31646D01*
X45515Y-31559D01*
X45448Y-31492D01*
X45362Y-31456D01*
X45268Y-31456D01*
X45181Y-31492D01*
X45114Y-31558D01*
X45111Y-31567D01*
X45110Y-31567D01*
X45044Y-31633D01*
X44940Y-31633D01*
X44944Y-31630D01*
X44980Y-31543D01*
X44980Y-31449D01*
X44944Y-31362D01*
X44878Y-31295D01*
X44791Y-31259D01*
X44697Y-31259D01*
X44610Y-31295D01*
X44543Y-31362D01*
X44507Y-31448D01*
X44507Y-31542D01*
X44543Y-31629D01*
X44547Y-31633D01*
X43897Y-31633D01*
X43874Y-31610D01*
X43787Y-31574D01*
X43693Y-31574D01*
X43606Y-31610D01*
X43540Y-31677D01*
X43503Y-31763D01*
X43503Y-31857D01*
X43539Y-31944D01*
X43606Y-32011D01*
X43692Y-32047D01*
X43786Y-32047D01*
X43873Y-32011D01*
X43897Y-31988D01*
X45118Y-31988D01*
X45185Y-31974D01*
X45185Y-31974D01*
X45243Y-31936D01*
X45255Y-31924D01*
X45267Y-31929D01*
X45361Y-31929D01*
X45448Y-31893D01*
X45515Y-31826D01*
X45551Y-31740D01*
X45551Y-31646D01*
X45551Y-32185D01*
X42317Y-32185D01*
X42322Y-32173D01*
X42322Y-32079D01*
X42286Y-31992D01*
X42220Y-31925D01*
X42133Y-31889D01*
X42039Y-31889D01*
X41952Y-31925D01*
X41886Y-31992D01*
X41850Y-32078D01*
X41850Y-32172D01*
X41855Y-32185D01*
X41712Y-32185D01*
X41712Y-32185D01*
X41689Y-32162D01*
X41602Y-32126D01*
X41508Y-32125D01*
X41421Y-32161D01*
X41354Y-32228D01*
X41318Y-32315D01*
X41318Y-32408D01*
X41354Y-32495D01*
X41421Y-32562D01*
X41507Y-32598D01*
X41601Y-32598D01*
X41688Y-32562D01*
X41712Y-32539D01*
X41712Y-32539D01*
X48346Y-32539D01*
X48414Y-32525D01*
X48471Y-32487D01*
X48472Y-32487D01*
X48675Y-32283D01*
X48708Y-32283D01*
X48795Y-32247D01*
X48861Y-32181D01*
X48897Y-32094D01*
X48897Y-32000D01*
X48861Y-31913D01*
X48798Y-31850D01*
X48861Y-31787D01*
X48869Y-31767D01*
X48894Y-31826D01*
X48960Y-31893D01*
X49047Y-31929D01*
X49141Y-31929D01*
X49228Y-31893D01*
X49294Y-31826D01*
X49330Y-31740D01*
X49330Y-31646D01*
X49294Y-31559D01*
X49251Y-31515D01*
X49336Y-31515D01*
X50307Y-32487D01*
X50365Y-32525D01*
X50433Y-32539D01*
X50669Y-32539D01*
X51654Y-32539D01*
X51677Y-32562D01*
X51763Y-32598D01*
X51857Y-32598D01*
X51944Y-32562D01*
X52011Y-32496D01*
X52047Y-32409D01*
X52047Y-32315D01*
X52011Y-32228D01*
X51987Y-32204D01*
X52050Y-32141D01*
X52086Y-32055D01*
X52086Y-31961D01*
X52086Y-32461D01*
X52043Y-32503D01*
X52007Y-32590D01*
X52007Y-32684D01*
X52043Y-32771D01*
X52110Y-32837D01*
X52196Y-32873D01*
X52290Y-32874D01*
X52377Y-32838D01*
X52444Y-32771D01*
X52480Y-32684D01*
X52480Y-32591D01*
X52480Y-35315D01*
X52445Y-35292D01*
X52421Y-35287D01*
X52421Y-33299D01*
X52385Y-33212D01*
X52319Y-33146D01*
X52232Y-33110D01*
X52138Y-33110D01*
X52051Y-33146D01*
X51984Y-33212D01*
X51948Y-33299D01*
X51948Y-33393D01*
X51984Y-33480D01*
X52051Y-33546D01*
X52137Y-33582D01*
X52231Y-33582D01*
X52318Y-33546D01*
X52385Y-33480D01*
X52421Y-33393D01*
X52421Y-33299D01*
X52421Y-35287D01*
X52362Y-35275D01*
X51299Y-35275D01*
X51299Y-33575D01*
X51263Y-33488D01*
X51196Y-33421D01*
X51110Y-33385D01*
X51016Y-33385D01*
X50929Y-33421D01*
X50862Y-33488D01*
X50854Y-33508D01*
X50795Y-33484D01*
X50701Y-33484D01*
X50689Y-33489D01*
X50672Y-33449D01*
X50606Y-33382D01*
X50519Y-33346D01*
X50472Y-33346D01*
X50472Y-33339D01*
X50436Y-33252D01*
X50370Y-33185D01*
X50283Y-33149D01*
X50189Y-33149D01*
X50102Y-33185D01*
X50079Y-33208D01*
X49605Y-33208D01*
X49543Y-33146D01*
X49456Y-33110D01*
X49362Y-33110D01*
X49275Y-33146D01*
X49209Y-33212D01*
X49173Y-33299D01*
X49173Y-33393D01*
X49180Y-33412D01*
X49157Y-33421D01*
X49091Y-33488D01*
X49055Y-33574D01*
X49055Y-33668D01*
X49090Y-33755D01*
X49157Y-33822D01*
X49244Y-33858D01*
X49276Y-33858D01*
X49402Y-33983D01*
X49459Y-34021D01*
X49459Y-34021D01*
X49527Y-34035D01*
X50590Y-34035D01*
X50618Y-34029D01*
X50647Y-34026D01*
X50652Y-34023D01*
X50658Y-34021D01*
X50682Y-34006D01*
X50707Y-33991D01*
X50747Y-33956D01*
X50794Y-33956D01*
X50881Y-33920D01*
X50948Y-33854D01*
X50956Y-33833D01*
X51015Y-33858D01*
X51109Y-33858D01*
X51196Y-33822D01*
X51263Y-33756D01*
X51299Y-33669D01*
X51299Y-33575D01*
X51299Y-35275D01*
X50354Y-35275D01*
X50354Y-34756D01*
X50318Y-34669D01*
X50252Y-34603D01*
X50165Y-34566D01*
X50071Y-34566D01*
X49984Y-34602D01*
X49917Y-34669D01*
X49881Y-34755D01*
X49881Y-34849D01*
X49917Y-34936D01*
X49984Y-35003D01*
X50070Y-35039D01*
X50164Y-35039D01*
X50251Y-35003D01*
X50318Y-34937D01*
X50354Y-34850D01*
X50354Y-34756D01*
X50354Y-35275D01*
X49235Y-35275D01*
X49071Y-35114D01*
X49149Y-35082D01*
X49212Y-35019D01*
X49275Y-35082D01*
X49362Y-35118D01*
X49456Y-35118D01*
X49543Y-35082D01*
X49609Y-35015D01*
X49645Y-34929D01*
X49645Y-34835D01*
X49609Y-34748D01*
X49543Y-34681D01*
X49456Y-34645D01*
X49362Y-34645D01*
X49275Y-34681D01*
X49212Y-34744D01*
X49149Y-34681D01*
X49062Y-34645D01*
X49015Y-34645D01*
X48968Y-34645D01*
X48882Y-34681D01*
X48815Y-34747D01*
X48781Y-34829D01*
X48582Y-34633D01*
X48582Y-33937D01*
X49015Y-33937D01*
X49015Y-33090D01*
X51147Y-33090D01*
X51338Y-33282D01*
X51338Y-33314D01*
X51374Y-33401D01*
X51440Y-33467D01*
X51527Y-33503D01*
X51621Y-33503D01*
X51708Y-33468D01*
X51774Y-33401D01*
X51810Y-33314D01*
X51811Y-33220D01*
X51775Y-33134D01*
X51708Y-33067D01*
X51621Y-33031D01*
X51589Y-33031D01*
X51345Y-32788D01*
X51288Y-32749D01*
X51220Y-32736D01*
X46692Y-32736D01*
X46630Y-32673D01*
X46543Y-32637D01*
X46449Y-32637D01*
X46362Y-32673D01*
X46295Y-32740D01*
X46259Y-32826D01*
X46259Y-32920D01*
X46295Y-33007D01*
X46362Y-33074D01*
X46448Y-33110D01*
X46542Y-33110D01*
X46590Y-33090D01*
X47716Y-33090D01*
X47716Y-33877D01*
X47716Y-33937D01*
X48149Y-33937D01*
X48149Y-34724D01*
X48149Y-34725D01*
X48149Y-34726D01*
X48158Y-34766D01*
X48166Y-34807D01*
X48166Y-34808D01*
X48166Y-34809D01*
X48190Y-34843D01*
X48213Y-34877D01*
X48213Y-34878D01*
X48214Y-34878D01*
X48918Y-35570D01*
X48183Y-35570D01*
X48153Y-35496D01*
X48086Y-35429D01*
X47999Y-35393D01*
X47905Y-35393D01*
X47819Y-35429D01*
X47752Y-35495D01*
X47716Y-35582D01*
X47716Y-35676D01*
X47752Y-35763D01*
X47818Y-35830D01*
X47905Y-35866D01*
X47938Y-35866D01*
X47945Y-35873D01*
X48003Y-35911D01*
X48003Y-35911D01*
X48070Y-35925D01*
X49015Y-35925D01*
X51950Y-35925D01*
X51964Y-35960D01*
X52031Y-36026D01*
X52118Y-36062D01*
X52212Y-36063D01*
X52298Y-36027D01*
X52365Y-35960D01*
X52401Y-35873D01*
X52401Y-35837D01*
X52873Y-36310D01*
X52873Y-36334D01*
X52915Y-36435D01*
X52993Y-36513D01*
X53094Y-36555D01*
X53204Y-36555D01*
X53305Y-36513D01*
X53383Y-36435D01*
X53425Y-36334D01*
X53425Y-36224D01*
X53425Y-39251D01*
X51476Y-39251D01*
X51476Y-36905D01*
X51476Y-36354D01*
X51443Y-36275D01*
X51382Y-36214D01*
X51303Y-36181D01*
X51216Y-36181D01*
X51137Y-36213D01*
X51076Y-36274D01*
X51043Y-36354D01*
X51043Y-36354D01*
X51010Y-36275D01*
X50949Y-36214D01*
X50870Y-36181D01*
X50783Y-36181D01*
X50704Y-36213D01*
X50643Y-36274D01*
X50610Y-36354D01*
X50610Y-36354D01*
X50577Y-36275D01*
X50516Y-36214D01*
X50436Y-36181D01*
X50350Y-36181D01*
X50271Y-36213D01*
X50210Y-36274D01*
X50177Y-36354D01*
X50177Y-36440D01*
X50210Y-36520D01*
X50270Y-36581D01*
X50350Y-36614D01*
X50436Y-36614D01*
X50516Y-36581D01*
X50577Y-36520D01*
X50610Y-36440D01*
X50610Y-36354D01*
X50610Y-36440D01*
X50643Y-36520D01*
X50703Y-36581D01*
X50783Y-36614D01*
X50869Y-36614D01*
X50949Y-36581D01*
X51010Y-36520D01*
X51043Y-36440D01*
X51043Y-36354D01*
X51043Y-36440D01*
X51076Y-36520D01*
X51137Y-36581D01*
X51216Y-36614D01*
X51302Y-36614D01*
X51382Y-36581D01*
X51443Y-36520D01*
X51476Y-36440D01*
X51476Y-36354D01*
X51476Y-36905D01*
X51443Y-36826D01*
X51382Y-36765D01*
X51303Y-36732D01*
X51216Y-36732D01*
X51137Y-36765D01*
X51076Y-36826D01*
X51043Y-36905D01*
X51043Y-36905D01*
X51010Y-36826D01*
X50949Y-36765D01*
X50870Y-36732D01*
X50783Y-36732D01*
X50704Y-36765D01*
X50643Y-36826D01*
X50610Y-36905D01*
X50610Y-36905D01*
X50577Y-36826D01*
X50516Y-36765D01*
X50436Y-36732D01*
X50350Y-36732D01*
X50271Y-36765D01*
X50210Y-36826D01*
X50177Y-36905D01*
X50177Y-36991D01*
X50210Y-37071D01*
X50270Y-37132D01*
X50350Y-37165D01*
X50436Y-37165D01*
X50516Y-37132D01*
X50577Y-37071D01*
X50610Y-36992D01*
X50610Y-36905D01*
X50610Y-36991D01*
X50643Y-37071D01*
X50703Y-37132D01*
X50783Y-37165D01*
X50869Y-37165D01*
X50949Y-37132D01*
X51010Y-37071D01*
X51043Y-36992D01*
X51043Y-36905D01*
X51043Y-36991D01*
X51076Y-37071D01*
X51137Y-37132D01*
X51216Y-37165D01*
X51302Y-37165D01*
X51382Y-37132D01*
X51443Y-37071D01*
X51476Y-36992D01*
X51476Y-36905D01*
X51476Y-39251D01*
X51358Y-39251D01*
X51358Y-38095D01*
X51316Y-37993D01*
X51238Y-37916D01*
X51137Y-37874D01*
X51028Y-37873D01*
X50926Y-37915D01*
X50849Y-37993D01*
X50807Y-38094D01*
X50807Y-38204D01*
X50848Y-38305D01*
X50926Y-38383D01*
X51027Y-38425D01*
X51137Y-38425D01*
X51238Y-38383D01*
X51316Y-38305D01*
X51358Y-38204D01*
X51358Y-38095D01*
X51358Y-39251D01*
X49714Y-39251D01*
X49714Y-37868D01*
X49672Y-37767D01*
X49595Y-37689D01*
X49494Y-37647D01*
X49384Y-37647D01*
X49283Y-37689D01*
X49205Y-37766D01*
X49163Y-37868D01*
X49163Y-37977D01*
X49205Y-38079D01*
X49282Y-38156D01*
X49383Y-38198D01*
X49493Y-38198D01*
X49594Y-38156D01*
X49672Y-38079D01*
X49714Y-37978D01*
X49714Y-37868D01*
X49714Y-39251D01*
X49015Y-39251D01*
X47559Y-39251D01*
X47559Y-33969D01*
X47523Y-33882D01*
X47456Y-33816D01*
X47370Y-33780D01*
X47276Y-33779D01*
X47229Y-33799D01*
X46929Y-33799D01*
X46929Y-33799D01*
X46846Y-33815D01*
X46776Y-33862D01*
X46776Y-33862D01*
X46692Y-33945D01*
X46692Y-33693D01*
X46657Y-33606D01*
X46590Y-33540D01*
X46503Y-33503D01*
X46409Y-33503D01*
X46323Y-33539D01*
X46256Y-33606D01*
X46220Y-33692D01*
X46220Y-33786D01*
X46256Y-33873D01*
X46322Y-33940D01*
X46409Y-33976D01*
X46503Y-33976D01*
X46590Y-33940D01*
X46656Y-33874D01*
X46692Y-33787D01*
X46692Y-33693D01*
X46692Y-33945D01*
X46331Y-34307D01*
X46283Y-34327D01*
X46217Y-34393D01*
X46181Y-34480D01*
X46181Y-34574D01*
X46216Y-34661D01*
X46283Y-34727D01*
X46370Y-34763D01*
X46464Y-34763D01*
X46550Y-34727D01*
X46617Y-34661D01*
X46637Y-34613D01*
X47018Y-34232D01*
X47227Y-34232D01*
X47275Y-34252D01*
X47369Y-34252D01*
X47456Y-34216D01*
X47523Y-34150D01*
X47559Y-34063D01*
X47559Y-33969D01*
X47559Y-39251D01*
X46535Y-39251D01*
X46535Y-35268D01*
X46499Y-35181D01*
X46433Y-35114D01*
X46346Y-35078D01*
X46252Y-35078D01*
X46165Y-35114D01*
X46099Y-35180D01*
X46063Y-35267D01*
X46062Y-35361D01*
X46098Y-35448D01*
X46165Y-35515D01*
X46252Y-35551D01*
X46345Y-35551D01*
X46432Y-35515D01*
X46499Y-35448D01*
X46535Y-35362D01*
X46535Y-35268D01*
X46535Y-39251D01*
X46063Y-39251D01*
X46063Y-36646D01*
X46027Y-36559D01*
X45960Y-36492D01*
X45937Y-36483D01*
X45948Y-36472D01*
X45984Y-36385D01*
X45984Y-36291D01*
X45948Y-36204D01*
X45905Y-36162D01*
X45905Y-34008D01*
X45869Y-33921D01*
X45803Y-33854D01*
X45716Y-33818D01*
X45622Y-33818D01*
X45535Y-33854D01*
X45469Y-33921D01*
X45433Y-34007D01*
X45433Y-34101D01*
X45468Y-34188D01*
X45535Y-34255D01*
X45622Y-34291D01*
X45716Y-34291D01*
X45802Y-34255D01*
X45869Y-34189D01*
X45905Y-34102D01*
X45905Y-34008D01*
X45905Y-36162D01*
X45882Y-36138D01*
X45795Y-36102D01*
X45701Y-36102D01*
X45614Y-36138D01*
X45547Y-36204D01*
X45511Y-36291D01*
X45511Y-36385D01*
X45547Y-36472D01*
X45614Y-36538D01*
X45637Y-36548D01*
X45626Y-36558D01*
X45590Y-36645D01*
X45590Y-36739D01*
X45626Y-36826D01*
X45692Y-36893D01*
X45779Y-36929D01*
X45873Y-36929D01*
X45960Y-36893D01*
X46026Y-36826D01*
X46062Y-36740D01*
X46063Y-36646D01*
X46063Y-39251D01*
X44921Y-39251D01*
X44921Y-37502D01*
X44885Y-37415D01*
X44819Y-37349D01*
X44732Y-37313D01*
X44638Y-37312D01*
X44626Y-37318D01*
X44626Y-34701D01*
X44593Y-34621D01*
X44532Y-34560D01*
X44452Y-34527D01*
X44452Y-34527D01*
X44531Y-34494D01*
X44592Y-34433D01*
X44625Y-34354D01*
X44626Y-34268D01*
X44593Y-34188D01*
X44532Y-34127D01*
X44452Y-34094D01*
X44452Y-34094D01*
X44531Y-34061D01*
X44592Y-34000D01*
X44625Y-33921D01*
X44626Y-33835D01*
X44593Y-33755D01*
X44532Y-33694D01*
X44452Y-33661D01*
X44366Y-33661D01*
X44286Y-33694D01*
X44225Y-33755D01*
X44192Y-33834D01*
X44192Y-33835D01*
X44160Y-33755D01*
X44099Y-33694D01*
X44019Y-33661D01*
X43933Y-33661D01*
X43853Y-33694D01*
X43792Y-33755D01*
X43759Y-33834D01*
X43759Y-33835D01*
X43726Y-33755D01*
X43666Y-33694D01*
X43586Y-33661D01*
X43500Y-33661D01*
X43420Y-33694D01*
X43359Y-33755D01*
X43326Y-33834D01*
X43326Y-33835D01*
X43293Y-33755D01*
X43233Y-33694D01*
X43153Y-33661D01*
X43067Y-33661D01*
X42987Y-33694D01*
X42926Y-33755D01*
X42893Y-33834D01*
X42893Y-33835D01*
X42860Y-33755D01*
X42799Y-33694D01*
X42720Y-33661D01*
X42634Y-33661D01*
X42554Y-33694D01*
X42493Y-33755D01*
X42460Y-33834D01*
X42460Y-33920D01*
X42493Y-34000D01*
X42554Y-34061D01*
X42633Y-34094D01*
X42720Y-34094D01*
X42634Y-34094D01*
X42554Y-34127D01*
X42493Y-34188D01*
X42460Y-34267D01*
X42460Y-34353D01*
X42493Y-34433D01*
X42554Y-34494D01*
X42633Y-34527D01*
X42720Y-34527D01*
X42634Y-34527D01*
X42554Y-34560D01*
X42493Y-34621D01*
X42460Y-34700D01*
X42460Y-34786D01*
X42493Y-34866D01*
X42554Y-34927D01*
X42633Y-34960D01*
X42720Y-34960D01*
X42634Y-34960D01*
X42554Y-34993D01*
X42493Y-35054D01*
X42460Y-35133D01*
X42460Y-35220D01*
X42493Y-35299D01*
X42554Y-35360D01*
X42633Y-35393D01*
X42720Y-35393D01*
X42634Y-35393D01*
X42554Y-35426D01*
X42493Y-35487D01*
X42460Y-35566D01*
X42460Y-35653D01*
X42493Y-35732D01*
X42554Y-35793D01*
X42633Y-35826D01*
X42720Y-35826D01*
X42799Y-35793D01*
X42860Y-35733D01*
X42893Y-35653D01*
X42893Y-35567D01*
X42893Y-35653D01*
X42926Y-35732D01*
X42987Y-35793D01*
X43066Y-35826D01*
X43153Y-35826D01*
X43232Y-35793D01*
X43293Y-35733D01*
X43323Y-35660D01*
X43349Y-35722D01*
X43410Y-35783D01*
X43490Y-35816D01*
X43576Y-35816D01*
X43655Y-35784D01*
X43716Y-35723D01*
X43749Y-35643D01*
X43750Y-35557D01*
X43749Y-35643D01*
X43782Y-35722D01*
X43843Y-35783D01*
X43923Y-35816D01*
X44009Y-35816D01*
X44089Y-35784D01*
X44149Y-35723D01*
X44183Y-35643D01*
X44183Y-35557D01*
X44183Y-35643D01*
X44215Y-35722D01*
X44276Y-35783D01*
X44356Y-35816D01*
X44442Y-35816D01*
X44522Y-35784D01*
X44583Y-35723D01*
X44616Y-35643D01*
X44616Y-35557D01*
X44583Y-35477D01*
X44522Y-35416D01*
X44442Y-35383D01*
X44442Y-35383D01*
X44522Y-35350D01*
X44583Y-35290D01*
X44616Y-35210D01*
X44616Y-35124D01*
X44583Y-35044D01*
X44522Y-34983D01*
X44459Y-34957D01*
X44531Y-34927D01*
X44592Y-34866D01*
X44625Y-34787D01*
X44626Y-34701D01*
X44626Y-37318D01*
X44551Y-37348D01*
X44484Y-37415D01*
X44448Y-37502D01*
X44448Y-37595D01*
X44484Y-37682D01*
X44551Y-37749D01*
X44637Y-37785D01*
X44731Y-37785D01*
X44818Y-37749D01*
X44885Y-37683D01*
X44921Y-37596D01*
X44921Y-37502D01*
X44921Y-39251D01*
X42933Y-39251D01*
X42933Y-37550D01*
X42897Y-37463D01*
X42830Y-37397D01*
X42744Y-37361D01*
X42650Y-37361D01*
X42563Y-37397D01*
X42496Y-37463D01*
X42460Y-37550D01*
X42460Y-37644D01*
X42496Y-37731D01*
X42562Y-37797D01*
X42649Y-37833D01*
X42743Y-37833D01*
X42830Y-37797D01*
X42896Y-37731D01*
X42933Y-37644D01*
X42933Y-37550D01*
X42933Y-39251D01*
X41850Y-39251D01*
X41850Y-38245D01*
X41742Y-37984D01*
X41543Y-37785D01*
X41338Y-37700D01*
X41338Y-36154D01*
X41302Y-36067D01*
X41299Y-36063D01*
X41299Y-34402D01*
X41263Y-34315D01*
X41196Y-34248D01*
X41110Y-34212D01*
X41016Y-34212D01*
X40929Y-34248D01*
X40862Y-34314D01*
X40826Y-34401D01*
X40826Y-34402D01*
X40790Y-34315D01*
X40728Y-34252D01*
X40728Y-31370D01*
X40692Y-31283D01*
X40626Y-31217D01*
X40539Y-31181D01*
X40445Y-31181D01*
X40358Y-31216D01*
X40291Y-31283D01*
X40255Y-31370D01*
X40255Y-31464D01*
X40291Y-31550D01*
X40358Y-31617D01*
X40444Y-31653D01*
X40538Y-31653D01*
X40625Y-31617D01*
X40692Y-31551D01*
X40728Y-31464D01*
X40728Y-31370D01*
X40728Y-34252D01*
X40724Y-34248D01*
X40637Y-34212D01*
X40543Y-34212D01*
X40456Y-34248D01*
X40390Y-34314D01*
X40354Y-34401D01*
X40354Y-34495D01*
X40390Y-34582D01*
X40456Y-34648D01*
X40543Y-34684D01*
X40637Y-34685D01*
X40724Y-34649D01*
X40790Y-34582D01*
X40826Y-34496D01*
X40826Y-34495D01*
X40862Y-34582D01*
X40929Y-34648D01*
X41015Y-34684D01*
X41109Y-34685D01*
X41196Y-34649D01*
X41263Y-34582D01*
X41299Y-34496D01*
X41299Y-34402D01*
X41299Y-36063D01*
X41236Y-36000D01*
X41149Y-35964D01*
X41055Y-35964D01*
X40968Y-36000D01*
X40902Y-36066D01*
X40866Y-36153D01*
X40866Y-36247D01*
X40901Y-36334D01*
X40968Y-36400D01*
X41055Y-36436D01*
X41149Y-36437D01*
X41235Y-36401D01*
X41302Y-36334D01*
X41338Y-36247D01*
X41338Y-36154D01*
X41338Y-37700D01*
X41283Y-37677D01*
X41001Y-37677D01*
X40905Y-37716D01*
X40905Y-36685D01*
X40869Y-36598D01*
X40803Y-36532D01*
X40716Y-36496D01*
X40622Y-36496D01*
X40535Y-36531D01*
X40469Y-36598D01*
X40433Y-36685D01*
X40433Y-36779D01*
X40468Y-36865D01*
X40535Y-36932D01*
X40622Y-36968D01*
X40716Y-36968D01*
X40802Y-36932D01*
X40869Y-36866D01*
X40905Y-36779D01*
X40905Y-36685D01*
X40905Y-37716D01*
X40740Y-37784D01*
X40541Y-37983D01*
X40433Y-38244D01*
X40432Y-38526D01*
X40540Y-38786D01*
X40739Y-38986D01*
X41000Y-39094D01*
X41282Y-39094D01*
X41542Y-38986D01*
X41742Y-38787D01*
X41850Y-38527D01*
X41850Y-38245D01*
X41850Y-39251D01*
X40196Y-39251D01*
X40196Y-35405D01*
X40196Y-33811D01*
X40161Y-33724D01*
X40118Y-33681D01*
X40118Y-31744D01*
X40118Y-31075D01*
X40082Y-30988D01*
X40015Y-30921D01*
X39929Y-30885D01*
X39835Y-30885D01*
X39748Y-30921D01*
X39681Y-30988D01*
X39645Y-31074D01*
X39645Y-31168D01*
X39681Y-31255D01*
X39747Y-31322D01*
X39834Y-31358D01*
X39928Y-31358D01*
X40015Y-31322D01*
X40082Y-31256D01*
X40118Y-31169D01*
X40118Y-31075D01*
X40118Y-31744D01*
X40082Y-31657D01*
X40015Y-31591D01*
X39929Y-31555D01*
X39835Y-31555D01*
X39748Y-31590D01*
X39681Y-31657D01*
X39645Y-31744D01*
X39645Y-31838D01*
X39681Y-31924D01*
X39747Y-31991D01*
X39834Y-32027D01*
X39928Y-32027D01*
X40015Y-31991D01*
X40082Y-31925D01*
X40118Y-31838D01*
X40118Y-31744D01*
X40118Y-33681D01*
X40094Y-33658D01*
X40007Y-33622D01*
X39913Y-33622D01*
X39826Y-33657D01*
X39760Y-33724D01*
X39724Y-33811D01*
X39724Y-33905D01*
X39760Y-33991D01*
X39826Y-34058D01*
X39913Y-34094D01*
X40007Y-34094D01*
X40094Y-34058D01*
X40160Y-33992D01*
X40196Y-33905D01*
X40196Y-33811D01*
X40196Y-35405D01*
X40161Y-35319D01*
X40094Y-35252D01*
X40007Y-35216D01*
X39913Y-35216D01*
X39826Y-35252D01*
X39760Y-35318D01*
X39724Y-35405D01*
X39724Y-35499D01*
X39760Y-35586D01*
X39826Y-35652D01*
X39913Y-35688D01*
X40007Y-35689D01*
X40094Y-35653D01*
X40160Y-35586D01*
X40196Y-35499D01*
X40196Y-35405D01*
X40196Y-39251D01*
X39488Y-39251D01*
X39488Y-29566D01*
X53533Y-29566D01*
X53533Y-32066D01*
X53544Y-32123D01*
X53576Y-32171D01*
X53624Y-32203D01*
X53641Y-32206D01*
X53641Y-36690D01*
X53641Y-36690D01*
G37*
G54D18*
X53641Y-36690D02*
X53624Y-36694D01*
X53576Y-36726D01*
X53544Y-36774D01*
X53533Y-36830D01*
X53533Y-39251D01*
X53425Y-39251D01*
X53425Y-36224D01*
X53383Y-36123D01*
X53307Y-36047D01*
X53307Y-33988D01*
X53271Y-33901D01*
X53204Y-33835D01*
X53118Y-33799D01*
X53024Y-33799D01*
X52937Y-33835D01*
X52870Y-33901D01*
X52834Y-33988D01*
X52834Y-34055D01*
X52768Y-34055D01*
X52681Y-34090D01*
X52614Y-34157D01*
X52578Y-34244D01*
X52578Y-34338D01*
X52614Y-34424D01*
X52680Y-34491D01*
X52767Y-34527D01*
X52861Y-34527D01*
X52948Y-34491D01*
X53015Y-34425D01*
X53051Y-34338D01*
X53051Y-34271D01*
X53117Y-34271D01*
X53204Y-34235D01*
X53271Y-34169D01*
X53307Y-34082D01*
X53307Y-33988D01*
X53307Y-36047D01*
X53305Y-36046D01*
X53204Y-36003D01*
X53180Y-36003D01*
X52519Y-35343D01*
X52519Y-30371D01*
X52412Y-30110D01*
X52212Y-29911D01*
X51952Y-29803D01*
X51670Y-29803D01*
X51410Y-29910D01*
X51210Y-30109D01*
X51102Y-30370D01*
X51102Y-30652D01*
X51209Y-30912D01*
X51409Y-31112D01*
X51669Y-31220D01*
X51951Y-31220D01*
X52211Y-31112D01*
X52411Y-30913D01*
X52519Y-30653D01*
X52519Y-30371D01*
X52519Y-35343D01*
X52515Y-35339D01*
X52480Y-35315D01*
X52480Y-32591D01*
X52444Y-32504D01*
X52378Y-32437D01*
X52291Y-32401D01*
X52197Y-32401D01*
X52110Y-32437D01*
X52086Y-32461D01*
X52086Y-31961D01*
X52050Y-31874D01*
X51984Y-31807D01*
X51897Y-31771D01*
X51803Y-31771D01*
X51716Y-31807D01*
X51693Y-31830D01*
X51293Y-31830D01*
X50984Y-31521D01*
X50984Y-30228D01*
X50948Y-30141D01*
X50882Y-30075D01*
X50795Y-30039D01*
X50701Y-30039D01*
X50614Y-30075D01*
X50547Y-30141D01*
X50511Y-30228D01*
X50511Y-30322D01*
X50547Y-30409D01*
X50614Y-30475D01*
X50700Y-30511D01*
X50794Y-30511D01*
X50881Y-30475D01*
X50948Y-30409D01*
X50984Y-30322D01*
X50984Y-30228D01*
X50984Y-31521D01*
X50079Y-30616D01*
X50133Y-30594D01*
X50200Y-30527D01*
X50236Y-30440D01*
X50236Y-30346D01*
X50200Y-30260D01*
X50133Y-30193D01*
X50047Y-30157D01*
X50014Y-30157D01*
X49889Y-30032D01*
X49831Y-29993D01*
X49763Y-29980D01*
X43543Y-29980D01*
X43475Y-29993D01*
X43418Y-30032D01*
X43385Y-30064D01*
X43385Y-29992D01*
X43349Y-29905D01*
X43283Y-29839D01*
X43196Y-29803D01*
X43102Y-29803D01*
X43015Y-29838D01*
X42949Y-29905D01*
X42913Y-29992D01*
X42913Y-30086D01*
X42949Y-30173D01*
X43015Y-30239D01*
X43055Y-30255D01*
X41633Y-30255D01*
X41555Y-30255D01*
X41487Y-30269D01*
X41448Y-30295D01*
X41409Y-30295D01*
X41323Y-30331D01*
X41256Y-30397D01*
X41220Y-30484D01*
X41220Y-30578D01*
X41256Y-30665D01*
X41322Y-30731D01*
X41409Y-30767D01*
X41503Y-30767D01*
X41590Y-30731D01*
X41656Y-30665D01*
X41679Y-30610D01*
X42521Y-30610D01*
X42500Y-30661D01*
X42499Y-30755D01*
X42535Y-30842D01*
X42602Y-30908D01*
X42689Y-30944D01*
X42735Y-30944D01*
X42795Y-30998D01*
X42801Y-31002D01*
X42807Y-31008D01*
X42964Y-31125D01*
X42983Y-31134D01*
X43003Y-31147D01*
X43016Y-31150D01*
X43027Y-31155D01*
X43047Y-31156D01*
X43070Y-31161D01*
X44567Y-31161D01*
X44590Y-31184D01*
X44677Y-31220D01*
X44771Y-31220D01*
X44858Y-31184D01*
X44924Y-31118D01*
X44960Y-31031D01*
X44960Y-30937D01*
X44924Y-30850D01*
X44858Y-30784D01*
X44771Y-30748D01*
X44677Y-30747D01*
X44590Y-30783D01*
X44567Y-30807D01*
X43130Y-30807D01*
X43026Y-30729D01*
X42972Y-30681D01*
X42972Y-30661D01*
X42951Y-30610D01*
X43267Y-30610D01*
X43335Y-30596D01*
X43335Y-30596D01*
X43392Y-30558D01*
X43616Y-30334D01*
X45000Y-30334D01*
X44996Y-30338D01*
X44960Y-30425D01*
X44960Y-30519D01*
X44996Y-30606D01*
X45062Y-30672D01*
X45149Y-30708D01*
X45182Y-30708D01*
X45937Y-31463D01*
X45946Y-31469D01*
X45889Y-31492D01*
X45823Y-31558D01*
X45787Y-31645D01*
X45787Y-31739D01*
X45823Y-31826D01*
X45889Y-31893D01*
X45941Y-31914D01*
X45905Y-32000D01*
X45905Y-32094D01*
X45941Y-32180D01*
X45945Y-32185D01*
X45551Y-32185D01*
X45551Y-31646D01*
X45515Y-31559D01*
X45448Y-31492D01*
X45362Y-31456D01*
X45268Y-31456D01*
X45181Y-31492D01*
X45114Y-31558D01*
X45111Y-31567D01*
X45110Y-31567D01*
X45044Y-31633D01*
X44940Y-31633D01*
X44944Y-31630D01*
X44980Y-31543D01*
X44980Y-31449D01*
X44944Y-31362D01*
X44878Y-31295D01*
X44791Y-31259D01*
X44697Y-31259D01*
X44610Y-31295D01*
X44543Y-31362D01*
X44507Y-31448D01*
X44507Y-31542D01*
X44543Y-31629D01*
X44547Y-31633D01*
X43897Y-31633D01*
X43874Y-31610D01*
X43787Y-31574D01*
X43693Y-31574D01*
X43606Y-31610D01*
X43540Y-31677D01*
X43503Y-31763D01*
X43503Y-31857D01*
X43539Y-31944D01*
X43606Y-32011D01*
X43692Y-32047D01*
X43786Y-32047D01*
X43873Y-32011D01*
X43897Y-31988D01*
X45118Y-31988D01*
X45185Y-31974D01*
X45185Y-31974D01*
X45243Y-31936D01*
X45255Y-31924D01*
X45267Y-31929D01*
X45361Y-31929D01*
X45448Y-31893D01*
X45515Y-31826D01*
X45551Y-31740D01*
X45551Y-31646D01*
X45551Y-32185D01*
X42317Y-32185D01*
X42322Y-32173D01*
X42322Y-32079D01*
X42286Y-31992D01*
X42220Y-31925D01*
X42133Y-31889D01*
X42039Y-31889D01*
X41952Y-31925D01*
X41886Y-31992D01*
X41850Y-32078D01*
X41850Y-32172D01*
X41855Y-32185D01*
X41712Y-32185D01*
X41712Y-32185D01*
X41689Y-32162D01*
X41602Y-32126D01*
X41508Y-32125D01*
X41421Y-32161D01*
X41354Y-32228D01*
X41318Y-32315D01*
X41318Y-32408D01*
X41354Y-32495D01*
X41421Y-32562D01*
X41507Y-32598D01*
X41601Y-32598D01*
X41688Y-32562D01*
X41712Y-32539D01*
X41712Y-32539D01*
X48346Y-32539D01*
X48414Y-32525D01*
X48471Y-32487D01*
X48472Y-32487D01*
X48675Y-32283D01*
X48708Y-32283D01*
X48795Y-32247D01*
X48861Y-32181D01*
X48897Y-32094D01*
X48897Y-32000D01*
X48861Y-31913D01*
X48798Y-31850D01*
X48861Y-31787D01*
X48869Y-31767D01*
X48894Y-31826D01*
X48960Y-31893D01*
X49047Y-31929D01*
X49141Y-31929D01*
X49228Y-31893D01*
X49294Y-31826D01*
X49330Y-31740D01*
X49330Y-31646D01*
X49294Y-31559D01*
X49251Y-31515D01*
X49336Y-31515D01*
X50307Y-32487D01*
X50365Y-32525D01*
X50433Y-32539D01*
X50669Y-32539D01*
X51654Y-32539D01*
X51677Y-32562D01*
X51763Y-32598D01*
X51857Y-32598D01*
X51944Y-32562D01*
X52011Y-32496D01*
X52047Y-32409D01*
X52047Y-32315D01*
X52011Y-32228D01*
X51987Y-32204D01*
X52050Y-32141D01*
X52086Y-32055D01*
X52086Y-31961D01*
X52086Y-32461D01*
X52043Y-32503D01*
X52007Y-32590D01*
X52007Y-32684D01*
X52043Y-32771D01*
X52110Y-32837D01*
X52196Y-32873D01*
X52290Y-32874D01*
X52377Y-32838D01*
X52444Y-32771D01*
X52480Y-32684D01*
X52480Y-32591D01*
X52480Y-35315D01*
X52445Y-35292D01*
X52421Y-35287D01*
X52421Y-33299D01*
X52385Y-33212D01*
X52319Y-33146D01*
X52232Y-33110D01*
X52138Y-33110D01*
X52051Y-33146D01*
X51984Y-33212D01*
X51948Y-33299D01*
X51948Y-33393D01*
X51984Y-33480D01*
X52051Y-33546D01*
X52137Y-33582D01*
X52231Y-33582D01*
X52318Y-33546D01*
X52385Y-33480D01*
X52421Y-33393D01*
X52421Y-33299D01*
X52421Y-35287D01*
X52362Y-35275D01*
X51299Y-35275D01*
X51299Y-33575D01*
X51263Y-33488D01*
X51196Y-33421D01*
X51110Y-33385D01*
X51016Y-33385D01*
X50929Y-33421D01*
X50862Y-33488D01*
X50854Y-33508D01*
X50795Y-33484D01*
X50701Y-33484D01*
X50689Y-33489D01*
X50672Y-33449D01*
X50606Y-33382D01*
X50519Y-33346D01*
X50472Y-33346D01*
X50472Y-33339D01*
X50436Y-33252D01*
X50370Y-33185D01*
X50283Y-33149D01*
X50189Y-33149D01*
X50102Y-33185D01*
X50079Y-33208D01*
X49605Y-33208D01*
X49543Y-33146D01*
X49456Y-33110D01*
X49362Y-33110D01*
X49275Y-33146D01*
X49209Y-33212D01*
X49173Y-33299D01*
X49173Y-33393D01*
X49180Y-33412D01*
X49157Y-33421D01*
X49091Y-33488D01*
X49055Y-33574D01*
X49055Y-33668D01*
X49090Y-33755D01*
X49157Y-33822D01*
X49244Y-33858D01*
X49276Y-33858D01*
X49402Y-33983D01*
X49459Y-34021D01*
X49459Y-34021D01*
X49527Y-34035D01*
X50590Y-34035D01*
X50618Y-34029D01*
X50647Y-34026D01*
X50652Y-34023D01*
X50658Y-34021D01*
X50682Y-34006D01*
X50707Y-33991D01*
X50747Y-33956D01*
X50794Y-33956D01*
X50881Y-33920D01*
X50948Y-33854D01*
X50956Y-33833D01*
X51015Y-33858D01*
X51109Y-33858D01*
X51196Y-33822D01*
X51263Y-33756D01*
X51299Y-33669D01*
X51299Y-33575D01*
X51299Y-35275D01*
X50354Y-35275D01*
X50354Y-34756D01*
X50318Y-34669D01*
X50252Y-34603D01*
X50165Y-34566D01*
X50071Y-34566D01*
X49984Y-34602D01*
X49917Y-34669D01*
X49881Y-34755D01*
X49881Y-34849D01*
X49917Y-34936D01*
X49984Y-35003D01*
X50070Y-35039D01*
X50164Y-35039D01*
X50251Y-35003D01*
X50318Y-34937D01*
X50354Y-34850D01*
X50354Y-34756D01*
X50354Y-35275D01*
X49235Y-35275D01*
X49071Y-35114D01*
X49149Y-35082D01*
X49212Y-35019D01*
X49275Y-35082D01*
X49362Y-35118D01*
X49456Y-35118D01*
X49543Y-35082D01*
X49609Y-35015D01*
X49645Y-34929D01*
X49645Y-34835D01*
X49609Y-34748D01*
X49543Y-34681D01*
X49456Y-34645D01*
X49362Y-34645D01*
X49275Y-34681D01*
X49212Y-34744D01*
X49149Y-34681D01*
X49062Y-34645D01*
X49015Y-34645D01*
X48968Y-34645D01*
X48882Y-34681D01*
X48815Y-34747D01*
X48781Y-34829D01*
X48582Y-34633D01*
X48582Y-33937D01*
X49015Y-33937D01*
X49015Y-33090D01*
X51147Y-33090D01*
X51338Y-33282D01*
X51338Y-33314D01*
X51374Y-33401D01*
X51440Y-33467D01*
X51527Y-33503D01*
X51621Y-33503D01*
X51708Y-33468D01*
X51774Y-33401D01*
X51810Y-33314D01*
X51811Y-33220D01*
X51775Y-33134D01*
X51708Y-33067D01*
X51621Y-33031D01*
X51589Y-33031D01*
X51345Y-32788D01*
X51288Y-32749D01*
X51220Y-32736D01*
X46692Y-32736D01*
X46630Y-32673D01*
X46543Y-32637D01*
X46449Y-32637D01*
X46362Y-32673D01*
X46295Y-32740D01*
X46259Y-32826D01*
X46259Y-32920D01*
X46295Y-33007D01*
X46362Y-33074D01*
X46448Y-33110D01*
X46542Y-33110D01*
X46590Y-33090D01*
X47716Y-33090D01*
X47716Y-33877D01*
X47716Y-33937D01*
X48149Y-33937D01*
X48149Y-34724D01*
X48149Y-34725D01*
X48149Y-34726D01*
X48158Y-34766D01*
X48166Y-34807D01*
X48166Y-34808D01*
X48166Y-34809D01*
X48190Y-34843D01*
X48213Y-34877D01*
X48213Y-34878D01*
X48214Y-34878D01*
X48918Y-35570D01*
X48183Y-35570D01*
X48153Y-35496D01*
X48086Y-35429D01*
X47999Y-35393D01*
X47905Y-35393D01*
X47819Y-35429D01*
X47752Y-35495D01*
X47716Y-35582D01*
X47716Y-35676D01*
X47752Y-35763D01*
X47818Y-35830D01*
X47905Y-35866D01*
X47938Y-35866D01*
X47945Y-35873D01*
X48003Y-35911D01*
X48003Y-35911D01*
X48070Y-35925D01*
X49015Y-35925D01*
X51950Y-35925D01*
X51964Y-35960D01*
X52031Y-36026D01*
X52118Y-36062D01*
X52212Y-36063D01*
X52298Y-36027D01*
X52365Y-35960D01*
X52401Y-35873D01*
X52401Y-35837D01*
X52873Y-36310D01*
X52873Y-36334D01*
X52915Y-36435D01*
X52993Y-36513D01*
X53094Y-36555D01*
X53204Y-36555D01*
X53305Y-36513D01*
X53383Y-36435D01*
X53425Y-36334D01*
X53425Y-36224D01*
X53425Y-39251D01*
X51476Y-39251D01*
X51476Y-36905D01*
X51476Y-36354D01*
X51443Y-36275D01*
X51382Y-36214D01*
X51303Y-36181D01*
X51216Y-36181D01*
X51137Y-36213D01*
X51076Y-36274D01*
X51043Y-36354D01*
X51043Y-36354D01*
X51010Y-36275D01*
X50949Y-36214D01*
X50870Y-36181D01*
X50783Y-36181D01*
X50704Y-36213D01*
X50643Y-36274D01*
X50610Y-36354D01*
X50610Y-36354D01*
X50577Y-36275D01*
X50516Y-36214D01*
X50436Y-36181D01*
X50350Y-36181D01*
X50271Y-36213D01*
X50210Y-36274D01*
X50177Y-36354D01*
X50177Y-36440D01*
X50210Y-36520D01*
X50270Y-36581D01*
X50350Y-36614D01*
X50436Y-36614D01*
X50516Y-36581D01*
X50577Y-36520D01*
X50610Y-36440D01*
X50610Y-36354D01*
X50610Y-36440D01*
X50643Y-36520D01*
X50703Y-36581D01*
X50783Y-36614D01*
X50869Y-36614D01*
X50949Y-36581D01*
X51010Y-36520D01*
X51043Y-36440D01*
X51043Y-36354D01*
X51043Y-36440D01*
X51076Y-36520D01*
X51137Y-36581D01*
X51216Y-36614D01*
X51302Y-36614D01*
X51382Y-36581D01*
X51443Y-36520D01*
X51476Y-36440D01*
X51476Y-36354D01*
X51476Y-36905D01*
X51443Y-36826D01*
X51382Y-36765D01*
X51303Y-36732D01*
X51216Y-36732D01*
X51137Y-36765D01*
X51076Y-36826D01*
X51043Y-36905D01*
X51043Y-36905D01*
X51010Y-36826D01*
X50949Y-36765D01*
X50870Y-36732D01*
X50783Y-36732D01*
X50704Y-36765D01*
X50643Y-36826D01*
X50610Y-36905D01*
X50610Y-36905D01*
X50577Y-36826D01*
X50516Y-36765D01*
X50436Y-36732D01*
X50350Y-36732D01*
X50271Y-36765D01*
X50210Y-36826D01*
X50177Y-36905D01*
X50177Y-36991D01*
X50210Y-37071D01*
X50270Y-37132D01*
X50350Y-37165D01*
X50436Y-37165D01*
X50516Y-37132D01*
X50577Y-37071D01*
X50610Y-36992D01*
X50610Y-36905D01*
X50610Y-36991D01*
X50643Y-37071D01*
X50703Y-37132D01*
X50783Y-37165D01*
X50869Y-37165D01*
X50949Y-37132D01*
X51010Y-37071D01*
X51043Y-36992D01*
X51043Y-36905D01*
X51043Y-36991D01*
X51076Y-37071D01*
X51137Y-37132D01*
X51216Y-37165D01*
X51302Y-37165D01*
X51382Y-37132D01*
X51443Y-37071D01*
X51476Y-36992D01*
X51476Y-36905D01*
X51476Y-39251D01*
X51358Y-39251D01*
X51358Y-38095D01*
X51316Y-37993D01*
X51238Y-37916D01*
X51137Y-37874D01*
X51028Y-37873D01*
X50926Y-37915D01*
X50849Y-37993D01*
X50807Y-38094D01*
X50807Y-38204D01*
X50848Y-38305D01*
X50926Y-38383D01*
X51027Y-38425D01*
X51137Y-38425D01*
X51238Y-38383D01*
X51316Y-38305D01*
X51358Y-38204D01*
X51358Y-38095D01*
X51358Y-39251D01*
X49714Y-39251D01*
X49714Y-37868D01*
X49672Y-37767D01*
X49595Y-37689D01*
X49494Y-37647D01*
X49384Y-37647D01*
X49283Y-37689D01*
X49205Y-37766D01*
X49163Y-37868D01*
X49163Y-37977D01*
X49205Y-38079D01*
X49282Y-38156D01*
X49383Y-38198D01*
X49493Y-38198D01*
X49594Y-38156D01*
X49672Y-38079D01*
X49714Y-37978D01*
X49714Y-37868D01*
X49714Y-39251D01*
X49015Y-39251D01*
X47559Y-39251D01*
X47559Y-33969D01*
X47523Y-33882D01*
X47456Y-33816D01*
X47370Y-33780D01*
X47276Y-33779D01*
X47229Y-33799D01*
X46929Y-33799D01*
X46929Y-33799D01*
X46846Y-33815D01*
X46776Y-33862D01*
X46776Y-33862D01*
X46692Y-33945D01*
X46692Y-33693D01*
X46657Y-33606D01*
X46590Y-33540D01*
X46503Y-33503D01*
X46409Y-33503D01*
X46323Y-33539D01*
X46256Y-33606D01*
X46220Y-33692D01*
X46220Y-33786D01*
X46256Y-33873D01*
X46322Y-33940D01*
X46409Y-33976D01*
X46503Y-33976D01*
X46590Y-33940D01*
X46656Y-33874D01*
X46692Y-33787D01*
X46692Y-33693D01*
X46692Y-33945D01*
X46331Y-34307D01*
X46283Y-34327D01*
X46217Y-34393D01*
X46181Y-34480D01*
X46181Y-34574D01*
X46216Y-34661D01*
X46283Y-34727D01*
X46370Y-34763D01*
X46464Y-34763D01*
X46550Y-34727D01*
X46617Y-34661D01*
X46637Y-34613D01*
X47018Y-34232D01*
X47227Y-34232D01*
X47275Y-34252D01*
X47369Y-34252D01*
X47456Y-34216D01*
X47523Y-34150D01*
X47559Y-34063D01*
X47559Y-33969D01*
X47559Y-39251D01*
X46535Y-39251D01*
X46535Y-35268D01*
X46499Y-35181D01*
X46433Y-35114D01*
X46346Y-35078D01*
X46252Y-35078D01*
X46165Y-35114D01*
X46099Y-35180D01*
X46063Y-35267D01*
X46062Y-35361D01*
X46098Y-35448D01*
X46165Y-35515D01*
X46252Y-35551D01*
X46345Y-35551D01*
X46432Y-35515D01*
X46499Y-35448D01*
X46535Y-35362D01*
X46535Y-35268D01*
X46535Y-39251D01*
X46063Y-39251D01*
X46063Y-36646D01*
X46027Y-36559D01*
X45960Y-36492D01*
X45937Y-36483D01*
X45948Y-36472D01*
X45984Y-36385D01*
X45984Y-36291D01*
X45948Y-36204D01*
X45905Y-36162D01*
X45905Y-34008D01*
X45869Y-33921D01*
X45803Y-33854D01*
X45716Y-33818D01*
X45622Y-33818D01*
X45535Y-33854D01*
X45469Y-33921D01*
X45433Y-34007D01*
X45433Y-34101D01*
X45468Y-34188D01*
X45535Y-34255D01*
X45622Y-34291D01*
X45716Y-34291D01*
X45802Y-34255D01*
X45869Y-34189D01*
X45905Y-34102D01*
X45905Y-34008D01*
X45905Y-36162D01*
X45882Y-36138D01*
X45795Y-36102D01*
X45701Y-36102D01*
X45614Y-36138D01*
X45547Y-36204D01*
X45511Y-36291D01*
X45511Y-36385D01*
X45547Y-36472D01*
X45614Y-36538D01*
X45637Y-36548D01*
X45626Y-36558D01*
X45590Y-36645D01*
X45590Y-36739D01*
X45626Y-36826D01*
X45692Y-36893D01*
X45779Y-36929D01*
X45873Y-36929D01*
X45960Y-36893D01*
X46026Y-36826D01*
X46062Y-36740D01*
X46063Y-36646D01*
X46063Y-39251D01*
X44921Y-39251D01*
X44921Y-37502D01*
X44885Y-37415D01*
X44819Y-37349D01*
X44732Y-37313D01*
X44638Y-37312D01*
X44626Y-37318D01*
X44626Y-34701D01*
X44593Y-34621D01*
X44532Y-34560D01*
X44452Y-34527D01*
X44452Y-34527D01*
X44531Y-34494D01*
X44592Y-34433D01*
X44625Y-34354D01*
X44626Y-34268D01*
X44593Y-34188D01*
X44532Y-34127D01*
X44452Y-34094D01*
X44452Y-34094D01*
X44531Y-34061D01*
X44592Y-34000D01*
X44625Y-33921D01*
X44626Y-33835D01*
X44593Y-33755D01*
X44532Y-33694D01*
X44452Y-33661D01*
X44366Y-33661D01*
X44286Y-33694D01*
X44225Y-33755D01*
X44192Y-33834D01*
X44192Y-33835D01*
X44160Y-33755D01*
X44099Y-33694D01*
X44019Y-33661D01*
X43933Y-33661D01*
X43853Y-33694D01*
X43792Y-33755D01*
X43759Y-33834D01*
X43759Y-33835D01*
X43726Y-33755D01*
X43666Y-33694D01*
X43586Y-33661D01*
X43500Y-33661D01*
X43420Y-33694D01*
X43359Y-33755D01*
X43326Y-33834D01*
X43326Y-33835D01*
X43293Y-33755D01*
X43233Y-33694D01*
X43153Y-33661D01*
X43067Y-33661D01*
X42987Y-33694D01*
X42926Y-33755D01*
X42893Y-33834D01*
X42893Y-33835D01*
X42860Y-33755D01*
X42799Y-33694D01*
X42720Y-33661D01*
X42634Y-33661D01*
X42554Y-33694D01*
X42493Y-33755D01*
X42460Y-33834D01*
X42460Y-33920D01*
X42493Y-34000D01*
X42554Y-34061D01*
X42633Y-34094D01*
X42720Y-34094D01*
X42634Y-34094D01*
X42554Y-34127D01*
X42493Y-34188D01*
X42460Y-34267D01*
X42460Y-34353D01*
X42493Y-34433D01*
X42554Y-34494D01*
X42633Y-34527D01*
X42720Y-34527D01*
X42634Y-34527D01*
X42554Y-34560D01*
X42493Y-34621D01*
X42460Y-34700D01*
X42460Y-34786D01*
X42493Y-34866D01*
X42554Y-34927D01*
X42633Y-34960D01*
X42720Y-34960D01*
X42634Y-34960D01*
X42554Y-34993D01*
X42493Y-35054D01*
X42460Y-35133D01*
X42460Y-35220D01*
X42493Y-35299D01*
X42554Y-35360D01*
X42633Y-35393D01*
X42720Y-35393D01*
X42634Y-35393D01*
X42554Y-35426D01*
X42493Y-35487D01*
X42460Y-35566D01*
X42460Y-35653D01*
X42493Y-35732D01*
X42554Y-35793D01*
X42633Y-35826D01*
X42720Y-35826D01*
X42799Y-35793D01*
X42860Y-35733D01*
X42893Y-35653D01*
X42893Y-35567D01*
X42893Y-35653D01*
X42926Y-35732D01*
X42987Y-35793D01*
X43066Y-35826D01*
X43153Y-35826D01*
X43232Y-35793D01*
X43293Y-35733D01*
X43323Y-35660D01*
X43349Y-35722D01*
X43410Y-35783D01*
X43490Y-35816D01*
X43576Y-35816D01*
X43655Y-35784D01*
X43716Y-35723D01*
X43749Y-35643D01*
X43750Y-35557D01*
X43749Y-35643D01*
X43782Y-35722D01*
X43843Y-35783D01*
X43923Y-35816D01*
X44009Y-35816D01*
X44089Y-35784D01*
X44149Y-35723D01*
X44183Y-35643D01*
X44183Y-35557D01*
X44183Y-35643D01*
X44215Y-35722D01*
X44276Y-35783D01*
X44356Y-35816D01*
X44442Y-35816D01*
X44522Y-35784D01*
X44583Y-35723D01*
X44616Y-35643D01*
X44616Y-35557D01*
X44583Y-35477D01*
X44522Y-35416D01*
X44442Y-35383D01*
X44442Y-35383D01*
X44522Y-35350D01*
X44583Y-35290D01*
X44616Y-35210D01*
X44616Y-35124D01*
X44583Y-35044D01*
X44522Y-34983D01*
X44459Y-34957D01*
X44531Y-34927D01*
X44592Y-34866D01*
X44625Y-34787D01*
X44626Y-34701D01*
X44626Y-37318D01*
X44551Y-37348D01*
X44484Y-37415D01*
X44448Y-37502D01*
X44448Y-37595D01*
X44484Y-37682D01*
X44551Y-37749D01*
X44637Y-37785D01*
X44731Y-37785D01*
X44818Y-37749D01*
X44885Y-37683D01*
X44921Y-37596D01*
X44921Y-37502D01*
X44921Y-39251D01*
X42933Y-39251D01*
X42933Y-37550D01*
X42897Y-37463D01*
X42830Y-37397D01*
X42744Y-37361D01*
X42650Y-37361D01*
X42563Y-37397D01*
X42496Y-37463D01*
X42460Y-37550D01*
X42460Y-37644D01*
X42496Y-37731D01*
X42562Y-37797D01*
X42649Y-37833D01*
X42743Y-37833D01*
X42830Y-37797D01*
X42896Y-37731D01*
X42933Y-37644D01*
X42933Y-37550D01*
X42933Y-39251D01*
X41850Y-39251D01*
X41850Y-38245D01*
X41742Y-37984D01*
X41543Y-37785D01*
X41338Y-37700D01*
X41338Y-36154D01*
X41302Y-36067D01*
X41299Y-36063D01*
X41299Y-34402D01*
X41263Y-34315D01*
X41196Y-34248D01*
X41110Y-34212D01*
X41016Y-34212D01*
X40929Y-34248D01*
X40862Y-34314D01*
X40826Y-34401D01*
X40826Y-34402D01*
X40790Y-34315D01*
X40728Y-34252D01*
X40728Y-31370D01*
X40692Y-31283D01*
X40626Y-31217D01*
X40539Y-31181D01*
X40445Y-31181D01*
X40358Y-31216D01*
X40291Y-31283D01*
X40255Y-31370D01*
X40255Y-31464D01*
X40291Y-31550D01*
X40358Y-31617D01*
X40444Y-31653D01*
X40538Y-31653D01*
X40625Y-31617D01*
X40692Y-31551D01*
X40728Y-31464D01*
X40728Y-31370D01*
X40728Y-34252D01*
X40724Y-34248D01*
X40637Y-34212D01*
X40543Y-34212D01*
X40456Y-34248D01*
X40390Y-34314D01*
X40354Y-34401D01*
X40354Y-34495D01*
X40390Y-34582D01*
X40456Y-34648D01*
X40543Y-34684D01*
X40637Y-34685D01*
X40724Y-34649D01*
X40790Y-34582D01*
X40826Y-34496D01*
X40826Y-34495D01*
X40862Y-34582D01*
X40929Y-34648D01*
X41015Y-34684D01*
X41109Y-34685D01*
X41196Y-34649D01*
X41263Y-34582D01*
X41299Y-34496D01*
X41299Y-34402D01*
X41299Y-36063D01*
X41236Y-36000D01*
X41149Y-35964D01*
X41055Y-35964D01*
X40968Y-36000D01*
X40902Y-36066D01*
X40866Y-36153D01*
X40866Y-36247D01*
X40901Y-36334D01*
X40968Y-36400D01*
X41055Y-36436D01*
X41149Y-36437D01*
X41235Y-36401D01*
X41302Y-36334D01*
X41338Y-36247D01*
X41338Y-36154D01*
X41338Y-37700D01*
X41283Y-37677D01*
X41001Y-37677D01*
X40905Y-37716D01*
X40905Y-36685D01*
X40869Y-36598D01*
X40803Y-36532D01*
X40716Y-36496D01*
X40622Y-36496D01*
X40535Y-36531D01*
X40469Y-36598D01*
X40433Y-36685D01*
X40433Y-36779D01*
X40468Y-36865D01*
X40535Y-36932D01*
X40622Y-36968D01*
X40716Y-36968D01*
X40802Y-36932D01*
X40869Y-36866D01*
X40905Y-36779D01*
X40905Y-36685D01*
X40905Y-37716D01*
X40740Y-37784D01*
X40541Y-37983D01*
X40433Y-38244D01*
X40432Y-38526D01*
X40540Y-38786D01*
X40739Y-38986D01*
X41000Y-39094D01*
X41282Y-39094D01*
X41542Y-38986D01*
X41742Y-38787D01*
X41850Y-38527D01*
X41850Y-38245D01*
X41850Y-39251D01*
X40196Y-39251D01*
X40196Y-35405D01*
X40196Y-33811D01*
X40161Y-33724D01*
X40118Y-33681D01*
X40118Y-31744D01*
X40118Y-31075D01*
X40082Y-30988D01*
X40015Y-30921D01*
X39929Y-30885D01*
X39835Y-30885D01*
X39748Y-30921D01*
X39681Y-30988D01*
X39645Y-31074D01*
X39645Y-31168D01*
X39681Y-31255D01*
X39747Y-31322D01*
X39834Y-31358D01*
X39928Y-31358D01*
X40015Y-31322D01*
X40082Y-31256D01*
X40118Y-31169D01*
X40118Y-31075D01*
X40118Y-31744D01*
X40082Y-31657D01*
X40015Y-31591D01*
X39929Y-31555D01*
X39835Y-31555D01*
X39748Y-31590D01*
X39681Y-31657D01*
X39645Y-31744D01*
X39645Y-31838D01*
X39681Y-31924D01*
X39747Y-31991D01*
X39834Y-32027D01*
X39928Y-32027D01*
X40015Y-31991D01*
X40082Y-31925D01*
X40118Y-31838D01*
X40118Y-31744D01*
X40118Y-33681D01*
X40094Y-33658D01*
X40007Y-33622D01*
X39913Y-33622D01*
X39826Y-33657D01*
X39760Y-33724D01*
X39724Y-33811D01*
X39724Y-33905D01*
X39760Y-33991D01*
X39826Y-34058D01*
X39913Y-34094D01*
X40007Y-34094D01*
X40094Y-34058D01*
X40160Y-33992D01*
X40196Y-33905D01*
X40196Y-33811D01*
X40196Y-35405D01*
X40161Y-35319D01*
X40094Y-35252D01*
X40007Y-35216D01*
X39913Y-35216D01*
X39826Y-35252D01*
X39760Y-35318D01*
X39724Y-35405D01*
X39724Y-35499D01*
X39760Y-35586D01*
X39826Y-35652D01*
X39913Y-35688D01*
X40007Y-35689D01*
X40094Y-35653D01*
X40160Y-35586D01*
X40196Y-35499D01*
X40196Y-35405D01*
X40196Y-39251D01*
X39488Y-39251D01*
X39488Y-29566D01*
X53533Y-29566D01*
X53533Y-32066D01*
X53544Y-32123D01*
X53576Y-32171D01*
X53624Y-32203D01*
X53641Y-32206D01*
X53641Y-36690D01*
G54D10*
G36*
X48858Y-33779D02*
X47874Y-33779D01*
X47874Y-33090D01*
X48858Y-33090D01*
X48858Y-33779D01*
X48858Y-33779D01*
G37*
G54D18*
X48858Y-33779D02*
X47874Y-33779D01*
X47874Y-33090D01*
X48858Y-33090D01*
X48858Y-33779D01*
M02*
