G04 (created by PCBNEW (2013-mar-13)-testing) date Thu 25 Jul 2013 04:42:25 PM ICT*
%MOIN*%
G04 Gerber Fmt 3.4, Leading zero omitted, Abs format*
%FSLAX34Y34*%
G01*
G70*
G90*
G04 APERTURE LIST*
%ADD10C,0.00393701*%
%ADD11C,0.00590551*%
%ADD12R,0.0629921X0.0314961*%
%ADD13R,0.0314961X0.0314961*%
%ADD14C,0.11811*%
%ADD15R,0.5X0.05*%
%ADD16R,0.472441X0.05*%
%ADD17C,0.023622*%
%ADD18C,0.019685*%
%ADD19C,0.0314961*%
%ADD20C,0.011811*%
%ADD21C,0.0314961*%
%ADD22C,0.019685*%
%ADD23C,0.00787402*%
G04 APERTURE END LIST*
G54D10*
X39370Y-39370D02*
X39370Y-29527D01*
G54D11*
X53681Y-32066D02*
X53681Y-29527D01*
X59055Y-32066D02*
X53681Y-32066D01*
X53681Y-36830D02*
X53681Y-39370D01*
X59055Y-36830D02*
X53681Y-36830D01*
G54D10*
X59055Y-32066D02*
X59055Y-36830D01*
X53681Y-39370D02*
X39370Y-39370D01*
G54D12*
X53277Y-36564D03*
X53277Y-35856D03*
X53287Y-33612D03*
X53287Y-32903D03*
G54D13*
X39881Y-32381D03*
X39881Y-31791D03*
X39881Y-30531D03*
X39881Y-31122D03*
G54D14*
X51811Y-30511D03*
X41141Y-38385D03*
G54D15*
X56279Y-35948D03*
X56279Y-32948D03*
G54D16*
X56157Y-34023D03*
X56157Y-34874D03*
G54D17*
X47322Y-34016D03*
X46417Y-34527D03*
X46141Y-32047D03*
X45669Y-34055D03*
X47204Y-30984D03*
X49842Y-31259D03*
X53070Y-34035D03*
X52814Y-34291D03*
X45748Y-36338D03*
X49015Y-34881D03*
X45826Y-36692D03*
X49409Y-34881D03*
X45196Y-30472D03*
X51811Y-32362D03*
X46181Y-30472D03*
X51850Y-32007D03*
X41456Y-30531D03*
X50000Y-30393D03*
X41555Y-32362D03*
X48661Y-32047D03*
X49094Y-31692D03*
X50118Y-34803D03*
X46023Y-31692D03*
X48661Y-31653D03*
X49409Y-33346D03*
X50236Y-33385D03*
X46220Y-30984D03*
X50748Y-33720D03*
X49291Y-33622D03*
X42736Y-30708D03*
X44724Y-30984D03*
X40590Y-34448D03*
X41102Y-36200D03*
X50472Y-33582D03*
X51062Y-33622D03*
X40669Y-36732D03*
X39960Y-33858D03*
X51574Y-33267D03*
X46496Y-32874D03*
X47952Y-35629D03*
X52165Y-35826D03*
G54D18*
X48720Y-33641D03*
X47992Y-33661D03*
X48700Y-33208D03*
X48011Y-33208D03*
X48365Y-33425D03*
G54D19*
X53149Y-36279D03*
G54D17*
X52185Y-33346D03*
X44685Y-37549D03*
X40492Y-31417D03*
X41062Y-34448D03*
X39960Y-35452D03*
X42086Y-32125D03*
X50748Y-30275D03*
X52244Y-32637D03*
X46299Y-35314D03*
X43149Y-30039D03*
X44744Y-31496D03*
X46555Y-31062D03*
G54D18*
X43976Y-34744D03*
X44409Y-34744D03*
X44409Y-34311D03*
X44409Y-33877D03*
X43976Y-33877D03*
X43976Y-34311D03*
X43543Y-34744D03*
X43533Y-34734D03*
X43966Y-35167D03*
X44399Y-35167D03*
X44399Y-35600D03*
X43966Y-35600D03*
X43533Y-35600D03*
X43533Y-35167D03*
X43110Y-34744D03*
X42677Y-34744D03*
X42677Y-35177D03*
X42677Y-35610D03*
X43110Y-35610D03*
X43110Y-35177D03*
X43543Y-34744D03*
X43543Y-34744D03*
X43110Y-34311D03*
X42677Y-34311D03*
X42677Y-33877D03*
X43110Y-33877D03*
X43543Y-33877D03*
X43543Y-34311D03*
G54D17*
X46456Y-33740D03*
X42696Y-37597D03*
G54D18*
X51259Y-36397D03*
X51259Y-36948D03*
X50826Y-36948D03*
X50393Y-36948D03*
X50393Y-36397D03*
X50826Y-36397D03*
G54D17*
X47834Y-32007D03*
X39881Y-31122D03*
X39881Y-31791D03*
G54D19*
X49438Y-37923D03*
X51082Y-38149D03*
G54D17*
X45314Y-31692D03*
X43740Y-31811D03*
X47755Y-29881D03*
X40059Y-36515D03*
X42145Y-30905D03*
X42480Y-32637D03*
X50354Y-30275D03*
X44055Y-37795D03*
X45629Y-31771D03*
X43464Y-31614D03*
X42165Y-37125D03*
G54D19*
X52224Y-37401D03*
G54D20*
X56145Y-34035D02*
X56157Y-34023D01*
X53070Y-34035D02*
X56145Y-34035D01*
X53208Y-34291D02*
X52814Y-34291D01*
X56157Y-34874D02*
X56149Y-34881D01*
X53208Y-34291D02*
X53543Y-34704D01*
X54409Y-34704D02*
X56149Y-34881D01*
X53543Y-34704D02*
X54409Y-34704D01*
X39881Y-30531D02*
X41456Y-30531D01*
X39881Y-32381D02*
X41535Y-32381D01*
X41535Y-32381D02*
X41555Y-32362D01*
X39881Y-32391D02*
X39881Y-32381D01*
G54D21*
X53277Y-36564D02*
X53277Y-36407D01*
X53277Y-36407D02*
X53149Y-36279D01*
G54D20*
X44685Y-37549D02*
X44685Y-37559D01*
X40492Y-31417D02*
X40511Y-31417D01*
X40000Y-35472D02*
X39980Y-35472D01*
X39980Y-35472D02*
X39960Y-35452D01*
X42086Y-32125D02*
X42086Y-32165D01*
X43976Y-34744D02*
X44409Y-34744D01*
X44409Y-34311D02*
X44409Y-33877D01*
X43976Y-34311D02*
X43976Y-33877D01*
X43966Y-35167D02*
X44399Y-35167D01*
X43966Y-35600D02*
X44399Y-35600D01*
X43533Y-35167D02*
X43533Y-35600D01*
X43110Y-34744D02*
X42677Y-34744D01*
X42677Y-35177D02*
X42677Y-35610D01*
X43110Y-35177D02*
X43110Y-35610D01*
X43110Y-34311D02*
X42677Y-34311D01*
X43110Y-33877D02*
X42677Y-33877D01*
X43543Y-34311D02*
X43543Y-33877D01*
X42696Y-37597D02*
X42696Y-37618D01*
X51259Y-36948D02*
X51259Y-36397D01*
X50393Y-36948D02*
X50826Y-36948D01*
X50826Y-36397D02*
X50393Y-36397D01*
G54D22*
X56279Y-35948D02*
X53370Y-35948D01*
X53370Y-35948D02*
X53277Y-35856D01*
X56279Y-35948D02*
X56377Y-35944D01*
X56279Y-32948D02*
X53332Y-32948D01*
X53332Y-32948D02*
X53287Y-32903D01*
G54D10*
G36*
X53582Y-35580D02*
X53569Y-35580D01*
X52939Y-35580D01*
X52895Y-35598D01*
X52862Y-35631D01*
X52844Y-35675D01*
X52844Y-35722D01*
X52844Y-36037D01*
X52862Y-36080D01*
X52895Y-36113D01*
X52916Y-36122D01*
X52916Y-36123D01*
X52894Y-36174D01*
X52894Y-36174D01*
X52894Y-36174D01*
X52874Y-36224D01*
X52873Y-36329D01*
X52862Y-36340D01*
X52844Y-36383D01*
X52844Y-36430D01*
X52844Y-36745D01*
X52862Y-36789D01*
X52895Y-36822D01*
X52939Y-36840D01*
X52985Y-36840D01*
X53533Y-36840D01*
X53533Y-39251D01*
X52519Y-39251D01*
X52519Y-30371D01*
X52412Y-30110D01*
X52212Y-29911D01*
X51952Y-29803D01*
X51670Y-29803D01*
X51410Y-29910D01*
X51210Y-30109D01*
X51102Y-30370D01*
X51102Y-30652D01*
X51209Y-30912D01*
X51409Y-31112D01*
X51669Y-31220D01*
X51951Y-31220D01*
X52211Y-31112D01*
X52411Y-30913D01*
X52519Y-30653D01*
X52519Y-30371D01*
X52519Y-39251D01*
X52500Y-39251D01*
X52500Y-37346D01*
X52458Y-37245D01*
X52401Y-37188D01*
X52401Y-35779D01*
X52365Y-35693D01*
X52299Y-35626D01*
X52212Y-35590D01*
X52118Y-35590D01*
X52086Y-35603D01*
X52086Y-31961D01*
X52050Y-31874D01*
X51984Y-31807D01*
X51897Y-31771D01*
X51803Y-31771D01*
X51716Y-31807D01*
X51650Y-31873D01*
X51614Y-31960D01*
X51614Y-32054D01*
X51650Y-32141D01*
X51673Y-32165D01*
X51610Y-32228D01*
X51574Y-32315D01*
X51574Y-32408D01*
X51610Y-32495D01*
X51677Y-32562D01*
X51763Y-32598D01*
X51857Y-32598D01*
X51944Y-32562D01*
X52011Y-32496D01*
X52047Y-32409D01*
X52047Y-32315D01*
X52011Y-32228D01*
X51987Y-32204D01*
X52050Y-32141D01*
X52086Y-32055D01*
X52086Y-31961D01*
X52086Y-35603D01*
X52031Y-35626D01*
X51965Y-35692D01*
X51929Y-35779D01*
X51929Y-35873D01*
X51964Y-35960D01*
X52031Y-36026D01*
X52118Y-36062D01*
X52212Y-36063D01*
X52298Y-36027D01*
X52365Y-35960D01*
X52401Y-35873D01*
X52401Y-35779D01*
X52401Y-37188D01*
X52380Y-37168D01*
X52279Y-37126D01*
X52169Y-37125D01*
X52068Y-37167D01*
X51990Y-37245D01*
X51948Y-37346D01*
X51948Y-37456D01*
X51990Y-37557D01*
X52068Y-37635D01*
X52169Y-37677D01*
X52279Y-37677D01*
X52380Y-37635D01*
X52457Y-37557D01*
X52500Y-37456D01*
X52500Y-37346D01*
X52500Y-39251D01*
X51811Y-39251D01*
X51811Y-33220D01*
X51775Y-33134D01*
X51708Y-33067D01*
X51621Y-33031D01*
X51528Y-33031D01*
X51441Y-33067D01*
X51374Y-33133D01*
X51338Y-33220D01*
X51338Y-33314D01*
X51374Y-33401D01*
X51440Y-33467D01*
X51527Y-33503D01*
X51621Y-33503D01*
X51708Y-33468D01*
X51774Y-33401D01*
X51810Y-33314D01*
X51811Y-33220D01*
X51811Y-39251D01*
X51358Y-39251D01*
X51358Y-38095D01*
X51316Y-37993D01*
X51299Y-37976D01*
X51299Y-33575D01*
X51263Y-33488D01*
X51196Y-33421D01*
X51110Y-33385D01*
X51016Y-33385D01*
X50929Y-33421D01*
X50862Y-33488D01*
X50854Y-33508D01*
X50795Y-33484D01*
X50701Y-33484D01*
X50689Y-33489D01*
X50672Y-33449D01*
X50606Y-33382D01*
X50590Y-33375D01*
X50590Y-30228D01*
X50554Y-30141D01*
X50488Y-30075D01*
X50401Y-30039D01*
X50307Y-30039D01*
X50220Y-30075D01*
X50154Y-30141D01*
X50132Y-30193D01*
X50047Y-30157D01*
X49953Y-30157D01*
X49866Y-30193D01*
X49799Y-30259D01*
X49763Y-30346D01*
X49763Y-30440D01*
X49799Y-30527D01*
X49866Y-30593D01*
X49952Y-30629D01*
X50046Y-30629D01*
X50133Y-30594D01*
X50200Y-30527D01*
X50221Y-30476D01*
X50307Y-30511D01*
X50401Y-30511D01*
X50487Y-30475D01*
X50554Y-30409D01*
X50590Y-30322D01*
X50590Y-30228D01*
X50590Y-33375D01*
X50519Y-33346D01*
X50472Y-33346D01*
X50472Y-33339D01*
X50436Y-33252D01*
X50370Y-33185D01*
X50283Y-33149D01*
X50189Y-33149D01*
X50102Y-33185D01*
X50078Y-33209D01*
X50078Y-31213D01*
X50042Y-31126D01*
X49976Y-31059D01*
X49889Y-31023D01*
X49795Y-31023D01*
X49708Y-31059D01*
X49642Y-31125D01*
X49606Y-31212D01*
X49606Y-31306D01*
X49642Y-31393D01*
X49708Y-31459D01*
X49795Y-31496D01*
X49889Y-31496D01*
X49976Y-31460D01*
X50042Y-31393D01*
X50078Y-31307D01*
X50078Y-31213D01*
X50078Y-33209D01*
X50036Y-33251D01*
X50000Y-33338D01*
X49999Y-33432D01*
X50035Y-33519D01*
X50102Y-33585D01*
X50189Y-33622D01*
X50236Y-33622D01*
X50236Y-33629D01*
X50272Y-33716D01*
X50338Y-33782D01*
X50425Y-33818D01*
X50519Y-33818D01*
X50531Y-33814D01*
X50547Y-33854D01*
X50614Y-33920D01*
X50700Y-33956D01*
X50794Y-33956D01*
X50881Y-33920D01*
X50948Y-33854D01*
X50956Y-33833D01*
X51015Y-33858D01*
X51109Y-33858D01*
X51196Y-33822D01*
X51263Y-33756D01*
X51299Y-33669D01*
X51299Y-33575D01*
X51299Y-37976D01*
X51238Y-37916D01*
X51137Y-37874D01*
X51028Y-37873D01*
X50926Y-37915D01*
X50849Y-37993D01*
X50807Y-38094D01*
X50807Y-38204D01*
X50848Y-38305D01*
X50926Y-38383D01*
X51027Y-38425D01*
X51137Y-38425D01*
X51238Y-38383D01*
X51316Y-38305D01*
X51358Y-38204D01*
X51358Y-38095D01*
X51358Y-39251D01*
X50354Y-39251D01*
X50354Y-34756D01*
X50318Y-34669D01*
X50252Y-34603D01*
X50165Y-34566D01*
X50071Y-34566D01*
X49984Y-34602D01*
X49917Y-34669D01*
X49881Y-34755D01*
X49881Y-34849D01*
X49917Y-34936D01*
X49984Y-35003D01*
X50070Y-35039D01*
X50164Y-35039D01*
X50251Y-35003D01*
X50318Y-34937D01*
X50354Y-34850D01*
X50354Y-34756D01*
X50354Y-39251D01*
X49714Y-39251D01*
X49714Y-37868D01*
X49672Y-37767D01*
X49645Y-37740D01*
X49645Y-34835D01*
X49645Y-33299D01*
X49609Y-33212D01*
X49543Y-33146D01*
X49456Y-33110D01*
X49362Y-33110D01*
X49330Y-33123D01*
X49330Y-31646D01*
X49294Y-31559D01*
X49228Y-31492D01*
X49141Y-31456D01*
X49047Y-31456D01*
X48960Y-31492D01*
X48894Y-31558D01*
X48886Y-31578D01*
X48861Y-31519D01*
X48795Y-31453D01*
X48708Y-31417D01*
X48614Y-31417D01*
X48527Y-31453D01*
X48461Y-31519D01*
X48425Y-31606D01*
X48425Y-31700D01*
X48461Y-31787D01*
X48524Y-31850D01*
X48461Y-31913D01*
X48425Y-32000D01*
X48425Y-32094D01*
X48461Y-32180D01*
X48527Y-32247D01*
X48614Y-32283D01*
X48708Y-32283D01*
X48795Y-32247D01*
X48861Y-32181D01*
X48897Y-32094D01*
X48897Y-32000D01*
X48861Y-31913D01*
X48798Y-31850D01*
X48861Y-31787D01*
X48869Y-31767D01*
X48894Y-31826D01*
X48960Y-31893D01*
X49047Y-31929D01*
X49141Y-31929D01*
X49228Y-31893D01*
X49294Y-31826D01*
X49330Y-31740D01*
X49330Y-31646D01*
X49330Y-33123D01*
X49275Y-33146D01*
X49209Y-33212D01*
X49173Y-33299D01*
X49173Y-33393D01*
X49180Y-33412D01*
X49157Y-33421D01*
X49091Y-33488D01*
X49055Y-33574D01*
X49055Y-33668D01*
X49090Y-33755D01*
X49157Y-33822D01*
X49244Y-33858D01*
X49338Y-33858D01*
X49424Y-33822D01*
X49491Y-33756D01*
X49527Y-33669D01*
X49527Y-33575D01*
X49519Y-33556D01*
X49543Y-33546D01*
X49609Y-33480D01*
X49645Y-33393D01*
X49645Y-33299D01*
X49645Y-34835D01*
X49609Y-34748D01*
X49543Y-34681D01*
X49456Y-34645D01*
X49362Y-34645D01*
X49275Y-34681D01*
X49212Y-34744D01*
X49149Y-34681D01*
X49062Y-34645D01*
X48968Y-34645D01*
X48937Y-34658D01*
X48937Y-33598D01*
X48904Y-33519D01*
X48843Y-33458D01*
X48763Y-33425D01*
X48743Y-33425D01*
X48823Y-33392D01*
X48884Y-33331D01*
X48917Y-33251D01*
X48917Y-33165D01*
X48884Y-33086D01*
X48823Y-33025D01*
X48744Y-32992D01*
X48657Y-32992D01*
X48578Y-33024D01*
X48517Y-33085D01*
X48484Y-33165D01*
X48484Y-33239D01*
X48409Y-33208D01*
X48322Y-33208D01*
X48243Y-33241D01*
X48225Y-33259D01*
X48228Y-33251D01*
X48228Y-33165D01*
X48195Y-33086D01*
X48134Y-33025D01*
X48055Y-32992D01*
X47968Y-32992D01*
X47889Y-33024D01*
X47828Y-33085D01*
X47795Y-33165D01*
X47795Y-33251D01*
X47828Y-33331D01*
X47888Y-33392D01*
X47968Y-33425D01*
X48054Y-33425D01*
X48134Y-33392D01*
X48152Y-33374D01*
X48149Y-33381D01*
X48149Y-33468D01*
X48182Y-33547D01*
X48243Y-33608D01*
X48322Y-33641D01*
X48408Y-33641D01*
X48488Y-33608D01*
X48507Y-33589D01*
X48503Y-33598D01*
X48503Y-33684D01*
X48536Y-33764D01*
X48597Y-33825D01*
X48677Y-33858D01*
X48763Y-33858D01*
X48842Y-33825D01*
X48903Y-33764D01*
X48936Y-33684D01*
X48937Y-33598D01*
X48937Y-34658D01*
X48882Y-34681D01*
X48815Y-34747D01*
X48779Y-34834D01*
X48779Y-34928D01*
X48815Y-35015D01*
X48881Y-35082D01*
X48968Y-35118D01*
X49062Y-35118D01*
X49149Y-35082D01*
X49212Y-35019D01*
X49275Y-35082D01*
X49362Y-35118D01*
X49456Y-35118D01*
X49543Y-35082D01*
X49609Y-35015D01*
X49645Y-34929D01*
X49645Y-34835D01*
X49645Y-37740D01*
X49595Y-37689D01*
X49494Y-37647D01*
X49384Y-37647D01*
X49283Y-37689D01*
X49205Y-37766D01*
X49163Y-37868D01*
X49163Y-37977D01*
X49205Y-38079D01*
X49282Y-38156D01*
X49383Y-38198D01*
X49493Y-38198D01*
X49594Y-38156D01*
X49672Y-38079D01*
X49714Y-37978D01*
X49714Y-37868D01*
X49714Y-39251D01*
X48208Y-39251D01*
X48208Y-33618D01*
X48175Y-33538D01*
X48114Y-33477D01*
X48035Y-33444D01*
X47949Y-33444D01*
X47869Y-33477D01*
X47808Y-33538D01*
X47775Y-33618D01*
X47775Y-33704D01*
X47808Y-33783D01*
X47869Y-33844D01*
X47948Y-33877D01*
X48035Y-33877D01*
X48114Y-33845D01*
X48175Y-33784D01*
X48208Y-33704D01*
X48208Y-33618D01*
X48208Y-39251D01*
X48189Y-39251D01*
X48189Y-35583D01*
X48153Y-35496D01*
X48086Y-35429D01*
X47999Y-35393D01*
X47905Y-35393D01*
X47819Y-35429D01*
X47752Y-35495D01*
X47716Y-35582D01*
X47716Y-35676D01*
X47752Y-35763D01*
X47818Y-35830D01*
X47905Y-35866D01*
X47999Y-35866D01*
X48086Y-35830D01*
X48152Y-35763D01*
X48188Y-35677D01*
X48189Y-35583D01*
X48189Y-39251D01*
X47559Y-39251D01*
X47559Y-33969D01*
X47523Y-33882D01*
X47456Y-33816D01*
X47440Y-33809D01*
X47440Y-30937D01*
X47405Y-30850D01*
X47338Y-30784D01*
X47251Y-30748D01*
X47157Y-30747D01*
X47071Y-30783D01*
X47004Y-30850D01*
X46968Y-30937D01*
X46968Y-31031D01*
X47004Y-31117D01*
X47070Y-31184D01*
X47157Y-31220D01*
X47251Y-31220D01*
X47338Y-31184D01*
X47404Y-31118D01*
X47440Y-31031D01*
X47440Y-30937D01*
X47440Y-33809D01*
X47370Y-33780D01*
X47276Y-33779D01*
X47189Y-33815D01*
X47122Y-33882D01*
X47086Y-33969D01*
X47086Y-34062D01*
X47122Y-34149D01*
X47188Y-34216D01*
X47275Y-34252D01*
X47369Y-34252D01*
X47456Y-34216D01*
X47523Y-34150D01*
X47559Y-34063D01*
X47559Y-33969D01*
X47559Y-39251D01*
X46732Y-39251D01*
X46732Y-32827D01*
X46696Y-32740D01*
X46630Y-32673D01*
X46543Y-32637D01*
X46456Y-32637D01*
X46456Y-30937D01*
X46420Y-30850D01*
X46417Y-30847D01*
X46417Y-30425D01*
X46381Y-30338D01*
X46315Y-30272D01*
X46228Y-30236D01*
X46134Y-30236D01*
X46047Y-30272D01*
X45980Y-30338D01*
X45944Y-30425D01*
X45944Y-30519D01*
X45980Y-30606D01*
X46047Y-30672D01*
X46133Y-30708D01*
X46227Y-30708D01*
X46314Y-30672D01*
X46381Y-30606D01*
X46417Y-30519D01*
X46417Y-30425D01*
X46417Y-30847D01*
X46354Y-30784D01*
X46267Y-30748D01*
X46173Y-30747D01*
X46086Y-30783D01*
X46020Y-30850D01*
X45984Y-30937D01*
X45984Y-31031D01*
X46020Y-31117D01*
X46086Y-31184D01*
X46173Y-31220D01*
X46267Y-31220D01*
X46354Y-31184D01*
X46420Y-31118D01*
X46456Y-31031D01*
X46456Y-30937D01*
X46456Y-32637D01*
X46449Y-32637D01*
X46377Y-32667D01*
X46377Y-32000D01*
X46342Y-31913D01*
X46275Y-31847D01*
X46224Y-31825D01*
X46259Y-31740D01*
X46259Y-31646D01*
X46223Y-31559D01*
X46157Y-31492D01*
X46070Y-31456D01*
X45976Y-31456D01*
X45889Y-31492D01*
X45823Y-31558D01*
X45802Y-31609D01*
X45763Y-31571D01*
X45677Y-31535D01*
X45583Y-31535D01*
X45516Y-31562D01*
X45515Y-31559D01*
X45448Y-31492D01*
X45433Y-31486D01*
X45433Y-30425D01*
X45397Y-30338D01*
X45330Y-30272D01*
X45244Y-30236D01*
X45150Y-30236D01*
X45063Y-30272D01*
X44996Y-30338D01*
X44960Y-30425D01*
X44960Y-30519D01*
X44996Y-30606D01*
X45062Y-30672D01*
X45149Y-30708D01*
X45243Y-30708D01*
X45330Y-30672D01*
X45396Y-30606D01*
X45433Y-30519D01*
X45433Y-30425D01*
X45433Y-31486D01*
X45362Y-31456D01*
X45268Y-31456D01*
X45181Y-31492D01*
X45114Y-31558D01*
X45078Y-31645D01*
X45078Y-31739D01*
X45114Y-31826D01*
X45180Y-31893D01*
X45267Y-31929D01*
X45361Y-31929D01*
X45428Y-31901D01*
X45429Y-31905D01*
X45495Y-31971D01*
X45582Y-32007D01*
X45676Y-32007D01*
X45763Y-31972D01*
X45830Y-31905D01*
X45851Y-31854D01*
X45889Y-31893D01*
X45941Y-31914D01*
X45905Y-32000D01*
X45905Y-32094D01*
X45941Y-32180D01*
X46007Y-32247D01*
X46094Y-32283D01*
X46188Y-32283D01*
X46275Y-32247D01*
X46341Y-32181D01*
X46377Y-32094D01*
X46377Y-32000D01*
X46377Y-32667D01*
X46362Y-32673D01*
X46295Y-32740D01*
X46259Y-32826D01*
X46259Y-32920D01*
X46295Y-33007D01*
X46362Y-33074D01*
X46448Y-33110D01*
X46542Y-33110D01*
X46629Y-33074D01*
X46696Y-33007D01*
X46732Y-32921D01*
X46732Y-32827D01*
X46732Y-39251D01*
X46653Y-39251D01*
X46653Y-34480D01*
X46617Y-34393D01*
X46551Y-34327D01*
X46464Y-34291D01*
X46370Y-34291D01*
X46283Y-34327D01*
X46217Y-34393D01*
X46181Y-34480D01*
X46181Y-34574D01*
X46216Y-34661D01*
X46283Y-34727D01*
X46370Y-34763D01*
X46464Y-34763D01*
X46550Y-34727D01*
X46617Y-34661D01*
X46653Y-34574D01*
X46653Y-34480D01*
X46653Y-39251D01*
X46063Y-39251D01*
X46063Y-36646D01*
X46027Y-36559D01*
X45960Y-36492D01*
X45937Y-36483D01*
X45948Y-36472D01*
X45984Y-36385D01*
X45984Y-36291D01*
X45948Y-36204D01*
X45905Y-36162D01*
X45905Y-34008D01*
X45869Y-33921D01*
X45803Y-33854D01*
X45716Y-33818D01*
X45622Y-33818D01*
X45535Y-33854D01*
X45469Y-33921D01*
X45433Y-34007D01*
X45433Y-34101D01*
X45468Y-34188D01*
X45535Y-34255D01*
X45622Y-34291D01*
X45716Y-34291D01*
X45802Y-34255D01*
X45869Y-34189D01*
X45905Y-34102D01*
X45905Y-34008D01*
X45905Y-36162D01*
X45882Y-36138D01*
X45795Y-36102D01*
X45701Y-36102D01*
X45614Y-36138D01*
X45547Y-36204D01*
X45511Y-36291D01*
X45511Y-36385D01*
X45547Y-36472D01*
X45614Y-36538D01*
X45637Y-36548D01*
X45626Y-36558D01*
X45590Y-36645D01*
X45590Y-36739D01*
X45626Y-36826D01*
X45692Y-36893D01*
X45779Y-36929D01*
X45873Y-36929D01*
X45960Y-36893D01*
X46026Y-36826D01*
X46062Y-36740D01*
X46063Y-36646D01*
X46063Y-39251D01*
X44960Y-39251D01*
X44960Y-30937D01*
X44924Y-30850D01*
X44858Y-30784D01*
X44771Y-30748D01*
X44677Y-30747D01*
X44590Y-30783D01*
X44524Y-30850D01*
X44488Y-30937D01*
X44488Y-31031D01*
X44524Y-31117D01*
X44590Y-31184D01*
X44677Y-31220D01*
X44771Y-31220D01*
X44858Y-31184D01*
X44924Y-31118D01*
X44960Y-31031D01*
X44960Y-30937D01*
X44960Y-39251D01*
X44291Y-39251D01*
X44291Y-37748D01*
X44255Y-37661D01*
X44189Y-37595D01*
X44102Y-37559D01*
X44008Y-37559D01*
X43976Y-37572D01*
X43976Y-31764D01*
X43940Y-31677D01*
X43874Y-31610D01*
X43787Y-31574D01*
X43700Y-31574D01*
X43700Y-31567D01*
X43664Y-31480D01*
X43598Y-31414D01*
X43511Y-31377D01*
X43417Y-31377D01*
X43330Y-31413D01*
X43264Y-31480D01*
X43228Y-31566D01*
X43228Y-31660D01*
X43264Y-31747D01*
X43330Y-31814D01*
X43417Y-31850D01*
X43503Y-31850D01*
X43503Y-31857D01*
X43539Y-31944D01*
X43606Y-32011D01*
X43692Y-32047D01*
X43786Y-32047D01*
X43873Y-32011D01*
X43940Y-31945D01*
X43976Y-31858D01*
X43976Y-31764D01*
X43976Y-37572D01*
X43921Y-37594D01*
X43854Y-37661D01*
X43818Y-37748D01*
X43818Y-37842D01*
X43854Y-37928D01*
X43921Y-37995D01*
X44007Y-38031D01*
X44101Y-38031D01*
X44188Y-37995D01*
X44255Y-37929D01*
X44291Y-37842D01*
X44291Y-37748D01*
X44291Y-39251D01*
X42972Y-39251D01*
X42972Y-30661D01*
X42936Y-30575D01*
X42870Y-30508D01*
X42783Y-30472D01*
X42689Y-30472D01*
X42602Y-30508D01*
X42536Y-30574D01*
X42500Y-30661D01*
X42499Y-30755D01*
X42535Y-30842D01*
X42602Y-30908D01*
X42689Y-30944D01*
X42783Y-30944D01*
X42869Y-30909D01*
X42936Y-30842D01*
X42972Y-30755D01*
X42972Y-30661D01*
X42972Y-39251D01*
X42716Y-39251D01*
X42716Y-32591D01*
X42680Y-32504D01*
X42614Y-32437D01*
X42527Y-32401D01*
X42433Y-32401D01*
X42381Y-32422D01*
X42381Y-30858D01*
X42346Y-30771D01*
X42279Y-30705D01*
X42192Y-30669D01*
X42098Y-30669D01*
X42012Y-30705D01*
X41945Y-30771D01*
X41909Y-30858D01*
X41909Y-30952D01*
X41945Y-31039D01*
X42011Y-31105D01*
X42098Y-31141D01*
X42192Y-31141D01*
X42279Y-31105D01*
X42345Y-31039D01*
X42381Y-30952D01*
X42381Y-30858D01*
X42381Y-32422D01*
X42346Y-32437D01*
X42280Y-32503D01*
X42244Y-32590D01*
X42244Y-32684D01*
X42279Y-32771D01*
X42346Y-32837D01*
X42433Y-32873D01*
X42527Y-32874D01*
X42613Y-32838D01*
X42680Y-32771D01*
X42716Y-32684D01*
X42716Y-32591D01*
X42716Y-39251D01*
X42401Y-39251D01*
X42401Y-37079D01*
X42365Y-36992D01*
X42299Y-36925D01*
X42212Y-36889D01*
X42118Y-36889D01*
X42031Y-36925D01*
X41965Y-36992D01*
X41929Y-37078D01*
X41929Y-37172D01*
X41964Y-37259D01*
X42031Y-37326D01*
X42118Y-37362D01*
X42212Y-37362D01*
X42298Y-37326D01*
X42365Y-37259D01*
X42401Y-37173D01*
X42401Y-37079D01*
X42401Y-39251D01*
X41850Y-39251D01*
X41850Y-38245D01*
X41791Y-38102D01*
X41791Y-32315D01*
X41755Y-32228D01*
X41692Y-32165D01*
X41692Y-30484D01*
X41657Y-30397D01*
X41590Y-30331D01*
X41503Y-30295D01*
X41409Y-30295D01*
X41323Y-30331D01*
X41299Y-30354D01*
X40157Y-30354D01*
X40157Y-30350D01*
X40139Y-30307D01*
X40106Y-30273D01*
X40062Y-30255D01*
X40015Y-30255D01*
X39701Y-30255D01*
X39657Y-30273D01*
X39624Y-30307D01*
X39606Y-30350D01*
X39606Y-30397D01*
X39606Y-30712D01*
X39624Y-30755D01*
X39657Y-30789D01*
X39700Y-30807D01*
X39747Y-30807D01*
X40062Y-30807D01*
X40106Y-30789D01*
X40139Y-30755D01*
X40157Y-30712D01*
X40157Y-30708D01*
X41299Y-30708D01*
X41322Y-30731D01*
X41409Y-30767D01*
X41503Y-30767D01*
X41590Y-30731D01*
X41656Y-30665D01*
X41692Y-30578D01*
X41692Y-30484D01*
X41692Y-32165D01*
X41689Y-32162D01*
X41602Y-32126D01*
X41508Y-32125D01*
X41421Y-32161D01*
X41378Y-32204D01*
X40157Y-32204D01*
X40157Y-32201D01*
X40157Y-31925D01*
X40157Y-31610D01*
X40157Y-31256D01*
X40157Y-30941D01*
X40139Y-30897D01*
X40106Y-30864D01*
X40062Y-30846D01*
X40015Y-30846D01*
X39701Y-30846D01*
X39657Y-30864D01*
X39624Y-30897D01*
X39606Y-30940D01*
X39606Y-30987D01*
X39606Y-31302D01*
X39624Y-31346D01*
X39657Y-31379D01*
X39700Y-31397D01*
X39747Y-31397D01*
X40062Y-31397D01*
X40106Y-31379D01*
X40139Y-31346D01*
X40157Y-31303D01*
X40157Y-31256D01*
X40157Y-31610D01*
X40139Y-31567D01*
X40106Y-31533D01*
X40062Y-31515D01*
X40015Y-31515D01*
X39701Y-31515D01*
X39657Y-31533D01*
X39624Y-31566D01*
X39606Y-31610D01*
X39606Y-31657D01*
X39606Y-31972D01*
X39624Y-32015D01*
X39657Y-32048D01*
X39700Y-32066D01*
X39747Y-32066D01*
X40062Y-32066D01*
X40106Y-32049D01*
X40139Y-32015D01*
X40157Y-31972D01*
X40157Y-31925D01*
X40157Y-32201D01*
X40139Y-32157D01*
X40106Y-32124D01*
X40062Y-32106D01*
X40015Y-32106D01*
X39701Y-32106D01*
X39657Y-32124D01*
X39624Y-32157D01*
X39606Y-32200D01*
X39606Y-32247D01*
X39606Y-32562D01*
X39624Y-32606D01*
X39657Y-32639D01*
X39700Y-32657D01*
X39747Y-32657D01*
X40062Y-32657D01*
X40106Y-32639D01*
X40139Y-32606D01*
X40157Y-32562D01*
X40157Y-32559D01*
X41417Y-32559D01*
X41421Y-32562D01*
X41507Y-32598D01*
X41601Y-32598D01*
X41688Y-32562D01*
X41755Y-32496D01*
X41791Y-32409D01*
X41791Y-32315D01*
X41791Y-38102D01*
X41742Y-37984D01*
X41543Y-37785D01*
X41338Y-37700D01*
X41338Y-36154D01*
X41302Y-36067D01*
X41236Y-36000D01*
X41149Y-35964D01*
X41055Y-35964D01*
X40968Y-36000D01*
X40902Y-36066D01*
X40866Y-36153D01*
X40866Y-36247D01*
X40901Y-36334D01*
X40968Y-36400D01*
X41055Y-36436D01*
X41149Y-36437D01*
X41235Y-36401D01*
X41302Y-36334D01*
X41338Y-36247D01*
X41338Y-36154D01*
X41338Y-37700D01*
X41283Y-37677D01*
X41001Y-37677D01*
X40905Y-37716D01*
X40905Y-36685D01*
X40869Y-36598D01*
X40826Y-36555D01*
X40826Y-34402D01*
X40790Y-34315D01*
X40724Y-34248D01*
X40637Y-34212D01*
X40543Y-34212D01*
X40456Y-34248D01*
X40390Y-34314D01*
X40354Y-34401D01*
X40354Y-34495D01*
X40390Y-34582D01*
X40456Y-34648D01*
X40543Y-34684D01*
X40637Y-34685D01*
X40724Y-34649D01*
X40790Y-34582D01*
X40826Y-34496D01*
X40826Y-34402D01*
X40826Y-36555D01*
X40803Y-36532D01*
X40716Y-36496D01*
X40622Y-36496D01*
X40535Y-36531D01*
X40469Y-36598D01*
X40433Y-36685D01*
X40433Y-36779D01*
X40468Y-36865D01*
X40535Y-36932D01*
X40622Y-36968D01*
X40716Y-36968D01*
X40802Y-36932D01*
X40869Y-36866D01*
X40905Y-36779D01*
X40905Y-36685D01*
X40905Y-37716D01*
X40740Y-37784D01*
X40541Y-37983D01*
X40433Y-38244D01*
X40432Y-38526D01*
X40540Y-38786D01*
X40739Y-38986D01*
X41000Y-39094D01*
X41282Y-39094D01*
X41542Y-38986D01*
X41742Y-38787D01*
X41850Y-38527D01*
X41850Y-38245D01*
X41850Y-39251D01*
X40295Y-39251D01*
X40295Y-36468D01*
X40259Y-36382D01*
X40196Y-36319D01*
X40196Y-33811D01*
X40161Y-33724D01*
X40094Y-33658D01*
X40007Y-33622D01*
X39913Y-33622D01*
X39826Y-33657D01*
X39760Y-33724D01*
X39724Y-33811D01*
X39724Y-33905D01*
X39760Y-33991D01*
X39826Y-34058D01*
X39913Y-34094D01*
X40007Y-34094D01*
X40094Y-34058D01*
X40160Y-33992D01*
X40196Y-33905D01*
X40196Y-33811D01*
X40196Y-36319D01*
X40193Y-36315D01*
X40106Y-36279D01*
X40012Y-36279D01*
X39925Y-36315D01*
X39858Y-36381D01*
X39822Y-36468D01*
X39822Y-36562D01*
X39858Y-36649D01*
X39925Y-36715D01*
X40011Y-36751D01*
X40105Y-36752D01*
X40192Y-36716D01*
X40259Y-36649D01*
X40295Y-36562D01*
X40295Y-36468D01*
X40295Y-39251D01*
X39488Y-39251D01*
X39488Y-29645D01*
X47709Y-29645D01*
X47622Y-29681D01*
X47555Y-29747D01*
X47519Y-29834D01*
X47519Y-29928D01*
X47555Y-30015D01*
X47621Y-30082D01*
X47708Y-30118D01*
X47802Y-30118D01*
X47889Y-30082D01*
X47956Y-30015D01*
X47992Y-29929D01*
X47992Y-29835D01*
X47956Y-29748D01*
X47889Y-29681D01*
X47803Y-29645D01*
X47756Y-29645D01*
X53533Y-29645D01*
X53533Y-32066D01*
X53544Y-32123D01*
X53576Y-32171D01*
X53582Y-32175D01*
X53582Y-32627D01*
X53578Y-32627D01*
X52949Y-32627D01*
X52905Y-32645D01*
X52872Y-32679D01*
X52854Y-32722D01*
X52854Y-32769D01*
X52854Y-33084D01*
X52872Y-33127D01*
X52905Y-33161D01*
X52948Y-33179D01*
X52995Y-33179D01*
X53582Y-33179D01*
X53582Y-33858D01*
X53227Y-33858D01*
X53204Y-33835D01*
X53118Y-33799D01*
X53024Y-33799D01*
X52937Y-33835D01*
X52870Y-33901D01*
X52834Y-33988D01*
X52834Y-34055D01*
X52768Y-34055D01*
X52681Y-34090D01*
X52614Y-34157D01*
X52578Y-34244D01*
X52578Y-34338D01*
X52614Y-34424D01*
X52680Y-34491D01*
X52767Y-34527D01*
X52861Y-34527D01*
X52948Y-34491D01*
X52971Y-34468D01*
X53124Y-34468D01*
X53405Y-34816D01*
X53412Y-34821D01*
X53418Y-34829D01*
X53439Y-34844D01*
X53458Y-34860D01*
X53467Y-34863D01*
X53475Y-34868D01*
X53501Y-34873D01*
X53524Y-34880D01*
X53533Y-34880D01*
X53543Y-34881D01*
X53582Y-34881D01*
X53582Y-35580D01*
X53582Y-35580D01*
G37*
G54D23*
X53582Y-35580D02*
X53569Y-35580D01*
X52939Y-35580D01*
X52895Y-35598D01*
X52862Y-35631D01*
X52844Y-35675D01*
X52844Y-35722D01*
X52844Y-36037D01*
X52862Y-36080D01*
X52895Y-36113D01*
X52916Y-36122D01*
X52916Y-36123D01*
X52894Y-36174D01*
X52894Y-36174D01*
X52894Y-36174D01*
X52874Y-36224D01*
X52873Y-36329D01*
X52862Y-36340D01*
X52844Y-36383D01*
X52844Y-36430D01*
X52844Y-36745D01*
X52862Y-36789D01*
X52895Y-36822D01*
X52939Y-36840D01*
X52985Y-36840D01*
X53533Y-36840D01*
X53533Y-39251D01*
X52519Y-39251D01*
X52519Y-30371D01*
X52412Y-30110D01*
X52212Y-29911D01*
X51952Y-29803D01*
X51670Y-29803D01*
X51410Y-29910D01*
X51210Y-30109D01*
X51102Y-30370D01*
X51102Y-30652D01*
X51209Y-30912D01*
X51409Y-31112D01*
X51669Y-31220D01*
X51951Y-31220D01*
X52211Y-31112D01*
X52411Y-30913D01*
X52519Y-30653D01*
X52519Y-30371D01*
X52519Y-39251D01*
X52500Y-39251D01*
X52500Y-37346D01*
X52458Y-37245D01*
X52401Y-37188D01*
X52401Y-35779D01*
X52365Y-35693D01*
X52299Y-35626D01*
X52212Y-35590D01*
X52118Y-35590D01*
X52086Y-35603D01*
X52086Y-31961D01*
X52050Y-31874D01*
X51984Y-31807D01*
X51897Y-31771D01*
X51803Y-31771D01*
X51716Y-31807D01*
X51650Y-31873D01*
X51614Y-31960D01*
X51614Y-32054D01*
X51650Y-32141D01*
X51673Y-32165D01*
X51610Y-32228D01*
X51574Y-32315D01*
X51574Y-32408D01*
X51610Y-32495D01*
X51677Y-32562D01*
X51763Y-32598D01*
X51857Y-32598D01*
X51944Y-32562D01*
X52011Y-32496D01*
X52047Y-32409D01*
X52047Y-32315D01*
X52011Y-32228D01*
X51987Y-32204D01*
X52050Y-32141D01*
X52086Y-32055D01*
X52086Y-31961D01*
X52086Y-35603D01*
X52031Y-35626D01*
X51965Y-35692D01*
X51929Y-35779D01*
X51929Y-35873D01*
X51964Y-35960D01*
X52031Y-36026D01*
X52118Y-36062D01*
X52212Y-36063D01*
X52298Y-36027D01*
X52365Y-35960D01*
X52401Y-35873D01*
X52401Y-35779D01*
X52401Y-37188D01*
X52380Y-37168D01*
X52279Y-37126D01*
X52169Y-37125D01*
X52068Y-37167D01*
X51990Y-37245D01*
X51948Y-37346D01*
X51948Y-37456D01*
X51990Y-37557D01*
X52068Y-37635D01*
X52169Y-37677D01*
X52279Y-37677D01*
X52380Y-37635D01*
X52457Y-37557D01*
X52500Y-37456D01*
X52500Y-37346D01*
X52500Y-39251D01*
X51811Y-39251D01*
X51811Y-33220D01*
X51775Y-33134D01*
X51708Y-33067D01*
X51621Y-33031D01*
X51528Y-33031D01*
X51441Y-33067D01*
X51374Y-33133D01*
X51338Y-33220D01*
X51338Y-33314D01*
X51374Y-33401D01*
X51440Y-33467D01*
X51527Y-33503D01*
X51621Y-33503D01*
X51708Y-33468D01*
X51774Y-33401D01*
X51810Y-33314D01*
X51811Y-33220D01*
X51811Y-39251D01*
X51358Y-39251D01*
X51358Y-38095D01*
X51316Y-37993D01*
X51299Y-37976D01*
X51299Y-33575D01*
X51263Y-33488D01*
X51196Y-33421D01*
X51110Y-33385D01*
X51016Y-33385D01*
X50929Y-33421D01*
X50862Y-33488D01*
X50854Y-33508D01*
X50795Y-33484D01*
X50701Y-33484D01*
X50689Y-33489D01*
X50672Y-33449D01*
X50606Y-33382D01*
X50590Y-33375D01*
X50590Y-30228D01*
X50554Y-30141D01*
X50488Y-30075D01*
X50401Y-30039D01*
X50307Y-30039D01*
X50220Y-30075D01*
X50154Y-30141D01*
X50132Y-30193D01*
X50047Y-30157D01*
X49953Y-30157D01*
X49866Y-30193D01*
X49799Y-30259D01*
X49763Y-30346D01*
X49763Y-30440D01*
X49799Y-30527D01*
X49866Y-30593D01*
X49952Y-30629D01*
X50046Y-30629D01*
X50133Y-30594D01*
X50200Y-30527D01*
X50221Y-30476D01*
X50307Y-30511D01*
X50401Y-30511D01*
X50487Y-30475D01*
X50554Y-30409D01*
X50590Y-30322D01*
X50590Y-30228D01*
X50590Y-33375D01*
X50519Y-33346D01*
X50472Y-33346D01*
X50472Y-33339D01*
X50436Y-33252D01*
X50370Y-33185D01*
X50283Y-33149D01*
X50189Y-33149D01*
X50102Y-33185D01*
X50078Y-33209D01*
X50078Y-31213D01*
X50042Y-31126D01*
X49976Y-31059D01*
X49889Y-31023D01*
X49795Y-31023D01*
X49708Y-31059D01*
X49642Y-31125D01*
X49606Y-31212D01*
X49606Y-31306D01*
X49642Y-31393D01*
X49708Y-31459D01*
X49795Y-31496D01*
X49889Y-31496D01*
X49976Y-31460D01*
X50042Y-31393D01*
X50078Y-31307D01*
X50078Y-31213D01*
X50078Y-33209D01*
X50036Y-33251D01*
X50000Y-33338D01*
X49999Y-33432D01*
X50035Y-33519D01*
X50102Y-33585D01*
X50189Y-33622D01*
X50236Y-33622D01*
X50236Y-33629D01*
X50272Y-33716D01*
X50338Y-33782D01*
X50425Y-33818D01*
X50519Y-33818D01*
X50531Y-33814D01*
X50547Y-33854D01*
X50614Y-33920D01*
X50700Y-33956D01*
X50794Y-33956D01*
X50881Y-33920D01*
X50948Y-33854D01*
X50956Y-33833D01*
X51015Y-33858D01*
X51109Y-33858D01*
X51196Y-33822D01*
X51263Y-33756D01*
X51299Y-33669D01*
X51299Y-33575D01*
X51299Y-37976D01*
X51238Y-37916D01*
X51137Y-37874D01*
X51028Y-37873D01*
X50926Y-37915D01*
X50849Y-37993D01*
X50807Y-38094D01*
X50807Y-38204D01*
X50848Y-38305D01*
X50926Y-38383D01*
X51027Y-38425D01*
X51137Y-38425D01*
X51238Y-38383D01*
X51316Y-38305D01*
X51358Y-38204D01*
X51358Y-38095D01*
X51358Y-39251D01*
X50354Y-39251D01*
X50354Y-34756D01*
X50318Y-34669D01*
X50252Y-34603D01*
X50165Y-34566D01*
X50071Y-34566D01*
X49984Y-34602D01*
X49917Y-34669D01*
X49881Y-34755D01*
X49881Y-34849D01*
X49917Y-34936D01*
X49984Y-35003D01*
X50070Y-35039D01*
X50164Y-35039D01*
X50251Y-35003D01*
X50318Y-34937D01*
X50354Y-34850D01*
X50354Y-34756D01*
X50354Y-39251D01*
X49714Y-39251D01*
X49714Y-37868D01*
X49672Y-37767D01*
X49645Y-37740D01*
X49645Y-34835D01*
X49645Y-33299D01*
X49609Y-33212D01*
X49543Y-33146D01*
X49456Y-33110D01*
X49362Y-33110D01*
X49330Y-33123D01*
X49330Y-31646D01*
X49294Y-31559D01*
X49228Y-31492D01*
X49141Y-31456D01*
X49047Y-31456D01*
X48960Y-31492D01*
X48894Y-31558D01*
X48886Y-31578D01*
X48861Y-31519D01*
X48795Y-31453D01*
X48708Y-31417D01*
X48614Y-31417D01*
X48527Y-31453D01*
X48461Y-31519D01*
X48425Y-31606D01*
X48425Y-31700D01*
X48461Y-31787D01*
X48524Y-31850D01*
X48461Y-31913D01*
X48425Y-32000D01*
X48425Y-32094D01*
X48461Y-32180D01*
X48527Y-32247D01*
X48614Y-32283D01*
X48708Y-32283D01*
X48795Y-32247D01*
X48861Y-32181D01*
X48897Y-32094D01*
X48897Y-32000D01*
X48861Y-31913D01*
X48798Y-31850D01*
X48861Y-31787D01*
X48869Y-31767D01*
X48894Y-31826D01*
X48960Y-31893D01*
X49047Y-31929D01*
X49141Y-31929D01*
X49228Y-31893D01*
X49294Y-31826D01*
X49330Y-31740D01*
X49330Y-31646D01*
X49330Y-33123D01*
X49275Y-33146D01*
X49209Y-33212D01*
X49173Y-33299D01*
X49173Y-33393D01*
X49180Y-33412D01*
X49157Y-33421D01*
X49091Y-33488D01*
X49055Y-33574D01*
X49055Y-33668D01*
X49090Y-33755D01*
X49157Y-33822D01*
X49244Y-33858D01*
X49338Y-33858D01*
X49424Y-33822D01*
X49491Y-33756D01*
X49527Y-33669D01*
X49527Y-33575D01*
X49519Y-33556D01*
X49543Y-33546D01*
X49609Y-33480D01*
X49645Y-33393D01*
X49645Y-33299D01*
X49645Y-34835D01*
X49609Y-34748D01*
X49543Y-34681D01*
X49456Y-34645D01*
X49362Y-34645D01*
X49275Y-34681D01*
X49212Y-34744D01*
X49149Y-34681D01*
X49062Y-34645D01*
X48968Y-34645D01*
X48937Y-34658D01*
X48937Y-33598D01*
X48904Y-33519D01*
X48843Y-33458D01*
X48763Y-33425D01*
X48743Y-33425D01*
X48823Y-33392D01*
X48884Y-33331D01*
X48917Y-33251D01*
X48917Y-33165D01*
X48884Y-33086D01*
X48823Y-33025D01*
X48744Y-32992D01*
X48657Y-32992D01*
X48578Y-33024D01*
X48517Y-33085D01*
X48484Y-33165D01*
X48484Y-33239D01*
X48409Y-33208D01*
X48322Y-33208D01*
X48243Y-33241D01*
X48225Y-33259D01*
X48228Y-33251D01*
X48228Y-33165D01*
X48195Y-33086D01*
X48134Y-33025D01*
X48055Y-32992D01*
X47968Y-32992D01*
X47889Y-33024D01*
X47828Y-33085D01*
X47795Y-33165D01*
X47795Y-33251D01*
X47828Y-33331D01*
X47888Y-33392D01*
X47968Y-33425D01*
X48054Y-33425D01*
X48134Y-33392D01*
X48152Y-33374D01*
X48149Y-33381D01*
X48149Y-33468D01*
X48182Y-33547D01*
X48243Y-33608D01*
X48322Y-33641D01*
X48408Y-33641D01*
X48488Y-33608D01*
X48507Y-33589D01*
X48503Y-33598D01*
X48503Y-33684D01*
X48536Y-33764D01*
X48597Y-33825D01*
X48677Y-33858D01*
X48763Y-33858D01*
X48842Y-33825D01*
X48903Y-33764D01*
X48936Y-33684D01*
X48937Y-33598D01*
X48937Y-34658D01*
X48882Y-34681D01*
X48815Y-34747D01*
X48779Y-34834D01*
X48779Y-34928D01*
X48815Y-35015D01*
X48881Y-35082D01*
X48968Y-35118D01*
X49062Y-35118D01*
X49149Y-35082D01*
X49212Y-35019D01*
X49275Y-35082D01*
X49362Y-35118D01*
X49456Y-35118D01*
X49543Y-35082D01*
X49609Y-35015D01*
X49645Y-34929D01*
X49645Y-34835D01*
X49645Y-37740D01*
X49595Y-37689D01*
X49494Y-37647D01*
X49384Y-37647D01*
X49283Y-37689D01*
X49205Y-37766D01*
X49163Y-37868D01*
X49163Y-37977D01*
X49205Y-38079D01*
X49282Y-38156D01*
X49383Y-38198D01*
X49493Y-38198D01*
X49594Y-38156D01*
X49672Y-38079D01*
X49714Y-37978D01*
X49714Y-37868D01*
X49714Y-39251D01*
X48208Y-39251D01*
X48208Y-33618D01*
X48175Y-33538D01*
X48114Y-33477D01*
X48035Y-33444D01*
X47949Y-33444D01*
X47869Y-33477D01*
X47808Y-33538D01*
X47775Y-33618D01*
X47775Y-33704D01*
X47808Y-33783D01*
X47869Y-33844D01*
X47948Y-33877D01*
X48035Y-33877D01*
X48114Y-33845D01*
X48175Y-33784D01*
X48208Y-33704D01*
X48208Y-33618D01*
X48208Y-39251D01*
X48189Y-39251D01*
X48189Y-35583D01*
X48153Y-35496D01*
X48086Y-35429D01*
X47999Y-35393D01*
X47905Y-35393D01*
X47819Y-35429D01*
X47752Y-35495D01*
X47716Y-35582D01*
X47716Y-35676D01*
X47752Y-35763D01*
X47818Y-35830D01*
X47905Y-35866D01*
X47999Y-35866D01*
X48086Y-35830D01*
X48152Y-35763D01*
X48188Y-35677D01*
X48189Y-35583D01*
X48189Y-39251D01*
X47559Y-39251D01*
X47559Y-33969D01*
X47523Y-33882D01*
X47456Y-33816D01*
X47440Y-33809D01*
X47440Y-30937D01*
X47405Y-30850D01*
X47338Y-30784D01*
X47251Y-30748D01*
X47157Y-30747D01*
X47071Y-30783D01*
X47004Y-30850D01*
X46968Y-30937D01*
X46968Y-31031D01*
X47004Y-31117D01*
X47070Y-31184D01*
X47157Y-31220D01*
X47251Y-31220D01*
X47338Y-31184D01*
X47404Y-31118D01*
X47440Y-31031D01*
X47440Y-30937D01*
X47440Y-33809D01*
X47370Y-33780D01*
X47276Y-33779D01*
X47189Y-33815D01*
X47122Y-33882D01*
X47086Y-33969D01*
X47086Y-34062D01*
X47122Y-34149D01*
X47188Y-34216D01*
X47275Y-34252D01*
X47369Y-34252D01*
X47456Y-34216D01*
X47523Y-34150D01*
X47559Y-34063D01*
X47559Y-33969D01*
X47559Y-39251D01*
X46732Y-39251D01*
X46732Y-32827D01*
X46696Y-32740D01*
X46630Y-32673D01*
X46543Y-32637D01*
X46456Y-32637D01*
X46456Y-30937D01*
X46420Y-30850D01*
X46417Y-30847D01*
X46417Y-30425D01*
X46381Y-30338D01*
X46315Y-30272D01*
X46228Y-30236D01*
X46134Y-30236D01*
X46047Y-30272D01*
X45980Y-30338D01*
X45944Y-30425D01*
X45944Y-30519D01*
X45980Y-30606D01*
X46047Y-30672D01*
X46133Y-30708D01*
X46227Y-30708D01*
X46314Y-30672D01*
X46381Y-30606D01*
X46417Y-30519D01*
X46417Y-30425D01*
X46417Y-30847D01*
X46354Y-30784D01*
X46267Y-30748D01*
X46173Y-30747D01*
X46086Y-30783D01*
X46020Y-30850D01*
X45984Y-30937D01*
X45984Y-31031D01*
X46020Y-31117D01*
X46086Y-31184D01*
X46173Y-31220D01*
X46267Y-31220D01*
X46354Y-31184D01*
X46420Y-31118D01*
X46456Y-31031D01*
X46456Y-30937D01*
X46456Y-32637D01*
X46449Y-32637D01*
X46377Y-32667D01*
X46377Y-32000D01*
X46342Y-31913D01*
X46275Y-31847D01*
X46224Y-31825D01*
X46259Y-31740D01*
X46259Y-31646D01*
X46223Y-31559D01*
X46157Y-31492D01*
X46070Y-31456D01*
X45976Y-31456D01*
X45889Y-31492D01*
X45823Y-31558D01*
X45802Y-31609D01*
X45763Y-31571D01*
X45677Y-31535D01*
X45583Y-31535D01*
X45516Y-31562D01*
X45515Y-31559D01*
X45448Y-31492D01*
X45433Y-31486D01*
X45433Y-30425D01*
X45397Y-30338D01*
X45330Y-30272D01*
X45244Y-30236D01*
X45150Y-30236D01*
X45063Y-30272D01*
X44996Y-30338D01*
X44960Y-30425D01*
X44960Y-30519D01*
X44996Y-30606D01*
X45062Y-30672D01*
X45149Y-30708D01*
X45243Y-30708D01*
X45330Y-30672D01*
X45396Y-30606D01*
X45433Y-30519D01*
X45433Y-30425D01*
X45433Y-31486D01*
X45362Y-31456D01*
X45268Y-31456D01*
X45181Y-31492D01*
X45114Y-31558D01*
X45078Y-31645D01*
X45078Y-31739D01*
X45114Y-31826D01*
X45180Y-31893D01*
X45267Y-31929D01*
X45361Y-31929D01*
X45428Y-31901D01*
X45429Y-31905D01*
X45495Y-31971D01*
X45582Y-32007D01*
X45676Y-32007D01*
X45763Y-31972D01*
X45830Y-31905D01*
X45851Y-31854D01*
X45889Y-31893D01*
X45941Y-31914D01*
X45905Y-32000D01*
X45905Y-32094D01*
X45941Y-32180D01*
X46007Y-32247D01*
X46094Y-32283D01*
X46188Y-32283D01*
X46275Y-32247D01*
X46341Y-32181D01*
X46377Y-32094D01*
X46377Y-32000D01*
X46377Y-32667D01*
X46362Y-32673D01*
X46295Y-32740D01*
X46259Y-32826D01*
X46259Y-32920D01*
X46295Y-33007D01*
X46362Y-33074D01*
X46448Y-33110D01*
X46542Y-33110D01*
X46629Y-33074D01*
X46696Y-33007D01*
X46732Y-32921D01*
X46732Y-32827D01*
X46732Y-39251D01*
X46653Y-39251D01*
X46653Y-34480D01*
X46617Y-34393D01*
X46551Y-34327D01*
X46464Y-34291D01*
X46370Y-34291D01*
X46283Y-34327D01*
X46217Y-34393D01*
X46181Y-34480D01*
X46181Y-34574D01*
X46216Y-34661D01*
X46283Y-34727D01*
X46370Y-34763D01*
X46464Y-34763D01*
X46550Y-34727D01*
X46617Y-34661D01*
X46653Y-34574D01*
X46653Y-34480D01*
X46653Y-39251D01*
X46063Y-39251D01*
X46063Y-36646D01*
X46027Y-36559D01*
X45960Y-36492D01*
X45937Y-36483D01*
X45948Y-36472D01*
X45984Y-36385D01*
X45984Y-36291D01*
X45948Y-36204D01*
X45905Y-36162D01*
X45905Y-34008D01*
X45869Y-33921D01*
X45803Y-33854D01*
X45716Y-33818D01*
X45622Y-33818D01*
X45535Y-33854D01*
X45469Y-33921D01*
X45433Y-34007D01*
X45433Y-34101D01*
X45468Y-34188D01*
X45535Y-34255D01*
X45622Y-34291D01*
X45716Y-34291D01*
X45802Y-34255D01*
X45869Y-34189D01*
X45905Y-34102D01*
X45905Y-34008D01*
X45905Y-36162D01*
X45882Y-36138D01*
X45795Y-36102D01*
X45701Y-36102D01*
X45614Y-36138D01*
X45547Y-36204D01*
X45511Y-36291D01*
X45511Y-36385D01*
X45547Y-36472D01*
X45614Y-36538D01*
X45637Y-36548D01*
X45626Y-36558D01*
X45590Y-36645D01*
X45590Y-36739D01*
X45626Y-36826D01*
X45692Y-36893D01*
X45779Y-36929D01*
X45873Y-36929D01*
X45960Y-36893D01*
X46026Y-36826D01*
X46062Y-36740D01*
X46063Y-36646D01*
X46063Y-39251D01*
X44960Y-39251D01*
X44960Y-30937D01*
X44924Y-30850D01*
X44858Y-30784D01*
X44771Y-30748D01*
X44677Y-30747D01*
X44590Y-30783D01*
X44524Y-30850D01*
X44488Y-30937D01*
X44488Y-31031D01*
X44524Y-31117D01*
X44590Y-31184D01*
X44677Y-31220D01*
X44771Y-31220D01*
X44858Y-31184D01*
X44924Y-31118D01*
X44960Y-31031D01*
X44960Y-30937D01*
X44960Y-39251D01*
X44291Y-39251D01*
X44291Y-37748D01*
X44255Y-37661D01*
X44189Y-37595D01*
X44102Y-37559D01*
X44008Y-37559D01*
X43976Y-37572D01*
X43976Y-31764D01*
X43940Y-31677D01*
X43874Y-31610D01*
X43787Y-31574D01*
X43700Y-31574D01*
X43700Y-31567D01*
X43664Y-31480D01*
X43598Y-31414D01*
X43511Y-31377D01*
X43417Y-31377D01*
X43330Y-31413D01*
X43264Y-31480D01*
X43228Y-31566D01*
X43228Y-31660D01*
X43264Y-31747D01*
X43330Y-31814D01*
X43417Y-31850D01*
X43503Y-31850D01*
X43503Y-31857D01*
X43539Y-31944D01*
X43606Y-32011D01*
X43692Y-32047D01*
X43786Y-32047D01*
X43873Y-32011D01*
X43940Y-31945D01*
X43976Y-31858D01*
X43976Y-31764D01*
X43976Y-37572D01*
X43921Y-37594D01*
X43854Y-37661D01*
X43818Y-37748D01*
X43818Y-37842D01*
X43854Y-37928D01*
X43921Y-37995D01*
X44007Y-38031D01*
X44101Y-38031D01*
X44188Y-37995D01*
X44255Y-37929D01*
X44291Y-37842D01*
X44291Y-37748D01*
X44291Y-39251D01*
X42972Y-39251D01*
X42972Y-30661D01*
X42936Y-30575D01*
X42870Y-30508D01*
X42783Y-30472D01*
X42689Y-30472D01*
X42602Y-30508D01*
X42536Y-30574D01*
X42500Y-30661D01*
X42499Y-30755D01*
X42535Y-30842D01*
X42602Y-30908D01*
X42689Y-30944D01*
X42783Y-30944D01*
X42869Y-30909D01*
X42936Y-30842D01*
X42972Y-30755D01*
X42972Y-30661D01*
X42972Y-39251D01*
X42716Y-39251D01*
X42716Y-32591D01*
X42680Y-32504D01*
X42614Y-32437D01*
X42527Y-32401D01*
X42433Y-32401D01*
X42381Y-32422D01*
X42381Y-30858D01*
X42346Y-30771D01*
X42279Y-30705D01*
X42192Y-30669D01*
X42098Y-30669D01*
X42012Y-30705D01*
X41945Y-30771D01*
X41909Y-30858D01*
X41909Y-30952D01*
X41945Y-31039D01*
X42011Y-31105D01*
X42098Y-31141D01*
X42192Y-31141D01*
X42279Y-31105D01*
X42345Y-31039D01*
X42381Y-30952D01*
X42381Y-30858D01*
X42381Y-32422D01*
X42346Y-32437D01*
X42280Y-32503D01*
X42244Y-32590D01*
X42244Y-32684D01*
X42279Y-32771D01*
X42346Y-32837D01*
X42433Y-32873D01*
X42527Y-32874D01*
X42613Y-32838D01*
X42680Y-32771D01*
X42716Y-32684D01*
X42716Y-32591D01*
X42716Y-39251D01*
X42401Y-39251D01*
X42401Y-37079D01*
X42365Y-36992D01*
X42299Y-36925D01*
X42212Y-36889D01*
X42118Y-36889D01*
X42031Y-36925D01*
X41965Y-36992D01*
X41929Y-37078D01*
X41929Y-37172D01*
X41964Y-37259D01*
X42031Y-37326D01*
X42118Y-37362D01*
X42212Y-37362D01*
X42298Y-37326D01*
X42365Y-37259D01*
X42401Y-37173D01*
X42401Y-37079D01*
X42401Y-39251D01*
X41850Y-39251D01*
X41850Y-38245D01*
X41791Y-38102D01*
X41791Y-32315D01*
X41755Y-32228D01*
X41692Y-32165D01*
X41692Y-30484D01*
X41657Y-30397D01*
X41590Y-30331D01*
X41503Y-30295D01*
X41409Y-30295D01*
X41323Y-30331D01*
X41299Y-30354D01*
X40157Y-30354D01*
X40157Y-30350D01*
X40139Y-30307D01*
X40106Y-30273D01*
X40062Y-30255D01*
X40015Y-30255D01*
X39701Y-30255D01*
X39657Y-30273D01*
X39624Y-30307D01*
X39606Y-30350D01*
X39606Y-30397D01*
X39606Y-30712D01*
X39624Y-30755D01*
X39657Y-30789D01*
X39700Y-30807D01*
X39747Y-30807D01*
X40062Y-30807D01*
X40106Y-30789D01*
X40139Y-30755D01*
X40157Y-30712D01*
X40157Y-30708D01*
X41299Y-30708D01*
X41322Y-30731D01*
X41409Y-30767D01*
X41503Y-30767D01*
X41590Y-30731D01*
X41656Y-30665D01*
X41692Y-30578D01*
X41692Y-30484D01*
X41692Y-32165D01*
X41689Y-32162D01*
X41602Y-32126D01*
X41508Y-32125D01*
X41421Y-32161D01*
X41378Y-32204D01*
X40157Y-32204D01*
X40157Y-32201D01*
X40157Y-31925D01*
X40157Y-31610D01*
X40157Y-31256D01*
X40157Y-30941D01*
X40139Y-30897D01*
X40106Y-30864D01*
X40062Y-30846D01*
X40015Y-30846D01*
X39701Y-30846D01*
X39657Y-30864D01*
X39624Y-30897D01*
X39606Y-30940D01*
X39606Y-30987D01*
X39606Y-31302D01*
X39624Y-31346D01*
X39657Y-31379D01*
X39700Y-31397D01*
X39747Y-31397D01*
X40062Y-31397D01*
X40106Y-31379D01*
X40139Y-31346D01*
X40157Y-31303D01*
X40157Y-31256D01*
X40157Y-31610D01*
X40139Y-31567D01*
X40106Y-31533D01*
X40062Y-31515D01*
X40015Y-31515D01*
X39701Y-31515D01*
X39657Y-31533D01*
X39624Y-31566D01*
X39606Y-31610D01*
X39606Y-31657D01*
X39606Y-31972D01*
X39624Y-32015D01*
X39657Y-32048D01*
X39700Y-32066D01*
X39747Y-32066D01*
X40062Y-32066D01*
X40106Y-32049D01*
X40139Y-32015D01*
X40157Y-31972D01*
X40157Y-31925D01*
X40157Y-32201D01*
X40139Y-32157D01*
X40106Y-32124D01*
X40062Y-32106D01*
X40015Y-32106D01*
X39701Y-32106D01*
X39657Y-32124D01*
X39624Y-32157D01*
X39606Y-32200D01*
X39606Y-32247D01*
X39606Y-32562D01*
X39624Y-32606D01*
X39657Y-32639D01*
X39700Y-32657D01*
X39747Y-32657D01*
X40062Y-32657D01*
X40106Y-32639D01*
X40139Y-32606D01*
X40157Y-32562D01*
X40157Y-32559D01*
X41417Y-32559D01*
X41421Y-32562D01*
X41507Y-32598D01*
X41601Y-32598D01*
X41688Y-32562D01*
X41755Y-32496D01*
X41791Y-32409D01*
X41791Y-32315D01*
X41791Y-38102D01*
X41742Y-37984D01*
X41543Y-37785D01*
X41338Y-37700D01*
X41338Y-36154D01*
X41302Y-36067D01*
X41236Y-36000D01*
X41149Y-35964D01*
X41055Y-35964D01*
X40968Y-36000D01*
X40902Y-36066D01*
X40866Y-36153D01*
X40866Y-36247D01*
X40901Y-36334D01*
X40968Y-36400D01*
X41055Y-36436D01*
X41149Y-36437D01*
X41235Y-36401D01*
X41302Y-36334D01*
X41338Y-36247D01*
X41338Y-36154D01*
X41338Y-37700D01*
X41283Y-37677D01*
X41001Y-37677D01*
X40905Y-37716D01*
X40905Y-36685D01*
X40869Y-36598D01*
X40826Y-36555D01*
X40826Y-34402D01*
X40790Y-34315D01*
X40724Y-34248D01*
X40637Y-34212D01*
X40543Y-34212D01*
X40456Y-34248D01*
X40390Y-34314D01*
X40354Y-34401D01*
X40354Y-34495D01*
X40390Y-34582D01*
X40456Y-34648D01*
X40543Y-34684D01*
X40637Y-34685D01*
X40724Y-34649D01*
X40790Y-34582D01*
X40826Y-34496D01*
X40826Y-34402D01*
X40826Y-36555D01*
X40803Y-36532D01*
X40716Y-36496D01*
X40622Y-36496D01*
X40535Y-36531D01*
X40469Y-36598D01*
X40433Y-36685D01*
X40433Y-36779D01*
X40468Y-36865D01*
X40535Y-36932D01*
X40622Y-36968D01*
X40716Y-36968D01*
X40802Y-36932D01*
X40869Y-36866D01*
X40905Y-36779D01*
X40905Y-36685D01*
X40905Y-37716D01*
X40740Y-37784D01*
X40541Y-37983D01*
X40433Y-38244D01*
X40432Y-38526D01*
X40540Y-38786D01*
X40739Y-38986D01*
X41000Y-39094D01*
X41282Y-39094D01*
X41542Y-38986D01*
X41742Y-38787D01*
X41850Y-38527D01*
X41850Y-38245D01*
X41850Y-39251D01*
X40295Y-39251D01*
X40295Y-36468D01*
X40259Y-36382D01*
X40196Y-36319D01*
X40196Y-33811D01*
X40161Y-33724D01*
X40094Y-33658D01*
X40007Y-33622D01*
X39913Y-33622D01*
X39826Y-33657D01*
X39760Y-33724D01*
X39724Y-33811D01*
X39724Y-33905D01*
X39760Y-33991D01*
X39826Y-34058D01*
X39913Y-34094D01*
X40007Y-34094D01*
X40094Y-34058D01*
X40160Y-33992D01*
X40196Y-33905D01*
X40196Y-33811D01*
X40196Y-36319D01*
X40193Y-36315D01*
X40106Y-36279D01*
X40012Y-36279D01*
X39925Y-36315D01*
X39858Y-36381D01*
X39822Y-36468D01*
X39822Y-36562D01*
X39858Y-36649D01*
X39925Y-36715D01*
X40011Y-36751D01*
X40105Y-36752D01*
X40192Y-36716D01*
X40259Y-36649D01*
X40295Y-36562D01*
X40295Y-36468D01*
X40295Y-39251D01*
X39488Y-39251D01*
X39488Y-29645D01*
X47709Y-29645D01*
X47622Y-29681D01*
X47555Y-29747D01*
X47519Y-29834D01*
X47519Y-29928D01*
X47555Y-30015D01*
X47621Y-30082D01*
X47708Y-30118D01*
X47802Y-30118D01*
X47889Y-30082D01*
X47956Y-30015D01*
X47992Y-29929D01*
X47992Y-29835D01*
X47956Y-29748D01*
X47889Y-29681D01*
X47803Y-29645D01*
X47756Y-29645D01*
X53533Y-29645D01*
X53533Y-32066D01*
X53544Y-32123D01*
X53576Y-32171D01*
X53582Y-32175D01*
X53582Y-32627D01*
X53578Y-32627D01*
X52949Y-32627D01*
X52905Y-32645D01*
X52872Y-32679D01*
X52854Y-32722D01*
X52854Y-32769D01*
X52854Y-33084D01*
X52872Y-33127D01*
X52905Y-33161D01*
X52948Y-33179D01*
X52995Y-33179D01*
X53582Y-33179D01*
X53582Y-33858D01*
X53227Y-33858D01*
X53204Y-33835D01*
X53118Y-33799D01*
X53024Y-33799D01*
X52937Y-33835D01*
X52870Y-33901D01*
X52834Y-33988D01*
X52834Y-34055D01*
X52768Y-34055D01*
X52681Y-34090D01*
X52614Y-34157D01*
X52578Y-34244D01*
X52578Y-34338D01*
X52614Y-34424D01*
X52680Y-34491D01*
X52767Y-34527D01*
X52861Y-34527D01*
X52948Y-34491D01*
X52971Y-34468D01*
X53124Y-34468D01*
X53405Y-34816D01*
X53412Y-34821D01*
X53418Y-34829D01*
X53439Y-34844D01*
X53458Y-34860D01*
X53467Y-34863D01*
X53475Y-34868D01*
X53501Y-34873D01*
X53524Y-34880D01*
X53533Y-34880D01*
X53543Y-34881D01*
X53582Y-34881D01*
X53582Y-35580D01*
M02*
