G04 (created by PCBNEW (2013-mar-13)-testing) date Thu 16 May 2013 04:44:18 PM ICT*
%MOIN*%
G04 Gerber Fmt 3.4, Leading zero omitted, Abs format*
%FSLAX34Y34*%
G01*
G70*
G90*
G04 APERTURE LIST*
%ADD10C,0.00393701*%
%ADD11R,0.06X0.06*%
%ADD12C,0.06*%
%ADD13C,0.023622*%
%ADD14C,0.019685*%
%ADD15C,0.0314961*%
%ADD16C,0.011811*%
%ADD17C,0.0314961*%
%ADD18C,0.00787402*%
G04 APERTURE END LIST*
G54D10*
G54D11*
X39960Y-35448D03*
G54D12*
X39960Y-34448D03*
X39960Y-33448D03*
G54D13*
X47204Y-30984D03*
X49645Y-32224D03*
X52539Y-33720D03*
X53110Y-34547D03*
X45964Y-35472D03*
X51456Y-33740D03*
X45984Y-35807D03*
X51751Y-33937D03*
G54D14*
X43976Y-34744D03*
X44409Y-34744D03*
X44409Y-34311D03*
X44409Y-33877D03*
X43976Y-33877D03*
X43976Y-34311D03*
X43543Y-34744D03*
X43533Y-34734D03*
X43966Y-35167D03*
X44399Y-35167D03*
X44399Y-35600D03*
X43966Y-35600D03*
X43533Y-35600D03*
X43533Y-35167D03*
X43110Y-34744D03*
X42677Y-34744D03*
X42677Y-35177D03*
X42677Y-35610D03*
X43110Y-35610D03*
X43110Y-35177D03*
X43543Y-34744D03*
X43543Y-34744D03*
X43110Y-34311D03*
X42677Y-34311D03*
X42677Y-33877D03*
X43110Y-33877D03*
X43543Y-33877D03*
X43543Y-34311D03*
G54D13*
X46377Y-34685D03*
X46555Y-31062D03*
X46535Y-33503D03*
X44763Y-37125D03*
X42696Y-37597D03*
X42716Y-31851D03*
X44744Y-31496D03*
X49370Y-31122D03*
X50944Y-32657D03*
X50570Y-35216D03*
X43641Y-32322D03*
X51712Y-31633D03*
X51957Y-30688D03*
X51447Y-30688D03*
X47775Y-32303D03*
X44921Y-37618D03*
X42106Y-37086D03*
X42086Y-32362D03*
X52618Y-30807D03*
G54D15*
X52224Y-37401D03*
G54D13*
X52224Y-35433D03*
X47874Y-35649D03*
G54D14*
X48720Y-33641D03*
X47992Y-33661D03*
X48700Y-33208D03*
X48011Y-33208D03*
X48365Y-33425D03*
G54D15*
X53149Y-36279D03*
G54D14*
X51259Y-36397D03*
X51259Y-36948D03*
X50826Y-36948D03*
X50393Y-36948D03*
X50393Y-36397D03*
X50826Y-36397D03*
G54D13*
X49862Y-36909D03*
X51082Y-38188D03*
G54D16*
X48405Y-30984D02*
X47204Y-30984D01*
X49645Y-32224D02*
X48405Y-30984D01*
X50944Y-32641D02*
X50944Y-32657D01*
X50570Y-33011D02*
X50944Y-32641D01*
X50570Y-33129D02*
X50570Y-33011D01*
X50570Y-35216D02*
X50570Y-33129D01*
X39960Y-34448D02*
X40492Y-33917D01*
X40492Y-30925D02*
X40492Y-33917D01*
X40984Y-30433D02*
X40492Y-30925D01*
X51701Y-30433D02*
X40984Y-30433D01*
X51701Y-30433D02*
X51957Y-30688D01*
X39960Y-35448D02*
X40393Y-35452D01*
X40393Y-35452D02*
X40728Y-35118D01*
X40728Y-31043D02*
X40728Y-35118D01*
X41102Y-30688D02*
X40728Y-31043D01*
X41102Y-30688D02*
X51447Y-30688D01*
X48365Y-33425D02*
X48503Y-33425D01*
X48503Y-33425D02*
X48720Y-33641D01*
X48365Y-33425D02*
X48228Y-33425D01*
X48228Y-33425D02*
X47992Y-33661D01*
X48365Y-33425D02*
X48484Y-33425D01*
X48484Y-33425D02*
X48700Y-33208D01*
X48228Y-33425D02*
X48011Y-33208D01*
X48365Y-33425D02*
X48366Y-33425D01*
X48366Y-33425D02*
X48366Y-33444D01*
G54D17*
X53149Y-36279D02*
X52716Y-35846D01*
X52716Y-35846D02*
X49507Y-35846D01*
X48366Y-34724D02*
X48366Y-33425D01*
X48366Y-33425D02*
X48366Y-33444D01*
X49507Y-35846D02*
X48366Y-34724D01*
G54D10*
G36*
X53641Y-36690D02*
X53624Y-36694D01*
X53576Y-36726D01*
X53544Y-36774D01*
X53533Y-36830D01*
X53533Y-39251D01*
X53425Y-39251D01*
X53425Y-36224D01*
X53404Y-36174D01*
X53404Y-36174D01*
X53404Y-36174D01*
X53383Y-36123D01*
X53346Y-36086D01*
X53346Y-34500D01*
X53310Y-34413D01*
X53244Y-34347D01*
X53157Y-34311D01*
X53063Y-34310D01*
X52976Y-34346D01*
X52910Y-34413D01*
X52874Y-34500D01*
X52873Y-34594D01*
X52909Y-34680D01*
X52976Y-34747D01*
X53063Y-34783D01*
X53157Y-34783D01*
X53243Y-34747D01*
X53310Y-34681D01*
X53346Y-34594D01*
X53346Y-34500D01*
X53346Y-36086D01*
X53344Y-36084D01*
X53344Y-36084D01*
X53305Y-36046D01*
X53305Y-36045D01*
X52911Y-35651D01*
X52821Y-35591D01*
X52775Y-35582D01*
X52775Y-33673D01*
X52739Y-33586D01*
X52673Y-33520D01*
X52586Y-33484D01*
X52492Y-33484D01*
X52405Y-33520D01*
X52339Y-33586D01*
X52303Y-33673D01*
X52303Y-33767D01*
X52338Y-33854D01*
X52405Y-33920D01*
X52492Y-33956D01*
X52586Y-33956D01*
X52673Y-33920D01*
X52739Y-33854D01*
X52775Y-33767D01*
X52775Y-33673D01*
X52775Y-35582D01*
X52716Y-35570D01*
X52420Y-35570D01*
X52424Y-35567D01*
X52460Y-35480D01*
X52460Y-35386D01*
X52424Y-35299D01*
X52358Y-35232D01*
X52271Y-35196D01*
X52193Y-35196D01*
X52193Y-30642D01*
X52157Y-30555D01*
X52091Y-30488D01*
X52004Y-30452D01*
X51971Y-30452D01*
X51826Y-30307D01*
X51768Y-30269D01*
X51701Y-30255D01*
X40984Y-30255D01*
X40916Y-30269D01*
X40858Y-30307D01*
X40366Y-30799D01*
X40328Y-30857D01*
X40314Y-30925D01*
X40314Y-33211D01*
X40197Y-33094D01*
X40044Y-33030D01*
X39877Y-33030D01*
X39724Y-33094D01*
X39606Y-33211D01*
X39542Y-33365D01*
X39542Y-33531D01*
X39605Y-33685D01*
X39723Y-33803D01*
X39877Y-33866D01*
X40043Y-33867D01*
X40197Y-33803D01*
X40314Y-33685D01*
X40314Y-33685D01*
X40314Y-33843D01*
X40103Y-34055D01*
X40044Y-34030D01*
X39877Y-34030D01*
X39724Y-34094D01*
X39606Y-34211D01*
X39542Y-34365D01*
X39542Y-34531D01*
X39605Y-34685D01*
X39723Y-34803D01*
X39877Y-34866D01*
X40043Y-34867D01*
X40197Y-34803D01*
X40314Y-34685D01*
X40378Y-34532D01*
X40378Y-34366D01*
X40354Y-34305D01*
X40551Y-34108D01*
X40551Y-35044D01*
X40378Y-35217D01*
X40378Y-35125D01*
X40360Y-35082D01*
X40327Y-35048D01*
X40284Y-35030D01*
X40237Y-35030D01*
X39637Y-35030D01*
X39593Y-35048D01*
X39560Y-35081D01*
X39542Y-35125D01*
X39542Y-35172D01*
X39542Y-35772D01*
X39560Y-35815D01*
X39593Y-35848D01*
X39637Y-35866D01*
X39684Y-35866D01*
X40284Y-35866D01*
X40327Y-35849D01*
X40360Y-35815D01*
X40378Y-35772D01*
X40378Y-35725D01*
X40378Y-35629D01*
X40392Y-35629D01*
X40392Y-35629D01*
X40393Y-35629D01*
X40444Y-35619D01*
X40460Y-35616D01*
X40460Y-35616D01*
X40461Y-35616D01*
X40502Y-35589D01*
X40517Y-35578D01*
X40518Y-35578D01*
X40518Y-35578D01*
X40853Y-35243D01*
X40892Y-35185D01*
X40892Y-35185D01*
X40905Y-35118D01*
X40905Y-31119D01*
X41173Y-30866D01*
X46417Y-30866D01*
X46354Y-30929D01*
X46318Y-31015D01*
X46318Y-31109D01*
X46354Y-31196D01*
X46421Y-31263D01*
X46507Y-31299D01*
X46601Y-31299D01*
X46688Y-31263D01*
X46755Y-31196D01*
X46791Y-31110D01*
X46791Y-31016D01*
X46755Y-30929D01*
X46692Y-30866D01*
X46997Y-30866D01*
X46968Y-30937D01*
X46968Y-31031D01*
X47004Y-31117D01*
X47070Y-31184D01*
X47157Y-31220D01*
X47251Y-31220D01*
X47338Y-31184D01*
X47361Y-31161D01*
X48332Y-31161D01*
X49409Y-32238D01*
X49409Y-32271D01*
X49445Y-32358D01*
X49511Y-32424D01*
X49598Y-32460D01*
X49692Y-32460D01*
X49779Y-32424D01*
X49845Y-32358D01*
X49881Y-32271D01*
X49881Y-32177D01*
X49846Y-32090D01*
X49779Y-32024D01*
X49692Y-31988D01*
X49660Y-31988D01*
X49606Y-31934D01*
X49606Y-31075D01*
X49570Y-30988D01*
X49504Y-30921D01*
X49417Y-30885D01*
X49323Y-30885D01*
X49236Y-30921D01*
X49169Y-30988D01*
X49133Y-31074D01*
X49133Y-31168D01*
X49169Y-31255D01*
X49236Y-31322D01*
X49322Y-31358D01*
X49416Y-31358D01*
X49503Y-31322D01*
X49570Y-31256D01*
X49606Y-31169D01*
X49606Y-31075D01*
X49606Y-31934D01*
X48537Y-30866D01*
X51290Y-30866D01*
X51313Y-30889D01*
X51399Y-30925D01*
X51493Y-30925D01*
X51580Y-30889D01*
X51647Y-30822D01*
X51683Y-30736D01*
X51683Y-30665D01*
X51720Y-30703D01*
X51720Y-30735D01*
X51756Y-30822D01*
X51823Y-30889D01*
X51909Y-30925D01*
X52003Y-30925D01*
X52090Y-30889D01*
X52157Y-30822D01*
X52193Y-30736D01*
X52193Y-30642D01*
X52193Y-35196D01*
X52177Y-35196D01*
X52090Y-35232D01*
X52024Y-35299D01*
X51988Y-35385D01*
X51988Y-33890D01*
X51952Y-33803D01*
X51948Y-33799D01*
X51948Y-31587D01*
X51912Y-31500D01*
X51846Y-31433D01*
X51759Y-31397D01*
X51665Y-31397D01*
X51578Y-31433D01*
X51512Y-31499D01*
X51476Y-31586D01*
X51476Y-31680D01*
X51512Y-31767D01*
X51578Y-31833D01*
X51665Y-31870D01*
X51759Y-31870D01*
X51846Y-31834D01*
X51912Y-31767D01*
X51948Y-31681D01*
X51948Y-31587D01*
X51948Y-33799D01*
X51885Y-33736D01*
X51799Y-33700D01*
X51705Y-33700D01*
X51692Y-33705D01*
X51692Y-33693D01*
X51657Y-33606D01*
X51590Y-33540D01*
X51503Y-33503D01*
X51409Y-33503D01*
X51323Y-33539D01*
X51256Y-33606D01*
X51220Y-33692D01*
X51220Y-33786D01*
X51256Y-33873D01*
X51322Y-33940D01*
X51409Y-33976D01*
X51503Y-33976D01*
X51515Y-33971D01*
X51515Y-33983D01*
X51551Y-34070D01*
X51617Y-34137D01*
X51704Y-34173D01*
X51798Y-34173D01*
X51885Y-34137D01*
X51952Y-34070D01*
X51988Y-33984D01*
X51988Y-33890D01*
X51988Y-35385D01*
X51988Y-35479D01*
X52024Y-35566D01*
X52028Y-35570D01*
X51181Y-35570D01*
X51181Y-32610D01*
X51145Y-32523D01*
X51078Y-32457D01*
X50992Y-32421D01*
X50898Y-32421D01*
X50811Y-32457D01*
X50744Y-32523D01*
X50708Y-32610D01*
X50708Y-32627D01*
X50446Y-32885D01*
X50446Y-32886D01*
X50445Y-32886D01*
X50426Y-32914D01*
X50407Y-32942D01*
X50407Y-32943D01*
X50407Y-32944D01*
X50400Y-32977D01*
X50393Y-33010D01*
X50393Y-33011D01*
X50393Y-33011D01*
X50393Y-33129D01*
X50393Y-35059D01*
X50370Y-35082D01*
X50334Y-35169D01*
X50334Y-35263D01*
X50370Y-35350D01*
X50436Y-35416D01*
X50523Y-35452D01*
X50617Y-35452D01*
X50704Y-35416D01*
X50771Y-35350D01*
X50807Y-35263D01*
X50807Y-35169D01*
X50771Y-35082D01*
X50748Y-35059D01*
X50748Y-33129D01*
X50748Y-33085D01*
X50942Y-32893D01*
X50991Y-32893D01*
X51078Y-32857D01*
X51145Y-32791D01*
X51181Y-32704D01*
X51181Y-32610D01*
X51181Y-35570D01*
X49620Y-35570D01*
X49015Y-34976D01*
X48641Y-34608D01*
X48641Y-33937D01*
X49015Y-33937D01*
X49015Y-32933D01*
X47716Y-32933D01*
X47716Y-33877D01*
X47716Y-33937D01*
X48090Y-33937D01*
X48090Y-34724D01*
X48090Y-34725D01*
X48090Y-34726D01*
X48101Y-34778D01*
X48111Y-34829D01*
X48112Y-34830D01*
X48112Y-34832D01*
X48142Y-34875D01*
X48171Y-34919D01*
X48172Y-34919D01*
X48172Y-34920D01*
X49015Y-35749D01*
X49312Y-36041D01*
X49313Y-36041D01*
X49313Y-36041D01*
X49314Y-36042D01*
X49354Y-36068D01*
X49402Y-36101D01*
X49403Y-36101D01*
X49404Y-36101D01*
X49451Y-36110D01*
X49507Y-36122D01*
X52602Y-36122D01*
X52954Y-36474D01*
X52993Y-36513D01*
X53044Y-36534D01*
X53044Y-36534D01*
X53044Y-36534D01*
X53094Y-36555D01*
X53149Y-36555D01*
X53204Y-36555D01*
X53255Y-36534D01*
X53255Y-36534D01*
X53255Y-36534D01*
X53305Y-36513D01*
X53344Y-36474D01*
X53344Y-36474D01*
X53344Y-36474D01*
X53383Y-36435D01*
X53404Y-36384D01*
X53404Y-36384D01*
X53404Y-36384D01*
X53425Y-36334D01*
X53425Y-36279D01*
X53425Y-36224D01*
X53425Y-39251D01*
X51476Y-39251D01*
X51476Y-36905D01*
X51476Y-36354D01*
X51443Y-36275D01*
X51382Y-36214D01*
X51303Y-36181D01*
X51216Y-36181D01*
X51137Y-36213D01*
X51076Y-36274D01*
X51043Y-36354D01*
X51043Y-36354D01*
X51010Y-36275D01*
X50949Y-36214D01*
X50870Y-36181D01*
X50783Y-36181D01*
X50704Y-36213D01*
X50643Y-36274D01*
X50610Y-36354D01*
X50610Y-36354D01*
X50577Y-36275D01*
X50516Y-36214D01*
X50436Y-36181D01*
X50350Y-36181D01*
X50271Y-36213D01*
X50210Y-36274D01*
X50177Y-36354D01*
X50177Y-36440D01*
X50210Y-36520D01*
X50270Y-36581D01*
X50350Y-36614D01*
X50436Y-36614D01*
X50516Y-36581D01*
X50577Y-36520D01*
X50610Y-36440D01*
X50610Y-36354D01*
X50610Y-36440D01*
X50643Y-36520D01*
X50703Y-36581D01*
X50783Y-36614D01*
X50869Y-36614D01*
X50949Y-36581D01*
X51010Y-36520D01*
X51043Y-36440D01*
X51043Y-36354D01*
X51043Y-36440D01*
X51076Y-36520D01*
X51137Y-36581D01*
X51216Y-36614D01*
X51302Y-36614D01*
X51382Y-36581D01*
X51443Y-36520D01*
X51476Y-36440D01*
X51476Y-36354D01*
X51476Y-36905D01*
X51443Y-36826D01*
X51382Y-36765D01*
X51303Y-36732D01*
X51216Y-36732D01*
X51137Y-36765D01*
X51076Y-36826D01*
X51043Y-36905D01*
X51043Y-36905D01*
X51010Y-36826D01*
X50949Y-36765D01*
X50870Y-36732D01*
X50783Y-36732D01*
X50704Y-36765D01*
X50643Y-36826D01*
X50610Y-36905D01*
X50610Y-36905D01*
X50577Y-36826D01*
X50516Y-36765D01*
X50436Y-36732D01*
X50350Y-36732D01*
X50271Y-36765D01*
X50210Y-36826D01*
X50177Y-36905D01*
X50177Y-36991D01*
X50210Y-37071D01*
X50270Y-37132D01*
X50350Y-37165D01*
X50436Y-37165D01*
X50516Y-37132D01*
X50577Y-37071D01*
X50610Y-36992D01*
X50610Y-36905D01*
X50610Y-36991D01*
X50643Y-37071D01*
X50703Y-37132D01*
X50783Y-37165D01*
X50869Y-37165D01*
X50949Y-37132D01*
X51010Y-37071D01*
X51043Y-36992D01*
X51043Y-36905D01*
X51043Y-36991D01*
X51076Y-37071D01*
X51137Y-37132D01*
X51216Y-37165D01*
X51302Y-37165D01*
X51382Y-37132D01*
X51443Y-37071D01*
X51476Y-36992D01*
X51476Y-36905D01*
X51476Y-39251D01*
X51318Y-39251D01*
X51318Y-38142D01*
X51283Y-38055D01*
X51216Y-37988D01*
X51129Y-37952D01*
X51035Y-37952D01*
X50949Y-37988D01*
X50882Y-38054D01*
X50846Y-38141D01*
X50846Y-38235D01*
X50882Y-38322D01*
X50948Y-38389D01*
X51035Y-38425D01*
X51129Y-38425D01*
X51216Y-38389D01*
X51282Y-38322D01*
X51318Y-38236D01*
X51318Y-38142D01*
X51318Y-39251D01*
X50098Y-39251D01*
X50098Y-36862D01*
X50062Y-36775D01*
X49996Y-36709D01*
X49909Y-36673D01*
X49815Y-36673D01*
X49728Y-36709D01*
X49662Y-36775D01*
X49626Y-36862D01*
X49625Y-36956D01*
X49661Y-37043D01*
X49728Y-37109D01*
X49815Y-37145D01*
X49908Y-37145D01*
X49995Y-37109D01*
X50062Y-37043D01*
X50098Y-36956D01*
X50098Y-36862D01*
X50098Y-39251D01*
X49015Y-39251D01*
X48110Y-39251D01*
X48110Y-35602D01*
X48074Y-35515D01*
X48007Y-35449D01*
X47921Y-35413D01*
X47827Y-35413D01*
X47740Y-35449D01*
X47673Y-35515D01*
X47637Y-35602D01*
X47637Y-35696D01*
X47673Y-35783D01*
X47740Y-35849D01*
X47826Y-35885D01*
X47920Y-35885D01*
X48007Y-35849D01*
X48074Y-35783D01*
X48110Y-35696D01*
X48110Y-35602D01*
X48110Y-39251D01*
X46771Y-39251D01*
X46771Y-33457D01*
X46735Y-33370D01*
X46669Y-33303D01*
X46582Y-33267D01*
X46488Y-33267D01*
X46401Y-33303D01*
X46335Y-33369D01*
X46299Y-33456D01*
X46299Y-33550D01*
X46335Y-33637D01*
X46401Y-33704D01*
X46488Y-33740D01*
X46582Y-33740D01*
X46669Y-33704D01*
X46735Y-33637D01*
X46771Y-33551D01*
X46771Y-33457D01*
X46771Y-39251D01*
X46614Y-39251D01*
X46614Y-34638D01*
X46578Y-34551D01*
X46511Y-34484D01*
X46425Y-34448D01*
X46331Y-34448D01*
X46244Y-34484D01*
X46177Y-34551D01*
X46141Y-34637D01*
X46141Y-34731D01*
X46177Y-34818D01*
X46243Y-34885D01*
X46330Y-34921D01*
X46424Y-34921D01*
X46511Y-34885D01*
X46578Y-34819D01*
X46614Y-34732D01*
X46614Y-34638D01*
X46614Y-39251D01*
X46220Y-39251D01*
X46220Y-35760D01*
X46184Y-35673D01*
X46141Y-35629D01*
X46164Y-35606D01*
X46200Y-35519D01*
X46200Y-35425D01*
X46164Y-35338D01*
X46098Y-35272D01*
X46011Y-35236D01*
X45917Y-35236D01*
X45830Y-35272D01*
X45764Y-35338D01*
X45728Y-35425D01*
X45728Y-35519D01*
X45764Y-35606D01*
X45807Y-35649D01*
X45784Y-35673D01*
X45748Y-35759D01*
X45747Y-35853D01*
X45783Y-35940D01*
X45850Y-36007D01*
X45937Y-36043D01*
X46031Y-36043D01*
X46117Y-36007D01*
X46184Y-35941D01*
X46220Y-35854D01*
X46220Y-35760D01*
X46220Y-39251D01*
X45000Y-39251D01*
X45000Y-37079D01*
X44980Y-37031D01*
X44980Y-31449D01*
X44944Y-31362D01*
X44878Y-31295D01*
X44791Y-31259D01*
X44697Y-31259D01*
X44610Y-31295D01*
X44543Y-31362D01*
X44507Y-31448D01*
X44507Y-31542D01*
X44543Y-31629D01*
X44610Y-31696D01*
X44696Y-31732D01*
X44790Y-31732D01*
X44877Y-31696D01*
X44944Y-31630D01*
X44980Y-31543D01*
X44980Y-31449D01*
X44980Y-37031D01*
X44964Y-36992D01*
X44897Y-36925D01*
X44810Y-36889D01*
X44716Y-36889D01*
X44630Y-36925D01*
X44626Y-36929D01*
X44626Y-34701D01*
X44593Y-34621D01*
X44532Y-34560D01*
X44452Y-34527D01*
X44452Y-34527D01*
X44531Y-34494D01*
X44592Y-34433D01*
X44625Y-34354D01*
X44626Y-34268D01*
X44593Y-34188D01*
X44532Y-34127D01*
X44452Y-34094D01*
X44452Y-34094D01*
X44531Y-34061D01*
X44592Y-34000D01*
X44625Y-33921D01*
X44626Y-33835D01*
X44593Y-33755D01*
X44532Y-33694D01*
X44452Y-33661D01*
X44366Y-33661D01*
X44286Y-33694D01*
X44225Y-33755D01*
X44192Y-33834D01*
X44192Y-33835D01*
X44160Y-33755D01*
X44099Y-33694D01*
X44019Y-33661D01*
X43933Y-33661D01*
X43877Y-33684D01*
X43877Y-32276D01*
X43842Y-32189D01*
X43775Y-32122D01*
X43688Y-32086D01*
X43594Y-32086D01*
X43508Y-32122D01*
X43441Y-32188D01*
X43405Y-32275D01*
X43405Y-32369D01*
X43441Y-32456D01*
X43507Y-32522D01*
X43594Y-32559D01*
X43688Y-32559D01*
X43775Y-32523D01*
X43841Y-32456D01*
X43877Y-32370D01*
X43877Y-32276D01*
X43877Y-33684D01*
X43853Y-33694D01*
X43792Y-33755D01*
X43759Y-33834D01*
X43759Y-33835D01*
X43726Y-33755D01*
X43666Y-33694D01*
X43586Y-33661D01*
X43500Y-33661D01*
X43420Y-33694D01*
X43359Y-33755D01*
X43326Y-33834D01*
X43326Y-33835D01*
X43293Y-33755D01*
X43233Y-33694D01*
X43153Y-33661D01*
X43067Y-33661D01*
X42987Y-33694D01*
X42952Y-33729D01*
X42952Y-31804D01*
X42916Y-31717D01*
X42850Y-31651D01*
X42763Y-31615D01*
X42669Y-31615D01*
X42582Y-31650D01*
X42516Y-31717D01*
X42480Y-31804D01*
X42480Y-31898D01*
X42516Y-31984D01*
X42582Y-32051D01*
X42669Y-32087D01*
X42763Y-32087D01*
X42850Y-32051D01*
X42916Y-31985D01*
X42952Y-31898D01*
X42952Y-31804D01*
X42952Y-33729D01*
X42926Y-33755D01*
X42893Y-33834D01*
X42893Y-33835D01*
X42860Y-33755D01*
X42799Y-33694D01*
X42720Y-33661D01*
X42634Y-33661D01*
X42554Y-33694D01*
X42493Y-33755D01*
X42460Y-33834D01*
X42460Y-33920D01*
X42493Y-34000D01*
X42554Y-34061D01*
X42633Y-34094D01*
X42720Y-34094D01*
X42634Y-34094D01*
X42554Y-34127D01*
X42493Y-34188D01*
X42460Y-34267D01*
X42460Y-34353D01*
X42493Y-34433D01*
X42554Y-34494D01*
X42633Y-34527D01*
X42720Y-34527D01*
X42634Y-34527D01*
X42554Y-34560D01*
X42493Y-34621D01*
X42460Y-34700D01*
X42460Y-34786D01*
X42493Y-34866D01*
X42554Y-34927D01*
X42633Y-34960D01*
X42720Y-34960D01*
X42634Y-34960D01*
X42554Y-34993D01*
X42493Y-35054D01*
X42460Y-35133D01*
X42460Y-35220D01*
X42493Y-35299D01*
X42554Y-35360D01*
X42633Y-35393D01*
X42720Y-35393D01*
X42634Y-35393D01*
X42554Y-35426D01*
X42493Y-35487D01*
X42460Y-35566D01*
X42460Y-35653D01*
X42493Y-35732D01*
X42554Y-35793D01*
X42633Y-35826D01*
X42720Y-35826D01*
X42799Y-35793D01*
X42860Y-35733D01*
X42893Y-35653D01*
X42893Y-35567D01*
X42893Y-35653D01*
X42926Y-35732D01*
X42987Y-35793D01*
X43066Y-35826D01*
X43153Y-35826D01*
X43232Y-35793D01*
X43293Y-35733D01*
X43323Y-35660D01*
X43349Y-35722D01*
X43410Y-35783D01*
X43490Y-35816D01*
X43576Y-35816D01*
X43655Y-35784D01*
X43716Y-35723D01*
X43749Y-35643D01*
X43750Y-35557D01*
X43749Y-35643D01*
X43782Y-35722D01*
X43843Y-35783D01*
X43923Y-35816D01*
X44009Y-35816D01*
X44089Y-35784D01*
X44149Y-35723D01*
X44183Y-35643D01*
X44183Y-35557D01*
X44183Y-35643D01*
X44215Y-35722D01*
X44276Y-35783D01*
X44356Y-35816D01*
X44442Y-35816D01*
X44522Y-35784D01*
X44583Y-35723D01*
X44616Y-35643D01*
X44616Y-35557D01*
X44583Y-35477D01*
X44522Y-35416D01*
X44442Y-35383D01*
X44442Y-35383D01*
X44522Y-35350D01*
X44583Y-35290D01*
X44616Y-35210D01*
X44616Y-35124D01*
X44583Y-35044D01*
X44522Y-34983D01*
X44459Y-34957D01*
X44531Y-34927D01*
X44592Y-34866D01*
X44625Y-34787D01*
X44626Y-34701D01*
X44626Y-36929D01*
X44563Y-36992D01*
X44527Y-37078D01*
X44527Y-37172D01*
X44563Y-37259D01*
X44629Y-37326D01*
X44716Y-37362D01*
X44810Y-37362D01*
X44897Y-37326D01*
X44963Y-37259D01*
X44999Y-37173D01*
X45000Y-37079D01*
X45000Y-39251D01*
X42933Y-39251D01*
X42933Y-37550D01*
X42897Y-37463D01*
X42830Y-37397D01*
X42744Y-37361D01*
X42650Y-37361D01*
X42563Y-37397D01*
X42496Y-37463D01*
X42460Y-37550D01*
X42460Y-37644D01*
X42496Y-37731D01*
X42562Y-37797D01*
X42649Y-37833D01*
X42743Y-37833D01*
X42830Y-37797D01*
X42896Y-37731D01*
X42933Y-37644D01*
X42933Y-37550D01*
X42933Y-39251D01*
X39488Y-39251D01*
X39488Y-29566D01*
X53533Y-29566D01*
X53533Y-32066D01*
X53544Y-32123D01*
X53576Y-32171D01*
X53624Y-32203D01*
X53641Y-32206D01*
X53641Y-36690D01*
X53641Y-36690D01*
G37*
G54D18*
X53641Y-36690D02*
X53624Y-36694D01*
X53576Y-36726D01*
X53544Y-36774D01*
X53533Y-36830D01*
X53533Y-39251D01*
X53425Y-39251D01*
X53425Y-36224D01*
X53404Y-36174D01*
X53404Y-36174D01*
X53404Y-36174D01*
X53383Y-36123D01*
X53346Y-36086D01*
X53346Y-34500D01*
X53310Y-34413D01*
X53244Y-34347D01*
X53157Y-34311D01*
X53063Y-34310D01*
X52976Y-34346D01*
X52910Y-34413D01*
X52874Y-34500D01*
X52873Y-34594D01*
X52909Y-34680D01*
X52976Y-34747D01*
X53063Y-34783D01*
X53157Y-34783D01*
X53243Y-34747D01*
X53310Y-34681D01*
X53346Y-34594D01*
X53346Y-34500D01*
X53346Y-36086D01*
X53344Y-36084D01*
X53344Y-36084D01*
X53305Y-36046D01*
X53305Y-36045D01*
X52911Y-35651D01*
X52821Y-35591D01*
X52775Y-35582D01*
X52775Y-33673D01*
X52739Y-33586D01*
X52673Y-33520D01*
X52586Y-33484D01*
X52492Y-33484D01*
X52405Y-33520D01*
X52339Y-33586D01*
X52303Y-33673D01*
X52303Y-33767D01*
X52338Y-33854D01*
X52405Y-33920D01*
X52492Y-33956D01*
X52586Y-33956D01*
X52673Y-33920D01*
X52739Y-33854D01*
X52775Y-33767D01*
X52775Y-33673D01*
X52775Y-35582D01*
X52716Y-35570D01*
X52420Y-35570D01*
X52424Y-35567D01*
X52460Y-35480D01*
X52460Y-35386D01*
X52424Y-35299D01*
X52358Y-35232D01*
X52271Y-35196D01*
X52193Y-35196D01*
X52193Y-30642D01*
X52157Y-30555D01*
X52091Y-30488D01*
X52004Y-30452D01*
X51971Y-30452D01*
X51826Y-30307D01*
X51768Y-30269D01*
X51701Y-30255D01*
X40984Y-30255D01*
X40916Y-30269D01*
X40858Y-30307D01*
X40366Y-30799D01*
X40328Y-30857D01*
X40314Y-30925D01*
X40314Y-33211D01*
X40197Y-33094D01*
X40044Y-33030D01*
X39877Y-33030D01*
X39724Y-33094D01*
X39606Y-33211D01*
X39542Y-33365D01*
X39542Y-33531D01*
X39605Y-33685D01*
X39723Y-33803D01*
X39877Y-33866D01*
X40043Y-33867D01*
X40197Y-33803D01*
X40314Y-33685D01*
X40314Y-33685D01*
X40314Y-33843D01*
X40103Y-34055D01*
X40044Y-34030D01*
X39877Y-34030D01*
X39724Y-34094D01*
X39606Y-34211D01*
X39542Y-34365D01*
X39542Y-34531D01*
X39605Y-34685D01*
X39723Y-34803D01*
X39877Y-34866D01*
X40043Y-34867D01*
X40197Y-34803D01*
X40314Y-34685D01*
X40378Y-34532D01*
X40378Y-34366D01*
X40354Y-34305D01*
X40551Y-34108D01*
X40551Y-35044D01*
X40378Y-35217D01*
X40378Y-35125D01*
X40360Y-35082D01*
X40327Y-35048D01*
X40284Y-35030D01*
X40237Y-35030D01*
X39637Y-35030D01*
X39593Y-35048D01*
X39560Y-35081D01*
X39542Y-35125D01*
X39542Y-35172D01*
X39542Y-35772D01*
X39560Y-35815D01*
X39593Y-35848D01*
X39637Y-35866D01*
X39684Y-35866D01*
X40284Y-35866D01*
X40327Y-35849D01*
X40360Y-35815D01*
X40378Y-35772D01*
X40378Y-35725D01*
X40378Y-35629D01*
X40392Y-35629D01*
X40392Y-35629D01*
X40393Y-35629D01*
X40444Y-35619D01*
X40460Y-35616D01*
X40460Y-35616D01*
X40461Y-35616D01*
X40502Y-35589D01*
X40517Y-35578D01*
X40518Y-35578D01*
X40518Y-35578D01*
X40853Y-35243D01*
X40892Y-35185D01*
X40892Y-35185D01*
X40905Y-35118D01*
X40905Y-31119D01*
X41173Y-30866D01*
X46417Y-30866D01*
X46354Y-30929D01*
X46318Y-31015D01*
X46318Y-31109D01*
X46354Y-31196D01*
X46421Y-31263D01*
X46507Y-31299D01*
X46601Y-31299D01*
X46688Y-31263D01*
X46755Y-31196D01*
X46791Y-31110D01*
X46791Y-31016D01*
X46755Y-30929D01*
X46692Y-30866D01*
X46997Y-30866D01*
X46968Y-30937D01*
X46968Y-31031D01*
X47004Y-31117D01*
X47070Y-31184D01*
X47157Y-31220D01*
X47251Y-31220D01*
X47338Y-31184D01*
X47361Y-31161D01*
X48332Y-31161D01*
X49409Y-32238D01*
X49409Y-32271D01*
X49445Y-32358D01*
X49511Y-32424D01*
X49598Y-32460D01*
X49692Y-32460D01*
X49779Y-32424D01*
X49845Y-32358D01*
X49881Y-32271D01*
X49881Y-32177D01*
X49846Y-32090D01*
X49779Y-32024D01*
X49692Y-31988D01*
X49660Y-31988D01*
X49606Y-31934D01*
X49606Y-31075D01*
X49570Y-30988D01*
X49504Y-30921D01*
X49417Y-30885D01*
X49323Y-30885D01*
X49236Y-30921D01*
X49169Y-30988D01*
X49133Y-31074D01*
X49133Y-31168D01*
X49169Y-31255D01*
X49236Y-31322D01*
X49322Y-31358D01*
X49416Y-31358D01*
X49503Y-31322D01*
X49570Y-31256D01*
X49606Y-31169D01*
X49606Y-31075D01*
X49606Y-31934D01*
X48537Y-30866D01*
X51290Y-30866D01*
X51313Y-30889D01*
X51399Y-30925D01*
X51493Y-30925D01*
X51580Y-30889D01*
X51647Y-30822D01*
X51683Y-30736D01*
X51683Y-30665D01*
X51720Y-30703D01*
X51720Y-30735D01*
X51756Y-30822D01*
X51823Y-30889D01*
X51909Y-30925D01*
X52003Y-30925D01*
X52090Y-30889D01*
X52157Y-30822D01*
X52193Y-30736D01*
X52193Y-30642D01*
X52193Y-35196D01*
X52177Y-35196D01*
X52090Y-35232D01*
X52024Y-35299D01*
X51988Y-35385D01*
X51988Y-33890D01*
X51952Y-33803D01*
X51948Y-33799D01*
X51948Y-31587D01*
X51912Y-31500D01*
X51846Y-31433D01*
X51759Y-31397D01*
X51665Y-31397D01*
X51578Y-31433D01*
X51512Y-31499D01*
X51476Y-31586D01*
X51476Y-31680D01*
X51512Y-31767D01*
X51578Y-31833D01*
X51665Y-31870D01*
X51759Y-31870D01*
X51846Y-31834D01*
X51912Y-31767D01*
X51948Y-31681D01*
X51948Y-31587D01*
X51948Y-33799D01*
X51885Y-33736D01*
X51799Y-33700D01*
X51705Y-33700D01*
X51692Y-33705D01*
X51692Y-33693D01*
X51657Y-33606D01*
X51590Y-33540D01*
X51503Y-33503D01*
X51409Y-33503D01*
X51323Y-33539D01*
X51256Y-33606D01*
X51220Y-33692D01*
X51220Y-33786D01*
X51256Y-33873D01*
X51322Y-33940D01*
X51409Y-33976D01*
X51503Y-33976D01*
X51515Y-33971D01*
X51515Y-33983D01*
X51551Y-34070D01*
X51617Y-34137D01*
X51704Y-34173D01*
X51798Y-34173D01*
X51885Y-34137D01*
X51952Y-34070D01*
X51988Y-33984D01*
X51988Y-33890D01*
X51988Y-35385D01*
X51988Y-35479D01*
X52024Y-35566D01*
X52028Y-35570D01*
X51181Y-35570D01*
X51181Y-32610D01*
X51145Y-32523D01*
X51078Y-32457D01*
X50992Y-32421D01*
X50898Y-32421D01*
X50811Y-32457D01*
X50744Y-32523D01*
X50708Y-32610D01*
X50708Y-32627D01*
X50446Y-32885D01*
X50446Y-32886D01*
X50445Y-32886D01*
X50426Y-32914D01*
X50407Y-32942D01*
X50407Y-32943D01*
X50407Y-32944D01*
X50400Y-32977D01*
X50393Y-33010D01*
X50393Y-33011D01*
X50393Y-33011D01*
X50393Y-33129D01*
X50393Y-35059D01*
X50370Y-35082D01*
X50334Y-35169D01*
X50334Y-35263D01*
X50370Y-35350D01*
X50436Y-35416D01*
X50523Y-35452D01*
X50617Y-35452D01*
X50704Y-35416D01*
X50771Y-35350D01*
X50807Y-35263D01*
X50807Y-35169D01*
X50771Y-35082D01*
X50748Y-35059D01*
X50748Y-33129D01*
X50748Y-33085D01*
X50942Y-32893D01*
X50991Y-32893D01*
X51078Y-32857D01*
X51145Y-32791D01*
X51181Y-32704D01*
X51181Y-32610D01*
X51181Y-35570D01*
X49620Y-35570D01*
X49015Y-34976D01*
X48641Y-34608D01*
X48641Y-33937D01*
X49015Y-33937D01*
X49015Y-32933D01*
X47716Y-32933D01*
X47716Y-33877D01*
X47716Y-33937D01*
X48090Y-33937D01*
X48090Y-34724D01*
X48090Y-34725D01*
X48090Y-34726D01*
X48101Y-34778D01*
X48111Y-34829D01*
X48112Y-34830D01*
X48112Y-34832D01*
X48142Y-34875D01*
X48171Y-34919D01*
X48172Y-34919D01*
X48172Y-34920D01*
X49015Y-35749D01*
X49312Y-36041D01*
X49313Y-36041D01*
X49313Y-36041D01*
X49314Y-36042D01*
X49354Y-36068D01*
X49402Y-36101D01*
X49403Y-36101D01*
X49404Y-36101D01*
X49451Y-36110D01*
X49507Y-36122D01*
X52602Y-36122D01*
X52954Y-36474D01*
X52993Y-36513D01*
X53044Y-36534D01*
X53044Y-36534D01*
X53044Y-36534D01*
X53094Y-36555D01*
X53149Y-36555D01*
X53204Y-36555D01*
X53255Y-36534D01*
X53255Y-36534D01*
X53255Y-36534D01*
X53305Y-36513D01*
X53344Y-36474D01*
X53344Y-36474D01*
X53344Y-36474D01*
X53383Y-36435D01*
X53404Y-36384D01*
X53404Y-36384D01*
X53404Y-36384D01*
X53425Y-36334D01*
X53425Y-36279D01*
X53425Y-36224D01*
X53425Y-39251D01*
X51476Y-39251D01*
X51476Y-36905D01*
X51476Y-36354D01*
X51443Y-36275D01*
X51382Y-36214D01*
X51303Y-36181D01*
X51216Y-36181D01*
X51137Y-36213D01*
X51076Y-36274D01*
X51043Y-36354D01*
X51043Y-36354D01*
X51010Y-36275D01*
X50949Y-36214D01*
X50870Y-36181D01*
X50783Y-36181D01*
X50704Y-36213D01*
X50643Y-36274D01*
X50610Y-36354D01*
X50610Y-36354D01*
X50577Y-36275D01*
X50516Y-36214D01*
X50436Y-36181D01*
X50350Y-36181D01*
X50271Y-36213D01*
X50210Y-36274D01*
X50177Y-36354D01*
X50177Y-36440D01*
X50210Y-36520D01*
X50270Y-36581D01*
X50350Y-36614D01*
X50436Y-36614D01*
X50516Y-36581D01*
X50577Y-36520D01*
X50610Y-36440D01*
X50610Y-36354D01*
X50610Y-36440D01*
X50643Y-36520D01*
X50703Y-36581D01*
X50783Y-36614D01*
X50869Y-36614D01*
X50949Y-36581D01*
X51010Y-36520D01*
X51043Y-36440D01*
X51043Y-36354D01*
X51043Y-36440D01*
X51076Y-36520D01*
X51137Y-36581D01*
X51216Y-36614D01*
X51302Y-36614D01*
X51382Y-36581D01*
X51443Y-36520D01*
X51476Y-36440D01*
X51476Y-36354D01*
X51476Y-36905D01*
X51443Y-36826D01*
X51382Y-36765D01*
X51303Y-36732D01*
X51216Y-36732D01*
X51137Y-36765D01*
X51076Y-36826D01*
X51043Y-36905D01*
X51043Y-36905D01*
X51010Y-36826D01*
X50949Y-36765D01*
X50870Y-36732D01*
X50783Y-36732D01*
X50704Y-36765D01*
X50643Y-36826D01*
X50610Y-36905D01*
X50610Y-36905D01*
X50577Y-36826D01*
X50516Y-36765D01*
X50436Y-36732D01*
X50350Y-36732D01*
X50271Y-36765D01*
X50210Y-36826D01*
X50177Y-36905D01*
X50177Y-36991D01*
X50210Y-37071D01*
X50270Y-37132D01*
X50350Y-37165D01*
X50436Y-37165D01*
X50516Y-37132D01*
X50577Y-37071D01*
X50610Y-36992D01*
X50610Y-36905D01*
X50610Y-36991D01*
X50643Y-37071D01*
X50703Y-37132D01*
X50783Y-37165D01*
X50869Y-37165D01*
X50949Y-37132D01*
X51010Y-37071D01*
X51043Y-36992D01*
X51043Y-36905D01*
X51043Y-36991D01*
X51076Y-37071D01*
X51137Y-37132D01*
X51216Y-37165D01*
X51302Y-37165D01*
X51382Y-37132D01*
X51443Y-37071D01*
X51476Y-36992D01*
X51476Y-36905D01*
X51476Y-39251D01*
X51318Y-39251D01*
X51318Y-38142D01*
X51283Y-38055D01*
X51216Y-37988D01*
X51129Y-37952D01*
X51035Y-37952D01*
X50949Y-37988D01*
X50882Y-38054D01*
X50846Y-38141D01*
X50846Y-38235D01*
X50882Y-38322D01*
X50948Y-38389D01*
X51035Y-38425D01*
X51129Y-38425D01*
X51216Y-38389D01*
X51282Y-38322D01*
X51318Y-38236D01*
X51318Y-38142D01*
X51318Y-39251D01*
X50098Y-39251D01*
X50098Y-36862D01*
X50062Y-36775D01*
X49996Y-36709D01*
X49909Y-36673D01*
X49815Y-36673D01*
X49728Y-36709D01*
X49662Y-36775D01*
X49626Y-36862D01*
X49625Y-36956D01*
X49661Y-37043D01*
X49728Y-37109D01*
X49815Y-37145D01*
X49908Y-37145D01*
X49995Y-37109D01*
X50062Y-37043D01*
X50098Y-36956D01*
X50098Y-36862D01*
X50098Y-39251D01*
X49015Y-39251D01*
X48110Y-39251D01*
X48110Y-35602D01*
X48074Y-35515D01*
X48007Y-35449D01*
X47921Y-35413D01*
X47827Y-35413D01*
X47740Y-35449D01*
X47673Y-35515D01*
X47637Y-35602D01*
X47637Y-35696D01*
X47673Y-35783D01*
X47740Y-35849D01*
X47826Y-35885D01*
X47920Y-35885D01*
X48007Y-35849D01*
X48074Y-35783D01*
X48110Y-35696D01*
X48110Y-35602D01*
X48110Y-39251D01*
X46771Y-39251D01*
X46771Y-33457D01*
X46735Y-33370D01*
X46669Y-33303D01*
X46582Y-33267D01*
X46488Y-33267D01*
X46401Y-33303D01*
X46335Y-33369D01*
X46299Y-33456D01*
X46299Y-33550D01*
X46335Y-33637D01*
X46401Y-33704D01*
X46488Y-33740D01*
X46582Y-33740D01*
X46669Y-33704D01*
X46735Y-33637D01*
X46771Y-33551D01*
X46771Y-33457D01*
X46771Y-39251D01*
X46614Y-39251D01*
X46614Y-34638D01*
X46578Y-34551D01*
X46511Y-34484D01*
X46425Y-34448D01*
X46331Y-34448D01*
X46244Y-34484D01*
X46177Y-34551D01*
X46141Y-34637D01*
X46141Y-34731D01*
X46177Y-34818D01*
X46243Y-34885D01*
X46330Y-34921D01*
X46424Y-34921D01*
X46511Y-34885D01*
X46578Y-34819D01*
X46614Y-34732D01*
X46614Y-34638D01*
X46614Y-39251D01*
X46220Y-39251D01*
X46220Y-35760D01*
X46184Y-35673D01*
X46141Y-35629D01*
X46164Y-35606D01*
X46200Y-35519D01*
X46200Y-35425D01*
X46164Y-35338D01*
X46098Y-35272D01*
X46011Y-35236D01*
X45917Y-35236D01*
X45830Y-35272D01*
X45764Y-35338D01*
X45728Y-35425D01*
X45728Y-35519D01*
X45764Y-35606D01*
X45807Y-35649D01*
X45784Y-35673D01*
X45748Y-35759D01*
X45747Y-35853D01*
X45783Y-35940D01*
X45850Y-36007D01*
X45937Y-36043D01*
X46031Y-36043D01*
X46117Y-36007D01*
X46184Y-35941D01*
X46220Y-35854D01*
X46220Y-35760D01*
X46220Y-39251D01*
X45000Y-39251D01*
X45000Y-37079D01*
X44980Y-37031D01*
X44980Y-31449D01*
X44944Y-31362D01*
X44878Y-31295D01*
X44791Y-31259D01*
X44697Y-31259D01*
X44610Y-31295D01*
X44543Y-31362D01*
X44507Y-31448D01*
X44507Y-31542D01*
X44543Y-31629D01*
X44610Y-31696D01*
X44696Y-31732D01*
X44790Y-31732D01*
X44877Y-31696D01*
X44944Y-31630D01*
X44980Y-31543D01*
X44980Y-31449D01*
X44980Y-37031D01*
X44964Y-36992D01*
X44897Y-36925D01*
X44810Y-36889D01*
X44716Y-36889D01*
X44630Y-36925D01*
X44626Y-36929D01*
X44626Y-34701D01*
X44593Y-34621D01*
X44532Y-34560D01*
X44452Y-34527D01*
X44452Y-34527D01*
X44531Y-34494D01*
X44592Y-34433D01*
X44625Y-34354D01*
X44626Y-34268D01*
X44593Y-34188D01*
X44532Y-34127D01*
X44452Y-34094D01*
X44452Y-34094D01*
X44531Y-34061D01*
X44592Y-34000D01*
X44625Y-33921D01*
X44626Y-33835D01*
X44593Y-33755D01*
X44532Y-33694D01*
X44452Y-33661D01*
X44366Y-33661D01*
X44286Y-33694D01*
X44225Y-33755D01*
X44192Y-33834D01*
X44192Y-33835D01*
X44160Y-33755D01*
X44099Y-33694D01*
X44019Y-33661D01*
X43933Y-33661D01*
X43877Y-33684D01*
X43877Y-32276D01*
X43842Y-32189D01*
X43775Y-32122D01*
X43688Y-32086D01*
X43594Y-32086D01*
X43508Y-32122D01*
X43441Y-32188D01*
X43405Y-32275D01*
X43405Y-32369D01*
X43441Y-32456D01*
X43507Y-32522D01*
X43594Y-32559D01*
X43688Y-32559D01*
X43775Y-32523D01*
X43841Y-32456D01*
X43877Y-32370D01*
X43877Y-32276D01*
X43877Y-33684D01*
X43853Y-33694D01*
X43792Y-33755D01*
X43759Y-33834D01*
X43759Y-33835D01*
X43726Y-33755D01*
X43666Y-33694D01*
X43586Y-33661D01*
X43500Y-33661D01*
X43420Y-33694D01*
X43359Y-33755D01*
X43326Y-33834D01*
X43326Y-33835D01*
X43293Y-33755D01*
X43233Y-33694D01*
X43153Y-33661D01*
X43067Y-33661D01*
X42987Y-33694D01*
X42952Y-33729D01*
X42952Y-31804D01*
X42916Y-31717D01*
X42850Y-31651D01*
X42763Y-31615D01*
X42669Y-31615D01*
X42582Y-31650D01*
X42516Y-31717D01*
X42480Y-31804D01*
X42480Y-31898D01*
X42516Y-31984D01*
X42582Y-32051D01*
X42669Y-32087D01*
X42763Y-32087D01*
X42850Y-32051D01*
X42916Y-31985D01*
X42952Y-31898D01*
X42952Y-31804D01*
X42952Y-33729D01*
X42926Y-33755D01*
X42893Y-33834D01*
X42893Y-33835D01*
X42860Y-33755D01*
X42799Y-33694D01*
X42720Y-33661D01*
X42634Y-33661D01*
X42554Y-33694D01*
X42493Y-33755D01*
X42460Y-33834D01*
X42460Y-33920D01*
X42493Y-34000D01*
X42554Y-34061D01*
X42633Y-34094D01*
X42720Y-34094D01*
X42634Y-34094D01*
X42554Y-34127D01*
X42493Y-34188D01*
X42460Y-34267D01*
X42460Y-34353D01*
X42493Y-34433D01*
X42554Y-34494D01*
X42633Y-34527D01*
X42720Y-34527D01*
X42634Y-34527D01*
X42554Y-34560D01*
X42493Y-34621D01*
X42460Y-34700D01*
X42460Y-34786D01*
X42493Y-34866D01*
X42554Y-34927D01*
X42633Y-34960D01*
X42720Y-34960D01*
X42634Y-34960D01*
X42554Y-34993D01*
X42493Y-35054D01*
X42460Y-35133D01*
X42460Y-35220D01*
X42493Y-35299D01*
X42554Y-35360D01*
X42633Y-35393D01*
X42720Y-35393D01*
X42634Y-35393D01*
X42554Y-35426D01*
X42493Y-35487D01*
X42460Y-35566D01*
X42460Y-35653D01*
X42493Y-35732D01*
X42554Y-35793D01*
X42633Y-35826D01*
X42720Y-35826D01*
X42799Y-35793D01*
X42860Y-35733D01*
X42893Y-35653D01*
X42893Y-35567D01*
X42893Y-35653D01*
X42926Y-35732D01*
X42987Y-35793D01*
X43066Y-35826D01*
X43153Y-35826D01*
X43232Y-35793D01*
X43293Y-35733D01*
X43323Y-35660D01*
X43349Y-35722D01*
X43410Y-35783D01*
X43490Y-35816D01*
X43576Y-35816D01*
X43655Y-35784D01*
X43716Y-35723D01*
X43749Y-35643D01*
X43750Y-35557D01*
X43749Y-35643D01*
X43782Y-35722D01*
X43843Y-35783D01*
X43923Y-35816D01*
X44009Y-35816D01*
X44089Y-35784D01*
X44149Y-35723D01*
X44183Y-35643D01*
X44183Y-35557D01*
X44183Y-35643D01*
X44215Y-35722D01*
X44276Y-35783D01*
X44356Y-35816D01*
X44442Y-35816D01*
X44522Y-35784D01*
X44583Y-35723D01*
X44616Y-35643D01*
X44616Y-35557D01*
X44583Y-35477D01*
X44522Y-35416D01*
X44442Y-35383D01*
X44442Y-35383D01*
X44522Y-35350D01*
X44583Y-35290D01*
X44616Y-35210D01*
X44616Y-35124D01*
X44583Y-35044D01*
X44522Y-34983D01*
X44459Y-34957D01*
X44531Y-34927D01*
X44592Y-34866D01*
X44625Y-34787D01*
X44626Y-34701D01*
X44626Y-36929D01*
X44563Y-36992D01*
X44527Y-37078D01*
X44527Y-37172D01*
X44563Y-37259D01*
X44629Y-37326D01*
X44716Y-37362D01*
X44810Y-37362D01*
X44897Y-37326D01*
X44963Y-37259D01*
X44999Y-37173D01*
X45000Y-37079D01*
X45000Y-39251D01*
X42933Y-39251D01*
X42933Y-37550D01*
X42897Y-37463D01*
X42830Y-37397D01*
X42744Y-37361D01*
X42650Y-37361D01*
X42563Y-37397D01*
X42496Y-37463D01*
X42460Y-37550D01*
X42460Y-37644D01*
X42496Y-37731D01*
X42562Y-37797D01*
X42649Y-37833D01*
X42743Y-37833D01*
X42830Y-37797D01*
X42896Y-37731D01*
X42933Y-37644D01*
X42933Y-37550D01*
X42933Y-39251D01*
X39488Y-39251D01*
X39488Y-29566D01*
X53533Y-29566D01*
X53533Y-32066D01*
X53544Y-32123D01*
X53576Y-32171D01*
X53624Y-32203D01*
X53641Y-32206D01*
X53641Y-36690D01*
G54D10*
G36*
X48858Y-33779D02*
X47874Y-33779D01*
X47874Y-33090D01*
X48858Y-33090D01*
X48858Y-33779D01*
X48858Y-33779D01*
G37*
G54D18*
X48858Y-33779D02*
X47874Y-33779D01*
X47874Y-33090D01*
X48858Y-33090D01*
X48858Y-33779D01*
M02*
