<?xml version="1.0" standalone="no"?>
 <!DOCTYPE svg PUBLIC "-//W3C//DTD SVG 1.1//EN" 
 "http://www.w3.org/Graphics/SVG/1.1/DTD/svg11.dtd"> 
<svg xmlns="http://www.w3.org/2000/svg" version="1.1" 
    width="5.31114cm" height="5.31368cm" viewBox="0 0 20910 20920 ">
<title>SVG Picture created as nano--brd.svg date 2013/06/13 23:48:22 </title>
  <desc>Picture generated by PCBNEW </desc>
<g style="fill:#000000; fill-opacity:1;stroke:#000000; stroke-opacity:1;
stroke-linecap:round; stroke-linejoin:round; "
 transform="translate(0 0) scale(1 1)">
</g>
<g style="fill:#008484; fill-opacity:0.0; 
stroke:#008484; stroke-width:78.7402; stroke-opacity:1; 
stroke-linecap:round; stroke-linejoin:round;">
<path d="M6060 10954
L6227 11122
" />
<path d="M9189 11486
L9337 11486
" />
<path d="M9189 11318
L9189 11486
" />
</g>
<g style="fill:#008484; fill-opacity:0.0; 
stroke:#008484; stroke-width:39.3701; stroke-opacity:1; 
stroke-linecap:round; stroke-linejoin:round;">
<path d="M6734 16516
L6734 16835
L6753 16872
L6771 16891
L6809 16910
L6884 16910
L6921 16891
L6940 16872
L6959 16835
L6959 16516
" />
<path d="M7109 16516
L7353 16516
L7221 16666
L7278 16666
L7315 16685
L7334 16704
L7353 16741
L7353 16835
L7334 16872
L7315 16891
L7278 16910
L7165 16910
L7128 16891
L7109 16872
" />
<path d="M7647 18183
L7741 18445
L7835 18183
" />
<path d="M7985 18408
L8004 18427
L7985 18445
L7966 18427
L7985 18408
L7985 18445
" />
<path d="M8247 18052
L8285 18052
L8322 18070
L8341 18089
L8360 18127
L8379 18202
L8379 18295
L8360 18370
L8341 18408
L8322 18427
L8285 18445
L8247 18445
L8210 18427
L8191 18408
L8172 18370
L8154 18295
L8154 18202
L8172 18127
L8191 18089
L8210 18070
L8247 18052
" />
<path d="M8547 18408
L8566 18427
L8547 18445
L8529 18427
L8547 18408
L8547 18445
" />
<path d="M8941 18445
L8716 18445
" />
<path d="M8829 18445
L8829 18052
L8791 18108
L8754 18145
L8716 18164
" />
</g>
<g style="fill:#008484; fill-opacity:0.0; 
stroke:#008484; stroke-width:78.7402; stroke-opacity:1; 
stroke-linecap:round; stroke-linejoin:round;">
<path d="M5237 19310
L5237 18810
" />
<path d="M5523 19310
L5309 19025
" />
<path d="M5523 18810
L5237 19096
" />
<path d="M5809 19310
L5761 19287
L5737 19239
L5737 18810
" />
<path d="M6071 19310
L6023 19287
L5999 19263
L5976 19215
L5976 19072
L5999 19025
L6023 19001
L6071 18977
L6142 18977
L6190 19001
L6214 19025
L6237 19072
L6237 19215
L6214 19263
L6190 19287
L6142 19310
L6071 19310
" />
<path d="M6452 18977
L6452 19310
" />
<path d="M6452 19025
L6476 19001
L6523 18977
L6595 18977
L6642 19001
L6666 19048
L6666 19310
" />
<path d="M7118 19310
L7118 18810
" />
<path d="M7118 19287
L7071 19310
L6976 19310
L6928 19287
L6904 19263
L6880 19215
L6880 19072
L6904 19025
L6928 19001
L6976 18977
L7071 18977
L7118 19001
" />
<path d="M7356 19310
L7356 18977
" />
<path d="M7356 18810
L7333 18834
L7356 18858
L7380 18834
L7356 18810
L7356 18858
" />
<path d="M7595 19310
L7595 18810
" />
<path d="M7642 19120
L7785 19310
" />
<path d="M7785 18977
L7595 19167
" />
<path d="M8190 19287
L8142 19310
L8047 19310
L7999 19287
L7976 19239
L7976 19048
L7999 19001
L8047 18977
L8142 18977
L8190 19001
L8214 19048
L8214 19096
L7976 19144
" />
<path d="M9071 19310
L8785 19310
" />
<path d="M8928 19310
L8928 18810
L8880 18882
L8833 18929
L8785 18953
" />
</g>
<g style="fill:#C1C100; fill-opacity:0.0; 
stroke:#C1C100; stroke-width:59.0551; stroke-opacity:1; 
stroke-linecap:round; stroke-linejoin:round;">
<path d="M15459 12411
L15459 7332
" />
<path d="M20833 12411
L15459 12411
" />
<path d="M20833 2568
L15459 2568
" />
<path d="M20833 7332
L15459 7332
" />
<path d="M15459 17175
L15459 19714
" />
<path d="M15459 2568
L15459 29
" />
<path d="M20833 17175
L15459 17175
" />
</g>
<g style="fill:#008484; fill-opacity:0.0; 
stroke:#008484; stroke-width:78.7402; stroke-opacity:1; 
stroke-linecap:round; stroke-linejoin:round;">
<path d="M1148 9872
L15459 9872
" />
</g>
<g style="fill:#C1C100; fill-opacity:0.0; 
stroke:#C1C100; stroke-width:0; stroke-opacity:1; 
stroke-linecap:round; stroke-linejoin:round;">
<path d="M1148 29
L15459 29
" />
<path d="M20833 2568
L20833 7332
" />
<path d="M20833 12411
L20833 17175
" />
<path d="M15459 19714
L1148 19714
" />
<path d="M1148 19714
L1148 29
" />
</g>
<g style="fill:#008484; fill-opacity:0.0; 
stroke:#008484; stroke-width:40; stroke-opacity:1; 
stroke-linecap:round; stroke-linejoin:round;">
<path d="M12374 16782
L12374 17101
L12392 17138
L12411 17157
L12449 17176
L12524 17176
L12561 17157
L12580 17138
L12599 17101
L12599 16782
" />
<path d="M12992 17176
L12767 17176
" />
<path d="M12880 17176
L12880 16782
L12842 16838
L12805 16876
L12767 16894
" />
</g>
<g style="fill:#008484; fill-opacity:0.0; 
stroke:#008484; stroke-width:39.3701; stroke-opacity:1; 
stroke-linecap:round; stroke-linejoin:round;">
<path d="M13818 16377
L13931 16377
" />
<path d="M13796 16445
L13874 16209
L13953 16445
" />
<path d="M14032 16445
L14032 16209
L14122 16209
L14144 16220
L14156 16231
L14167 16254
L14167 16287
L14156 16310
L14144 16321
L14122 16332
L14032 16332
" />
<path d="M14369 16209
L14324 16209
L14302 16220
L14291 16231
L14268 16265
L14257 16310
L14257 16400
L14268 16422
L14279 16434
L14302 16445
L14347 16445
L14369 16434
L14381 16422
L14392 16400
L14392 16344
L14381 16321
L14369 16310
L14347 16299
L14302 16299
L14279 16310
L14268 16321
L14257 16344
" />
<path d="M14606 16209
L14493 16209
L14482 16321
L14493 16310
L14516 16299
L14572 16299
L14594 16310
L14606 16321
L14617 16344
L14617 16400
L14606 16422
L14594 16434
L14572 16445
L14516 16445
L14493 16434
L14482 16422
" />
<path d="M14763 16209
L14786 16209
L14808 16220
L14819 16231
L14831 16254
L14842 16299
L14842 16355
L14831 16400
L14819 16422
L14808 16434
L14786 16445
L14763 16445
L14741 16434
L14729 16422
L14718 16400
L14707 16355
L14707 16299
L14718 16254
L14729 16231
L14741 16220
L14763 16209
" />
<path d="M14932 16231
L14943 16220
L14966 16209
L15022 16209
L15044 16220
L15056 16231
L15067 16254
L15067 16276
L15056 16310
L14921 16445
L15067 16445
" />
<path d="M15157 16377
L15269 16377
" />
<path d="M15134 16445
L15213 16209
L15292 16445
" />
</g>
<g style="fill:#008484; fill-opacity:0.0; 
stroke:#008484; stroke-width:59.0551; stroke-opacity:1; 
stroke-linecap:round; stroke-linejoin:round;">
<path d="M8268 11743
L8662 12334
" />
<path d="M8662 11743
L8268 12334
" />
<path d="M9196 12334
L8859 12334
" />
<path d="M9028 12334
L9028 11743
L8972 11827
L8915 11884
L8859 11912
" />
<path d="M6905 14478
L7186 14478
" />
<path d="M6848 14647
L7045 14056
L7242 14647
" />
<path d="M7411 14618
L7495 14647
L7636 14647
L7692 14618
L7720 14590
L7748 14534
L7748 14478
L7720 14422
L7692 14393
L7636 14365
L7523 14337
L7467 14309
L7439 14281
L7411 14225
L7411 14169
L7439 14112
L7467 14084
L7523 14056
L7664 14056
L7748 14084
" />
<path d="M8001 14647
L8001 14056
L8142 14056
L8226 14084
L8283 14140
L8311 14197
L8339 14309
L8339 14393
L8311 14506
L8283 14562
L8226 14618
L8142 14647
L8001 14647
" />
<path d="M8592 14647
L8592 14056
L8789 14478
L8986 14056
L8986 14647
" />
<path d="M9464 14337
L9548 14365
L9576 14393
L9604 14450
L9604 14534
L9576 14590
L9548 14618
L9492 14647
L9267 14647
L9267 14056
L9464 14056
L9520 14084
L9548 14112
L9576 14169
L9576 14225
L9548 14281
L9520 14309
L9464 14337
L9267 14337
" />
</g>
<g style="fill:#008484; fill-opacity:0.0; 
stroke:#008484; stroke-width:50; stroke-opacity:1; 
stroke-linecap:round; stroke-linejoin:round;">
<path d="M11727 12384
L11727 12627
L11741 12656
L11755 12670
L11784 12684
L11841 12684
L11869 12670
L11884 12656
L11898 12627
L11898 12384
" />
<path d="M12027 12413
L12041 12399
L12069 12384
L12141 12384
L12169 12399
L12184 12413
L12198 12442
L12198 12470
L12184 12513
L12012 12684
L12198 12684
" />
<path d="M11299 12895
L11299 12595
L11414 12595
L11442 12609
L11457 12624
L11471 12652
L11471 12695
L11457 12724
L11442 12738
L11414 12752
L11299 12752
" />
<path d="M11599 12895
L11599 12595
" />
<path d="M11914 12866
L11899 12881
L11857 12895
L11828 12895
L11785 12881
L11757 12852
L11742 12824
L11728 12766
L11728 12724
L11742 12666
L11757 12638
L11785 12609
L11828 12595
L11857 12595
L11899 12609
L11914 12624
" />
<path d="M12199 12895
L12028 12895
" />
<path d="M12114 12895
L12114 12595
L12085 12638
L12057 12666
L12028 12681
" />
<path d="M12457 12595
L12399 12595
L12371 12609
L12357 12624
L12328 12666
L12314 12724
L12314 12838
L12328 12866
L12342 12881
L12371 12895
L12428 12895
L12457 12881
L12471 12866
L12485 12838
L12485 12766
L12471 12738
L12457 12724
L12428 12709
L12371 12709
L12342 12724
L12328 12738
L12314 12766
" />
<path d="M12714 12738
L12614 12738
" />
<path d="M12614 12895
L12614 12595
L12757 12595
" />
<path d="M13028 12895
L12857 12895
" />
<path d="M12942 12895
L12942 12595
L12914 12638
L12885 12666
L12857 12681
" />
<path d="M13285 12695
L13285 12895
" />
<path d="M13214 12581
L13142 12795
L13328 12795
" />
<path d="M13585 12595
L13442 12595
L13428 12738
L13442 12724
L13471 12709
L13542 12709
L13571 12724
L13585 12738
L13599 12766
L13599 12838
L13585 12866
L13571 12881
L13542 12895
L13471 12895
L13442 12881
L13428 12866
" />
<path d="M13742 12895
L13799 12895
L13828 12881
L13842 12866
L13871 12824
L13885 12766
L13885 12652
L13871 12624
L13857 12609
L13828 12595
L13771 12595
L13742 12609
L13728 12624
L13714 12652
L13714 12724
L13728 12752
L13742 12766
L13771 12781
L13828 12781
L13857 12766
L13871 12752
L13885 12724
" />
</g>
<g style="fill:#008484; fill-opacity:0.0; 
stroke:#008484; stroke-width:39; stroke-opacity:1; 
stroke-linecap:round; stroke-linejoin:round;">
<path d="M10835 19086
L10835 18929
L10873 18929
L10895 18937
L10910 18952
L10918 18967
L10925 18997
L10925 19019
L10918 19049
L10910 19064
L10895 19079
L10873 19086
L10835 19086
" />
<path d="M11075 19086
L10985 19086
" />
<path d="M11030 19086
L11030 18929
L11015 18952
L11000 18967
L10985 18974
" />
</g>
<g style="fill:#008484; fill-opacity:0.0; 
stroke:#008484; stroke-width:59.0551; stroke-opacity:1; 
stroke-linecap:round; stroke-linejoin:round;">
<path d="M9888 17776
L9607 17776
L9607 17186
" />
<path d="M10394 17776
L10057 17776
" />
<path d="M10226 17776
L10226 17186
L10169 17270
L10113 17327
L10057 17355
" />
<path d="M8988 18584
L9354 18584
L9157 18809
L9241 18809
L9298 18837
L9326 18865
L9354 18921
L9354 19062
L9326 19118
L9298 19146
L9241 19174
L9073 19174
L9017 19146
L8988 19118
" />
<path d="M9607 19118
L9635 19146
L9607 19174
L9579 19146
L9607 19118
L9607 19174
" />
<path d="M9832 18584
L10198 18584
L10001 18809
L10085 18809
L10141 18837
L10169 18865
L10198 18921
L10198 19062
L10169 19118
L10141 19146
L10085 19174
L9916 19174
L9860 19146
L9832 19118
" />
<path d="M10704 18780
L10704 19174
" />
<path d="M10451 18780
L10451 19090
L10479 19146
L10535 19174
L10619 19174
L10676 19146
L10704 19118
" />
<path d="M10985 19174
L10985 18584
" />
<path d="M10985 18865
L11322 18865
" />
<path d="M11322 19174
L11322 18584
" />
</g>
<g style="fill:#008484; fill-opacity:0.0; 
stroke:#008484; stroke-width:47; stroke-opacity:1; 
stroke-linecap:round; stroke-linejoin:round;">
<path d="M14109 16942
L14109 17184
L14123 17213
L14137 17227
L14166 17242
L14223 17242
L14251 17227
L14266 17213
L14280 17184
L14280 16942
" />
<path d="M14551 17042
L14551 17242
" />
<path d="M14480 16927
L14409 17142
L14594 17142
" />
</g>
<g style="fill:#008484; fill-opacity:0.0; 
stroke:#008484; stroke-width:39; stroke-opacity:1; 
stroke-linecap:round; stroke-linejoin:round;">
<path d="M14525 17719
L14328 17719
L14468 17654
L14328 17588
L14525 17588
" />
<path d="M14506 17382
L14515 17391
L14525 17419
L14525 17438
L14515 17466
L14496 17485
L14478 17494
L14440 17504
L14412 17504
L14375 17494
L14356 17485
L14337 17466
L14328 17438
L14328 17419
L14337 17391
L14346 17382
" />
<path d="M14525 17297
L14328 17297
L14328 17222
L14337 17204
L14346 17194
L14365 17185
L14393 17185
L14412 17194
L14421 17204
L14431 17222
L14431 17297
" />
<path d="M14525 16997
L14525 17110
" />
<path d="M14525 17053
L14328 17053
L14356 17072
L14375 17091
L14384 17110
" />
<path d="M14328 16931
L14328 16800
L14525 16885
" />
<path d="M14328 16688
L14328 16669
L14337 16650
L14346 16641
L14365 16631
L14403 16622
L14450 16622
L14487 16631
L14506 16641
L14515 16650
L14525 16669
L14525 16688
L14515 16706
L14506 16716
L14487 16725
L14450 16734
L14403 16734
L14365 16725
L14346 16716
L14337 16706
L14328 16688
" />
<path d="M14328 16500
L14328 16481
L14337 16462
L14346 16453
L14365 16444
L14403 16434
L14450 16434
L14487 16444
L14506 16453
L14515 16462
L14525 16481
L14525 16500
L14515 16519
L14506 16528
L14487 16537
L14450 16547
L14403 16547
L14365 16537
L14346 16528
L14337 16519
L14328 16500
" />
</g>
<g style="fill:#008484; fill-opacity:0.0; 
stroke:#008484; stroke-width:79; stroke-opacity:1; 
stroke-linecap:round; stroke-linejoin:round;">
<path d="M9598 13504
L9598 13823
L9617 13861
L9635 13879
L9673 13898
L9748 13898
L9786 13879
L9804 13861
L9823 13823
L9823 13504
" />
<path d="M10198 13504
L10011 13504
L9992 13692
L10011 13673
L10048 13654
L10142 13654
L10180 13673
L10198 13692
L10217 13729
L10217 13823
L10198 13861
L10180 13879
L10142 13898
L10048 13898
L10011 13879
L9992 13861
" />
<path d="M7217 12654
L7404 12654
" />
<path d="M7179 12766
L7311 12372
L7442 12766
" />
<path d="M7573 12766
L7573 12372
L7723 12372
L7761 12391
L7780 12410
L7798 12447
L7798 12504
L7780 12541
L7761 12560
L7723 12579
L7573 12579
" />
<path d="M7930 12372
L8192 12372
L8024 12766
" />
<path d="M8324 12410
L8343 12391
L8380 12372
L8474 12372
L8511 12391
L8530 12410
L8549 12447
L8549 12485
L8530 12541
L8305 12766
L8549 12766
" />
<path d="M8924 12766
L8699 12766
" />
<path d="M8812 12766
L8812 12372
L8774 12429
L8737 12466
L8699 12485
" />
<path d="M9055 12372
L9318 12372
L9149 12766
" />
<path d="M9468 12766
L9468 12372
L9562 12372
L9618 12391
L9656 12429
L9675 12466
L9693 12541
L9693 12598
L9675 12673
L9656 12710
L9618 12748
L9562 12766
L9468 12766
" />
<path d="M10144 12354
L9806 12860
" />
<path d="M10500 12766
L10369 12579
" />
<path d="M10275 12766
L10275 12372
L10425 12372
L10463 12391
L10481 12410
L10500 12447
L10500 12504
L10481 12541
L10463 12560
L10425 12579
L10275 12579
" />
<path d="M10613 12372
L10838 12372
" />
<path d="M10725 12766
L10725 12372
" />
<path d="M10988 12766
L11063 12766
L11101 12748
L11119 12729
L11157 12673
L11176 12598
L11176 12447
L11157 12410
L11138 12391
L11101 12372
L11025 12372
L10988 12391
L10969 12410
L10950 12447
L10950 12541
L10969 12579
L10988 12598
L11025 12616
L11101 12616
L11138 12598
L11157 12579
L11176 12541
" />
<path d="M11551 12766
L11326 12766
" />
<path d="M11438 12766
L11438 12372
L11401 12429
L11363 12466
L11326 12485
" />
<path d="M11889 12372
L11813 12372
L11776 12391
L11757 12410
L11720 12466
L11701 12541
L11701 12691
L11720 12729
L11738 12748
L11776 12766
L11851 12766
L11889 12748
L11907 12729
L11926 12691
L11926 12598
L11907 12560
L11889 12541
L11851 12523
L11776 12523
L11738 12541
L11720 12560
L11701 12598
" />
<path d="M12264 12372
L12189 12372
L12151 12391
L12132 12410
L12095 12466
L12076 12541
L12076 12691
L12095 12729
L12114 12748
L12151 12766
L12226 12766
L12264 12748
L12283 12729
L12301 12691
L12301 12598
L12283 12560
L12264 12541
L12226 12523
L12151 12523
L12114 12541
L12095 12560
L12076 12598
" />
<path d="M12451 12654
L12639 12654
" />
<path d="M12414 12766
L12545 12372
L12677 12766
" />
</g>
<g style="fill:#008400; fill-opacity:0.0; 
stroke:#008400; stroke-width:19.685; stroke-opacity:1; 
stroke-linecap:round; stroke-linejoin:round;">
<path d="M6815 16447
L6815 16606
L6824 16625
L6834 16634
L6853 16644
L6890 16644
L6909 16634
L6918 16625
L6928 16606
L6928 16447
" />
<path d="M7003 16447
L7124 16447
L7059 16522
L7087 16522
L7106 16531
L7115 16541
L7124 16559
L7124 16606
L7115 16625
L7106 16634
L7087 16644
L7031 16644
L7012 16634
L7003 16625
" />
</g>
<g style="fill:#008484; fill-opacity:0.0; 
stroke:#008484; stroke-width:40; stroke-opacity:1; 
stroke-linecap:round; stroke-linejoin:round;">
<path d="M4543 10808
L4543 10414
" />
<path d="M4956 10770
L4937 10789
L4881 10808
L4843 10808
L4787 10789
L4750 10751
L4731 10714
L4712 10639
L4712 10583
L4731 10508
L4750 10470
L4787 10433
L4843 10414
L4881 10414
L4937 10433
L4956 10451
" />
<path d="M5106 10789
L5162 10808
L5256 10808
L5293 10789
L5312 10770
L5331 10733
L5331 10695
L5312 10658
L5293 10639
L5256 10620
L5181 10601
L5143 10583
L5124 10564
L5106 10526
L5106 10489
L5124 10451
L5143 10433
L5181 10414
L5274 10414
L5331 10433
" />
<path d="M5499 10808
L5499 10414
L5649 10414
L5687 10433
L5706 10451
L5724 10489
L5724 10545
L5706 10583
L5687 10601
L5649 10620
L5499 10620
" />
</g>
<g style="fill:#008484; fill-opacity:0.0; 
stroke:#008484; stroke-width:50; stroke-opacity:1; 
stroke-linecap:round; stroke-linejoin:round;">
<path d="M7302 11883
L7545 11883
L7574 11871
L7588 11859
L7602 11835
L7602 11788
L7588 11764
L7574 11752
L7545 11740
L7302 11740
" />
<path d="M7302 11514
L7302 11561
L7317 11585
L7331 11597
L7374 11621
L7431 11633
L7545 11633
L7574 11621
L7588 11609
L7602 11585
L7602 11538
L7588 11514
L7574 11502
L7545 11490
L7474 11490
L7445 11502
L7431 11514
L7417 11538
L7417 11585
L7431 11609
L7445 11621
L7474 11633
" />
</g>
<g style="fill:#C1C1C1; fill-opacity:0.0; 
stroke:#C1C1C1; stroke-width:19.685; stroke-opacity:1; 
stroke-linecap:round; stroke-linejoin:round;">
<path d="M13294 16525
L13294 17549
" />
<path d="M13294 17549
L11916 17549
" />
<path d="M11916 17549
L11916 16525
" />
<path d="M11916 16525
L13294 16525
" />
</g>
<g style="fill:#008484; fill-opacity:0.0; 
stroke:#008484; stroke-width:50; stroke-opacity:1; 
stroke-linecap:round; stroke-linejoin:round;">
<path d="M11555 17737
L11555 17787
" />
<path d="M11555 17787
L13655 17787
" />
<path d="M13655 16287
L11555 16287
" />
<path d="M11555 16287
L11555 17737
" />
<path d="M11555 16837
L11755 16837
" />
<path d="M11755 16837
L11755 17237
" />
<path d="M11755 17237
L11555 17237
" />
<path d="M13655 16287
L13655 17787
" />
</g>
<g style="fill:#008484; fill-opacity:0.0; 
stroke:#008484; stroke-width:59.0551; stroke-opacity:1; 
stroke-linecap:round; stroke-linejoin:round;">
<path d="M9150 11653
L8166 11653
" />
<path d="M8166 11653
L8166 12440
" />
<path d="M8166 12440
L9150 12440
" />
<path d="M9150 12440
L9150 11653
" />
</g>
<g style="fill:#008484; fill-opacity:0.0; 
stroke:#008484; stroke-width:60; stroke-opacity:1; 
stroke-linecap:round; stroke-linejoin:round;">
<path d="M2239 16293
L1239 16293
" />
<path d="M1239 16293
L1239 13293
" />
<path d="M1239 13293
L2239 13293
" />
<path d="M2239 13293
L2239 16293
" />
<path d="M1239 15293
L2239 15293
" />
</g>
<g style="fill:#008484; fill-opacity:0.0; 
stroke:#008484; stroke-width:65; stroke-opacity:1; 
stroke-linecap:round; stroke-linejoin:round;">
<path d="M14085 11809
L11085 11809
" />
<path d="M11085 13209
L14085 13209
" />
<path d="M14085 11809
L14085 13209
" />
</g>
<g style="fill:#008484; fill-opacity:0.0; 
stroke:#008484; stroke-width:60; stroke-opacity:1; 
stroke-linecap:round; stroke-linejoin:round;">
<path d="M11085 13209
L11085 11809
" />
</g>
<g style="fill:#008484; fill-opacity:0.0; 
stroke:#008484; stroke-width:50; stroke-opacity:1; 
stroke-linecap:round; stroke-linejoin:round;">
<circle cx="11285.6" cy="13009.8" r="141.421" /> 
<path d="M11085 12259
L11385 12259
" />
<path d="M11385 12259
L11385 12759
" />
<path d="M11385 12759
L11085 12759
" />
</g>
<g style="fill:#C1C1C1; fill-opacity:0.0; 
stroke:#C1C1C1; stroke-width:20; stroke-opacity:1; 
stroke-linecap:round; stroke-linejoin:round;">
<path d="M12085 18579
L13243 18579
" />
<path d="M13243 18579
L13243 19353
" />
<path d="M13243 19353
L12085 19353
" />
<path d="M12085 19353
L12085 18579
" />
<path d="M11555 15730
L11555 16888
" />
<path d="M11555 16888
L10781 16888
" />
<path d="M10781 16888
L10781 15730
" />
<path d="M10781 15730
L11555 15730
" />
<path d="M11574 17009
L11574 18167
" />
<path d="M11574 18167
L10800 18167
" />
<path d="M10800 18167
L10800 17009
" />
<path d="M10800 17009
L11574 17009
" />
<path d="M12415 15569
L12415 14411
" />
<path d="M12415 14411
L13189 14411
" />
<path d="M13189 14411
L13189 15569
" />
<path d="M13189 15569
L12415 15569
" />
<path d="M10566 16637
L9408 16637
" />
<path d="M9408 16637
L9408 15863
" />
<path d="M9408 15863
L10566 15863
" />
<path d="M10566 15863
L10566 16637
" />
<path d="M14247 15711
L13089 15711
" />
<path d="M13089 15711
L13089 14937
" />
<path d="M13089 14937
L14247 14937
" />
<path d="M14247 14937
L14247 15711
" />
<path d="M14247 15121
L13089 15121
" />
<path d="M13089 15121
L13089 14347
" />
<path d="M13089 14347
L14247 14347
" />
<path d="M14247 14347
L14247 15121
" />
<path d="M11357 14268
L12515 14268
" />
<path d="M12515 14268
L12515 15042
" />
<path d="M12515 15042
L11357 15042
" />
<path d="M11357 15042
L11357 14268
" />
<path d="M13440 11066
L12282 11066
" />
<path d="M12282 11066
L12282 10292
" />
<path d="M12282 10292
L13440 10292
" />
<path d="M13440 10292
L13440 11066
" />
<path d="M13482 10292
L14640 10292
" />
<path d="M14640 10292
L14640 11066
" />
<path d="M14640 11066
L13482 11066
" />
<path d="M13482 11066
L13482 10292
" />
</g>
<g style="fill:#008484; fill-opacity:0.0; 
stroke:#008484; stroke-width:50; stroke-opacity:1; 
stroke-linecap:round; stroke-linejoin:round;">
<path d="M10538 19419
L10538 18631
" />
<path d="M10341 19419
L11523 19419
" />
<path d="M11523 19419
L11523 18631
" />
<path d="M11523 18631
L10341 18631
" />
<path d="M10341 18631
L10341 19419
" />
</g>
<g style="fill:#C1C1C1; fill-opacity:0.0; 
stroke:#C1C1C1; stroke-width:20; stroke-opacity:1; 
stroke-linecap:round; stroke-linejoin:round;">
<path d="M10566 16105
L9408 16105
" />
<path d="M9408 16105
L9408 15331
" />
<path d="M9408 15331
L10566 15331
" />
<path d="M10566 15331
L10566 16105
" />
<path d="M9744 11458
L9744 12616
" />
<path d="M9744 12616
L9364 12616
" />
<path d="M9364 12616
L9364 11458
" />
<path d="M9364 11458
L9744 11458
" />
<path d="M11101 10528
L12259 10528
" />
<path d="M12259 10528
L12259 10908
" />
<path d="M12259 10908
L11101 10908
" />
<path d="M11101 10908
L11101 10528
" />
</g>
<g style="fill:#008484; fill-opacity:0.0; 
stroke:#008484; stroke-width:59.0551; stroke-opacity:1; 
stroke-linecap:round; stroke-linejoin:round;">
<path d="M10754 18257
L10754 16683
" />
<path d="M10754 16683
L9180 16683
" />
<path d="M9180 16683
L9180 18257
" />
<path d="M9180 18257
L10754 18257
" />
</g>
<g style="fill:#C1C1C1; fill-opacity:0.0; 
stroke:#C1C1C1; stroke-width:20; stroke-opacity:1; 
stroke-linecap:round; stroke-linejoin:round;">
<path d="M14482 16376
L14482 15218
" />
<path d="M14482 15218
L15256 15218
" />
<path d="M15256 15218
L15256 16376
" />
<path d="M15256 16376
L14482 16376
" />
<path d="M14389 17856
L14389 19014
" />
<path d="M14389 19014
L13615 19014
" />
<path d="M13615 19014
L13615 17856
" />
<path d="M13615 17856
L14389 17856
" />
</g>
<g style="fill:#008484; fill-opacity:0.0; 
stroke:#008484; stroke-width:31; stroke-opacity:1; 
stroke-linecap:round; stroke-linejoin:round;">
<circle cx="14298" cy="16594.1" r="62.626" /> 
<path d="M14636 17557
L14236 17557
" />
<path d="M14636 16532
L14236 16532
" />
<path d="M14236 17557
L14236 16532
" />
<path d="M14636 16532
L14636 17557
" />
</g>
<g style="fill:#C1C1C1; fill-opacity:0.0; 
stroke:#C1C1C1; stroke-width:20; stroke-opacity:1; 
stroke-linecap:round; stroke-linejoin:round;">
<path d="M9408 14681
L10566 14681
" />
<path d="M10566 14681
L10566 15455
" />
<path d="M10566 15455
L9408 15455
" />
<path d="M9408 15455
L9408 14681
" />
<path d="M4429 17108
L4429 18266
" />
<path d="M4429 18266
L4049 18266
" />
<path d="M4049 18266
L4049 17108
" />
<path d="M4049 17108
L4429 17108
" />
<path d="M3773 12891
L3773 11733
" />
<path d="M3773 11733
L4153 11733
" />
<path d="M4153 11733
L4153 12891
" />
<path d="M4153 12891
L3773 12891
" />
<path d="M5490 17280
L6648 17280
" />
<path d="M6648 17280
L6648 17660
" />
<path d="M6648 17660
L5490 17660
" />
<path d="M5490 17660
L5490 17280
" />
<path d="M7574 17660
L6416 17660
" />
<path d="M6416 17660
L6416 17280
" />
<path d="M6416 17280
L7574 17280
" />
<path d="M7574 17280
L7574 17660
" />
<path d="M7498 15134
L8656 15134
" />
<path d="M8656 15134
L8656 15514
" />
<path d="M8656 15514
L7498 15514
" />
<path d="M7498 15514
L7498 15134
" />
<path d="M3420 15632
L2262 15632
" />
<path d="M2262 15632
L2262 15252
" />
<path d="M2262 15252
L3420 15252
" />
<path d="M3420 15252
L3420 15632
" />
<path d="M7479 14052
L8637 14052
" />
<path d="M8637 14052
L8637 14432
" />
<path d="M8637 14432
L7479 14432
" />
<path d="M7479 14432
L7479 14052
" />
<path d="M4265 12891
L4265 11733
" />
<path d="M4265 11733
L4645 11733
" />
<path d="M4645 11733
L4645 12891
" />
<path d="M4645 12891
L4265 12891
" />
<path d="M6332 13029
L6332 11871
" />
<path d="M6332 11871
L6712 11871
" />
<path d="M6712 11871
L6712 13029
" />
<path d="M6712 13029
L6332 13029
" />
<path d="M4921 17108
L4921 18266
" />
<path d="M4921 18266
L4541 18266
" />
<path d="M4541 18266
L4541 17108
" />
<path d="M4541 17108
L4921 17108
" />
<path d="M3420 14373
L2262 14373
" />
<path d="M2262 14373
L2262 13993
" />
<path d="M2262 13993
L3420 13993
" />
<path d="M3420 13993
L3420 14373
" />
</g>
<g style="fill:#008484; fill-opacity:0.0; 
stroke:#008484; stroke-width:50; stroke-opacity:1; 
stroke-linecap:round; stroke-linejoin:round;">
<path d="M8864 14259
L8864 14459
" />
<path d="M8864 14459
L9334 14459
" />
<path d="M8864 14259
L9334 14259
" />
<path d="M8864 13669
L9334 13669
" />
<path d="M8864 13869
L9334 13869
" />
<path d="M8864 13669
L8864 13869
" />
<path d="M8864 13079
L8864 13279
" />
<path d="M8864 13279
L9334 13279
" />
<path d="M8864 13079
L9334 13079
" />
<path d="M10559 13414
L10559 14124
" />
<path d="M10559 14124
L10364 14124
" />
<path d="M10559 13414
L10364 13414
" />
<path d="M9334 12864
L10364 12864
" />
<path d="M10364 12864
L10364 14674
" />
<path d="M10364 14674
L9334 14674
" />
<path d="M9334 14674
L9334 12864
" />
</g>
<g style="fill:#C1C1C1; fill-opacity:0.0; 
stroke:#C1C1C1; stroke-width:20; stroke-opacity:1; 
stroke-linecap:round; stroke-linejoin:round;">
<path d="M6648 18152
L5490 18152
" />
<path d="M5490 18152
L5490 17772
" />
<path d="M5490 17772
L6648 17772
" />
<path d="M6648 17772
L6648 18152
" />
<path d="M8996 14450
L8996 15608
" />
<path d="M8996 15608
L8616 15608
" />
<path d="M8616 15608
L8616 14450
" />
<path d="M8616 14450
L8996 14450
" />
</g>
<g style="fill:#008484; fill-opacity:0.0; 
stroke:#008484; stroke-width:50; stroke-opacity:1; 
stroke-linecap:round; stroke-linejoin:round;">
<path d="M3954 13701
L3954 16455
" />
<path d="M3954 16455
L6708 16455
" />
<path d="M6708 16455
L6708 13701
" />
<path d="M6708 13701
L3954 13701
" />
<circle cx="6413.68" cy="16160.7" r="98" /> 
</g>
<g style="fill:#C1C1C1; fill-opacity:0.0; 
stroke:#C1C1C1; stroke-width:20; stroke-opacity:1; 
stroke-linecap:round; stroke-linejoin:round;">
<path d="M6799 12241
L7957 12241
" />
<path d="M7957 12241
L7957 12621
" />
<path d="M7957 12621
L6799 12621
" />
<path d="M6799 12621
L6799 12241
" />
</g>
<g style="fill:#008484; fill-opacity:0.0; 
stroke:#008484; stroke-width:50; stroke-opacity:1; 
stroke-linecap:round; stroke-linejoin:round;">
<path d="M6038 11139
L6038 10139
" />
<path d="M6038 10139
L11042 10139
" />
<path d="M11042 10149
L11042 11149
" />
<path d="M11042 11139
L6038 11139
" />
</g>
<g style="fill:#008484; fill-opacity:0.0; 
stroke:#008484; stroke-width:60; stroke-opacity:1; 
stroke-linecap:round; stroke-linejoin:round;">
<path d="M7678 12092
L7678 11292
" />
<path d="M7678 11292
L7178 11292
" />
<path d="M7178 11292
L7178 12092
" />
<path d="M7178 12092
L7678 12092
" />
</g>
<g style="fill:#C1C1C1; fill-opacity:0.0; 
stroke:#C1C1C1; stroke-width:20; stroke-opacity:1; 
stroke-linecap:round; stroke-linejoin:round;">
<path d="M2126 17626
L2126 16468
" />
<path d="M2126 16468
L1352 16468
" />
<path d="M1352 16468
L1352 17626
" />
<path d="M1352 17626
L2126 17626
" />
<path d="M1401 11842
L1401 13000
" />
<path d="M1401 13000
L2175 13000
" />
<path d="M2175 13000
L2175 11842
" />
<path d="M2175 11842
L1401 11842
" />
<path d="M1342 17728
L1342 18886
" />
<path d="M1342 18886
L2116 18886
" />
<path d="M2116 18886
L2116 17728
" />
<path d="M2116 17728
L1342 17728
" />
<path d="M1421 10611
L1421 11769
" />
<path d="M1421 11769
L2195 11769
" />
<path d="M2195 11769
L2195 10611
" />
<path d="M2195 10611
L1421 10611
" />
</g>
<g style="fill:#008484; fill-opacity:1.0; 
stroke:#008484; stroke-width:1; stroke-opacity:1; 
stroke-linecap:round; stroke-linejoin:round;">
<polyline style="fill-rule:evenodd;"
points="5419,17414
5418,17431
5416,17454
5412,17483
5408,17516
5403,17550
5398,17581
5398,17441
5397,17426
5394,17422
5389,17430
5382,17448
5373,17478
5367,17500
5352,17553
5352,17471
5349,17468
5345,17474
5338,17489
5330,17513
5329,17518
5284,17657
5235,17788
5181,17907
5123,18017
5109,18040
5083,18081
5062,18114
5044,18138
5030,18153
5021,18158
5021,18158
5014,18159
5015,18164
5023,18174
5028,18178
5038,18191
5041,18204
5039,18215
5031,18245
5017,18273
5017,18208
5016,18199
5010,18194
4995,18183
4973,18167
4942,18146
4905,18123
4862,18095
4824,18072
4756,18029
4695,17991
4640,17957
4588,17925
4538,17893
4487,17861
4432,17827
4373,17788
4323,17757
4287,17733
4254,17712
4225,17694
4201,17679
4185,17668
4176,17663
4175,17662
4168,17665
4156,17672
4139,17685
4120,17699
4102,17714
4086,17728
4075,17739
4072,17745
4072,17746
4076,17750
4089,17760
4109,17776
4135,17796
4165,17818
4198,17843
4205,17849
4263,17892
4324,17938
4385,17985
4447,18033
4509,18081
4570,18128
4627,18173
4681,18215
4731,18255
4775,18290
4812,18320
4842,18345
4858,18359
4873,18371
4886,18376
4898,18374
4909,18369
4929,18355
4950,18334
4970,18309
4989,18282
5003,18254
5013,18229
5017,18208
5017,18273
5015,18278
4994,18313
4971,18344
4959,18357
4934,18380
4914,18394
4895,18399
4877,18396
4873,18395
4862,18392
4859,18394
4860,18398
4859,18407
4851,18424
4837,18448
4830,18459
4770,18548
4700,18640
4623,18731
4541,18821
4454,18906
4421,18937
4404,18953
4396,18962
4395,18963
4403,18958
4419,18946
4442,18927
4472,18903
4478,18897
4575,18811
4669,18715
4758,18611
4840,18500
4863,18467
4877,18448
4889,18433
4899,18424
4901,18423
4914,18419
4933,18407
4954,18391
4975,18370
4991,18352
5019,18314
5040,18274
5055,18235
5062,18198
5062,18196
5063,18180
5066,18167
5071,18153
5080,18136
5093,18112
5102,18098
5148,18017
5193,17927
5236,17832
5275,17732
5310,17633
5338,17535
5345,17508
5350,17485
5352,17471
5352,17553
5351,17557
5332,17617
5313,17678
5294,17735
5275,17786
5269,17803
5252,17843
5231,17890
5206,17941
5181,17993
5156,18042
5132,18086
5124,18100
5108,18128
5098,18147
5093,18160
5092,18167
5094,18170
5103,18176
5118,18186
5128,18192
5143,18202
5154,18208
5158,18210
5162,18205
5170,18192
5180,18173
5189,18154
5248,18018
5298,17880
5340,17739
5373,17599
5384,17541
5389,17510
5393,17481
5396,17459
5398,17444
5398,17441
5398,17581
5398,17583
5392,17614
5389,17633
5364,17738
5331,17849
5291,17963
5243,18080
5211,18152
5178,18223
5194,18236
5205,18247
5210,18259
5210,18274
5211,18292
5217,18304
5226,18314
5238,18327
5242,18337
5240,18353
5230,18387
5217,18412
5217,18339
5216,18338
5210,18325
5202,18322
5193,18330
5191,18334
5191,18273
5186,18264
5172,18251
5147,18233
5142,18230
5121,18217
5104,18206
5092,18200
5089,18199
5084,18204
5081,18217
5080,18223
5071,18255
5054,18290
5032,18327
5007,18363
4979,18395
4951,18419
4951,18420
4937,18430
4929,18438
4927,18440
4932,18445
4943,18455
4959,18468
4976,18481
4993,18494
5007,18504
5015,18508
5016,18509
5024,18506
5038,18497
5050,18487
5069,18469
5090,18445
5112,18417
5134,18386
5153,18355
5171,18326
5183,18300
5190,18280
5191,18273
5191,18334
5182,18349
5180,18353
5168,18375
5150,18401
5131,18429
5110,18456
5092,18478
5080,18491
5070,18502
5069,18510
5071,18513
5082,18519
5096,18518
5111,18512
5128,18499
5146,18480
5165,18456
5183,18429
5198,18402
5210,18376
5216,18354
5217,18339
5217,18412
5210,18425
5182,18464
5156,18493
5131,18517
5110,18533
5093,18541
5077,18541
5062,18535
5060,18533
5047,18526
5035,18526
5032,18528
5014,18531
5004,18527
4996,18525
4990,18526
4981,18533
4973,18540
4973,18504
4938,18477
4921,18465
4907,18457
4899,18455
4899,18455
4893,18462
4883,18476
4872,18492
4793,18596
4703,18701
4603,18806
4491,18910
4409,18982
4384,19004
4418,18982
4437,18970
4463,18954
4490,18936
4510,18923
4584,18870
4660,18811
4736,18747
4808,18681
4875,18615
4934,18550
4950,18532
4973,18504
4973,18540
4967,18546
4960,18554
4931,18586
4895,18622
4856,18661
4816,18700
4776,18737
4740,18770
4709,18798
4703,18803
4591,18891
4478,18967
4364,19033
4299,19066
4265,19082
4240,19093
4224,19100
4216,19103
4215,19101
4220,19096
4230,19087
4231,19086
4336,18994
4431,18906
4517,18819
4596,18733
4670,18646
4720,18581
4759,18528
4791,18483
4814,18446
4831,18418
4839,18398
4841,18390
4841,18386
4840,18382
4838,18377
4834,18371
4827,18364
4816,18354
4801,18340
4781,18323
4754,18301
4721,18274
4680,18240
4649,18215
4620,18191
4586,18163
4547,18133
4505,18099
4460,18064
4413,18028
4366,17991
4319,17955
4273,17920
4229,17886
4188,17856
4151,17828
4118,17803
4092,17783
4071,17769
4058,17759
4053,17757
4048,17760
4036,17771
4017,17787
3991,17807
3961,17832
3928,17860
3893,17889
3849,17926
3814,17956
3786,17980
3765,18000
3749,18015
3739,18026
3733,18034
3732,18038
3729,18044
3722,18053
3710,18066
3708,18068
3708,18034
3705,18018
3695,17999
3680,17980
3663,17963
3646,17950
3631,17946
3630,17946
3624,17949
3609,17960
3588,17976
3561,17997
3530,18022
3496,18050
3458,18081
3420,18114
3381,18146
3342,18179
3305,18210
3272,18240
3241,18267
3236,18272
3142,18363
3054,18459
3034,18483
3014,18507
3000,18522
2994,18528
2994,18525
3001,18514
3015,18493
3036,18463
3049,18445
3077,18407
3104,18372
3133,18339
3165,18306
3204,18268
3216,18257
3249,18227
3216,18183
3201,18162
3187,18143
3177,18129
3174,18125
3171,18121
3168,18120
3163,18121
3155,18125
3143,18133
3127,18146
3103,18165
3073,18190
3060,18202
2981,18270
2913,18334
2854,18393
2805,18449
2765,18501
2734,18551
2724,18569
2709,18604
2699,18632
2693,18660
2692,18690
2692,18692
2695,18729
2706,18760
2726,18788
2731,18793
2766,18821
2810,18842
2860,18854
2916,18858
2978,18854
2991,18852
3054,18837
3123,18815
3194,18785
3267,18749
3339,18707
3362,18692
3382,18678
3407,18661
3435,18641
3466,18618
3497,18595
3527,18573
3556,18551
3581,18532
3601,18516
3616,18504
3622,18498
3622,18497
3617,18494
3604,18487
3585,18477
3567,18469
3536,18453
3501,18435
3469,18416
3459,18411
3435,18396
3418,18387
3408,18383
3400,18384
3398,18385
3391,18390
3376,18402
3356,18417
3332,18436
3319,18446
3280,18475
3249,18499
3225,18517
3208,18529
3200,18535
3200,18534
3206,18528
3219,18516
3238,18499
3262,18478
3289,18454
3301,18443
3332,18414
3356,18392
3373,18375
3386,18362
3394,18352
3399,18342
3402,18333
3402,18332
3409,18313
3418,18295
3420,18292
3427,18284
3442,18270
3463,18252
3490,18228
3521,18202
3554,18173
3569,18161
3614,18123
3651,18091
3678,18066
3697,18048
3706,18037
3708,18034
3708,18068
3693,18083
3669,18104
3637,18132
3598,18165
3591,18171
3557,18200
3524,18229
3496,18254
3472,18276
3453,18293
3443,18305
3440,18307
3432,18324
3428,18340
3427,18343
3430,18354
3438,18365
3452,18378
3474,18392
3504,18410
3543,18431
3572,18445
3663,18490
3530,18596
3480,18636
3436,18671
3398,18699
3365,18723
3335,18743
3307,18761
3279,18776
3250,18792
3243,18795
3161,18831
3082,18857
3005,18873
2926,18880
2910,18880
2876,18879
2849,18878
2828,18875
2807,18870
2797,18867
2752,18848
2716,18822
2690,18789
2672,18749
2667,18728
2664,18682
2672,18632
2691,18579
2719,18524
2758,18466
2806,18406
2835,18375
2851,18359
2867,18343
2885,18326
2905,18307
2930,18285
2958,18260
2992,18231
3032,18197
3078,18158
3133,18111
3143,18103
3173,18078
3194,18112
3207,18132
3222,18153
3237,18173
3252,18191
3263,18204
3270,18210
3271,18210
3276,18207
3289,18196
3309,18180
3334,18159
3365,18134
3399,18105
3436,18074
3444,18066
3491,18028
3529,17996
3560,17970
3584,17951
3602,17937
3616,17928
3625,17924
3630,17923
3636,17921
3647,17915
3662,17904
3683,17888
3710,17867
3745,17839
3787,17804
3792,17799
3833,17765
3866,17737
3891,17715
3910,17698
3922,17686
3930,17677
3933,17671
3932,17668
3932,17668
3922,17660
3904,17646
3878,17627
3844,17602
3804,17574
3758,17541
3706,17506
3651,17467
3591,17426
3529,17383
3464,17338
3398,17293
3332,17248
3265,17202
3199,17157
3134,17113
3072,17072
3065,17067
2838,16915
2838,16883
2840,16861
2845,16843
2855,16827
2874,16806
2895,16792
2916,16784
2935,16785
2935,16785
2943,16790
2959,16800
2982,16816
3012,16836
3048,16861
3089,16889
3134,16921
3182,16954
3219,16980
3343,17067
3458,17148
3565,17222
3663,17291
3753,17353
3834,17409
3906,17458
3950,17488
3986,17512
4014,17531
4035,17544
4050,17554
4060,17559
4068,17561
4073,17561
4077,17559
4079,17557
4086,17552
4101,17539
4123,17521
4151,17498
4185,17470
4223,17438
4265,17403
4309,17365
4343,17337
4401,17288
4451,17246
4492,17211
4526,17181
4553,17158
4572,17139
4585,17126
4592,17118
4593,17115
4598,17105
4611,17089
4632,17069
4638,17064
4682,17024
4682,16967
4683,16939
4686,16915
4692,16895
4702,16877
4717,16857
4738,16835
4768,16810
4787,16793
4815,16769
4843,16744
4869,16721
4889,16702
4895,16695
4920,16672
4942,16659
4961,16654
4981,16658
4994,16665
5012,16676
5035,16691
5063,16710
5095,16731
5128,16754
5161,16778
5194,16801
5223,16822
5249,16841
5270,16856
5284,16867
5289,16873
5292,16889
5287,16908
5275,16928
5270,16934
5270,16890
5265,16877
5253,16873
5238,16879
5237,16879
5237,16851
5232,16847
5220,16838
5201,16824
5176,16807
5148,16789
5118,16768
5087,16747
5057,16727
5029,16709
5005,16693
4987,16681
4975,16674
4971,16672
4958,16673
4942,16682
4925,16696
4913,16712
4912,16713
4905,16727
4904,16735
4909,16742
4911,16743
4918,16749
4933,16761
4955,16776
4983,16796
5014,16818
5046,16840
5171,16927
5182,16905
5194,16887
5211,16871
5215,16867
5228,16859
5236,16852
5237,16851
5237,16879
5231,16883
5222,16891
5221,16894
5229,16894
5230,16894
5243,16899
5250,16906
5258,16913
5265,16910
5270,16900
5270,16890
5270,16934
5260,16945
5255,16949
5240,16958
5231,16962
5231,16923
5230,16919
5224,16919
5213,16925
5196,16936
5173,16955
5156,16968
5156,16942
5156,16942
5152,16938
5140,16928
5120,16914
5096,16897
5069,16879
5040,16858
5010,16838
4981,16818
4955,16801
4933,16786
4917,16776
4907,16771
4907,16771
4899,16773
4886,16781
4886,16750
4885,16748
4883,16746
4883,16745
4877,16746
4864,16755
4846,16768
4825,16785
4802,16806
4779,16827
4756,16848
4737,16868
4722,16884
4714,16897
4712,16899
4704,16924
4699,16952
4698,16976
4699,16990
4703,17000
4708,17000
4712,16998
4718,16987
4717,16971
4716,16952
4721,16928
4722,16921
4726,16908
4732,16897
4739,16886
4751,16874
4768,16858
4792,16836
4799,16831
4829,16804
4852,16785
4867,16771
4878,16761
4884,16754
4886,16750
4886,16781
4885,16782
4866,16796
4845,16814
4822,16834
4799,16854
4779,16874
4762,16891
4752,16905
4750,16908
4742,16926
4737,16945
4737,16950
4737,16970
4758,16955
4774,16946
4787,16941
4790,16941
4809,16945
4831,16956
4854,16972
4875,16991
4877,16993
4897,17018
4906,17040
4907,17058
4903,17065
4900,17070
4902,17073
4912,17073
4931,17071
4933,17071
4960,17067
4989,17059
5009,17053
5039,17037
5074,17014
5102,16992
5123,16974
5140,16959
5152,16948
5156,16942
5156,16968
5142,16980
5136,16985
5096,17017
5062,17042
5032,17061
5003,17074
4974,17083
4943,17088
4907,17090
4886,17090
4885,17090
4885,17045
4883,17038
4876,17024
4862,17006
4845,16989
4829,16976
4823,16972
4811,16966
4800,16964
4789,16966
4775,16973
4758,16985
4736,17003
4707,17029
4704,17031
4628,17098
4647,17109
4670,17125
4691,17145
4708,17165
4712,17172
4720,17189
4756,17160
4775,17144
4786,17132
4790,17122
4790,17120
4794,17107
4807,17090
4810,17088
4825,17075
4837,17069
4850,17069
4868,17068
4880,17059
4885,17045
4885,17090
4859,17091
4841,17093
4831,17097
4830,17098
4826,17105
4830,17109
4843,17111
4863,17112
4890,17112
4917,17111
4945,17109
4968,17106
4974,17105
4997,17099
5019,17092
5032,17086
5042,17080
5059,17068
5080,17051
5105,17032
5131,17011
5157,16989
5181,16969
5202,16951
5219,16936
5229,16926
5231,16923
5231,16962
5228,16963
5225,16964
5218,16968
5204,16977
5185,16992
5162,17009
5154,17016
5119,17045
5090,17068
5067,17084
5048,17097
5030,17106
5013,17114
5011,17114
4975,17124
4934,17131
4893,17133
4866,17131
4832,17126
4775,17171
4752,17189
4732,17203
4716,17213
4706,17217
4706,17217
4697,17220
4690,17224
4690,17186
4687,17175
4677,17161
4663,17147
4648,17136
4634,17131
4631,17131
4623,17135
4606,17147
4583,17164
4554,17187
4520,17215
4483,17245
4452,17272
4413,17304
4368,17342
4319,17383
4268,17427
4215,17471
4163,17515
4112,17558
4111,17559
4062,17600
4042,17617
4042,17584
4039,17579
4031,17571
4017,17561
3997,17546
3970,17527
3935,17503
3891,17473
3886,17470
3772,17394
3666,17322
3566,17253
3470,17188
3378,17123
3286,17058
3193,16991
3098,16922
3066,16899
3033,16875
3003,16854
2976,16835
2955,16821
2941,16811
2935,16808
2916,16806
2896,16815
2880,16830
2864,16851
2857,16873
2859,16893
2865,16899
2880,16912
2903,16929
2935,16952
2974,16979
3021,17011
3069,17043
3124,17080
3183,17120
3245,17162
3308,17206
3373,17250
3438,17295
3503,17340
3566,17384
3627,17427
3686,17468
3740,17506
3789,17541
3833,17572
3870,17600
3901,17622
3923,17639
3933,17647
3945,17655
3952,17659
3952,17659
3959,17656
3972,17647
3989,17633
3997,17627
4015,17612
4030,17599
4040,17589
4042,17587
4042,17584
4042,17617
4013,17642
3964,17683
3916,17723
3872,17760
3833,17792
3800,17820
3774,17842
3771,17845
3742,17869
3716,17890
3695,17909
3679,17923
3670,17931
3669,17933
3672,17938
3681,17949
3695,17964
3708,17979
3717,17992
3720,17998
3721,18000
3721,18000
3723,18000
3727,17998
3733,17994
3742,17987
3754,17978
3770,17965
3790,17948
3815,17927
3846,17902
3882,17872
3925,17837
3975,17795
4032,17747
4097,17692
4126,17667
4186,17617
4245,17567
4303,17519
4358,17473
4409,17429
4457,17389
4500,17353
4537,17323
4567,17297
4590,17278
4598,17271
4626,17248
4650,17226
4670,17208
4683,17194
4690,17187
4690,17186
4690,17224
4681,17231
4660,17246
4634,17266
4630,17270
4555,17332
4489,17388
4431,17438
4379,17480
4336,17518
4298,17549
4268,17576
4243,17597
4223,17614
4208,17628
4198,17637
4192,17644
4189,17647
4189,17648
4198,17655
4215,17667
4241,17683
4274,17705
4313,17730
4357,17759
4406,17790
4459,17823
4515,17858
4572,17894
4631,17931
4690,17967
4749,18004
4806,18039
4861,18073
4874,18080
4913,18105
4944,18123
4968,18136
4987,18142
5002,18143
5015,18137
5028,18126
5041,18108
5058,18084
5066,18072
5090,18034
5117,17987
5145,17936
5173,17882
5199,17828
5221,17777
5240,17732
5240,17731
5251,17700
5264,17663
5277,17622
5290,17582
5294,17567
5305,17530
5314,17502
5322,17481
5331,17463
5340,17448
5350,17434
5363,17415
5373,17404
5380,17400
5388,17399
5397,17401
5410,17404
5418,17407
5419,17408
5419,17414
5419,17414
" /> 
</g>
<g style="fill:#C1C1C1; fill-opacity:1.0; 
stroke:#C1C1C1; stroke-width:20; stroke-opacity:1; 
stroke-linecap:round; stroke-linejoin:round;">
<path d="M5492 11497
L5492 12655
" />
<path d="M5492 12655
L4718 12655
" />
<path d="M4718 12655
L4718 11497
" />
<path d="M4718 11497
L5492 11497
" />
<path d="M6299 11320
L6299 12478
" />
<path d="M6299 12478
L5525 12478
" />
<path d="M5525 12478
L5525 11320
" />
<path d="M5525 11320
L6299 11320
" />
</g>
<g style="fill:#840000; fill-opacity:1.0; 
stroke:#840000; stroke-width:39.3701; stroke-opacity:1; 
stroke-linecap:round; stroke-linejoin:round;">
<polyline style="fill-rule:evenodd;"
points="11717,16328
11717,15777
11993,15777
11993,16328
11717,16328
" /> 
<polyline style="fill-rule:evenodd;"
points="11717,18297
11717,17746
11993,17746
11993,18297
11717,18297
" /> 
<polyline style="fill-rule:evenodd;"
points="12217,16328
12217,15777
12493,15777
12493,16328
12217,16328
" /> 
<polyline style="fill-rule:evenodd;"
points="12717,16328
12717,15777
12993,15777
12993,16328
12717,16328
" /> 
<polyline style="fill-rule:evenodd;"
points="13217,16328
13217,15777
13493,15777
13493,16328
13217,16328
" /> 
<polyline style="fill-rule:evenodd;"
points="12217,18297
12217,17746
12493,17746
12493,18297
12217,18297
" /> 
<polyline style="fill-rule:evenodd;"
points="12717,18297
12717,17746
12993,17746
12993,18297
12717,18297
" /> 
<polyline style="fill-rule:evenodd;"
points="13217,18297
13217,17746
13493,17746
13493,18297
13217,18297
" /> 
</g>
<g style="fill:#000000; fill-opacity:1.0; 
stroke:#000000; stroke-width:39.3701; stroke-opacity:1; 
stroke-linecap:round; stroke-linejoin:round;">
<polyline style="fill-rule:evenodd;"
points="12693,16938
12693,16584
13245,16584
13245,16938
12693,16938
" /> 
<polyline style="fill-rule:evenodd;"
points="11965,16938
11965,16584
12516,16584
12516,16938
11965,16938
" /> 
<polyline style="fill-rule:evenodd;"
points="11965,17480
11965,17125
12516,17125
12516,17480
11965,17480
" /> 
<polyline style="fill-rule:evenodd;"
points="12693,17480
12693,17125
13245,17125
13245,17480
12693,17480
" /> 
</g>
<g style="fill:#840000; fill-opacity:1.0; 
stroke:#840000; stroke-width:39.3701; stroke-opacity:1; 
stroke-linecap:round; stroke-linejoin:round;">
<polyline style="fill-rule:evenodd;"
points="8441,12204
8441,12500
8225,12500
8225,12204
8441,12204
" /> 
<polyline style="fill-rule:evenodd;"
points="9091,12204
9091,12500
8874,12500
8874,12204
9091,12204
" /> 
<polyline style="fill-rule:evenodd;"
points="8441,11594
8441,11889
8225,11889
8225,11594
8441,11594
" /> 
<polyline style="fill-rule:evenodd;"
points="9091,11594
9091,11889
8874,11889
8874,11594
9091,11594
" /> 
<polyline style="fill-rule:evenodd;"
points="2019,16073
1458,16073
1458,15512
2019,15512
2019,16073
" /> 
<circle cx="1739.16" cy="14793.3" r="280.315" /> 
<circle cx="1739.16" cy="13793.3" r="280.315" /> 
<polyline style="fill-rule:evenodd;"
points="11375,13790
11375,13329
11495,13329
11495,13790
11375,13790
" /> 
<polyline style="fill-rule:evenodd;"
points="11625,13790
11625,13329
11745,13329
11745,13790
11625,13790
" /> 
<polyline style="fill-rule:evenodd;"
points="11885,13790
11885,13329
12005,13329
12005,13790
11885,13790
" /> 
<polyline style="fill-rule:evenodd;"
points="12145,13790
12145,13329
12265,13329
12265,13790
12145,13790
" /> 
<polyline style="fill-rule:evenodd;"
points="12395,13790
12395,13329
12515,13329
12515,13790
12395,13790
" /> 
<polyline style="fill-rule:evenodd;"
points="12655,13790
12655,13329
12775,13329
12775,13790
12655,13790
" /> 
<polyline style="fill-rule:evenodd;"
points="12915,13790
12915,13329
13035,13329
13035,13790
12915,13790
" /> 
<polyline style="fill-rule:evenodd;"
points="13165,13790
13165,13329
13285,13329
13285,13790
13165,13790
" /> 
<polyline style="fill-rule:evenodd;"
points="13425,13790
13425,13329
13545,13329
13545,13790
13425,13790
" /> 
<polyline style="fill-rule:evenodd;"
points="13675,13790
13675,13329
13795,13329
13795,13790
13675,13790
" /> 
<polyline style="fill-rule:evenodd;"
points="13675,11690
13675,11229
13795,11229
13795,11690
13675,11690
" /> 
<polyline style="fill-rule:evenodd;"
points="13425,11690
13425,11229
13545,11229
13545,11690
13425,11690
" /> 
<polyline style="fill-rule:evenodd;"
points="13165,11690
13165,11229
13285,11229
13285,11690
13165,11690
" /> 
<polyline style="fill-rule:evenodd;"
points="12915,11690
12915,11229
13035,11229
13035,11690
12915,11690
" /> 
<polyline style="fill-rule:evenodd;"
points="12655,11690
12655,11229
12775,11229
12775,11690
12655,11690
" /> 
<polyline style="fill-rule:evenodd;"
points="12395,11690
12395,11229
12515,11229
12515,11690
12395,11690
" /> 
<polyline style="fill-rule:evenodd;"
points="12145,11690
12145,11229
12265,11229
12265,11690
12145,11690
" /> 
<polyline style="fill-rule:evenodd;"
points="11885,11690
11885,11229
12005,11229
12005,11690
11885,11690
" /> 
<polyline style="fill-rule:evenodd;"
points="11625,11690
11625,11229
11745,11229
11745,11690
11625,11690
" /> 
<polyline style="fill-rule:evenodd;"
points="11375,11690
11375,11229
11495,11229
11495,11690
11375,11690
" /> 
<polyline style="fill-rule:evenodd;"
points="12133,19143
12133,18789
12527,18789
12527,19143
12133,19143
" /> 
<polyline style="fill-rule:evenodd;"
points="12801,19143
12801,18789
13195,18789
13195,19143
12801,19143
" /> 
<polyline style="fill-rule:evenodd;"
points="10991,15778
11345,15778
11345,16171
10991,16171
10991,15778
" /> 
<polyline style="fill-rule:evenodd;"
points="10991,16446
11345,16446
11345,16839
10991,16839
10991,16446
" /> 
<polyline style="fill-rule:evenodd;"
points="11011,17057
11364,17057
11364,17451
11011,17451
11011,17057
" /> 
<polyline style="fill-rule:evenodd;"
points="11011,17725
11364,17725
11364,18119
11011,18119
11011,17725
" /> 
<polyline style="fill-rule:evenodd;"
points="12978,15520
12625,15520
12625,15127
12978,15127
12978,15520
" /> 
<polyline style="fill-rule:evenodd;"
points="12978,14852
12625,14852
12625,14459
12978,14459
12978,14852
" /> 
<polyline style="fill-rule:evenodd;"
points="10518,16073
10518,16426
10124,16426
10124,16073
10518,16073
" /> 
<polyline style="fill-rule:evenodd;"
points="9850,16073
9850,16426
9456,16426
9456,16073
9850,16073
" /> 
<polyline style="fill-rule:evenodd;"
points="14179,15127
14179,15521
13825,15521
13825,15127
14179,15127
" /> 
<polyline style="fill-rule:evenodd;"
points="13511,15127
13511,15521
13157,15521
13157,15127
13511,15127
" /> 
<polyline style="fill-rule:evenodd;"
points="14179,14537
14179,14931
13825,14931
13825,14537
14179,14537
" /> 
<polyline style="fill-rule:evenodd;"
points="13511,14537
13511,14931
13157,14931
13157,14537
13511,14537
" /> 
<polyline style="fill-rule:evenodd;"
points="11425,14852
11425,14458
11778,14458
11778,14852
11425,14852
" /> 
<polyline style="fill-rule:evenodd;"
points="12093,14852
12093,14458
12446,14458
12446,14852
12093,14852
" /> 
<polyline style="fill-rule:evenodd;"
points="13372,10482
13372,10875
13018,10875
13018,10482
13372,10482
" /> 
<polyline style="fill-rule:evenodd;"
points="12704,10482
12704,10875
12350,10875
12350,10482
12704,10482
" /> 
<polyline style="fill-rule:evenodd;"
points="13551,10875
13551,10482
13904,10482
13904,10875
13551,10875
" /> 
<polyline style="fill-rule:evenodd;"
points="14219,10875
14219,10482
14572,10482
14572,10875
14219,10875
" /> 
<polyline style="fill-rule:evenodd;"
points="10597,18769
10597,19281
10124,19281
10124,18769
10597,18769
" /> 
<polyline style="fill-rule:evenodd;"
points="11739,18769
11739,19281
11266,19281
11266,18769
11739,18769
" /> 
<polyline style="fill-rule:evenodd;"
points="10518,15541
10518,15895
10124,15895
10124,15541
10518,15541
" /> 
<polyline style="fill-rule:evenodd;"
points="9850,15541
9850,15895
9456,15895
9456,15541
9850,15541
" /> 
<polyline style="fill-rule:evenodd;"
points="9396,11664
9711,11664
9711,11900
9396,11900
9396,11664
" /> 
<polyline style="fill-rule:evenodd;"
points="9396,12174
9711,12174
9711,12410
9396,12410
9396,12174
" /> 
<polyline style="fill-rule:evenodd;"
points="11307,10875
11307,10561
11542,10561
11542,10875
11307,10875
" /> 
<polyline style="fill-rule:evenodd;"
points="11817,10875
11817,10561
12052,10561
12052,10875
11817,10875
" /> 
<polyline style="fill-rule:evenodd;"
points="10184,18159
10184,16781
10735,16781
10735,18159
10184,18159
" /> 
<polyline style="fill-rule:evenodd;"
points="9199,18159
9199,16781
9750,16781
9750,18159
9199,18159
" /> 
<polyline style="fill-rule:evenodd;"
points="15045,16328
14692,16328
14692,15934
15045,15934
15045,16328
" /> 
<polyline style="fill-rule:evenodd;"
points="15045,15660
14692,15660
14692,15266
15045,15266
15045,15660
" /> 
<polyline style="fill-rule:evenodd;"
points="13826,17904
14179,17904
14179,18297
13826,18297
13826,17904
" /> 
<polyline style="fill-rule:evenodd;"
points="13826,18572
14179,18572
14179,18965
13826,18965
13826,18572
" /> 
<polyline style="fill-rule:evenodd;"
points="14691,16919
15046,16919
15046,17194
14691,17194
14691,16919
" /> 
<polyline style="fill-rule:evenodd;"
points="13825,17294
14180,17294
14180,17569
13825,17569
13825,17294
" /> 
<polyline style="fill-rule:evenodd;"
points="13825,16544
14180,16544
14180,16819
13825,16819
13825,16544
" /> 
<polyline style="fill-rule:evenodd;"
points="9456,15245
9456,14892
9850,14892
9850,15245
9456,15245
" /> 
<polyline style="fill-rule:evenodd;"
points="10124,15245
10124,14892
10518,14892
10518,15245
10124,15245
" /> 
<polyline style="fill-rule:evenodd;"
points="4081,17314
4396,17314
4396,17549
4081,17549
4081,17314
" /> 
<polyline style="fill-rule:evenodd;"
points="4081,17824
4396,17824
4396,18059
4081,18059
4081,17824
" /> 
<polyline style="fill-rule:evenodd;"
points="4120,12685
3806,12685
3806,12450
4120,12450
4120,12685
" /> 
<polyline style="fill-rule:evenodd;"
points="4120,12175
3806,12175
3806,11940
4120,11940
4120,12175
" /> 
<polyline style="fill-rule:evenodd;"
points="5697,17627
5697,17313
5932,17313
5932,17627
5697,17627
" /> 
<polyline style="fill-rule:evenodd;"
points="6207,17627
6207,17313
6442,17313
6442,17627
6207,17627
" /> 
<polyline style="fill-rule:evenodd;"
points="7367,17313
7367,17627
7132,17627
7132,17313
7367,17313
" /> 
<polyline style="fill-rule:evenodd;"
points="6857,17313
6857,17627
6622,17627
6622,17313
6857,17313
" /> 
<polyline style="fill-rule:evenodd;"
points="7704,15482
7704,15167
7940,15167
7940,15482
7704,15482
" /> 
<polyline style="fill-rule:evenodd;"
points="8214,15482
8214,15167
8450,15167
8450,15482
8214,15482
" /> 
<polyline style="fill-rule:evenodd;"
points="3214,15285
3214,15600
2978,15600
2978,15285
3214,15285
" /> 
<polyline style="fill-rule:evenodd;"
points="2704,15285
2704,15600
2468,15600
2468,15285
2704,15285
" /> 
<polyline style="fill-rule:evenodd;"
points="7685,14399
7685,14084
7920,14084
7920,14399
7685,14399
" /> 
<polyline style="fill-rule:evenodd;"
points="8195,14399
8195,14084
8430,14084
8430,14399
8195,14399
" /> 
<polyline style="fill-rule:evenodd;"
points="4613,12685
4298,12685
4298,12450
4613,12450
4613,12685
" /> 
<polyline style="fill-rule:evenodd;"
points="4613,12175
4298,12175
4298,11940
4613,11940
4613,12175
" /> 
<polyline style="fill-rule:evenodd;"
points="6679,12823
6365,12823
6365,12587
6679,12587
6679,12823
" /> 
<polyline style="fill-rule:evenodd;"
points="6679,12313
6365,12313
6365,12077
6679,12077
6679,12313
" /> 
<polyline style="fill-rule:evenodd;"
points="4573,17314
4888,17314
4888,17549
4573,17549
4573,17314
" /> 
<polyline style="fill-rule:evenodd;"
points="4573,17824
4888,17824
4888,18059
4573,18059
4573,17824
" /> 
<polyline style="fill-rule:evenodd;"
points="3214,14025
3214,14340
2978,14340
2978,14025
3214,14025
" /> 
<polyline style="fill-rule:evenodd;"
points="2704,14025
2704,14340
2468,14340
2468,14025
2704,14025
" /> 
<polyline style="fill-rule:evenodd;"
points="8806,13060
9396,13060
9396,13297
8806,13297
8806,13060
" /> 
<polyline style="fill-rule:evenodd;"
points="8805,13651
9593,13651
9593,13888
8805,13888
8805,13651
" /> 
<polyline style="fill-rule:evenodd;"
points="8806,14242
9396,14242
9396,14479
8806,14479
8806,14242
" /> 
<polyline style="fill-rule:evenodd;"
points="9622,13395
10666,13395
10666,14143
9622,14143
9622,13395
" /> 
<polyline style="fill-rule:evenodd;"
points="6442,17805
6442,18119
6207,18119
6207,17805
6442,17805
" /> 
<polyline style="fill-rule:evenodd;"
points="5932,17805
5932,18119
5697,18119
5697,17805
5932,17805
" /> 
<polyline style="fill-rule:evenodd;"
points="8648,14656
8963,14656
8963,14892
8648,14892
8648,14656
" /> 
<polyline style="fill-rule:evenodd;"
points="8648,15166
8963,15166
8963,15402
8648,15402
8648,15166
" /> 
<polyline style="fill-rule:evenodd;"
points="6374,16377
6452,16377
6452,16534
6374,16534
6374,16377
" /> 
<polyline style="fill-rule:evenodd;"
points="6177,16377
6255,16377
6255,16534
6177,16534
6177,16377
" /> 
<polyline style="fill-rule:evenodd;"
points="5980,16377
6058,16377
6058,16534
5980,16534
5980,16377
" /> 
<polyline style="fill-rule:evenodd;"
points="5784,16377
5862,16377
5862,16534
5784,16534
5784,16377
" /> 
<polyline style="fill-rule:evenodd;"
points="5587,16377
5665,16377
5665,16534
5587,16534
5587,16377
" /> 
<polyline style="fill-rule:evenodd;"
points="5390,16377
5468,16377
5468,16534
5390,16534
5390,16377
" /> 
<polyline style="fill-rule:evenodd;"
points="5194,16377
5272,16377
5272,16534
5194,16534
5194,16377
" /> 
<polyline style="fill-rule:evenodd;"
points="4997,16377
5075,16377
5075,16534
4997,16534
4997,16377
" /> 
<polyline style="fill-rule:evenodd;"
points="4800,16377
4878,16377
4878,16534
4800,16534
4800,16377
" /> 
<polyline style="fill-rule:evenodd;"
points="4604,16377
4682,16377
4682,16534
4604,16534
4604,16377
" /> 
<polyline style="fill-rule:evenodd;"
points="4407,16377
4485,16377
4485,16534
4407,16534
4407,16377
" /> 
<polyline style="fill-rule:evenodd;"
points="4210,16377
4288,16377
4288,16534
4210,16534
4210,16377
" /> 
<polyline style="fill-rule:evenodd;"
points="4032,16121
4032,16200
3876,16200
3876,16121
4032,16121
" /> 
<polyline style="fill-rule:evenodd;"
points="4032,15924
4032,16003
3876,16003
3876,15924
4032,15924
" /> 
<polyline style="fill-rule:evenodd;"
points="4032,15727
4032,15806
3876,15806
3876,15727
4032,15727
" /> 
<polyline style="fill-rule:evenodd;"
points="4032,15531
4032,15610
3876,15610
3876,15531
4032,15531
" /> 
<polyline style="fill-rule:evenodd;"
points="4032,15334
4032,15413
3876,15413
3876,15334
4032,15334
" /> 
<polyline style="fill-rule:evenodd;"
points="4032,15137
4032,15216
3876,15216
3876,15137
4032,15137
" /> 
<polyline style="fill-rule:evenodd;"
points="4032,14941
4032,15020
3876,15020
3876,14941
4032,14941
" /> 
<polyline style="fill-rule:evenodd;"
points="4032,14744
4032,14823
3876,14823
3876,14744
4032,14744
" /> 
<polyline style="fill-rule:evenodd;"
points="4032,14547
4032,14626
3876,14626
3876,14547
4032,14547
" /> 
<polyline style="fill-rule:evenodd;"
points="4032,14351
4032,14430
3876,14430
3876,14351
4032,14351
" /> 
<polyline style="fill-rule:evenodd;"
points="4032,14154
4032,14233
3876,14233
3876,14154
4032,14154
" /> 
<polyline style="fill-rule:evenodd;"
points="4032,13957
4032,14036
3876,14036
3876,13957
4032,13957
" /> 
<polyline style="fill-rule:evenodd;"
points="4288,13780
4210,13780
4210,13623
4288,13623
4288,13780
" /> 
<polyline style="fill-rule:evenodd;"
points="4485,13780
4407,13780
4407,13623
4485,13623
4485,13780
" /> 
<polyline style="fill-rule:evenodd;"
points="4682,13780
4604,13780
4604,13623
4682,13623
4682,13780
" /> 
<polyline style="fill-rule:evenodd;"
points="4878,13780
4800,13780
4800,13623
4878,13623
4878,13780
" /> 
<polyline style="fill-rule:evenodd;"
points="5075,13780
4997,13780
4997,13623
5075,13623
5075,13780
" /> 
<polyline style="fill-rule:evenodd;"
points="5272,13780
5194,13780
5194,13623
5272,13623
5272,13780
" /> 
<polyline style="fill-rule:evenodd;"
points="5468,13780
5390,13780
5390,13623
5468,13623
5468,13780
" /> 
<polyline style="fill-rule:evenodd;"
points="5665,13780
5587,13780
5587,13623
5665,13623
5665,13780
" /> 
<polyline style="fill-rule:evenodd;"
points="5862,13780
5784,13780
5784,13623
5862,13623
5862,13780
" /> 
<polyline style="fill-rule:evenodd;"
points="6058,13780
5980,13780
5980,13623
6058,13623
6058,13780
" /> 
<polyline style="fill-rule:evenodd;"
points="6255,13780
6177,13780
6177,13623
6255,13623
6255,13780
" /> 
<polyline style="fill-rule:evenodd;"
points="6452,13780
6374,13780
6374,13623
6452,13623
6452,13780
" /> 
<polyline style="fill-rule:evenodd;"
points="6630,14036
6630,13957
6786,13957
6786,14036
6630,14036
" /> 
<polyline style="fill-rule:evenodd;"
points="6630,14233
6630,14154
6786,14154
6786,14233
6630,14233
" /> 
<polyline style="fill-rule:evenodd;"
points="6630,14430
6630,14351
6786,14351
6786,14430
6630,14430
" /> 
<polyline style="fill-rule:evenodd;"
points="6630,14626
6630,14547
6786,14547
6786,14626
6630,14626
" /> 
<polyline style="fill-rule:evenodd;"
points="6630,14823
6630,14744
6786,14744
6786,14823
6630,14823
" /> 
<polyline style="fill-rule:evenodd;"
points="6630,15020
6630,14941
6786,14941
6786,15020
6630,15020
" /> 
<polyline style="fill-rule:evenodd;"
points="6630,15216
6630,15137
6786,15137
6786,15216
6630,15216
" /> 
<polyline style="fill-rule:evenodd;"
points="6630,15413
6630,15334
6786,15334
6786,15413
6630,15413
" /> 
<polyline style="fill-rule:evenodd;"
points="6630,15610
6630,15531
6786,15531
6786,15610
6630,15610
" /> 
<polyline style="fill-rule:evenodd;"
points="6630,15806
6630,15727
6786,15727
6786,15806
6630,15806
" /> 
<polyline style="fill-rule:evenodd;"
points="6630,16003
6630,15924
6786,15924
6786,16003
6630,16003
" /> 
<polyline style="fill-rule:evenodd;"
points="6630,16200
6630,16121
6786,16121
6786,16200
6630,16200
" /> 
</g>
<g style="fill:#000000; fill-opacity:1.0; 
stroke:#000000; stroke-width:39.3701; stroke-opacity:1; 
stroke-linecap:round; stroke-linejoin:round;">
<polyline style="fill-rule:evenodd;"
points="5764,14094
6315,14094
6315,14645
5764,14645
5764,14094
" /> 
<polyline style="fill-rule:evenodd;"
points="5764,14803
6315,14803
6315,15354
5764,15354
5764,14803
" /> 
<polyline style="fill-rule:evenodd;"
points="5764,15511
6315,15511
6315,16062
5764,16062
5764,15511
" /> 
<polyline style="fill-rule:evenodd;"
points="5056,14094
5607,14094
5607,14645
5056,14645
5056,14094
" /> 
<polyline style="fill-rule:evenodd;"
points="5056,14803
5607,14803
5607,15354
5056,15354
5056,14803
" /> 
<polyline style="fill-rule:evenodd;"
points="5056,15511
5607,15511
5607,16062
5056,16062
5056,15511
" /> 
<polyline style="fill-rule:evenodd;"
points="4347,14094
4898,14094
4898,14645
4347,14645
4347,14094
" /> 
<polyline style="fill-rule:evenodd;"
points="4347,14803
4898,14803
4898,15354
4347,15354
4347,14803
" /> 
<polyline style="fill-rule:evenodd;"
points="4347,15511
4898,15511
4898,16062
4347,16062
4347,15511
" /> 
</g>
<g style="fill:#840000; fill-opacity:1.0; 
stroke:#840000; stroke-width:39.3701; stroke-opacity:1; 
stroke-linecap:round; stroke-linejoin:round;">
<polyline style="fill-rule:evenodd;"
points="7006,12588
7006,12273
7241,12273
7241,12588
7006,12588
" /> 
<polyline style="fill-rule:evenodd;"
points="7516,12588
7516,12273
7751,12273
7751,12588
7516,12588
" /> 
<polyline style="fill-rule:evenodd;"
points="7715,10816
7361,10816
7361,10462
7715,10462
7715,10816
" /> 
<polyline style="fill-rule:evenodd;"
points="8715,10816
8361,10816
8361,10462
8715,10462
8715,10816
" /> 
<polyline style="fill-rule:evenodd;"
points="9715,10816
9361,10816
9361,10462
9715,10462
9715,10816
" /> 
<polyline style="fill-rule:evenodd;"
points="6715,10816
6361,10816
6361,10462
6715,10462
6715,10816
" /> 
<polyline style="fill-rule:evenodd;"
points="10715,10816
10361,10816
10361,10462
10715,10462
10715,10816
" /> 
<polyline style="fill-rule:evenodd;"
points="6947,11483
6947,11402
7108,11402
7108,11483
6947,11483
" /> 
<polyline style="fill-rule:evenodd;"
points="6947,11983
6947,11902
7108,11902
7108,11983
6947,11983
" /> 
<polyline style="fill-rule:evenodd;"
points="7747,11483
7747,11402
7908,11402
7908,11483
7747,11483
" /> 
<polyline style="fill-rule:evenodd;"
points="6947,11733
6947,11652
7108,11652
7108,11733
6947,11733
" /> 
<polyline style="fill-rule:evenodd;"
points="7747,11983
7747,11902
7908,11902
7908,11983
7747,11983
" /> 
<polyline style="fill-rule:evenodd;"
points="4908,11565
5302,11565
5302,11919
4908,11919
4908,11565
" /> 
<polyline style="fill-rule:evenodd;"
points="4908,12233
5302,12233
5302,12587
4908,12587
4908,12233
" /> 
<polyline style="fill-rule:evenodd;"
points="5715,11388
6109,11388
6109,11742
5715,11742
5715,11388
" /> 
<polyline style="fill-rule:evenodd;"
points="5715,12056
6109,12056
6109,12410
5715,12410
5715,12056
" /> 
</g> 
</svg>
