G04 (created by PCBNEW (2013-mar-13)-testing) date Thu 25 Jul 2013 04:06:31 PM ICT*
%MOIN*%
G04 Gerber Fmt 3.4, Leading zero omitted, Abs format*
%FSLAX34Y34*%
G01*
G70*
G90*
G04 APERTURE LIST*
%ADD10C,0.005*%
%ADD11C,0.00590551*%
%ADD12C,0.00787402*%
%ADD13C,0.011811*%
G04 APERTURE END LIST*
G54D10*
X39370Y-39370D02*
X39370Y-29527D01*
G54D11*
X53681Y-32066D02*
X53681Y-29527D01*
X59055Y-32066D02*
X53681Y-32066D01*
X53681Y-36830D02*
X53681Y-39370D01*
X59055Y-36830D02*
X53681Y-36830D01*
G54D10*
X59055Y-32066D02*
X59055Y-36830D01*
X53681Y-39370D02*
X39370Y-39370D01*
G54D12*
X39822Y-31062D02*
X39940Y-31181D01*
X39940Y-31062D02*
X39822Y-31181D01*
X39822Y-31732D02*
X39940Y-31850D01*
X39940Y-31732D02*
X39822Y-31850D01*
X39901Y-33799D02*
X40019Y-33917D01*
X40019Y-33799D02*
X39901Y-33917D01*
X39901Y-35393D02*
X40019Y-35511D01*
X40019Y-35393D02*
X39901Y-35511D01*
X40000Y-36456D02*
X40118Y-36574D01*
X40118Y-36456D02*
X40000Y-36574D01*
X40433Y-31358D02*
X40551Y-31476D01*
X40551Y-31358D02*
X40433Y-31476D01*
X40531Y-34389D02*
X40649Y-34507D01*
X40649Y-34389D02*
X40531Y-34507D01*
X40610Y-36673D02*
X40728Y-36791D01*
X40728Y-36673D02*
X40610Y-36791D01*
X41003Y-34389D02*
X41122Y-34507D01*
X41122Y-34389D02*
X41003Y-34507D01*
X41043Y-36141D02*
X41161Y-36259D01*
X41161Y-36141D02*
X41043Y-36259D01*
X41397Y-30472D02*
X41515Y-30590D01*
X41515Y-30472D02*
X41397Y-30590D01*
X41496Y-32303D02*
X41614Y-32421D01*
X41614Y-32303D02*
X41496Y-32421D01*
X42027Y-32066D02*
X42145Y-32185D01*
X42145Y-32066D02*
X42027Y-32185D01*
X42086Y-30846D02*
X42204Y-30964D01*
X42204Y-30846D02*
X42086Y-30964D01*
X42106Y-37066D02*
X42224Y-37185D01*
X42224Y-37066D02*
X42106Y-37185D01*
X42421Y-32578D02*
X42539Y-32696D01*
X42539Y-32578D02*
X42421Y-32696D01*
X42618Y-33818D02*
X42736Y-33937D01*
X42736Y-33818D02*
X42618Y-33937D01*
X42618Y-34251D02*
X42736Y-34370D01*
X42736Y-34251D02*
X42618Y-34370D01*
X42618Y-34685D02*
X42736Y-34803D01*
X42736Y-34685D02*
X42618Y-34803D01*
X42618Y-35118D02*
X42736Y-35236D01*
X42736Y-35118D02*
X42618Y-35236D01*
X42618Y-35551D02*
X42736Y-35669D01*
X42736Y-35551D02*
X42618Y-35669D01*
X42637Y-37538D02*
X42755Y-37656D01*
X42755Y-37538D02*
X42637Y-37656D01*
X42677Y-30649D02*
X42795Y-30767D01*
X42795Y-30649D02*
X42677Y-30767D01*
X43051Y-33818D02*
X43169Y-33937D01*
X43169Y-33818D02*
X43051Y-33937D01*
X43051Y-34251D02*
X43169Y-34370D01*
X43169Y-34251D02*
X43051Y-34370D01*
X43051Y-34685D02*
X43169Y-34803D01*
X43169Y-34685D02*
X43051Y-34803D01*
X43051Y-35118D02*
X43169Y-35236D01*
X43169Y-35118D02*
X43051Y-35236D01*
X43051Y-35551D02*
X43169Y-35669D01*
X43169Y-35551D02*
X43051Y-35669D01*
X43090Y-29980D02*
X43208Y-30098D01*
X43208Y-29980D02*
X43090Y-30098D01*
X43405Y-31555D02*
X43523Y-31673D01*
X43523Y-31555D02*
X43405Y-31673D01*
X43474Y-34675D02*
X43592Y-34793D01*
X43592Y-34675D02*
X43474Y-34793D01*
X43474Y-35108D02*
X43592Y-35226D01*
X43592Y-35108D02*
X43474Y-35226D01*
X43474Y-35541D02*
X43592Y-35659D01*
X43592Y-35541D02*
X43474Y-35659D01*
X43484Y-33818D02*
X43602Y-33937D01*
X43602Y-33818D02*
X43484Y-33937D01*
X43484Y-34251D02*
X43602Y-34370D01*
X43602Y-34251D02*
X43484Y-34370D01*
X43484Y-34685D02*
X43602Y-34803D01*
X43602Y-34685D02*
X43484Y-34803D01*
X43484Y-34685D02*
X43602Y-34803D01*
X43602Y-34685D02*
X43484Y-34803D01*
X43484Y-34685D02*
X43602Y-34803D01*
X43602Y-34685D02*
X43484Y-34803D01*
X43681Y-31751D02*
X43799Y-31870D01*
X43799Y-31751D02*
X43681Y-31870D01*
X43907Y-35108D02*
X44025Y-35226D01*
X44025Y-35108D02*
X43907Y-35226D01*
X43907Y-35541D02*
X44025Y-35659D01*
X44025Y-35541D02*
X43907Y-35659D01*
X43917Y-33818D02*
X44035Y-33937D01*
X44035Y-33818D02*
X43917Y-33937D01*
X43917Y-34251D02*
X44035Y-34370D01*
X44035Y-34251D02*
X43917Y-34370D01*
X43917Y-34685D02*
X44035Y-34803D01*
X44035Y-34685D02*
X43917Y-34803D01*
X43996Y-37736D02*
X44114Y-37854D01*
X44114Y-37736D02*
X43996Y-37854D01*
X44340Y-35108D02*
X44458Y-35226D01*
X44458Y-35108D02*
X44340Y-35226D01*
X44340Y-35541D02*
X44458Y-35659D01*
X44458Y-35541D02*
X44340Y-35659D01*
X44350Y-33818D02*
X44468Y-33937D01*
X44468Y-33818D02*
X44350Y-33937D01*
X44350Y-34251D02*
X44468Y-34370D01*
X44468Y-34251D02*
X44350Y-34370D01*
X44350Y-34685D02*
X44468Y-34803D01*
X44468Y-34685D02*
X44350Y-34803D01*
X44625Y-37490D02*
X44744Y-37608D01*
X44744Y-37490D02*
X44625Y-37608D01*
X44665Y-30925D02*
X44783Y-31043D01*
X44783Y-30925D02*
X44665Y-31043D01*
X44685Y-31437D02*
X44803Y-31555D01*
X44803Y-31437D02*
X44685Y-31555D01*
X45137Y-30413D02*
X45255Y-30531D01*
X45255Y-30413D02*
X45137Y-30531D01*
X45255Y-31633D02*
X45374Y-31751D01*
X45374Y-31633D02*
X45255Y-31751D01*
X45570Y-31712D02*
X45688Y-31830D01*
X45688Y-31712D02*
X45570Y-31830D01*
X45610Y-33996D02*
X45728Y-34114D01*
X45728Y-33996D02*
X45610Y-34114D01*
X45688Y-36279D02*
X45807Y-36397D01*
X45807Y-36279D02*
X45688Y-36397D01*
X45767Y-36633D02*
X45885Y-36751D01*
X45885Y-36633D02*
X45767Y-36751D01*
X45964Y-31633D02*
X46082Y-31751D01*
X46082Y-31633D02*
X45964Y-31751D01*
X46082Y-31988D02*
X46200Y-32106D01*
X46200Y-31988D02*
X46082Y-32106D01*
X46122Y-30413D02*
X46240Y-30531D01*
X46240Y-30413D02*
X46122Y-30531D01*
X46161Y-30925D02*
X46279Y-31043D01*
X46279Y-30925D02*
X46161Y-31043D01*
X46240Y-35255D02*
X46358Y-35374D01*
X46358Y-35255D02*
X46240Y-35374D01*
X46358Y-34468D02*
X46476Y-34586D01*
X46476Y-34468D02*
X46358Y-34586D01*
X46397Y-33681D02*
X46515Y-33799D01*
X46515Y-33681D02*
X46397Y-33799D01*
X46437Y-32814D02*
X46555Y-32933D01*
X46555Y-32814D02*
X46437Y-32933D01*
X46496Y-31003D02*
X46614Y-31122D01*
X46614Y-31003D02*
X46496Y-31122D01*
X47145Y-30925D02*
X47263Y-31043D01*
X47263Y-30925D02*
X47145Y-31043D01*
X47263Y-33957D02*
X47381Y-34075D01*
X47381Y-33957D02*
X47263Y-34075D01*
X47696Y-29822D02*
X47814Y-29940D01*
X47814Y-29822D02*
X47696Y-29940D01*
X47775Y-31948D02*
X47893Y-32066D01*
X47893Y-31948D02*
X47775Y-32066D01*
X47893Y-35570D02*
X48011Y-35688D01*
X48011Y-35570D02*
X47893Y-35688D01*
X47933Y-33602D02*
X48051Y-33720D01*
X48051Y-33602D02*
X47933Y-33720D01*
X47952Y-33149D02*
X48070Y-33267D01*
X48070Y-33149D02*
X47952Y-33267D01*
X48306Y-33366D02*
X48424Y-33484D01*
X48424Y-33366D02*
X48306Y-33484D01*
X48602Y-31594D02*
X48720Y-31712D01*
X48720Y-31594D02*
X48602Y-31712D01*
X48602Y-31988D02*
X48720Y-32106D01*
X48720Y-31988D02*
X48602Y-32106D01*
X48641Y-33149D02*
X48759Y-33267D01*
X48759Y-33149D02*
X48641Y-33267D01*
X48661Y-33582D02*
X48779Y-33700D01*
X48779Y-33582D02*
X48661Y-33700D01*
X48956Y-34822D02*
X49074Y-34940D01*
X49074Y-34822D02*
X48956Y-34940D01*
X49035Y-31633D02*
X49153Y-31751D01*
X49153Y-31633D02*
X49035Y-31751D01*
X49232Y-33562D02*
X49350Y-33681D01*
X49350Y-33562D02*
X49232Y-33681D01*
X49350Y-33287D02*
X49468Y-33405D01*
X49468Y-33287D02*
X49350Y-33405D01*
X49350Y-34822D02*
X49468Y-34940D01*
X49468Y-34822D02*
X49350Y-34940D01*
X49783Y-31200D02*
X49901Y-31318D01*
X49901Y-31200D02*
X49783Y-31318D01*
X49940Y-30334D02*
X50059Y-30452D01*
X50059Y-30334D02*
X49940Y-30452D01*
X50059Y-34744D02*
X50177Y-34862D01*
X50177Y-34744D02*
X50059Y-34862D01*
X50177Y-33326D02*
X50295Y-33444D01*
X50295Y-33326D02*
X50177Y-33444D01*
X50295Y-30216D02*
X50413Y-30334D01*
X50413Y-30216D02*
X50295Y-30334D01*
X50334Y-36338D02*
X50452Y-36456D01*
X50452Y-36338D02*
X50334Y-36456D01*
X50334Y-36889D02*
X50452Y-37007D01*
X50452Y-36889D02*
X50334Y-37007D01*
X50413Y-33523D02*
X50531Y-33641D01*
X50531Y-33523D02*
X50413Y-33641D01*
X50688Y-30216D02*
X50807Y-30334D01*
X50807Y-30216D02*
X50688Y-30334D01*
X50688Y-33661D02*
X50807Y-33779D01*
X50807Y-33661D02*
X50688Y-33779D01*
X50767Y-36338D02*
X50885Y-36456D01*
X50885Y-36338D02*
X50767Y-36456D01*
X50767Y-36889D02*
X50885Y-37007D01*
X50885Y-36889D02*
X50767Y-37007D01*
X51003Y-33562D02*
X51122Y-33681D01*
X51122Y-33562D02*
X51003Y-33681D01*
X51200Y-36338D02*
X51318Y-36456D01*
X51318Y-36338D02*
X51200Y-36456D01*
X51200Y-36889D02*
X51318Y-37007D01*
X51318Y-36889D02*
X51200Y-37007D01*
X51515Y-33208D02*
X51633Y-33326D01*
X51633Y-33208D02*
X51515Y-33326D01*
X51751Y-32303D02*
X51870Y-32421D01*
X51870Y-32303D02*
X51751Y-32421D01*
X51791Y-31948D02*
X51909Y-32066D01*
X51909Y-31948D02*
X51791Y-32066D01*
X52106Y-35767D02*
X52224Y-35885D01*
X52224Y-35767D02*
X52106Y-35885D01*
X52125Y-33287D02*
X52244Y-33405D01*
X52244Y-33287D02*
X52125Y-33405D01*
X52185Y-32578D02*
X52303Y-32696D01*
X52303Y-32578D02*
X52185Y-32696D01*
X52755Y-34232D02*
X52874Y-34350D01*
X52874Y-34232D02*
X52755Y-34350D01*
X53011Y-33976D02*
X53129Y-34094D01*
X53129Y-33976D02*
X53011Y-34094D01*
X49537Y-37923D02*
G75*
G03X49537Y-37923I-98J0D01*
G74*
G01*
X51181Y-38149D02*
G75*
G03X51181Y-38149I-98J0D01*
G74*
G01*
X52322Y-37401D02*
G75*
G03X52322Y-37401I-98J0D01*
G74*
G01*
X53248Y-36279D02*
G75*
G03X53248Y-36279I-98J0D01*
G74*
G01*
X41141Y-37992D02*
X41141Y-38779D01*
X40748Y-38385D02*
X41535Y-38385D01*
X51811Y-30118D02*
X51811Y-30905D01*
X51417Y-30511D02*
X52204Y-30511D01*
G54D13*
X40438Y-41233D02*
X40438Y-40052D01*
X40719Y-40052D01*
X40888Y-40108D01*
X41001Y-40220D01*
X41057Y-40333D01*
X41113Y-40558D01*
X41113Y-40726D01*
X41057Y-40951D01*
X41001Y-41064D01*
X40888Y-41176D01*
X40719Y-41233D01*
X40438Y-41233D01*
X41619Y-41233D02*
X41619Y-40445D01*
X41619Y-40670D02*
X41676Y-40558D01*
X41732Y-40501D01*
X41844Y-40445D01*
X41957Y-40445D01*
X42350Y-41233D02*
X42350Y-40445D01*
X42350Y-40052D02*
X42294Y-40108D01*
X42350Y-40164D01*
X42407Y-40108D01*
X42350Y-40052D01*
X42350Y-40164D01*
X43082Y-41233D02*
X42969Y-41176D01*
X42913Y-41064D01*
X42913Y-40052D01*
X43700Y-41233D02*
X43588Y-41176D01*
X43532Y-41064D01*
X43532Y-40052D01*
X45050Y-41233D02*
X45050Y-40052D01*
X45444Y-40895D01*
X45838Y-40052D01*
X45838Y-41233D01*
X46906Y-41233D02*
X46906Y-40614D01*
X46850Y-40501D01*
X46737Y-40445D01*
X46512Y-40445D01*
X46400Y-40501D01*
X46906Y-41176D02*
X46794Y-41233D01*
X46512Y-41233D01*
X46400Y-41176D01*
X46344Y-41064D01*
X46344Y-40951D01*
X46400Y-40839D01*
X46512Y-40783D01*
X46794Y-40783D01*
X46906Y-40726D01*
X47469Y-40445D02*
X47469Y-41626D01*
X47469Y-40501D02*
X47581Y-40445D01*
X47806Y-40445D01*
X47919Y-40501D01*
X47975Y-40558D01*
X48031Y-40670D01*
X48031Y-41008D01*
X47975Y-41120D01*
X47919Y-41176D01*
X47806Y-41233D01*
X47581Y-41233D01*
X47469Y-41176D01*
X48537Y-41120D02*
X48593Y-41176D01*
X48537Y-41233D01*
X48481Y-41176D01*
X48537Y-41120D01*
X48537Y-41233D01*
X48537Y-40501D02*
X48593Y-40558D01*
X48537Y-40614D01*
X48481Y-40558D01*
X48537Y-40501D01*
X48537Y-40614D01*
X39251Y-43120D02*
X39370Y-43238D01*
X39370Y-43120D02*
X39251Y-43238D01*
X40663Y-42532D02*
X40776Y-42532D01*
X40888Y-42588D01*
X40944Y-42644D01*
X41001Y-42757D01*
X41057Y-42982D01*
X41057Y-43263D01*
X41001Y-43488D01*
X40944Y-43600D01*
X40888Y-43657D01*
X40776Y-43713D01*
X40663Y-43713D01*
X40551Y-43657D01*
X40494Y-43600D01*
X40438Y-43488D01*
X40382Y-43263D01*
X40382Y-42982D01*
X40438Y-42757D01*
X40494Y-42644D01*
X40551Y-42588D01*
X40663Y-42532D01*
X41563Y-43600D02*
X41619Y-43657D01*
X41563Y-43713D01*
X41507Y-43657D01*
X41563Y-43600D01*
X41563Y-43713D01*
X42013Y-42532D02*
X42744Y-42532D01*
X42350Y-42982D01*
X42519Y-42982D01*
X42632Y-43038D01*
X42688Y-43094D01*
X42744Y-43207D01*
X42744Y-43488D01*
X42688Y-43600D01*
X42632Y-43657D01*
X42519Y-43713D01*
X42182Y-43713D01*
X42069Y-43657D01*
X42013Y-43600D01*
X43475Y-42532D02*
X43588Y-42532D01*
X43700Y-42588D01*
X43757Y-42644D01*
X43813Y-42757D01*
X43869Y-42982D01*
X43869Y-43263D01*
X43813Y-43488D01*
X43757Y-43600D01*
X43700Y-43657D01*
X43588Y-43713D01*
X43475Y-43713D01*
X43363Y-43657D01*
X43307Y-43600D01*
X43250Y-43488D01*
X43194Y-43263D01*
X43194Y-42982D01*
X43250Y-42757D01*
X43307Y-42644D01*
X43363Y-42588D01*
X43475Y-42532D01*
X44375Y-43713D02*
X44375Y-42926D01*
X44375Y-43038D02*
X44431Y-42982D01*
X44544Y-42926D01*
X44713Y-42926D01*
X44825Y-42982D01*
X44881Y-43094D01*
X44881Y-43713D01*
X44881Y-43094D02*
X44938Y-42982D01*
X45050Y-42926D01*
X45219Y-42926D01*
X45331Y-42982D01*
X45388Y-43094D01*
X45388Y-43713D01*
X45950Y-43713D02*
X45950Y-42926D01*
X45950Y-43038D02*
X46006Y-42982D01*
X46119Y-42926D01*
X46287Y-42926D01*
X46400Y-42982D01*
X46456Y-43094D01*
X46456Y-43713D01*
X46456Y-43094D02*
X46512Y-42982D01*
X46625Y-42926D01*
X46794Y-42926D01*
X46906Y-42982D01*
X46962Y-43094D01*
X46962Y-43713D01*
X49268Y-42476D02*
X48256Y-43994D01*
X50787Y-42532D02*
X50899Y-42532D01*
X51012Y-42588D01*
X51068Y-42644D01*
X51124Y-42757D01*
X51181Y-42982D01*
X51181Y-43263D01*
X51124Y-43488D01*
X51068Y-43600D01*
X51012Y-43657D01*
X50899Y-43713D01*
X50787Y-43713D01*
X50674Y-43657D01*
X50618Y-43600D01*
X50562Y-43488D01*
X50506Y-43263D01*
X50506Y-42982D01*
X50562Y-42757D01*
X50618Y-42644D01*
X50674Y-42588D01*
X50787Y-42532D01*
X51687Y-43600D02*
X51743Y-43657D01*
X51687Y-43713D01*
X51631Y-43657D01*
X51687Y-43600D01*
X51687Y-43713D01*
X52474Y-42532D02*
X52587Y-42532D01*
X52699Y-42588D01*
X52755Y-42644D01*
X52812Y-42757D01*
X52868Y-42982D01*
X52868Y-43263D01*
X52812Y-43488D01*
X52755Y-43600D01*
X52699Y-43657D01*
X52587Y-43713D01*
X52474Y-43713D01*
X52362Y-43657D01*
X52305Y-43600D01*
X52249Y-43488D01*
X52193Y-43263D01*
X52193Y-42982D01*
X52249Y-42757D01*
X52305Y-42644D01*
X52362Y-42588D01*
X52474Y-42532D01*
X53993Y-43713D02*
X53318Y-43713D01*
X53655Y-43713D02*
X53655Y-42532D01*
X53543Y-42701D01*
X53430Y-42813D01*
X53318Y-42869D01*
X54443Y-42644D02*
X54499Y-42588D01*
X54611Y-42532D01*
X54893Y-42532D01*
X55005Y-42588D01*
X55061Y-42644D01*
X55118Y-42757D01*
X55118Y-42869D01*
X55061Y-43038D01*
X54386Y-43713D01*
X55118Y-43713D01*
X55568Y-42532D02*
X55568Y-42757D01*
X56017Y-42532D02*
X56017Y-42757D01*
X57761Y-44163D02*
X57705Y-44107D01*
X57592Y-43938D01*
X57536Y-43825D01*
X57480Y-43657D01*
X57424Y-43375D01*
X57424Y-43151D01*
X57480Y-42869D01*
X57536Y-42701D01*
X57592Y-42588D01*
X57705Y-42419D01*
X57761Y-42363D01*
X58830Y-43713D02*
X58155Y-43713D01*
X58492Y-43713D02*
X58492Y-42532D01*
X58380Y-42701D01*
X58267Y-42813D01*
X58155Y-42869D01*
X59561Y-42532D02*
X59673Y-42532D01*
X59786Y-42588D01*
X59842Y-42644D01*
X59898Y-42757D01*
X59955Y-42982D01*
X59955Y-43263D01*
X59898Y-43488D01*
X59842Y-43600D01*
X59786Y-43657D01*
X59673Y-43713D01*
X59561Y-43713D01*
X59448Y-43657D01*
X59392Y-43600D01*
X59336Y-43488D01*
X59280Y-43263D01*
X59280Y-42982D01*
X59336Y-42757D01*
X59392Y-42644D01*
X59448Y-42588D01*
X59561Y-42532D01*
X60629Y-43038D02*
X60517Y-42982D01*
X60461Y-42926D01*
X60404Y-42813D01*
X60404Y-42757D01*
X60461Y-42644D01*
X60517Y-42588D01*
X60629Y-42532D01*
X60854Y-42532D01*
X60967Y-42588D01*
X61023Y-42644D01*
X61079Y-42757D01*
X61079Y-42813D01*
X61023Y-42926D01*
X60967Y-42982D01*
X60854Y-43038D01*
X60629Y-43038D01*
X60517Y-43094D01*
X60461Y-43151D01*
X60404Y-43263D01*
X60404Y-43488D01*
X60461Y-43600D01*
X60517Y-43657D01*
X60629Y-43713D01*
X60854Y-43713D01*
X60967Y-43657D01*
X61023Y-43600D01*
X61079Y-43488D01*
X61079Y-43263D01*
X61023Y-43151D01*
X60967Y-43094D01*
X60854Y-43038D01*
X62485Y-43713D02*
X62485Y-42532D01*
X62992Y-43713D02*
X62992Y-43094D01*
X62935Y-42982D01*
X62823Y-42926D01*
X62654Y-42926D01*
X62542Y-42982D01*
X62485Y-43038D01*
X63723Y-43713D02*
X63610Y-43657D01*
X63554Y-43600D01*
X63498Y-43488D01*
X63498Y-43151D01*
X63554Y-43038D01*
X63610Y-42982D01*
X63723Y-42926D01*
X63892Y-42926D01*
X64004Y-42982D01*
X64060Y-43038D01*
X64116Y-43151D01*
X64116Y-43488D01*
X64060Y-43600D01*
X64004Y-43657D01*
X63892Y-43713D01*
X63723Y-43713D01*
X64791Y-43713D02*
X64679Y-43657D01*
X64623Y-43544D01*
X64623Y-42532D01*
X65691Y-43657D02*
X65579Y-43713D01*
X65354Y-43713D01*
X65241Y-43657D01*
X65185Y-43544D01*
X65185Y-43094D01*
X65241Y-42982D01*
X65354Y-42926D01*
X65579Y-42926D01*
X65691Y-42982D01*
X65748Y-43094D01*
X65748Y-43207D01*
X65185Y-43319D01*
X66197Y-43657D02*
X66310Y-43713D01*
X66535Y-43713D01*
X66647Y-43657D01*
X66704Y-43544D01*
X66704Y-43488D01*
X66647Y-43375D01*
X66535Y-43319D01*
X66366Y-43319D01*
X66254Y-43263D01*
X66197Y-43151D01*
X66197Y-43094D01*
X66254Y-42982D01*
X66366Y-42926D01*
X66535Y-42926D01*
X66647Y-42982D01*
X67097Y-44163D02*
X67154Y-44107D01*
X67266Y-43938D01*
X67322Y-43825D01*
X67379Y-43657D01*
X67435Y-43375D01*
X67435Y-43151D01*
X67379Y-42869D01*
X67322Y-42701D01*
X67266Y-42588D01*
X67154Y-42419D01*
X67097Y-42363D01*
G54D12*
X39370Y-44738D02*
G75*
G03X39370Y-44738I-98J0D01*
G74*
G01*
G54D13*
X40663Y-44091D02*
X40776Y-44091D01*
X40888Y-44147D01*
X40944Y-44203D01*
X41001Y-44316D01*
X41057Y-44541D01*
X41057Y-44822D01*
X41001Y-45047D01*
X40944Y-45160D01*
X40888Y-45216D01*
X40776Y-45272D01*
X40663Y-45272D01*
X40551Y-45216D01*
X40494Y-45160D01*
X40438Y-45047D01*
X40382Y-44822D01*
X40382Y-44541D01*
X40438Y-44316D01*
X40494Y-44203D01*
X40551Y-44147D01*
X40663Y-44091D01*
X41563Y-45160D02*
X41619Y-45216D01*
X41563Y-45272D01*
X41507Y-45216D01*
X41563Y-45160D01*
X41563Y-45272D01*
X42688Y-44091D02*
X42125Y-44091D01*
X42069Y-44653D01*
X42125Y-44597D01*
X42238Y-44541D01*
X42519Y-44541D01*
X42632Y-44597D01*
X42688Y-44653D01*
X42744Y-44766D01*
X42744Y-45047D01*
X42688Y-45160D01*
X42632Y-45216D01*
X42519Y-45272D01*
X42238Y-45272D01*
X42125Y-45216D01*
X42069Y-45160D01*
X43475Y-44091D02*
X43588Y-44091D01*
X43700Y-44147D01*
X43757Y-44203D01*
X43813Y-44316D01*
X43869Y-44541D01*
X43869Y-44822D01*
X43813Y-45047D01*
X43757Y-45160D01*
X43700Y-45216D01*
X43588Y-45272D01*
X43475Y-45272D01*
X43363Y-45216D01*
X43307Y-45160D01*
X43250Y-45047D01*
X43194Y-44822D01*
X43194Y-44541D01*
X43250Y-44316D01*
X43307Y-44203D01*
X43363Y-44147D01*
X43475Y-44091D01*
X44375Y-45272D02*
X44375Y-44485D01*
X44375Y-44597D02*
X44431Y-44541D01*
X44544Y-44485D01*
X44713Y-44485D01*
X44825Y-44541D01*
X44881Y-44653D01*
X44881Y-45272D01*
X44881Y-44653D02*
X44938Y-44541D01*
X45050Y-44485D01*
X45219Y-44485D01*
X45331Y-44541D01*
X45388Y-44653D01*
X45388Y-45272D01*
X45950Y-45272D02*
X45950Y-44485D01*
X45950Y-44597D02*
X46006Y-44541D01*
X46119Y-44485D01*
X46287Y-44485D01*
X46400Y-44541D01*
X46456Y-44653D01*
X46456Y-45272D01*
X46456Y-44653D02*
X46512Y-44541D01*
X46625Y-44485D01*
X46794Y-44485D01*
X46906Y-44541D01*
X46962Y-44653D01*
X46962Y-45272D01*
X49268Y-44035D02*
X48256Y-45553D01*
X50787Y-44091D02*
X50899Y-44091D01*
X51012Y-44147D01*
X51068Y-44203D01*
X51124Y-44316D01*
X51181Y-44541D01*
X51181Y-44822D01*
X51124Y-45047D01*
X51068Y-45160D01*
X51012Y-45216D01*
X50899Y-45272D01*
X50787Y-45272D01*
X50674Y-45216D01*
X50618Y-45160D01*
X50562Y-45047D01*
X50506Y-44822D01*
X50506Y-44541D01*
X50562Y-44316D01*
X50618Y-44203D01*
X50674Y-44147D01*
X50787Y-44091D01*
X51687Y-45160D02*
X51743Y-45216D01*
X51687Y-45272D01*
X51631Y-45216D01*
X51687Y-45160D01*
X51687Y-45272D01*
X52474Y-44091D02*
X52587Y-44091D01*
X52699Y-44147D01*
X52755Y-44203D01*
X52812Y-44316D01*
X52868Y-44541D01*
X52868Y-44822D01*
X52812Y-45047D01*
X52755Y-45160D01*
X52699Y-45216D01*
X52587Y-45272D01*
X52474Y-45272D01*
X52362Y-45216D01*
X52305Y-45160D01*
X52249Y-45047D01*
X52193Y-44822D01*
X52193Y-44541D01*
X52249Y-44316D01*
X52305Y-44203D01*
X52362Y-44147D01*
X52474Y-44091D01*
X53318Y-44203D02*
X53374Y-44147D01*
X53487Y-44091D01*
X53768Y-44091D01*
X53880Y-44147D01*
X53937Y-44203D01*
X53993Y-44316D01*
X53993Y-44428D01*
X53937Y-44597D01*
X53262Y-45272D01*
X53993Y-45272D01*
X54724Y-44091D02*
X54836Y-44091D01*
X54949Y-44147D01*
X55005Y-44203D01*
X55061Y-44316D01*
X55118Y-44541D01*
X55118Y-44822D01*
X55061Y-45047D01*
X55005Y-45160D01*
X54949Y-45216D01*
X54836Y-45272D01*
X54724Y-45272D01*
X54611Y-45216D01*
X54555Y-45160D01*
X54499Y-45047D01*
X54443Y-44822D01*
X54443Y-44541D01*
X54499Y-44316D01*
X54555Y-44203D01*
X54611Y-44147D01*
X54724Y-44091D01*
X55568Y-44091D02*
X55568Y-44316D01*
X56017Y-44091D02*
X56017Y-44316D01*
X57761Y-45722D02*
X57705Y-45666D01*
X57592Y-45497D01*
X57536Y-45384D01*
X57480Y-45216D01*
X57424Y-44935D01*
X57424Y-44710D01*
X57480Y-44428D01*
X57536Y-44260D01*
X57592Y-44147D01*
X57705Y-43978D01*
X57761Y-43922D01*
X58717Y-44485D02*
X58717Y-45272D01*
X58436Y-44035D02*
X58155Y-44878D01*
X58886Y-44878D01*
X60236Y-45272D02*
X60236Y-44091D01*
X60742Y-45272D02*
X60742Y-44653D01*
X60686Y-44541D01*
X60573Y-44485D01*
X60404Y-44485D01*
X60292Y-44541D01*
X60236Y-44597D01*
X61473Y-45272D02*
X61361Y-45216D01*
X61304Y-45160D01*
X61248Y-45047D01*
X61248Y-44710D01*
X61304Y-44597D01*
X61361Y-44541D01*
X61473Y-44485D01*
X61642Y-44485D01*
X61754Y-44541D01*
X61811Y-44597D01*
X61867Y-44710D01*
X61867Y-45047D01*
X61811Y-45160D01*
X61754Y-45216D01*
X61642Y-45272D01*
X61473Y-45272D01*
X62542Y-45272D02*
X62429Y-45216D01*
X62373Y-45103D01*
X62373Y-44091D01*
X63442Y-45216D02*
X63329Y-45272D01*
X63104Y-45272D01*
X62992Y-45216D01*
X62935Y-45103D01*
X62935Y-44653D01*
X62992Y-44541D01*
X63104Y-44485D01*
X63329Y-44485D01*
X63442Y-44541D01*
X63498Y-44653D01*
X63498Y-44766D01*
X62935Y-44878D01*
X63948Y-45216D02*
X64060Y-45272D01*
X64285Y-45272D01*
X64398Y-45216D01*
X64454Y-45103D01*
X64454Y-45047D01*
X64398Y-44935D01*
X64285Y-44878D01*
X64116Y-44878D01*
X64004Y-44822D01*
X63948Y-44710D01*
X63948Y-44653D01*
X64004Y-44541D01*
X64116Y-44485D01*
X64285Y-44485D01*
X64398Y-44541D01*
X64848Y-45722D02*
X64904Y-45666D01*
X65016Y-45497D01*
X65073Y-45384D01*
X65129Y-45216D01*
X65185Y-44935D01*
X65185Y-44710D01*
X65129Y-44428D01*
X65073Y-44260D01*
X65016Y-44147D01*
X64904Y-43978D01*
X64848Y-43922D01*
X38976Y-45903D02*
X38976Y-46690D01*
X38582Y-46297D02*
X39370Y-46297D01*
X40382Y-45762D02*
X40438Y-45706D01*
X40551Y-45650D01*
X40832Y-45650D01*
X40944Y-45706D01*
X41001Y-45762D01*
X41057Y-45875D01*
X41057Y-45987D01*
X41001Y-46156D01*
X40326Y-46831D01*
X41057Y-46831D01*
X41563Y-46719D02*
X41619Y-46775D01*
X41563Y-46831D01*
X41507Y-46775D01*
X41563Y-46719D01*
X41563Y-46831D01*
X42350Y-45650D02*
X42463Y-45650D01*
X42575Y-45706D01*
X42632Y-45762D01*
X42688Y-45875D01*
X42744Y-46100D01*
X42744Y-46381D01*
X42688Y-46606D01*
X42632Y-46719D01*
X42575Y-46775D01*
X42463Y-46831D01*
X42350Y-46831D01*
X42238Y-46775D01*
X42182Y-46719D01*
X42125Y-46606D01*
X42069Y-46381D01*
X42069Y-46100D01*
X42125Y-45875D01*
X42182Y-45762D01*
X42238Y-45706D01*
X42350Y-45650D01*
X43475Y-45650D02*
X43588Y-45650D01*
X43700Y-45706D01*
X43757Y-45762D01*
X43813Y-45875D01*
X43869Y-46100D01*
X43869Y-46381D01*
X43813Y-46606D01*
X43757Y-46719D01*
X43700Y-46775D01*
X43588Y-46831D01*
X43475Y-46831D01*
X43363Y-46775D01*
X43307Y-46719D01*
X43250Y-46606D01*
X43194Y-46381D01*
X43194Y-46100D01*
X43250Y-45875D01*
X43307Y-45762D01*
X43363Y-45706D01*
X43475Y-45650D01*
X44375Y-46831D02*
X44375Y-46044D01*
X44375Y-46156D02*
X44431Y-46100D01*
X44544Y-46044D01*
X44713Y-46044D01*
X44825Y-46100D01*
X44881Y-46212D01*
X44881Y-46831D01*
X44881Y-46212D02*
X44938Y-46100D01*
X45050Y-46044D01*
X45219Y-46044D01*
X45331Y-46100D01*
X45388Y-46212D01*
X45388Y-46831D01*
X45950Y-46831D02*
X45950Y-46044D01*
X45950Y-46156D02*
X46006Y-46100D01*
X46119Y-46044D01*
X46287Y-46044D01*
X46400Y-46100D01*
X46456Y-46212D01*
X46456Y-46831D01*
X46456Y-46212D02*
X46512Y-46100D01*
X46625Y-46044D01*
X46794Y-46044D01*
X46906Y-46100D01*
X46962Y-46212D01*
X46962Y-46831D01*
X49268Y-45594D02*
X48256Y-47112D01*
X50787Y-45650D02*
X50899Y-45650D01*
X51012Y-45706D01*
X51068Y-45762D01*
X51124Y-45875D01*
X51181Y-46100D01*
X51181Y-46381D01*
X51124Y-46606D01*
X51068Y-46719D01*
X51012Y-46775D01*
X50899Y-46831D01*
X50787Y-46831D01*
X50674Y-46775D01*
X50618Y-46719D01*
X50562Y-46606D01*
X50506Y-46381D01*
X50506Y-46100D01*
X50562Y-45875D01*
X50618Y-45762D01*
X50674Y-45706D01*
X50787Y-45650D01*
X51687Y-46719D02*
X51743Y-46775D01*
X51687Y-46831D01*
X51631Y-46775D01*
X51687Y-46719D01*
X51687Y-46831D01*
X52474Y-45650D02*
X52587Y-45650D01*
X52699Y-45706D01*
X52755Y-45762D01*
X52812Y-45875D01*
X52868Y-46100D01*
X52868Y-46381D01*
X52812Y-46606D01*
X52755Y-46719D01*
X52699Y-46775D01*
X52587Y-46831D01*
X52474Y-46831D01*
X52362Y-46775D01*
X52305Y-46719D01*
X52249Y-46606D01*
X52193Y-46381D01*
X52193Y-46100D01*
X52249Y-45875D01*
X52305Y-45762D01*
X52362Y-45706D01*
X52474Y-45650D01*
X53262Y-45650D02*
X54049Y-45650D01*
X53543Y-46831D01*
X54555Y-46831D02*
X54780Y-46831D01*
X54893Y-46775D01*
X54949Y-46719D01*
X55061Y-46550D01*
X55118Y-46325D01*
X55118Y-45875D01*
X55061Y-45762D01*
X55005Y-45706D01*
X54893Y-45650D01*
X54668Y-45650D01*
X54555Y-45706D01*
X54499Y-45762D01*
X54443Y-45875D01*
X54443Y-46156D01*
X54499Y-46269D01*
X54555Y-46325D01*
X54668Y-46381D01*
X54893Y-46381D01*
X55005Y-46325D01*
X55061Y-46269D01*
X55118Y-46156D01*
X55568Y-45650D02*
X55568Y-45875D01*
X56017Y-45650D02*
X56017Y-45875D01*
X57761Y-47281D02*
X57705Y-47225D01*
X57592Y-47056D01*
X57536Y-46944D01*
X57480Y-46775D01*
X57424Y-46494D01*
X57424Y-46269D01*
X57480Y-45987D01*
X57536Y-45819D01*
X57592Y-45706D01*
X57705Y-45537D01*
X57761Y-45481D01*
X58155Y-45762D02*
X58211Y-45706D01*
X58323Y-45650D01*
X58605Y-45650D01*
X58717Y-45706D01*
X58773Y-45762D01*
X58830Y-45875D01*
X58830Y-45987D01*
X58773Y-46156D01*
X58098Y-46831D01*
X58830Y-46831D01*
X60236Y-46831D02*
X60236Y-45650D01*
X60742Y-46831D02*
X60742Y-46212D01*
X60686Y-46100D01*
X60573Y-46044D01*
X60404Y-46044D01*
X60292Y-46100D01*
X60236Y-46156D01*
X61473Y-46831D02*
X61361Y-46775D01*
X61304Y-46719D01*
X61248Y-46606D01*
X61248Y-46269D01*
X61304Y-46156D01*
X61361Y-46100D01*
X61473Y-46044D01*
X61642Y-46044D01*
X61754Y-46100D01*
X61811Y-46156D01*
X61867Y-46269D01*
X61867Y-46606D01*
X61811Y-46719D01*
X61754Y-46775D01*
X61642Y-46831D01*
X61473Y-46831D01*
X62542Y-46831D02*
X62429Y-46775D01*
X62373Y-46662D01*
X62373Y-45650D01*
X63442Y-46775D02*
X63329Y-46831D01*
X63104Y-46831D01*
X62992Y-46775D01*
X62935Y-46662D01*
X62935Y-46212D01*
X62992Y-46100D01*
X63104Y-46044D01*
X63329Y-46044D01*
X63442Y-46100D01*
X63498Y-46212D01*
X63498Y-46325D01*
X62935Y-46437D01*
X63948Y-46775D02*
X64060Y-46831D01*
X64285Y-46831D01*
X64398Y-46775D01*
X64454Y-46662D01*
X64454Y-46606D01*
X64398Y-46494D01*
X64285Y-46437D01*
X64116Y-46437D01*
X64004Y-46381D01*
X63948Y-46269D01*
X63948Y-46212D01*
X64004Y-46100D01*
X64116Y-46044D01*
X64285Y-46044D01*
X64398Y-46100D01*
X64848Y-47281D02*
X64904Y-47225D01*
X65016Y-47056D01*
X65073Y-46944D01*
X65129Y-46775D01*
X65185Y-46494D01*
X65185Y-46269D01*
X65129Y-45987D01*
X65073Y-45819D01*
X65016Y-45706D01*
X64904Y-45537D01*
X64848Y-45481D01*
M02*
