G04 (created by PCBNEW (2013-mar-13)-testing) date Thu 25 Jul 2013 04:06:27 PM ICT*
%MOIN*%
G04 Gerber Fmt 3.4, Leading zero omitted, Abs format*
%FSLAX34Y34*%
G01*
G70*
G90*
G04 APERTURE LIST*
%ADD10C,0.00393701*%
%ADD11C,0.00590551*%
%ADD12R,0.0314961X0.0590551*%
%ADD13R,0.0590551X0.0393701*%
%ADD14R,0.0255906X0.0334646*%
%ADD15R,0.0433X0.0393*%
%ADD16R,0.0393X0.0433*%
%ADD17R,0.0590551X0.141732*%
%ADD18R,0.0394X0.0315*%
%ADD19R,0.0118X0.0196*%
%ADD20R,0.0196X0.0118*%
%ADD21R,0.0590551X0.0590551*%
%ADD22R,0.0314961X0.0393701*%
%ADD23R,0.019685X0.019685*%
%ADD24R,0.05X0.05*%
%ADD25R,0.0217X0.0118*%
%ADD26R,0.0314961X0.011811*%
%ADD27R,0.011811X0.0314961*%
%ADD28R,0.011811X0.0315*%
%ADD29R,0.0393701X0.0393701*%
%ADD30R,0.023622X0.019685*%
%ADD31R,0.0511811X0.0354331*%
%ADD32R,0.0748031X0.0354331*%
%ADD33R,0.106299X0.0669291*%
%ADD34R,0.015748X0.0295276*%
%ADD35R,0.011811X0.0295276*%
%ADD36R,0.0787402X0.05*%
%ADD37R,0.0275591X0.019685*%
%ADD38R,0.019685X0.0275591*%
%ADD39R,0.0275591X0.0354331*%
%ADD40R,0.0511811X0.0551181*%
G04 APERTURE END LIST*
G54D10*
X39370Y-39370D02*
X39370Y-29527D01*
G54D11*
X53681Y-32066D02*
X53681Y-29527D01*
X59055Y-32066D02*
X53681Y-32066D01*
X53681Y-36830D02*
X53681Y-39370D01*
X59055Y-36830D02*
X53681Y-36830D01*
G54D10*
X59055Y-32066D02*
X59055Y-36830D01*
X53681Y-39370D02*
X39370Y-39370D01*
G54D12*
X50076Y-35708D03*
X50076Y-37677D03*
X50576Y-35708D03*
X51076Y-35708D03*
X51576Y-35708D03*
X50576Y-37677D03*
X51076Y-37677D03*
X51576Y-37677D03*
G54D13*
X51190Y-36417D03*
X50462Y-36417D03*
X50462Y-36958D03*
X51190Y-36958D03*
G54D14*
X46555Y-32007D03*
X47204Y-32007D03*
X46555Y-31397D03*
X47204Y-31397D03*
G54D15*
X50896Y-38661D03*
X51564Y-38661D03*
G54D16*
X49389Y-35630D03*
X49389Y-36298D03*
X49409Y-36910D03*
X49409Y-37578D03*
X51023Y-34979D03*
X51023Y-34311D03*
G54D15*
X48542Y-35905D03*
X47874Y-35905D03*
X48542Y-35374D03*
X47874Y-35374D03*
G54D17*
X48681Y-37125D03*
X47696Y-37125D03*
G54D16*
X53090Y-35786D03*
X53090Y-35118D03*
X52224Y-37756D03*
X52224Y-38424D03*
G54D18*
X53090Y-36712D03*
X52224Y-37087D03*
X52224Y-36337D03*
G54D15*
X47874Y-34724D03*
X48542Y-34724D03*
G54D19*
X44635Y-36111D03*
X44438Y-36111D03*
X44241Y-36111D03*
X44045Y-36111D03*
X43848Y-36111D03*
X43651Y-36111D03*
X43455Y-36111D03*
X43258Y-36111D03*
X43061Y-36111D03*
X42865Y-36111D03*
X42668Y-36111D03*
X42471Y-36111D03*
G54D20*
X42176Y-35816D03*
X42176Y-35619D03*
X42176Y-35422D03*
X42176Y-35226D03*
X42176Y-35029D03*
X42176Y-34832D03*
X42176Y-34636D03*
X42176Y-34439D03*
X42176Y-34242D03*
X42176Y-34046D03*
X42176Y-33849D03*
X42176Y-33652D03*
G54D19*
X42471Y-33357D03*
X42668Y-33357D03*
X42865Y-33357D03*
X43061Y-33357D03*
X43258Y-33357D03*
X43455Y-33357D03*
X43651Y-33357D03*
X43848Y-33357D03*
X44045Y-33357D03*
X44241Y-33357D03*
X44438Y-33357D03*
X44635Y-33357D03*
G54D20*
X44930Y-33652D03*
X44930Y-33849D03*
X44930Y-34046D03*
X44930Y-34242D03*
X44930Y-34439D03*
X44930Y-34636D03*
X44930Y-34832D03*
X44930Y-35029D03*
X44930Y-35226D03*
X44930Y-35422D03*
X44930Y-35619D03*
X44930Y-35816D03*
G54D21*
X44261Y-34025D03*
X44261Y-34734D03*
X44261Y-35442D03*
X43553Y-34025D03*
X43553Y-34734D03*
X43553Y-35442D03*
X42844Y-34025D03*
X42844Y-34734D03*
X42844Y-35442D03*
G54D16*
X47844Y-31358D03*
X47844Y-32026D03*
G54D22*
X45787Y-34527D03*
X46417Y-34527D03*
G54D23*
X52657Y-32027D03*
X52657Y-32381D03*
X53070Y-32027D03*
X53070Y-32381D03*
G54D24*
X47753Y-30275D03*
X46753Y-30275D03*
X45753Y-30275D03*
X48753Y-30275D03*
X44753Y-30275D03*
G54D25*
X45873Y-30984D03*
X45873Y-31181D03*
X45873Y-31378D03*
X45307Y-31378D03*
X45307Y-31181D03*
X45307Y-30984D03*
G54D26*
X49767Y-31643D03*
X49767Y-31840D03*
X49767Y-32037D03*
X49767Y-32234D03*
X49767Y-32431D03*
G54D27*
X50147Y-32811D03*
X50344Y-32811D03*
X50541Y-32811D03*
X50738Y-32811D03*
X50935Y-32811D03*
G54D26*
X51314Y-32431D03*
X51314Y-32234D03*
X51314Y-32037D03*
X51314Y-31840D03*
X51314Y-31643D03*
G54D28*
X50935Y-31263D03*
X50738Y-31263D03*
X50541Y-31263D03*
X50344Y-31263D03*
X50147Y-31263D03*
G54D29*
X50295Y-31791D03*
X50787Y-31791D03*
X50787Y-32283D03*
X50295Y-32283D03*
G54D30*
X44064Y-37549D03*
X44064Y-37155D03*
G54D31*
X47322Y-32834D03*
G54D32*
X47420Y-33425D03*
G54D31*
X47322Y-34016D03*
G54D33*
X48307Y-33425D03*
G54D34*
X43956Y-32332D03*
X43326Y-32332D03*
G54D35*
X43543Y-32332D03*
X43740Y-32332D03*
X43740Y-31250D03*
X43543Y-31250D03*
G54D34*
X43326Y-31250D03*
X43956Y-31250D03*
G54D36*
X39960Y-34448D03*
X39960Y-33444D03*
X39960Y-35452D03*
G54D37*
X52244Y-32431D03*
X52244Y-32037D03*
G54D38*
X50748Y-30629D03*
X50354Y-30629D03*
X45629Y-32086D03*
X45236Y-32086D03*
X43435Y-30049D03*
X43828Y-30049D03*
X45905Y-35078D03*
X46299Y-35078D03*
X41456Y-33838D03*
X41062Y-33838D03*
G54D37*
X42893Y-37145D03*
X42893Y-37539D03*
X44744Y-32303D03*
X44744Y-31909D03*
G54D38*
X42480Y-32244D03*
X42086Y-32244D03*
X46062Y-33976D03*
X46456Y-33976D03*
X41456Y-35098D03*
X41062Y-35098D03*
X45905Y-35511D03*
X46299Y-35511D03*
G54D37*
X44921Y-37155D03*
X44921Y-37549D03*
X44488Y-37155D03*
X44488Y-37549D03*
G54D38*
X42480Y-32637D03*
X42086Y-32637D03*
G54D37*
X42460Y-37145D03*
X42460Y-37539D03*
G54D39*
X40059Y-36181D03*
X40649Y-36181D03*
X40059Y-36830D03*
X40649Y-36830D03*
X45531Y-32834D03*
X46122Y-32834D03*
X51594Y-33661D03*
X52185Y-33661D03*
X43907Y-30570D03*
X43316Y-30570D03*
X42145Y-30570D03*
X42736Y-30570D03*
X42145Y-31200D03*
X42736Y-31200D03*
X40492Y-31771D03*
X39901Y-31771D03*
X49862Y-34311D03*
X50452Y-34311D03*
X52185Y-34389D03*
X51594Y-34389D03*
X52185Y-34980D03*
X51594Y-34980D03*
G54D40*
X49133Y-38612D03*
X50275Y-38612D03*
G54D39*
X39901Y-31102D03*
X40492Y-31102D03*
M02*
