M48
INCH,TZ
T1C0.012
T2C0.020
T3C0.079
%
G90
G05
T1
X39882Y-31122
X39882Y-31791
X39961Y-33858
X39961Y-35453
X40059Y-36516
X40492Y-31417
X40591Y-34449
X40669Y-36732
X41063Y-34449
X41102Y-36201
X41457Y-30531
X41555Y-32362
X42087Y-32126
X42146Y-30906
X42165Y-37126
X42480Y-32638
X42677Y-33878
X42677Y-34311
X42677Y-34744
X42677Y-35177
X42677Y-35610
X42697Y-37598
X42736Y-30709
X43110Y-33878
X43110Y-34311
X43110Y-34744
X43110Y-35177
X43110Y-35610
X43150Y-30039
X43465Y-31614
X43533Y-34734
X43533Y-35167
X43533Y-35600
X43543Y-33878
X43543Y-34311
X43543Y-34744
X43543Y-34744
X43543Y-34744
X43740Y-31811
X43967Y-35167
X43967Y-35600
X43976Y-33878
X43976Y-34311
X43976Y-34744
X44055Y-37795
X44400Y-35167
X44400Y-35600
X44409Y-33878
X44409Y-34311
X44409Y-34744
X44685Y-37549
X44724Y-30984
X44744Y-31496
X45197Y-30472
X45315Y-31693
X45630Y-31772
X45669Y-34055
X45748Y-36339
X45827Y-36693
X46024Y-31693
X46142Y-32047
X46181Y-30472
X46220Y-30984
X46299Y-35315
X46417Y-34528
X46457Y-33740
X46496Y-32874
X46555Y-31063
X47205Y-30984
X47323Y-34016
X47756Y-29882
X47835Y-32008
X47953Y-35630
X47992Y-33661
X48012Y-33209
X48366Y-33425
X48661Y-31654
X48661Y-32047
X48701Y-33209
X48720Y-33642
X49016Y-34882
X49094Y-31693
X49291Y-33622
X49409Y-33346
X49409Y-34882
X49843Y-31260
X50000Y-30394
X50118Y-34803
X50236Y-33386
X50354Y-30276
X50394Y-36398
X50394Y-36949
X50472Y-33583
X50748Y-30276
X50748Y-33720
X50827Y-36398
X50827Y-36949
X51063Y-33622
X51260Y-36398
X51260Y-36949
X51575Y-33268
X51811Y-32362
X51850Y-32008
X52165Y-35827
X52185Y-33346
X52244Y-32638
X52815Y-34291
X53071Y-34035
T2
X49439Y-37923
X51083Y-38150
X52224Y-37402
X53150Y-36280
T3
X41142Y-38386
X51811Y-30512
T0
M30
