G04 (created by PCBNEW (2013-mar-13)-testing) date Thu 09 May 2013 11:15:00 PM ICT*
%MOIN*%
G04 Gerber Fmt 3.4, Leading zero omitted, Abs format*
%FSLAX34Y34*%
G01*
G70*
G90*
G04 APERTURE LIST*
%ADD10C,0.00393701*%
%ADD11C,0.005*%
%ADD12C,0.004*%
%ADD13C,0.008*%
%ADD14C,0.01*%
G04 APERTURE END LIST*
G54D10*
G54D11*
X68639Y-50287D02*
X67459Y-50287D01*
X67459Y-50287D02*
X67459Y-51467D01*
X67459Y-51467D02*
X68639Y-51467D01*
X68639Y-51467D02*
X68639Y-50287D01*
G54D12*
X55884Y-52518D02*
X52500Y-52518D01*
X52185Y-48504D02*
X56199Y-48504D01*
X53227Y-52203D02*
G75*
G02X54527Y-48592I965J1691D01*
G74*
G01*
X54536Y-48504D02*
X56199Y-48504D01*
X56199Y-48504D02*
X56199Y-52203D01*
X56199Y-52203D02*
X55884Y-52518D01*
X52500Y-52518D02*
X52185Y-52203D01*
X52185Y-52203D02*
X52185Y-48504D01*
X52185Y-48504D02*
X53858Y-48504D01*
X55157Y-48819D02*
G75*
G02X53861Y-52431I-965J-1691D01*
G74*
G01*
X53080Y-48917D02*
X55294Y-48917D01*
X56140Y-50511D02*
G75*
G03X56140Y-50511I-1948J0D01*
G74*
G01*
G54D13*
X63215Y-41435D02*
X63215Y-45491D01*
X63234Y-45472D02*
X59178Y-45472D01*
X59122Y-45494D02*
X59122Y-41386D01*
X59168Y-41418D02*
X63198Y-41418D01*
X62094Y-43445D02*
G75*
G03X62094Y-43445I-1299J0D01*
G74*
G01*
G54D11*
X60807Y-45796D02*
X60807Y-48158D01*
X60807Y-48158D02*
X62775Y-48158D01*
X62775Y-48158D02*
X62775Y-45796D01*
X62775Y-45796D02*
X60807Y-45796D01*
G54D14*
X55019Y-42401D02*
X55019Y-47755D01*
X55019Y-47755D02*
X52382Y-47755D01*
X51949Y-47755D02*
X51319Y-47755D01*
X51319Y-47755D02*
X51319Y-42401D01*
X51319Y-42401D02*
X55019Y-42401D01*
X51950Y-47755D02*
G75*
G02X52382Y-47755I216J0D01*
G74*
G01*
M02*
