G04 (created by PCBNEW (2013-mar-13)-testing) date Thu 09 May 2013 10:07:49 PM ICT*
%MOIN*%
G04 Gerber Fmt 3.4, Leading zero omitted, Abs format*
%FSLAX34Y34*%
G01*
G70*
G90*
G04 APERTURE LIST*
%ADD10C,0.00393701*%
%ADD11C,0.002*%
G04 APERTURE END LIST*
G54D10*
G54D11*
X67708Y-51916D02*
X68866Y-51916D01*
X68866Y-51916D02*
X68866Y-52690D01*
X68866Y-52690D02*
X67708Y-52690D01*
X67708Y-52690D02*
X67708Y-51916D01*
X69516Y-49461D02*
X68358Y-49461D01*
X68358Y-49461D02*
X68358Y-48687D01*
X68358Y-48687D02*
X69516Y-48687D01*
X69516Y-48687D02*
X69516Y-49461D01*
X69516Y-48851D02*
X68358Y-48851D01*
X68358Y-48851D02*
X68358Y-48077D01*
X68358Y-48077D02*
X69516Y-48077D01*
X69516Y-48077D02*
X69516Y-48851D01*
X69225Y-51551D02*
X69225Y-49999D01*
X69225Y-49999D02*
X69999Y-49999D01*
X69999Y-49999D02*
X69999Y-51551D01*
X69999Y-51551D02*
X69225Y-51551D01*
G54D10*
X68403Y-50523D02*
X67695Y-50523D01*
X67695Y-50523D02*
X67695Y-51231D01*
X67695Y-51231D02*
X68403Y-51231D01*
X68403Y-51231D02*
X68403Y-50523D01*
G54D11*
X66763Y-48786D02*
X68315Y-48786D01*
X68315Y-49560D02*
X66763Y-49560D01*
X66763Y-49560D02*
X66763Y-48786D01*
X68315Y-48786D02*
X68315Y-49560D01*
X67650Y-51783D02*
X67650Y-52941D01*
X67650Y-52941D02*
X66876Y-52941D01*
X66876Y-52941D02*
X66876Y-51783D01*
X66876Y-51783D02*
X67650Y-51783D01*
G54D10*
X60689Y-46948D02*
X61319Y-46948D01*
X61319Y-46948D02*
X61319Y-45944D01*
X61319Y-45944D02*
X60689Y-45944D01*
X60689Y-45944D02*
X60689Y-46121D01*
X60689Y-46121D02*
X60925Y-46121D01*
X60925Y-46121D02*
X60925Y-46357D01*
X60925Y-46357D02*
X60689Y-46357D01*
X60689Y-46357D02*
X60689Y-46535D01*
X60689Y-46535D02*
X60925Y-46535D01*
X60925Y-46535D02*
X60925Y-46771D01*
X60925Y-46771D02*
X60689Y-46771D01*
X60689Y-46771D02*
X60689Y-46948D01*
X62903Y-46948D02*
X62489Y-46948D01*
X62489Y-46948D02*
X62489Y-45944D01*
X62489Y-45944D02*
X62903Y-45944D01*
X62903Y-45944D02*
X62903Y-46121D01*
X62903Y-46121D02*
X62666Y-46121D01*
X62666Y-46121D02*
X62666Y-46357D01*
X62666Y-46357D02*
X62903Y-46357D01*
X62903Y-46357D02*
X62903Y-46535D01*
X62903Y-46535D02*
X62666Y-46535D01*
X62666Y-46535D02*
X62666Y-46771D01*
X62666Y-46771D02*
X62903Y-46771D01*
X62903Y-46771D02*
X62903Y-46781D01*
X62903Y-46781D02*
X62903Y-46948D01*
X62302Y-47872D02*
X62302Y-47262D01*
X62302Y-47262D02*
X61240Y-47262D01*
X61240Y-47262D02*
X61240Y-47793D01*
X61240Y-47793D02*
X61319Y-47872D01*
X61319Y-47872D02*
X62302Y-47872D01*
X61457Y-47085D02*
X62302Y-47085D01*
X62302Y-47085D02*
X62302Y-45668D01*
X62302Y-45668D02*
X62125Y-45668D01*
X62125Y-45668D02*
X62125Y-45944D01*
X62125Y-45944D02*
X61968Y-45944D01*
X61968Y-45944D02*
X61968Y-45668D01*
X61968Y-45668D02*
X61791Y-45668D01*
X61791Y-45668D02*
X61791Y-45944D01*
X61791Y-45944D02*
X61634Y-45944D01*
X61634Y-45944D02*
X61634Y-45668D01*
X61634Y-45668D02*
X61457Y-45668D01*
X61457Y-45668D02*
X61457Y-47085D01*
G54D11*
X55582Y-47703D02*
X56740Y-47703D01*
X56740Y-47703D02*
X56740Y-48477D01*
X56740Y-48477D02*
X55582Y-48477D01*
X55582Y-48477D02*
X55582Y-47703D01*
X63183Y-47300D02*
X63183Y-46142D01*
X63183Y-46142D02*
X63957Y-46142D01*
X63957Y-46142D02*
X63957Y-47300D01*
X63957Y-47300D02*
X63183Y-47300D01*
X60944Y-49257D02*
X59786Y-49257D01*
X59786Y-49257D02*
X59786Y-48483D01*
X59786Y-48483D02*
X60944Y-48483D01*
X60944Y-48483D02*
X60944Y-49257D01*
X61326Y-48531D02*
X62484Y-48531D01*
X62484Y-48531D02*
X62484Y-49305D01*
X62484Y-49305D02*
X61326Y-49305D01*
X61326Y-49305D02*
X61326Y-48531D01*
X59712Y-49257D02*
X58554Y-49257D01*
X58554Y-49257D02*
X58554Y-48483D01*
X58554Y-48483D02*
X59712Y-48483D01*
X59712Y-48483D02*
X59712Y-49257D01*
X59433Y-50084D02*
X58275Y-50084D01*
X58275Y-50084D02*
X58275Y-49310D01*
X58275Y-49310D02*
X59433Y-49310D01*
X59433Y-49310D02*
X59433Y-50084D01*
X63175Y-48508D02*
X63175Y-47350D01*
X63175Y-47350D02*
X63949Y-47350D01*
X63949Y-47350D02*
X63949Y-48508D01*
X63949Y-48508D02*
X63175Y-48508D01*
X56937Y-47847D02*
X55385Y-47847D01*
X55385Y-47073D02*
X56937Y-47073D01*
X56937Y-47073D02*
X56937Y-47847D01*
X55385Y-47847D02*
X55385Y-47073D01*
X56937Y-47119D02*
X55385Y-47119D01*
X55385Y-46345D02*
X56937Y-46345D01*
X56937Y-46345D02*
X56937Y-47119D01*
X55385Y-47119D02*
X55385Y-46345D01*
X56916Y-47153D02*
X56916Y-45601D01*
X57690Y-45601D02*
X57690Y-47153D01*
X57690Y-47153D02*
X56916Y-47153D01*
X56916Y-45601D02*
X57690Y-45601D01*
X57742Y-47153D02*
X57742Y-45601D01*
X58516Y-45601D02*
X58516Y-47153D01*
X58516Y-47153D02*
X57742Y-47153D01*
X57742Y-45601D02*
X58516Y-45601D01*
X58569Y-47153D02*
X58569Y-45601D01*
X59343Y-45601D02*
X59343Y-47153D01*
X59343Y-47153D02*
X58569Y-47153D01*
X58569Y-45601D02*
X59343Y-45601D01*
X59278Y-46956D02*
X59278Y-45798D01*
X59278Y-45798D02*
X60052Y-45798D01*
X60052Y-45798D02*
X60052Y-46956D01*
X60052Y-46956D02*
X59278Y-46956D01*
X60409Y-48344D02*
X59251Y-48344D01*
X59251Y-48344D02*
X59251Y-47570D01*
X59251Y-47570D02*
X60409Y-47570D01*
X60409Y-47570D02*
X60409Y-48344D01*
X57099Y-42373D02*
X57099Y-43531D01*
X57099Y-43531D02*
X56325Y-43531D01*
X56325Y-43531D02*
X56325Y-42373D01*
X56325Y-42373D02*
X57099Y-42373D01*
X58772Y-41861D02*
X58772Y-43807D01*
X57998Y-43807D02*
X57998Y-41861D01*
X57998Y-41861D02*
X58772Y-41861D01*
X58772Y-43807D02*
X57998Y-43807D01*
X57906Y-41861D02*
X57906Y-43807D01*
X57132Y-43807D02*
X57132Y-41861D01*
X57132Y-41861D02*
X57906Y-41861D01*
X57906Y-43807D02*
X57132Y-43807D01*
X64343Y-41881D02*
X64343Y-43827D01*
X63569Y-43827D02*
X63569Y-41881D01*
X63569Y-41881D02*
X64343Y-41881D01*
X64343Y-43827D02*
X63569Y-43827D01*
X65268Y-41881D02*
X65268Y-43827D01*
X64494Y-43827D02*
X64494Y-41881D01*
X64494Y-41881D02*
X65268Y-41881D01*
X65268Y-43827D02*
X64494Y-43827D01*
X64138Y-48984D02*
X64138Y-50142D01*
X64138Y-50142D02*
X63364Y-50142D01*
X63364Y-50142D02*
X63364Y-48984D01*
X63364Y-48984D02*
X64138Y-48984D01*
X64986Y-50115D02*
X64986Y-48957D01*
X64986Y-48957D02*
X65760Y-48957D01*
X65760Y-48957D02*
X65760Y-50115D01*
X65760Y-50115D02*
X64986Y-50115D01*
X65524Y-47570D02*
X65524Y-48728D01*
X65524Y-48728D02*
X64750Y-48728D01*
X64750Y-48728D02*
X64750Y-47570D01*
X64750Y-47570D02*
X65524Y-47570D01*
X61649Y-50903D02*
X60491Y-50903D01*
X60491Y-50903D02*
X60491Y-50129D01*
X60491Y-50129D02*
X61649Y-50129D01*
X61649Y-50129D02*
X61649Y-50903D01*
X61353Y-49357D02*
X62511Y-49357D01*
X62511Y-49357D02*
X62511Y-50131D01*
X62511Y-50131D02*
X61353Y-50131D01*
X61353Y-50131D02*
X61353Y-49357D01*
X61307Y-50084D02*
X60149Y-50084D01*
X60149Y-50084D02*
X60149Y-49310D01*
X60149Y-49310D02*
X61307Y-49310D01*
X61307Y-49310D02*
X61307Y-50084D01*
X64957Y-48953D02*
X64957Y-50111D01*
X64957Y-50111D02*
X64183Y-50111D01*
X64183Y-50111D02*
X64183Y-48953D01*
X64183Y-48953D02*
X64957Y-48953D01*
X64800Y-47555D02*
X64800Y-48713D01*
X64800Y-48713D02*
X64026Y-48713D01*
X64026Y-48713D02*
X64026Y-47555D01*
X64026Y-47555D02*
X64800Y-47555D01*
X62553Y-49701D02*
X62553Y-48543D01*
X62553Y-48543D02*
X63327Y-48543D01*
X63327Y-48543D02*
X63327Y-49701D01*
X63327Y-49701D02*
X62553Y-49701D01*
X66763Y-47979D02*
X68315Y-47979D01*
X68315Y-48753D02*
X66763Y-48753D01*
X66763Y-48753D02*
X66763Y-47979D01*
X68315Y-47979D02*
X68315Y-48753D01*
M02*
