G04 (created by PCBNEW (2013-mar-13)-testing) date Thu 09 May 2013 11:15:00 PM ICT*
%MOIN*%
G04 Gerber Fmt 3.4, Leading zero omitted, Abs format*
%FSLAX34Y34*%
G01*
G70*
G90*
G04 APERTURE LIST*
%ADD10C,0.00393701*%
%ADD11O,0.0826X0.0826*%
%ADD12R,0.019685X0.019685*%
%ADD13C,0.023622*%
%ADD14C,0.019685*%
%ADD15C,0.035*%
%ADD16C,0.011811*%
%ADD17C,0.01*%
%ADD18C,0.00787402*%
G04 APERTURE END LIST*
G54D10*
G54D11*
X52422Y-46731D03*
X52422Y-45078D03*
X52422Y-43425D03*
X54074Y-43425D03*
X54074Y-45078D03*
X54074Y-46731D03*
G54D12*
X61791Y-47312D03*
X61791Y-47116D03*
G54D13*
X68208Y-51850D03*
X66574Y-51850D03*
X63129Y-47637D03*
X61122Y-46751D03*
G54D14*
X61791Y-47401D03*
X61771Y-47716D03*
X62106Y-47401D03*
X61417Y-47401D03*
X62106Y-47716D03*
X61397Y-47716D03*
G54D13*
X62933Y-50334D03*
X61397Y-50137D03*
X61633Y-49251D03*
X59547Y-49155D03*
G54D14*
X68228Y-51043D03*
G54D13*
X70019Y-52086D03*
X69625Y-52086D03*
X69232Y-52086D03*
G54D15*
X64320Y-46663D03*
X64330Y-45492D03*
X64330Y-45885D03*
X64330Y-46279D03*
G54D13*
X68444Y-47834D03*
X69625Y-47834D03*
X69232Y-47834D03*
X68838Y-47834D03*
G54D14*
X67066Y-50314D03*
X66791Y-50307D03*
X67874Y-51043D03*
X68228Y-50708D03*
X67874Y-50708D03*
G54D16*
X68208Y-51850D02*
X66574Y-51850D01*
X62244Y-46751D02*
X61122Y-46751D01*
X63129Y-47637D02*
X62244Y-46751D01*
X61771Y-47539D02*
X61771Y-47716D01*
X61771Y-47539D02*
X61968Y-47539D01*
X61417Y-47401D02*
X61555Y-47539D01*
X61771Y-47539D02*
X61555Y-47539D01*
X61968Y-47539D02*
X62106Y-47716D01*
X61397Y-50137D02*
X62736Y-50137D01*
X62736Y-50137D02*
X62933Y-50334D01*
X61633Y-49901D02*
X61633Y-49251D01*
X61397Y-50137D02*
X61633Y-49901D01*
X61636Y-49254D02*
X61638Y-49254D01*
X61633Y-49251D02*
X61636Y-49254D01*
X59547Y-49155D02*
X59547Y-49153D01*
X68228Y-51043D02*
X68228Y-51082D01*
X69645Y-52066D02*
X70019Y-52086D01*
X69625Y-52086D02*
X69645Y-52066D01*
X68228Y-51082D02*
X69232Y-52086D01*
G54D17*
X64330Y-45492D02*
X64330Y-45885D01*
X64330Y-46653D02*
X64330Y-46279D01*
X64330Y-46653D02*
X64320Y-46663D01*
G54D16*
X68838Y-47834D02*
X69232Y-47834D01*
X66791Y-50307D02*
X66791Y-50314D01*
G54D10*
G36*
X70748Y-53031D02*
X68444Y-53031D01*
X68444Y-51803D01*
X68409Y-51716D01*
X68342Y-51650D01*
X68255Y-51614D01*
X68161Y-51614D01*
X68075Y-51650D01*
X68051Y-51673D01*
X66731Y-51673D01*
X66708Y-51650D01*
X66621Y-51614D01*
X66528Y-51614D01*
X66441Y-51650D01*
X66374Y-51716D01*
X66338Y-51803D01*
X66338Y-51897D01*
X66374Y-51984D01*
X66440Y-52050D01*
X66527Y-52086D01*
X66621Y-52086D01*
X66708Y-52050D01*
X66731Y-52027D01*
X68051Y-52027D01*
X68074Y-52050D01*
X68161Y-52086D01*
X68255Y-52086D01*
X68342Y-52050D01*
X68408Y-51984D01*
X68444Y-51897D01*
X68444Y-51803D01*
X68444Y-53031D01*
X65688Y-53031D01*
X65688Y-50570D01*
X65688Y-47165D01*
X62908Y-47165D01*
X62369Y-46626D01*
X62311Y-46588D01*
X62244Y-46574D01*
X61278Y-46574D01*
X61256Y-46551D01*
X61169Y-46515D01*
X61075Y-46515D01*
X60988Y-46551D01*
X60921Y-46617D01*
X60885Y-46704D01*
X60885Y-46798D01*
X60921Y-46885D01*
X60988Y-46952D01*
X61074Y-46988D01*
X61168Y-46988D01*
X61255Y-46952D01*
X61278Y-46929D01*
X62170Y-46929D01*
X62406Y-47165D01*
X61997Y-47165D01*
X61989Y-47147D01*
X61956Y-47114D01*
X61913Y-47096D01*
X61866Y-47096D01*
X61669Y-47096D01*
X61626Y-47114D01*
X61592Y-47147D01*
X61585Y-47165D01*
X59944Y-47165D01*
X58740Y-48389D01*
X58740Y-50452D01*
X58740Y-50570D01*
X62932Y-50570D01*
X62979Y-50570D01*
X62979Y-50570D01*
X65688Y-50570D01*
X65688Y-53031D01*
X54706Y-53031D01*
X54706Y-46893D01*
X54706Y-46570D01*
X54706Y-45240D01*
X54706Y-44917D01*
X54706Y-43587D01*
X54706Y-43264D01*
X54596Y-43034D01*
X54406Y-42864D01*
X54235Y-42793D01*
X54134Y-42836D01*
X54134Y-43365D01*
X54663Y-43365D01*
X54706Y-43264D01*
X54706Y-43587D01*
X54663Y-43486D01*
X54134Y-43486D01*
X54134Y-44015D01*
X54235Y-44057D01*
X54406Y-43986D01*
X54596Y-43816D01*
X54706Y-43587D01*
X54706Y-44917D01*
X54596Y-44687D01*
X54406Y-44517D01*
X54235Y-44446D01*
X54134Y-44489D01*
X54134Y-45018D01*
X54663Y-45018D01*
X54706Y-44917D01*
X54706Y-45240D01*
X54663Y-45139D01*
X54134Y-45139D01*
X54134Y-45668D01*
X54235Y-45710D01*
X54406Y-45639D01*
X54596Y-45469D01*
X54706Y-45240D01*
X54706Y-46570D01*
X54596Y-46340D01*
X54406Y-46170D01*
X54235Y-46099D01*
X54134Y-46142D01*
X54134Y-46671D01*
X54663Y-46671D01*
X54706Y-46570D01*
X54706Y-46893D01*
X54663Y-46792D01*
X54134Y-46792D01*
X54134Y-47321D01*
X54235Y-47363D01*
X54406Y-47292D01*
X54596Y-47122D01*
X54706Y-46893D01*
X54706Y-53031D01*
X54013Y-53031D01*
X54013Y-47321D01*
X54013Y-46792D01*
X54013Y-46671D01*
X54013Y-46142D01*
X54013Y-45668D01*
X54013Y-45139D01*
X54013Y-45018D01*
X54013Y-44489D01*
X54013Y-44015D01*
X54013Y-43486D01*
X54013Y-43365D01*
X54013Y-42836D01*
X53912Y-42793D01*
X53741Y-42864D01*
X53551Y-43034D01*
X53441Y-43264D01*
X53484Y-43365D01*
X54013Y-43365D01*
X54013Y-43486D01*
X53484Y-43486D01*
X53441Y-43587D01*
X53551Y-43816D01*
X53741Y-43986D01*
X53912Y-44057D01*
X54013Y-44015D01*
X54013Y-44489D01*
X53912Y-44446D01*
X53741Y-44517D01*
X53551Y-44687D01*
X53441Y-44917D01*
X53484Y-45018D01*
X54013Y-45018D01*
X54013Y-45139D01*
X53484Y-45139D01*
X53441Y-45240D01*
X53551Y-45469D01*
X53741Y-45639D01*
X53912Y-45710D01*
X54013Y-45668D01*
X54013Y-46142D01*
X53912Y-46099D01*
X53741Y-46170D01*
X53551Y-46340D01*
X53441Y-46570D01*
X53484Y-46671D01*
X54013Y-46671D01*
X54013Y-46792D01*
X53484Y-46792D01*
X53441Y-46893D01*
X53551Y-47122D01*
X53741Y-47292D01*
X53912Y-47363D01*
X54013Y-47321D01*
X54013Y-53031D01*
X52953Y-53031D01*
X52953Y-46742D01*
X52953Y-46721D01*
X52953Y-45089D01*
X52953Y-45068D01*
X52953Y-43436D01*
X52953Y-43415D01*
X52912Y-43212D01*
X52797Y-43039D01*
X52625Y-42924D01*
X52422Y-42884D01*
X52218Y-42924D01*
X52046Y-43039D01*
X51931Y-43212D01*
X51890Y-43415D01*
X51890Y-43436D01*
X51931Y-43639D01*
X52046Y-43811D01*
X52218Y-43926D01*
X52422Y-43967D01*
X52625Y-43926D01*
X52797Y-43811D01*
X52912Y-43639D01*
X52953Y-43436D01*
X52953Y-45068D01*
X52912Y-44865D01*
X52797Y-44692D01*
X52625Y-44577D01*
X52422Y-44537D01*
X52218Y-44577D01*
X52046Y-44692D01*
X51931Y-44865D01*
X51890Y-45068D01*
X51890Y-45089D01*
X51931Y-45292D01*
X52046Y-45464D01*
X52218Y-45579D01*
X52422Y-45620D01*
X52625Y-45579D01*
X52797Y-45464D01*
X52912Y-45292D01*
X52953Y-45089D01*
X52953Y-46721D01*
X52912Y-46518D01*
X52797Y-46345D01*
X52625Y-46230D01*
X52422Y-46190D01*
X52218Y-46230D01*
X52046Y-46345D01*
X51931Y-46518D01*
X51890Y-46721D01*
X51890Y-46742D01*
X51931Y-46945D01*
X52046Y-47117D01*
X52218Y-47232D01*
X52422Y-47273D01*
X52625Y-47232D01*
X52797Y-47117D01*
X52912Y-46945D01*
X52953Y-46742D01*
X52953Y-53031D01*
X51299Y-53031D01*
X51299Y-33582D01*
X70748Y-33582D01*
X70748Y-53031D01*
X70748Y-53031D01*
G37*
G54D18*
X70748Y-53031D02*
X68444Y-53031D01*
X68444Y-51803D01*
X68409Y-51716D01*
X68342Y-51650D01*
X68255Y-51614D01*
X68161Y-51614D01*
X68075Y-51650D01*
X68051Y-51673D01*
X66731Y-51673D01*
X66708Y-51650D01*
X66621Y-51614D01*
X66528Y-51614D01*
X66441Y-51650D01*
X66374Y-51716D01*
X66338Y-51803D01*
X66338Y-51897D01*
X66374Y-51984D01*
X66440Y-52050D01*
X66527Y-52086D01*
X66621Y-52086D01*
X66708Y-52050D01*
X66731Y-52027D01*
X68051Y-52027D01*
X68074Y-52050D01*
X68161Y-52086D01*
X68255Y-52086D01*
X68342Y-52050D01*
X68408Y-51984D01*
X68444Y-51897D01*
X68444Y-51803D01*
X68444Y-53031D01*
X65688Y-53031D01*
X65688Y-50570D01*
X65688Y-47165D01*
X62908Y-47165D01*
X62369Y-46626D01*
X62311Y-46588D01*
X62244Y-46574D01*
X61278Y-46574D01*
X61256Y-46551D01*
X61169Y-46515D01*
X61075Y-46515D01*
X60988Y-46551D01*
X60921Y-46617D01*
X60885Y-46704D01*
X60885Y-46798D01*
X60921Y-46885D01*
X60988Y-46952D01*
X61074Y-46988D01*
X61168Y-46988D01*
X61255Y-46952D01*
X61278Y-46929D01*
X62170Y-46929D01*
X62406Y-47165D01*
X61997Y-47165D01*
X61989Y-47147D01*
X61956Y-47114D01*
X61913Y-47096D01*
X61866Y-47096D01*
X61669Y-47096D01*
X61626Y-47114D01*
X61592Y-47147D01*
X61585Y-47165D01*
X59944Y-47165D01*
X58740Y-48389D01*
X58740Y-50452D01*
X58740Y-50570D01*
X62932Y-50570D01*
X62979Y-50570D01*
X62979Y-50570D01*
X65688Y-50570D01*
X65688Y-53031D01*
X54706Y-53031D01*
X54706Y-46893D01*
X54706Y-46570D01*
X54706Y-45240D01*
X54706Y-44917D01*
X54706Y-43587D01*
X54706Y-43264D01*
X54596Y-43034D01*
X54406Y-42864D01*
X54235Y-42793D01*
X54134Y-42836D01*
X54134Y-43365D01*
X54663Y-43365D01*
X54706Y-43264D01*
X54706Y-43587D01*
X54663Y-43486D01*
X54134Y-43486D01*
X54134Y-44015D01*
X54235Y-44057D01*
X54406Y-43986D01*
X54596Y-43816D01*
X54706Y-43587D01*
X54706Y-44917D01*
X54596Y-44687D01*
X54406Y-44517D01*
X54235Y-44446D01*
X54134Y-44489D01*
X54134Y-45018D01*
X54663Y-45018D01*
X54706Y-44917D01*
X54706Y-45240D01*
X54663Y-45139D01*
X54134Y-45139D01*
X54134Y-45668D01*
X54235Y-45710D01*
X54406Y-45639D01*
X54596Y-45469D01*
X54706Y-45240D01*
X54706Y-46570D01*
X54596Y-46340D01*
X54406Y-46170D01*
X54235Y-46099D01*
X54134Y-46142D01*
X54134Y-46671D01*
X54663Y-46671D01*
X54706Y-46570D01*
X54706Y-46893D01*
X54663Y-46792D01*
X54134Y-46792D01*
X54134Y-47321D01*
X54235Y-47363D01*
X54406Y-47292D01*
X54596Y-47122D01*
X54706Y-46893D01*
X54706Y-53031D01*
X54013Y-53031D01*
X54013Y-47321D01*
X54013Y-46792D01*
X54013Y-46671D01*
X54013Y-46142D01*
X54013Y-45668D01*
X54013Y-45139D01*
X54013Y-45018D01*
X54013Y-44489D01*
X54013Y-44015D01*
X54013Y-43486D01*
X54013Y-43365D01*
X54013Y-42836D01*
X53912Y-42793D01*
X53741Y-42864D01*
X53551Y-43034D01*
X53441Y-43264D01*
X53484Y-43365D01*
X54013Y-43365D01*
X54013Y-43486D01*
X53484Y-43486D01*
X53441Y-43587D01*
X53551Y-43816D01*
X53741Y-43986D01*
X53912Y-44057D01*
X54013Y-44015D01*
X54013Y-44489D01*
X53912Y-44446D01*
X53741Y-44517D01*
X53551Y-44687D01*
X53441Y-44917D01*
X53484Y-45018D01*
X54013Y-45018D01*
X54013Y-45139D01*
X53484Y-45139D01*
X53441Y-45240D01*
X53551Y-45469D01*
X53741Y-45639D01*
X53912Y-45710D01*
X54013Y-45668D01*
X54013Y-46142D01*
X53912Y-46099D01*
X53741Y-46170D01*
X53551Y-46340D01*
X53441Y-46570D01*
X53484Y-46671D01*
X54013Y-46671D01*
X54013Y-46792D01*
X53484Y-46792D01*
X53441Y-46893D01*
X53551Y-47122D01*
X53741Y-47292D01*
X53912Y-47363D01*
X54013Y-47321D01*
X54013Y-53031D01*
X52953Y-53031D01*
X52953Y-46742D01*
X52953Y-46721D01*
X52953Y-45089D01*
X52953Y-45068D01*
X52953Y-43436D01*
X52953Y-43415D01*
X52912Y-43212D01*
X52797Y-43039D01*
X52625Y-42924D01*
X52422Y-42884D01*
X52218Y-42924D01*
X52046Y-43039D01*
X51931Y-43212D01*
X51890Y-43415D01*
X51890Y-43436D01*
X51931Y-43639D01*
X52046Y-43811D01*
X52218Y-43926D01*
X52422Y-43967D01*
X52625Y-43926D01*
X52797Y-43811D01*
X52912Y-43639D01*
X52953Y-43436D01*
X52953Y-45068D01*
X52912Y-44865D01*
X52797Y-44692D01*
X52625Y-44577D01*
X52422Y-44537D01*
X52218Y-44577D01*
X52046Y-44692D01*
X51931Y-44865D01*
X51890Y-45068D01*
X51890Y-45089D01*
X51931Y-45292D01*
X52046Y-45464D01*
X52218Y-45579D01*
X52422Y-45620D01*
X52625Y-45579D01*
X52797Y-45464D01*
X52912Y-45292D01*
X52953Y-45089D01*
X52953Y-46721D01*
X52912Y-46518D01*
X52797Y-46345D01*
X52625Y-46230D01*
X52422Y-46190D01*
X52218Y-46230D01*
X52046Y-46345D01*
X51931Y-46518D01*
X51890Y-46721D01*
X51890Y-46742D01*
X51931Y-46945D01*
X52046Y-47117D01*
X52218Y-47232D01*
X52422Y-47273D01*
X52625Y-47232D01*
X52797Y-47117D01*
X52912Y-46945D01*
X52953Y-46742D01*
X52953Y-53031D01*
X51299Y-53031D01*
X51299Y-33582D01*
X70748Y-33582D01*
X70748Y-53031D01*
G54D10*
G36*
X65531Y-50413D02*
X58897Y-50413D01*
X58897Y-48402D01*
X59996Y-47322D01*
X61645Y-47322D01*
X61669Y-47332D01*
X61716Y-47332D01*
X61913Y-47332D01*
X61937Y-47322D01*
X62564Y-47322D01*
X62893Y-47652D01*
X62893Y-47684D01*
X62929Y-47771D01*
X62995Y-47837D01*
X63082Y-47873D01*
X63176Y-47874D01*
X63263Y-47838D01*
X63330Y-47771D01*
X63366Y-47684D01*
X63366Y-47591D01*
X63330Y-47504D01*
X63263Y-47437D01*
X63177Y-47401D01*
X63144Y-47401D01*
X63065Y-47322D01*
X65531Y-47322D01*
X65531Y-50413D01*
X65531Y-50413D01*
G37*
G54D18*
X65531Y-50413D02*
X58897Y-50413D01*
X58897Y-48402D01*
X59996Y-47322D01*
X61645Y-47322D01*
X61669Y-47332D01*
X61716Y-47332D01*
X61913Y-47332D01*
X61937Y-47322D01*
X62564Y-47322D01*
X62893Y-47652D01*
X62893Y-47684D01*
X62929Y-47771D01*
X62995Y-47837D01*
X63082Y-47873D01*
X63176Y-47874D01*
X63263Y-47838D01*
X63330Y-47771D01*
X63366Y-47684D01*
X63366Y-47591D01*
X63330Y-47504D01*
X63263Y-47437D01*
X63177Y-47401D01*
X63144Y-47401D01*
X63065Y-47322D01*
X65531Y-47322D01*
X65531Y-50413D01*
M02*
