G04 (created by PCBNEW (2013-mar-13)-testing) date Tue 25 Jun 2013 12:04:49 AM ICT*
%MOIN*%
G04 Gerber Fmt 3.4, Leading zero omitted, Abs format*
%FSLAX34Y34*%
G01*
G70*
G90*
G04 APERTURE LIST*
%ADD10C,0.00393701*%
%ADD11C,0.002*%
G04 APERTURE END LIST*
G54D10*
X38779Y-61023D02*
X78149Y-61023D01*
X78149Y-61023D02*
X78149Y-21653D01*
X78149Y-21653D02*
X38779Y-21653D01*
X38779Y-21653D02*
X38779Y-61023D01*
G54D11*
X53476Y-35597D02*
X54634Y-35597D01*
X54634Y-35597D02*
X54634Y-36371D01*
X54634Y-36371D02*
X53476Y-36371D01*
X53476Y-36371D02*
X53476Y-35597D01*
X61077Y-34978D02*
X61077Y-33820D01*
X61077Y-33820D02*
X61851Y-33820D01*
X61851Y-33820D02*
X61851Y-34978D01*
X61851Y-34978D02*
X61077Y-34978D01*
X58838Y-36935D02*
X57680Y-36935D01*
X57680Y-36935D02*
X57680Y-36161D01*
X57680Y-36161D02*
X58838Y-36161D01*
X58838Y-36161D02*
X58838Y-36935D01*
X59220Y-36209D02*
X60378Y-36209D01*
X60378Y-36209D02*
X60378Y-36983D01*
X60378Y-36983D02*
X59220Y-36983D01*
X59220Y-36983D02*
X59220Y-36209D01*
X57606Y-36935D02*
X56448Y-36935D01*
X56448Y-36935D02*
X56448Y-36161D01*
X56448Y-36161D02*
X57606Y-36161D01*
X57606Y-36161D02*
X57606Y-36935D01*
X57327Y-37762D02*
X56169Y-37762D01*
X56169Y-37762D02*
X56169Y-36988D01*
X56169Y-36988D02*
X57327Y-36988D01*
X57327Y-36988D02*
X57327Y-37762D01*
X61069Y-36186D02*
X61069Y-35028D01*
X61069Y-35028D02*
X61843Y-35028D01*
X61843Y-35028D02*
X61843Y-36186D01*
X61843Y-36186D02*
X61069Y-36186D01*
X54831Y-35662D02*
X53279Y-35662D01*
X53279Y-34888D02*
X54831Y-34888D01*
X54831Y-34888D02*
X54831Y-35662D01*
X53279Y-35662D02*
X53279Y-34888D01*
X54831Y-34875D02*
X53279Y-34875D01*
X53279Y-34101D02*
X54831Y-34101D01*
X54831Y-34101D02*
X54831Y-34875D01*
X53279Y-34875D02*
X53279Y-34101D01*
X54809Y-34831D02*
X54809Y-33279D01*
X55583Y-33279D02*
X55583Y-34831D01*
X55583Y-34831D02*
X54809Y-34831D01*
X54809Y-33279D02*
X55583Y-33279D01*
X55636Y-34831D02*
X55636Y-33279D01*
X56410Y-33279D02*
X56410Y-34831D01*
X56410Y-34831D02*
X55636Y-34831D01*
X55636Y-33279D02*
X56410Y-33279D01*
X56463Y-34831D02*
X56463Y-33279D01*
X57237Y-33279D02*
X57237Y-34831D01*
X57237Y-34831D02*
X56463Y-34831D01*
X56463Y-33279D02*
X57237Y-33279D01*
X57172Y-34634D02*
X57172Y-33476D01*
X57172Y-33476D02*
X57946Y-33476D01*
X57946Y-33476D02*
X57946Y-34634D01*
X57946Y-34634D02*
X57172Y-34634D01*
X58303Y-36022D02*
X57145Y-36022D01*
X57145Y-36022D02*
X57145Y-35248D01*
X57145Y-35248D02*
X58303Y-35248D01*
X58303Y-35248D02*
X58303Y-36022D01*
X54993Y-30050D02*
X54993Y-31208D01*
X54993Y-31208D02*
X54219Y-31208D01*
X54219Y-31208D02*
X54219Y-30050D01*
X54219Y-30050D02*
X54993Y-30050D01*
X56666Y-29538D02*
X56666Y-31484D01*
X55892Y-31484D02*
X55892Y-29538D01*
X55892Y-29538D02*
X56666Y-29538D01*
X56666Y-31484D02*
X55892Y-31484D01*
X55800Y-29538D02*
X55800Y-31484D01*
X55026Y-31484D02*
X55026Y-29538D01*
X55026Y-29538D02*
X55800Y-29538D01*
X55800Y-31484D02*
X55026Y-31484D01*
X62237Y-29558D02*
X62237Y-31504D01*
X61463Y-31504D02*
X61463Y-29558D01*
X61463Y-29558D02*
X62237Y-29558D01*
X62237Y-31504D02*
X61463Y-31504D01*
X63162Y-29558D02*
X63162Y-31504D01*
X62388Y-31504D02*
X62388Y-29558D01*
X62388Y-29558D02*
X63162Y-29558D01*
X63162Y-31504D02*
X62388Y-31504D01*
X62032Y-36662D02*
X62032Y-37820D01*
X62032Y-37820D02*
X61258Y-37820D01*
X61258Y-37820D02*
X61258Y-36662D01*
X61258Y-36662D02*
X62032Y-36662D01*
X62880Y-37793D02*
X62880Y-36635D01*
X62880Y-36635D02*
X63654Y-36635D01*
X63654Y-36635D02*
X63654Y-37793D01*
X63654Y-37793D02*
X62880Y-37793D01*
X63418Y-35247D02*
X63418Y-36405D01*
X63418Y-36405D02*
X62644Y-36405D01*
X62644Y-36405D02*
X62644Y-35247D01*
X62644Y-35247D02*
X63418Y-35247D01*
X59543Y-38581D02*
X58385Y-38581D01*
X58385Y-38581D02*
X58385Y-37807D01*
X58385Y-37807D02*
X59543Y-37807D01*
X59543Y-37807D02*
X59543Y-38581D01*
X59247Y-37035D02*
X60405Y-37035D01*
X60405Y-37035D02*
X60405Y-37809D01*
X60405Y-37809D02*
X59247Y-37809D01*
X59247Y-37809D02*
X59247Y-37035D01*
X59201Y-37762D02*
X58043Y-37762D01*
X58043Y-37762D02*
X58043Y-36988D01*
X58043Y-36988D02*
X59201Y-36988D01*
X59201Y-36988D02*
X59201Y-37762D01*
X62851Y-36631D02*
X62851Y-37789D01*
X62851Y-37789D02*
X62077Y-37789D01*
X62077Y-37789D02*
X62077Y-36631D01*
X62077Y-36631D02*
X62851Y-36631D01*
X62694Y-35233D02*
X62694Y-36391D01*
X62694Y-36391D02*
X61920Y-36391D01*
X61920Y-36391D02*
X61920Y-35233D01*
X61920Y-35233D02*
X62694Y-35233D01*
X60447Y-37379D02*
X60447Y-36221D01*
X60447Y-36221D02*
X61221Y-36221D01*
X61221Y-36221D02*
X61221Y-37379D01*
X61221Y-37379D02*
X60447Y-37379D01*
X59022Y-49279D02*
X59022Y-48121D01*
X59022Y-48121D02*
X59796Y-48121D01*
X59796Y-48121D02*
X59796Y-49279D01*
X59796Y-49279D02*
X59022Y-49279D01*
X56032Y-47753D02*
X56032Y-48911D01*
X56032Y-48911D02*
X55258Y-48911D01*
X55258Y-48911D02*
X55258Y-47753D01*
X55258Y-47753D02*
X56032Y-47753D01*
X58243Y-45716D02*
X59401Y-45716D01*
X59401Y-45716D02*
X59401Y-46490D01*
X59401Y-46490D02*
X58243Y-46490D01*
X58243Y-46490D02*
X58243Y-45716D01*
X57890Y-46357D02*
X56732Y-46357D01*
X56732Y-46357D02*
X56732Y-45583D01*
X56732Y-45583D02*
X57890Y-45583D01*
X57890Y-45583D02*
X57890Y-46357D01*
X59440Y-45716D02*
X60598Y-45716D01*
X60598Y-45716D02*
X60598Y-46490D01*
X60598Y-46490D02*
X59440Y-46490D01*
X59440Y-46490D02*
X59440Y-45716D01*
X59779Y-44917D02*
X60937Y-44917D01*
X60937Y-44917D02*
X60937Y-45691D01*
X60937Y-45691D02*
X59779Y-45691D01*
X59779Y-45691D02*
X59779Y-44917D01*
X56040Y-46532D02*
X56040Y-47690D01*
X56040Y-47690D02*
X55266Y-47690D01*
X55266Y-47690D02*
X55266Y-46532D01*
X55266Y-46532D02*
X56040Y-46532D01*
X62098Y-47053D02*
X63650Y-47053D01*
X63650Y-47827D02*
X62098Y-47827D01*
X62098Y-47827D02*
X62098Y-47053D01*
X63650Y-47053D02*
X63650Y-47827D01*
X62098Y-47880D02*
X63650Y-47880D01*
X63650Y-48654D02*
X62098Y-48654D01*
X62098Y-48654D02*
X62098Y-47880D01*
X63650Y-47880D02*
X63650Y-48654D01*
X62198Y-47924D02*
X62198Y-49476D01*
X61424Y-49476D02*
X61424Y-47924D01*
X61424Y-47924D02*
X62198Y-47924D01*
X62198Y-49476D02*
X61424Y-49476D01*
X61371Y-47924D02*
X61371Y-49476D01*
X60597Y-49476D02*
X60597Y-47924D01*
X60597Y-47924D02*
X61371Y-47924D01*
X61371Y-49476D02*
X60597Y-49476D01*
X60544Y-47924D02*
X60544Y-49476D01*
X59770Y-49476D02*
X59770Y-47924D01*
X59770Y-47924D02*
X60544Y-47924D01*
X60544Y-49476D02*
X59770Y-49476D01*
X62295Y-46345D02*
X63453Y-46345D01*
X63453Y-46345D02*
X63453Y-47119D01*
X63453Y-47119D02*
X62295Y-47119D01*
X62295Y-47119D02*
X62295Y-46345D01*
X58854Y-46598D02*
X60012Y-46598D01*
X60012Y-46598D02*
X60012Y-47372D01*
X60012Y-47372D02*
X58854Y-47372D01*
X58854Y-47372D02*
X58854Y-46598D01*
X62132Y-52468D02*
X62132Y-51310D01*
X62132Y-51310D02*
X62906Y-51310D01*
X62906Y-51310D02*
X62906Y-52468D01*
X62906Y-52468D02*
X62132Y-52468D01*
X60498Y-53029D02*
X60498Y-51083D01*
X61272Y-51083D02*
X61272Y-53029D01*
X61272Y-53029D02*
X60498Y-53029D01*
X60498Y-51083D02*
X61272Y-51083D01*
X61325Y-53009D02*
X61325Y-51063D01*
X62099Y-51063D02*
X62099Y-53009D01*
X62099Y-53009D02*
X61325Y-53009D01*
X61325Y-51063D02*
X62099Y-51063D01*
X54888Y-53079D02*
X54888Y-51133D01*
X55662Y-51133D02*
X55662Y-53079D01*
X55662Y-53079D02*
X54888Y-53079D01*
X54888Y-51133D02*
X55662Y-51133D01*
X54042Y-53079D02*
X54042Y-51133D01*
X54816Y-51133D02*
X54816Y-53079D01*
X54816Y-53079D02*
X54042Y-53079D01*
X54042Y-51133D02*
X54816Y-51133D01*
X55053Y-45824D02*
X55053Y-44666D01*
X55053Y-44666D02*
X55827Y-44666D01*
X55827Y-44666D02*
X55827Y-45824D01*
X55827Y-45824D02*
X55053Y-45824D01*
X54198Y-44662D02*
X54198Y-45820D01*
X54198Y-45820D02*
X53424Y-45820D01*
X53424Y-45820D02*
X53424Y-44662D01*
X53424Y-44662D02*
X54198Y-44662D01*
X53727Y-47193D02*
X53727Y-46035D01*
X53727Y-46035D02*
X54501Y-46035D01*
X54501Y-46035D02*
X54501Y-47193D01*
X54501Y-47193D02*
X53727Y-47193D01*
X57574Y-43953D02*
X58732Y-43953D01*
X58732Y-43953D02*
X58732Y-44727D01*
X58732Y-44727D02*
X57574Y-44727D01*
X57574Y-44727D02*
X57574Y-43953D01*
X57909Y-45538D02*
X56751Y-45538D01*
X56751Y-45538D02*
X56751Y-44764D01*
X56751Y-44764D02*
X57909Y-44764D01*
X57909Y-44764D02*
X57909Y-45538D01*
X57940Y-44772D02*
X59098Y-44772D01*
X59098Y-44772D02*
X59098Y-45546D01*
X59098Y-45546D02*
X57940Y-45546D01*
X57940Y-45546D02*
X57940Y-44772D01*
X54246Y-45824D02*
X54246Y-44666D01*
X54246Y-44666D02*
X55020Y-44666D01*
X55020Y-44666D02*
X55020Y-45824D01*
X55020Y-45824D02*
X54246Y-45824D01*
X54443Y-47438D02*
X54443Y-46280D01*
X54443Y-46280D02*
X55217Y-46280D01*
X55217Y-46280D02*
X55217Y-47438D01*
X55217Y-47438D02*
X54443Y-47438D01*
X56690Y-45194D02*
X56690Y-46352D01*
X56690Y-46352D02*
X55916Y-46352D01*
X55916Y-46352D02*
X55916Y-45194D01*
X55916Y-45194D02*
X56690Y-45194D01*
X64578Y-42624D02*
X65736Y-42624D01*
X65736Y-42624D02*
X65736Y-43398D01*
X65736Y-43398D02*
X64578Y-43398D01*
X64578Y-43398D02*
X64578Y-42624D01*
X66386Y-40170D02*
X65228Y-40170D01*
X65228Y-40170D02*
X65228Y-39396D01*
X65228Y-39396D02*
X66386Y-39396D01*
X66386Y-39396D02*
X66386Y-40170D01*
X66386Y-39560D02*
X65228Y-39560D01*
X65228Y-39560D02*
X65228Y-38786D01*
X65228Y-38786D02*
X66386Y-38786D01*
X66386Y-38786D02*
X66386Y-39560D01*
X63633Y-38687D02*
X65185Y-38687D01*
X65185Y-39461D02*
X63633Y-39461D01*
X63633Y-39461D02*
X63633Y-38687D01*
X65185Y-38687D02*
X65185Y-39461D01*
X63633Y-39494D02*
X65185Y-39494D01*
X65185Y-40268D02*
X63633Y-40268D01*
X63633Y-40268D02*
X63633Y-39494D01*
X65185Y-39494D02*
X65185Y-40268D01*
X64520Y-42491D02*
X64520Y-43649D01*
X64520Y-43649D02*
X63746Y-43649D01*
X63746Y-43649D02*
X63746Y-42491D01*
X63746Y-42491D02*
X64520Y-42491D01*
X66095Y-42259D02*
X66095Y-40707D01*
X66095Y-40707D02*
X66869Y-40707D01*
X66869Y-40707D02*
X66869Y-42259D01*
X66869Y-42259D02*
X66095Y-42259D01*
X40638Y-28831D02*
X39480Y-28831D01*
X39480Y-28831D02*
X39480Y-28451D01*
X39480Y-28451D02*
X40638Y-28451D01*
X40638Y-28451D02*
X40638Y-28831D01*
X42715Y-25634D02*
X42715Y-24476D01*
X42715Y-24476D02*
X43095Y-24476D01*
X43095Y-24476D02*
X43095Y-25634D01*
X43095Y-25634D02*
X42715Y-25634D01*
X40229Y-25287D02*
X40229Y-26445D01*
X40229Y-26445D02*
X39849Y-26445D01*
X39849Y-26445D02*
X39849Y-25287D01*
X39849Y-25287D02*
X40229Y-25287D01*
X44381Y-28451D02*
X45539Y-28451D01*
X45539Y-28451D02*
X45539Y-28831D01*
X45539Y-28831D02*
X44381Y-28831D01*
X44381Y-28831D02*
X44381Y-28451D01*
X44947Y-27390D02*
X44947Y-26232D01*
X44947Y-26232D02*
X45327Y-26232D01*
X45327Y-26232D02*
X45327Y-27390D01*
X45327Y-27390D02*
X44947Y-27390D01*
X40638Y-28339D02*
X39480Y-28339D01*
X39480Y-28339D02*
X39480Y-27959D01*
X39480Y-27959D02*
X40638Y-27959D01*
X40638Y-27959D02*
X40638Y-28339D01*
X45327Y-25208D02*
X45327Y-26366D01*
X45327Y-26366D02*
X44947Y-26366D01*
X44947Y-26366D02*
X44947Y-25208D01*
X44947Y-25208D02*
X45327Y-25208D01*
X44381Y-27979D02*
X45539Y-27979D01*
X45539Y-27979D02*
X45539Y-28359D01*
X45539Y-28359D02*
X44381Y-28359D01*
X44381Y-28359D02*
X44381Y-27979D01*
X42965Y-29558D02*
X42965Y-30716D01*
X42965Y-30716D02*
X42585Y-30716D01*
X42585Y-30716D02*
X42585Y-29558D01*
X42585Y-29558D02*
X42965Y-29558D01*
X42335Y-29558D02*
X42335Y-30716D01*
X42335Y-30716D02*
X41955Y-30716D01*
X41955Y-30716D02*
X41955Y-29558D01*
X41955Y-29558D02*
X42335Y-29558D01*
X39849Y-27370D02*
X39849Y-26212D01*
X39849Y-26212D02*
X40229Y-26212D01*
X40229Y-26212D02*
X40229Y-27370D01*
X40229Y-27370D02*
X39849Y-27370D01*
X51389Y-28451D02*
X52547Y-28451D01*
X52547Y-28451D02*
X52547Y-28831D01*
X52547Y-28831D02*
X51389Y-28831D01*
X51389Y-28831D02*
X51389Y-28451D01*
X47803Y-28831D02*
X46645Y-28831D01*
X46645Y-28831D02*
X46645Y-28451D01*
X46645Y-28451D02*
X47803Y-28451D01*
X47803Y-28451D02*
X47803Y-28831D01*
X52014Y-27390D02*
X52014Y-26232D01*
X52014Y-26232D02*
X52394Y-26232D01*
X52394Y-26232D02*
X52394Y-27390D01*
X52394Y-27390D02*
X52014Y-27390D01*
X47803Y-28339D02*
X46645Y-28339D01*
X46645Y-28339D02*
X46645Y-27959D01*
X46645Y-27959D02*
X47803Y-27959D01*
X47803Y-27959D02*
X47803Y-28339D01*
X47296Y-25543D02*
X47296Y-26701D01*
X47296Y-26701D02*
X46916Y-26701D01*
X46916Y-26701D02*
X46916Y-25543D01*
X46916Y-25543D02*
X47296Y-25543D01*
X49875Y-29598D02*
X49875Y-30756D01*
X49875Y-30756D02*
X49495Y-30756D01*
X49495Y-30756D02*
X49495Y-29598D01*
X49495Y-29598D02*
X49875Y-29598D01*
X51389Y-27959D02*
X52547Y-27959D01*
X52547Y-27959D02*
X52547Y-28339D01*
X52547Y-28339D02*
X51389Y-28339D01*
X51389Y-28339D02*
X51389Y-27959D01*
X50339Y-35365D02*
X50339Y-36523D01*
X50339Y-36523D02*
X49959Y-36523D01*
X49959Y-36523D02*
X49959Y-35365D01*
X49959Y-35365D02*
X50339Y-35365D01*
X52414Y-25208D02*
X52414Y-26366D01*
X52414Y-26366D02*
X52034Y-26366D01*
X52034Y-26366D02*
X52034Y-25208D01*
X52034Y-25208D02*
X52414Y-25208D01*
X46916Y-27626D02*
X46916Y-26468D01*
X46916Y-26468D02*
X47296Y-26468D01*
X47296Y-26468D02*
X47296Y-27626D01*
X47296Y-27626D02*
X46916Y-27626D01*
X49947Y-25571D02*
X49947Y-24413D01*
X49947Y-24413D02*
X50327Y-24413D01*
X50327Y-24413D02*
X50327Y-25571D01*
X50327Y-25571D02*
X49947Y-25571D01*
X44361Y-34357D02*
X45519Y-34357D01*
X45519Y-34357D02*
X45519Y-34737D01*
X45519Y-34737D02*
X44361Y-34737D01*
X44361Y-34737D02*
X44361Y-34357D01*
X40657Y-34737D02*
X39499Y-34737D01*
X39499Y-34737D02*
X39499Y-34357D01*
X39499Y-34357D02*
X40657Y-34357D01*
X40657Y-34357D02*
X40657Y-34737D01*
X44869Y-33275D02*
X44869Y-32117D01*
X44869Y-32117D02*
X45249Y-32117D01*
X45249Y-32117D02*
X45249Y-33275D01*
X45249Y-33275D02*
X44869Y-33275D01*
X40510Y-32424D02*
X39352Y-32424D01*
X39352Y-32424D02*
X39352Y-32044D01*
X39352Y-32044D02*
X40510Y-32044D01*
X40510Y-32044D02*
X40510Y-32424D01*
X44263Y-31798D02*
X45421Y-31798D01*
X45421Y-31798D02*
X45421Y-32178D01*
X45421Y-32178D02*
X44263Y-32178D01*
X44263Y-32178D02*
X44263Y-31798D01*
X40657Y-34245D02*
X39499Y-34245D01*
X39499Y-34245D02*
X39499Y-33865D01*
X39499Y-33865D02*
X40657Y-33865D01*
X40657Y-33865D02*
X40657Y-34245D01*
X41961Y-35365D02*
X41961Y-36523D01*
X41961Y-36523D02*
X41581Y-36523D01*
X41581Y-36523D02*
X41581Y-35365D01*
X41581Y-35365D02*
X41961Y-35365D01*
X44361Y-33865D02*
X45519Y-33865D01*
X45519Y-33865D02*
X45519Y-34245D01*
X45519Y-34245D02*
X44361Y-34245D01*
X44361Y-34245D02*
X44361Y-33865D01*
X41463Y-31228D02*
X41463Y-30070D01*
X41463Y-30070D02*
X41843Y-30070D01*
X41843Y-30070D02*
X41843Y-31228D01*
X41843Y-31228D02*
X41463Y-31228D01*
X43069Y-31224D02*
X43069Y-30066D01*
X43069Y-30066D02*
X43449Y-30066D01*
X43449Y-30066D02*
X43449Y-31224D01*
X43449Y-31224D02*
X43069Y-31224D01*
X43398Y-35365D02*
X43398Y-36523D01*
X43398Y-36523D02*
X43018Y-36523D01*
X43018Y-36523D02*
X43018Y-35365D01*
X43018Y-35365D02*
X43398Y-35365D01*
X47783Y-34717D02*
X46625Y-34717D01*
X46625Y-34717D02*
X46625Y-34337D01*
X46625Y-34337D02*
X47783Y-34337D01*
X47783Y-34337D02*
X47783Y-34717D01*
X51404Y-34870D02*
X51404Y-33712D01*
X51404Y-33712D02*
X51784Y-33712D01*
X51784Y-33712D02*
X51784Y-34870D01*
X51784Y-34870D02*
X51404Y-34870D01*
X51345Y-33295D02*
X51345Y-32137D01*
X51345Y-32137D02*
X51725Y-32137D01*
X51725Y-32137D02*
X51725Y-33295D01*
X51725Y-33295D02*
X51345Y-33295D01*
X51725Y-31212D02*
X51725Y-32370D01*
X51725Y-32370D02*
X51345Y-32370D01*
X51345Y-32370D02*
X51345Y-31212D01*
X51345Y-31212D02*
X51725Y-31212D01*
X47783Y-35209D02*
X46625Y-35209D01*
X46625Y-35209D02*
X46625Y-34829D01*
X46625Y-34829D02*
X47783Y-34829D01*
X47783Y-34829D02*
X47783Y-35209D01*
X48989Y-35365D02*
X48989Y-36523D01*
X48989Y-36523D02*
X48609Y-36523D01*
X48609Y-36523D02*
X48609Y-35365D01*
X48609Y-35365D02*
X48989Y-35365D01*
X49382Y-29598D02*
X49382Y-30756D01*
X49382Y-30756D02*
X49002Y-30756D01*
X49002Y-30756D02*
X49002Y-29598D01*
X49002Y-29598D02*
X49382Y-29598D01*
X52276Y-33200D02*
X52276Y-34358D01*
X52276Y-34358D02*
X51896Y-34358D01*
X51896Y-34358D02*
X51896Y-33200D01*
X51896Y-33200D02*
X52276Y-33200D01*
X48550Y-31267D02*
X48550Y-30109D01*
X48550Y-30109D02*
X48930Y-30109D01*
X48930Y-30109D02*
X48930Y-31267D01*
X48930Y-31267D02*
X48550Y-31267D01*
X49987Y-31267D02*
X49987Y-30109D01*
X49987Y-30109D02*
X50367Y-30109D01*
X50367Y-30109D02*
X50367Y-31267D01*
X50367Y-31267D02*
X49987Y-31267D01*
X46935Y-33275D02*
X46935Y-32117D01*
X46935Y-32117D02*
X47315Y-32117D01*
X47315Y-32117D02*
X47315Y-33275D01*
X47315Y-33275D02*
X46935Y-33275D01*
X65008Y-28831D02*
X63850Y-28831D01*
X63850Y-28831D02*
X63850Y-28451D01*
X63850Y-28451D02*
X65008Y-28451D01*
X65008Y-28451D02*
X65008Y-28831D01*
X68751Y-28451D02*
X69909Y-28451D01*
X69909Y-28451D02*
X69909Y-28831D01*
X69909Y-28831D02*
X68751Y-28831D01*
X68751Y-28831D02*
X68751Y-28451D01*
X69199Y-27390D02*
X69199Y-26232D01*
X69199Y-26232D02*
X69579Y-26232D01*
X69579Y-26232D02*
X69579Y-27390D01*
X69579Y-27390D02*
X69199Y-27390D01*
X67329Y-25638D02*
X67329Y-24480D01*
X67329Y-24480D02*
X67709Y-24480D01*
X67709Y-24480D02*
X67709Y-25638D01*
X67709Y-25638D02*
X67329Y-25638D01*
X64278Y-26956D02*
X64278Y-25798D01*
X64278Y-25798D02*
X64658Y-25798D01*
X64658Y-25798D02*
X64658Y-26956D01*
X64658Y-26956D02*
X64278Y-26956D01*
X65008Y-29323D02*
X63850Y-29323D01*
X63850Y-29323D02*
X63850Y-28943D01*
X63850Y-28943D02*
X65008Y-28943D01*
X65008Y-28943D02*
X65008Y-29323D01*
X72242Y-32502D02*
X71084Y-32502D01*
X71084Y-32502D02*
X71084Y-32122D01*
X71084Y-32122D02*
X72242Y-32122D01*
X72242Y-32122D02*
X72242Y-32502D01*
X67768Y-29519D02*
X67768Y-30677D01*
X67768Y-30677D02*
X67388Y-30677D01*
X67388Y-30677D02*
X67388Y-29519D01*
X67388Y-29519D02*
X67768Y-29519D01*
X69599Y-25208D02*
X69599Y-26366D01*
X69599Y-26366D02*
X69219Y-26366D01*
X69219Y-26366D02*
X69219Y-25208D01*
X69219Y-25208D02*
X69599Y-25208D01*
X68751Y-27979D02*
X69909Y-27979D01*
X69909Y-27979D02*
X69909Y-28359D01*
X69909Y-28359D02*
X68751Y-28359D01*
X68751Y-28359D02*
X68751Y-27979D01*
X64658Y-24873D02*
X64658Y-26031D01*
X64658Y-26031D02*
X64278Y-26031D01*
X64278Y-26031D02*
X64278Y-24873D01*
X64278Y-24873D02*
X64658Y-24873D01*
X72094Y-28831D02*
X70936Y-28831D01*
X70936Y-28831D02*
X70936Y-28451D01*
X70936Y-28451D02*
X72094Y-28451D01*
X72094Y-28451D02*
X72094Y-28831D01*
X75858Y-28451D02*
X77016Y-28451D01*
X77016Y-28451D02*
X77016Y-28831D01*
X77016Y-28831D02*
X75858Y-28831D01*
X75858Y-28831D02*
X75858Y-28451D01*
X75991Y-27390D02*
X75991Y-26232D01*
X75991Y-26232D02*
X76371Y-26232D01*
X76371Y-26232D02*
X76371Y-27390D01*
X76371Y-27390D02*
X75991Y-27390D01*
X74361Y-25752D02*
X74361Y-24594D01*
X74361Y-24594D02*
X74741Y-24594D01*
X74741Y-24594D02*
X74741Y-25752D01*
X74741Y-25752D02*
X74361Y-25752D01*
X73359Y-29598D02*
X73359Y-30756D01*
X73359Y-30756D02*
X72979Y-30756D01*
X72979Y-30756D02*
X72979Y-29598D01*
X72979Y-29598D02*
X73359Y-29598D01*
X71646Y-24952D02*
X71646Y-26110D01*
X71646Y-26110D02*
X71266Y-26110D01*
X71266Y-26110D02*
X71266Y-24952D01*
X71266Y-24952D02*
X71646Y-24952D01*
X72094Y-28339D02*
X70936Y-28339D01*
X70936Y-28339D02*
X70936Y-27959D01*
X70936Y-27959D02*
X72094Y-27959D01*
X72094Y-27959D02*
X72094Y-28339D01*
X74855Y-29598D02*
X74855Y-30756D01*
X74855Y-30756D02*
X74475Y-30756D01*
X74475Y-30756D02*
X74475Y-29598D01*
X74475Y-29598D02*
X74855Y-29598D01*
X75858Y-27959D02*
X77016Y-27959D01*
X77016Y-27959D02*
X77016Y-28339D01*
X77016Y-28339D02*
X75858Y-28339D01*
X75858Y-28339D02*
X75858Y-27959D01*
X76371Y-25306D02*
X76371Y-26464D01*
X76371Y-26464D02*
X75991Y-26464D01*
X75991Y-26464D02*
X75991Y-25306D01*
X75991Y-25306D02*
X76371Y-25306D01*
X71266Y-27035D02*
X71266Y-25877D01*
X71266Y-25877D02*
X71646Y-25877D01*
X71646Y-25877D02*
X71646Y-27035D01*
X71646Y-27035D02*
X71266Y-27035D01*
X65067Y-34737D02*
X63909Y-34737D01*
X63909Y-34737D02*
X63909Y-34357D01*
X63909Y-34357D02*
X65067Y-34357D01*
X65067Y-34357D02*
X65067Y-34737D01*
X68810Y-34357D02*
X69968Y-34357D01*
X69968Y-34357D02*
X69968Y-34737D01*
X69968Y-34737D02*
X68810Y-34737D01*
X68810Y-34737D02*
X68810Y-34357D01*
X69258Y-33295D02*
X69258Y-32137D01*
X69258Y-32137D02*
X69638Y-32137D01*
X69638Y-32137D02*
X69638Y-33295D01*
X69638Y-33295D02*
X69258Y-33295D01*
X66345Y-31189D02*
X66345Y-30031D01*
X66345Y-30031D02*
X66725Y-30031D01*
X66725Y-30031D02*
X66725Y-31189D01*
X66725Y-31189D02*
X66345Y-31189D01*
X66896Y-31189D02*
X66896Y-30031D01*
X66896Y-30031D02*
X67276Y-30031D01*
X67276Y-30031D02*
X67276Y-31189D01*
X67276Y-31189D02*
X66896Y-31189D01*
X66312Y-35287D02*
X66312Y-36445D01*
X66312Y-36445D02*
X65932Y-36445D01*
X65932Y-36445D02*
X65932Y-35287D01*
X65932Y-35287D02*
X66312Y-35287D01*
X65067Y-35229D02*
X63909Y-35229D01*
X63909Y-35229D02*
X63909Y-34849D01*
X63909Y-34849D02*
X65067Y-34849D01*
X65067Y-34849D02*
X65067Y-35229D01*
X68613Y-31817D02*
X69771Y-31817D01*
X69771Y-31817D02*
X69771Y-32197D01*
X69771Y-32197D02*
X68613Y-32197D01*
X68613Y-32197D02*
X68613Y-31817D01*
X66233Y-29519D02*
X66233Y-30677D01*
X66233Y-30677D02*
X65853Y-30677D01*
X65853Y-30677D02*
X65853Y-29519D01*
X65853Y-29519D02*
X66233Y-29519D01*
X65224Y-32237D02*
X64066Y-32237D01*
X64066Y-32237D02*
X64066Y-31857D01*
X64066Y-31857D02*
X65224Y-31857D01*
X65224Y-31857D02*
X65224Y-32237D01*
X68810Y-33884D02*
X69968Y-33884D01*
X69968Y-33884D02*
X69968Y-34264D01*
X69968Y-34264D02*
X68810Y-34264D01*
X68810Y-34264D02*
X68810Y-33884D01*
X72035Y-34737D02*
X70877Y-34737D01*
X70877Y-34737D02*
X70877Y-34357D01*
X70877Y-34357D02*
X72035Y-34357D01*
X72035Y-34357D02*
X72035Y-34737D01*
X75956Y-34573D02*
X77114Y-34573D01*
X77114Y-34573D02*
X77114Y-34953D01*
X77114Y-34953D02*
X75956Y-34953D01*
X75956Y-34953D02*
X75956Y-34573D01*
X75951Y-33275D02*
X75951Y-32117D01*
X75951Y-32117D02*
X76331Y-32117D01*
X76331Y-32117D02*
X76331Y-33275D01*
X76331Y-33275D02*
X75951Y-33275D01*
X75346Y-31817D02*
X76504Y-31817D01*
X76504Y-31817D02*
X76504Y-32197D01*
X76504Y-32197D02*
X75346Y-32197D01*
X75346Y-32197D02*
X75346Y-31817D01*
X73983Y-31267D02*
X73983Y-30109D01*
X73983Y-30109D02*
X74363Y-30109D01*
X74363Y-30109D02*
X74363Y-31267D01*
X74363Y-31267D02*
X73983Y-31267D01*
X73471Y-31267D02*
X73471Y-30109D01*
X73471Y-30109D02*
X73851Y-30109D01*
X73851Y-30109D02*
X73851Y-31267D01*
X73851Y-31267D02*
X73471Y-31267D01*
X72035Y-34245D02*
X70877Y-34245D01*
X70877Y-34245D02*
X70877Y-33865D01*
X70877Y-33865D02*
X72035Y-33865D01*
X72035Y-33865D02*
X72035Y-34245D01*
X74587Y-35271D02*
X74587Y-36429D01*
X74587Y-36429D02*
X74207Y-36429D01*
X74207Y-36429D02*
X74207Y-35271D01*
X74207Y-35271D02*
X74587Y-35271D01*
X67453Y-35291D02*
X67453Y-36449D01*
X67453Y-36449D02*
X67073Y-36449D01*
X67073Y-36449D02*
X67073Y-35291D01*
X67073Y-35291D02*
X67453Y-35291D01*
X75956Y-34091D02*
X77114Y-34091D01*
X77114Y-34091D02*
X77114Y-34471D01*
X77114Y-34471D02*
X75956Y-34471D01*
X75956Y-34471D02*
X75956Y-34091D01*
X73378Y-35287D02*
X73378Y-36445D01*
X73378Y-36445D02*
X72998Y-36445D01*
X72998Y-36445D02*
X72998Y-35287D01*
X72998Y-35287D02*
X73378Y-35287D01*
X75956Y-53845D02*
X77114Y-53845D01*
X77114Y-53845D02*
X77114Y-54225D01*
X77114Y-54225D02*
X75956Y-54225D01*
X75956Y-54225D02*
X75956Y-53845D01*
X72212Y-54225D02*
X71054Y-54225D01*
X71054Y-54225D02*
X71054Y-53845D01*
X71054Y-53845D02*
X72212Y-53845D01*
X72212Y-53845D02*
X72212Y-54225D01*
X72020Y-55287D02*
X72020Y-56445D01*
X72020Y-56445D02*
X71640Y-56445D01*
X71640Y-56445D02*
X71640Y-55287D01*
X71640Y-55287D02*
X72020Y-55287D01*
X75798Y-49691D02*
X76956Y-49691D01*
X76956Y-49691D02*
X76956Y-50071D01*
X76956Y-50071D02*
X75798Y-50071D01*
X75798Y-50071D02*
X75798Y-49691D01*
X76607Y-55247D02*
X76607Y-56405D01*
X76607Y-56405D02*
X76227Y-56405D01*
X76227Y-56405D02*
X76227Y-55247D01*
X76227Y-55247D02*
X76607Y-55247D01*
X71640Y-57370D02*
X71640Y-56212D01*
X71640Y-56212D02*
X72020Y-56212D01*
X72020Y-56212D02*
X72020Y-57370D01*
X72020Y-57370D02*
X71640Y-57370D01*
X75956Y-54337D02*
X77114Y-54337D01*
X77114Y-54337D02*
X77114Y-54717D01*
X77114Y-54717D02*
X75956Y-54717D01*
X75956Y-54717D02*
X75956Y-54337D01*
X73018Y-53138D02*
X73018Y-51980D01*
X73018Y-51980D02*
X73398Y-51980D01*
X73398Y-51980D02*
X73398Y-53138D01*
X73398Y-53138D02*
X73018Y-53138D01*
X72212Y-54717D02*
X71054Y-54717D01*
X71054Y-54717D02*
X71054Y-54337D01*
X71054Y-54337D02*
X72212Y-54337D01*
X72212Y-54337D02*
X72212Y-54717D01*
X76227Y-57350D02*
X76227Y-56192D01*
X76227Y-56192D02*
X76607Y-56192D01*
X76607Y-56192D02*
X76607Y-57350D01*
X76607Y-57350D02*
X76227Y-57350D01*
X73800Y-56968D02*
X73800Y-58126D01*
X73800Y-58126D02*
X73420Y-58126D01*
X73420Y-58126D02*
X73420Y-56968D01*
X73420Y-56968D02*
X73800Y-56968D01*
X68948Y-53845D02*
X70106Y-53845D01*
X70106Y-53845D02*
X70106Y-54225D01*
X70106Y-54225D02*
X68948Y-54225D01*
X68948Y-54225D02*
X68948Y-53845D01*
X65126Y-54225D02*
X63968Y-54225D01*
X63968Y-54225D02*
X63968Y-53845D01*
X63968Y-53845D02*
X65126Y-53845D01*
X65126Y-53845D02*
X65126Y-54225D01*
X64953Y-55287D02*
X64953Y-56445D01*
X64953Y-56445D02*
X64573Y-56445D01*
X64573Y-56445D02*
X64573Y-55287D01*
X64573Y-55287D02*
X64953Y-55287D01*
X66839Y-56952D02*
X66839Y-58110D01*
X66839Y-58110D02*
X66459Y-58110D01*
X66459Y-58110D02*
X66459Y-56952D01*
X66459Y-56952D02*
X66839Y-56952D01*
X68761Y-50252D02*
X69919Y-50252D01*
X69919Y-50252D02*
X69919Y-50632D01*
X69919Y-50632D02*
X68761Y-50632D01*
X68761Y-50632D02*
X68761Y-50252D01*
X64573Y-57370D02*
X64573Y-56212D01*
X64573Y-56212D02*
X64953Y-56212D01*
X64953Y-56212D02*
X64953Y-57370D01*
X64953Y-57370D02*
X64573Y-57370D01*
X68948Y-54337D02*
X70106Y-54337D01*
X70106Y-54337D02*
X70106Y-54717D01*
X70106Y-54717D02*
X68948Y-54717D01*
X68948Y-54717D02*
X68948Y-54337D01*
X65991Y-53118D02*
X65991Y-51960D01*
X65991Y-51960D02*
X66371Y-51960D01*
X66371Y-51960D02*
X66371Y-53118D01*
X66371Y-53118D02*
X65991Y-53118D01*
X65126Y-54717D02*
X63968Y-54717D01*
X63968Y-54717D02*
X63968Y-54337D01*
X63968Y-54337D02*
X65126Y-54337D01*
X65126Y-54337D02*
X65126Y-54717D01*
X64732Y-49402D02*
X63574Y-49402D01*
X63574Y-49402D02*
X63574Y-49022D01*
X63574Y-49022D02*
X64732Y-49022D01*
X64732Y-49022D02*
X64732Y-49402D01*
X68781Y-56315D02*
X69939Y-56315D01*
X69939Y-56315D02*
X69939Y-56695D01*
X69939Y-56695D02*
X68781Y-56695D01*
X68781Y-56695D02*
X68781Y-56315D01*
X75798Y-47920D02*
X76956Y-47920D01*
X76956Y-47920D02*
X76956Y-48300D01*
X76956Y-48300D02*
X75798Y-48300D01*
X75798Y-48300D02*
X75798Y-47920D01*
X72232Y-48319D02*
X71074Y-48319D01*
X71074Y-48319D02*
X71074Y-47939D01*
X71074Y-47939D02*
X72232Y-47939D01*
X72232Y-47939D02*
X72232Y-48319D01*
X72001Y-49381D02*
X72001Y-50539D01*
X72001Y-50539D02*
X71621Y-50539D01*
X71621Y-50539D02*
X71621Y-49381D01*
X71621Y-49381D02*
X72001Y-49381D01*
X73890Y-51468D02*
X73890Y-52626D01*
X73890Y-52626D02*
X73510Y-52626D01*
X73510Y-52626D02*
X73510Y-51468D01*
X73510Y-51468D02*
X73890Y-51468D01*
X74402Y-51468D02*
X74402Y-52626D01*
X74402Y-52626D02*
X74022Y-52626D01*
X74022Y-52626D02*
X74022Y-51468D01*
X74022Y-51468D02*
X74402Y-51468D01*
X72616Y-50859D02*
X71458Y-50859D01*
X71458Y-50859D02*
X71458Y-50479D01*
X71458Y-50479D02*
X72616Y-50479D01*
X72616Y-50479D02*
X72616Y-50859D01*
X75798Y-48432D02*
X76956Y-48432D01*
X76956Y-48432D02*
X76956Y-48812D01*
X76956Y-48812D02*
X75798Y-48812D01*
X75798Y-48812D02*
X75798Y-48432D01*
X73215Y-47311D02*
X73215Y-46153D01*
X73215Y-46153D02*
X73595Y-46153D01*
X73595Y-46153D02*
X73595Y-47311D01*
X73595Y-47311D02*
X73215Y-47311D01*
X72232Y-48812D02*
X71074Y-48812D01*
X71074Y-48812D02*
X71074Y-48432D01*
X71074Y-48432D02*
X72232Y-48432D01*
X72232Y-48432D02*
X72232Y-48812D01*
X74357Y-47311D02*
X74357Y-46153D01*
X74357Y-46153D02*
X74737Y-46153D01*
X74737Y-46153D02*
X74737Y-47311D01*
X74737Y-47311D02*
X74357Y-47311D01*
X74514Y-53138D02*
X74514Y-51980D01*
X74514Y-51980D02*
X74894Y-51980D01*
X74894Y-51980D02*
X74894Y-53138D01*
X74894Y-53138D02*
X74514Y-53138D01*
X68869Y-47939D02*
X70027Y-47939D01*
X70027Y-47939D02*
X70027Y-48319D01*
X70027Y-48319D02*
X68869Y-48319D01*
X68869Y-48319D02*
X68869Y-47939D01*
X64888Y-48453D02*
X64888Y-47295D01*
X64888Y-47295D02*
X65268Y-47295D01*
X65268Y-47295D02*
X65268Y-48453D01*
X65268Y-48453D02*
X64888Y-48453D01*
X65091Y-49381D02*
X65091Y-50539D01*
X65091Y-50539D02*
X64711Y-50539D01*
X64711Y-50539D02*
X64711Y-49381D01*
X64711Y-49381D02*
X65091Y-49381D01*
X66863Y-51448D02*
X66863Y-52606D01*
X66863Y-52606D02*
X66483Y-52606D01*
X66483Y-52606D02*
X66483Y-51448D01*
X66483Y-51448D02*
X66863Y-51448D01*
X67453Y-51448D02*
X67453Y-52606D01*
X67453Y-52606D02*
X67073Y-52606D01*
X67073Y-52606D02*
X67073Y-51448D01*
X67073Y-51448D02*
X67453Y-51448D01*
X64711Y-51464D02*
X64711Y-50306D01*
X64711Y-50306D02*
X65091Y-50306D01*
X65091Y-50306D02*
X65091Y-51464D01*
X65091Y-51464D02*
X64711Y-51464D01*
X68869Y-48432D02*
X70027Y-48432D01*
X70027Y-48432D02*
X70027Y-48812D01*
X70027Y-48812D02*
X68869Y-48812D01*
X68869Y-48812D02*
X68869Y-48432D01*
X66207Y-47330D02*
X66207Y-46172D01*
X66207Y-46172D02*
X66587Y-46172D01*
X66587Y-46172D02*
X66587Y-47330D01*
X66587Y-47330D02*
X66207Y-47330D01*
X67585Y-47330D02*
X67585Y-46172D01*
X67585Y-46172D02*
X67965Y-46172D01*
X67965Y-46172D02*
X67965Y-47330D01*
X67965Y-47330D02*
X67585Y-47330D01*
X64732Y-48910D02*
X63574Y-48910D01*
X63574Y-48910D02*
X63574Y-48530D01*
X63574Y-48530D02*
X64732Y-48530D01*
X64732Y-48530D02*
X64732Y-48910D01*
X67546Y-53118D02*
X67546Y-51960D01*
X67546Y-51960D02*
X67926Y-51960D01*
X67926Y-51960D02*
X67926Y-53118D01*
X67926Y-53118D02*
X67546Y-53118D01*
X51443Y-54358D02*
X51443Y-53200D01*
X51443Y-53200D02*
X51823Y-53200D01*
X51823Y-53200D02*
X51823Y-54358D01*
X51823Y-54358D02*
X51443Y-54358D01*
X47768Y-53712D02*
X47768Y-54870D01*
X47768Y-54870D02*
X47388Y-54870D01*
X47388Y-54870D02*
X47388Y-53712D01*
X47388Y-53712D02*
X47768Y-53712D01*
X47276Y-55287D02*
X47276Y-56445D01*
X47276Y-56445D02*
X46896Y-56445D01*
X46896Y-56445D02*
X46896Y-55287D01*
X46896Y-55287D02*
X47276Y-55287D01*
X49382Y-56970D02*
X49382Y-58128D01*
X49382Y-58128D02*
X49002Y-58128D01*
X49002Y-58128D02*
X49002Y-56970D01*
X49002Y-56970D02*
X49382Y-56970D01*
X48707Y-53197D02*
X48707Y-52039D01*
X48707Y-52039D02*
X49087Y-52039D01*
X49087Y-52039D02*
X49087Y-53197D01*
X49087Y-53197D02*
X48707Y-53197D01*
X47768Y-55700D02*
X47768Y-56858D01*
X47768Y-56858D02*
X47388Y-56858D01*
X47388Y-56858D02*
X47388Y-55700D01*
X47388Y-55700D02*
X47768Y-55700D01*
X52315Y-52688D02*
X52315Y-53846D01*
X52315Y-53846D02*
X51935Y-53846D01*
X51935Y-53846D02*
X51935Y-52688D01*
X51935Y-52688D02*
X52315Y-52688D01*
X50184Y-53197D02*
X50184Y-52039D01*
X50184Y-52039D02*
X50564Y-52039D01*
X50564Y-52039D02*
X50564Y-53197D01*
X50564Y-53197D02*
X50184Y-53197D01*
X46896Y-55382D02*
X46896Y-54224D01*
X46896Y-54224D02*
X47276Y-54224D01*
X47276Y-54224D02*
X47276Y-55382D01*
X47276Y-55382D02*
X46896Y-55382D01*
X46896Y-57370D02*
X46896Y-56212D01*
X46896Y-56212D02*
X47276Y-56212D01*
X47276Y-56212D02*
X47276Y-57370D01*
X47276Y-57370D02*
X46896Y-57370D01*
X51655Y-55823D02*
X52813Y-55823D01*
X52813Y-55823D02*
X52813Y-56203D01*
X52813Y-56203D02*
X51655Y-56203D01*
X51655Y-56203D02*
X51655Y-55823D01*
X44432Y-54358D02*
X44432Y-53200D01*
X44432Y-53200D02*
X44812Y-53200D01*
X44812Y-53200D02*
X44812Y-54358D01*
X44812Y-54358D02*
X44432Y-54358D01*
X40623Y-53712D02*
X40623Y-54870D01*
X40623Y-54870D02*
X40243Y-54870D01*
X40243Y-54870D02*
X40243Y-53712D01*
X40243Y-53712D02*
X40623Y-53712D01*
X40130Y-55287D02*
X40130Y-56445D01*
X40130Y-56445D02*
X39750Y-56445D01*
X39750Y-56445D02*
X39750Y-55287D01*
X39750Y-55287D02*
X40130Y-55287D01*
X45288Y-55031D02*
X45288Y-56189D01*
X45288Y-56189D02*
X44908Y-56189D01*
X44908Y-56189D02*
X44908Y-55031D01*
X44908Y-55031D02*
X45288Y-55031D01*
X44908Y-57114D02*
X44908Y-55956D01*
X44908Y-55956D02*
X45288Y-55956D01*
X45288Y-55956D02*
X45288Y-57114D01*
X45288Y-57114D02*
X44908Y-57114D01*
X43097Y-47330D02*
X43097Y-46172D01*
X43097Y-46172D02*
X43477Y-46172D01*
X43477Y-46172D02*
X43477Y-47330D01*
X43477Y-47330D02*
X43097Y-47330D01*
X43741Y-52890D02*
X44899Y-52890D01*
X44899Y-52890D02*
X44899Y-53270D01*
X44899Y-53270D02*
X43741Y-53270D01*
X43741Y-53270D02*
X43741Y-52890D01*
X41581Y-53019D02*
X41581Y-51861D01*
X41581Y-51861D02*
X41961Y-51861D01*
X41961Y-51861D02*
X41961Y-53019D01*
X41961Y-53019D02*
X41581Y-53019D01*
X39750Y-55382D02*
X39750Y-54224D01*
X39750Y-54224D02*
X40130Y-54224D01*
X40130Y-54224D02*
X40130Y-55382D01*
X40130Y-55382D02*
X39750Y-55382D01*
X39750Y-57370D02*
X39750Y-56212D01*
X39750Y-56212D02*
X40130Y-56212D01*
X40130Y-56212D02*
X40130Y-57370D01*
X40130Y-57370D02*
X39750Y-57370D01*
X42473Y-56891D02*
X42473Y-58049D01*
X42473Y-58049D02*
X42093Y-58049D01*
X42093Y-58049D02*
X42093Y-56891D01*
X42093Y-56891D02*
X42473Y-56891D01*
X51645Y-47939D02*
X52803Y-47939D01*
X52803Y-47939D02*
X52803Y-48319D01*
X52803Y-48319D02*
X51645Y-48319D01*
X51645Y-48319D02*
X51645Y-47939D01*
X47744Y-48319D02*
X46586Y-48319D01*
X46586Y-48319D02*
X46586Y-47939D01*
X46586Y-47939D02*
X47744Y-47939D01*
X47744Y-47939D02*
X47744Y-48319D01*
X47296Y-49381D02*
X47296Y-50539D01*
X47296Y-50539D02*
X46916Y-50539D01*
X46916Y-50539D02*
X46916Y-49381D01*
X46916Y-49381D02*
X47296Y-49381D01*
X49579Y-51527D02*
X49579Y-52685D01*
X49579Y-52685D02*
X49199Y-52685D01*
X49199Y-52685D02*
X49199Y-51527D01*
X49199Y-51527D02*
X49579Y-51527D01*
X50071Y-51527D02*
X50071Y-52685D01*
X50071Y-52685D02*
X49691Y-52685D01*
X49691Y-52685D02*
X49691Y-51527D01*
X49691Y-51527D02*
X50071Y-51527D01*
X47788Y-49795D02*
X47788Y-50953D01*
X47788Y-50953D02*
X47408Y-50953D01*
X47408Y-50953D02*
X47408Y-49795D01*
X47408Y-49795D02*
X47788Y-49795D01*
X51645Y-48432D02*
X52803Y-48432D01*
X52803Y-48432D02*
X52803Y-48812D01*
X52803Y-48812D02*
X51645Y-48812D01*
X51645Y-48812D02*
X51645Y-48432D01*
X49160Y-47330D02*
X49160Y-46172D01*
X49160Y-46172D02*
X49540Y-46172D01*
X49540Y-46172D02*
X49540Y-47330D01*
X49540Y-47330D02*
X49160Y-47330D01*
X48595Y-51537D02*
X48595Y-52695D01*
X48595Y-52695D02*
X48215Y-52695D01*
X48215Y-52695D02*
X48215Y-51537D01*
X48215Y-51537D02*
X48595Y-51537D01*
X47744Y-48812D02*
X46586Y-48812D01*
X46586Y-48812D02*
X46586Y-48432D01*
X46586Y-48432D02*
X47744Y-48432D01*
X47744Y-48432D02*
X47744Y-48812D01*
X51537Y-50213D02*
X52695Y-50213D01*
X52695Y-50213D02*
X52695Y-50593D01*
X52695Y-50593D02*
X51537Y-50593D01*
X51537Y-50593D02*
X51537Y-50213D01*
X44460Y-47939D02*
X45618Y-47939D01*
X45618Y-47939D02*
X45618Y-48319D01*
X45618Y-48319D02*
X44460Y-48319D01*
X44460Y-48319D02*
X44460Y-47939D01*
X40697Y-48319D02*
X39539Y-48319D01*
X39539Y-48319D02*
X39539Y-47939D01*
X39539Y-47939D02*
X40697Y-47939D01*
X40697Y-47939D02*
X40697Y-48319D01*
X40160Y-49155D02*
X40160Y-50313D01*
X40160Y-50313D02*
X39780Y-50313D01*
X39780Y-50313D02*
X39780Y-49155D01*
X39780Y-49155D02*
X40160Y-49155D01*
X42453Y-51350D02*
X42453Y-52508D01*
X42453Y-52508D02*
X42073Y-52508D01*
X42073Y-52508D02*
X42073Y-51350D01*
X42073Y-51350D02*
X42453Y-51350D01*
X43024Y-51350D02*
X43024Y-52508D01*
X43024Y-52508D02*
X42644Y-52508D01*
X42644Y-52508D02*
X42644Y-51350D01*
X42644Y-51350D02*
X43024Y-51350D01*
X44460Y-50105D02*
X45618Y-50105D01*
X45618Y-50105D02*
X45618Y-50485D01*
X45618Y-50485D02*
X44460Y-50485D01*
X44460Y-50485D02*
X44460Y-50105D01*
X44460Y-48432D02*
X45618Y-48432D01*
X45618Y-48432D02*
X45618Y-48812D01*
X45618Y-48812D02*
X44460Y-48812D01*
X44460Y-48812D02*
X44460Y-48432D01*
X43136Y-53019D02*
X43136Y-51861D01*
X43136Y-51861D02*
X43516Y-51861D01*
X43516Y-51861D02*
X43516Y-53019D01*
X43516Y-53019D02*
X43136Y-53019D01*
X40697Y-48812D02*
X39539Y-48812D01*
X39539Y-48812D02*
X39539Y-48432D01*
X39539Y-48432D02*
X40697Y-48432D01*
X40697Y-48432D02*
X40697Y-48812D01*
X40987Y-50464D02*
X40987Y-51622D01*
X40987Y-51622D02*
X40607Y-51622D01*
X40607Y-51622D02*
X40607Y-50464D01*
X40607Y-50464D02*
X40987Y-50464D01*
X41758Y-47330D02*
X41758Y-46172D01*
X41758Y-46172D02*
X42138Y-46172D01*
X42138Y-46172D02*
X42138Y-47330D01*
X42138Y-47330D02*
X41758Y-47330D01*
X69967Y-40775D02*
X69967Y-39617D01*
X69967Y-39617D02*
X70741Y-39617D01*
X70741Y-39617D02*
X70741Y-40775D01*
X70741Y-40775D02*
X69967Y-40775D01*
X70072Y-39617D02*
X70072Y-40775D01*
X70072Y-40775D02*
X69298Y-40775D01*
X69298Y-40775D02*
X69298Y-39617D01*
X69298Y-39617D02*
X70072Y-39617D01*
X76494Y-39668D02*
X75336Y-39668D01*
X75336Y-39668D02*
X75336Y-39288D01*
X75336Y-39288D02*
X76494Y-39288D01*
X76494Y-39288D02*
X76494Y-39668D01*
X74890Y-38733D02*
X73732Y-38733D01*
X73732Y-38733D02*
X73732Y-37959D01*
X73732Y-37959D02*
X74890Y-37959D01*
X74890Y-37959D02*
X74890Y-38733D01*
X75070Y-37959D02*
X76228Y-37959D01*
X76228Y-37959D02*
X76228Y-38733D01*
X76228Y-38733D02*
X75070Y-38733D01*
X75070Y-38733D02*
X75070Y-37959D01*
X58633Y-59199D02*
X59791Y-59199D01*
X59791Y-59199D02*
X59791Y-59973D01*
X59791Y-59973D02*
X58633Y-59973D01*
X58633Y-59973D02*
X58633Y-59199D01*
X58633Y-58609D02*
X59791Y-58609D01*
X59791Y-58609D02*
X59791Y-59383D01*
X59791Y-59383D02*
X58633Y-59383D01*
X58633Y-59383D02*
X58633Y-58609D01*
X68319Y-40877D02*
X68319Y-42035D01*
X68319Y-42035D02*
X67939Y-42035D01*
X67939Y-42035D02*
X67939Y-40877D01*
X67939Y-40877D02*
X68319Y-40877D01*
X70539Y-43339D02*
X69381Y-43339D01*
X69381Y-43339D02*
X69381Y-42565D01*
X69381Y-42565D02*
X70539Y-42565D01*
X70539Y-42565D02*
X70539Y-43339D01*
X76123Y-34888D02*
X77281Y-34888D01*
X77281Y-34888D02*
X77281Y-35662D01*
X77281Y-35662D02*
X76123Y-35662D01*
X76123Y-35662D02*
X76123Y-34888D01*
X45439Y-27390D02*
X45439Y-26232D01*
X45439Y-26232D02*
X45819Y-26232D01*
X45819Y-26232D02*
X45819Y-27390D01*
X45819Y-27390D02*
X45439Y-27390D01*
X69691Y-27390D02*
X69691Y-26232D01*
X69691Y-26232D02*
X70071Y-26232D01*
X70071Y-26232D02*
X70071Y-27390D01*
X70071Y-27390D02*
X69691Y-27390D01*
X71528Y-55287D02*
X71528Y-56445D01*
X71528Y-56445D02*
X71148Y-56445D01*
X71148Y-56445D02*
X71148Y-55287D01*
X71148Y-55287D02*
X71528Y-55287D01*
X46784Y-55287D02*
X46784Y-56445D01*
X46784Y-56445D02*
X46404Y-56445D01*
X46404Y-56445D02*
X46404Y-55287D01*
X46404Y-55287D02*
X46784Y-55287D01*
X52506Y-27390D02*
X52506Y-26232D01*
X52506Y-26232D02*
X52886Y-26232D01*
X52886Y-26232D02*
X52886Y-27390D01*
X52886Y-27390D02*
X52506Y-27390D01*
X76483Y-27390D02*
X76483Y-26232D01*
X76483Y-26232D02*
X76863Y-26232D01*
X76863Y-26232D02*
X76863Y-27390D01*
X76863Y-27390D02*
X76483Y-27390D01*
X64461Y-55287D02*
X64461Y-56445D01*
X64461Y-56445D02*
X64081Y-56445D01*
X64081Y-56445D02*
X64081Y-55287D01*
X64081Y-55287D02*
X64461Y-55287D01*
X39638Y-55287D02*
X39638Y-56445D01*
X39638Y-56445D02*
X39258Y-56445D01*
X39258Y-56445D02*
X39258Y-55287D01*
X39258Y-55287D02*
X39638Y-55287D01*
X45361Y-33275D02*
X45361Y-32117D01*
X45361Y-32117D02*
X45741Y-32117D01*
X45741Y-32117D02*
X45741Y-33275D01*
X45741Y-33275D02*
X45361Y-33275D01*
X69731Y-33295D02*
X69731Y-32137D01*
X69731Y-32137D02*
X70111Y-32137D01*
X70111Y-32137D02*
X70111Y-33295D01*
X70111Y-33295D02*
X69731Y-33295D01*
X71508Y-49381D02*
X71508Y-50539D01*
X71508Y-50539D02*
X71128Y-50539D01*
X71128Y-50539D02*
X71128Y-49381D01*
X71128Y-49381D02*
X71508Y-49381D01*
X46804Y-49381D02*
X46804Y-50539D01*
X46804Y-50539D02*
X46424Y-50539D01*
X46424Y-50539D02*
X46424Y-49381D01*
X46424Y-49381D02*
X46804Y-49381D01*
X51837Y-32783D02*
X51837Y-31625D01*
X51837Y-31625D02*
X52217Y-31625D01*
X52217Y-31625D02*
X52217Y-32783D01*
X52217Y-32783D02*
X51837Y-32783D01*
X76310Y-32762D02*
X77468Y-32762D01*
X77468Y-32762D02*
X77468Y-33142D01*
X77468Y-33142D02*
X76310Y-33142D01*
X76310Y-33142D02*
X76310Y-32762D01*
X64599Y-49381D02*
X64599Y-50539D01*
X64599Y-50539D02*
X64219Y-50539D01*
X64219Y-50539D02*
X64219Y-49381D01*
X64219Y-49381D02*
X64599Y-49381D01*
X39668Y-49155D02*
X39668Y-50313D01*
X39668Y-50313D02*
X39288Y-50313D01*
X39288Y-50313D02*
X39288Y-49155D01*
X39288Y-49155D02*
X39668Y-49155D01*
X73438Y-36901D02*
X73438Y-38059D01*
X73438Y-38059D02*
X72664Y-38059D01*
X72664Y-38059D02*
X72664Y-36901D01*
X72664Y-36901D02*
X73438Y-36901D01*
X76896Y-34988D02*
X76896Y-33830D01*
X76896Y-33830D02*
X77670Y-33830D01*
X77670Y-33830D02*
X77670Y-34988D01*
X77670Y-34988D02*
X76896Y-34988D01*
X68668Y-43197D02*
X68668Y-42039D01*
X68668Y-42039D02*
X69442Y-42039D01*
X69442Y-42039D02*
X69442Y-43197D01*
X69442Y-43197D02*
X68668Y-43197D01*
X57803Y-23544D02*
X56645Y-23544D01*
X56645Y-23544D02*
X56645Y-22770D01*
X56645Y-22770D02*
X57803Y-22770D01*
X57803Y-22770D02*
X57803Y-23544D01*
X57803Y-24103D02*
X56645Y-24103D01*
X56645Y-24103D02*
X56645Y-23329D01*
X56645Y-23329D02*
X57803Y-23329D01*
X57803Y-23329D02*
X57803Y-24103D01*
X43103Y-23358D02*
X43103Y-24516D01*
X43103Y-24516D02*
X42723Y-24516D01*
X42723Y-24516D02*
X42723Y-23358D01*
X42723Y-23358D02*
X43103Y-23358D01*
X49165Y-23963D02*
X50323Y-23963D01*
X50323Y-23963D02*
X50323Y-24343D01*
X50323Y-24343D02*
X49165Y-24343D01*
X49165Y-24343D02*
X49165Y-23963D01*
X41960Y-30656D02*
X43118Y-30656D01*
X43118Y-30656D02*
X43118Y-31036D01*
X43118Y-31036D02*
X41960Y-31036D01*
X41960Y-31036D02*
X41960Y-30656D01*
X50047Y-31075D02*
X48889Y-31075D01*
X48889Y-31075D02*
X48889Y-30695D01*
X48889Y-30695D02*
X50047Y-30695D01*
X50047Y-30695D02*
X50047Y-31075D01*
X66906Y-23945D02*
X66906Y-22787D01*
X66906Y-22787D02*
X67286Y-22787D01*
X67286Y-22787D02*
X67286Y-23945D01*
X67286Y-23945D02*
X66906Y-23945D01*
X73436Y-24278D02*
X74594Y-24278D01*
X74594Y-24278D02*
X74594Y-24658D01*
X74594Y-24658D02*
X73436Y-24658D01*
X73436Y-24658D02*
X73436Y-24278D01*
X67390Y-30091D02*
X66232Y-30091D01*
X66232Y-30091D02*
X66232Y-29711D01*
X66232Y-29711D02*
X67390Y-29711D01*
X67390Y-29711D02*
X67390Y-30091D01*
X73358Y-29770D02*
X74516Y-29770D01*
X74516Y-29770D02*
X74516Y-30150D01*
X74516Y-30150D02*
X73358Y-30150D01*
X73358Y-30150D02*
X73358Y-29770D01*
X74437Y-58674D02*
X73279Y-58674D01*
X73279Y-58674D02*
X73279Y-58294D01*
X73279Y-58294D02*
X74437Y-58294D01*
X74437Y-58294D02*
X74437Y-58674D01*
X67823Y-59186D02*
X66665Y-59186D01*
X66665Y-59186D02*
X66665Y-58806D01*
X66665Y-58806D02*
X67823Y-58806D01*
X67823Y-58806D02*
X67823Y-59186D01*
X73377Y-52585D02*
X74535Y-52585D01*
X74535Y-52585D02*
X74535Y-52965D01*
X74535Y-52965D02*
X73377Y-52965D01*
X73377Y-52965D02*
X73377Y-52585D01*
X68418Y-51448D02*
X68418Y-52606D01*
X68418Y-52606D02*
X68038Y-52606D01*
X68038Y-52606D02*
X68038Y-51448D01*
X68038Y-51448D02*
X68418Y-51448D01*
X48983Y-59279D02*
X48983Y-58121D01*
X48983Y-58121D02*
X49363Y-58121D01*
X49363Y-58121D02*
X49363Y-59279D01*
X49363Y-59279D02*
X48983Y-59279D01*
X44156Y-58663D02*
X44156Y-59821D01*
X44156Y-59821D02*
X43776Y-59821D01*
X43776Y-59821D02*
X43776Y-58663D01*
X43776Y-58663D02*
X44156Y-58663D01*
X49066Y-52644D02*
X50224Y-52644D01*
X50224Y-52644D02*
X50224Y-53024D01*
X50224Y-53024D02*
X49066Y-53024D01*
X49066Y-53024D02*
X49066Y-52644D01*
X44008Y-51350D02*
X44008Y-52508D01*
X44008Y-52508D02*
X43628Y-52508D01*
X43628Y-52508D02*
X43628Y-51350D01*
X43628Y-51350D02*
X44008Y-51350D01*
X70479Y-45401D02*
X70479Y-44243D01*
X70479Y-44243D02*
X70859Y-44243D01*
X70859Y-44243D02*
X70859Y-45401D01*
X70859Y-45401D02*
X70479Y-45401D01*
X70859Y-43328D02*
X70859Y-44486D01*
X70859Y-44486D02*
X70479Y-44486D01*
X70479Y-44486D02*
X70479Y-43328D01*
X70479Y-43328D02*
X70859Y-43328D01*
X68792Y-43338D02*
X68792Y-44496D01*
X68792Y-44496D02*
X68018Y-44496D01*
X68018Y-44496D02*
X68018Y-43338D01*
X68018Y-43338D02*
X68792Y-43338D01*
X69560Y-43338D02*
X69560Y-44496D01*
X69560Y-44496D02*
X68786Y-44496D01*
X68786Y-44496D02*
X68786Y-43338D01*
X68786Y-43338D02*
X69560Y-43338D01*
M02*
