G04 (created by PCBNEW (2013-mar-13)-testing) date Tue 25 Jun 2013 12:04:39 AM ICT*
%MOIN*%
G04 Gerber Fmt 3.4, Leading zero omitted, Abs format*
%FSLAX34Y34*%
G01*
G70*
G90*
G04 APERTURE LIST*
%ADD10C,0.00393701*%
G04 APERTURE END LIST*
G54D10*
X38779Y-61023D02*
X78149Y-61023D01*
X78149Y-61023D02*
X78149Y-21653D01*
X78149Y-21653D02*
X38779Y-21653D01*
X38779Y-21653D02*
X38779Y-61023D01*
G36*
X41792Y-23521D02*
X41789Y-23752D01*
X41743Y-23954D01*
X41661Y-24139D01*
X41541Y-24308D01*
X41395Y-24448D01*
X41219Y-24559D01*
X41031Y-24632D01*
X40827Y-24668D01*
X40625Y-24664D01*
X40422Y-24619D01*
X40237Y-24538D01*
X40066Y-24420D01*
X39926Y-24275D01*
X39813Y-24100D01*
X39739Y-23912D01*
X39702Y-23708D01*
X39704Y-23506D01*
X39748Y-23303D01*
X39827Y-23117D01*
X39945Y-22946D01*
X40089Y-22805D01*
X40263Y-22691D01*
X40450Y-22615D01*
X40654Y-22576D01*
X40855Y-22578D01*
X41060Y-22620D01*
X41245Y-22697D01*
X41418Y-22814D01*
X41560Y-22957D01*
X41675Y-23131D01*
X41752Y-23316D01*
X41792Y-23521D01*
X41792Y-23521D01*
G37*
G36*
X41792Y-58954D02*
X41789Y-59185D01*
X41743Y-59387D01*
X41661Y-59572D01*
X41541Y-59741D01*
X41395Y-59881D01*
X41219Y-59992D01*
X41031Y-60065D01*
X40827Y-60101D01*
X40625Y-60097D01*
X40422Y-60052D01*
X40237Y-59971D01*
X40066Y-59853D01*
X39926Y-59708D01*
X39813Y-59533D01*
X39739Y-59345D01*
X39702Y-59141D01*
X39704Y-58939D01*
X39748Y-58736D01*
X39827Y-58551D01*
X39945Y-58379D01*
X40089Y-58238D01*
X40263Y-58124D01*
X40450Y-58048D01*
X40654Y-58009D01*
X40855Y-58011D01*
X41060Y-58053D01*
X41245Y-58131D01*
X41418Y-58247D01*
X41560Y-58390D01*
X41675Y-58564D01*
X41752Y-58749D01*
X41792Y-58954D01*
X41792Y-58954D01*
G37*
G36*
X44547Y-29586D02*
X40491Y-29586D01*
X40491Y-25531D01*
X44547Y-25531D01*
X44547Y-29586D01*
X44547Y-29586D01*
G37*
G36*
X44547Y-35492D02*
X40491Y-35492D01*
X40491Y-31436D01*
X44547Y-31436D01*
X44547Y-35492D01*
X44547Y-35492D01*
G37*
G36*
X44547Y-51240D02*
X40491Y-51240D01*
X40491Y-47184D01*
X44547Y-47184D01*
X44547Y-51240D01*
X44547Y-51240D01*
G37*
G36*
X44547Y-57146D02*
X40491Y-57146D01*
X40491Y-53090D01*
X44547Y-53090D01*
X44547Y-57146D01*
X44547Y-57146D01*
G37*
G36*
X44726Y-39962D02*
X44726Y-39966D01*
X44725Y-39969D01*
X44725Y-39970D01*
X44715Y-40061D01*
X44715Y-40061D01*
X44715Y-40062D01*
X44687Y-40149D01*
X44642Y-40230D01*
X44583Y-40301D01*
X44511Y-40359D01*
X44430Y-40402D01*
X44341Y-40428D01*
X44249Y-40436D01*
X44157Y-40426D01*
X44069Y-40399D01*
X43988Y-40355D01*
X43917Y-40296D01*
X43858Y-40225D01*
X43815Y-40143D01*
X43788Y-40055D01*
X43779Y-39959D01*
X43779Y-39955D01*
X43779Y-39952D01*
X43779Y-39952D01*
X43790Y-39860D01*
X43790Y-39860D01*
X43790Y-39860D01*
X43817Y-39772D01*
X43862Y-39691D01*
X43921Y-39620D01*
X43993Y-39562D01*
X44075Y-39520D01*
X44164Y-39494D01*
X44255Y-39485D01*
X44347Y-39495D01*
X44435Y-39522D01*
X44517Y-39566D01*
X44588Y-39625D01*
X44646Y-39697D01*
X44690Y-39778D01*
X44716Y-39866D01*
X44726Y-39962D01*
X44726Y-39962D01*
G37*
G36*
X44726Y-41615D02*
X44726Y-41619D01*
X44725Y-41622D01*
X44725Y-41623D01*
X44715Y-41714D01*
X44715Y-41714D01*
X44715Y-41715D01*
X44687Y-41802D01*
X44642Y-41883D01*
X44583Y-41954D01*
X44511Y-42012D01*
X44430Y-42055D01*
X44341Y-42081D01*
X44249Y-42089D01*
X44157Y-42079D01*
X44069Y-42052D01*
X43988Y-42008D01*
X43917Y-41949D01*
X43858Y-41878D01*
X43815Y-41796D01*
X43788Y-41708D01*
X43779Y-41612D01*
X43779Y-41608D01*
X43779Y-41605D01*
X43779Y-41605D01*
X43790Y-41513D01*
X43790Y-41513D01*
X43790Y-41513D01*
X43817Y-41425D01*
X43862Y-41344D01*
X43921Y-41273D01*
X43993Y-41215D01*
X44075Y-41173D01*
X44164Y-41147D01*
X44255Y-41138D01*
X44347Y-41148D01*
X44435Y-41175D01*
X44517Y-41219D01*
X44588Y-41278D01*
X44646Y-41350D01*
X44690Y-41431D01*
X44716Y-41519D01*
X44726Y-41615D01*
X44726Y-41615D01*
G37*
G36*
X44726Y-43268D02*
X44726Y-43272D01*
X44725Y-43275D01*
X44725Y-43276D01*
X44715Y-43367D01*
X44715Y-43367D01*
X44715Y-43368D01*
X44687Y-43455D01*
X44642Y-43536D01*
X44583Y-43607D01*
X44511Y-43665D01*
X44430Y-43708D01*
X44341Y-43734D01*
X44249Y-43742D01*
X44157Y-43732D01*
X44069Y-43705D01*
X43988Y-43661D01*
X43917Y-43602D01*
X43858Y-43531D01*
X43815Y-43449D01*
X43788Y-43361D01*
X43779Y-43265D01*
X43779Y-43261D01*
X43779Y-43258D01*
X43779Y-43258D01*
X43790Y-43166D01*
X43790Y-43166D01*
X43790Y-43166D01*
X43817Y-43078D01*
X43862Y-42997D01*
X43921Y-42926D01*
X43993Y-42868D01*
X44075Y-42826D01*
X44164Y-42800D01*
X44255Y-42791D01*
X44347Y-42801D01*
X44435Y-42828D01*
X44517Y-42872D01*
X44588Y-42931D01*
X44646Y-43003D01*
X44690Y-43084D01*
X44716Y-43172D01*
X44726Y-43268D01*
X44726Y-43268D01*
G37*
G36*
X46378Y-39962D02*
X46378Y-39966D01*
X46377Y-39969D01*
X46377Y-39970D01*
X46367Y-40061D01*
X46367Y-40061D01*
X46367Y-40062D01*
X46339Y-40149D01*
X46294Y-40230D01*
X46235Y-40301D01*
X46163Y-40359D01*
X46082Y-40402D01*
X45993Y-40428D01*
X45901Y-40436D01*
X45809Y-40426D01*
X45721Y-40399D01*
X45640Y-40355D01*
X45569Y-40296D01*
X45510Y-40225D01*
X45467Y-40143D01*
X45440Y-40055D01*
X45431Y-39959D01*
X45431Y-39955D01*
X45431Y-39952D01*
X45431Y-39952D01*
X45442Y-39860D01*
X45442Y-39860D01*
X45442Y-39860D01*
X45469Y-39772D01*
X45514Y-39691D01*
X45573Y-39620D01*
X45645Y-39562D01*
X45727Y-39520D01*
X45816Y-39494D01*
X45907Y-39485D01*
X45999Y-39495D01*
X46087Y-39522D01*
X46169Y-39566D01*
X46240Y-39625D01*
X46298Y-39697D01*
X46342Y-39778D01*
X46368Y-39866D01*
X46378Y-39962D01*
X46378Y-39962D01*
G37*
G36*
X46378Y-41615D02*
X46378Y-41619D01*
X46377Y-41622D01*
X46377Y-41623D01*
X46367Y-41714D01*
X46367Y-41714D01*
X46367Y-41715D01*
X46339Y-41802D01*
X46294Y-41883D01*
X46235Y-41954D01*
X46163Y-42012D01*
X46082Y-42055D01*
X45993Y-42081D01*
X45901Y-42089D01*
X45809Y-42079D01*
X45721Y-42052D01*
X45640Y-42008D01*
X45569Y-41949D01*
X45510Y-41878D01*
X45467Y-41796D01*
X45440Y-41708D01*
X45431Y-41612D01*
X45431Y-41608D01*
X45431Y-41605D01*
X45431Y-41605D01*
X45442Y-41513D01*
X45442Y-41513D01*
X45442Y-41513D01*
X45469Y-41425D01*
X45514Y-41344D01*
X45573Y-41273D01*
X45645Y-41215D01*
X45727Y-41173D01*
X45816Y-41147D01*
X45907Y-41138D01*
X45999Y-41148D01*
X46087Y-41175D01*
X46169Y-41219D01*
X46240Y-41278D01*
X46298Y-41350D01*
X46342Y-41431D01*
X46368Y-41519D01*
X46378Y-41615D01*
X46378Y-41615D01*
G37*
G36*
X46378Y-43268D02*
X46378Y-43272D01*
X46377Y-43275D01*
X46377Y-43276D01*
X46367Y-43367D01*
X46367Y-43367D01*
X46367Y-43368D01*
X46339Y-43455D01*
X46294Y-43536D01*
X46235Y-43607D01*
X46163Y-43665D01*
X46082Y-43708D01*
X45993Y-43734D01*
X45901Y-43742D01*
X45809Y-43732D01*
X45721Y-43705D01*
X45640Y-43661D01*
X45569Y-43602D01*
X45510Y-43531D01*
X45467Y-43449D01*
X45440Y-43361D01*
X45431Y-43265D01*
X45431Y-43261D01*
X45431Y-43258D01*
X45431Y-43258D01*
X45442Y-43166D01*
X45442Y-43166D01*
X45442Y-43166D01*
X45469Y-43078D01*
X45514Y-42997D01*
X45573Y-42926D01*
X45645Y-42868D01*
X45727Y-42826D01*
X45816Y-42800D01*
X45907Y-42791D01*
X45999Y-42801D01*
X46087Y-42828D01*
X46169Y-42872D01*
X46240Y-42931D01*
X46298Y-43003D01*
X46342Y-43084D01*
X46368Y-43172D01*
X46378Y-43268D01*
X46378Y-43268D01*
G37*
G36*
X47107Y-30410D02*
X47104Y-30641D01*
X47058Y-30844D01*
X46976Y-31028D01*
X46856Y-31198D01*
X46710Y-31337D01*
X46534Y-31449D01*
X46346Y-31522D01*
X46141Y-31558D01*
X45940Y-31554D01*
X45737Y-31509D01*
X45552Y-31428D01*
X45381Y-31309D01*
X45241Y-31164D01*
X45128Y-30990D01*
X45054Y-30802D01*
X45017Y-30597D01*
X45019Y-30396D01*
X45063Y-30192D01*
X45142Y-30007D01*
X45260Y-29835D01*
X45404Y-29695D01*
X45578Y-29580D01*
X45764Y-29505D01*
X45969Y-29466D01*
X46170Y-29467D01*
X46375Y-29509D01*
X46560Y-29587D01*
X46733Y-29704D01*
X46875Y-29847D01*
X46990Y-30020D01*
X47067Y-30206D01*
X47107Y-30410D01*
X47107Y-30410D01*
G37*
G36*
X47107Y-52064D02*
X47104Y-52295D01*
X47058Y-52497D01*
X46976Y-52682D01*
X46856Y-52852D01*
X46710Y-52991D01*
X46534Y-53102D01*
X46346Y-53175D01*
X46141Y-53211D01*
X45940Y-53207D01*
X45737Y-53162D01*
X45552Y-53082D01*
X45381Y-52963D01*
X45241Y-52818D01*
X45128Y-52643D01*
X45054Y-52456D01*
X45017Y-52251D01*
X45019Y-52050D01*
X45063Y-51846D01*
X45142Y-51661D01*
X45260Y-51489D01*
X45404Y-51348D01*
X45578Y-51234D01*
X45764Y-51159D01*
X45969Y-51120D01*
X46170Y-51121D01*
X46375Y-51163D01*
X46560Y-51241D01*
X46733Y-51357D01*
X46875Y-51500D01*
X46990Y-51674D01*
X47067Y-51860D01*
X47107Y-52064D01*
X47107Y-52064D01*
G37*
G36*
X51634Y-29586D02*
X47578Y-29586D01*
X47578Y-25531D01*
X51634Y-25531D01*
X51634Y-29586D01*
X51634Y-29586D01*
G37*
G36*
X51634Y-35492D02*
X47578Y-35492D01*
X47578Y-31436D01*
X51634Y-31436D01*
X51634Y-35492D01*
X51634Y-35492D01*
G37*
G36*
X51634Y-51240D02*
X47578Y-51240D01*
X47578Y-47184D01*
X51634Y-47184D01*
X51634Y-51240D01*
X51634Y-51240D01*
G37*
G36*
X51634Y-57146D02*
X47578Y-57146D01*
X47578Y-53090D01*
X51634Y-53090D01*
X51634Y-57146D01*
X51634Y-57146D01*
G37*
G36*
X57933Y-47835D02*
X56751Y-47835D01*
X56751Y-47105D01*
X57933Y-47105D01*
X57933Y-47835D01*
X57933Y-47835D01*
G37*
G36*
X60256Y-35610D02*
X59074Y-35610D01*
X59074Y-34881D01*
X60256Y-34881D01*
X60256Y-35610D01*
X60256Y-35610D01*
G37*
G36*
X65551Y-42205D02*
X64570Y-42205D01*
X64563Y-42205D01*
X64290Y-42205D01*
X64290Y-40964D01*
X65551Y-40964D01*
X65551Y-42205D01*
X65551Y-42205D01*
G37*
G36*
X68957Y-29586D02*
X64901Y-29586D01*
X64901Y-25531D01*
X68957Y-25531D01*
X68957Y-29586D01*
X68957Y-29586D01*
G37*
G36*
X68957Y-35492D02*
X64901Y-35492D01*
X64901Y-31436D01*
X68957Y-31436D01*
X68957Y-35492D01*
X68957Y-35492D01*
G37*
G36*
X68957Y-51240D02*
X64901Y-51240D01*
X64901Y-47184D01*
X68957Y-47184D01*
X68957Y-51240D01*
X68957Y-51240D01*
G37*
G36*
X68957Y-57146D02*
X64901Y-57146D01*
X64901Y-53090D01*
X68957Y-53090D01*
X68957Y-57146D01*
X68957Y-57146D01*
G37*
G36*
X71517Y-30410D02*
X71513Y-30641D01*
X71467Y-30844D01*
X71385Y-31028D01*
X71265Y-31198D01*
X71119Y-31337D01*
X70944Y-31449D01*
X70756Y-31522D01*
X70551Y-31558D01*
X70349Y-31554D01*
X70146Y-31509D01*
X69961Y-31428D01*
X69791Y-31309D01*
X69650Y-31164D01*
X69538Y-30990D01*
X69464Y-30802D01*
X69426Y-30597D01*
X69429Y-30396D01*
X69472Y-30192D01*
X69551Y-30007D01*
X69669Y-29835D01*
X69813Y-29695D01*
X69987Y-29580D01*
X70174Y-29505D01*
X70379Y-29466D01*
X70580Y-29467D01*
X70784Y-29509D01*
X70969Y-29587D01*
X71142Y-29704D01*
X71284Y-29847D01*
X71399Y-30020D01*
X71476Y-30206D01*
X71517Y-30410D01*
X71517Y-30410D01*
G37*
G36*
X71517Y-52064D02*
X71513Y-52295D01*
X71467Y-52497D01*
X71385Y-52682D01*
X71265Y-52852D01*
X71119Y-52991D01*
X70944Y-53102D01*
X70756Y-53175D01*
X70551Y-53211D01*
X70349Y-53207D01*
X70146Y-53162D01*
X69961Y-53082D01*
X69791Y-52963D01*
X69650Y-52818D01*
X69538Y-52643D01*
X69464Y-52456D01*
X69426Y-52251D01*
X69429Y-52050D01*
X69472Y-51846D01*
X69551Y-51661D01*
X69669Y-51489D01*
X69813Y-51348D01*
X69987Y-51234D01*
X70174Y-51159D01*
X70379Y-51120D01*
X70580Y-51121D01*
X70784Y-51163D01*
X70969Y-51241D01*
X71142Y-51357D01*
X71284Y-51500D01*
X71399Y-51674D01*
X71476Y-51860D01*
X71517Y-52064D01*
X71517Y-52064D01*
G37*
G36*
X76043Y-29586D02*
X71987Y-29586D01*
X71987Y-25531D01*
X76043Y-25531D01*
X76043Y-29586D01*
X76043Y-29586D01*
G37*
G36*
X76043Y-35492D02*
X71987Y-35492D01*
X71987Y-31436D01*
X76043Y-31436D01*
X76043Y-35492D01*
X76043Y-35492D01*
G37*
G36*
X76043Y-51240D02*
X71987Y-51240D01*
X71987Y-47184D01*
X76043Y-47184D01*
X76043Y-51240D01*
X76043Y-51240D01*
G37*
G36*
X76043Y-57146D02*
X71987Y-57146D01*
X71987Y-53090D01*
X76043Y-53090D01*
X76043Y-57146D01*
X76043Y-57146D01*
G37*
G36*
X76045Y-40450D02*
X76044Y-40501D01*
X76033Y-40549D01*
X76015Y-40589D01*
X75987Y-40629D01*
X75955Y-40659D01*
X75913Y-40685D01*
X75873Y-40701D01*
X75824Y-40710D01*
X75781Y-40709D01*
X75732Y-40698D01*
X75692Y-40681D01*
X75652Y-40653D01*
X75622Y-40621D01*
X75595Y-40580D01*
X75579Y-40539D01*
X75570Y-40490D01*
X75570Y-40447D01*
X75581Y-40398D01*
X75598Y-40359D01*
X75626Y-40318D01*
X75657Y-40287D01*
X75698Y-40260D01*
X75738Y-40244D01*
X75787Y-40235D01*
X75830Y-40235D01*
X75880Y-40245D01*
X75919Y-40262D01*
X75961Y-40290D01*
X75991Y-40320D01*
X76019Y-40362D01*
X76035Y-40401D01*
X76045Y-40450D01*
X76045Y-40450D01*
G37*
G36*
X76045Y-42182D02*
X76044Y-42233D01*
X76033Y-42281D01*
X76015Y-42321D01*
X75987Y-42361D01*
X75955Y-42391D01*
X75913Y-42417D01*
X75873Y-42433D01*
X75824Y-42442D01*
X75781Y-42441D01*
X75732Y-42430D01*
X75692Y-42413D01*
X75652Y-42385D01*
X75622Y-42353D01*
X75595Y-42312D01*
X75579Y-42271D01*
X75570Y-42222D01*
X75570Y-42179D01*
X75581Y-42130D01*
X75598Y-42091D01*
X75626Y-42050D01*
X75657Y-42019D01*
X75698Y-41992D01*
X75738Y-41976D01*
X75787Y-41967D01*
X75830Y-41967D01*
X75880Y-41977D01*
X75919Y-41994D01*
X75961Y-42022D01*
X75991Y-42052D01*
X76019Y-42094D01*
X76035Y-42133D01*
X76045Y-42182D01*
X76045Y-42182D01*
G37*
G36*
X77225Y-23521D02*
X77222Y-23752D01*
X77176Y-23954D01*
X77094Y-24139D01*
X76974Y-24308D01*
X76828Y-24448D01*
X76652Y-24559D01*
X76464Y-24632D01*
X76260Y-24668D01*
X76058Y-24664D01*
X75855Y-24619D01*
X75670Y-24538D01*
X75499Y-24420D01*
X75359Y-24275D01*
X75246Y-24100D01*
X75172Y-23912D01*
X75135Y-23708D01*
X75137Y-23506D01*
X75181Y-23303D01*
X75260Y-23117D01*
X75378Y-22946D01*
X75522Y-22805D01*
X75696Y-22691D01*
X75883Y-22615D01*
X76087Y-22576D01*
X76289Y-22578D01*
X76493Y-22620D01*
X76678Y-22697D01*
X76851Y-22814D01*
X76993Y-22957D01*
X77108Y-23131D01*
X77185Y-23316D01*
X77225Y-23521D01*
X77225Y-23521D01*
G37*
G36*
X77225Y-58954D02*
X77222Y-59185D01*
X77176Y-59387D01*
X77094Y-59572D01*
X76974Y-59741D01*
X76828Y-59881D01*
X76652Y-59992D01*
X76464Y-60065D01*
X76260Y-60101D01*
X76058Y-60097D01*
X75855Y-60052D01*
X75670Y-59971D01*
X75499Y-59853D01*
X75359Y-59708D01*
X75246Y-59533D01*
X75172Y-59345D01*
X75135Y-59141D01*
X75137Y-58939D01*
X75181Y-58736D01*
X75260Y-58551D01*
X75378Y-58379D01*
X75522Y-58238D01*
X75696Y-58124D01*
X75883Y-58048D01*
X76087Y-58009D01*
X76289Y-58011D01*
X76493Y-58053D01*
X76678Y-58131D01*
X76851Y-58247D01*
X76993Y-58390D01*
X77108Y-58564D01*
X77185Y-58749D01*
X77225Y-58954D01*
X77225Y-58954D01*
G37*
M02*
