G04 (created by PCBNEW (2013-mar-13)-testing) date Sat 11 May 2013 01:37:56 PM ICT*
%MOIN*%
G04 Gerber Fmt 3.4, Leading zero omitted, Abs format*
%FSLAX34Y34*%
G01*
G70*
G90*
G04 APERTURE LIST*
%ADD10C,0.00393701*%
%ADD11C,0.16*%
%ADD12C,0.15748*%
%ADD13O,0.0826X0.0826*%
%ADD14C,0.023622*%
%ADD15C,0.019685*%
%ADD16C,0.0118*%
%ADD17C,0.011811*%
%ADD18C,0.00787402*%
G04 APERTURE END LIST*
G54D10*
G54D11*
X46062Y-30511D03*
G54D12*
X40866Y-23740D03*
G54D13*
X44252Y-43267D03*
X44252Y-41614D03*
X44252Y-39961D03*
X45904Y-39961D03*
X45904Y-41614D03*
X45904Y-43267D03*
G54D11*
X76062Y-23740D03*
X76062Y-58937D03*
X40866Y-58937D03*
X70472Y-30511D03*
X46062Y-52165D03*
X70472Y-52165D03*
G54D14*
X62578Y-45610D03*
X64389Y-45610D03*
X57952Y-48267D03*
X56062Y-47480D03*
X59015Y-34429D03*
X61023Y-35314D03*
X62519Y-42559D03*
X65078Y-42559D03*
X68169Y-39507D03*
X68543Y-31299D03*
X73582Y-31299D03*
X68543Y-25275D03*
X66456Y-31299D03*
X73661Y-25275D03*
X66574Y-25275D03*
X42362Y-25275D03*
X47913Y-25275D03*
X47913Y-31279D03*
X42047Y-31259D03*
X49192Y-25275D03*
X49212Y-31279D03*
X68562Y-51437D03*
X68188Y-40669D03*
X67303Y-51437D03*
X68543Y-57283D03*
X74311Y-51377D03*
X74704Y-57283D03*
X67283Y-57303D03*
X50000Y-57303D03*
X44133Y-57303D03*
X44133Y-51417D03*
X49960Y-51476D03*
X42913Y-57381D03*
X69350Y-38582D03*
X72795Y-39370D03*
X69980Y-38956D03*
X72342Y-39370D03*
X77185Y-50925D03*
X68897Y-22185D03*
X68858Y-60531D03*
X77145Y-38346D03*
X77145Y-31751D03*
X77637Y-52145D03*
X70984Y-22185D03*
X71082Y-60531D03*
X77618Y-30531D03*
X77657Y-37893D03*
X74881Y-44901D03*
X75019Y-46614D03*
X67185Y-59527D03*
X68937Y-23169D03*
X69232Y-54546D03*
X44783Y-48640D03*
X42539Y-52341D03*
G54D15*
X74291Y-56003D03*
X74901Y-56003D03*
X74901Y-55413D03*
X74901Y-54822D03*
X74901Y-54232D03*
X74311Y-54232D03*
X74311Y-54822D03*
X73720Y-54822D03*
X73720Y-54232D03*
X73129Y-54233D03*
X73129Y-54822D03*
X73129Y-55413D03*
X73129Y-56003D03*
X73720Y-56003D03*
X73720Y-55413D03*
X74310Y-55413D03*
X67224Y-55413D03*
X74310Y-49507D03*
X67204Y-50098D03*
X67814Y-50098D03*
X67814Y-49507D03*
X67814Y-48917D03*
X67814Y-48326D03*
X67224Y-48326D03*
X67224Y-48917D03*
X66633Y-48917D03*
X66633Y-48326D03*
X66043Y-48327D03*
X66043Y-48917D03*
X66043Y-49507D03*
X66043Y-50098D03*
X66634Y-50098D03*
X66633Y-49507D03*
X67224Y-49507D03*
X49901Y-55423D03*
X42814Y-55423D03*
X49901Y-49517D03*
X42795Y-50108D03*
X43405Y-50108D03*
X43405Y-49517D03*
X43405Y-48927D03*
X43405Y-48336D03*
X42814Y-48336D03*
X42814Y-48927D03*
X42224Y-48927D03*
X42224Y-48336D03*
X41633Y-48337D03*
X41633Y-48927D03*
X41633Y-49517D03*
X41633Y-50108D03*
X42224Y-50108D03*
X42224Y-49517D03*
X42814Y-49517D03*
G54D14*
X73976Y-30394D03*
X71771Y-34036D03*
G54D15*
X73720Y-33169D03*
X66634Y-33169D03*
X73740Y-26673D03*
X73129Y-26673D03*
X73129Y-27263D03*
X73129Y-27854D03*
X73129Y-28444D03*
X73720Y-28444D03*
X73720Y-27854D03*
X74311Y-27854D03*
X74311Y-28444D03*
X74901Y-28444D03*
X74901Y-27854D03*
X74901Y-27264D03*
X74901Y-26673D03*
X74310Y-26673D03*
X74311Y-27263D03*
X73720Y-27263D03*
G54D14*
X71692Y-28130D03*
X64645Y-28130D03*
G54D15*
X66653Y-26673D03*
X66043Y-26673D03*
X66043Y-27263D03*
X66043Y-27854D03*
X66043Y-28444D03*
X66633Y-28444D03*
X66633Y-27854D03*
X67224Y-27854D03*
X67224Y-28444D03*
X67814Y-28444D03*
X67814Y-27854D03*
X67814Y-27264D03*
X67814Y-26673D03*
X67224Y-26673D03*
X67224Y-27263D03*
X66634Y-27263D03*
G54D14*
X49527Y-30412D03*
G54D15*
X49330Y-32578D03*
X48720Y-32578D03*
X48720Y-33169D03*
X48720Y-33759D03*
X48720Y-34350D03*
X49311Y-34350D03*
X49311Y-33759D03*
X49901Y-33759D03*
X49901Y-34350D03*
X50492Y-34349D03*
X50492Y-33759D03*
X50492Y-33169D03*
X50492Y-32578D03*
X49901Y-32578D03*
X49901Y-33169D03*
X49311Y-33169D03*
X42244Y-32578D03*
X41633Y-32578D03*
X41633Y-33169D03*
X41633Y-33759D03*
X41633Y-34350D03*
X42224Y-34350D03*
X42224Y-33759D03*
X42814Y-33759D03*
X42814Y-34350D03*
X43405Y-34349D03*
X43405Y-33759D03*
X43405Y-33169D03*
X43405Y-32578D03*
X42814Y-32578D03*
X42814Y-33169D03*
X42224Y-33169D03*
X49330Y-26673D03*
X48720Y-26673D03*
X48720Y-27263D03*
X48720Y-27854D03*
X48720Y-28444D03*
X49311Y-28444D03*
X49311Y-27854D03*
X49901Y-27854D03*
X49901Y-28444D03*
X50492Y-28444D03*
X50492Y-27854D03*
X50492Y-27264D03*
X50492Y-26673D03*
X49901Y-26673D03*
X49901Y-27263D03*
X49311Y-27263D03*
X42224Y-27263D03*
G54D14*
X62224Y-33169D03*
X62224Y-33562D03*
X62224Y-33956D03*
X62224Y-34350D03*
X63425Y-41968D03*
X63425Y-41574D03*
X63425Y-41181D03*
X55118Y-49507D03*
X55118Y-49114D03*
X55118Y-48720D03*
X55118Y-48326D03*
X66496Y-38543D03*
X66102Y-38543D03*
X65708Y-38543D03*
X65314Y-38543D03*
G54D15*
X65098Y-41751D03*
X64744Y-41751D03*
X65098Y-41417D03*
X64744Y-41417D03*
G54D14*
X72736Y-44468D03*
X71496Y-40610D03*
X68543Y-40078D03*
X50335Y-57814D03*
X48896Y-57814D03*
X51870Y-55904D03*
X51850Y-54546D03*
X47342Y-56121D03*
X47322Y-54546D03*
X44822Y-55865D03*
X44842Y-54546D03*
X41594Y-57362D03*
X43248Y-57814D03*
X40177Y-56121D03*
X40196Y-54546D03*
X44783Y-49821D03*
X42539Y-46496D03*
X40275Y-48640D03*
X40275Y-50215D03*
X47342Y-48640D03*
X47342Y-50215D03*
X49625Y-52363D03*
X49606Y-46496D03*
X51811Y-48640D03*
X51830Y-49999D03*
X64566Y-50216D03*
X64724Y-48640D03*
X66909Y-46496D03*
X69232Y-48640D03*
X69251Y-50018D03*
X67007Y-52284D03*
X64685Y-54546D03*
X64704Y-56121D03*
X67658Y-57874D03*
X66219Y-57874D03*
X69232Y-55884D03*
X73996Y-52244D03*
X74804Y-57913D03*
X73365Y-57913D03*
X74725Y-24901D03*
X73286Y-24921D03*
X67617Y-24783D03*
X66180Y-24783D03*
X76299Y-55884D03*
X76299Y-54546D03*
X71791Y-54546D03*
X71791Y-56121D03*
X71732Y-50215D03*
X71732Y-48640D03*
X76338Y-49979D03*
X76358Y-48640D03*
X74035Y-46477D03*
X71692Y-26772D03*
X76279Y-26556D03*
X76259Y-28130D03*
X76259Y-34036D03*
X71771Y-32717D03*
X74035Y-36101D03*
X69153Y-26556D03*
X69153Y-28130D03*
X64685Y-26811D03*
X69192Y-32461D03*
X69212Y-34036D03*
X66811Y-30353D03*
X66889Y-36121D03*
X64724Y-32658D03*
X64724Y-34036D03*
X51850Y-32459D03*
X51850Y-34034D03*
X51889Y-28130D03*
X51870Y-26556D03*
X44822Y-32461D03*
X44822Y-34036D03*
X44842Y-26556D03*
X44822Y-28130D03*
X49606Y-36199D03*
X42539Y-36199D03*
X42480Y-30392D03*
X50256Y-24881D03*
X48817Y-24881D03*
X43445Y-24901D03*
X42006Y-24901D03*
X47362Y-34036D03*
X47401Y-32697D03*
X47381Y-28091D03*
X47362Y-26792D03*
X40275Y-33996D03*
X40295Y-32658D03*
X40275Y-26792D03*
X40295Y-28012D03*
G54D16*
X57437Y-36828D03*
X57712Y-45607D03*
X59484Y-36946D03*
X59641Y-45804D03*
G54D15*
X73720Y-49507D03*
X73720Y-50098D03*
X73129Y-50098D03*
X73129Y-49507D03*
X73129Y-48917D03*
X73129Y-48327D03*
X73720Y-48326D03*
X73720Y-48917D03*
X74311Y-48917D03*
X74311Y-48326D03*
X74901Y-48326D03*
X74901Y-48917D03*
X74901Y-49507D03*
X74901Y-50098D03*
X74291Y-50098D03*
X67224Y-33169D03*
X67224Y-32578D03*
X67814Y-32578D03*
X67814Y-33169D03*
X67814Y-33759D03*
X67814Y-34349D03*
X67224Y-34350D03*
X67224Y-33759D03*
X66633Y-33759D03*
X66633Y-34350D03*
X66043Y-34350D03*
X66043Y-33759D03*
X66043Y-33169D03*
X66043Y-32578D03*
X66653Y-32578D03*
X74311Y-33169D03*
X74310Y-32578D03*
X74901Y-32578D03*
X74901Y-33169D03*
X74901Y-33759D03*
X74901Y-34349D03*
X74311Y-34350D03*
X74311Y-33759D03*
X73720Y-33759D03*
X73720Y-34350D03*
X73129Y-34350D03*
X73129Y-33759D03*
X73129Y-33169D03*
X73129Y-32578D03*
X73740Y-32578D03*
X49311Y-49517D03*
X49311Y-50108D03*
X48720Y-50108D03*
X48720Y-49517D03*
X48720Y-48927D03*
X48720Y-48337D03*
X49311Y-48336D03*
X49311Y-48927D03*
X49901Y-48927D03*
X49901Y-48336D03*
X50492Y-48336D03*
X50492Y-48927D03*
X50492Y-49517D03*
X50492Y-50108D03*
X49881Y-50108D03*
X49311Y-55423D03*
X49311Y-56013D03*
X48720Y-56013D03*
X48720Y-55422D03*
X48720Y-54832D03*
X48720Y-54242D03*
X49311Y-54242D03*
X49311Y-54832D03*
X49901Y-54832D03*
X49901Y-54242D03*
X50492Y-54242D03*
X50492Y-54832D03*
X50492Y-55423D03*
X50492Y-56013D03*
X49881Y-56013D03*
X42814Y-27263D03*
X42814Y-26673D03*
X43405Y-26673D03*
X43405Y-27264D03*
X43405Y-27854D03*
X43405Y-28444D03*
X42814Y-28444D03*
X42814Y-27854D03*
X42224Y-27854D03*
X42224Y-28444D03*
X41633Y-28444D03*
X41633Y-27854D03*
X41633Y-27263D03*
X41633Y-26673D03*
X42244Y-26673D03*
X42224Y-55423D03*
X42224Y-56013D03*
X41633Y-56013D03*
X41633Y-55422D03*
X41633Y-54832D03*
X41633Y-54242D03*
X42224Y-54242D03*
X42224Y-54832D03*
X42814Y-54832D03*
X42814Y-54242D03*
X43405Y-54242D03*
X43405Y-54832D03*
X43405Y-55423D03*
X43405Y-56013D03*
X42795Y-56013D03*
X66633Y-55413D03*
X66634Y-56003D03*
X66043Y-56003D03*
X66043Y-55413D03*
X66043Y-54822D03*
X66043Y-54233D03*
X66633Y-54232D03*
X66633Y-54822D03*
X67224Y-54822D03*
X67224Y-54232D03*
X67814Y-54232D03*
X67814Y-54822D03*
X67814Y-55413D03*
X67814Y-56003D03*
X67204Y-56003D03*
G54D14*
X76259Y-32461D03*
X76417Y-28641D03*
X42421Y-30904D03*
X42559Y-51831D03*
X49645Y-51851D03*
X66988Y-51772D03*
X73919Y-30904D03*
X66832Y-30865D03*
X49509Y-30924D03*
X72381Y-38543D03*
X66948Y-58129D03*
X69685Y-39862D03*
X71653Y-55610D03*
X71614Y-54035D03*
X76299Y-54036D03*
X76358Y-48130D03*
X71574Y-49704D03*
X71574Y-48129D03*
X64547Y-55610D03*
X64566Y-54035D03*
X64586Y-49704D03*
X64586Y-48129D03*
X44822Y-54036D03*
X40039Y-55610D03*
X40059Y-54035D03*
X51850Y-54036D03*
X47185Y-54035D03*
X51830Y-48130D03*
X47204Y-49704D03*
X44783Y-48130D03*
X40118Y-49704D03*
X40118Y-48129D03*
X76397Y-32972D03*
X76397Y-34547D03*
X71751Y-34546D03*
X69350Y-32972D03*
X69370Y-34547D03*
X76456Y-27066D03*
X69311Y-27066D03*
X69291Y-28641D03*
X51988Y-32972D03*
X51968Y-34547D03*
X67086Y-40019D03*
X66692Y-40019D03*
X66692Y-39625D03*
X67086Y-39625D03*
X67086Y-39232D03*
X66692Y-39232D03*
X75000Y-38346D03*
X49625Y-58070D03*
X47578Y-55611D03*
X42716Y-57637D03*
X47165Y-48129D03*
X69232Y-48130D03*
X69232Y-54036D03*
X74074Y-58169D03*
X73996Y-51771D03*
X71712Y-28641D03*
X66889Y-24547D03*
X64665Y-28641D03*
X64724Y-34546D03*
X52027Y-28641D03*
X51988Y-27047D03*
X45000Y-32972D03*
X45000Y-34547D03*
X44960Y-28641D03*
X44960Y-27066D03*
X47381Y-34546D03*
X47381Y-28601D03*
X40295Y-34506D03*
X49547Y-24685D03*
X42736Y-24665D03*
X40295Y-28522D03*
X73799Y-24212D03*
X69271Y-59527D03*
X71062Y-23169D03*
G54D17*
X64921Y-41594D02*
X64921Y-41587D01*
X64921Y-41587D02*
X64919Y-41585D01*
X41810Y-57814D02*
X41811Y-57814D01*
X69232Y-54546D02*
X69232Y-54547D01*
X44783Y-48640D02*
X44783Y-48641D01*
X42539Y-52341D02*
X42539Y-52342D01*
X74291Y-55432D02*
X74310Y-55413D01*
X74291Y-55432D02*
X74291Y-56003D01*
X74901Y-56003D02*
X74901Y-55413D01*
X74901Y-54822D02*
X74901Y-54232D01*
X74311Y-54232D02*
X74311Y-54822D01*
X73720Y-54822D02*
X73720Y-54232D01*
X73129Y-54233D02*
X73129Y-54822D01*
X73129Y-55413D02*
X73129Y-56003D01*
X73720Y-56003D02*
X73720Y-56003D01*
X73720Y-56003D02*
X73720Y-55413D01*
X67204Y-55432D02*
X67204Y-56003D01*
X67204Y-55432D02*
X67224Y-55413D01*
X74291Y-49527D02*
X74291Y-50098D01*
X74291Y-49527D02*
X74310Y-49507D01*
X67204Y-49527D02*
X67224Y-49507D01*
X67204Y-49527D02*
X67204Y-50098D01*
X67814Y-50098D02*
X67814Y-49507D01*
X67814Y-48917D02*
X67814Y-48326D01*
X67224Y-48326D02*
X67224Y-48917D01*
X66633Y-48917D02*
X66633Y-48326D01*
X66043Y-48327D02*
X66043Y-48917D01*
X66043Y-49507D02*
X66043Y-50098D01*
X66634Y-50098D02*
X66633Y-50098D01*
X66633Y-50098D02*
X66633Y-49507D01*
X49881Y-55442D02*
X49881Y-56013D01*
X49881Y-55442D02*
X49901Y-55423D01*
X42795Y-55442D02*
X42795Y-56013D01*
X42795Y-55442D02*
X42814Y-55423D01*
X49881Y-49537D02*
X49881Y-50108D01*
X49881Y-49537D02*
X49901Y-49517D01*
X42795Y-49537D02*
X42814Y-49517D01*
X42795Y-49537D02*
X42795Y-50108D01*
X43405Y-50108D02*
X43405Y-49517D01*
X43405Y-48927D02*
X43405Y-48336D01*
X42814Y-48336D02*
X42814Y-48927D01*
X42224Y-48927D02*
X42224Y-48336D01*
X41633Y-48337D02*
X41633Y-48927D01*
X41633Y-49517D02*
X41633Y-50108D01*
X42224Y-50108D02*
X42224Y-50107D01*
X42224Y-50107D02*
X42224Y-49517D01*
X73976Y-30394D02*
X73976Y-30413D01*
X71771Y-34036D02*
X71771Y-34035D01*
X73740Y-33149D02*
X73740Y-32578D01*
X73740Y-33149D02*
X73720Y-33169D01*
X66653Y-33149D02*
X66653Y-32578D01*
X66653Y-33149D02*
X66634Y-33169D01*
X73740Y-27244D02*
X73720Y-27263D01*
X73740Y-27244D02*
X73740Y-26673D01*
X73129Y-26673D02*
X73129Y-27263D01*
X73129Y-27854D02*
X73129Y-28444D01*
X73720Y-28444D02*
X73720Y-27854D01*
X74311Y-27854D02*
X74311Y-28444D01*
X74901Y-28444D02*
X74901Y-27854D01*
X74901Y-27264D02*
X74901Y-26673D01*
X74310Y-26673D02*
X74311Y-26673D01*
X74311Y-26673D02*
X74311Y-27263D01*
X71692Y-28130D02*
X71692Y-28129D01*
X64645Y-28130D02*
X64645Y-28129D01*
X66653Y-27244D02*
X66634Y-27263D01*
X66653Y-27244D02*
X66653Y-26673D01*
X66043Y-26673D02*
X66043Y-27263D01*
X66043Y-27854D02*
X66043Y-28444D01*
X66633Y-28444D02*
X66633Y-27854D01*
X67224Y-27854D02*
X67224Y-28444D01*
X67814Y-28444D02*
X67814Y-27854D01*
X67814Y-27264D02*
X67814Y-26673D01*
X67224Y-26673D02*
X67224Y-26673D01*
X67224Y-26673D02*
X67224Y-27263D01*
X49330Y-33149D02*
X49311Y-33169D01*
X49330Y-33149D02*
X49330Y-32578D01*
X48720Y-32578D02*
X48720Y-33169D01*
X48720Y-33759D02*
X48720Y-34350D01*
X49311Y-34350D02*
X49311Y-33759D01*
X49901Y-33759D02*
X49901Y-34350D01*
X50492Y-34349D02*
X50492Y-33759D01*
X50492Y-33169D02*
X50492Y-32578D01*
X49901Y-32578D02*
X49901Y-32579D01*
X49901Y-32579D02*
X49901Y-33169D01*
X42244Y-33149D02*
X42224Y-33169D01*
X42244Y-33149D02*
X42244Y-32578D01*
X41633Y-32578D02*
X41633Y-33169D01*
X41633Y-33759D02*
X41633Y-34350D01*
X42224Y-34350D02*
X42224Y-33759D01*
X42814Y-33759D02*
X42814Y-34350D01*
X43405Y-34349D02*
X43405Y-33759D01*
X43405Y-33169D02*
X43405Y-32578D01*
X42814Y-32578D02*
X42814Y-32579D01*
X42814Y-32579D02*
X42814Y-33169D01*
X49330Y-27244D02*
X49311Y-27263D01*
X49330Y-27244D02*
X49330Y-26673D01*
X48720Y-26673D02*
X48720Y-27263D01*
X48720Y-27854D02*
X48720Y-28444D01*
X49311Y-28444D02*
X49311Y-27854D01*
X49901Y-27854D02*
X49901Y-28444D01*
X50492Y-28444D02*
X50492Y-27854D01*
X50492Y-27264D02*
X50492Y-26673D01*
X49901Y-26673D02*
X49901Y-26673D01*
X49901Y-26673D02*
X49901Y-27263D01*
X42244Y-27244D02*
X42244Y-26673D01*
X42244Y-27244D02*
X42224Y-27263D01*
X62224Y-33562D02*
X62224Y-33169D01*
X62224Y-34350D02*
X62224Y-33956D01*
X63425Y-41181D02*
X63425Y-41574D01*
X50335Y-57814D02*
X50334Y-57814D01*
X48896Y-57814D02*
X48897Y-57814D01*
X51870Y-55904D02*
X51870Y-55905D01*
X51850Y-54546D02*
X51850Y-54547D01*
X47342Y-56121D02*
X47342Y-56122D01*
X47322Y-54546D02*
X47322Y-54527D01*
X44822Y-55865D02*
X44822Y-55885D01*
X44842Y-54546D02*
X44842Y-54566D01*
X43248Y-57814D02*
X43228Y-57814D01*
X40177Y-56121D02*
X40177Y-56122D01*
X40196Y-54546D02*
X40196Y-54547D01*
X44783Y-49821D02*
X44783Y-49822D01*
X40275Y-48640D02*
X40275Y-48641D01*
X40275Y-50215D02*
X40275Y-50216D01*
X47342Y-48640D02*
X47342Y-48661D01*
X47342Y-50215D02*
X47342Y-50216D01*
X49625Y-52363D02*
X49625Y-52362D01*
X51811Y-48640D02*
X51811Y-48641D01*
X51830Y-49999D02*
X51830Y-50000D01*
X64566Y-50216D02*
X64566Y-50217D01*
X64724Y-48640D02*
X64724Y-48641D01*
X69232Y-48640D02*
X69232Y-48622D01*
X69251Y-50018D02*
X69251Y-50019D01*
X67007Y-52284D02*
X67007Y-52283D01*
X64685Y-54546D02*
X64685Y-54566D01*
X64704Y-56121D02*
X64704Y-56141D01*
X67658Y-57874D02*
X67677Y-57874D01*
X66219Y-57874D02*
X66240Y-57874D01*
X69232Y-55884D02*
X69232Y-55885D01*
X73996Y-52244D02*
X73996Y-52243D01*
X74804Y-57913D02*
X74842Y-57913D01*
X73365Y-57913D02*
X73385Y-57913D01*
X74725Y-24901D02*
X74744Y-24901D01*
X73286Y-24921D02*
X73307Y-24921D01*
X67617Y-24783D02*
X67637Y-24783D01*
X66180Y-24783D02*
X66181Y-24783D01*
X76299Y-55884D02*
X76299Y-55885D01*
X76299Y-54546D02*
X76299Y-54547D01*
X71791Y-54546D02*
X71791Y-54527D01*
X71791Y-56121D02*
X71791Y-56141D01*
X71732Y-50215D02*
X71732Y-50196D01*
X71732Y-48640D02*
X71732Y-48661D01*
X76338Y-49979D02*
X76338Y-50000D01*
X76358Y-48640D02*
X76358Y-48661D01*
X74035Y-46378D02*
X74035Y-46377D01*
X71692Y-26772D02*
X71692Y-26791D01*
X76279Y-26556D02*
X76279Y-26555D01*
X76259Y-28130D02*
X76259Y-28129D01*
X76259Y-34036D02*
X76259Y-34035D01*
X71771Y-32717D02*
X71771Y-32736D01*
X74035Y-36101D02*
X74035Y-36102D01*
X69153Y-26556D02*
X69153Y-26555D01*
X69153Y-28130D02*
X69153Y-28149D01*
X64685Y-26811D02*
X64685Y-26811D01*
X69192Y-32461D02*
X69192Y-32460D01*
X69212Y-34036D02*
X69212Y-34055D01*
X66811Y-30353D02*
X66811Y-30354D01*
X66889Y-36121D02*
X66889Y-36122D01*
X64724Y-32658D02*
X64724Y-32657D01*
X64724Y-34036D02*
X64724Y-34035D01*
X51850Y-32459D02*
X51850Y-32460D01*
X51850Y-34034D02*
X51850Y-34035D01*
X51889Y-28130D02*
X51889Y-28129D01*
X51870Y-26556D02*
X51870Y-26555D01*
X44822Y-32461D02*
X44822Y-32460D01*
X44822Y-34036D02*
X44822Y-34035D01*
X44842Y-26556D02*
X44842Y-26555D01*
X44822Y-28130D02*
X44822Y-28129D01*
X49606Y-36199D02*
X49606Y-36200D01*
X42539Y-36199D02*
X42539Y-36200D01*
X49527Y-30510D02*
X49527Y-30492D01*
X42480Y-30392D02*
X42480Y-30393D01*
X50256Y-24881D02*
X50275Y-24881D01*
X48817Y-24881D02*
X48818Y-24881D01*
X47362Y-34036D02*
X47362Y-34074D01*
X47401Y-32697D02*
X47401Y-32716D01*
X47381Y-28091D02*
X47381Y-28110D01*
X47362Y-26792D02*
X47362Y-26791D01*
X40275Y-33996D02*
X40275Y-33996D01*
X40295Y-32658D02*
X40295Y-32657D01*
X40275Y-26792D02*
X40275Y-26791D01*
X40295Y-28012D02*
X40295Y-28011D01*
X73720Y-50098D02*
X73720Y-49507D01*
X73720Y-50098D02*
X73720Y-50098D01*
X73129Y-49507D02*
X73129Y-50098D01*
X73129Y-48327D02*
X73129Y-48917D01*
X73720Y-48917D02*
X73720Y-48326D01*
X74311Y-48326D02*
X74311Y-48917D01*
X74901Y-48917D02*
X74901Y-48326D01*
X74901Y-50098D02*
X74901Y-49507D01*
X67224Y-32579D02*
X67224Y-33169D01*
X67224Y-32578D02*
X67224Y-32579D01*
X67814Y-33169D02*
X67814Y-32578D01*
X67814Y-34349D02*
X67814Y-33759D01*
X67224Y-33759D02*
X67224Y-34350D01*
X66633Y-34350D02*
X66633Y-33759D01*
X66043Y-33759D02*
X66043Y-34350D01*
X66043Y-32578D02*
X66043Y-33169D01*
X74311Y-32579D02*
X74311Y-33169D01*
X74310Y-32578D02*
X74311Y-32579D01*
X74901Y-33169D02*
X74901Y-32578D01*
X74901Y-34349D02*
X74901Y-33759D01*
X74311Y-33759D02*
X74311Y-34350D01*
X73720Y-34350D02*
X73720Y-33759D01*
X73129Y-33759D02*
X73129Y-34350D01*
X73129Y-32578D02*
X73129Y-33169D01*
X49311Y-50107D02*
X49311Y-49517D01*
X49311Y-50108D02*
X49311Y-50107D01*
X48720Y-49517D02*
X48720Y-50108D01*
X48720Y-48337D02*
X48720Y-48927D01*
X49311Y-48927D02*
X49311Y-48336D01*
X49901Y-48336D02*
X49901Y-48927D01*
X50492Y-48927D02*
X50492Y-48336D01*
X50492Y-50108D02*
X50492Y-49517D01*
X49311Y-56013D02*
X49311Y-55423D01*
X49311Y-56013D02*
X49311Y-56013D01*
X48720Y-55422D02*
X48720Y-56013D01*
X48720Y-54242D02*
X48720Y-54832D01*
X49311Y-54832D02*
X49311Y-54242D01*
X49901Y-54242D02*
X49901Y-54832D01*
X50492Y-54832D02*
X50492Y-54242D01*
X50492Y-56013D02*
X50492Y-55423D01*
X42814Y-26673D02*
X42814Y-27263D01*
X42814Y-26673D02*
X42814Y-26673D01*
X43405Y-27264D02*
X43405Y-26673D01*
X43405Y-28444D02*
X43405Y-27854D01*
X42814Y-27854D02*
X42814Y-28444D01*
X42224Y-28444D02*
X42224Y-27854D01*
X41633Y-27854D02*
X41633Y-28444D01*
X41633Y-26673D02*
X41633Y-27263D01*
X42224Y-56013D02*
X42224Y-55423D01*
X42224Y-56013D02*
X42224Y-56013D01*
X41633Y-55422D02*
X41633Y-56013D01*
X41633Y-54242D02*
X41633Y-54832D01*
X42224Y-54832D02*
X42224Y-54242D01*
X42814Y-54242D02*
X42814Y-54832D01*
X43405Y-54832D02*
X43405Y-54242D01*
X43405Y-56013D02*
X43405Y-55423D01*
X66633Y-56003D02*
X66633Y-55413D01*
X66634Y-56003D02*
X66633Y-56003D01*
X66043Y-55413D02*
X66043Y-56003D01*
X66043Y-54233D02*
X66043Y-54822D01*
X66633Y-54822D02*
X66633Y-54232D01*
X67224Y-54232D02*
X67224Y-54822D01*
X67814Y-54822D02*
X67814Y-54232D01*
X67814Y-56003D02*
X67814Y-55413D01*
X76259Y-32461D02*
X76259Y-32460D01*
G54D10*
G36*
X78031Y-60905D02*
X77893Y-60905D01*
X77893Y-37846D01*
X77857Y-37760D01*
X77849Y-37751D01*
X77849Y-30464D01*
X77813Y-30377D01*
X77746Y-30311D01*
X77660Y-30275D01*
X77566Y-30275D01*
X77479Y-30311D01*
X77412Y-30377D01*
X77376Y-30464D01*
X77376Y-30558D01*
X77412Y-30645D01*
X77478Y-30711D01*
X77565Y-30747D01*
X77659Y-30747D01*
X77746Y-30711D01*
X77813Y-30645D01*
X77849Y-30558D01*
X77849Y-30464D01*
X77849Y-37751D01*
X77791Y-37693D01*
X77704Y-37657D01*
X77610Y-37657D01*
X77523Y-37693D01*
X77457Y-37759D01*
X77421Y-37846D01*
X77421Y-37940D01*
X77457Y-38027D01*
X77523Y-38093D01*
X77610Y-38129D01*
X77704Y-38129D01*
X77791Y-38094D01*
X77857Y-38027D01*
X77893Y-37940D01*
X77893Y-37846D01*
X77893Y-60905D01*
X77874Y-60905D01*
X77874Y-52098D01*
X77838Y-52012D01*
X77771Y-51945D01*
X77684Y-51909D01*
X77591Y-51909D01*
X77504Y-51945D01*
X77437Y-52011D01*
X77421Y-52051D01*
X77421Y-50937D01*
X77385Y-50850D01*
X77381Y-50847D01*
X77381Y-38299D01*
X77381Y-31626D01*
X77346Y-31539D01*
X77279Y-31473D01*
X77192Y-31437D01*
X77098Y-31436D01*
X77012Y-31472D01*
X76981Y-31503D01*
X76981Y-23558D01*
X76841Y-23220D01*
X76583Y-22962D01*
X76246Y-22822D01*
X75881Y-22821D01*
X75543Y-22961D01*
X75285Y-23219D01*
X75145Y-23556D01*
X75144Y-23921D01*
X75284Y-24259D01*
X75542Y-24518D01*
X75879Y-24658D01*
X76244Y-24658D01*
X76582Y-24518D01*
X76840Y-24260D01*
X76980Y-23923D01*
X76981Y-23558D01*
X76981Y-31503D01*
X76945Y-31539D01*
X76909Y-31626D01*
X76909Y-31720D01*
X76945Y-31806D01*
X77011Y-31873D01*
X77098Y-31909D01*
X77192Y-31909D01*
X77279Y-31873D01*
X77345Y-31807D01*
X77381Y-31720D01*
X77381Y-31626D01*
X77381Y-38299D01*
X77346Y-38212D01*
X77279Y-38146D01*
X77192Y-38110D01*
X77098Y-38110D01*
X77012Y-38146D01*
X76945Y-38212D01*
X76909Y-38299D01*
X76909Y-38393D01*
X76945Y-38480D01*
X77011Y-38546D01*
X77098Y-38582D01*
X77192Y-38582D01*
X77279Y-38546D01*
X77345Y-38480D01*
X77381Y-38393D01*
X77381Y-38299D01*
X77381Y-50847D01*
X77319Y-50784D01*
X77232Y-50748D01*
X77138Y-50747D01*
X77051Y-50783D01*
X76984Y-50850D01*
X76948Y-50937D01*
X76948Y-51031D01*
X76984Y-51117D01*
X77051Y-51184D01*
X77137Y-51220D01*
X77231Y-51220D01*
X77318Y-51184D01*
X77385Y-51118D01*
X77421Y-51031D01*
X77421Y-50937D01*
X77421Y-52051D01*
X77401Y-52098D01*
X77401Y-52192D01*
X77437Y-52279D01*
X77503Y-52345D01*
X77590Y-52381D01*
X77684Y-52381D01*
X77771Y-52346D01*
X77837Y-52279D01*
X77873Y-52192D01*
X77874Y-52098D01*
X77874Y-60905D01*
X76981Y-60905D01*
X76981Y-58755D01*
X76841Y-58417D01*
X76717Y-58292D01*
X76717Y-42143D01*
X76717Y-40411D01*
X76692Y-40352D01*
X76692Y-27020D01*
X76657Y-26933D01*
X76590Y-26866D01*
X76503Y-26830D01*
X76409Y-26830D01*
X76323Y-26866D01*
X76256Y-26932D01*
X76220Y-27019D01*
X76220Y-27113D01*
X76256Y-27200D01*
X76322Y-27267D01*
X76409Y-27303D01*
X76503Y-27303D01*
X76590Y-27267D01*
X76656Y-27200D01*
X76692Y-27114D01*
X76692Y-27020D01*
X76692Y-40352D01*
X76672Y-40303D01*
X76653Y-40284D01*
X76653Y-28594D01*
X76617Y-28508D01*
X76551Y-28441D01*
X76464Y-28405D01*
X76370Y-28405D01*
X76283Y-28441D01*
X76217Y-28507D01*
X76181Y-28594D01*
X76181Y-28688D01*
X76216Y-28775D01*
X76283Y-28841D01*
X76370Y-28877D01*
X76464Y-28877D01*
X76550Y-28842D01*
X76617Y-28775D01*
X76653Y-28688D01*
X76653Y-28594D01*
X76653Y-40284D01*
X76633Y-40264D01*
X76633Y-34500D01*
X76633Y-32925D01*
X76598Y-32838D01*
X76531Y-32772D01*
X76444Y-32736D01*
X76350Y-32736D01*
X76264Y-32772D01*
X76197Y-32838D01*
X76161Y-32925D01*
X76161Y-33019D01*
X76197Y-33106D01*
X76263Y-33172D01*
X76350Y-33208D01*
X76444Y-33208D01*
X76531Y-33172D01*
X76597Y-33106D01*
X76633Y-33019D01*
X76633Y-32925D01*
X76633Y-34500D01*
X76598Y-34413D01*
X76531Y-34347D01*
X76444Y-34311D01*
X76350Y-34310D01*
X76264Y-34346D01*
X76197Y-34413D01*
X76161Y-34500D01*
X76161Y-34594D01*
X76197Y-34680D01*
X76263Y-34747D01*
X76350Y-34783D01*
X76444Y-34783D01*
X76531Y-34747D01*
X76597Y-34681D01*
X76633Y-34594D01*
X76633Y-34500D01*
X76633Y-40264D01*
X76589Y-40219D01*
X76480Y-40174D01*
X76363Y-40174D01*
X76255Y-40219D01*
X76171Y-40302D01*
X76126Y-40411D01*
X76126Y-40528D01*
X76171Y-40636D01*
X76254Y-40720D01*
X76363Y-40765D01*
X76480Y-40765D01*
X76588Y-40720D01*
X76672Y-40637D01*
X76717Y-40528D01*
X76717Y-40411D01*
X76717Y-42143D01*
X76672Y-42035D01*
X76589Y-41951D01*
X76480Y-41906D01*
X76363Y-41906D01*
X76255Y-41951D01*
X76171Y-42034D01*
X76126Y-42143D01*
X76126Y-42260D01*
X76171Y-42368D01*
X76254Y-42452D01*
X76363Y-42497D01*
X76480Y-42497D01*
X76588Y-42452D01*
X76672Y-42369D01*
X76717Y-42260D01*
X76717Y-42143D01*
X76717Y-58292D01*
X76594Y-58169D01*
X76594Y-48083D01*
X76558Y-47996D01*
X76492Y-47930D01*
X76405Y-47894D01*
X76311Y-47894D01*
X76224Y-47930D01*
X76158Y-47996D01*
X76122Y-48083D01*
X76122Y-48177D01*
X76157Y-48264D01*
X76224Y-48330D01*
X76311Y-48366D01*
X76405Y-48366D01*
X76491Y-48330D01*
X76558Y-48264D01*
X76594Y-48177D01*
X76594Y-48083D01*
X76594Y-58169D01*
X76583Y-58159D01*
X76535Y-58139D01*
X76535Y-53989D01*
X76499Y-53902D01*
X76433Y-53836D01*
X76346Y-53800D01*
X76252Y-53800D01*
X76165Y-53835D01*
X76099Y-53902D01*
X76063Y-53989D01*
X76062Y-54083D01*
X76098Y-54169D01*
X76165Y-54236D01*
X76252Y-54272D01*
X76345Y-54272D01*
X76432Y-54236D01*
X76499Y-54170D01*
X76535Y-54083D01*
X76535Y-53989D01*
X76535Y-58139D01*
X76246Y-58019D01*
X75881Y-58018D01*
X75543Y-58158D01*
X75285Y-58416D01*
X75255Y-58486D01*
X75255Y-46567D01*
X75236Y-46519D01*
X75236Y-38299D01*
X75200Y-38212D01*
X75133Y-38146D01*
X75047Y-38110D01*
X74953Y-38110D01*
X74866Y-38146D01*
X74799Y-38212D01*
X74763Y-38299D01*
X74763Y-38393D01*
X74799Y-38480D01*
X74866Y-38546D01*
X74952Y-38582D01*
X75046Y-38582D01*
X75133Y-38546D01*
X75200Y-38480D01*
X75236Y-38393D01*
X75236Y-38299D01*
X75236Y-46519D01*
X75220Y-46480D01*
X75153Y-46414D01*
X75118Y-46399D01*
X75118Y-44854D01*
X75082Y-44767D01*
X75015Y-44701D01*
X74929Y-44665D01*
X74835Y-44665D01*
X74748Y-44701D01*
X74681Y-44767D01*
X74645Y-44854D01*
X74645Y-44948D01*
X74681Y-45035D01*
X74747Y-45101D01*
X74834Y-45137D01*
X74928Y-45137D01*
X75015Y-45101D01*
X75082Y-45035D01*
X75118Y-44948D01*
X75118Y-44854D01*
X75118Y-46399D01*
X75066Y-46377D01*
X74972Y-46377D01*
X74886Y-46413D01*
X74819Y-46480D01*
X74783Y-46566D01*
X74783Y-46660D01*
X74819Y-46747D01*
X74885Y-46814D01*
X74972Y-46850D01*
X75066Y-46850D01*
X75153Y-46814D01*
X75219Y-46748D01*
X75255Y-46661D01*
X75255Y-46567D01*
X75255Y-58486D01*
X75145Y-58753D01*
X75144Y-59118D01*
X75284Y-59456D01*
X75542Y-59714D01*
X75879Y-59854D01*
X76244Y-59855D01*
X76582Y-59715D01*
X76840Y-59457D01*
X76980Y-59120D01*
X76981Y-58755D01*
X76981Y-60905D01*
X74940Y-60905D01*
X74940Y-57236D01*
X74905Y-57149D01*
X74838Y-57083D01*
X74751Y-57047D01*
X74657Y-57047D01*
X74571Y-57083D01*
X74547Y-57106D01*
X74547Y-51331D01*
X74511Y-51244D01*
X74445Y-51177D01*
X74358Y-51141D01*
X74264Y-51141D01*
X74177Y-51177D01*
X74155Y-51199D01*
X74155Y-30857D01*
X74119Y-30770D01*
X74053Y-30704D01*
X74035Y-30697D01*
X74035Y-24165D01*
X73999Y-24078D01*
X73933Y-24012D01*
X73846Y-23976D01*
X73752Y-23976D01*
X73665Y-24012D01*
X73599Y-24078D01*
X73563Y-24165D01*
X73562Y-24259D01*
X73598Y-24346D01*
X73665Y-24412D01*
X73752Y-24448D01*
X73845Y-24448D01*
X73932Y-24412D01*
X73999Y-24346D01*
X74035Y-24259D01*
X74035Y-24165D01*
X74035Y-30697D01*
X73966Y-30668D01*
X73897Y-30668D01*
X73897Y-25228D01*
X73861Y-25141D01*
X73795Y-25075D01*
X73708Y-25039D01*
X73614Y-25039D01*
X73527Y-25075D01*
X73461Y-25141D01*
X73425Y-25228D01*
X73425Y-25322D01*
X73461Y-25409D01*
X73527Y-25475D01*
X73614Y-25511D01*
X73708Y-25511D01*
X73795Y-25475D01*
X73861Y-25409D01*
X73897Y-25322D01*
X73897Y-25228D01*
X73897Y-30668D01*
X73872Y-30668D01*
X73785Y-30704D01*
X73718Y-30770D01*
X73682Y-30857D01*
X73682Y-30951D01*
X73718Y-31038D01*
X73785Y-31104D01*
X73871Y-31140D01*
X73965Y-31140D01*
X74052Y-31104D01*
X74119Y-31038D01*
X74155Y-30951D01*
X74155Y-30857D01*
X74155Y-51199D01*
X74110Y-51243D01*
X74074Y-51330D01*
X74074Y-51424D01*
X74110Y-51511D01*
X74177Y-51578D01*
X74263Y-51614D01*
X74357Y-51614D01*
X74444Y-51578D01*
X74511Y-51511D01*
X74547Y-51425D01*
X74547Y-51331D01*
X74547Y-57106D01*
X74504Y-57149D01*
X74468Y-57236D01*
X74468Y-57330D01*
X74504Y-57417D01*
X74570Y-57483D01*
X74657Y-57519D01*
X74751Y-57519D01*
X74838Y-57483D01*
X74904Y-57417D01*
X74940Y-57330D01*
X74940Y-57236D01*
X74940Y-60905D01*
X74311Y-60905D01*
X74311Y-58122D01*
X74275Y-58035D01*
X74232Y-57992D01*
X74232Y-51724D01*
X74196Y-51638D01*
X74130Y-51571D01*
X74043Y-51535D01*
X73949Y-51535D01*
X73862Y-51571D01*
X73818Y-51614D01*
X73818Y-31252D01*
X73783Y-31165D01*
X73716Y-31099D01*
X73629Y-31063D01*
X73535Y-31062D01*
X73449Y-31098D01*
X73382Y-31165D01*
X73346Y-31252D01*
X73346Y-31345D01*
X73382Y-31432D01*
X73448Y-31499D01*
X73535Y-31535D01*
X73629Y-31535D01*
X73716Y-31499D01*
X73782Y-31433D01*
X73818Y-31346D01*
X73818Y-31252D01*
X73818Y-51614D01*
X73795Y-51637D01*
X73759Y-51724D01*
X73759Y-51818D01*
X73795Y-51905D01*
X73862Y-51971D01*
X73948Y-52007D01*
X74042Y-52007D01*
X74129Y-51972D01*
X74196Y-51905D01*
X74232Y-51818D01*
X74232Y-51724D01*
X74232Y-57992D01*
X74208Y-57969D01*
X74121Y-57933D01*
X74028Y-57933D01*
X73941Y-57968D01*
X73874Y-58035D01*
X73838Y-58122D01*
X73838Y-58216D01*
X73874Y-58302D01*
X73940Y-58369D01*
X74027Y-58405D01*
X74121Y-58405D01*
X74208Y-58369D01*
X74274Y-58303D01*
X74310Y-58216D01*
X74311Y-58122D01*
X74311Y-60905D01*
X73031Y-60905D01*
X73031Y-39323D01*
X72995Y-39236D01*
X72929Y-39169D01*
X72842Y-39133D01*
X72748Y-39133D01*
X72661Y-39169D01*
X72618Y-39213D01*
X72618Y-38496D01*
X72582Y-38409D01*
X72515Y-38343D01*
X72429Y-38307D01*
X72335Y-38307D01*
X72248Y-38342D01*
X72181Y-38409D01*
X72145Y-38496D01*
X72145Y-38590D01*
X72181Y-38676D01*
X72247Y-38743D01*
X72334Y-38779D01*
X72428Y-38779D01*
X72515Y-38743D01*
X72582Y-38677D01*
X72618Y-38590D01*
X72618Y-38496D01*
X72618Y-39213D01*
X72595Y-39236D01*
X72568Y-39299D01*
X72542Y-39236D01*
X72476Y-39169D01*
X72389Y-39133D01*
X72295Y-39133D01*
X72208Y-39169D01*
X72142Y-39236D01*
X72106Y-39322D01*
X72106Y-39416D01*
X72142Y-39503D01*
X72208Y-39570D01*
X72295Y-39606D01*
X72389Y-39606D01*
X72476Y-39570D01*
X72542Y-39504D01*
X72568Y-39440D01*
X72594Y-39503D01*
X72661Y-39570D01*
X72748Y-39606D01*
X72842Y-39606D01*
X72928Y-39570D01*
X72995Y-39504D01*
X73031Y-39417D01*
X73031Y-39323D01*
X73031Y-60905D01*
X71988Y-60905D01*
X71988Y-34499D01*
X71952Y-34412D01*
X71948Y-34409D01*
X71948Y-28594D01*
X71912Y-28507D01*
X71846Y-28440D01*
X71759Y-28404D01*
X71665Y-28404D01*
X71578Y-28440D01*
X71512Y-28507D01*
X71476Y-28593D01*
X71476Y-28687D01*
X71512Y-28774D01*
X71578Y-28841D01*
X71665Y-28877D01*
X71759Y-28877D01*
X71846Y-28841D01*
X71912Y-28775D01*
X71948Y-28688D01*
X71948Y-28594D01*
X71948Y-34409D01*
X71885Y-34346D01*
X71799Y-34310D01*
X71705Y-34310D01*
X71618Y-34345D01*
X71551Y-34412D01*
X71515Y-34499D01*
X71515Y-34593D01*
X71551Y-34679D01*
X71617Y-34746D01*
X71704Y-34782D01*
X71798Y-34782D01*
X71885Y-34746D01*
X71952Y-34680D01*
X71988Y-34593D01*
X71988Y-34499D01*
X71988Y-60905D01*
X71889Y-60905D01*
X71889Y-55563D01*
X71853Y-55476D01*
X71850Y-55473D01*
X71850Y-53988D01*
X71814Y-53901D01*
X71811Y-53898D01*
X71811Y-49657D01*
X71811Y-48083D01*
X71775Y-47996D01*
X71708Y-47929D01*
X71621Y-47893D01*
X71528Y-47893D01*
X71441Y-47929D01*
X71390Y-47979D01*
X71390Y-30329D01*
X71299Y-30108D01*
X71299Y-23122D01*
X71263Y-23035D01*
X71220Y-22992D01*
X71220Y-22138D01*
X71184Y-22051D01*
X71118Y-21984D01*
X71031Y-21948D01*
X70937Y-21948D01*
X70850Y-21984D01*
X70784Y-22051D01*
X70748Y-22137D01*
X70747Y-22231D01*
X70783Y-22318D01*
X70850Y-22385D01*
X70937Y-22421D01*
X71031Y-22421D01*
X71117Y-22385D01*
X71184Y-22319D01*
X71220Y-22232D01*
X71220Y-22138D01*
X71220Y-22992D01*
X71196Y-22969D01*
X71110Y-22933D01*
X71016Y-22933D01*
X70929Y-22968D01*
X70862Y-23035D01*
X70826Y-23122D01*
X70826Y-23216D01*
X70862Y-23302D01*
X70929Y-23369D01*
X71015Y-23405D01*
X71109Y-23405D01*
X71196Y-23369D01*
X71263Y-23303D01*
X71299Y-23216D01*
X71299Y-23122D01*
X71299Y-30108D01*
X71251Y-29992D01*
X70993Y-29733D01*
X70655Y-29593D01*
X70290Y-29593D01*
X69953Y-29733D01*
X69694Y-29991D01*
X69554Y-30328D01*
X69554Y-30693D01*
X69693Y-31031D01*
X69951Y-31289D01*
X70289Y-31429D01*
X70654Y-31430D01*
X70991Y-31290D01*
X71250Y-31032D01*
X71390Y-30695D01*
X71390Y-30329D01*
X71390Y-47979D01*
X71374Y-47995D01*
X71338Y-48082D01*
X71338Y-48176D01*
X71374Y-48263D01*
X71440Y-48330D01*
X71527Y-48366D01*
X71621Y-48366D01*
X71708Y-48330D01*
X71774Y-48263D01*
X71810Y-48177D01*
X71811Y-48083D01*
X71811Y-49657D01*
X71775Y-49571D01*
X71708Y-49504D01*
X71621Y-49468D01*
X71528Y-49468D01*
X71441Y-49504D01*
X71374Y-49570D01*
X71338Y-49657D01*
X71338Y-49751D01*
X71374Y-49838D01*
X71440Y-49904D01*
X71527Y-49940D01*
X71621Y-49940D01*
X71708Y-49905D01*
X71774Y-49838D01*
X71810Y-49751D01*
X71811Y-49657D01*
X71811Y-53898D01*
X71748Y-53835D01*
X71661Y-53799D01*
X71567Y-53799D01*
X71480Y-53835D01*
X71414Y-53901D01*
X71390Y-53957D01*
X71390Y-51983D01*
X71251Y-51645D01*
X70993Y-51387D01*
X70655Y-51247D01*
X70290Y-51247D01*
X70216Y-51277D01*
X70216Y-38909D01*
X70180Y-38823D01*
X70114Y-38756D01*
X70027Y-38720D01*
X69933Y-38720D01*
X69846Y-38756D01*
X69780Y-38822D01*
X69744Y-38909D01*
X69744Y-39003D01*
X69779Y-39090D01*
X69846Y-39156D01*
X69933Y-39192D01*
X70027Y-39192D01*
X70113Y-39157D01*
X70180Y-39090D01*
X70216Y-39003D01*
X70216Y-38909D01*
X70216Y-51277D01*
X69953Y-51386D01*
X69921Y-51418D01*
X69921Y-39816D01*
X69885Y-39729D01*
X69819Y-39662D01*
X69732Y-39626D01*
X69638Y-39626D01*
X69606Y-39639D01*
X69606Y-34500D01*
X69586Y-34452D01*
X69586Y-32925D01*
X69550Y-32838D01*
X69547Y-32835D01*
X69547Y-27020D01*
X69511Y-26933D01*
X69445Y-26866D01*
X69358Y-26830D01*
X69264Y-26830D01*
X69177Y-26866D01*
X69133Y-26909D01*
X69133Y-22138D01*
X69098Y-22051D01*
X69031Y-21984D01*
X68944Y-21948D01*
X68850Y-21948D01*
X68764Y-21984D01*
X68697Y-22051D01*
X68661Y-22137D01*
X68661Y-22231D01*
X68697Y-22318D01*
X68763Y-22385D01*
X68850Y-22421D01*
X68944Y-22421D01*
X69031Y-22385D01*
X69097Y-22319D01*
X69133Y-22232D01*
X69133Y-22138D01*
X69133Y-26909D01*
X69110Y-26932D01*
X69074Y-27019D01*
X69074Y-27113D01*
X69110Y-27200D01*
X69177Y-27267D01*
X69263Y-27303D01*
X69357Y-27303D01*
X69444Y-27267D01*
X69511Y-27200D01*
X69547Y-27114D01*
X69547Y-27020D01*
X69547Y-32835D01*
X69527Y-32815D01*
X69527Y-28594D01*
X69491Y-28508D01*
X69425Y-28441D01*
X69338Y-28405D01*
X69244Y-28405D01*
X69157Y-28441D01*
X69091Y-28507D01*
X69055Y-28594D01*
X69055Y-28688D01*
X69090Y-28775D01*
X69157Y-28841D01*
X69244Y-28877D01*
X69338Y-28877D01*
X69424Y-28842D01*
X69491Y-28775D01*
X69527Y-28688D01*
X69527Y-28594D01*
X69527Y-32815D01*
X69484Y-32772D01*
X69397Y-32736D01*
X69303Y-32736D01*
X69216Y-32772D01*
X69150Y-32838D01*
X69114Y-32925D01*
X69114Y-33019D01*
X69150Y-33106D01*
X69216Y-33172D01*
X69303Y-33208D01*
X69397Y-33208D01*
X69484Y-33172D01*
X69550Y-33106D01*
X69586Y-33019D01*
X69586Y-32925D01*
X69586Y-34452D01*
X69570Y-34413D01*
X69504Y-34347D01*
X69417Y-34311D01*
X69323Y-34310D01*
X69236Y-34346D01*
X69169Y-34413D01*
X69133Y-34500D01*
X69133Y-34594D01*
X69169Y-34680D01*
X69236Y-34747D01*
X69322Y-34783D01*
X69416Y-34783D01*
X69503Y-34747D01*
X69570Y-34681D01*
X69606Y-34594D01*
X69606Y-34500D01*
X69606Y-39639D01*
X69586Y-39647D01*
X69586Y-38535D01*
X69550Y-38449D01*
X69484Y-38382D01*
X69397Y-38346D01*
X69303Y-38346D01*
X69216Y-38382D01*
X69150Y-38448D01*
X69114Y-38535D01*
X69114Y-38629D01*
X69150Y-38716D01*
X69216Y-38782D01*
X69303Y-38818D01*
X69397Y-38818D01*
X69484Y-38783D01*
X69550Y-38716D01*
X69586Y-38629D01*
X69586Y-38535D01*
X69586Y-39647D01*
X69551Y-39662D01*
X69484Y-39728D01*
X69448Y-39815D01*
X69448Y-39909D01*
X69484Y-39996D01*
X69551Y-40062D01*
X69637Y-40099D01*
X69731Y-40099D01*
X69818Y-40063D01*
X69885Y-39996D01*
X69921Y-39910D01*
X69921Y-39816D01*
X69921Y-51418D01*
X69694Y-51644D01*
X69554Y-51981D01*
X69554Y-52347D01*
X69693Y-52684D01*
X69951Y-52943D01*
X70289Y-53083D01*
X70654Y-53083D01*
X70991Y-52944D01*
X71250Y-52686D01*
X71390Y-52348D01*
X71390Y-51983D01*
X71390Y-53957D01*
X71377Y-53988D01*
X71377Y-54082D01*
X71413Y-54169D01*
X71480Y-54235D01*
X71566Y-54271D01*
X71660Y-54271D01*
X71747Y-54235D01*
X71814Y-54169D01*
X71850Y-54082D01*
X71850Y-53988D01*
X71850Y-55473D01*
X71787Y-55410D01*
X71700Y-55374D01*
X71606Y-55373D01*
X71519Y-55409D01*
X71453Y-55476D01*
X71417Y-55563D01*
X71417Y-55657D01*
X71453Y-55743D01*
X71519Y-55810D01*
X71606Y-55846D01*
X71700Y-55846D01*
X71787Y-55810D01*
X71853Y-55744D01*
X71889Y-55657D01*
X71889Y-55563D01*
X71889Y-60905D01*
X71318Y-60905D01*
X71318Y-60484D01*
X71283Y-60397D01*
X71216Y-60331D01*
X71129Y-60295D01*
X71035Y-60295D01*
X70949Y-60331D01*
X70882Y-60397D01*
X70846Y-60484D01*
X70846Y-60578D01*
X70882Y-60665D01*
X70948Y-60731D01*
X71035Y-60767D01*
X71129Y-60767D01*
X71216Y-60731D01*
X71282Y-60665D01*
X71318Y-60578D01*
X71318Y-60484D01*
X71318Y-60905D01*
X69507Y-60905D01*
X69507Y-59480D01*
X69472Y-59393D01*
X69468Y-59390D01*
X69468Y-53989D01*
X69468Y-48083D01*
X69432Y-47996D01*
X69366Y-47930D01*
X69279Y-47894D01*
X69185Y-47894D01*
X69098Y-47930D01*
X69032Y-47996D01*
X68996Y-48083D01*
X68996Y-48177D01*
X69031Y-48264D01*
X69098Y-48330D01*
X69185Y-48366D01*
X69279Y-48366D01*
X69365Y-48330D01*
X69432Y-48264D01*
X69468Y-48177D01*
X69468Y-48083D01*
X69468Y-53989D01*
X69432Y-53902D01*
X69366Y-53835D01*
X69279Y-53799D01*
X69185Y-53799D01*
X69098Y-53835D01*
X69032Y-53902D01*
X68996Y-53988D01*
X68996Y-54082D01*
X69031Y-54169D01*
X69098Y-54236D01*
X69185Y-54272D01*
X69279Y-54272D01*
X69365Y-54236D01*
X69432Y-54170D01*
X69468Y-54083D01*
X69468Y-53989D01*
X69468Y-59390D01*
X69405Y-59327D01*
X69318Y-59291D01*
X69224Y-59291D01*
X69138Y-59327D01*
X69071Y-59393D01*
X69035Y-59480D01*
X69035Y-59574D01*
X69071Y-59661D01*
X69137Y-59727D01*
X69224Y-59763D01*
X69318Y-59763D01*
X69405Y-59727D01*
X69471Y-59661D01*
X69507Y-59574D01*
X69507Y-59480D01*
X69507Y-60905D01*
X69094Y-60905D01*
X69094Y-60484D01*
X69058Y-60397D01*
X68992Y-60331D01*
X68905Y-60295D01*
X68811Y-60295D01*
X68799Y-60300D01*
X68799Y-51390D01*
X68779Y-51342D01*
X68779Y-31252D01*
X68779Y-25228D01*
X68743Y-25141D01*
X68677Y-25075D01*
X68590Y-25039D01*
X68496Y-25039D01*
X68409Y-25075D01*
X68343Y-25141D01*
X68307Y-25228D01*
X68307Y-25322D01*
X68342Y-25409D01*
X68409Y-25475D01*
X68496Y-25511D01*
X68590Y-25511D01*
X68676Y-25475D01*
X68743Y-25409D01*
X68779Y-25322D01*
X68779Y-25228D01*
X68779Y-31252D01*
X68743Y-31165D01*
X68677Y-31099D01*
X68590Y-31063D01*
X68496Y-31062D01*
X68409Y-31098D01*
X68343Y-31165D01*
X68307Y-31252D01*
X68307Y-31345D01*
X68342Y-31432D01*
X68409Y-31499D01*
X68496Y-31535D01*
X68590Y-31535D01*
X68676Y-31499D01*
X68743Y-31433D01*
X68779Y-31346D01*
X68779Y-31252D01*
X68779Y-51342D01*
X68763Y-51303D01*
X68696Y-51236D01*
X68610Y-51200D01*
X68516Y-51200D01*
X68429Y-51236D01*
X68425Y-51240D01*
X68425Y-40622D01*
X68405Y-40574D01*
X68405Y-39461D01*
X68369Y-39374D01*
X68303Y-39307D01*
X68216Y-39271D01*
X68122Y-39271D01*
X68035Y-39307D01*
X67969Y-39373D01*
X67933Y-39460D01*
X67933Y-39554D01*
X67968Y-39641D01*
X68035Y-39708D01*
X68122Y-39744D01*
X68216Y-39744D01*
X68302Y-39708D01*
X68369Y-39641D01*
X68405Y-39555D01*
X68405Y-39461D01*
X68405Y-40574D01*
X68389Y-40535D01*
X68322Y-40469D01*
X68236Y-40433D01*
X68142Y-40433D01*
X68055Y-40468D01*
X67988Y-40535D01*
X67952Y-40622D01*
X67952Y-40716D01*
X67988Y-40802D01*
X68054Y-40869D01*
X68141Y-40905D01*
X68235Y-40905D01*
X68322Y-40869D01*
X68389Y-40803D01*
X68425Y-40716D01*
X68425Y-40622D01*
X68425Y-51240D01*
X68362Y-51303D01*
X68326Y-51389D01*
X68326Y-51483D01*
X68362Y-51570D01*
X68429Y-51637D01*
X68515Y-51673D01*
X68609Y-51673D01*
X68696Y-51637D01*
X68763Y-51570D01*
X68799Y-51484D01*
X68799Y-51390D01*
X68799Y-60300D01*
X68779Y-60308D01*
X68779Y-57236D01*
X68743Y-57149D01*
X68677Y-57083D01*
X68590Y-57047D01*
X68496Y-57047D01*
X68409Y-57083D01*
X68343Y-57149D01*
X68307Y-57236D01*
X68307Y-57330D01*
X68342Y-57417D01*
X68409Y-57483D01*
X68496Y-57519D01*
X68590Y-57519D01*
X68676Y-57483D01*
X68743Y-57417D01*
X68779Y-57330D01*
X68779Y-57236D01*
X68779Y-60308D01*
X68724Y-60331D01*
X68658Y-60397D01*
X68622Y-60484D01*
X68622Y-60578D01*
X68657Y-60665D01*
X68724Y-60731D01*
X68811Y-60767D01*
X68905Y-60767D01*
X68991Y-60731D01*
X69058Y-60665D01*
X69094Y-60578D01*
X69094Y-60484D01*
X69094Y-60905D01*
X67539Y-60905D01*
X67539Y-51390D01*
X67503Y-51303D01*
X67437Y-51236D01*
X67350Y-51200D01*
X67322Y-51200D01*
X67322Y-39972D01*
X67286Y-39886D01*
X67223Y-39822D01*
X67286Y-39759D01*
X67322Y-39673D01*
X67322Y-39579D01*
X67286Y-39492D01*
X67223Y-39429D01*
X67286Y-39366D01*
X67322Y-39279D01*
X67322Y-39185D01*
X67286Y-39098D01*
X67220Y-39032D01*
X67133Y-38996D01*
X67126Y-38996D01*
X67126Y-24500D01*
X67090Y-24413D01*
X67023Y-24347D01*
X66936Y-24311D01*
X66842Y-24310D01*
X66756Y-24346D01*
X66689Y-24413D01*
X66653Y-24500D01*
X66653Y-24594D01*
X66689Y-24680D01*
X66755Y-24747D01*
X66842Y-24783D01*
X66936Y-24783D01*
X67023Y-24747D01*
X67089Y-24681D01*
X67125Y-24594D01*
X67126Y-24500D01*
X67126Y-38996D01*
X67068Y-38996D01*
X67068Y-30818D01*
X67032Y-30731D01*
X66966Y-30665D01*
X66879Y-30629D01*
X66811Y-30628D01*
X66811Y-25228D01*
X66775Y-25141D01*
X66708Y-25075D01*
X66621Y-25039D01*
X66528Y-25039D01*
X66441Y-25075D01*
X66374Y-25141D01*
X66338Y-25228D01*
X66338Y-25322D01*
X66374Y-25409D01*
X66440Y-25475D01*
X66527Y-25511D01*
X66621Y-25511D01*
X66708Y-25475D01*
X66774Y-25409D01*
X66810Y-25322D01*
X66811Y-25228D01*
X66811Y-30628D01*
X66785Y-30628D01*
X66698Y-30664D01*
X66632Y-30731D01*
X66596Y-30818D01*
X66596Y-30912D01*
X66632Y-30998D01*
X66698Y-31065D01*
X66785Y-31101D01*
X66879Y-31101D01*
X66966Y-31065D01*
X67032Y-30999D01*
X67068Y-30912D01*
X67068Y-30818D01*
X67068Y-38996D01*
X67039Y-38996D01*
X66952Y-39031D01*
X66889Y-39095D01*
X66826Y-39032D01*
X66740Y-38996D01*
X66692Y-38996D01*
X66692Y-31252D01*
X66657Y-31165D01*
X66590Y-31099D01*
X66503Y-31063D01*
X66409Y-31062D01*
X66323Y-31098D01*
X66256Y-31165D01*
X66220Y-31252D01*
X66220Y-31345D01*
X66256Y-31432D01*
X66322Y-31499D01*
X66409Y-31535D01*
X66503Y-31535D01*
X66590Y-31499D01*
X66656Y-31433D01*
X66692Y-31346D01*
X66692Y-31252D01*
X66692Y-38996D01*
X66646Y-38996D01*
X66559Y-39031D01*
X66492Y-39098D01*
X66456Y-39185D01*
X66456Y-39279D01*
X66492Y-39365D01*
X66555Y-39429D01*
X66492Y-39492D01*
X66456Y-39578D01*
X66456Y-39672D01*
X66492Y-39759D01*
X66555Y-39822D01*
X66492Y-39885D01*
X66456Y-39972D01*
X66456Y-40066D01*
X66492Y-40153D01*
X66558Y-40219D01*
X66645Y-40255D01*
X66739Y-40255D01*
X66826Y-40220D01*
X66889Y-40156D01*
X66952Y-40219D01*
X67039Y-40255D01*
X67133Y-40255D01*
X67220Y-40220D01*
X67286Y-40153D01*
X67322Y-40066D01*
X67322Y-39972D01*
X67322Y-51200D01*
X67256Y-51200D01*
X67169Y-51236D01*
X67103Y-51303D01*
X67066Y-51389D01*
X67066Y-51483D01*
X67099Y-51563D01*
X67035Y-51536D01*
X66941Y-51536D01*
X66854Y-51572D01*
X66788Y-51638D01*
X66752Y-51725D01*
X66751Y-51819D01*
X66787Y-51906D01*
X66854Y-51972D01*
X66940Y-52008D01*
X67034Y-52008D01*
X67121Y-51972D01*
X67188Y-51906D01*
X67224Y-51819D01*
X67224Y-51725D01*
X67191Y-51646D01*
X67255Y-51673D01*
X67349Y-51673D01*
X67436Y-51637D01*
X67503Y-51570D01*
X67539Y-51484D01*
X67539Y-51390D01*
X67539Y-60905D01*
X67519Y-60905D01*
X67519Y-57256D01*
X67483Y-57169D01*
X67417Y-57103D01*
X67330Y-57066D01*
X67236Y-57066D01*
X67149Y-57102D01*
X67083Y-57169D01*
X67047Y-57255D01*
X67047Y-57349D01*
X67083Y-57436D01*
X67149Y-57503D01*
X67236Y-57539D01*
X67330Y-57539D01*
X67417Y-57503D01*
X67483Y-57437D01*
X67519Y-57350D01*
X67519Y-57256D01*
X67519Y-60905D01*
X67185Y-60905D01*
X67185Y-58083D01*
X67149Y-57996D01*
X67082Y-57929D01*
X66996Y-57893D01*
X66902Y-57893D01*
X66815Y-57929D01*
X66748Y-57995D01*
X66712Y-58082D01*
X66712Y-58176D01*
X66748Y-58263D01*
X66814Y-58330D01*
X66901Y-58366D01*
X66995Y-58366D01*
X67082Y-58330D01*
X67148Y-58263D01*
X67184Y-58177D01*
X67185Y-58083D01*
X67185Y-60905D01*
X65315Y-60905D01*
X65315Y-42512D01*
X65279Y-42425D01*
X65212Y-42358D01*
X65125Y-42322D01*
X65098Y-42322D01*
X65098Y-41594D01*
X65098Y-41587D01*
X65084Y-41519D01*
X65084Y-41519D01*
X65046Y-41462D01*
X65044Y-41460D01*
X64987Y-41422D01*
X64960Y-41416D01*
X64960Y-34499D01*
X64924Y-34412D01*
X64901Y-34389D01*
X64901Y-28594D01*
X64865Y-28507D01*
X64799Y-28440D01*
X64712Y-28404D01*
X64618Y-28404D01*
X64531Y-28440D01*
X64465Y-28507D01*
X64429Y-28593D01*
X64429Y-28687D01*
X64464Y-28774D01*
X64531Y-28841D01*
X64618Y-28877D01*
X64712Y-28877D01*
X64798Y-28841D01*
X64865Y-28775D01*
X64901Y-28688D01*
X64901Y-28594D01*
X64901Y-34389D01*
X64858Y-34346D01*
X64771Y-34310D01*
X64677Y-34310D01*
X64590Y-34346D01*
X64524Y-34412D01*
X64488Y-34499D01*
X64488Y-34593D01*
X64524Y-34680D01*
X64590Y-34746D01*
X64677Y-34782D01*
X64771Y-34782D01*
X64858Y-34746D01*
X64924Y-34680D01*
X64960Y-34593D01*
X64960Y-34499D01*
X64960Y-41416D01*
X64919Y-41408D01*
X64851Y-41422D01*
X64794Y-41460D01*
X64755Y-41518D01*
X64742Y-41585D01*
X64744Y-41594D01*
X64744Y-41594D01*
X64757Y-41662D01*
X64795Y-41719D01*
X64853Y-41758D01*
X64921Y-41771D01*
X64989Y-41758D01*
X65046Y-41719D01*
X65084Y-41662D01*
X65098Y-41594D01*
X65098Y-42322D01*
X65031Y-42322D01*
X64945Y-42358D01*
X64878Y-42425D01*
X64842Y-42511D01*
X64842Y-42605D01*
X64878Y-42692D01*
X64944Y-42759D01*
X65031Y-42795D01*
X65125Y-42795D01*
X65212Y-42759D01*
X65278Y-42693D01*
X65314Y-42606D01*
X65315Y-42512D01*
X65315Y-60905D01*
X64822Y-60905D01*
X64822Y-49657D01*
X64822Y-48083D01*
X64786Y-47996D01*
X64720Y-47929D01*
X64633Y-47893D01*
X64626Y-47893D01*
X64626Y-45563D01*
X64590Y-45476D01*
X64523Y-45410D01*
X64436Y-45374D01*
X64342Y-45373D01*
X64256Y-45409D01*
X64189Y-45476D01*
X64153Y-45563D01*
X64153Y-45657D01*
X64189Y-45743D01*
X64255Y-45810D01*
X64342Y-45846D01*
X64436Y-45846D01*
X64523Y-45810D01*
X64589Y-45744D01*
X64625Y-45657D01*
X64626Y-45563D01*
X64626Y-47893D01*
X64539Y-47893D01*
X64452Y-47929D01*
X64386Y-47995D01*
X64350Y-48082D01*
X64350Y-48176D01*
X64386Y-48263D01*
X64452Y-48330D01*
X64539Y-48366D01*
X64633Y-48366D01*
X64720Y-48330D01*
X64786Y-48263D01*
X64822Y-48177D01*
X64822Y-48083D01*
X64822Y-49657D01*
X64786Y-49571D01*
X64720Y-49504D01*
X64633Y-49468D01*
X64539Y-49468D01*
X64452Y-49504D01*
X64386Y-49570D01*
X64350Y-49657D01*
X64350Y-49751D01*
X64386Y-49838D01*
X64452Y-49904D01*
X64539Y-49940D01*
X64633Y-49940D01*
X64720Y-49905D01*
X64786Y-49838D01*
X64822Y-49751D01*
X64822Y-49657D01*
X64822Y-60905D01*
X64803Y-60905D01*
X64803Y-53988D01*
X64767Y-53901D01*
X64700Y-53835D01*
X64614Y-53799D01*
X64520Y-53799D01*
X64433Y-53835D01*
X64366Y-53901D01*
X64330Y-53988D01*
X64330Y-54082D01*
X64366Y-54169D01*
X64432Y-54235D01*
X64519Y-54271D01*
X64613Y-54271D01*
X64700Y-54235D01*
X64767Y-54169D01*
X64803Y-54082D01*
X64803Y-53988D01*
X64803Y-60905D01*
X64783Y-60905D01*
X64783Y-55563D01*
X64747Y-55476D01*
X64681Y-55410D01*
X64594Y-55374D01*
X64500Y-55373D01*
X64413Y-55409D01*
X64347Y-55476D01*
X64311Y-55563D01*
X64310Y-55657D01*
X64346Y-55743D01*
X64413Y-55810D01*
X64500Y-55846D01*
X64594Y-55846D01*
X64680Y-55810D01*
X64747Y-55744D01*
X64783Y-55657D01*
X64783Y-55563D01*
X64783Y-60905D01*
X62815Y-60905D01*
X62815Y-45563D01*
X62779Y-45476D01*
X62755Y-45453D01*
X62755Y-42512D01*
X62720Y-42425D01*
X62653Y-42358D01*
X62566Y-42322D01*
X62472Y-42322D01*
X62386Y-42358D01*
X62319Y-42425D01*
X62283Y-42511D01*
X62283Y-42605D01*
X62319Y-42692D01*
X62385Y-42759D01*
X62472Y-42795D01*
X62566Y-42795D01*
X62653Y-42759D01*
X62719Y-42693D01*
X62755Y-42606D01*
X62755Y-42512D01*
X62755Y-45453D01*
X62712Y-45410D01*
X62625Y-45374D01*
X62531Y-45373D01*
X62445Y-45409D01*
X62378Y-45476D01*
X62342Y-45563D01*
X62342Y-45657D01*
X62378Y-45743D01*
X62444Y-45810D01*
X62531Y-45846D01*
X62625Y-45846D01*
X62712Y-45810D01*
X62778Y-45744D01*
X62814Y-45657D01*
X62815Y-45563D01*
X62815Y-60905D01*
X61259Y-60905D01*
X61259Y-35268D01*
X61223Y-35181D01*
X61157Y-35114D01*
X61070Y-35078D01*
X60976Y-35078D01*
X60889Y-35114D01*
X60823Y-35180D01*
X60787Y-35267D01*
X60787Y-35361D01*
X60823Y-35448D01*
X60889Y-35515D01*
X60976Y-35551D01*
X61070Y-35551D01*
X61157Y-35515D01*
X61223Y-35448D01*
X61259Y-35362D01*
X61259Y-35268D01*
X61259Y-60905D01*
X59252Y-60905D01*
X59252Y-34382D01*
X59216Y-34295D01*
X59149Y-34228D01*
X59062Y-34192D01*
X58968Y-34192D01*
X58882Y-34228D01*
X58815Y-34295D01*
X58779Y-34381D01*
X58779Y-34475D01*
X58815Y-34562D01*
X58881Y-34629D01*
X58968Y-34665D01*
X59062Y-34665D01*
X59149Y-34629D01*
X59215Y-34563D01*
X59251Y-34476D01*
X59252Y-34382D01*
X59252Y-60905D01*
X58189Y-60905D01*
X58189Y-48220D01*
X58153Y-48134D01*
X58086Y-48067D01*
X57999Y-48031D01*
X57905Y-48031D01*
X57819Y-48067D01*
X57752Y-48133D01*
X57716Y-48220D01*
X57716Y-48314D01*
X57752Y-48401D01*
X57818Y-48467D01*
X57905Y-48503D01*
X57999Y-48503D01*
X58086Y-48468D01*
X58152Y-48401D01*
X58188Y-48314D01*
X58189Y-48220D01*
X58189Y-60905D01*
X56299Y-60905D01*
X56299Y-47433D01*
X56263Y-47346D01*
X56196Y-47280D01*
X56110Y-47244D01*
X56016Y-47244D01*
X55929Y-47279D01*
X55862Y-47346D01*
X55826Y-47433D01*
X55826Y-47527D01*
X55862Y-47613D01*
X55929Y-47680D01*
X56015Y-47716D01*
X56109Y-47716D01*
X56196Y-47680D01*
X56263Y-47614D01*
X56299Y-47527D01*
X56299Y-47433D01*
X56299Y-60905D01*
X52263Y-60905D01*
X52263Y-28594D01*
X52227Y-28508D01*
X52224Y-28504D01*
X52224Y-27000D01*
X52188Y-26913D01*
X52122Y-26847D01*
X52035Y-26811D01*
X51941Y-26810D01*
X51854Y-26846D01*
X51788Y-26913D01*
X51752Y-27000D01*
X51751Y-27094D01*
X51787Y-27180D01*
X51854Y-27247D01*
X51940Y-27283D01*
X52034Y-27283D01*
X52121Y-27247D01*
X52188Y-27181D01*
X52224Y-27094D01*
X52224Y-27000D01*
X52224Y-28504D01*
X52161Y-28441D01*
X52074Y-28405D01*
X51980Y-28405D01*
X51893Y-28441D01*
X51827Y-28507D01*
X51791Y-28594D01*
X51791Y-28688D01*
X51827Y-28775D01*
X51893Y-28841D01*
X51980Y-28877D01*
X52074Y-28877D01*
X52161Y-28842D01*
X52227Y-28775D01*
X52263Y-28688D01*
X52263Y-28594D01*
X52263Y-60905D01*
X52224Y-60905D01*
X52224Y-32925D01*
X52188Y-32838D01*
X52122Y-32772D01*
X52035Y-32736D01*
X51941Y-32736D01*
X51854Y-32772D01*
X51788Y-32838D01*
X51752Y-32925D01*
X51751Y-33019D01*
X51787Y-33106D01*
X51854Y-33172D01*
X51940Y-33208D01*
X52034Y-33208D01*
X52121Y-33172D01*
X52188Y-33106D01*
X52224Y-33019D01*
X52224Y-32925D01*
X52224Y-60905D01*
X52204Y-60905D01*
X52204Y-34500D01*
X52168Y-34413D01*
X52102Y-34347D01*
X52015Y-34311D01*
X51921Y-34310D01*
X51834Y-34346D01*
X51768Y-34413D01*
X51732Y-34500D01*
X51732Y-34594D01*
X51768Y-34680D01*
X51834Y-34747D01*
X51921Y-34783D01*
X52015Y-34783D01*
X52102Y-34747D01*
X52168Y-34681D01*
X52204Y-34594D01*
X52204Y-34500D01*
X52204Y-60905D01*
X52086Y-60905D01*
X52086Y-53989D01*
X52066Y-53941D01*
X52066Y-48083D01*
X52031Y-47996D01*
X51964Y-47930D01*
X51877Y-47894D01*
X51783Y-47894D01*
X51697Y-47930D01*
X51630Y-47996D01*
X51594Y-48083D01*
X51594Y-48177D01*
X51630Y-48264D01*
X51696Y-48330D01*
X51783Y-48366D01*
X51877Y-48366D01*
X51964Y-48330D01*
X52030Y-48264D01*
X52066Y-48177D01*
X52066Y-48083D01*
X52066Y-53941D01*
X52050Y-53902D01*
X51984Y-53835D01*
X51897Y-53799D01*
X51803Y-53799D01*
X51716Y-53835D01*
X51650Y-53902D01*
X51614Y-53988D01*
X51614Y-54082D01*
X51650Y-54169D01*
X51716Y-54236D01*
X51803Y-54272D01*
X51897Y-54272D01*
X51984Y-54236D01*
X52050Y-54170D01*
X52086Y-54083D01*
X52086Y-53989D01*
X52086Y-60905D01*
X50236Y-60905D01*
X50236Y-57256D01*
X50200Y-57169D01*
X50196Y-57166D01*
X50196Y-51429D01*
X50161Y-51342D01*
X50094Y-51276D01*
X50007Y-51240D01*
X49913Y-51240D01*
X49826Y-51276D01*
X49783Y-51319D01*
X49783Y-24638D01*
X49747Y-24551D01*
X49681Y-24484D01*
X49594Y-24448D01*
X49500Y-24448D01*
X49413Y-24484D01*
X49347Y-24551D01*
X49311Y-24637D01*
X49310Y-24731D01*
X49346Y-24818D01*
X49413Y-24885D01*
X49500Y-24921D01*
X49594Y-24921D01*
X49680Y-24885D01*
X49747Y-24819D01*
X49783Y-24732D01*
X49783Y-24638D01*
X49783Y-51319D01*
X49760Y-51342D01*
X49745Y-51377D01*
X49745Y-30877D01*
X49710Y-30790D01*
X49643Y-30724D01*
X49556Y-30688D01*
X49462Y-30688D01*
X49429Y-30701D01*
X49429Y-25228D01*
X49393Y-25141D01*
X49326Y-25075D01*
X49240Y-25039D01*
X49146Y-25039D01*
X49059Y-25075D01*
X48992Y-25141D01*
X48956Y-25228D01*
X48956Y-25322D01*
X48992Y-25409D01*
X49058Y-25475D01*
X49145Y-25511D01*
X49239Y-25511D01*
X49326Y-25475D01*
X49393Y-25409D01*
X49429Y-25322D01*
X49429Y-25228D01*
X49429Y-30701D01*
X49375Y-30723D01*
X49309Y-30790D01*
X49273Y-30877D01*
X49273Y-30971D01*
X49309Y-31057D01*
X49319Y-31068D01*
X49259Y-31043D01*
X49165Y-31043D01*
X49078Y-31079D01*
X49012Y-31145D01*
X48976Y-31232D01*
X48976Y-31326D01*
X49012Y-31413D01*
X49078Y-31479D01*
X49165Y-31515D01*
X49259Y-31515D01*
X49346Y-31479D01*
X49412Y-31413D01*
X49448Y-31326D01*
X49448Y-31232D01*
X49412Y-31145D01*
X49402Y-31135D01*
X49462Y-31160D01*
X49556Y-31160D01*
X49643Y-31124D01*
X49709Y-31058D01*
X49745Y-30971D01*
X49745Y-30877D01*
X49745Y-51377D01*
X49724Y-51429D01*
X49724Y-51523D01*
X49760Y-51610D01*
X49826Y-51676D01*
X49913Y-51712D01*
X50007Y-51712D01*
X50094Y-51676D01*
X50160Y-51610D01*
X50196Y-51523D01*
X50196Y-51429D01*
X50196Y-57166D01*
X50133Y-57103D01*
X50047Y-57066D01*
X49953Y-57066D01*
X49881Y-57096D01*
X49881Y-51804D01*
X49846Y-51717D01*
X49779Y-51651D01*
X49692Y-51615D01*
X49598Y-51615D01*
X49512Y-51650D01*
X49445Y-51717D01*
X49409Y-51804D01*
X49409Y-51898D01*
X49445Y-51984D01*
X49511Y-52051D01*
X49598Y-52087D01*
X49692Y-52087D01*
X49779Y-52051D01*
X49845Y-51985D01*
X49881Y-51898D01*
X49881Y-51804D01*
X49881Y-57096D01*
X49866Y-57102D01*
X49799Y-57169D01*
X49763Y-57255D01*
X49763Y-57349D01*
X49799Y-57436D01*
X49866Y-57503D01*
X49952Y-57539D01*
X50046Y-57539D01*
X50133Y-57503D01*
X50200Y-57437D01*
X50236Y-57350D01*
X50236Y-57256D01*
X50236Y-60905D01*
X49862Y-60905D01*
X49862Y-58024D01*
X49826Y-57937D01*
X49759Y-57870D01*
X49673Y-57834D01*
X49579Y-57834D01*
X49492Y-57870D01*
X49425Y-57936D01*
X49389Y-58023D01*
X49389Y-58117D01*
X49425Y-58204D01*
X49492Y-58271D01*
X49578Y-58307D01*
X49672Y-58307D01*
X49759Y-58271D01*
X49826Y-58204D01*
X49862Y-58118D01*
X49862Y-58024D01*
X49862Y-60905D01*
X48149Y-60905D01*
X48149Y-31232D01*
X48149Y-25228D01*
X48113Y-25141D01*
X48047Y-25075D01*
X47960Y-25039D01*
X47866Y-25039D01*
X47779Y-25075D01*
X47713Y-25141D01*
X47677Y-25228D01*
X47677Y-25322D01*
X47713Y-25409D01*
X47779Y-25475D01*
X47866Y-25511D01*
X47960Y-25511D01*
X48047Y-25475D01*
X48113Y-25409D01*
X48149Y-25322D01*
X48149Y-25228D01*
X48149Y-31232D01*
X48113Y-31145D01*
X48047Y-31079D01*
X47960Y-31043D01*
X47866Y-31043D01*
X47779Y-31079D01*
X47713Y-31145D01*
X47677Y-31232D01*
X47677Y-31326D01*
X47713Y-31413D01*
X47779Y-31479D01*
X47866Y-31515D01*
X47960Y-31515D01*
X48047Y-31479D01*
X48113Y-31413D01*
X48149Y-31326D01*
X48149Y-31232D01*
X48149Y-60905D01*
X47815Y-60905D01*
X47815Y-55564D01*
X47779Y-55477D01*
X47712Y-55411D01*
X47625Y-55374D01*
X47618Y-55374D01*
X47618Y-34499D01*
X47618Y-28554D01*
X47582Y-28467D01*
X47515Y-28401D01*
X47429Y-28365D01*
X47335Y-28365D01*
X47248Y-28401D01*
X47181Y-28467D01*
X47145Y-28554D01*
X47145Y-28648D01*
X47181Y-28735D01*
X47247Y-28801D01*
X47334Y-28837D01*
X47428Y-28837D01*
X47515Y-28801D01*
X47582Y-28735D01*
X47618Y-28648D01*
X47618Y-28554D01*
X47618Y-34499D01*
X47582Y-34412D01*
X47515Y-34346D01*
X47429Y-34310D01*
X47335Y-34310D01*
X47248Y-34345D01*
X47181Y-34412D01*
X47145Y-34499D01*
X47145Y-34593D01*
X47181Y-34679D01*
X47247Y-34746D01*
X47334Y-34782D01*
X47428Y-34782D01*
X47515Y-34746D01*
X47582Y-34680D01*
X47618Y-34593D01*
X47618Y-34499D01*
X47618Y-55374D01*
X47531Y-55374D01*
X47445Y-55410D01*
X47440Y-55414D01*
X47440Y-49657D01*
X47405Y-49571D01*
X47401Y-49567D01*
X47401Y-48083D01*
X47365Y-47996D01*
X47299Y-47929D01*
X47212Y-47893D01*
X47118Y-47893D01*
X47031Y-47929D01*
X46981Y-47979D01*
X46981Y-30329D01*
X46841Y-29992D01*
X46583Y-29733D01*
X46246Y-29593D01*
X45881Y-29593D01*
X45543Y-29733D01*
X45285Y-29991D01*
X45196Y-30203D01*
X45196Y-28594D01*
X45196Y-27020D01*
X45161Y-26933D01*
X45094Y-26866D01*
X45007Y-26830D01*
X44913Y-26830D01*
X44826Y-26866D01*
X44760Y-26932D01*
X44724Y-27019D01*
X44724Y-27113D01*
X44760Y-27200D01*
X44826Y-27267D01*
X44913Y-27303D01*
X45007Y-27303D01*
X45094Y-27267D01*
X45160Y-27200D01*
X45196Y-27114D01*
X45196Y-27020D01*
X45196Y-28594D01*
X45161Y-28508D01*
X45094Y-28441D01*
X45007Y-28405D01*
X44913Y-28405D01*
X44826Y-28441D01*
X44760Y-28507D01*
X44724Y-28594D01*
X44724Y-28688D01*
X44760Y-28775D01*
X44826Y-28841D01*
X44913Y-28877D01*
X45007Y-28877D01*
X45094Y-28842D01*
X45160Y-28775D01*
X45196Y-28688D01*
X45196Y-28594D01*
X45196Y-30203D01*
X45145Y-30328D01*
X45144Y-30693D01*
X45284Y-31031D01*
X45542Y-31289D01*
X45879Y-31429D01*
X46244Y-31430D01*
X46582Y-31290D01*
X46840Y-31032D01*
X46980Y-30695D01*
X46981Y-30329D01*
X46981Y-47979D01*
X46965Y-47995D01*
X46929Y-48082D01*
X46929Y-48176D01*
X46964Y-48263D01*
X47031Y-48330D01*
X47118Y-48366D01*
X47212Y-48366D01*
X47298Y-48330D01*
X47365Y-48263D01*
X47401Y-48177D01*
X47401Y-48083D01*
X47401Y-49567D01*
X47338Y-49504D01*
X47251Y-49468D01*
X47157Y-49468D01*
X47071Y-49504D01*
X47004Y-49570D01*
X46968Y-49657D01*
X46968Y-49751D01*
X47004Y-49838D01*
X47070Y-49904D01*
X47157Y-49940D01*
X47251Y-49940D01*
X47338Y-49905D01*
X47404Y-49838D01*
X47440Y-49751D01*
X47440Y-49657D01*
X47440Y-55414D01*
X47421Y-55434D01*
X47421Y-53988D01*
X47385Y-53901D01*
X47319Y-53835D01*
X47232Y-53799D01*
X47138Y-53799D01*
X47051Y-53835D01*
X46984Y-53901D01*
X46981Y-53910D01*
X46981Y-51983D01*
X46841Y-51645D01*
X46583Y-51387D01*
X46536Y-51367D01*
X46536Y-43428D01*
X46536Y-43105D01*
X46536Y-41775D01*
X46536Y-41452D01*
X46536Y-40122D01*
X46536Y-39799D01*
X46426Y-39570D01*
X46237Y-39400D01*
X46066Y-39329D01*
X45965Y-39371D01*
X45965Y-39900D01*
X46494Y-39900D01*
X46536Y-39799D01*
X46536Y-40122D01*
X46494Y-40021D01*
X45965Y-40021D01*
X45965Y-40550D01*
X46066Y-40593D01*
X46237Y-40522D01*
X46426Y-40352D01*
X46536Y-40122D01*
X46536Y-41452D01*
X46426Y-41223D01*
X46237Y-41053D01*
X46066Y-40982D01*
X45965Y-41024D01*
X45965Y-41553D01*
X46494Y-41553D01*
X46536Y-41452D01*
X46536Y-41775D01*
X46494Y-41674D01*
X45965Y-41674D01*
X45965Y-42203D01*
X46066Y-42246D01*
X46237Y-42175D01*
X46426Y-42005D01*
X46536Y-41775D01*
X46536Y-43105D01*
X46426Y-42876D01*
X46237Y-42706D01*
X46066Y-42635D01*
X45965Y-42677D01*
X45965Y-43206D01*
X46494Y-43206D01*
X46536Y-43105D01*
X46536Y-43428D01*
X46494Y-43327D01*
X45965Y-43327D01*
X45965Y-43856D01*
X46066Y-43899D01*
X46237Y-43828D01*
X46426Y-43658D01*
X46536Y-43428D01*
X46536Y-51367D01*
X46246Y-51247D01*
X45881Y-51247D01*
X45844Y-51262D01*
X45844Y-43856D01*
X45844Y-43327D01*
X45844Y-43206D01*
X45844Y-42677D01*
X45844Y-42203D01*
X45844Y-41674D01*
X45844Y-41553D01*
X45844Y-41024D01*
X45844Y-40550D01*
X45844Y-40021D01*
X45844Y-39900D01*
X45844Y-39371D01*
X45743Y-39329D01*
X45571Y-39400D01*
X45382Y-39570D01*
X45272Y-39799D01*
X45315Y-39900D01*
X45844Y-39900D01*
X45844Y-40021D01*
X45315Y-40021D01*
X45272Y-40122D01*
X45382Y-40352D01*
X45571Y-40522D01*
X45743Y-40593D01*
X45844Y-40550D01*
X45844Y-41024D01*
X45743Y-40982D01*
X45571Y-41053D01*
X45382Y-41223D01*
X45272Y-41452D01*
X45315Y-41553D01*
X45844Y-41553D01*
X45844Y-41674D01*
X45315Y-41674D01*
X45272Y-41775D01*
X45382Y-42005D01*
X45571Y-42175D01*
X45743Y-42246D01*
X45844Y-42203D01*
X45844Y-42677D01*
X45743Y-42635D01*
X45571Y-42706D01*
X45382Y-42876D01*
X45272Y-43105D01*
X45315Y-43206D01*
X45844Y-43206D01*
X45844Y-43327D01*
X45315Y-43327D01*
X45272Y-43428D01*
X45382Y-43658D01*
X45571Y-43828D01*
X45743Y-43899D01*
X45844Y-43856D01*
X45844Y-51262D01*
X45543Y-51386D01*
X45285Y-51644D01*
X45236Y-51762D01*
X45236Y-34500D01*
X45236Y-32925D01*
X45200Y-32838D01*
X45133Y-32772D01*
X45047Y-32736D01*
X44953Y-32736D01*
X44866Y-32772D01*
X44799Y-32838D01*
X44763Y-32925D01*
X44763Y-33019D01*
X44799Y-33106D01*
X44866Y-33172D01*
X44952Y-33208D01*
X45046Y-33208D01*
X45133Y-33172D01*
X45200Y-33106D01*
X45236Y-33019D01*
X45236Y-32925D01*
X45236Y-34500D01*
X45200Y-34413D01*
X45133Y-34347D01*
X45047Y-34311D01*
X44953Y-34310D01*
X44866Y-34346D01*
X44799Y-34413D01*
X44763Y-34500D01*
X44763Y-34594D01*
X44799Y-34680D01*
X44866Y-34747D01*
X44952Y-34783D01*
X45046Y-34783D01*
X45133Y-34747D01*
X45200Y-34681D01*
X45236Y-34594D01*
X45236Y-34500D01*
X45236Y-51762D01*
X45145Y-51981D01*
X45144Y-52347D01*
X45284Y-52684D01*
X45542Y-52943D01*
X45879Y-53083D01*
X46244Y-53083D01*
X46582Y-52944D01*
X46840Y-52686D01*
X46980Y-52348D01*
X46981Y-51983D01*
X46981Y-53910D01*
X46948Y-53988D01*
X46948Y-54082D01*
X46984Y-54169D01*
X47051Y-54235D01*
X47137Y-54271D01*
X47231Y-54271D01*
X47318Y-54235D01*
X47385Y-54169D01*
X47421Y-54082D01*
X47421Y-53988D01*
X47421Y-55434D01*
X47378Y-55477D01*
X47342Y-55563D01*
X47342Y-55657D01*
X47378Y-55744D01*
X47444Y-55811D01*
X47531Y-55847D01*
X47625Y-55847D01*
X47712Y-55811D01*
X47778Y-55745D01*
X47814Y-55658D01*
X47815Y-55564D01*
X47815Y-60905D01*
X45059Y-60905D01*
X45059Y-53989D01*
X45023Y-53902D01*
X45019Y-53898D01*
X45019Y-48084D01*
X44983Y-47997D01*
X44917Y-47930D01*
X44830Y-47894D01*
X44783Y-47894D01*
X44783Y-43277D01*
X44783Y-43256D01*
X44783Y-41624D01*
X44783Y-41603D01*
X44783Y-39971D01*
X44783Y-39950D01*
X44743Y-39747D01*
X44628Y-39575D01*
X44455Y-39460D01*
X44252Y-39419D01*
X44049Y-39460D01*
X43877Y-39575D01*
X43762Y-39747D01*
X43721Y-39950D01*
X43721Y-39971D01*
X43762Y-40174D01*
X43877Y-40347D01*
X44049Y-40462D01*
X44252Y-40502D01*
X44455Y-40462D01*
X44628Y-40347D01*
X44743Y-40174D01*
X44783Y-39971D01*
X44783Y-41603D01*
X44743Y-41400D01*
X44628Y-41228D01*
X44455Y-41113D01*
X44252Y-41072D01*
X44049Y-41113D01*
X43877Y-41228D01*
X43762Y-41400D01*
X43721Y-41603D01*
X43721Y-41624D01*
X43762Y-41827D01*
X43877Y-42000D01*
X44049Y-42115D01*
X44252Y-42155D01*
X44455Y-42115D01*
X44628Y-42000D01*
X44743Y-41827D01*
X44783Y-41624D01*
X44783Y-43256D01*
X44743Y-43053D01*
X44628Y-42881D01*
X44455Y-42766D01*
X44252Y-42725D01*
X44049Y-42766D01*
X43877Y-42881D01*
X43762Y-43053D01*
X43721Y-43256D01*
X43721Y-43277D01*
X43762Y-43480D01*
X43877Y-43653D01*
X44049Y-43768D01*
X44252Y-43808D01*
X44455Y-43768D01*
X44628Y-43653D01*
X44743Y-43480D01*
X44783Y-43277D01*
X44783Y-47894D01*
X44736Y-47894D01*
X44649Y-47930D01*
X44583Y-47996D01*
X44547Y-48083D01*
X44547Y-48177D01*
X44583Y-48264D01*
X44649Y-48330D01*
X44736Y-48367D01*
X44830Y-48367D01*
X44917Y-48331D01*
X44983Y-48264D01*
X45019Y-48178D01*
X45019Y-48084D01*
X45019Y-53898D01*
X44956Y-53835D01*
X44870Y-53799D01*
X44776Y-53799D01*
X44689Y-53835D01*
X44622Y-53902D01*
X44586Y-53988D01*
X44586Y-54082D01*
X44622Y-54169D01*
X44688Y-54236D01*
X44775Y-54272D01*
X44869Y-54272D01*
X44956Y-54236D01*
X45022Y-54170D01*
X45059Y-54083D01*
X45059Y-53989D01*
X45059Y-60905D01*
X44370Y-60905D01*
X44370Y-57256D01*
X44370Y-51370D01*
X44334Y-51283D01*
X44267Y-51217D01*
X44181Y-51181D01*
X44087Y-51181D01*
X44000Y-51216D01*
X43933Y-51283D01*
X43897Y-51370D01*
X43897Y-51464D01*
X43933Y-51550D01*
X43999Y-51617D01*
X44086Y-51653D01*
X44180Y-51653D01*
X44267Y-51617D01*
X44333Y-51551D01*
X44370Y-51464D01*
X44370Y-51370D01*
X44370Y-57256D01*
X44334Y-57169D01*
X44267Y-57103D01*
X44181Y-57066D01*
X44087Y-57066D01*
X44000Y-57102D01*
X43933Y-57169D01*
X43897Y-57255D01*
X43897Y-57349D01*
X43933Y-57436D01*
X43999Y-57503D01*
X44086Y-57539D01*
X44180Y-57539D01*
X44267Y-57503D01*
X44333Y-57437D01*
X44370Y-57350D01*
X44370Y-57256D01*
X44370Y-60905D01*
X43149Y-60905D01*
X43149Y-57335D01*
X43113Y-57248D01*
X43047Y-57181D01*
X42972Y-57150D01*
X42972Y-24618D01*
X42936Y-24531D01*
X42870Y-24465D01*
X42783Y-24429D01*
X42689Y-24429D01*
X42602Y-24464D01*
X42536Y-24531D01*
X42500Y-24618D01*
X42499Y-24712D01*
X42535Y-24798D01*
X42602Y-24865D01*
X42689Y-24901D01*
X42783Y-24901D01*
X42869Y-24865D01*
X42936Y-24799D01*
X42972Y-24712D01*
X42972Y-24618D01*
X42972Y-57150D01*
X42960Y-57145D01*
X42866Y-57145D01*
X42795Y-57175D01*
X42795Y-51784D01*
X42759Y-51697D01*
X42693Y-51631D01*
X42657Y-51616D01*
X42657Y-30857D01*
X42621Y-30770D01*
X42598Y-30747D01*
X42598Y-25228D01*
X42562Y-25141D01*
X42496Y-25075D01*
X42409Y-25039D01*
X42315Y-25039D01*
X42228Y-25075D01*
X42162Y-25141D01*
X42126Y-25228D01*
X42125Y-25322D01*
X42161Y-25409D01*
X42228Y-25475D01*
X42315Y-25511D01*
X42408Y-25511D01*
X42495Y-25475D01*
X42562Y-25409D01*
X42598Y-25322D01*
X42598Y-25228D01*
X42598Y-30747D01*
X42555Y-30704D01*
X42468Y-30668D01*
X42374Y-30668D01*
X42287Y-30704D01*
X42221Y-30770D01*
X42185Y-30857D01*
X42184Y-30951D01*
X42220Y-31038D01*
X42287Y-31104D01*
X42374Y-31140D01*
X42468Y-31140D01*
X42554Y-31104D01*
X42621Y-31038D01*
X42657Y-30951D01*
X42657Y-30857D01*
X42657Y-51616D01*
X42606Y-51595D01*
X42512Y-51595D01*
X42425Y-51631D01*
X42358Y-51697D01*
X42322Y-51784D01*
X42322Y-51878D01*
X42358Y-51965D01*
X42425Y-52031D01*
X42511Y-52067D01*
X42605Y-52067D01*
X42692Y-52031D01*
X42759Y-51965D01*
X42795Y-51878D01*
X42795Y-51784D01*
X42795Y-57175D01*
X42779Y-57181D01*
X42713Y-57247D01*
X42677Y-57334D01*
X42677Y-57401D01*
X42669Y-57401D01*
X42582Y-57437D01*
X42516Y-57503D01*
X42480Y-57590D01*
X42480Y-57684D01*
X42516Y-57771D01*
X42582Y-57837D01*
X42669Y-57873D01*
X42763Y-57874D01*
X42850Y-57838D01*
X42916Y-57771D01*
X42952Y-57684D01*
X42952Y-57618D01*
X42960Y-57618D01*
X43047Y-57582D01*
X43113Y-57515D01*
X43149Y-57429D01*
X43149Y-57335D01*
X43149Y-60905D01*
X42283Y-60905D01*
X42283Y-31213D01*
X42247Y-31126D01*
X42181Y-31059D01*
X42094Y-31023D01*
X42000Y-31023D01*
X41913Y-31059D01*
X41847Y-31125D01*
X41811Y-31212D01*
X41810Y-31306D01*
X41846Y-31393D01*
X41913Y-31459D01*
X42000Y-31496D01*
X42094Y-31496D01*
X42180Y-31460D01*
X42247Y-31393D01*
X42283Y-31307D01*
X42283Y-31213D01*
X42283Y-60905D01*
X41988Y-60905D01*
X41988Y-57814D01*
X41974Y-57747D01*
X41936Y-57689D01*
X41878Y-57651D01*
X41811Y-57637D01*
X41810Y-57637D01*
X41771Y-57645D01*
X41771Y-23560D01*
X41634Y-23227D01*
X41379Y-22972D01*
X41047Y-22834D01*
X40686Y-22834D01*
X40353Y-22972D01*
X40098Y-23226D01*
X39960Y-23559D01*
X39960Y-23919D01*
X40098Y-24252D01*
X40352Y-24507D01*
X40685Y-24645D01*
X41045Y-24645D01*
X41378Y-24508D01*
X41633Y-24253D01*
X41771Y-23921D01*
X41771Y-23560D01*
X41771Y-57645D01*
X41742Y-57651D01*
X41684Y-57689D01*
X41646Y-57747D01*
X41632Y-57814D01*
X41646Y-57882D01*
X41684Y-57940D01*
X41742Y-57978D01*
X41810Y-57992D01*
X41811Y-57992D01*
X41878Y-57978D01*
X41936Y-57940D01*
X41974Y-57882D01*
X41988Y-57814D01*
X41988Y-60905D01*
X41784Y-60905D01*
X41784Y-58755D01*
X41644Y-58417D01*
X41386Y-58159D01*
X41049Y-58019D01*
X40684Y-58018D01*
X40531Y-58081D01*
X40531Y-34460D01*
X40531Y-28475D01*
X40495Y-28389D01*
X40429Y-28322D01*
X40342Y-28286D01*
X40248Y-28286D01*
X40161Y-28322D01*
X40095Y-28388D01*
X40059Y-28475D01*
X40059Y-28569D01*
X40094Y-28656D01*
X40161Y-28722D01*
X40248Y-28758D01*
X40342Y-28758D01*
X40428Y-28723D01*
X40495Y-28656D01*
X40531Y-28569D01*
X40531Y-28475D01*
X40531Y-34460D01*
X40495Y-34373D01*
X40429Y-34306D01*
X40342Y-34270D01*
X40248Y-34270D01*
X40161Y-34306D01*
X40095Y-34372D01*
X40059Y-34459D01*
X40059Y-34553D01*
X40094Y-34640D01*
X40161Y-34707D01*
X40248Y-34743D01*
X40342Y-34743D01*
X40428Y-34707D01*
X40495Y-34640D01*
X40531Y-34554D01*
X40531Y-34460D01*
X40531Y-58081D01*
X40354Y-58155D01*
X40354Y-49657D01*
X40354Y-48083D01*
X40318Y-47996D01*
X40252Y-47929D01*
X40165Y-47893D01*
X40071Y-47893D01*
X39984Y-47929D01*
X39917Y-47995D01*
X39881Y-48082D01*
X39881Y-48176D01*
X39917Y-48263D01*
X39984Y-48330D01*
X40070Y-48366D01*
X40164Y-48366D01*
X40251Y-48330D01*
X40318Y-48263D01*
X40354Y-48177D01*
X40354Y-48083D01*
X40354Y-49657D01*
X40318Y-49571D01*
X40252Y-49504D01*
X40165Y-49468D01*
X40071Y-49468D01*
X39984Y-49504D01*
X39917Y-49570D01*
X39881Y-49657D01*
X39881Y-49751D01*
X39917Y-49838D01*
X39984Y-49904D01*
X40070Y-49940D01*
X40164Y-49940D01*
X40251Y-49905D01*
X40318Y-49838D01*
X40354Y-49751D01*
X40354Y-49657D01*
X40354Y-58155D01*
X40346Y-58158D01*
X40295Y-58209D01*
X40295Y-53988D01*
X40259Y-53901D01*
X40193Y-53835D01*
X40106Y-53799D01*
X40012Y-53799D01*
X39925Y-53835D01*
X39858Y-53901D01*
X39822Y-53988D01*
X39822Y-54082D01*
X39858Y-54169D01*
X39925Y-54235D01*
X40011Y-54271D01*
X40105Y-54271D01*
X40192Y-54235D01*
X40259Y-54169D01*
X40295Y-54082D01*
X40295Y-53988D01*
X40295Y-58209D01*
X40275Y-58229D01*
X40275Y-55563D01*
X40239Y-55476D01*
X40173Y-55410D01*
X40086Y-55374D01*
X39992Y-55373D01*
X39905Y-55409D01*
X39839Y-55476D01*
X39803Y-55563D01*
X39803Y-55657D01*
X39838Y-55743D01*
X39905Y-55810D01*
X39992Y-55846D01*
X40086Y-55846D01*
X40173Y-55810D01*
X40239Y-55744D01*
X40275Y-55657D01*
X40275Y-55563D01*
X40275Y-58229D01*
X40088Y-58416D01*
X39948Y-58753D01*
X39947Y-59118D01*
X40087Y-59456D01*
X40345Y-59714D01*
X40682Y-59854D01*
X41047Y-59855D01*
X41385Y-59715D01*
X41644Y-59457D01*
X41784Y-59120D01*
X41784Y-58755D01*
X41784Y-60905D01*
X38897Y-60905D01*
X38897Y-21771D01*
X78031Y-21771D01*
X78031Y-60905D01*
X78031Y-60905D01*
G37*
G54D18*
X78031Y-60905D02*
X77893Y-60905D01*
X77893Y-37846D01*
X77857Y-37760D01*
X77849Y-37751D01*
X77849Y-30464D01*
X77813Y-30377D01*
X77746Y-30311D01*
X77660Y-30275D01*
X77566Y-30275D01*
X77479Y-30311D01*
X77412Y-30377D01*
X77376Y-30464D01*
X77376Y-30558D01*
X77412Y-30645D01*
X77478Y-30711D01*
X77565Y-30747D01*
X77659Y-30747D01*
X77746Y-30711D01*
X77813Y-30645D01*
X77849Y-30558D01*
X77849Y-30464D01*
X77849Y-37751D01*
X77791Y-37693D01*
X77704Y-37657D01*
X77610Y-37657D01*
X77523Y-37693D01*
X77457Y-37759D01*
X77421Y-37846D01*
X77421Y-37940D01*
X77457Y-38027D01*
X77523Y-38093D01*
X77610Y-38129D01*
X77704Y-38129D01*
X77791Y-38094D01*
X77857Y-38027D01*
X77893Y-37940D01*
X77893Y-37846D01*
X77893Y-60905D01*
X77874Y-60905D01*
X77874Y-52098D01*
X77838Y-52012D01*
X77771Y-51945D01*
X77684Y-51909D01*
X77591Y-51909D01*
X77504Y-51945D01*
X77437Y-52011D01*
X77421Y-52051D01*
X77421Y-50937D01*
X77385Y-50850D01*
X77381Y-50847D01*
X77381Y-38299D01*
X77381Y-31626D01*
X77346Y-31539D01*
X77279Y-31473D01*
X77192Y-31437D01*
X77098Y-31436D01*
X77012Y-31472D01*
X76981Y-31503D01*
X76981Y-23558D01*
X76841Y-23220D01*
X76583Y-22962D01*
X76246Y-22822D01*
X75881Y-22821D01*
X75543Y-22961D01*
X75285Y-23219D01*
X75145Y-23556D01*
X75144Y-23921D01*
X75284Y-24259D01*
X75542Y-24518D01*
X75879Y-24658D01*
X76244Y-24658D01*
X76582Y-24518D01*
X76840Y-24260D01*
X76980Y-23923D01*
X76981Y-23558D01*
X76981Y-31503D01*
X76945Y-31539D01*
X76909Y-31626D01*
X76909Y-31720D01*
X76945Y-31806D01*
X77011Y-31873D01*
X77098Y-31909D01*
X77192Y-31909D01*
X77279Y-31873D01*
X77345Y-31807D01*
X77381Y-31720D01*
X77381Y-31626D01*
X77381Y-38299D01*
X77346Y-38212D01*
X77279Y-38146D01*
X77192Y-38110D01*
X77098Y-38110D01*
X77012Y-38146D01*
X76945Y-38212D01*
X76909Y-38299D01*
X76909Y-38393D01*
X76945Y-38480D01*
X77011Y-38546D01*
X77098Y-38582D01*
X77192Y-38582D01*
X77279Y-38546D01*
X77345Y-38480D01*
X77381Y-38393D01*
X77381Y-38299D01*
X77381Y-50847D01*
X77319Y-50784D01*
X77232Y-50748D01*
X77138Y-50747D01*
X77051Y-50783D01*
X76984Y-50850D01*
X76948Y-50937D01*
X76948Y-51031D01*
X76984Y-51117D01*
X77051Y-51184D01*
X77137Y-51220D01*
X77231Y-51220D01*
X77318Y-51184D01*
X77385Y-51118D01*
X77421Y-51031D01*
X77421Y-50937D01*
X77421Y-52051D01*
X77401Y-52098D01*
X77401Y-52192D01*
X77437Y-52279D01*
X77503Y-52345D01*
X77590Y-52381D01*
X77684Y-52381D01*
X77771Y-52346D01*
X77837Y-52279D01*
X77873Y-52192D01*
X77874Y-52098D01*
X77874Y-60905D01*
X76981Y-60905D01*
X76981Y-58755D01*
X76841Y-58417D01*
X76717Y-58292D01*
X76717Y-42143D01*
X76717Y-40411D01*
X76692Y-40352D01*
X76692Y-27020D01*
X76657Y-26933D01*
X76590Y-26866D01*
X76503Y-26830D01*
X76409Y-26830D01*
X76323Y-26866D01*
X76256Y-26932D01*
X76220Y-27019D01*
X76220Y-27113D01*
X76256Y-27200D01*
X76322Y-27267D01*
X76409Y-27303D01*
X76503Y-27303D01*
X76590Y-27267D01*
X76656Y-27200D01*
X76692Y-27114D01*
X76692Y-27020D01*
X76692Y-40352D01*
X76672Y-40303D01*
X76653Y-40284D01*
X76653Y-28594D01*
X76617Y-28508D01*
X76551Y-28441D01*
X76464Y-28405D01*
X76370Y-28405D01*
X76283Y-28441D01*
X76217Y-28507D01*
X76181Y-28594D01*
X76181Y-28688D01*
X76216Y-28775D01*
X76283Y-28841D01*
X76370Y-28877D01*
X76464Y-28877D01*
X76550Y-28842D01*
X76617Y-28775D01*
X76653Y-28688D01*
X76653Y-28594D01*
X76653Y-40284D01*
X76633Y-40264D01*
X76633Y-34500D01*
X76633Y-32925D01*
X76598Y-32838D01*
X76531Y-32772D01*
X76444Y-32736D01*
X76350Y-32736D01*
X76264Y-32772D01*
X76197Y-32838D01*
X76161Y-32925D01*
X76161Y-33019D01*
X76197Y-33106D01*
X76263Y-33172D01*
X76350Y-33208D01*
X76444Y-33208D01*
X76531Y-33172D01*
X76597Y-33106D01*
X76633Y-33019D01*
X76633Y-32925D01*
X76633Y-34500D01*
X76598Y-34413D01*
X76531Y-34347D01*
X76444Y-34311D01*
X76350Y-34310D01*
X76264Y-34346D01*
X76197Y-34413D01*
X76161Y-34500D01*
X76161Y-34594D01*
X76197Y-34680D01*
X76263Y-34747D01*
X76350Y-34783D01*
X76444Y-34783D01*
X76531Y-34747D01*
X76597Y-34681D01*
X76633Y-34594D01*
X76633Y-34500D01*
X76633Y-40264D01*
X76589Y-40219D01*
X76480Y-40174D01*
X76363Y-40174D01*
X76255Y-40219D01*
X76171Y-40302D01*
X76126Y-40411D01*
X76126Y-40528D01*
X76171Y-40636D01*
X76254Y-40720D01*
X76363Y-40765D01*
X76480Y-40765D01*
X76588Y-40720D01*
X76672Y-40637D01*
X76717Y-40528D01*
X76717Y-40411D01*
X76717Y-42143D01*
X76672Y-42035D01*
X76589Y-41951D01*
X76480Y-41906D01*
X76363Y-41906D01*
X76255Y-41951D01*
X76171Y-42034D01*
X76126Y-42143D01*
X76126Y-42260D01*
X76171Y-42368D01*
X76254Y-42452D01*
X76363Y-42497D01*
X76480Y-42497D01*
X76588Y-42452D01*
X76672Y-42369D01*
X76717Y-42260D01*
X76717Y-42143D01*
X76717Y-58292D01*
X76594Y-58169D01*
X76594Y-48083D01*
X76558Y-47996D01*
X76492Y-47930D01*
X76405Y-47894D01*
X76311Y-47894D01*
X76224Y-47930D01*
X76158Y-47996D01*
X76122Y-48083D01*
X76122Y-48177D01*
X76157Y-48264D01*
X76224Y-48330D01*
X76311Y-48366D01*
X76405Y-48366D01*
X76491Y-48330D01*
X76558Y-48264D01*
X76594Y-48177D01*
X76594Y-48083D01*
X76594Y-58169D01*
X76583Y-58159D01*
X76535Y-58139D01*
X76535Y-53989D01*
X76499Y-53902D01*
X76433Y-53836D01*
X76346Y-53800D01*
X76252Y-53800D01*
X76165Y-53835D01*
X76099Y-53902D01*
X76063Y-53989D01*
X76062Y-54083D01*
X76098Y-54169D01*
X76165Y-54236D01*
X76252Y-54272D01*
X76345Y-54272D01*
X76432Y-54236D01*
X76499Y-54170D01*
X76535Y-54083D01*
X76535Y-53989D01*
X76535Y-58139D01*
X76246Y-58019D01*
X75881Y-58018D01*
X75543Y-58158D01*
X75285Y-58416D01*
X75255Y-58486D01*
X75255Y-46567D01*
X75236Y-46519D01*
X75236Y-38299D01*
X75200Y-38212D01*
X75133Y-38146D01*
X75047Y-38110D01*
X74953Y-38110D01*
X74866Y-38146D01*
X74799Y-38212D01*
X74763Y-38299D01*
X74763Y-38393D01*
X74799Y-38480D01*
X74866Y-38546D01*
X74952Y-38582D01*
X75046Y-38582D01*
X75133Y-38546D01*
X75200Y-38480D01*
X75236Y-38393D01*
X75236Y-38299D01*
X75236Y-46519D01*
X75220Y-46480D01*
X75153Y-46414D01*
X75118Y-46399D01*
X75118Y-44854D01*
X75082Y-44767D01*
X75015Y-44701D01*
X74929Y-44665D01*
X74835Y-44665D01*
X74748Y-44701D01*
X74681Y-44767D01*
X74645Y-44854D01*
X74645Y-44948D01*
X74681Y-45035D01*
X74747Y-45101D01*
X74834Y-45137D01*
X74928Y-45137D01*
X75015Y-45101D01*
X75082Y-45035D01*
X75118Y-44948D01*
X75118Y-44854D01*
X75118Y-46399D01*
X75066Y-46377D01*
X74972Y-46377D01*
X74886Y-46413D01*
X74819Y-46480D01*
X74783Y-46566D01*
X74783Y-46660D01*
X74819Y-46747D01*
X74885Y-46814D01*
X74972Y-46850D01*
X75066Y-46850D01*
X75153Y-46814D01*
X75219Y-46748D01*
X75255Y-46661D01*
X75255Y-46567D01*
X75255Y-58486D01*
X75145Y-58753D01*
X75144Y-59118D01*
X75284Y-59456D01*
X75542Y-59714D01*
X75879Y-59854D01*
X76244Y-59855D01*
X76582Y-59715D01*
X76840Y-59457D01*
X76980Y-59120D01*
X76981Y-58755D01*
X76981Y-60905D01*
X74940Y-60905D01*
X74940Y-57236D01*
X74905Y-57149D01*
X74838Y-57083D01*
X74751Y-57047D01*
X74657Y-57047D01*
X74571Y-57083D01*
X74547Y-57106D01*
X74547Y-51331D01*
X74511Y-51244D01*
X74445Y-51177D01*
X74358Y-51141D01*
X74264Y-51141D01*
X74177Y-51177D01*
X74155Y-51199D01*
X74155Y-30857D01*
X74119Y-30770D01*
X74053Y-30704D01*
X74035Y-30697D01*
X74035Y-24165D01*
X73999Y-24078D01*
X73933Y-24012D01*
X73846Y-23976D01*
X73752Y-23976D01*
X73665Y-24012D01*
X73599Y-24078D01*
X73563Y-24165D01*
X73562Y-24259D01*
X73598Y-24346D01*
X73665Y-24412D01*
X73752Y-24448D01*
X73845Y-24448D01*
X73932Y-24412D01*
X73999Y-24346D01*
X74035Y-24259D01*
X74035Y-24165D01*
X74035Y-30697D01*
X73966Y-30668D01*
X73897Y-30668D01*
X73897Y-25228D01*
X73861Y-25141D01*
X73795Y-25075D01*
X73708Y-25039D01*
X73614Y-25039D01*
X73527Y-25075D01*
X73461Y-25141D01*
X73425Y-25228D01*
X73425Y-25322D01*
X73461Y-25409D01*
X73527Y-25475D01*
X73614Y-25511D01*
X73708Y-25511D01*
X73795Y-25475D01*
X73861Y-25409D01*
X73897Y-25322D01*
X73897Y-25228D01*
X73897Y-30668D01*
X73872Y-30668D01*
X73785Y-30704D01*
X73718Y-30770D01*
X73682Y-30857D01*
X73682Y-30951D01*
X73718Y-31038D01*
X73785Y-31104D01*
X73871Y-31140D01*
X73965Y-31140D01*
X74052Y-31104D01*
X74119Y-31038D01*
X74155Y-30951D01*
X74155Y-30857D01*
X74155Y-51199D01*
X74110Y-51243D01*
X74074Y-51330D01*
X74074Y-51424D01*
X74110Y-51511D01*
X74177Y-51578D01*
X74263Y-51614D01*
X74357Y-51614D01*
X74444Y-51578D01*
X74511Y-51511D01*
X74547Y-51425D01*
X74547Y-51331D01*
X74547Y-57106D01*
X74504Y-57149D01*
X74468Y-57236D01*
X74468Y-57330D01*
X74504Y-57417D01*
X74570Y-57483D01*
X74657Y-57519D01*
X74751Y-57519D01*
X74838Y-57483D01*
X74904Y-57417D01*
X74940Y-57330D01*
X74940Y-57236D01*
X74940Y-60905D01*
X74311Y-60905D01*
X74311Y-58122D01*
X74275Y-58035D01*
X74232Y-57992D01*
X74232Y-51724D01*
X74196Y-51638D01*
X74130Y-51571D01*
X74043Y-51535D01*
X73949Y-51535D01*
X73862Y-51571D01*
X73818Y-51614D01*
X73818Y-31252D01*
X73783Y-31165D01*
X73716Y-31099D01*
X73629Y-31063D01*
X73535Y-31062D01*
X73449Y-31098D01*
X73382Y-31165D01*
X73346Y-31252D01*
X73346Y-31345D01*
X73382Y-31432D01*
X73448Y-31499D01*
X73535Y-31535D01*
X73629Y-31535D01*
X73716Y-31499D01*
X73782Y-31433D01*
X73818Y-31346D01*
X73818Y-31252D01*
X73818Y-51614D01*
X73795Y-51637D01*
X73759Y-51724D01*
X73759Y-51818D01*
X73795Y-51905D01*
X73862Y-51971D01*
X73948Y-52007D01*
X74042Y-52007D01*
X74129Y-51972D01*
X74196Y-51905D01*
X74232Y-51818D01*
X74232Y-51724D01*
X74232Y-57992D01*
X74208Y-57969D01*
X74121Y-57933D01*
X74028Y-57933D01*
X73941Y-57968D01*
X73874Y-58035D01*
X73838Y-58122D01*
X73838Y-58216D01*
X73874Y-58302D01*
X73940Y-58369D01*
X74027Y-58405D01*
X74121Y-58405D01*
X74208Y-58369D01*
X74274Y-58303D01*
X74310Y-58216D01*
X74311Y-58122D01*
X74311Y-60905D01*
X73031Y-60905D01*
X73031Y-39323D01*
X72995Y-39236D01*
X72929Y-39169D01*
X72842Y-39133D01*
X72748Y-39133D01*
X72661Y-39169D01*
X72618Y-39213D01*
X72618Y-38496D01*
X72582Y-38409D01*
X72515Y-38343D01*
X72429Y-38307D01*
X72335Y-38307D01*
X72248Y-38342D01*
X72181Y-38409D01*
X72145Y-38496D01*
X72145Y-38590D01*
X72181Y-38676D01*
X72247Y-38743D01*
X72334Y-38779D01*
X72428Y-38779D01*
X72515Y-38743D01*
X72582Y-38677D01*
X72618Y-38590D01*
X72618Y-38496D01*
X72618Y-39213D01*
X72595Y-39236D01*
X72568Y-39299D01*
X72542Y-39236D01*
X72476Y-39169D01*
X72389Y-39133D01*
X72295Y-39133D01*
X72208Y-39169D01*
X72142Y-39236D01*
X72106Y-39322D01*
X72106Y-39416D01*
X72142Y-39503D01*
X72208Y-39570D01*
X72295Y-39606D01*
X72389Y-39606D01*
X72476Y-39570D01*
X72542Y-39504D01*
X72568Y-39440D01*
X72594Y-39503D01*
X72661Y-39570D01*
X72748Y-39606D01*
X72842Y-39606D01*
X72928Y-39570D01*
X72995Y-39504D01*
X73031Y-39417D01*
X73031Y-39323D01*
X73031Y-60905D01*
X71988Y-60905D01*
X71988Y-34499D01*
X71952Y-34412D01*
X71948Y-34409D01*
X71948Y-28594D01*
X71912Y-28507D01*
X71846Y-28440D01*
X71759Y-28404D01*
X71665Y-28404D01*
X71578Y-28440D01*
X71512Y-28507D01*
X71476Y-28593D01*
X71476Y-28687D01*
X71512Y-28774D01*
X71578Y-28841D01*
X71665Y-28877D01*
X71759Y-28877D01*
X71846Y-28841D01*
X71912Y-28775D01*
X71948Y-28688D01*
X71948Y-28594D01*
X71948Y-34409D01*
X71885Y-34346D01*
X71799Y-34310D01*
X71705Y-34310D01*
X71618Y-34345D01*
X71551Y-34412D01*
X71515Y-34499D01*
X71515Y-34593D01*
X71551Y-34679D01*
X71617Y-34746D01*
X71704Y-34782D01*
X71798Y-34782D01*
X71885Y-34746D01*
X71952Y-34680D01*
X71988Y-34593D01*
X71988Y-34499D01*
X71988Y-60905D01*
X71889Y-60905D01*
X71889Y-55563D01*
X71853Y-55476D01*
X71850Y-55473D01*
X71850Y-53988D01*
X71814Y-53901D01*
X71811Y-53898D01*
X71811Y-49657D01*
X71811Y-48083D01*
X71775Y-47996D01*
X71708Y-47929D01*
X71621Y-47893D01*
X71528Y-47893D01*
X71441Y-47929D01*
X71390Y-47979D01*
X71390Y-30329D01*
X71299Y-30108D01*
X71299Y-23122D01*
X71263Y-23035D01*
X71220Y-22992D01*
X71220Y-22138D01*
X71184Y-22051D01*
X71118Y-21984D01*
X71031Y-21948D01*
X70937Y-21948D01*
X70850Y-21984D01*
X70784Y-22051D01*
X70748Y-22137D01*
X70747Y-22231D01*
X70783Y-22318D01*
X70850Y-22385D01*
X70937Y-22421D01*
X71031Y-22421D01*
X71117Y-22385D01*
X71184Y-22319D01*
X71220Y-22232D01*
X71220Y-22138D01*
X71220Y-22992D01*
X71196Y-22969D01*
X71110Y-22933D01*
X71016Y-22933D01*
X70929Y-22968D01*
X70862Y-23035D01*
X70826Y-23122D01*
X70826Y-23216D01*
X70862Y-23302D01*
X70929Y-23369D01*
X71015Y-23405D01*
X71109Y-23405D01*
X71196Y-23369D01*
X71263Y-23303D01*
X71299Y-23216D01*
X71299Y-23122D01*
X71299Y-30108D01*
X71251Y-29992D01*
X70993Y-29733D01*
X70655Y-29593D01*
X70290Y-29593D01*
X69953Y-29733D01*
X69694Y-29991D01*
X69554Y-30328D01*
X69554Y-30693D01*
X69693Y-31031D01*
X69951Y-31289D01*
X70289Y-31429D01*
X70654Y-31430D01*
X70991Y-31290D01*
X71250Y-31032D01*
X71390Y-30695D01*
X71390Y-30329D01*
X71390Y-47979D01*
X71374Y-47995D01*
X71338Y-48082D01*
X71338Y-48176D01*
X71374Y-48263D01*
X71440Y-48330D01*
X71527Y-48366D01*
X71621Y-48366D01*
X71708Y-48330D01*
X71774Y-48263D01*
X71810Y-48177D01*
X71811Y-48083D01*
X71811Y-49657D01*
X71775Y-49571D01*
X71708Y-49504D01*
X71621Y-49468D01*
X71528Y-49468D01*
X71441Y-49504D01*
X71374Y-49570D01*
X71338Y-49657D01*
X71338Y-49751D01*
X71374Y-49838D01*
X71440Y-49904D01*
X71527Y-49940D01*
X71621Y-49940D01*
X71708Y-49905D01*
X71774Y-49838D01*
X71810Y-49751D01*
X71811Y-49657D01*
X71811Y-53898D01*
X71748Y-53835D01*
X71661Y-53799D01*
X71567Y-53799D01*
X71480Y-53835D01*
X71414Y-53901D01*
X71390Y-53957D01*
X71390Y-51983D01*
X71251Y-51645D01*
X70993Y-51387D01*
X70655Y-51247D01*
X70290Y-51247D01*
X70216Y-51277D01*
X70216Y-38909D01*
X70180Y-38823D01*
X70114Y-38756D01*
X70027Y-38720D01*
X69933Y-38720D01*
X69846Y-38756D01*
X69780Y-38822D01*
X69744Y-38909D01*
X69744Y-39003D01*
X69779Y-39090D01*
X69846Y-39156D01*
X69933Y-39192D01*
X70027Y-39192D01*
X70113Y-39157D01*
X70180Y-39090D01*
X70216Y-39003D01*
X70216Y-38909D01*
X70216Y-51277D01*
X69953Y-51386D01*
X69921Y-51418D01*
X69921Y-39816D01*
X69885Y-39729D01*
X69819Y-39662D01*
X69732Y-39626D01*
X69638Y-39626D01*
X69606Y-39639D01*
X69606Y-34500D01*
X69586Y-34452D01*
X69586Y-32925D01*
X69550Y-32838D01*
X69547Y-32835D01*
X69547Y-27020D01*
X69511Y-26933D01*
X69445Y-26866D01*
X69358Y-26830D01*
X69264Y-26830D01*
X69177Y-26866D01*
X69133Y-26909D01*
X69133Y-22138D01*
X69098Y-22051D01*
X69031Y-21984D01*
X68944Y-21948D01*
X68850Y-21948D01*
X68764Y-21984D01*
X68697Y-22051D01*
X68661Y-22137D01*
X68661Y-22231D01*
X68697Y-22318D01*
X68763Y-22385D01*
X68850Y-22421D01*
X68944Y-22421D01*
X69031Y-22385D01*
X69097Y-22319D01*
X69133Y-22232D01*
X69133Y-22138D01*
X69133Y-26909D01*
X69110Y-26932D01*
X69074Y-27019D01*
X69074Y-27113D01*
X69110Y-27200D01*
X69177Y-27267D01*
X69263Y-27303D01*
X69357Y-27303D01*
X69444Y-27267D01*
X69511Y-27200D01*
X69547Y-27114D01*
X69547Y-27020D01*
X69547Y-32835D01*
X69527Y-32815D01*
X69527Y-28594D01*
X69491Y-28508D01*
X69425Y-28441D01*
X69338Y-28405D01*
X69244Y-28405D01*
X69157Y-28441D01*
X69091Y-28507D01*
X69055Y-28594D01*
X69055Y-28688D01*
X69090Y-28775D01*
X69157Y-28841D01*
X69244Y-28877D01*
X69338Y-28877D01*
X69424Y-28842D01*
X69491Y-28775D01*
X69527Y-28688D01*
X69527Y-28594D01*
X69527Y-32815D01*
X69484Y-32772D01*
X69397Y-32736D01*
X69303Y-32736D01*
X69216Y-32772D01*
X69150Y-32838D01*
X69114Y-32925D01*
X69114Y-33019D01*
X69150Y-33106D01*
X69216Y-33172D01*
X69303Y-33208D01*
X69397Y-33208D01*
X69484Y-33172D01*
X69550Y-33106D01*
X69586Y-33019D01*
X69586Y-32925D01*
X69586Y-34452D01*
X69570Y-34413D01*
X69504Y-34347D01*
X69417Y-34311D01*
X69323Y-34310D01*
X69236Y-34346D01*
X69169Y-34413D01*
X69133Y-34500D01*
X69133Y-34594D01*
X69169Y-34680D01*
X69236Y-34747D01*
X69322Y-34783D01*
X69416Y-34783D01*
X69503Y-34747D01*
X69570Y-34681D01*
X69606Y-34594D01*
X69606Y-34500D01*
X69606Y-39639D01*
X69586Y-39647D01*
X69586Y-38535D01*
X69550Y-38449D01*
X69484Y-38382D01*
X69397Y-38346D01*
X69303Y-38346D01*
X69216Y-38382D01*
X69150Y-38448D01*
X69114Y-38535D01*
X69114Y-38629D01*
X69150Y-38716D01*
X69216Y-38782D01*
X69303Y-38818D01*
X69397Y-38818D01*
X69484Y-38783D01*
X69550Y-38716D01*
X69586Y-38629D01*
X69586Y-38535D01*
X69586Y-39647D01*
X69551Y-39662D01*
X69484Y-39728D01*
X69448Y-39815D01*
X69448Y-39909D01*
X69484Y-39996D01*
X69551Y-40062D01*
X69637Y-40099D01*
X69731Y-40099D01*
X69818Y-40063D01*
X69885Y-39996D01*
X69921Y-39910D01*
X69921Y-39816D01*
X69921Y-51418D01*
X69694Y-51644D01*
X69554Y-51981D01*
X69554Y-52347D01*
X69693Y-52684D01*
X69951Y-52943D01*
X70289Y-53083D01*
X70654Y-53083D01*
X70991Y-52944D01*
X71250Y-52686D01*
X71390Y-52348D01*
X71390Y-51983D01*
X71390Y-53957D01*
X71377Y-53988D01*
X71377Y-54082D01*
X71413Y-54169D01*
X71480Y-54235D01*
X71566Y-54271D01*
X71660Y-54271D01*
X71747Y-54235D01*
X71814Y-54169D01*
X71850Y-54082D01*
X71850Y-53988D01*
X71850Y-55473D01*
X71787Y-55410D01*
X71700Y-55374D01*
X71606Y-55373D01*
X71519Y-55409D01*
X71453Y-55476D01*
X71417Y-55563D01*
X71417Y-55657D01*
X71453Y-55743D01*
X71519Y-55810D01*
X71606Y-55846D01*
X71700Y-55846D01*
X71787Y-55810D01*
X71853Y-55744D01*
X71889Y-55657D01*
X71889Y-55563D01*
X71889Y-60905D01*
X71318Y-60905D01*
X71318Y-60484D01*
X71283Y-60397D01*
X71216Y-60331D01*
X71129Y-60295D01*
X71035Y-60295D01*
X70949Y-60331D01*
X70882Y-60397D01*
X70846Y-60484D01*
X70846Y-60578D01*
X70882Y-60665D01*
X70948Y-60731D01*
X71035Y-60767D01*
X71129Y-60767D01*
X71216Y-60731D01*
X71282Y-60665D01*
X71318Y-60578D01*
X71318Y-60484D01*
X71318Y-60905D01*
X69507Y-60905D01*
X69507Y-59480D01*
X69472Y-59393D01*
X69468Y-59390D01*
X69468Y-53989D01*
X69468Y-48083D01*
X69432Y-47996D01*
X69366Y-47930D01*
X69279Y-47894D01*
X69185Y-47894D01*
X69098Y-47930D01*
X69032Y-47996D01*
X68996Y-48083D01*
X68996Y-48177D01*
X69031Y-48264D01*
X69098Y-48330D01*
X69185Y-48366D01*
X69279Y-48366D01*
X69365Y-48330D01*
X69432Y-48264D01*
X69468Y-48177D01*
X69468Y-48083D01*
X69468Y-53989D01*
X69432Y-53902D01*
X69366Y-53835D01*
X69279Y-53799D01*
X69185Y-53799D01*
X69098Y-53835D01*
X69032Y-53902D01*
X68996Y-53988D01*
X68996Y-54082D01*
X69031Y-54169D01*
X69098Y-54236D01*
X69185Y-54272D01*
X69279Y-54272D01*
X69365Y-54236D01*
X69432Y-54170D01*
X69468Y-54083D01*
X69468Y-53989D01*
X69468Y-59390D01*
X69405Y-59327D01*
X69318Y-59291D01*
X69224Y-59291D01*
X69138Y-59327D01*
X69071Y-59393D01*
X69035Y-59480D01*
X69035Y-59574D01*
X69071Y-59661D01*
X69137Y-59727D01*
X69224Y-59763D01*
X69318Y-59763D01*
X69405Y-59727D01*
X69471Y-59661D01*
X69507Y-59574D01*
X69507Y-59480D01*
X69507Y-60905D01*
X69094Y-60905D01*
X69094Y-60484D01*
X69058Y-60397D01*
X68992Y-60331D01*
X68905Y-60295D01*
X68811Y-60295D01*
X68799Y-60300D01*
X68799Y-51390D01*
X68779Y-51342D01*
X68779Y-31252D01*
X68779Y-25228D01*
X68743Y-25141D01*
X68677Y-25075D01*
X68590Y-25039D01*
X68496Y-25039D01*
X68409Y-25075D01*
X68343Y-25141D01*
X68307Y-25228D01*
X68307Y-25322D01*
X68342Y-25409D01*
X68409Y-25475D01*
X68496Y-25511D01*
X68590Y-25511D01*
X68676Y-25475D01*
X68743Y-25409D01*
X68779Y-25322D01*
X68779Y-25228D01*
X68779Y-31252D01*
X68743Y-31165D01*
X68677Y-31099D01*
X68590Y-31063D01*
X68496Y-31062D01*
X68409Y-31098D01*
X68343Y-31165D01*
X68307Y-31252D01*
X68307Y-31345D01*
X68342Y-31432D01*
X68409Y-31499D01*
X68496Y-31535D01*
X68590Y-31535D01*
X68676Y-31499D01*
X68743Y-31433D01*
X68779Y-31346D01*
X68779Y-31252D01*
X68779Y-51342D01*
X68763Y-51303D01*
X68696Y-51236D01*
X68610Y-51200D01*
X68516Y-51200D01*
X68429Y-51236D01*
X68425Y-51240D01*
X68425Y-40622D01*
X68405Y-40574D01*
X68405Y-39461D01*
X68369Y-39374D01*
X68303Y-39307D01*
X68216Y-39271D01*
X68122Y-39271D01*
X68035Y-39307D01*
X67969Y-39373D01*
X67933Y-39460D01*
X67933Y-39554D01*
X67968Y-39641D01*
X68035Y-39708D01*
X68122Y-39744D01*
X68216Y-39744D01*
X68302Y-39708D01*
X68369Y-39641D01*
X68405Y-39555D01*
X68405Y-39461D01*
X68405Y-40574D01*
X68389Y-40535D01*
X68322Y-40469D01*
X68236Y-40433D01*
X68142Y-40433D01*
X68055Y-40468D01*
X67988Y-40535D01*
X67952Y-40622D01*
X67952Y-40716D01*
X67988Y-40802D01*
X68054Y-40869D01*
X68141Y-40905D01*
X68235Y-40905D01*
X68322Y-40869D01*
X68389Y-40803D01*
X68425Y-40716D01*
X68425Y-40622D01*
X68425Y-51240D01*
X68362Y-51303D01*
X68326Y-51389D01*
X68326Y-51483D01*
X68362Y-51570D01*
X68429Y-51637D01*
X68515Y-51673D01*
X68609Y-51673D01*
X68696Y-51637D01*
X68763Y-51570D01*
X68799Y-51484D01*
X68799Y-51390D01*
X68799Y-60300D01*
X68779Y-60308D01*
X68779Y-57236D01*
X68743Y-57149D01*
X68677Y-57083D01*
X68590Y-57047D01*
X68496Y-57047D01*
X68409Y-57083D01*
X68343Y-57149D01*
X68307Y-57236D01*
X68307Y-57330D01*
X68342Y-57417D01*
X68409Y-57483D01*
X68496Y-57519D01*
X68590Y-57519D01*
X68676Y-57483D01*
X68743Y-57417D01*
X68779Y-57330D01*
X68779Y-57236D01*
X68779Y-60308D01*
X68724Y-60331D01*
X68658Y-60397D01*
X68622Y-60484D01*
X68622Y-60578D01*
X68657Y-60665D01*
X68724Y-60731D01*
X68811Y-60767D01*
X68905Y-60767D01*
X68991Y-60731D01*
X69058Y-60665D01*
X69094Y-60578D01*
X69094Y-60484D01*
X69094Y-60905D01*
X67539Y-60905D01*
X67539Y-51390D01*
X67503Y-51303D01*
X67437Y-51236D01*
X67350Y-51200D01*
X67322Y-51200D01*
X67322Y-39972D01*
X67286Y-39886D01*
X67223Y-39822D01*
X67286Y-39759D01*
X67322Y-39673D01*
X67322Y-39579D01*
X67286Y-39492D01*
X67223Y-39429D01*
X67286Y-39366D01*
X67322Y-39279D01*
X67322Y-39185D01*
X67286Y-39098D01*
X67220Y-39032D01*
X67133Y-38996D01*
X67126Y-38996D01*
X67126Y-24500D01*
X67090Y-24413D01*
X67023Y-24347D01*
X66936Y-24311D01*
X66842Y-24310D01*
X66756Y-24346D01*
X66689Y-24413D01*
X66653Y-24500D01*
X66653Y-24594D01*
X66689Y-24680D01*
X66755Y-24747D01*
X66842Y-24783D01*
X66936Y-24783D01*
X67023Y-24747D01*
X67089Y-24681D01*
X67125Y-24594D01*
X67126Y-24500D01*
X67126Y-38996D01*
X67068Y-38996D01*
X67068Y-30818D01*
X67032Y-30731D01*
X66966Y-30665D01*
X66879Y-30629D01*
X66811Y-30628D01*
X66811Y-25228D01*
X66775Y-25141D01*
X66708Y-25075D01*
X66621Y-25039D01*
X66528Y-25039D01*
X66441Y-25075D01*
X66374Y-25141D01*
X66338Y-25228D01*
X66338Y-25322D01*
X66374Y-25409D01*
X66440Y-25475D01*
X66527Y-25511D01*
X66621Y-25511D01*
X66708Y-25475D01*
X66774Y-25409D01*
X66810Y-25322D01*
X66811Y-25228D01*
X66811Y-30628D01*
X66785Y-30628D01*
X66698Y-30664D01*
X66632Y-30731D01*
X66596Y-30818D01*
X66596Y-30912D01*
X66632Y-30998D01*
X66698Y-31065D01*
X66785Y-31101D01*
X66879Y-31101D01*
X66966Y-31065D01*
X67032Y-30999D01*
X67068Y-30912D01*
X67068Y-30818D01*
X67068Y-38996D01*
X67039Y-38996D01*
X66952Y-39031D01*
X66889Y-39095D01*
X66826Y-39032D01*
X66740Y-38996D01*
X66692Y-38996D01*
X66692Y-31252D01*
X66657Y-31165D01*
X66590Y-31099D01*
X66503Y-31063D01*
X66409Y-31062D01*
X66323Y-31098D01*
X66256Y-31165D01*
X66220Y-31252D01*
X66220Y-31345D01*
X66256Y-31432D01*
X66322Y-31499D01*
X66409Y-31535D01*
X66503Y-31535D01*
X66590Y-31499D01*
X66656Y-31433D01*
X66692Y-31346D01*
X66692Y-31252D01*
X66692Y-38996D01*
X66646Y-38996D01*
X66559Y-39031D01*
X66492Y-39098D01*
X66456Y-39185D01*
X66456Y-39279D01*
X66492Y-39365D01*
X66555Y-39429D01*
X66492Y-39492D01*
X66456Y-39578D01*
X66456Y-39672D01*
X66492Y-39759D01*
X66555Y-39822D01*
X66492Y-39885D01*
X66456Y-39972D01*
X66456Y-40066D01*
X66492Y-40153D01*
X66558Y-40219D01*
X66645Y-40255D01*
X66739Y-40255D01*
X66826Y-40220D01*
X66889Y-40156D01*
X66952Y-40219D01*
X67039Y-40255D01*
X67133Y-40255D01*
X67220Y-40220D01*
X67286Y-40153D01*
X67322Y-40066D01*
X67322Y-39972D01*
X67322Y-51200D01*
X67256Y-51200D01*
X67169Y-51236D01*
X67103Y-51303D01*
X67066Y-51389D01*
X67066Y-51483D01*
X67099Y-51563D01*
X67035Y-51536D01*
X66941Y-51536D01*
X66854Y-51572D01*
X66788Y-51638D01*
X66752Y-51725D01*
X66751Y-51819D01*
X66787Y-51906D01*
X66854Y-51972D01*
X66940Y-52008D01*
X67034Y-52008D01*
X67121Y-51972D01*
X67188Y-51906D01*
X67224Y-51819D01*
X67224Y-51725D01*
X67191Y-51646D01*
X67255Y-51673D01*
X67349Y-51673D01*
X67436Y-51637D01*
X67503Y-51570D01*
X67539Y-51484D01*
X67539Y-51390D01*
X67539Y-60905D01*
X67519Y-60905D01*
X67519Y-57256D01*
X67483Y-57169D01*
X67417Y-57103D01*
X67330Y-57066D01*
X67236Y-57066D01*
X67149Y-57102D01*
X67083Y-57169D01*
X67047Y-57255D01*
X67047Y-57349D01*
X67083Y-57436D01*
X67149Y-57503D01*
X67236Y-57539D01*
X67330Y-57539D01*
X67417Y-57503D01*
X67483Y-57437D01*
X67519Y-57350D01*
X67519Y-57256D01*
X67519Y-60905D01*
X67185Y-60905D01*
X67185Y-58083D01*
X67149Y-57996D01*
X67082Y-57929D01*
X66996Y-57893D01*
X66902Y-57893D01*
X66815Y-57929D01*
X66748Y-57995D01*
X66712Y-58082D01*
X66712Y-58176D01*
X66748Y-58263D01*
X66814Y-58330D01*
X66901Y-58366D01*
X66995Y-58366D01*
X67082Y-58330D01*
X67148Y-58263D01*
X67184Y-58177D01*
X67185Y-58083D01*
X67185Y-60905D01*
X65315Y-60905D01*
X65315Y-42512D01*
X65279Y-42425D01*
X65212Y-42358D01*
X65125Y-42322D01*
X65098Y-42322D01*
X65098Y-41594D01*
X65098Y-41587D01*
X65084Y-41519D01*
X65084Y-41519D01*
X65046Y-41462D01*
X65044Y-41460D01*
X64987Y-41422D01*
X64960Y-41416D01*
X64960Y-34499D01*
X64924Y-34412D01*
X64901Y-34389D01*
X64901Y-28594D01*
X64865Y-28507D01*
X64799Y-28440D01*
X64712Y-28404D01*
X64618Y-28404D01*
X64531Y-28440D01*
X64465Y-28507D01*
X64429Y-28593D01*
X64429Y-28687D01*
X64464Y-28774D01*
X64531Y-28841D01*
X64618Y-28877D01*
X64712Y-28877D01*
X64798Y-28841D01*
X64865Y-28775D01*
X64901Y-28688D01*
X64901Y-28594D01*
X64901Y-34389D01*
X64858Y-34346D01*
X64771Y-34310D01*
X64677Y-34310D01*
X64590Y-34346D01*
X64524Y-34412D01*
X64488Y-34499D01*
X64488Y-34593D01*
X64524Y-34680D01*
X64590Y-34746D01*
X64677Y-34782D01*
X64771Y-34782D01*
X64858Y-34746D01*
X64924Y-34680D01*
X64960Y-34593D01*
X64960Y-34499D01*
X64960Y-41416D01*
X64919Y-41408D01*
X64851Y-41422D01*
X64794Y-41460D01*
X64755Y-41518D01*
X64742Y-41585D01*
X64744Y-41594D01*
X64744Y-41594D01*
X64757Y-41662D01*
X64795Y-41719D01*
X64853Y-41758D01*
X64921Y-41771D01*
X64989Y-41758D01*
X65046Y-41719D01*
X65084Y-41662D01*
X65098Y-41594D01*
X65098Y-42322D01*
X65031Y-42322D01*
X64945Y-42358D01*
X64878Y-42425D01*
X64842Y-42511D01*
X64842Y-42605D01*
X64878Y-42692D01*
X64944Y-42759D01*
X65031Y-42795D01*
X65125Y-42795D01*
X65212Y-42759D01*
X65278Y-42693D01*
X65314Y-42606D01*
X65315Y-42512D01*
X65315Y-60905D01*
X64822Y-60905D01*
X64822Y-49657D01*
X64822Y-48083D01*
X64786Y-47996D01*
X64720Y-47929D01*
X64633Y-47893D01*
X64626Y-47893D01*
X64626Y-45563D01*
X64590Y-45476D01*
X64523Y-45410D01*
X64436Y-45374D01*
X64342Y-45373D01*
X64256Y-45409D01*
X64189Y-45476D01*
X64153Y-45563D01*
X64153Y-45657D01*
X64189Y-45743D01*
X64255Y-45810D01*
X64342Y-45846D01*
X64436Y-45846D01*
X64523Y-45810D01*
X64589Y-45744D01*
X64625Y-45657D01*
X64626Y-45563D01*
X64626Y-47893D01*
X64539Y-47893D01*
X64452Y-47929D01*
X64386Y-47995D01*
X64350Y-48082D01*
X64350Y-48176D01*
X64386Y-48263D01*
X64452Y-48330D01*
X64539Y-48366D01*
X64633Y-48366D01*
X64720Y-48330D01*
X64786Y-48263D01*
X64822Y-48177D01*
X64822Y-48083D01*
X64822Y-49657D01*
X64786Y-49571D01*
X64720Y-49504D01*
X64633Y-49468D01*
X64539Y-49468D01*
X64452Y-49504D01*
X64386Y-49570D01*
X64350Y-49657D01*
X64350Y-49751D01*
X64386Y-49838D01*
X64452Y-49904D01*
X64539Y-49940D01*
X64633Y-49940D01*
X64720Y-49905D01*
X64786Y-49838D01*
X64822Y-49751D01*
X64822Y-49657D01*
X64822Y-60905D01*
X64803Y-60905D01*
X64803Y-53988D01*
X64767Y-53901D01*
X64700Y-53835D01*
X64614Y-53799D01*
X64520Y-53799D01*
X64433Y-53835D01*
X64366Y-53901D01*
X64330Y-53988D01*
X64330Y-54082D01*
X64366Y-54169D01*
X64432Y-54235D01*
X64519Y-54271D01*
X64613Y-54271D01*
X64700Y-54235D01*
X64767Y-54169D01*
X64803Y-54082D01*
X64803Y-53988D01*
X64803Y-60905D01*
X64783Y-60905D01*
X64783Y-55563D01*
X64747Y-55476D01*
X64681Y-55410D01*
X64594Y-55374D01*
X64500Y-55373D01*
X64413Y-55409D01*
X64347Y-55476D01*
X64311Y-55563D01*
X64310Y-55657D01*
X64346Y-55743D01*
X64413Y-55810D01*
X64500Y-55846D01*
X64594Y-55846D01*
X64680Y-55810D01*
X64747Y-55744D01*
X64783Y-55657D01*
X64783Y-55563D01*
X64783Y-60905D01*
X62815Y-60905D01*
X62815Y-45563D01*
X62779Y-45476D01*
X62755Y-45453D01*
X62755Y-42512D01*
X62720Y-42425D01*
X62653Y-42358D01*
X62566Y-42322D01*
X62472Y-42322D01*
X62386Y-42358D01*
X62319Y-42425D01*
X62283Y-42511D01*
X62283Y-42605D01*
X62319Y-42692D01*
X62385Y-42759D01*
X62472Y-42795D01*
X62566Y-42795D01*
X62653Y-42759D01*
X62719Y-42693D01*
X62755Y-42606D01*
X62755Y-42512D01*
X62755Y-45453D01*
X62712Y-45410D01*
X62625Y-45374D01*
X62531Y-45373D01*
X62445Y-45409D01*
X62378Y-45476D01*
X62342Y-45563D01*
X62342Y-45657D01*
X62378Y-45743D01*
X62444Y-45810D01*
X62531Y-45846D01*
X62625Y-45846D01*
X62712Y-45810D01*
X62778Y-45744D01*
X62814Y-45657D01*
X62815Y-45563D01*
X62815Y-60905D01*
X61259Y-60905D01*
X61259Y-35268D01*
X61223Y-35181D01*
X61157Y-35114D01*
X61070Y-35078D01*
X60976Y-35078D01*
X60889Y-35114D01*
X60823Y-35180D01*
X60787Y-35267D01*
X60787Y-35361D01*
X60823Y-35448D01*
X60889Y-35515D01*
X60976Y-35551D01*
X61070Y-35551D01*
X61157Y-35515D01*
X61223Y-35448D01*
X61259Y-35362D01*
X61259Y-35268D01*
X61259Y-60905D01*
X59252Y-60905D01*
X59252Y-34382D01*
X59216Y-34295D01*
X59149Y-34228D01*
X59062Y-34192D01*
X58968Y-34192D01*
X58882Y-34228D01*
X58815Y-34295D01*
X58779Y-34381D01*
X58779Y-34475D01*
X58815Y-34562D01*
X58881Y-34629D01*
X58968Y-34665D01*
X59062Y-34665D01*
X59149Y-34629D01*
X59215Y-34563D01*
X59251Y-34476D01*
X59252Y-34382D01*
X59252Y-60905D01*
X58189Y-60905D01*
X58189Y-48220D01*
X58153Y-48134D01*
X58086Y-48067D01*
X57999Y-48031D01*
X57905Y-48031D01*
X57819Y-48067D01*
X57752Y-48133D01*
X57716Y-48220D01*
X57716Y-48314D01*
X57752Y-48401D01*
X57818Y-48467D01*
X57905Y-48503D01*
X57999Y-48503D01*
X58086Y-48468D01*
X58152Y-48401D01*
X58188Y-48314D01*
X58189Y-48220D01*
X58189Y-60905D01*
X56299Y-60905D01*
X56299Y-47433D01*
X56263Y-47346D01*
X56196Y-47280D01*
X56110Y-47244D01*
X56016Y-47244D01*
X55929Y-47279D01*
X55862Y-47346D01*
X55826Y-47433D01*
X55826Y-47527D01*
X55862Y-47613D01*
X55929Y-47680D01*
X56015Y-47716D01*
X56109Y-47716D01*
X56196Y-47680D01*
X56263Y-47614D01*
X56299Y-47527D01*
X56299Y-47433D01*
X56299Y-60905D01*
X52263Y-60905D01*
X52263Y-28594D01*
X52227Y-28508D01*
X52224Y-28504D01*
X52224Y-27000D01*
X52188Y-26913D01*
X52122Y-26847D01*
X52035Y-26811D01*
X51941Y-26810D01*
X51854Y-26846D01*
X51788Y-26913D01*
X51752Y-27000D01*
X51751Y-27094D01*
X51787Y-27180D01*
X51854Y-27247D01*
X51940Y-27283D01*
X52034Y-27283D01*
X52121Y-27247D01*
X52188Y-27181D01*
X52224Y-27094D01*
X52224Y-27000D01*
X52224Y-28504D01*
X52161Y-28441D01*
X52074Y-28405D01*
X51980Y-28405D01*
X51893Y-28441D01*
X51827Y-28507D01*
X51791Y-28594D01*
X51791Y-28688D01*
X51827Y-28775D01*
X51893Y-28841D01*
X51980Y-28877D01*
X52074Y-28877D01*
X52161Y-28842D01*
X52227Y-28775D01*
X52263Y-28688D01*
X52263Y-28594D01*
X52263Y-60905D01*
X52224Y-60905D01*
X52224Y-32925D01*
X52188Y-32838D01*
X52122Y-32772D01*
X52035Y-32736D01*
X51941Y-32736D01*
X51854Y-32772D01*
X51788Y-32838D01*
X51752Y-32925D01*
X51751Y-33019D01*
X51787Y-33106D01*
X51854Y-33172D01*
X51940Y-33208D01*
X52034Y-33208D01*
X52121Y-33172D01*
X52188Y-33106D01*
X52224Y-33019D01*
X52224Y-32925D01*
X52224Y-60905D01*
X52204Y-60905D01*
X52204Y-34500D01*
X52168Y-34413D01*
X52102Y-34347D01*
X52015Y-34311D01*
X51921Y-34310D01*
X51834Y-34346D01*
X51768Y-34413D01*
X51732Y-34500D01*
X51732Y-34594D01*
X51768Y-34680D01*
X51834Y-34747D01*
X51921Y-34783D01*
X52015Y-34783D01*
X52102Y-34747D01*
X52168Y-34681D01*
X52204Y-34594D01*
X52204Y-34500D01*
X52204Y-60905D01*
X52086Y-60905D01*
X52086Y-53989D01*
X52066Y-53941D01*
X52066Y-48083D01*
X52031Y-47996D01*
X51964Y-47930D01*
X51877Y-47894D01*
X51783Y-47894D01*
X51697Y-47930D01*
X51630Y-47996D01*
X51594Y-48083D01*
X51594Y-48177D01*
X51630Y-48264D01*
X51696Y-48330D01*
X51783Y-48366D01*
X51877Y-48366D01*
X51964Y-48330D01*
X52030Y-48264D01*
X52066Y-48177D01*
X52066Y-48083D01*
X52066Y-53941D01*
X52050Y-53902D01*
X51984Y-53835D01*
X51897Y-53799D01*
X51803Y-53799D01*
X51716Y-53835D01*
X51650Y-53902D01*
X51614Y-53988D01*
X51614Y-54082D01*
X51650Y-54169D01*
X51716Y-54236D01*
X51803Y-54272D01*
X51897Y-54272D01*
X51984Y-54236D01*
X52050Y-54170D01*
X52086Y-54083D01*
X52086Y-53989D01*
X52086Y-60905D01*
X50236Y-60905D01*
X50236Y-57256D01*
X50200Y-57169D01*
X50196Y-57166D01*
X50196Y-51429D01*
X50161Y-51342D01*
X50094Y-51276D01*
X50007Y-51240D01*
X49913Y-51240D01*
X49826Y-51276D01*
X49783Y-51319D01*
X49783Y-24638D01*
X49747Y-24551D01*
X49681Y-24484D01*
X49594Y-24448D01*
X49500Y-24448D01*
X49413Y-24484D01*
X49347Y-24551D01*
X49311Y-24637D01*
X49310Y-24731D01*
X49346Y-24818D01*
X49413Y-24885D01*
X49500Y-24921D01*
X49594Y-24921D01*
X49680Y-24885D01*
X49747Y-24819D01*
X49783Y-24732D01*
X49783Y-24638D01*
X49783Y-51319D01*
X49760Y-51342D01*
X49745Y-51377D01*
X49745Y-30877D01*
X49710Y-30790D01*
X49643Y-30724D01*
X49556Y-30688D01*
X49462Y-30688D01*
X49429Y-30701D01*
X49429Y-25228D01*
X49393Y-25141D01*
X49326Y-25075D01*
X49240Y-25039D01*
X49146Y-25039D01*
X49059Y-25075D01*
X48992Y-25141D01*
X48956Y-25228D01*
X48956Y-25322D01*
X48992Y-25409D01*
X49058Y-25475D01*
X49145Y-25511D01*
X49239Y-25511D01*
X49326Y-25475D01*
X49393Y-25409D01*
X49429Y-25322D01*
X49429Y-25228D01*
X49429Y-30701D01*
X49375Y-30723D01*
X49309Y-30790D01*
X49273Y-30877D01*
X49273Y-30971D01*
X49309Y-31057D01*
X49319Y-31068D01*
X49259Y-31043D01*
X49165Y-31043D01*
X49078Y-31079D01*
X49012Y-31145D01*
X48976Y-31232D01*
X48976Y-31326D01*
X49012Y-31413D01*
X49078Y-31479D01*
X49165Y-31515D01*
X49259Y-31515D01*
X49346Y-31479D01*
X49412Y-31413D01*
X49448Y-31326D01*
X49448Y-31232D01*
X49412Y-31145D01*
X49402Y-31135D01*
X49462Y-31160D01*
X49556Y-31160D01*
X49643Y-31124D01*
X49709Y-31058D01*
X49745Y-30971D01*
X49745Y-30877D01*
X49745Y-51377D01*
X49724Y-51429D01*
X49724Y-51523D01*
X49760Y-51610D01*
X49826Y-51676D01*
X49913Y-51712D01*
X50007Y-51712D01*
X50094Y-51676D01*
X50160Y-51610D01*
X50196Y-51523D01*
X50196Y-51429D01*
X50196Y-57166D01*
X50133Y-57103D01*
X50047Y-57066D01*
X49953Y-57066D01*
X49881Y-57096D01*
X49881Y-51804D01*
X49846Y-51717D01*
X49779Y-51651D01*
X49692Y-51615D01*
X49598Y-51615D01*
X49512Y-51650D01*
X49445Y-51717D01*
X49409Y-51804D01*
X49409Y-51898D01*
X49445Y-51984D01*
X49511Y-52051D01*
X49598Y-52087D01*
X49692Y-52087D01*
X49779Y-52051D01*
X49845Y-51985D01*
X49881Y-51898D01*
X49881Y-51804D01*
X49881Y-57096D01*
X49866Y-57102D01*
X49799Y-57169D01*
X49763Y-57255D01*
X49763Y-57349D01*
X49799Y-57436D01*
X49866Y-57503D01*
X49952Y-57539D01*
X50046Y-57539D01*
X50133Y-57503D01*
X50200Y-57437D01*
X50236Y-57350D01*
X50236Y-57256D01*
X50236Y-60905D01*
X49862Y-60905D01*
X49862Y-58024D01*
X49826Y-57937D01*
X49759Y-57870D01*
X49673Y-57834D01*
X49579Y-57834D01*
X49492Y-57870D01*
X49425Y-57936D01*
X49389Y-58023D01*
X49389Y-58117D01*
X49425Y-58204D01*
X49492Y-58271D01*
X49578Y-58307D01*
X49672Y-58307D01*
X49759Y-58271D01*
X49826Y-58204D01*
X49862Y-58118D01*
X49862Y-58024D01*
X49862Y-60905D01*
X48149Y-60905D01*
X48149Y-31232D01*
X48149Y-25228D01*
X48113Y-25141D01*
X48047Y-25075D01*
X47960Y-25039D01*
X47866Y-25039D01*
X47779Y-25075D01*
X47713Y-25141D01*
X47677Y-25228D01*
X47677Y-25322D01*
X47713Y-25409D01*
X47779Y-25475D01*
X47866Y-25511D01*
X47960Y-25511D01*
X48047Y-25475D01*
X48113Y-25409D01*
X48149Y-25322D01*
X48149Y-25228D01*
X48149Y-31232D01*
X48113Y-31145D01*
X48047Y-31079D01*
X47960Y-31043D01*
X47866Y-31043D01*
X47779Y-31079D01*
X47713Y-31145D01*
X47677Y-31232D01*
X47677Y-31326D01*
X47713Y-31413D01*
X47779Y-31479D01*
X47866Y-31515D01*
X47960Y-31515D01*
X48047Y-31479D01*
X48113Y-31413D01*
X48149Y-31326D01*
X48149Y-31232D01*
X48149Y-60905D01*
X47815Y-60905D01*
X47815Y-55564D01*
X47779Y-55477D01*
X47712Y-55411D01*
X47625Y-55374D01*
X47618Y-55374D01*
X47618Y-34499D01*
X47618Y-28554D01*
X47582Y-28467D01*
X47515Y-28401D01*
X47429Y-28365D01*
X47335Y-28365D01*
X47248Y-28401D01*
X47181Y-28467D01*
X47145Y-28554D01*
X47145Y-28648D01*
X47181Y-28735D01*
X47247Y-28801D01*
X47334Y-28837D01*
X47428Y-28837D01*
X47515Y-28801D01*
X47582Y-28735D01*
X47618Y-28648D01*
X47618Y-28554D01*
X47618Y-34499D01*
X47582Y-34412D01*
X47515Y-34346D01*
X47429Y-34310D01*
X47335Y-34310D01*
X47248Y-34345D01*
X47181Y-34412D01*
X47145Y-34499D01*
X47145Y-34593D01*
X47181Y-34679D01*
X47247Y-34746D01*
X47334Y-34782D01*
X47428Y-34782D01*
X47515Y-34746D01*
X47582Y-34680D01*
X47618Y-34593D01*
X47618Y-34499D01*
X47618Y-55374D01*
X47531Y-55374D01*
X47445Y-55410D01*
X47440Y-55414D01*
X47440Y-49657D01*
X47405Y-49571D01*
X47401Y-49567D01*
X47401Y-48083D01*
X47365Y-47996D01*
X47299Y-47929D01*
X47212Y-47893D01*
X47118Y-47893D01*
X47031Y-47929D01*
X46981Y-47979D01*
X46981Y-30329D01*
X46841Y-29992D01*
X46583Y-29733D01*
X46246Y-29593D01*
X45881Y-29593D01*
X45543Y-29733D01*
X45285Y-29991D01*
X45196Y-30203D01*
X45196Y-28594D01*
X45196Y-27020D01*
X45161Y-26933D01*
X45094Y-26866D01*
X45007Y-26830D01*
X44913Y-26830D01*
X44826Y-26866D01*
X44760Y-26932D01*
X44724Y-27019D01*
X44724Y-27113D01*
X44760Y-27200D01*
X44826Y-27267D01*
X44913Y-27303D01*
X45007Y-27303D01*
X45094Y-27267D01*
X45160Y-27200D01*
X45196Y-27114D01*
X45196Y-27020D01*
X45196Y-28594D01*
X45161Y-28508D01*
X45094Y-28441D01*
X45007Y-28405D01*
X44913Y-28405D01*
X44826Y-28441D01*
X44760Y-28507D01*
X44724Y-28594D01*
X44724Y-28688D01*
X44760Y-28775D01*
X44826Y-28841D01*
X44913Y-28877D01*
X45007Y-28877D01*
X45094Y-28842D01*
X45160Y-28775D01*
X45196Y-28688D01*
X45196Y-28594D01*
X45196Y-30203D01*
X45145Y-30328D01*
X45144Y-30693D01*
X45284Y-31031D01*
X45542Y-31289D01*
X45879Y-31429D01*
X46244Y-31430D01*
X46582Y-31290D01*
X46840Y-31032D01*
X46980Y-30695D01*
X46981Y-30329D01*
X46981Y-47979D01*
X46965Y-47995D01*
X46929Y-48082D01*
X46929Y-48176D01*
X46964Y-48263D01*
X47031Y-48330D01*
X47118Y-48366D01*
X47212Y-48366D01*
X47298Y-48330D01*
X47365Y-48263D01*
X47401Y-48177D01*
X47401Y-48083D01*
X47401Y-49567D01*
X47338Y-49504D01*
X47251Y-49468D01*
X47157Y-49468D01*
X47071Y-49504D01*
X47004Y-49570D01*
X46968Y-49657D01*
X46968Y-49751D01*
X47004Y-49838D01*
X47070Y-49904D01*
X47157Y-49940D01*
X47251Y-49940D01*
X47338Y-49905D01*
X47404Y-49838D01*
X47440Y-49751D01*
X47440Y-49657D01*
X47440Y-55414D01*
X47421Y-55434D01*
X47421Y-53988D01*
X47385Y-53901D01*
X47319Y-53835D01*
X47232Y-53799D01*
X47138Y-53799D01*
X47051Y-53835D01*
X46984Y-53901D01*
X46981Y-53910D01*
X46981Y-51983D01*
X46841Y-51645D01*
X46583Y-51387D01*
X46536Y-51367D01*
X46536Y-43428D01*
X46536Y-43105D01*
X46536Y-41775D01*
X46536Y-41452D01*
X46536Y-40122D01*
X46536Y-39799D01*
X46426Y-39570D01*
X46237Y-39400D01*
X46066Y-39329D01*
X45965Y-39371D01*
X45965Y-39900D01*
X46494Y-39900D01*
X46536Y-39799D01*
X46536Y-40122D01*
X46494Y-40021D01*
X45965Y-40021D01*
X45965Y-40550D01*
X46066Y-40593D01*
X46237Y-40522D01*
X46426Y-40352D01*
X46536Y-40122D01*
X46536Y-41452D01*
X46426Y-41223D01*
X46237Y-41053D01*
X46066Y-40982D01*
X45965Y-41024D01*
X45965Y-41553D01*
X46494Y-41553D01*
X46536Y-41452D01*
X46536Y-41775D01*
X46494Y-41674D01*
X45965Y-41674D01*
X45965Y-42203D01*
X46066Y-42246D01*
X46237Y-42175D01*
X46426Y-42005D01*
X46536Y-41775D01*
X46536Y-43105D01*
X46426Y-42876D01*
X46237Y-42706D01*
X46066Y-42635D01*
X45965Y-42677D01*
X45965Y-43206D01*
X46494Y-43206D01*
X46536Y-43105D01*
X46536Y-43428D01*
X46494Y-43327D01*
X45965Y-43327D01*
X45965Y-43856D01*
X46066Y-43899D01*
X46237Y-43828D01*
X46426Y-43658D01*
X46536Y-43428D01*
X46536Y-51367D01*
X46246Y-51247D01*
X45881Y-51247D01*
X45844Y-51262D01*
X45844Y-43856D01*
X45844Y-43327D01*
X45844Y-43206D01*
X45844Y-42677D01*
X45844Y-42203D01*
X45844Y-41674D01*
X45844Y-41553D01*
X45844Y-41024D01*
X45844Y-40550D01*
X45844Y-40021D01*
X45844Y-39900D01*
X45844Y-39371D01*
X45743Y-39329D01*
X45571Y-39400D01*
X45382Y-39570D01*
X45272Y-39799D01*
X45315Y-39900D01*
X45844Y-39900D01*
X45844Y-40021D01*
X45315Y-40021D01*
X45272Y-40122D01*
X45382Y-40352D01*
X45571Y-40522D01*
X45743Y-40593D01*
X45844Y-40550D01*
X45844Y-41024D01*
X45743Y-40982D01*
X45571Y-41053D01*
X45382Y-41223D01*
X45272Y-41452D01*
X45315Y-41553D01*
X45844Y-41553D01*
X45844Y-41674D01*
X45315Y-41674D01*
X45272Y-41775D01*
X45382Y-42005D01*
X45571Y-42175D01*
X45743Y-42246D01*
X45844Y-42203D01*
X45844Y-42677D01*
X45743Y-42635D01*
X45571Y-42706D01*
X45382Y-42876D01*
X45272Y-43105D01*
X45315Y-43206D01*
X45844Y-43206D01*
X45844Y-43327D01*
X45315Y-43327D01*
X45272Y-43428D01*
X45382Y-43658D01*
X45571Y-43828D01*
X45743Y-43899D01*
X45844Y-43856D01*
X45844Y-51262D01*
X45543Y-51386D01*
X45285Y-51644D01*
X45236Y-51762D01*
X45236Y-34500D01*
X45236Y-32925D01*
X45200Y-32838D01*
X45133Y-32772D01*
X45047Y-32736D01*
X44953Y-32736D01*
X44866Y-32772D01*
X44799Y-32838D01*
X44763Y-32925D01*
X44763Y-33019D01*
X44799Y-33106D01*
X44866Y-33172D01*
X44952Y-33208D01*
X45046Y-33208D01*
X45133Y-33172D01*
X45200Y-33106D01*
X45236Y-33019D01*
X45236Y-32925D01*
X45236Y-34500D01*
X45200Y-34413D01*
X45133Y-34347D01*
X45047Y-34311D01*
X44953Y-34310D01*
X44866Y-34346D01*
X44799Y-34413D01*
X44763Y-34500D01*
X44763Y-34594D01*
X44799Y-34680D01*
X44866Y-34747D01*
X44952Y-34783D01*
X45046Y-34783D01*
X45133Y-34747D01*
X45200Y-34681D01*
X45236Y-34594D01*
X45236Y-34500D01*
X45236Y-51762D01*
X45145Y-51981D01*
X45144Y-52347D01*
X45284Y-52684D01*
X45542Y-52943D01*
X45879Y-53083D01*
X46244Y-53083D01*
X46582Y-52944D01*
X46840Y-52686D01*
X46980Y-52348D01*
X46981Y-51983D01*
X46981Y-53910D01*
X46948Y-53988D01*
X46948Y-54082D01*
X46984Y-54169D01*
X47051Y-54235D01*
X47137Y-54271D01*
X47231Y-54271D01*
X47318Y-54235D01*
X47385Y-54169D01*
X47421Y-54082D01*
X47421Y-53988D01*
X47421Y-55434D01*
X47378Y-55477D01*
X47342Y-55563D01*
X47342Y-55657D01*
X47378Y-55744D01*
X47444Y-55811D01*
X47531Y-55847D01*
X47625Y-55847D01*
X47712Y-55811D01*
X47778Y-55745D01*
X47814Y-55658D01*
X47815Y-55564D01*
X47815Y-60905D01*
X45059Y-60905D01*
X45059Y-53989D01*
X45023Y-53902D01*
X45019Y-53898D01*
X45019Y-48084D01*
X44983Y-47997D01*
X44917Y-47930D01*
X44830Y-47894D01*
X44783Y-47894D01*
X44783Y-43277D01*
X44783Y-43256D01*
X44783Y-41624D01*
X44783Y-41603D01*
X44783Y-39971D01*
X44783Y-39950D01*
X44743Y-39747D01*
X44628Y-39575D01*
X44455Y-39460D01*
X44252Y-39419D01*
X44049Y-39460D01*
X43877Y-39575D01*
X43762Y-39747D01*
X43721Y-39950D01*
X43721Y-39971D01*
X43762Y-40174D01*
X43877Y-40347D01*
X44049Y-40462D01*
X44252Y-40502D01*
X44455Y-40462D01*
X44628Y-40347D01*
X44743Y-40174D01*
X44783Y-39971D01*
X44783Y-41603D01*
X44743Y-41400D01*
X44628Y-41228D01*
X44455Y-41113D01*
X44252Y-41072D01*
X44049Y-41113D01*
X43877Y-41228D01*
X43762Y-41400D01*
X43721Y-41603D01*
X43721Y-41624D01*
X43762Y-41827D01*
X43877Y-42000D01*
X44049Y-42115D01*
X44252Y-42155D01*
X44455Y-42115D01*
X44628Y-42000D01*
X44743Y-41827D01*
X44783Y-41624D01*
X44783Y-43256D01*
X44743Y-43053D01*
X44628Y-42881D01*
X44455Y-42766D01*
X44252Y-42725D01*
X44049Y-42766D01*
X43877Y-42881D01*
X43762Y-43053D01*
X43721Y-43256D01*
X43721Y-43277D01*
X43762Y-43480D01*
X43877Y-43653D01*
X44049Y-43768D01*
X44252Y-43808D01*
X44455Y-43768D01*
X44628Y-43653D01*
X44743Y-43480D01*
X44783Y-43277D01*
X44783Y-47894D01*
X44736Y-47894D01*
X44649Y-47930D01*
X44583Y-47996D01*
X44547Y-48083D01*
X44547Y-48177D01*
X44583Y-48264D01*
X44649Y-48330D01*
X44736Y-48367D01*
X44830Y-48367D01*
X44917Y-48331D01*
X44983Y-48264D01*
X45019Y-48178D01*
X45019Y-48084D01*
X45019Y-53898D01*
X44956Y-53835D01*
X44870Y-53799D01*
X44776Y-53799D01*
X44689Y-53835D01*
X44622Y-53902D01*
X44586Y-53988D01*
X44586Y-54082D01*
X44622Y-54169D01*
X44688Y-54236D01*
X44775Y-54272D01*
X44869Y-54272D01*
X44956Y-54236D01*
X45022Y-54170D01*
X45059Y-54083D01*
X45059Y-53989D01*
X45059Y-60905D01*
X44370Y-60905D01*
X44370Y-57256D01*
X44370Y-51370D01*
X44334Y-51283D01*
X44267Y-51217D01*
X44181Y-51181D01*
X44087Y-51181D01*
X44000Y-51216D01*
X43933Y-51283D01*
X43897Y-51370D01*
X43897Y-51464D01*
X43933Y-51550D01*
X43999Y-51617D01*
X44086Y-51653D01*
X44180Y-51653D01*
X44267Y-51617D01*
X44333Y-51551D01*
X44370Y-51464D01*
X44370Y-51370D01*
X44370Y-57256D01*
X44334Y-57169D01*
X44267Y-57103D01*
X44181Y-57066D01*
X44087Y-57066D01*
X44000Y-57102D01*
X43933Y-57169D01*
X43897Y-57255D01*
X43897Y-57349D01*
X43933Y-57436D01*
X43999Y-57503D01*
X44086Y-57539D01*
X44180Y-57539D01*
X44267Y-57503D01*
X44333Y-57437D01*
X44370Y-57350D01*
X44370Y-57256D01*
X44370Y-60905D01*
X43149Y-60905D01*
X43149Y-57335D01*
X43113Y-57248D01*
X43047Y-57181D01*
X42972Y-57150D01*
X42972Y-24618D01*
X42936Y-24531D01*
X42870Y-24465D01*
X42783Y-24429D01*
X42689Y-24429D01*
X42602Y-24464D01*
X42536Y-24531D01*
X42500Y-24618D01*
X42499Y-24712D01*
X42535Y-24798D01*
X42602Y-24865D01*
X42689Y-24901D01*
X42783Y-24901D01*
X42869Y-24865D01*
X42936Y-24799D01*
X42972Y-24712D01*
X42972Y-24618D01*
X42972Y-57150D01*
X42960Y-57145D01*
X42866Y-57145D01*
X42795Y-57175D01*
X42795Y-51784D01*
X42759Y-51697D01*
X42693Y-51631D01*
X42657Y-51616D01*
X42657Y-30857D01*
X42621Y-30770D01*
X42598Y-30747D01*
X42598Y-25228D01*
X42562Y-25141D01*
X42496Y-25075D01*
X42409Y-25039D01*
X42315Y-25039D01*
X42228Y-25075D01*
X42162Y-25141D01*
X42126Y-25228D01*
X42125Y-25322D01*
X42161Y-25409D01*
X42228Y-25475D01*
X42315Y-25511D01*
X42408Y-25511D01*
X42495Y-25475D01*
X42562Y-25409D01*
X42598Y-25322D01*
X42598Y-25228D01*
X42598Y-30747D01*
X42555Y-30704D01*
X42468Y-30668D01*
X42374Y-30668D01*
X42287Y-30704D01*
X42221Y-30770D01*
X42185Y-30857D01*
X42184Y-30951D01*
X42220Y-31038D01*
X42287Y-31104D01*
X42374Y-31140D01*
X42468Y-31140D01*
X42554Y-31104D01*
X42621Y-31038D01*
X42657Y-30951D01*
X42657Y-30857D01*
X42657Y-51616D01*
X42606Y-51595D01*
X42512Y-51595D01*
X42425Y-51631D01*
X42358Y-51697D01*
X42322Y-51784D01*
X42322Y-51878D01*
X42358Y-51965D01*
X42425Y-52031D01*
X42511Y-52067D01*
X42605Y-52067D01*
X42692Y-52031D01*
X42759Y-51965D01*
X42795Y-51878D01*
X42795Y-51784D01*
X42795Y-57175D01*
X42779Y-57181D01*
X42713Y-57247D01*
X42677Y-57334D01*
X42677Y-57401D01*
X42669Y-57401D01*
X42582Y-57437D01*
X42516Y-57503D01*
X42480Y-57590D01*
X42480Y-57684D01*
X42516Y-57771D01*
X42582Y-57837D01*
X42669Y-57873D01*
X42763Y-57874D01*
X42850Y-57838D01*
X42916Y-57771D01*
X42952Y-57684D01*
X42952Y-57618D01*
X42960Y-57618D01*
X43047Y-57582D01*
X43113Y-57515D01*
X43149Y-57429D01*
X43149Y-57335D01*
X43149Y-60905D01*
X42283Y-60905D01*
X42283Y-31213D01*
X42247Y-31126D01*
X42181Y-31059D01*
X42094Y-31023D01*
X42000Y-31023D01*
X41913Y-31059D01*
X41847Y-31125D01*
X41811Y-31212D01*
X41810Y-31306D01*
X41846Y-31393D01*
X41913Y-31459D01*
X42000Y-31496D01*
X42094Y-31496D01*
X42180Y-31460D01*
X42247Y-31393D01*
X42283Y-31307D01*
X42283Y-31213D01*
X42283Y-60905D01*
X41988Y-60905D01*
X41988Y-57814D01*
X41974Y-57747D01*
X41936Y-57689D01*
X41878Y-57651D01*
X41811Y-57637D01*
X41810Y-57637D01*
X41771Y-57645D01*
X41771Y-23560D01*
X41634Y-23227D01*
X41379Y-22972D01*
X41047Y-22834D01*
X40686Y-22834D01*
X40353Y-22972D01*
X40098Y-23226D01*
X39960Y-23559D01*
X39960Y-23919D01*
X40098Y-24252D01*
X40352Y-24507D01*
X40685Y-24645D01*
X41045Y-24645D01*
X41378Y-24508D01*
X41633Y-24253D01*
X41771Y-23921D01*
X41771Y-23560D01*
X41771Y-57645D01*
X41742Y-57651D01*
X41684Y-57689D01*
X41646Y-57747D01*
X41632Y-57814D01*
X41646Y-57882D01*
X41684Y-57940D01*
X41742Y-57978D01*
X41810Y-57992D01*
X41811Y-57992D01*
X41878Y-57978D01*
X41936Y-57940D01*
X41974Y-57882D01*
X41988Y-57814D01*
X41988Y-60905D01*
X41784Y-60905D01*
X41784Y-58755D01*
X41644Y-58417D01*
X41386Y-58159D01*
X41049Y-58019D01*
X40684Y-58018D01*
X40531Y-58081D01*
X40531Y-34460D01*
X40531Y-28475D01*
X40495Y-28389D01*
X40429Y-28322D01*
X40342Y-28286D01*
X40248Y-28286D01*
X40161Y-28322D01*
X40095Y-28388D01*
X40059Y-28475D01*
X40059Y-28569D01*
X40094Y-28656D01*
X40161Y-28722D01*
X40248Y-28758D01*
X40342Y-28758D01*
X40428Y-28723D01*
X40495Y-28656D01*
X40531Y-28569D01*
X40531Y-28475D01*
X40531Y-34460D01*
X40495Y-34373D01*
X40429Y-34306D01*
X40342Y-34270D01*
X40248Y-34270D01*
X40161Y-34306D01*
X40095Y-34372D01*
X40059Y-34459D01*
X40059Y-34553D01*
X40094Y-34640D01*
X40161Y-34707D01*
X40248Y-34743D01*
X40342Y-34743D01*
X40428Y-34707D01*
X40495Y-34640D01*
X40531Y-34554D01*
X40531Y-34460D01*
X40531Y-58081D01*
X40354Y-58155D01*
X40354Y-49657D01*
X40354Y-48083D01*
X40318Y-47996D01*
X40252Y-47929D01*
X40165Y-47893D01*
X40071Y-47893D01*
X39984Y-47929D01*
X39917Y-47995D01*
X39881Y-48082D01*
X39881Y-48176D01*
X39917Y-48263D01*
X39984Y-48330D01*
X40070Y-48366D01*
X40164Y-48366D01*
X40251Y-48330D01*
X40318Y-48263D01*
X40354Y-48177D01*
X40354Y-48083D01*
X40354Y-49657D01*
X40318Y-49571D01*
X40252Y-49504D01*
X40165Y-49468D01*
X40071Y-49468D01*
X39984Y-49504D01*
X39917Y-49570D01*
X39881Y-49657D01*
X39881Y-49751D01*
X39917Y-49838D01*
X39984Y-49904D01*
X40070Y-49940D01*
X40164Y-49940D01*
X40251Y-49905D01*
X40318Y-49838D01*
X40354Y-49751D01*
X40354Y-49657D01*
X40354Y-58155D01*
X40346Y-58158D01*
X40295Y-58209D01*
X40295Y-53988D01*
X40259Y-53901D01*
X40193Y-53835D01*
X40106Y-53799D01*
X40012Y-53799D01*
X39925Y-53835D01*
X39858Y-53901D01*
X39822Y-53988D01*
X39822Y-54082D01*
X39858Y-54169D01*
X39925Y-54235D01*
X40011Y-54271D01*
X40105Y-54271D01*
X40192Y-54235D01*
X40259Y-54169D01*
X40295Y-54082D01*
X40295Y-53988D01*
X40295Y-58209D01*
X40275Y-58229D01*
X40275Y-55563D01*
X40239Y-55476D01*
X40173Y-55410D01*
X40086Y-55374D01*
X39992Y-55373D01*
X39905Y-55409D01*
X39839Y-55476D01*
X39803Y-55563D01*
X39803Y-55657D01*
X39838Y-55743D01*
X39905Y-55810D01*
X39992Y-55846D01*
X40086Y-55846D01*
X40173Y-55810D01*
X40239Y-55744D01*
X40275Y-55657D01*
X40275Y-55563D01*
X40275Y-58229D01*
X40088Y-58416D01*
X39948Y-58753D01*
X39947Y-59118D01*
X40087Y-59456D01*
X40345Y-59714D01*
X40682Y-59854D01*
X41047Y-59855D01*
X41385Y-59715D01*
X41644Y-59457D01*
X41784Y-59120D01*
X41784Y-58755D01*
X41784Y-60905D01*
X38897Y-60905D01*
X38897Y-21771D01*
X78031Y-21771D01*
X78031Y-60905D01*
M02*
