G04 (created by PCBNEW (2013-mar-13)-testing) date Tue 25 Jun 2013 12:04:39 AM ICT*
%MOIN*%
G04 Gerber Fmt 3.4, Leading zero omitted, Abs format*
%FSLAX34Y34*%
G01*
G70*
G90*
G04 APERTURE LIST*
%ADD10C,0.00393701*%
%ADD11R,0.023622X0.0314961*%
%ADD12R,0.0767315X0.0767315*%
%ADD13R,0.108231X0.108231*%
%ADD14R,0.0413315X0.0373315*%
%ADD15R,0.0373315X0.0413315*%
%ADD16R,0.0491315X0.0570315*%
%ADD17R,0.0570315X0.0491315*%
%ADD18R,0.0688315X0.0609315*%
%ADD19R,0.0865315X0.0176315*%
%ADD20R,0.0964315X0.0767315*%
%ADD21R,0.0255315X0.0334315*%
%ADD22R,0.0334315X0.0255315*%
%ADD23R,0.0330315X0.0290315*%
%ADD24R,0.0240157X0.00984252*%
%ADD25R,0.0137315X0.0570315*%
%ADD26R,0.0767717X0.0480315*%
%ADD27R,0.218504X0.102362*%
%ADD28R,0.273622X0.0531496*%
%ADD29R,0.0610315X0.0256315*%
%ADD30R,0.0807315X0.0256315*%
%ADD31R,0.106331X0.0767315*%
%ADD32R,0.0137315X0.0216315*%
%ADD33R,0.0100315X0.0180315*%
%ADD34R,0.124016X0.0374016*%
%ADD35R,0.0374016X0.124016*%
%ADD36R,0.0176315X0.0098315*%
%ADD37R,0.0098315X0.0176315*%
%ADD38R,0.0570866X0.0570866*%
%ADD39R,0.0098315X0.0275315*%
%ADD40R,0.0275315X0.0098315*%
%ADD41R,0.0255906X0.0255906*%
%ADD42R,0.0098315X0.0255315*%
%ADD43R,0.0255315X0.0098315*%
%ADD44R,0.0216535X0.0149606*%
%ADD45R,0.0149606X0.0255906*%
%ADD46R,0.0452756X0.0255906*%
%ADD47R,0.075748X0.0468504*%
%ADD48R,0.0334646X0.0433071*%
%ADD49R,0.0129921X0.096063*%
%ADD50R,0.0491315X0.139731*%
G04 APERTURE END LIST*
G54D10*
X38779Y-61023D02*
X78149Y-61023D01*
X78149Y-61023D02*
X78149Y-21653D01*
X78149Y-21653D02*
X38779Y-21653D01*
X38779Y-21653D02*
X38779Y-61023D01*
G54D11*
X69242Y-41151D03*
X68592Y-41151D03*
X69242Y-41761D03*
X68592Y-41761D03*
G54D12*
X59858Y-51588D03*
G54D13*
X56433Y-50565D03*
X56433Y-52611D03*
G54D12*
X57271Y-31123D03*
G54D13*
X60696Y-32146D03*
X60696Y-30100D03*
G54D14*
X53721Y-35984D03*
X54389Y-35984D03*
G54D15*
X61464Y-34733D03*
X61464Y-34065D03*
G54D14*
X58593Y-36548D03*
X57925Y-36548D03*
G54D15*
X59465Y-36596D03*
X60133Y-36596D03*
X57361Y-36548D03*
X56693Y-36548D03*
X57082Y-37375D03*
X56414Y-37375D03*
G54D14*
X61456Y-35941D03*
X61456Y-35273D03*
G54D16*
X54429Y-35275D03*
X53681Y-35275D03*
X54429Y-34488D03*
X53681Y-34488D03*
G54D17*
X55196Y-34429D03*
X55196Y-33681D03*
X56023Y-34429D03*
X56023Y-33681D03*
X56850Y-34429D03*
X56850Y-33681D03*
G54D15*
X57559Y-34389D03*
X57559Y-33721D03*
G54D14*
X58058Y-35635D03*
X57390Y-35635D03*
G54D15*
X54606Y-30295D03*
X54606Y-30963D03*
G54D18*
X56279Y-29960D03*
X56279Y-31062D03*
X55413Y-29960D03*
X55413Y-31062D03*
X61850Y-29980D03*
X61850Y-31082D03*
X62775Y-29980D03*
X62775Y-31082D03*
G54D14*
X61645Y-36907D03*
X61645Y-37575D03*
X63267Y-37548D03*
X63267Y-36880D03*
G54D15*
X63031Y-35492D03*
X63031Y-36160D03*
X59298Y-38194D03*
X58630Y-38194D03*
G54D14*
X59492Y-37422D03*
X60160Y-37422D03*
X58956Y-37375D03*
X58288Y-37375D03*
X62464Y-36876D03*
X62464Y-37544D03*
X62307Y-35478D03*
X62307Y-36146D03*
X60834Y-37134D03*
X60834Y-36466D03*
G54D15*
X59409Y-49034D03*
X59409Y-48366D03*
X55645Y-47998D03*
X55645Y-48666D03*
G54D14*
X58488Y-46103D03*
X59156Y-46103D03*
G54D15*
X57645Y-45970D03*
X56977Y-45970D03*
X59685Y-46103D03*
X60353Y-46103D03*
X60024Y-45304D03*
X60692Y-45304D03*
G54D14*
X55653Y-46777D03*
X55653Y-47445D03*
G54D16*
X62500Y-47440D03*
X63248Y-47440D03*
X62500Y-48267D03*
X63248Y-48267D03*
G54D17*
X61811Y-48326D03*
X61811Y-49074D03*
X60984Y-48326D03*
X60984Y-49074D03*
X60157Y-48326D03*
X60157Y-49074D03*
G54D14*
X62540Y-46732D03*
X63208Y-46732D03*
X59099Y-46985D03*
X59767Y-46985D03*
G54D15*
X62519Y-52223D03*
X62519Y-51555D03*
G54D18*
X60885Y-52607D03*
X60885Y-51505D03*
X61712Y-52587D03*
X61712Y-51485D03*
X55275Y-52657D03*
X55275Y-51555D03*
X54429Y-52657D03*
X54429Y-51555D03*
G54D14*
X55440Y-45579D03*
X55440Y-44911D03*
X53811Y-44907D03*
X53811Y-45575D03*
G54D15*
X54114Y-46948D03*
X54114Y-46280D03*
X57819Y-44340D03*
X58487Y-44340D03*
G54D14*
X57664Y-45151D03*
X56996Y-45151D03*
X58185Y-45159D03*
X58853Y-45159D03*
X54633Y-45579D03*
X54633Y-44911D03*
X54830Y-47193D03*
X54830Y-46525D03*
X56303Y-45439D03*
X56303Y-46107D03*
X64823Y-43011D03*
X65491Y-43011D03*
X66141Y-39783D03*
X65473Y-39783D03*
X66141Y-39173D03*
X65473Y-39173D03*
G54D16*
X64035Y-39074D03*
X64783Y-39074D03*
X64035Y-39881D03*
X64783Y-39881D03*
G54D14*
X64133Y-42736D03*
X64133Y-43404D03*
G54D17*
X66482Y-41857D03*
X66482Y-41109D03*
G54D19*
X74763Y-41338D03*
X74763Y-41652D03*
X74763Y-41967D03*
X74763Y-41024D03*
X74763Y-40709D03*
G54D20*
X74803Y-43089D03*
X74803Y-39587D03*
X76948Y-43089D03*
X76948Y-39587D03*
G54D21*
X40314Y-28641D03*
X39804Y-28641D03*
G54D22*
X42905Y-25310D03*
X42905Y-24800D03*
X40039Y-25611D03*
X40039Y-26121D03*
G54D21*
X44705Y-28641D03*
X45215Y-28641D03*
G54D22*
X45137Y-27066D03*
X45137Y-26556D03*
G54D21*
X40314Y-28149D03*
X39804Y-28149D03*
G54D22*
X45137Y-25532D03*
X45137Y-26042D03*
G54D21*
X44705Y-28169D03*
X45215Y-28169D03*
G54D22*
X42775Y-29882D03*
X42775Y-30392D03*
X42145Y-29882D03*
X42145Y-30392D03*
X40039Y-27046D03*
X40039Y-26536D03*
G54D21*
X51713Y-28641D03*
X52223Y-28641D03*
X47479Y-28641D03*
X46969Y-28641D03*
G54D22*
X52204Y-27066D03*
X52204Y-26556D03*
G54D21*
X47479Y-28149D03*
X46969Y-28149D03*
G54D22*
X47106Y-25867D03*
X47106Y-26377D03*
X49685Y-29922D03*
X49685Y-30432D03*
G54D21*
X51713Y-28149D03*
X52223Y-28149D03*
G54D22*
X50149Y-35689D03*
X50149Y-36199D03*
X52224Y-25532D03*
X52224Y-26042D03*
X47106Y-27302D03*
X47106Y-26792D03*
X50137Y-25247D03*
X50137Y-24737D03*
G54D21*
X44685Y-34547D03*
X45195Y-34547D03*
X40333Y-34547D03*
X39823Y-34547D03*
G54D22*
X45059Y-32951D03*
X45059Y-32441D03*
G54D21*
X40186Y-32234D03*
X39676Y-32234D03*
X44587Y-31988D03*
X45097Y-31988D03*
X40333Y-34055D03*
X39823Y-34055D03*
G54D22*
X41771Y-35689D03*
X41771Y-36199D03*
G54D21*
X44685Y-34055D03*
X45195Y-34055D03*
G54D22*
X41653Y-30904D03*
X41653Y-30394D03*
X43259Y-30900D03*
X43259Y-30390D03*
X43208Y-35689D03*
X43208Y-36199D03*
G54D21*
X47459Y-34527D03*
X46949Y-34527D03*
G54D22*
X51594Y-34546D03*
X51594Y-34036D03*
X51535Y-32971D03*
X51535Y-32461D03*
X51535Y-31536D03*
X51535Y-32046D03*
G54D21*
X47459Y-35019D03*
X46949Y-35019D03*
G54D22*
X48799Y-35689D03*
X48799Y-36199D03*
X49192Y-29922D03*
X49192Y-30432D03*
X52086Y-33524D03*
X52086Y-34034D03*
X48740Y-30943D03*
X48740Y-30433D03*
X50177Y-30943D03*
X50177Y-30433D03*
X47125Y-32951D03*
X47125Y-32441D03*
G54D21*
X64684Y-28641D03*
X64174Y-28641D03*
X69075Y-28641D03*
X69585Y-28641D03*
G54D22*
X69389Y-27066D03*
X69389Y-26556D03*
X67519Y-25314D03*
X67519Y-24804D03*
X64468Y-26632D03*
X64468Y-26122D03*
G54D21*
X64684Y-29133D03*
X64174Y-29133D03*
X71918Y-32312D03*
X71408Y-32312D03*
G54D22*
X67578Y-29843D03*
X67578Y-30353D03*
X69409Y-25532D03*
X69409Y-26042D03*
G54D21*
X69075Y-28169D03*
X69585Y-28169D03*
G54D22*
X64468Y-25197D03*
X64468Y-25707D03*
G54D21*
X71770Y-28641D03*
X71260Y-28641D03*
X76182Y-28641D03*
X76692Y-28641D03*
G54D22*
X76181Y-27066D03*
X76181Y-26556D03*
X74551Y-25428D03*
X74551Y-24918D03*
X73169Y-29922D03*
X73169Y-30432D03*
X71456Y-25276D03*
X71456Y-25786D03*
G54D21*
X71770Y-28149D03*
X71260Y-28149D03*
G54D22*
X74665Y-29922D03*
X74665Y-30432D03*
G54D21*
X76182Y-28149D03*
X76692Y-28149D03*
G54D22*
X76181Y-25630D03*
X76181Y-26140D03*
X71456Y-26711D03*
X71456Y-26201D03*
G54D21*
X64743Y-34547D03*
X64233Y-34547D03*
X69134Y-34547D03*
X69644Y-34547D03*
G54D22*
X69448Y-32971D03*
X69448Y-32461D03*
X66535Y-30865D03*
X66535Y-30355D03*
X67086Y-30865D03*
X67086Y-30355D03*
X66122Y-35611D03*
X66122Y-36121D03*
G54D21*
X64743Y-35039D03*
X64233Y-35039D03*
X68937Y-32007D03*
X69447Y-32007D03*
G54D22*
X66043Y-29843D03*
X66043Y-30353D03*
G54D21*
X64900Y-32047D03*
X64390Y-32047D03*
X69134Y-34074D03*
X69644Y-34074D03*
X71711Y-34547D03*
X71201Y-34547D03*
X76280Y-34763D03*
X76790Y-34763D03*
G54D22*
X76141Y-32951D03*
X76141Y-32441D03*
G54D21*
X75670Y-32007D03*
X76180Y-32007D03*
G54D22*
X74173Y-30943D03*
X74173Y-30433D03*
X73661Y-30943D03*
X73661Y-30433D03*
G54D21*
X71711Y-34055D03*
X71201Y-34055D03*
G54D22*
X74397Y-35595D03*
X74397Y-36105D03*
X67263Y-35615D03*
X67263Y-36125D03*
G54D21*
X76280Y-34281D03*
X76790Y-34281D03*
G54D22*
X73188Y-35611D03*
X73188Y-36121D03*
G54D21*
X76280Y-54035D03*
X76790Y-54035D03*
X71888Y-54035D03*
X71378Y-54035D03*
G54D22*
X71830Y-55611D03*
X71830Y-56121D03*
G54D21*
X76122Y-49881D03*
X76632Y-49881D03*
G54D22*
X76417Y-55571D03*
X76417Y-56081D03*
X71830Y-57046D03*
X71830Y-56536D03*
G54D21*
X76280Y-54527D03*
X76790Y-54527D03*
G54D22*
X73208Y-52814D03*
X73208Y-52304D03*
G54D21*
X71888Y-54527D03*
X71378Y-54527D03*
G54D22*
X76417Y-57026D03*
X76417Y-56516D03*
X73610Y-57292D03*
X73610Y-57802D03*
G54D21*
X69272Y-54035D03*
X69782Y-54035D03*
X64802Y-54035D03*
X64292Y-54035D03*
G54D22*
X64763Y-55611D03*
X64763Y-56121D03*
X66649Y-57276D03*
X66649Y-57786D03*
G54D21*
X69085Y-50442D03*
X69595Y-50442D03*
G54D22*
X64763Y-57046D03*
X64763Y-56536D03*
G54D21*
X69272Y-54527D03*
X69782Y-54527D03*
G54D22*
X66181Y-52794D03*
X66181Y-52284D03*
G54D21*
X64802Y-54527D03*
X64292Y-54527D03*
X64408Y-49212D03*
X63898Y-49212D03*
X69105Y-56505D03*
X69615Y-56505D03*
X76122Y-48110D03*
X76632Y-48110D03*
X71908Y-48129D03*
X71398Y-48129D03*
G54D22*
X71811Y-49705D03*
X71811Y-50215D03*
X73700Y-51792D03*
X73700Y-52302D03*
X74212Y-51792D03*
X74212Y-52302D03*
G54D21*
X72292Y-50669D03*
X71782Y-50669D03*
X76122Y-48622D03*
X76632Y-48622D03*
G54D22*
X73405Y-46987D03*
X73405Y-46477D03*
G54D21*
X71908Y-48622D03*
X71398Y-48622D03*
G54D22*
X74547Y-46987D03*
X74547Y-46477D03*
X74704Y-52814D03*
X74704Y-52304D03*
G54D21*
X69193Y-48129D03*
X69703Y-48129D03*
G54D22*
X65078Y-48129D03*
X65078Y-47619D03*
X64901Y-49705D03*
X64901Y-50215D03*
X66673Y-51772D03*
X66673Y-52282D03*
X67263Y-51772D03*
X67263Y-52282D03*
X64901Y-51140D03*
X64901Y-50630D03*
G54D21*
X69193Y-48622D03*
X69703Y-48622D03*
G54D22*
X66397Y-47006D03*
X66397Y-46496D03*
X67775Y-47006D03*
X67775Y-46496D03*
G54D21*
X64408Y-48720D03*
X63898Y-48720D03*
G54D22*
X67736Y-52794D03*
X67736Y-52284D03*
X51633Y-54034D03*
X51633Y-53524D03*
X47578Y-54036D03*
X47578Y-54546D03*
X47086Y-55611D03*
X47086Y-56121D03*
X49192Y-57294D03*
X49192Y-57804D03*
X48897Y-52873D03*
X48897Y-52363D03*
X47578Y-56024D03*
X47578Y-56534D03*
X52125Y-53012D03*
X52125Y-53522D03*
X50374Y-52873D03*
X50374Y-52363D03*
X47086Y-55058D03*
X47086Y-54548D03*
X47086Y-57046D03*
X47086Y-56536D03*
G54D21*
X51979Y-56013D03*
X52489Y-56013D03*
G54D22*
X44622Y-54034D03*
X44622Y-53524D03*
X40433Y-54036D03*
X40433Y-54546D03*
X39940Y-55611D03*
X39940Y-56121D03*
X45098Y-55355D03*
X45098Y-55865D03*
X45098Y-56790D03*
X45098Y-56280D03*
X43287Y-47006D03*
X43287Y-46496D03*
G54D21*
X44065Y-53080D03*
X44575Y-53080D03*
G54D22*
X41771Y-52695D03*
X41771Y-52185D03*
X39940Y-55058D03*
X39940Y-54548D03*
X39940Y-57046D03*
X39940Y-56536D03*
X42283Y-57215D03*
X42283Y-57725D03*
G54D21*
X51969Y-48129D03*
X52479Y-48129D03*
X47420Y-48129D03*
X46910Y-48129D03*
G54D22*
X47106Y-49705D03*
X47106Y-50215D03*
X49389Y-51851D03*
X49389Y-52361D03*
X49881Y-51851D03*
X49881Y-52361D03*
X47598Y-50119D03*
X47598Y-50629D03*
G54D21*
X51969Y-48622D03*
X52479Y-48622D03*
G54D22*
X49350Y-47006D03*
X49350Y-46496D03*
X48405Y-51861D03*
X48405Y-52371D03*
G54D21*
X47420Y-48622D03*
X46910Y-48622D03*
X51861Y-50403D03*
X52371Y-50403D03*
X44784Y-48129D03*
X45294Y-48129D03*
X40373Y-48129D03*
X39863Y-48129D03*
G54D22*
X39970Y-49479D03*
X39970Y-49989D03*
X42263Y-51674D03*
X42263Y-52184D03*
X42834Y-51674D03*
X42834Y-52184D03*
G54D21*
X44784Y-50295D03*
X45294Y-50295D03*
X44784Y-48622D03*
X45294Y-48622D03*
G54D22*
X43326Y-52695D03*
X43326Y-52185D03*
G54D21*
X40373Y-48622D03*
X39863Y-48622D03*
G54D22*
X40797Y-50788D03*
X40797Y-51298D03*
X41948Y-47006D03*
X41948Y-46496D03*
G54D23*
X73064Y-43704D03*
X73064Y-44464D03*
X73864Y-44084D03*
G54D14*
X70354Y-40530D03*
X70354Y-39862D03*
X69685Y-39862D03*
X69685Y-40530D03*
G54D21*
X76170Y-39478D03*
X75660Y-39478D03*
G54D24*
X68905Y-40334D03*
X68181Y-40078D03*
X68905Y-39822D03*
X68905Y-40078D03*
X68181Y-39822D03*
X68181Y-40334D03*
G54D15*
X74645Y-38346D03*
X73977Y-38346D03*
X75315Y-38346D03*
X75983Y-38346D03*
G54D25*
X71502Y-42790D03*
X71758Y-42790D03*
X72014Y-42790D03*
X72270Y-42790D03*
X72526Y-42790D03*
X72780Y-42790D03*
X73036Y-42790D03*
X73292Y-42790D03*
X73548Y-42790D03*
X73804Y-42790D03*
X73804Y-39936D03*
X73548Y-39936D03*
X73292Y-39936D03*
X73036Y-39936D03*
X72780Y-39936D03*
X72526Y-39936D03*
X72270Y-39936D03*
X72014Y-39936D03*
X71758Y-39936D03*
X71502Y-39936D03*
G54D26*
X75629Y-45610D03*
X75629Y-46614D03*
X75629Y-44606D03*
G54D27*
X39921Y-45403D03*
X39921Y-40777D03*
G54D28*
X41850Y-42598D03*
X41850Y-43582D03*
G54D29*
X58188Y-60177D03*
G54D30*
X58090Y-59586D03*
G54D29*
X58188Y-58995D03*
G54D31*
X57145Y-59586D03*
G54D14*
X58878Y-59586D03*
X59546Y-59586D03*
X58878Y-58996D03*
X59546Y-58996D03*
G54D22*
X68129Y-41201D03*
X68129Y-41711D03*
G54D14*
X70294Y-42952D03*
X69626Y-42952D03*
X76368Y-35275D03*
X77036Y-35275D03*
G54D22*
X45629Y-27066D03*
X45629Y-26556D03*
X69881Y-27066D03*
X69881Y-26556D03*
X71338Y-55611D03*
X71338Y-56121D03*
X46594Y-55611D03*
X46594Y-56121D03*
X52696Y-27066D03*
X52696Y-26556D03*
X76673Y-27066D03*
X76673Y-26556D03*
X64271Y-55611D03*
X64271Y-56121D03*
X39448Y-55611D03*
X39448Y-56121D03*
X45551Y-32951D03*
X45551Y-32441D03*
X69921Y-32971D03*
X69921Y-32461D03*
X71318Y-49705D03*
X71318Y-50215D03*
X46614Y-49705D03*
X46614Y-50215D03*
X52027Y-32459D03*
X52027Y-31949D03*
G54D21*
X76634Y-32952D03*
X77144Y-32952D03*
G54D22*
X64409Y-49705D03*
X64409Y-50215D03*
X39478Y-49479D03*
X39478Y-49989D03*
G54D14*
X73051Y-37146D03*
X73051Y-37814D03*
X77283Y-34743D03*
X77283Y-34075D03*
X69055Y-42952D03*
X69055Y-42284D03*
G54D32*
X69134Y-35157D03*
X69488Y-35157D03*
G54D14*
X57558Y-23157D03*
X56890Y-23157D03*
X57558Y-23716D03*
X56890Y-23716D03*
G54D29*
X58263Y-22542D03*
G54D30*
X58361Y-23133D03*
G54D29*
X58263Y-23724D03*
G54D31*
X59306Y-23133D03*
G54D22*
X42913Y-23682D03*
X42913Y-24192D03*
G54D21*
X49489Y-24153D03*
X49999Y-24153D03*
X42284Y-30846D03*
X42794Y-30846D03*
X49723Y-30885D03*
X49213Y-30885D03*
G54D22*
X67096Y-23621D03*
X67096Y-23111D03*
G54D21*
X73760Y-24468D03*
X74270Y-24468D03*
X67066Y-29901D03*
X66556Y-29901D03*
X73682Y-29960D03*
X74192Y-29960D03*
X74113Y-58484D03*
X73603Y-58484D03*
X67499Y-58996D03*
X66989Y-58996D03*
X73701Y-52775D03*
X74211Y-52775D03*
G54D22*
X68228Y-51772D03*
X68228Y-52282D03*
X49173Y-58955D03*
X49173Y-58445D03*
X43966Y-58987D03*
X43966Y-59497D03*
G54D21*
X49390Y-52834D03*
X49900Y-52834D03*
G54D22*
X43818Y-51674D03*
X43818Y-52184D03*
X70669Y-45077D03*
X70669Y-44567D03*
G54D33*
X69710Y-44455D03*
X70210Y-44455D03*
X69710Y-43655D03*
X69960Y-44455D03*
X70210Y-43655D03*
G54D34*
X68051Y-23159D03*
X68051Y-22155D03*
X70137Y-22155D03*
X70137Y-23159D03*
G54D35*
X76643Y-29665D03*
X77647Y-29665D03*
X77647Y-31751D03*
X76643Y-31751D03*
X76643Y-50925D03*
X77647Y-50925D03*
X77647Y-53011D03*
X76643Y-53011D03*
G54D34*
X70137Y-59517D03*
X70137Y-60521D03*
X68051Y-60521D03*
X68051Y-59517D03*
G54D36*
X43896Y-26477D03*
X43896Y-26674D03*
X43896Y-26871D03*
X43896Y-27067D03*
X43896Y-27264D03*
X43896Y-27461D03*
X43896Y-27657D03*
X43896Y-27854D03*
X43896Y-28051D03*
X43896Y-28247D03*
X43896Y-28444D03*
X43896Y-28641D03*
G54D37*
X43601Y-28936D03*
X43404Y-28936D03*
X43207Y-28936D03*
X43011Y-28936D03*
X42814Y-28936D03*
X42617Y-28936D03*
X42421Y-28936D03*
X42224Y-28936D03*
X42027Y-28936D03*
X41831Y-28936D03*
X41634Y-28936D03*
X41437Y-28936D03*
G54D36*
X41142Y-28641D03*
X41142Y-28444D03*
X41142Y-28247D03*
X41142Y-28051D03*
X41142Y-27854D03*
X41142Y-27657D03*
X41142Y-27461D03*
X41142Y-27264D03*
X41142Y-27067D03*
X41142Y-26871D03*
X41142Y-26674D03*
X41142Y-26477D03*
G54D37*
X41437Y-26182D03*
X41634Y-26182D03*
X41831Y-26182D03*
X42027Y-26182D03*
X42224Y-26182D03*
X42421Y-26182D03*
X42617Y-26182D03*
X42814Y-26182D03*
X43011Y-26182D03*
X43207Y-26182D03*
X43404Y-26182D03*
X43601Y-26182D03*
G54D38*
X41811Y-26850D03*
X42519Y-26850D03*
X43228Y-26850D03*
X41811Y-27559D03*
X42519Y-27559D03*
X43228Y-27559D03*
X41811Y-28267D03*
X42519Y-28267D03*
X43228Y-28267D03*
G54D36*
X43896Y-32382D03*
X43896Y-32579D03*
X43896Y-32776D03*
X43896Y-32972D03*
X43896Y-33169D03*
X43896Y-33366D03*
X43896Y-33562D03*
X43896Y-33759D03*
X43896Y-33956D03*
X43896Y-34152D03*
X43896Y-34349D03*
X43896Y-34546D03*
G54D37*
X43601Y-34841D03*
X43404Y-34841D03*
X43207Y-34841D03*
X43011Y-34841D03*
X42814Y-34841D03*
X42617Y-34841D03*
X42421Y-34841D03*
X42224Y-34841D03*
X42027Y-34841D03*
X41831Y-34841D03*
X41634Y-34841D03*
X41437Y-34841D03*
G54D36*
X41142Y-34546D03*
X41142Y-34349D03*
X41142Y-34152D03*
X41142Y-33956D03*
X41142Y-33759D03*
X41142Y-33562D03*
X41142Y-33366D03*
X41142Y-33169D03*
X41142Y-32972D03*
X41142Y-32776D03*
X41142Y-32579D03*
X41142Y-32382D03*
G54D37*
X41437Y-32087D03*
X41634Y-32087D03*
X41831Y-32087D03*
X42027Y-32087D03*
X42224Y-32087D03*
X42421Y-32087D03*
X42617Y-32087D03*
X42814Y-32087D03*
X43011Y-32087D03*
X43207Y-32087D03*
X43404Y-32087D03*
X43601Y-32087D03*
G54D38*
X41811Y-32755D03*
X42519Y-32755D03*
X43228Y-32755D03*
X41811Y-33464D03*
X42519Y-33464D03*
X43228Y-33464D03*
X41811Y-34173D03*
X42519Y-34173D03*
X43228Y-34173D03*
G54D36*
X50983Y-32382D03*
X50983Y-32579D03*
X50983Y-32776D03*
X50983Y-32972D03*
X50983Y-33169D03*
X50983Y-33366D03*
X50983Y-33562D03*
X50983Y-33759D03*
X50983Y-33956D03*
X50983Y-34152D03*
X50983Y-34349D03*
X50983Y-34546D03*
G54D37*
X50688Y-34841D03*
X50491Y-34841D03*
X50294Y-34841D03*
X50098Y-34841D03*
X49901Y-34841D03*
X49704Y-34841D03*
X49508Y-34841D03*
X49311Y-34841D03*
X49114Y-34841D03*
X48918Y-34841D03*
X48721Y-34841D03*
X48524Y-34841D03*
G54D36*
X48229Y-34546D03*
X48229Y-34349D03*
X48229Y-34152D03*
X48229Y-33956D03*
X48229Y-33759D03*
X48229Y-33562D03*
X48229Y-33366D03*
X48229Y-33169D03*
X48229Y-32972D03*
X48229Y-32776D03*
X48229Y-32579D03*
X48229Y-32382D03*
G54D37*
X48524Y-32087D03*
X48721Y-32087D03*
X48918Y-32087D03*
X49114Y-32087D03*
X49311Y-32087D03*
X49508Y-32087D03*
X49704Y-32087D03*
X49901Y-32087D03*
X50098Y-32087D03*
X50294Y-32087D03*
X50491Y-32087D03*
X50688Y-32087D03*
G54D38*
X48897Y-32755D03*
X49606Y-32755D03*
X50314Y-32755D03*
X48897Y-33464D03*
X49606Y-33464D03*
X50314Y-33464D03*
X48897Y-34173D03*
X49606Y-34173D03*
X50314Y-34173D03*
G54D36*
X50983Y-26477D03*
X50983Y-26674D03*
X50983Y-26871D03*
X50983Y-27067D03*
X50983Y-27264D03*
X50983Y-27461D03*
X50983Y-27657D03*
X50983Y-27854D03*
X50983Y-28051D03*
X50983Y-28247D03*
X50983Y-28444D03*
X50983Y-28641D03*
G54D37*
X50688Y-28936D03*
X50491Y-28936D03*
X50294Y-28936D03*
X50098Y-28936D03*
X49901Y-28936D03*
X49704Y-28936D03*
X49508Y-28936D03*
X49311Y-28936D03*
X49114Y-28936D03*
X48918Y-28936D03*
X48721Y-28936D03*
X48524Y-28936D03*
G54D36*
X48229Y-28641D03*
X48229Y-28444D03*
X48229Y-28247D03*
X48229Y-28051D03*
X48229Y-27854D03*
X48229Y-27657D03*
X48229Y-27461D03*
X48229Y-27264D03*
X48229Y-27067D03*
X48229Y-26871D03*
X48229Y-26674D03*
X48229Y-26477D03*
G54D37*
X48524Y-26182D03*
X48721Y-26182D03*
X48918Y-26182D03*
X49114Y-26182D03*
X49311Y-26182D03*
X49508Y-26182D03*
X49704Y-26182D03*
X49901Y-26182D03*
X50098Y-26182D03*
X50294Y-26182D03*
X50491Y-26182D03*
X50688Y-26182D03*
G54D38*
X48897Y-26850D03*
X49606Y-26850D03*
X50314Y-26850D03*
X48897Y-27559D03*
X49606Y-27559D03*
X50314Y-27559D03*
X48897Y-28267D03*
X49606Y-28267D03*
X50314Y-28267D03*
G54D36*
X41142Y-50294D03*
X41142Y-50097D03*
X41142Y-49900D03*
X41142Y-49704D03*
X41142Y-49507D03*
X41142Y-49310D03*
X41142Y-49114D03*
X41142Y-48917D03*
X41142Y-48720D03*
X41142Y-48524D03*
X41142Y-48327D03*
X41142Y-48130D03*
G54D37*
X41437Y-47835D03*
X41634Y-47835D03*
X41831Y-47835D03*
X42027Y-47835D03*
X42224Y-47835D03*
X42421Y-47835D03*
X42617Y-47835D03*
X42814Y-47835D03*
X43011Y-47835D03*
X43207Y-47835D03*
X43404Y-47835D03*
X43601Y-47835D03*
G54D36*
X43896Y-48130D03*
X43896Y-48327D03*
X43896Y-48524D03*
X43896Y-48720D03*
X43896Y-48917D03*
X43896Y-49114D03*
X43896Y-49310D03*
X43896Y-49507D03*
X43896Y-49704D03*
X43896Y-49900D03*
X43896Y-50097D03*
X43896Y-50294D03*
G54D37*
X43601Y-50589D03*
X43404Y-50589D03*
X43207Y-50589D03*
X43011Y-50589D03*
X42814Y-50589D03*
X42617Y-50589D03*
X42421Y-50589D03*
X42224Y-50589D03*
X42027Y-50589D03*
X41831Y-50589D03*
X41634Y-50589D03*
X41437Y-50589D03*
G54D38*
X43228Y-49921D03*
X42519Y-49921D03*
X41811Y-49921D03*
X43228Y-49212D03*
X42519Y-49212D03*
X41811Y-49212D03*
X43228Y-48503D03*
X42519Y-48503D03*
X41811Y-48503D03*
G54D36*
X41142Y-56200D03*
X41142Y-56003D03*
X41142Y-55806D03*
X41142Y-55610D03*
X41142Y-55413D03*
X41142Y-55216D03*
X41142Y-55020D03*
X41142Y-54823D03*
X41142Y-54626D03*
X41142Y-54430D03*
X41142Y-54233D03*
X41142Y-54036D03*
G54D37*
X41437Y-53741D03*
X41634Y-53741D03*
X41831Y-53741D03*
X42027Y-53741D03*
X42224Y-53741D03*
X42421Y-53741D03*
X42617Y-53741D03*
X42814Y-53741D03*
X43011Y-53741D03*
X43207Y-53741D03*
X43404Y-53741D03*
X43601Y-53741D03*
G54D36*
X43896Y-54036D03*
X43896Y-54233D03*
X43896Y-54430D03*
X43896Y-54626D03*
X43896Y-54823D03*
X43896Y-55020D03*
X43896Y-55216D03*
X43896Y-55413D03*
X43896Y-55610D03*
X43896Y-55806D03*
X43896Y-56003D03*
X43896Y-56200D03*
G54D37*
X43601Y-56495D03*
X43404Y-56495D03*
X43207Y-56495D03*
X43011Y-56495D03*
X42814Y-56495D03*
X42617Y-56495D03*
X42421Y-56495D03*
X42224Y-56495D03*
X42027Y-56495D03*
X41831Y-56495D03*
X41634Y-56495D03*
X41437Y-56495D03*
G54D38*
X43228Y-55826D03*
X42519Y-55826D03*
X41811Y-55826D03*
X43228Y-55118D03*
X42519Y-55118D03*
X41811Y-55118D03*
X43228Y-54409D03*
X42519Y-54409D03*
X41811Y-54409D03*
G54D36*
X48229Y-56200D03*
X48229Y-56003D03*
X48229Y-55806D03*
X48229Y-55610D03*
X48229Y-55413D03*
X48229Y-55216D03*
X48229Y-55020D03*
X48229Y-54823D03*
X48229Y-54626D03*
X48229Y-54430D03*
X48229Y-54233D03*
X48229Y-54036D03*
G54D37*
X48524Y-53741D03*
X48721Y-53741D03*
X48918Y-53741D03*
X49114Y-53741D03*
X49311Y-53741D03*
X49508Y-53741D03*
X49704Y-53741D03*
X49901Y-53741D03*
X50098Y-53741D03*
X50294Y-53741D03*
X50491Y-53741D03*
X50688Y-53741D03*
G54D36*
X50983Y-54036D03*
X50983Y-54233D03*
X50983Y-54430D03*
X50983Y-54626D03*
X50983Y-54823D03*
X50983Y-55020D03*
X50983Y-55216D03*
X50983Y-55413D03*
X50983Y-55610D03*
X50983Y-55806D03*
X50983Y-56003D03*
X50983Y-56200D03*
G54D37*
X50688Y-56495D03*
X50491Y-56495D03*
X50294Y-56495D03*
X50098Y-56495D03*
X49901Y-56495D03*
X49704Y-56495D03*
X49508Y-56495D03*
X49311Y-56495D03*
X49114Y-56495D03*
X48918Y-56495D03*
X48721Y-56495D03*
X48524Y-56495D03*
G54D38*
X50314Y-55826D03*
X49606Y-55826D03*
X48897Y-55826D03*
X50314Y-55118D03*
X49606Y-55118D03*
X48897Y-55118D03*
X50314Y-54409D03*
X49606Y-54409D03*
X48897Y-54409D03*
G54D36*
X48229Y-50294D03*
X48229Y-50097D03*
X48229Y-49900D03*
X48229Y-49704D03*
X48229Y-49507D03*
X48229Y-49310D03*
X48229Y-49114D03*
X48229Y-48917D03*
X48229Y-48720D03*
X48229Y-48524D03*
X48229Y-48327D03*
X48229Y-48130D03*
G54D37*
X48524Y-47835D03*
X48721Y-47835D03*
X48918Y-47835D03*
X49114Y-47835D03*
X49311Y-47835D03*
X49508Y-47835D03*
X49704Y-47835D03*
X49901Y-47835D03*
X50098Y-47835D03*
X50294Y-47835D03*
X50491Y-47835D03*
X50688Y-47835D03*
G54D36*
X50983Y-48130D03*
X50983Y-48327D03*
X50983Y-48524D03*
X50983Y-48720D03*
X50983Y-48917D03*
X50983Y-49114D03*
X50983Y-49310D03*
X50983Y-49507D03*
X50983Y-49704D03*
X50983Y-49900D03*
X50983Y-50097D03*
X50983Y-50294D03*
G54D37*
X50688Y-50589D03*
X50491Y-50589D03*
X50294Y-50589D03*
X50098Y-50589D03*
X49901Y-50589D03*
X49704Y-50589D03*
X49508Y-50589D03*
X49311Y-50589D03*
X49114Y-50589D03*
X48918Y-50589D03*
X48721Y-50589D03*
X48524Y-50589D03*
G54D38*
X50314Y-49921D03*
X49606Y-49921D03*
X48897Y-49921D03*
X50314Y-49212D03*
X49606Y-49212D03*
X48897Y-49212D03*
X50314Y-48503D03*
X49606Y-48503D03*
X48897Y-48503D03*
G54D36*
X65552Y-50294D03*
X65552Y-50097D03*
X65552Y-49900D03*
X65552Y-49704D03*
X65552Y-49507D03*
X65552Y-49310D03*
X65552Y-49114D03*
X65552Y-48917D03*
X65552Y-48720D03*
X65552Y-48524D03*
X65552Y-48327D03*
X65552Y-48130D03*
G54D37*
X65847Y-47835D03*
X66044Y-47835D03*
X66241Y-47835D03*
X66437Y-47835D03*
X66634Y-47835D03*
X66831Y-47835D03*
X67027Y-47835D03*
X67224Y-47835D03*
X67421Y-47835D03*
X67617Y-47835D03*
X67814Y-47835D03*
X68011Y-47835D03*
G54D36*
X68306Y-48130D03*
X68306Y-48327D03*
X68306Y-48524D03*
X68306Y-48720D03*
X68306Y-48917D03*
X68306Y-49114D03*
X68306Y-49310D03*
X68306Y-49507D03*
X68306Y-49704D03*
X68306Y-49900D03*
X68306Y-50097D03*
X68306Y-50294D03*
G54D37*
X68011Y-50589D03*
X67814Y-50589D03*
X67617Y-50589D03*
X67421Y-50589D03*
X67224Y-50589D03*
X67027Y-50589D03*
X66831Y-50589D03*
X66634Y-50589D03*
X66437Y-50589D03*
X66241Y-50589D03*
X66044Y-50589D03*
X65847Y-50589D03*
G54D38*
X67637Y-49921D03*
X66929Y-49921D03*
X66220Y-49921D03*
X67637Y-49212D03*
X66929Y-49212D03*
X66220Y-49212D03*
X67637Y-48503D03*
X66929Y-48503D03*
X66220Y-48503D03*
G54D36*
X65552Y-56200D03*
X65552Y-56003D03*
X65552Y-55806D03*
X65552Y-55610D03*
X65552Y-55413D03*
X65552Y-55216D03*
X65552Y-55020D03*
X65552Y-54823D03*
X65552Y-54626D03*
X65552Y-54430D03*
X65552Y-54233D03*
X65552Y-54036D03*
G54D37*
X65847Y-53741D03*
X66044Y-53741D03*
X66241Y-53741D03*
X66437Y-53741D03*
X66634Y-53741D03*
X66831Y-53741D03*
X67027Y-53741D03*
X67224Y-53741D03*
X67421Y-53741D03*
X67617Y-53741D03*
X67814Y-53741D03*
X68011Y-53741D03*
G54D36*
X68306Y-54036D03*
X68306Y-54233D03*
X68306Y-54430D03*
X68306Y-54626D03*
X68306Y-54823D03*
X68306Y-55020D03*
X68306Y-55216D03*
X68306Y-55413D03*
X68306Y-55610D03*
X68306Y-55806D03*
X68306Y-56003D03*
X68306Y-56200D03*
G54D37*
X68011Y-56495D03*
X67814Y-56495D03*
X67617Y-56495D03*
X67421Y-56495D03*
X67224Y-56495D03*
X67027Y-56495D03*
X66831Y-56495D03*
X66634Y-56495D03*
X66437Y-56495D03*
X66241Y-56495D03*
X66044Y-56495D03*
X65847Y-56495D03*
G54D38*
X67637Y-55826D03*
X66929Y-55826D03*
X66220Y-55826D03*
X67637Y-55118D03*
X66929Y-55118D03*
X66220Y-55118D03*
X67637Y-54409D03*
X66929Y-54409D03*
X66220Y-54409D03*
G54D36*
X72638Y-56200D03*
X72638Y-56003D03*
X72638Y-55806D03*
X72638Y-55610D03*
X72638Y-55413D03*
X72638Y-55216D03*
X72638Y-55020D03*
X72638Y-54823D03*
X72638Y-54626D03*
X72638Y-54430D03*
X72638Y-54233D03*
X72638Y-54036D03*
G54D37*
X72933Y-53741D03*
X73130Y-53741D03*
X73327Y-53741D03*
X73523Y-53741D03*
X73720Y-53741D03*
X73917Y-53741D03*
X74113Y-53741D03*
X74310Y-53741D03*
X74507Y-53741D03*
X74703Y-53741D03*
X74900Y-53741D03*
X75097Y-53741D03*
G54D36*
X75392Y-54036D03*
X75392Y-54233D03*
X75392Y-54430D03*
X75392Y-54626D03*
X75392Y-54823D03*
X75392Y-55020D03*
X75392Y-55216D03*
X75392Y-55413D03*
X75392Y-55610D03*
X75392Y-55806D03*
X75392Y-56003D03*
X75392Y-56200D03*
G54D37*
X75097Y-56495D03*
X74900Y-56495D03*
X74703Y-56495D03*
X74507Y-56495D03*
X74310Y-56495D03*
X74113Y-56495D03*
X73917Y-56495D03*
X73720Y-56495D03*
X73523Y-56495D03*
X73327Y-56495D03*
X73130Y-56495D03*
X72933Y-56495D03*
G54D38*
X74724Y-55826D03*
X74015Y-55826D03*
X73307Y-55826D03*
X74724Y-55118D03*
X74015Y-55118D03*
X73307Y-55118D03*
X74724Y-54409D03*
X74015Y-54409D03*
X73307Y-54409D03*
G54D36*
X72638Y-50294D03*
X72638Y-50097D03*
X72638Y-49900D03*
X72638Y-49704D03*
X72638Y-49507D03*
X72638Y-49310D03*
X72638Y-49114D03*
X72638Y-48917D03*
X72638Y-48720D03*
X72638Y-48524D03*
X72638Y-48327D03*
X72638Y-48130D03*
G54D37*
X72933Y-47835D03*
X73130Y-47835D03*
X73327Y-47835D03*
X73523Y-47835D03*
X73720Y-47835D03*
X73917Y-47835D03*
X74113Y-47835D03*
X74310Y-47835D03*
X74507Y-47835D03*
X74703Y-47835D03*
X74900Y-47835D03*
X75097Y-47835D03*
G54D36*
X75392Y-48130D03*
X75392Y-48327D03*
X75392Y-48524D03*
X75392Y-48720D03*
X75392Y-48917D03*
X75392Y-49114D03*
X75392Y-49310D03*
X75392Y-49507D03*
X75392Y-49704D03*
X75392Y-49900D03*
X75392Y-50097D03*
X75392Y-50294D03*
G54D37*
X75097Y-50589D03*
X74900Y-50589D03*
X74703Y-50589D03*
X74507Y-50589D03*
X74310Y-50589D03*
X74113Y-50589D03*
X73917Y-50589D03*
X73720Y-50589D03*
X73523Y-50589D03*
X73327Y-50589D03*
X73130Y-50589D03*
X72933Y-50589D03*
G54D38*
X74724Y-49921D03*
X74015Y-49921D03*
X73307Y-49921D03*
X74724Y-49212D03*
X74015Y-49212D03*
X73307Y-49212D03*
X74724Y-48503D03*
X74015Y-48503D03*
X73307Y-48503D03*
G54D36*
X75392Y-32382D03*
X75392Y-32579D03*
X75392Y-32776D03*
X75392Y-32972D03*
X75392Y-33169D03*
X75392Y-33366D03*
X75392Y-33562D03*
X75392Y-33759D03*
X75392Y-33956D03*
X75392Y-34152D03*
X75392Y-34349D03*
X75392Y-34546D03*
G54D37*
X75097Y-34841D03*
X74900Y-34841D03*
X74703Y-34841D03*
X74507Y-34841D03*
X74310Y-34841D03*
X74113Y-34841D03*
X73917Y-34841D03*
X73720Y-34841D03*
X73523Y-34841D03*
X73327Y-34841D03*
X73130Y-34841D03*
X72933Y-34841D03*
G54D36*
X72638Y-34546D03*
X72638Y-34349D03*
X72638Y-34152D03*
X72638Y-33956D03*
X72638Y-33759D03*
X72638Y-33562D03*
X72638Y-33366D03*
X72638Y-33169D03*
X72638Y-32972D03*
X72638Y-32776D03*
X72638Y-32579D03*
X72638Y-32382D03*
G54D37*
X72933Y-32087D03*
X73130Y-32087D03*
X73327Y-32087D03*
X73523Y-32087D03*
X73720Y-32087D03*
X73917Y-32087D03*
X74113Y-32087D03*
X74310Y-32087D03*
X74507Y-32087D03*
X74703Y-32087D03*
X74900Y-32087D03*
X75097Y-32087D03*
G54D38*
X73307Y-32755D03*
X74015Y-32755D03*
X74724Y-32755D03*
X73307Y-33464D03*
X74015Y-33464D03*
X74724Y-33464D03*
X73307Y-34173D03*
X74015Y-34173D03*
X74724Y-34173D03*
G54D36*
X75392Y-26477D03*
X75392Y-26674D03*
X75392Y-26871D03*
X75392Y-27067D03*
X75392Y-27264D03*
X75392Y-27461D03*
X75392Y-27657D03*
X75392Y-27854D03*
X75392Y-28051D03*
X75392Y-28247D03*
X75392Y-28444D03*
X75392Y-28641D03*
G54D37*
X75097Y-28936D03*
X74900Y-28936D03*
X74703Y-28936D03*
X74507Y-28936D03*
X74310Y-28936D03*
X74113Y-28936D03*
X73917Y-28936D03*
X73720Y-28936D03*
X73523Y-28936D03*
X73327Y-28936D03*
X73130Y-28936D03*
X72933Y-28936D03*
G54D36*
X72638Y-28641D03*
X72638Y-28444D03*
X72638Y-28247D03*
X72638Y-28051D03*
X72638Y-27854D03*
X72638Y-27657D03*
X72638Y-27461D03*
X72638Y-27264D03*
X72638Y-27067D03*
X72638Y-26871D03*
X72638Y-26674D03*
X72638Y-26477D03*
G54D37*
X72933Y-26182D03*
X73130Y-26182D03*
X73327Y-26182D03*
X73523Y-26182D03*
X73720Y-26182D03*
X73917Y-26182D03*
X74113Y-26182D03*
X74310Y-26182D03*
X74507Y-26182D03*
X74703Y-26182D03*
X74900Y-26182D03*
X75097Y-26182D03*
G54D38*
X73307Y-26850D03*
X74015Y-26850D03*
X74724Y-26850D03*
X73307Y-27559D03*
X74015Y-27559D03*
X74724Y-27559D03*
X73307Y-28267D03*
X74015Y-28267D03*
X74724Y-28267D03*
G54D36*
X68306Y-26477D03*
X68306Y-26674D03*
X68306Y-26871D03*
X68306Y-27067D03*
X68306Y-27264D03*
X68306Y-27461D03*
X68306Y-27657D03*
X68306Y-27854D03*
X68306Y-28051D03*
X68306Y-28247D03*
X68306Y-28444D03*
X68306Y-28641D03*
G54D37*
X68011Y-28936D03*
X67814Y-28936D03*
X67617Y-28936D03*
X67421Y-28936D03*
X67224Y-28936D03*
X67027Y-28936D03*
X66831Y-28936D03*
X66634Y-28936D03*
X66437Y-28936D03*
X66241Y-28936D03*
X66044Y-28936D03*
X65847Y-28936D03*
G54D36*
X65552Y-28641D03*
X65552Y-28444D03*
X65552Y-28247D03*
X65552Y-28051D03*
X65552Y-27854D03*
X65552Y-27657D03*
X65552Y-27461D03*
X65552Y-27264D03*
X65552Y-27067D03*
X65552Y-26871D03*
X65552Y-26674D03*
X65552Y-26477D03*
G54D37*
X65847Y-26182D03*
X66044Y-26182D03*
X66241Y-26182D03*
X66437Y-26182D03*
X66634Y-26182D03*
X66831Y-26182D03*
X67027Y-26182D03*
X67224Y-26182D03*
X67421Y-26182D03*
X67617Y-26182D03*
X67814Y-26182D03*
X68011Y-26182D03*
G54D38*
X66220Y-26850D03*
X66929Y-26850D03*
X67637Y-26850D03*
X66220Y-27559D03*
X66929Y-27559D03*
X67637Y-27559D03*
X66220Y-28267D03*
X66929Y-28267D03*
X67637Y-28267D03*
G54D36*
X68306Y-32382D03*
X68306Y-32579D03*
X68306Y-32776D03*
X68306Y-32972D03*
X68306Y-33169D03*
X68306Y-33366D03*
X68306Y-33562D03*
X68306Y-33759D03*
X68306Y-33956D03*
X68306Y-34152D03*
X68306Y-34349D03*
X68306Y-34546D03*
G54D37*
X68011Y-34841D03*
X67814Y-34841D03*
X67617Y-34841D03*
X67421Y-34841D03*
X67224Y-34841D03*
X67027Y-34841D03*
X66831Y-34841D03*
X66634Y-34841D03*
X66437Y-34841D03*
X66241Y-34841D03*
X66044Y-34841D03*
X65847Y-34841D03*
G54D36*
X65552Y-34546D03*
X65552Y-34349D03*
X65552Y-34152D03*
X65552Y-33956D03*
X65552Y-33759D03*
X65552Y-33562D03*
X65552Y-33366D03*
X65552Y-33169D03*
X65552Y-32972D03*
X65552Y-32776D03*
X65552Y-32579D03*
X65552Y-32382D03*
G54D37*
X65847Y-32087D03*
X66044Y-32087D03*
X66241Y-32087D03*
X66437Y-32087D03*
X66634Y-32087D03*
X66831Y-32087D03*
X67027Y-32087D03*
X67224Y-32087D03*
X67421Y-32087D03*
X67617Y-32087D03*
X67814Y-32087D03*
X68011Y-32087D03*
G54D38*
X66220Y-32755D03*
X66929Y-32755D03*
X67637Y-32755D03*
X66220Y-33464D03*
X66929Y-33464D03*
X67637Y-33464D03*
X66220Y-34173D03*
X66929Y-34173D03*
X67637Y-34173D03*
G54D39*
X65214Y-41015D03*
X65017Y-41015D03*
X64821Y-41015D03*
X64624Y-41015D03*
G54D40*
X64349Y-41290D03*
X64349Y-41487D03*
X64349Y-41683D03*
X64349Y-41880D03*
G54D39*
X64624Y-42155D03*
X64821Y-42155D03*
X65017Y-42155D03*
X65214Y-42155D03*
G54D40*
X65489Y-41880D03*
X65489Y-41683D03*
X65489Y-41487D03*
X65489Y-41290D03*
G54D41*
X65096Y-41408D03*
X65096Y-41763D03*
X64742Y-41408D03*
X64742Y-41763D03*
G54D42*
X58917Y-35816D03*
X59173Y-35816D03*
X59429Y-35816D03*
X59685Y-35816D03*
X59940Y-35816D03*
X60196Y-35816D03*
X60452Y-35816D03*
G54D43*
X60649Y-35501D03*
X60649Y-35245D03*
X60649Y-34989D03*
X58721Y-35501D03*
X58721Y-35245D03*
X58721Y-34989D03*
G54D44*
X58700Y-33710D03*
X58700Y-34123D03*
X58700Y-34536D03*
X60669Y-33710D03*
X60669Y-34123D03*
X60659Y-34536D03*
G54D45*
X59773Y-33483D03*
X59438Y-33483D03*
X60108Y-33483D03*
G54D46*
X59960Y-35078D03*
X59370Y-35078D03*
X59370Y-35412D03*
X59960Y-35412D03*
G54D47*
X59773Y-34517D03*
X59773Y-33906D03*
G54D48*
X59025Y-34379D03*
X59025Y-33867D03*
G54D49*
X60472Y-34123D03*
G54D42*
X58089Y-46902D03*
X57833Y-46902D03*
X57577Y-46902D03*
X57322Y-46902D03*
X57066Y-46902D03*
X56810Y-46902D03*
X56554Y-46902D03*
G54D43*
X56358Y-47218D03*
X56358Y-47474D03*
X56358Y-47730D03*
X58286Y-47218D03*
X58286Y-47474D03*
X58286Y-47730D03*
G54D44*
X58306Y-49008D03*
X58306Y-48595D03*
X58306Y-48182D03*
X56337Y-49008D03*
X56337Y-48595D03*
X56347Y-48182D03*
G54D45*
X57233Y-49235D03*
X57568Y-49235D03*
X56898Y-49235D03*
G54D46*
X57046Y-47640D03*
X57636Y-47640D03*
X57636Y-47306D03*
X57046Y-47306D03*
G54D47*
X57233Y-48201D03*
X57233Y-48812D03*
G54D48*
X57981Y-48339D03*
X57981Y-48851D03*
G54D49*
X56534Y-48595D03*
G54D35*
X40285Y-53011D03*
X39281Y-53011D03*
X39281Y-50925D03*
X40285Y-50925D03*
G54D22*
X70669Y-43652D03*
X70669Y-44162D03*
G54D50*
X54381Y-43121D03*
X54381Y-40021D03*
X50161Y-43121D03*
X50161Y-40021D03*
G54D15*
X68405Y-43583D03*
X68405Y-44251D03*
X69173Y-43583D03*
X69173Y-44251D03*
M02*
