G04 (created by PCBNEW (2013-mar-13)-testing) date Sat 22 Jun 2013 02:00:18 AM ICT*
%MOIN*%
G04 Gerber Fmt 3.4, Leading zero omitted, Abs format*
%FSLAX34Y34*%
G01*
G70*
G90*
G04 APERTURE LIST*
%ADD10C,0.005*%
%ADD11C,0.00787402*%
%ADD12C,0.011811*%
G04 APERTURE END LIST*
G54D10*
X38779Y-61023D02*
X78149Y-61023D01*
X78149Y-61023D02*
X78149Y-21653D01*
X78149Y-21653D02*
X38779Y-21653D01*
X38779Y-21653D02*
X38779Y-61023D01*
G54D11*
X75630Y-40295D02*
X75984Y-40649D01*
X75984Y-40295D02*
X75630Y-40649D01*
X75630Y-42027D02*
X75984Y-42381D01*
X75984Y-42027D02*
X75630Y-42381D01*
G54D12*
X39848Y-62857D02*
X39848Y-61676D01*
X40129Y-61676D01*
X40298Y-61732D01*
X40410Y-61844D01*
X40466Y-61957D01*
X40523Y-62182D01*
X40523Y-62350D01*
X40466Y-62575D01*
X40410Y-62688D01*
X40298Y-62800D01*
X40129Y-62857D01*
X39848Y-62857D01*
X41029Y-62857D02*
X41029Y-62069D01*
X41029Y-62294D02*
X41085Y-62182D01*
X41141Y-62125D01*
X41254Y-62069D01*
X41366Y-62069D01*
X41760Y-62857D02*
X41760Y-62069D01*
X41760Y-61676D02*
X41704Y-61732D01*
X41760Y-61788D01*
X41816Y-61732D01*
X41760Y-61676D01*
X41760Y-61788D01*
X42491Y-62857D02*
X42379Y-62800D01*
X42322Y-62688D01*
X42322Y-61676D01*
X43110Y-62857D02*
X42997Y-62800D01*
X42941Y-62688D01*
X42941Y-61676D01*
X44460Y-62857D02*
X44460Y-61676D01*
X44853Y-62519D01*
X45247Y-61676D01*
X45247Y-62857D01*
X46316Y-62857D02*
X46316Y-62238D01*
X46259Y-62125D01*
X46147Y-62069D01*
X45922Y-62069D01*
X45809Y-62125D01*
X46316Y-62800D02*
X46203Y-62857D01*
X45922Y-62857D01*
X45809Y-62800D01*
X45753Y-62688D01*
X45753Y-62575D01*
X45809Y-62463D01*
X45922Y-62407D01*
X46203Y-62407D01*
X46316Y-62350D01*
X46878Y-62069D02*
X46878Y-63250D01*
X46878Y-62125D02*
X46991Y-62069D01*
X47215Y-62069D01*
X47328Y-62125D01*
X47384Y-62182D01*
X47440Y-62294D01*
X47440Y-62632D01*
X47384Y-62744D01*
X47328Y-62800D01*
X47215Y-62857D01*
X46991Y-62857D01*
X46878Y-62800D01*
X47947Y-62744D02*
X48003Y-62800D01*
X47947Y-62857D01*
X47890Y-62800D01*
X47947Y-62744D01*
X47947Y-62857D01*
X47947Y-62125D02*
X48003Y-62182D01*
X47947Y-62238D01*
X47890Y-62182D01*
X47947Y-62125D01*
X47947Y-62238D01*
X38425Y-64626D02*
X38779Y-64980D01*
X38779Y-64626D02*
X38425Y-64980D01*
X40073Y-64156D02*
X40185Y-64156D01*
X40298Y-64212D01*
X40354Y-64268D01*
X40410Y-64381D01*
X40466Y-64606D01*
X40466Y-64887D01*
X40410Y-65112D01*
X40354Y-65224D01*
X40298Y-65281D01*
X40185Y-65337D01*
X40073Y-65337D01*
X39960Y-65281D01*
X39904Y-65224D01*
X39848Y-65112D01*
X39791Y-64887D01*
X39791Y-64606D01*
X39848Y-64381D01*
X39904Y-64268D01*
X39960Y-64212D01*
X40073Y-64156D01*
X40973Y-65224D02*
X41029Y-65281D01*
X40973Y-65337D01*
X40916Y-65281D01*
X40973Y-65224D01*
X40973Y-65337D01*
X41591Y-65337D02*
X41816Y-65337D01*
X41929Y-65281D01*
X41985Y-65224D01*
X42097Y-65056D01*
X42154Y-64831D01*
X42154Y-64381D01*
X42097Y-64268D01*
X42041Y-64212D01*
X41929Y-64156D01*
X41704Y-64156D01*
X41591Y-64212D01*
X41535Y-64268D01*
X41479Y-64381D01*
X41479Y-64662D01*
X41535Y-64775D01*
X41591Y-64831D01*
X41704Y-64887D01*
X41929Y-64887D01*
X42041Y-64831D01*
X42097Y-64775D01*
X42154Y-64662D01*
X42885Y-64156D02*
X42997Y-64156D01*
X43110Y-64212D01*
X43166Y-64268D01*
X43222Y-64381D01*
X43278Y-64606D01*
X43278Y-64887D01*
X43222Y-65112D01*
X43166Y-65224D01*
X43110Y-65281D01*
X42997Y-65337D01*
X42885Y-65337D01*
X42772Y-65281D01*
X42716Y-65224D01*
X42660Y-65112D01*
X42604Y-64887D01*
X42604Y-64606D01*
X42660Y-64381D01*
X42716Y-64268D01*
X42772Y-64212D01*
X42885Y-64156D01*
X43785Y-65337D02*
X43785Y-64550D01*
X43785Y-64662D02*
X43841Y-64606D01*
X43953Y-64550D01*
X44122Y-64550D01*
X44235Y-64606D01*
X44291Y-64718D01*
X44291Y-65337D01*
X44291Y-64718D02*
X44347Y-64606D01*
X44460Y-64550D01*
X44628Y-64550D01*
X44741Y-64606D01*
X44797Y-64718D01*
X44797Y-65337D01*
X45359Y-65337D02*
X45359Y-64550D01*
X45359Y-64662D02*
X45416Y-64606D01*
X45528Y-64550D01*
X45697Y-64550D01*
X45809Y-64606D01*
X45866Y-64718D01*
X45866Y-65337D01*
X45866Y-64718D02*
X45922Y-64606D01*
X46034Y-64550D01*
X46203Y-64550D01*
X46316Y-64606D01*
X46372Y-64718D01*
X46372Y-65337D01*
X48678Y-64100D02*
X47665Y-65618D01*
X50196Y-64156D02*
X50309Y-64156D01*
X50421Y-64212D01*
X50478Y-64268D01*
X50534Y-64381D01*
X50590Y-64606D01*
X50590Y-64887D01*
X50534Y-65112D01*
X50478Y-65224D01*
X50421Y-65281D01*
X50309Y-65337D01*
X50196Y-65337D01*
X50084Y-65281D01*
X50028Y-65224D01*
X49971Y-65112D01*
X49915Y-64887D01*
X49915Y-64606D01*
X49971Y-64381D01*
X50028Y-64268D01*
X50084Y-64212D01*
X50196Y-64156D01*
X51096Y-65224D02*
X51152Y-65281D01*
X51096Y-65337D01*
X51040Y-65281D01*
X51096Y-65224D01*
X51096Y-65337D01*
X51884Y-64156D02*
X51996Y-64156D01*
X52109Y-64212D01*
X52165Y-64268D01*
X52221Y-64381D01*
X52277Y-64606D01*
X52277Y-64887D01*
X52221Y-65112D01*
X52165Y-65224D01*
X52109Y-65281D01*
X51996Y-65337D01*
X51884Y-65337D01*
X51771Y-65281D01*
X51715Y-65224D01*
X51659Y-65112D01*
X51602Y-64887D01*
X51602Y-64606D01*
X51659Y-64381D01*
X51715Y-64268D01*
X51771Y-64212D01*
X51884Y-64156D01*
X52671Y-64156D02*
X53402Y-64156D01*
X53008Y-64606D01*
X53177Y-64606D01*
X53290Y-64662D01*
X53346Y-64718D01*
X53402Y-64831D01*
X53402Y-65112D01*
X53346Y-65224D01*
X53290Y-65281D01*
X53177Y-65337D01*
X52840Y-65337D01*
X52727Y-65281D01*
X52671Y-65224D01*
X54471Y-64156D02*
X53908Y-64156D01*
X53852Y-64718D01*
X53908Y-64662D01*
X54021Y-64606D01*
X54302Y-64606D01*
X54415Y-64662D01*
X54471Y-64718D01*
X54527Y-64831D01*
X54527Y-65112D01*
X54471Y-65224D01*
X54415Y-65281D01*
X54302Y-65337D01*
X54021Y-65337D01*
X53908Y-65281D01*
X53852Y-65224D01*
X54977Y-64156D02*
X54977Y-64381D01*
X55427Y-64156D02*
X55427Y-64381D01*
X57170Y-65787D02*
X57114Y-65731D01*
X57002Y-65562D01*
X56946Y-65449D01*
X56889Y-65281D01*
X56833Y-65000D01*
X56833Y-64775D01*
X56889Y-64493D01*
X56946Y-64325D01*
X57002Y-64212D01*
X57114Y-64043D01*
X57170Y-63987D01*
X57564Y-64268D02*
X57620Y-64212D01*
X57733Y-64156D01*
X58014Y-64156D01*
X58127Y-64212D01*
X58183Y-64268D01*
X58239Y-64381D01*
X58239Y-64493D01*
X58183Y-64662D01*
X57508Y-65337D01*
X58239Y-65337D01*
X59645Y-65337D02*
X59645Y-64156D01*
X60151Y-65337D02*
X60151Y-64718D01*
X60095Y-64606D01*
X59983Y-64550D01*
X59814Y-64550D01*
X59701Y-64606D01*
X59645Y-64662D01*
X60883Y-65337D02*
X60770Y-65281D01*
X60714Y-65224D01*
X60658Y-65112D01*
X60658Y-64775D01*
X60714Y-64662D01*
X60770Y-64606D01*
X60883Y-64550D01*
X61051Y-64550D01*
X61164Y-64606D01*
X61220Y-64662D01*
X61276Y-64775D01*
X61276Y-65112D01*
X61220Y-65224D01*
X61164Y-65281D01*
X61051Y-65337D01*
X60883Y-65337D01*
X61951Y-65337D02*
X61839Y-65281D01*
X61782Y-65168D01*
X61782Y-64156D01*
X62851Y-65281D02*
X62739Y-65337D01*
X62514Y-65337D01*
X62401Y-65281D01*
X62345Y-65168D01*
X62345Y-64718D01*
X62401Y-64606D01*
X62514Y-64550D01*
X62739Y-64550D01*
X62851Y-64606D01*
X62907Y-64718D01*
X62907Y-64831D01*
X62345Y-64943D01*
X63357Y-65281D02*
X63470Y-65337D01*
X63695Y-65337D01*
X63807Y-65281D01*
X63863Y-65168D01*
X63863Y-65112D01*
X63807Y-65000D01*
X63695Y-64943D01*
X63526Y-64943D01*
X63413Y-64887D01*
X63357Y-64775D01*
X63357Y-64718D01*
X63413Y-64606D01*
X63526Y-64550D01*
X63695Y-64550D01*
X63807Y-64606D01*
X64257Y-65787D02*
X64313Y-65731D01*
X64426Y-65562D01*
X64482Y-65449D01*
X64538Y-65281D01*
X64595Y-65000D01*
X64595Y-64775D01*
X64538Y-64493D01*
X64482Y-64325D01*
X64426Y-64212D01*
X64313Y-64043D01*
X64257Y-63987D01*
M02*
