G04 (created by PCBNEW (2013-mar-13)-testing) date Tue 14 May 2013 07:01:20 PM ICT*
%MOIN*%
G04 Gerber Fmt 3.4, Leading zero omitted, Abs format*
%FSLAX34Y34*%
G01*
G70*
G90*
G04 APERTURE LIST*
%ADD10C,0.005*%
%ADD11C,0.00787402*%
%ADD12C,0.011811*%
G04 APERTURE END LIST*
G54D10*
X38779Y-61023D02*
X78149Y-61023D01*
X78149Y-61023D02*
X78149Y-21653D01*
X78149Y-21653D02*
X38779Y-21653D01*
X38779Y-21653D02*
X38779Y-61023D01*
G54D11*
X39389Y-56417D02*
X39507Y-56535D01*
X39507Y-56417D02*
X39389Y-56535D01*
X39399Y-32175D02*
X39517Y-32293D01*
X39517Y-32175D02*
X39399Y-32293D01*
X39409Y-50492D02*
X39527Y-50610D01*
X39527Y-50492D02*
X39409Y-50610D01*
X39745Y-28326D02*
X39863Y-28444D01*
X39863Y-28326D02*
X39745Y-28444D01*
X39764Y-34232D02*
X39882Y-34350D01*
X39882Y-34232D02*
X39764Y-34350D01*
X39822Y-48346D02*
X39940Y-48464D01*
X39940Y-48346D02*
X39822Y-48464D01*
X39881Y-56259D02*
X40000Y-56377D01*
X40000Y-56259D02*
X39881Y-56377D01*
X39901Y-50433D02*
X40019Y-50551D01*
X40019Y-50433D02*
X39901Y-50551D01*
X39980Y-26259D02*
X40098Y-26377D01*
X40098Y-26259D02*
X39980Y-26377D01*
X40000Y-53976D02*
X40118Y-54094D01*
X40118Y-53976D02*
X40000Y-54094D01*
X40137Y-54487D02*
X40255Y-54605D01*
X40255Y-54487D02*
X40137Y-54605D01*
X40236Y-28956D02*
X40354Y-29074D01*
X40354Y-28956D02*
X40236Y-29074D01*
X40255Y-34842D02*
X40374Y-34960D01*
X40374Y-34842D02*
X40255Y-34960D01*
X40275Y-27393D02*
X40393Y-27511D01*
X40393Y-27393D02*
X40275Y-27511D01*
X40283Y-33307D02*
X40401Y-33425D01*
X40401Y-33307D02*
X40283Y-33425D01*
X40314Y-47755D02*
X40433Y-47874D01*
X40433Y-47755D02*
X40314Y-47874D01*
X40531Y-25169D02*
X40649Y-25287D01*
X40649Y-25169D02*
X40531Y-25287D01*
X41299Y-51259D02*
X41417Y-51377D01*
X41417Y-51259D02*
X41299Y-51377D01*
X41299Y-52962D02*
X41417Y-53080D01*
X41417Y-52962D02*
X41299Y-53080D01*
X41348Y-57736D02*
X41466Y-57854D01*
X41466Y-57736D02*
X41348Y-57854D01*
X41633Y-51259D02*
X41751Y-51377D01*
X41751Y-51259D02*
X41633Y-51377D01*
X41633Y-52962D02*
X41751Y-53080D01*
X41751Y-52962D02*
X41633Y-53080D01*
X41712Y-36456D02*
X41830Y-36574D01*
X41830Y-36456D02*
X41712Y-36574D01*
X41732Y-57194D02*
X41850Y-57312D01*
X41850Y-57194D02*
X41732Y-57312D01*
X41889Y-46102D02*
X42007Y-46220D01*
X42007Y-46102D02*
X41889Y-46220D01*
X41968Y-25216D02*
X42086Y-25334D01*
X42086Y-25216D02*
X41968Y-25334D01*
X41988Y-31200D02*
X42106Y-31318D01*
X42106Y-31200D02*
X41988Y-31318D01*
X42135Y-58011D02*
X42253Y-58129D01*
X42253Y-58011D02*
X42135Y-58129D01*
X42362Y-23661D02*
X42480Y-23779D01*
X42480Y-23661D02*
X42362Y-23779D01*
X42460Y-30333D02*
X42578Y-30451D01*
X42578Y-30333D02*
X42460Y-30451D01*
X42480Y-52125D02*
X42598Y-52243D01*
X42598Y-52125D02*
X42480Y-52243D01*
X42559Y-58110D02*
X42677Y-58228D01*
X42677Y-58110D02*
X42559Y-58228D01*
X42736Y-29271D02*
X42854Y-29389D01*
X42854Y-29271D02*
X42736Y-29389D01*
X42736Y-31122D02*
X42854Y-31240D01*
X42854Y-31122D02*
X42736Y-31240D01*
X42847Y-24503D02*
X42965Y-24622D01*
X42965Y-24503D02*
X42847Y-24622D01*
X43031Y-57244D02*
X43149Y-57362D01*
X43149Y-57244D02*
X43031Y-57362D01*
X43149Y-36476D02*
X43267Y-36594D01*
X43267Y-36476D02*
X43149Y-36594D01*
X43228Y-46122D02*
X43346Y-46240D01*
X43346Y-46122D02*
X43228Y-46240D01*
X43338Y-29657D02*
X43456Y-29775D01*
X43456Y-29657D02*
X43338Y-29775D01*
X43346Y-31228D02*
X43464Y-31346D01*
X43464Y-31228D02*
X43346Y-31346D01*
X43614Y-29629D02*
X43732Y-29748D01*
X43732Y-29629D02*
X43614Y-29748D01*
X43618Y-31251D02*
X43736Y-31370D01*
X43736Y-31251D02*
X43618Y-31370D01*
X43700Y-51692D02*
X43818Y-51811D01*
X43818Y-51692D02*
X43700Y-51811D01*
X43858Y-24925D02*
X43976Y-25043D01*
X43976Y-24925D02*
X43858Y-25043D01*
X43921Y-24496D02*
X44039Y-24614D01*
X44039Y-24496D02*
X43921Y-24614D01*
X44035Y-51299D02*
X44153Y-51417D01*
X44153Y-51299D02*
X44035Y-51417D01*
X44070Y-57248D02*
X44188Y-57366D01*
X44188Y-57248D02*
X44070Y-57366D01*
X44086Y-35877D02*
X44204Y-35996D01*
X44204Y-35877D02*
X44086Y-35996D01*
X44334Y-35586D02*
X44452Y-35704D01*
X44452Y-35586D02*
X44334Y-35704D01*
X44362Y-58385D02*
X44480Y-58503D01*
X44480Y-58385D02*
X44362Y-58503D01*
X44598Y-49511D02*
X44716Y-49629D01*
X44716Y-49511D02*
X44598Y-49629D01*
X44606Y-55157D02*
X44724Y-55275D01*
X44724Y-55157D02*
X44606Y-55275D01*
X44622Y-53251D02*
X44740Y-53370D01*
X44740Y-53251D02*
X44622Y-53370D01*
X44645Y-28897D02*
X44763Y-29015D01*
X44763Y-28897D02*
X44645Y-29015D01*
X44645Y-34822D02*
X44763Y-34940D01*
X44763Y-34822D02*
X44645Y-34940D01*
X44724Y-47736D02*
X44842Y-47854D01*
X44842Y-47736D02*
X44724Y-47854D01*
X44901Y-53976D02*
X45019Y-54094D01*
X45019Y-53976D02*
X44901Y-54094D01*
X45000Y-32145D02*
X45118Y-32263D01*
X45118Y-32145D02*
X45000Y-32263D01*
X45019Y-56023D02*
X45137Y-56141D01*
X45137Y-56023D02*
X45019Y-56141D01*
X45078Y-26240D02*
X45196Y-26358D01*
X45196Y-26240D02*
X45078Y-26358D01*
X45137Y-34212D02*
X45255Y-34330D01*
X45255Y-34212D02*
X45137Y-34330D01*
X45157Y-28307D02*
X45275Y-28425D01*
X45275Y-28307D02*
X45157Y-28425D01*
X45235Y-48307D02*
X45353Y-48425D01*
X45353Y-48307D02*
X45235Y-48425D01*
X45492Y-32047D02*
X45610Y-32165D01*
X45610Y-32047D02*
X45492Y-32165D01*
X45551Y-50236D02*
X45669Y-50354D01*
X45669Y-50236D02*
X45551Y-50354D01*
X45570Y-26122D02*
X45688Y-26240D01*
X45688Y-26122D02*
X45570Y-26240D01*
X45797Y-57490D02*
X45915Y-57608D01*
X45915Y-57490D02*
X45797Y-57608D01*
X45944Y-46722D02*
X46062Y-46840D01*
X46062Y-46722D02*
X45944Y-46840D01*
X46043Y-23661D02*
X46161Y-23779D01*
X46161Y-23661D02*
X46043Y-23779D01*
X46043Y-29094D02*
X46161Y-29212D01*
X46161Y-29094D02*
X46043Y-29212D01*
X46062Y-57746D02*
X46181Y-57864D01*
X46181Y-57746D02*
X46062Y-57864D01*
X46200Y-47017D02*
X46318Y-47135D01*
X46318Y-47017D02*
X46200Y-47135D01*
X46464Y-24122D02*
X46582Y-24240D01*
X46582Y-24122D02*
X46464Y-24240D01*
X46472Y-27551D02*
X46590Y-27669D01*
X46590Y-27551D02*
X46472Y-27669D01*
X46535Y-56397D02*
X46653Y-56515D01*
X46653Y-56397D02*
X46535Y-56515D01*
X46555Y-50472D02*
X46673Y-50590D01*
X46673Y-50472D02*
X46555Y-50590D01*
X46850Y-48346D02*
X46968Y-48464D01*
X46968Y-48346D02*
X46850Y-48464D01*
X46889Y-34744D02*
X47007Y-34862D01*
X47007Y-34744D02*
X46889Y-34862D01*
X46910Y-28346D02*
X47028Y-28464D01*
X47028Y-28346D02*
X46910Y-28464D01*
X47047Y-26515D02*
X47165Y-26633D01*
X47165Y-26515D02*
X47047Y-26633D01*
X47066Y-32440D02*
X47185Y-32559D01*
X47185Y-32440D02*
X47066Y-32559D01*
X47125Y-53976D02*
X47244Y-54094D01*
X47244Y-53976D02*
X47125Y-54094D01*
X47263Y-54487D02*
X47381Y-54605D01*
X47381Y-54487D02*
X47263Y-54605D01*
X47283Y-50569D02*
X47401Y-50688D01*
X47401Y-50569D02*
X47283Y-50688D01*
X47283Y-56475D02*
X47401Y-56593D01*
X47401Y-56475D02*
X47283Y-56593D01*
X47362Y-47736D02*
X47480Y-47854D01*
X47480Y-47736D02*
X47362Y-47854D01*
X47362Y-53307D02*
X47480Y-53425D01*
X47480Y-53307D02*
X47362Y-53425D01*
X47370Y-33531D02*
X47488Y-33649D01*
X47488Y-33531D02*
X47370Y-33649D01*
X47401Y-34153D02*
X47519Y-34271D01*
X47519Y-34153D02*
X47401Y-34271D01*
X47421Y-28956D02*
X47539Y-29074D01*
X47539Y-28956D02*
X47421Y-29074D01*
X47448Y-27547D02*
X47566Y-27665D01*
X47566Y-27547D02*
X47448Y-27665D01*
X47854Y-25216D02*
X47972Y-25334D01*
X47972Y-25216D02*
X47854Y-25334D01*
X47854Y-31220D02*
X47972Y-31338D01*
X47972Y-31220D02*
X47854Y-31338D01*
X47913Y-58956D02*
X48031Y-59074D01*
X48031Y-58956D02*
X47913Y-59074D01*
X48139Y-51269D02*
X48257Y-51387D01*
X48257Y-51269D02*
X48139Y-51387D01*
X48139Y-52942D02*
X48257Y-53061D01*
X48257Y-52942D02*
X48139Y-53061D01*
X48356Y-47007D02*
X48474Y-47125D01*
X48474Y-47007D02*
X48356Y-47125D01*
X48405Y-51427D02*
X48523Y-51545D01*
X48523Y-51427D02*
X48405Y-51545D01*
X48405Y-52736D02*
X48523Y-52854D01*
X48523Y-52736D02*
X48405Y-52854D01*
X48464Y-57726D02*
X48582Y-57844D01*
X48582Y-57726D02*
X48464Y-57844D01*
X48543Y-46722D02*
X48661Y-46840D01*
X48661Y-46722D02*
X48543Y-46840D01*
X48730Y-57500D02*
X48848Y-57618D01*
X48848Y-57500D02*
X48730Y-57618D01*
X48740Y-36456D02*
X48858Y-36574D01*
X48858Y-36456D02*
X48740Y-36574D01*
X49055Y-25216D02*
X49173Y-25334D01*
X49173Y-25216D02*
X49055Y-25334D01*
X49074Y-29291D02*
X49192Y-29409D01*
X49192Y-29291D02*
X49074Y-29409D01*
X49124Y-58080D02*
X49242Y-58198D01*
X49242Y-58080D02*
X49124Y-58198D01*
X49153Y-31220D02*
X49271Y-31338D01*
X49271Y-31220D02*
X49153Y-31338D01*
X49291Y-46102D02*
X49409Y-46220D01*
X49409Y-46102D02*
X49291Y-46220D01*
X49291Y-52795D02*
X49409Y-52913D01*
X49409Y-52795D02*
X49291Y-52913D01*
X49389Y-30373D02*
X49507Y-30491D01*
X49507Y-30373D02*
X49389Y-30491D01*
X49448Y-23661D02*
X49566Y-23779D01*
X49566Y-23661D02*
X49448Y-23779D01*
X49448Y-31161D02*
X49566Y-31279D01*
X49566Y-31161D02*
X49448Y-31279D01*
X49566Y-52302D02*
X49685Y-52420D01*
X49685Y-52302D02*
X49566Y-52420D01*
X49645Y-51377D02*
X49763Y-51496D01*
X49763Y-51377D02*
X49645Y-51496D01*
X49645Y-58011D02*
X49763Y-58129D01*
X49763Y-58011D02*
X49645Y-58129D01*
X49645Y-58956D02*
X49763Y-59074D01*
X49763Y-58956D02*
X49645Y-59074D01*
X50039Y-51456D02*
X50157Y-51574D01*
X50157Y-51456D02*
X50039Y-51574D01*
X50039Y-57244D02*
X50157Y-57362D01*
X50157Y-57244D02*
X50039Y-57362D01*
X50077Y-24381D02*
X50195Y-24500D01*
X50195Y-24381D02*
X50077Y-24500D01*
X50082Y-36496D02*
X50200Y-36614D01*
X50200Y-36496D02*
X50082Y-36614D01*
X50381Y-31314D02*
X50500Y-31433D01*
X50500Y-31314D02*
X50381Y-31433D01*
X50385Y-29574D02*
X50503Y-29692D01*
X50503Y-29574D02*
X50385Y-29692D01*
X50433Y-35598D02*
X50551Y-35716D01*
X50551Y-35598D02*
X50433Y-35716D01*
X50657Y-35877D02*
X50775Y-35996D01*
X50775Y-35877D02*
X50657Y-35996D01*
X50692Y-29582D02*
X50811Y-29700D01*
X50811Y-29582D02*
X50692Y-29700D01*
X50692Y-31307D02*
X50811Y-31425D01*
X50811Y-31307D02*
X50692Y-31425D01*
X51039Y-24559D02*
X51157Y-24677D01*
X51157Y-24559D02*
X51039Y-24677D01*
X51122Y-24822D02*
X51240Y-24940D01*
X51240Y-24822D02*
X51122Y-24940D01*
X51444Y-58385D02*
X51562Y-58503D01*
X51562Y-58385D02*
X51444Y-58503D01*
X51476Y-32204D02*
X51594Y-32322D01*
X51594Y-32204D02*
X51476Y-32322D01*
X51673Y-28897D02*
X51791Y-29015D01*
X51791Y-28897D02*
X51673Y-29015D01*
X51685Y-49437D02*
X51803Y-49555D01*
X51803Y-49437D02*
X51685Y-49555D01*
X51704Y-55153D02*
X51822Y-55271D01*
X51822Y-55153D02*
X51704Y-55271D01*
X51791Y-33975D02*
X51909Y-34093D01*
X51909Y-33975D02*
X51791Y-34093D01*
X51830Y-53465D02*
X51948Y-53583D01*
X51948Y-53465D02*
X51830Y-53583D01*
X51909Y-34488D02*
X52027Y-34606D01*
X52027Y-34488D02*
X51909Y-34606D01*
X51948Y-47657D02*
X52066Y-47775D01*
X52066Y-47657D02*
X51948Y-47775D01*
X51948Y-53976D02*
X52066Y-54094D01*
X52066Y-53976D02*
X51948Y-54094D01*
X51968Y-31555D02*
X52086Y-31673D01*
X52086Y-31555D02*
X51968Y-31673D01*
X52145Y-26240D02*
X52263Y-26358D01*
X52263Y-26240D02*
X52145Y-26358D01*
X52165Y-28326D02*
X52283Y-28444D01*
X52283Y-28326D02*
X52165Y-28444D01*
X52421Y-48346D02*
X52539Y-48464D01*
X52539Y-48346D02*
X52421Y-48464D01*
X52509Y-50344D02*
X52627Y-50462D01*
X52627Y-50344D02*
X52509Y-50462D01*
X52637Y-26141D02*
X52755Y-26259D01*
X52755Y-26141D02*
X52637Y-26259D01*
X52647Y-55954D02*
X52765Y-56072D01*
X52765Y-55954D02*
X52647Y-56072D01*
X55059Y-48267D02*
X55177Y-48385D01*
X55177Y-48267D02*
X55059Y-48385D01*
X55059Y-48661D02*
X55177Y-48779D01*
X55177Y-48661D02*
X55059Y-48779D01*
X55059Y-49055D02*
X55177Y-49173D01*
X55177Y-49055D02*
X55059Y-49173D01*
X55059Y-49448D02*
X55177Y-49566D01*
X55177Y-49448D02*
X55059Y-49566D01*
X56003Y-47421D02*
X56122Y-47539D01*
X56122Y-47421D02*
X56003Y-47539D01*
X56003Y-60216D02*
X56122Y-60334D01*
X56122Y-60216D02*
X56003Y-60334D01*
X56023Y-59271D02*
X56141Y-59389D01*
X56141Y-59271D02*
X56023Y-59389D01*
X56023Y-59744D02*
X56141Y-59862D01*
X56141Y-59744D02*
X56023Y-59862D01*
X56082Y-22480D02*
X56200Y-22598D01*
X56200Y-22480D02*
X56082Y-22598D01*
X56476Y-60216D02*
X56594Y-60334D01*
X56594Y-60216D02*
X56476Y-60334D01*
X56555Y-22480D02*
X56673Y-22598D01*
X56673Y-22480D02*
X56555Y-22598D01*
X56909Y-47559D02*
X57027Y-47677D01*
X57027Y-47559D02*
X56909Y-47677D01*
X56929Y-47263D02*
X57047Y-47381D01*
X57047Y-47263D02*
X56929Y-47381D01*
X56948Y-60216D02*
X57066Y-60334D01*
X57066Y-60216D02*
X56948Y-60334D01*
X57027Y-22480D02*
X57145Y-22598D01*
X57145Y-22480D02*
X57027Y-22598D01*
X57282Y-47264D02*
X57401Y-47382D01*
X57401Y-47264D02*
X57282Y-47382D01*
X57283Y-47559D02*
X57401Y-47677D01*
X57401Y-47559D02*
X57283Y-47677D01*
X57377Y-36768D02*
X57496Y-36887D01*
X57496Y-36768D02*
X57377Y-36887D01*
X57381Y-60216D02*
X57500Y-60334D01*
X57500Y-60216D02*
X57381Y-60334D01*
X57500Y-22480D02*
X57618Y-22598D01*
X57618Y-22480D02*
X57500Y-22598D01*
X57629Y-45519D02*
X57748Y-45637D01*
X57748Y-45519D02*
X57629Y-45637D01*
X57657Y-47263D02*
X57775Y-47381D01*
X57775Y-47263D02*
X57657Y-47381D01*
X57657Y-47559D02*
X57775Y-47677D01*
X57775Y-47559D02*
X57657Y-47677D01*
X57814Y-23665D02*
X57933Y-23783D01*
X57933Y-23665D02*
X57814Y-23783D01*
X57893Y-48208D02*
X58011Y-48326D01*
X58011Y-48208D02*
X57893Y-48326D01*
X58523Y-58936D02*
X58641Y-59054D01*
X58641Y-58936D02*
X58523Y-59054D01*
X58877Y-60157D02*
X58996Y-60275D01*
X58996Y-60157D02*
X58877Y-60275D01*
X58956Y-34370D02*
X59074Y-34488D01*
X59074Y-34370D02*
X58956Y-34488D01*
X58976Y-22401D02*
X59094Y-22519D01*
X59094Y-22401D02*
X58976Y-22519D01*
X59232Y-35334D02*
X59350Y-35452D01*
X59350Y-35334D02*
X59232Y-35452D01*
X59251Y-35039D02*
X59370Y-35157D01*
X59370Y-35039D02*
X59251Y-35157D01*
X59350Y-60157D02*
X59468Y-60275D01*
X59468Y-60157D02*
X59350Y-60275D01*
X59424Y-36886D02*
X59543Y-37005D01*
X59543Y-36886D02*
X59424Y-37005D01*
X59429Y-22401D02*
X59547Y-22519D01*
X59547Y-22401D02*
X59429Y-22519D01*
X59581Y-45744D02*
X59700Y-45863D01*
X59700Y-45744D02*
X59581Y-45863D01*
X59606Y-35039D02*
X59724Y-35157D01*
X59724Y-35039D02*
X59606Y-35157D01*
X59606Y-35334D02*
X59724Y-35452D01*
X59724Y-35334D02*
X59606Y-35452D01*
X59822Y-60157D02*
X59940Y-60275D01*
X59940Y-60157D02*
X59822Y-60275D01*
X59862Y-22421D02*
X59980Y-22539D01*
X59980Y-22421D02*
X59862Y-22539D01*
X59980Y-35039D02*
X60098Y-35157D01*
X60098Y-35039D02*
X59980Y-35157D01*
X59980Y-35334D02*
X60098Y-35452D01*
X60098Y-35334D02*
X59980Y-35452D01*
X60295Y-60157D02*
X60413Y-60275D01*
X60413Y-60157D02*
X60295Y-60275D01*
X60314Y-22440D02*
X60433Y-22559D01*
X60433Y-22440D02*
X60314Y-22559D01*
X60314Y-22893D02*
X60433Y-23011D01*
X60433Y-22893D02*
X60314Y-23011D01*
X60314Y-23307D02*
X60433Y-23425D01*
X60433Y-23307D02*
X60314Y-23425D01*
X60964Y-35255D02*
X61082Y-35374D01*
X61082Y-35255D02*
X60964Y-35374D01*
X62165Y-33110D02*
X62283Y-33228D01*
X62283Y-33110D02*
X62165Y-33228D01*
X62165Y-33503D02*
X62283Y-33622D01*
X62283Y-33503D02*
X62165Y-33622D01*
X62165Y-33897D02*
X62283Y-34015D01*
X62283Y-33897D02*
X62165Y-34015D01*
X62165Y-34291D02*
X62283Y-34409D01*
X62283Y-34291D02*
X62165Y-34409D01*
X62460Y-42500D02*
X62578Y-42618D01*
X62578Y-42500D02*
X62460Y-42618D01*
X62519Y-45551D02*
X62637Y-45669D01*
X62637Y-45551D02*
X62519Y-45669D01*
X63366Y-41122D02*
X63484Y-41240D01*
X63484Y-41122D02*
X63366Y-41240D01*
X63366Y-41515D02*
X63484Y-41633D01*
X63484Y-41515D02*
X63366Y-41633D01*
X63366Y-41909D02*
X63484Y-42027D01*
X63484Y-41909D02*
X63366Y-42027D01*
X63523Y-57490D02*
X63641Y-57608D01*
X63641Y-57490D02*
X63523Y-57608D01*
X63759Y-57736D02*
X63877Y-57854D01*
X63877Y-57736D02*
X63759Y-57854D01*
X64094Y-31988D02*
X64212Y-32106D01*
X64212Y-31988D02*
X64094Y-32106D01*
X64114Y-28858D02*
X64232Y-28976D01*
X64232Y-28858D02*
X64114Y-28976D01*
X64173Y-34763D02*
X64291Y-34881D01*
X64291Y-34763D02*
X64173Y-34881D01*
X64212Y-56377D02*
X64330Y-56496D01*
X64330Y-56377D02*
X64212Y-56496D01*
X64233Y-54212D02*
X64351Y-54330D01*
X64351Y-54212D02*
X64233Y-54330D01*
X64330Y-45551D02*
X64448Y-45669D01*
X64448Y-45551D02*
X64330Y-45669D01*
X64350Y-50492D02*
X64468Y-50610D01*
X64468Y-50492D02*
X64350Y-50610D01*
X64409Y-25846D02*
X64527Y-25964D01*
X64527Y-25846D02*
X64409Y-25964D01*
X64606Y-30629D02*
X64724Y-30748D01*
X64724Y-30629D02*
X64606Y-30748D01*
X64625Y-28248D02*
X64744Y-28366D01*
X64744Y-28248D02*
X64625Y-28366D01*
X64665Y-34133D02*
X64783Y-34251D01*
X64783Y-34133D02*
X64665Y-34251D01*
X64704Y-47559D02*
X64822Y-47677D01*
X64822Y-47559D02*
X64704Y-47677D01*
X64704Y-48070D02*
X64822Y-48188D01*
X64822Y-48070D02*
X64704Y-48188D01*
X64704Y-56279D02*
X64822Y-56397D01*
X64822Y-56279D02*
X64704Y-56397D01*
X64732Y-33311D02*
X64850Y-33429D01*
X64850Y-33311D02*
X64732Y-33429D01*
X64740Y-27405D02*
X64858Y-27523D01*
X64858Y-27405D02*
X64740Y-27523D01*
X64744Y-53622D02*
X64862Y-53740D01*
X64862Y-53622D02*
X64744Y-53740D01*
X65019Y-42500D02*
X65137Y-42618D01*
X65137Y-42500D02*
X65019Y-42618D01*
X65068Y-35801D02*
X65187Y-35919D01*
X65187Y-35801D02*
X65068Y-35919D01*
X65090Y-24830D02*
X65208Y-24948D01*
X65208Y-24830D02*
X65090Y-24948D01*
X65255Y-38484D02*
X65374Y-38602D01*
X65374Y-38484D02*
X65255Y-38602D01*
X65314Y-35574D02*
X65433Y-35692D01*
X65433Y-35574D02*
X65314Y-35692D01*
X65322Y-24551D02*
X65440Y-24669D01*
X65440Y-24551D02*
X65322Y-24669D01*
X65519Y-52956D02*
X65637Y-53074D01*
X65637Y-52956D02*
X65519Y-53074D01*
X65521Y-51279D02*
X65639Y-51397D01*
X65639Y-51279D02*
X65521Y-51397D01*
X65610Y-47047D02*
X65728Y-47165D01*
X65728Y-47047D02*
X65610Y-47165D01*
X65649Y-38484D02*
X65767Y-38602D01*
X65767Y-38484D02*
X65649Y-38602D01*
X65669Y-46742D02*
X65787Y-46860D01*
X65787Y-46742D02*
X65669Y-46860D01*
X65748Y-51425D02*
X65866Y-51543D01*
X65866Y-51425D02*
X65748Y-51543D01*
X65748Y-52811D02*
X65866Y-52929D01*
X65866Y-52811D02*
X65748Y-52929D01*
X65944Y-57734D02*
X66062Y-57852D01*
X66062Y-57734D02*
X65944Y-57852D01*
X66043Y-38484D02*
X66161Y-38602D01*
X66161Y-38484D02*
X66043Y-38602D01*
X66082Y-36397D02*
X66200Y-36515D01*
X66200Y-36397D02*
X66082Y-36515D01*
X66212Y-57490D02*
X66330Y-57608D01*
X66330Y-57490D02*
X66212Y-57608D01*
X66338Y-46082D02*
X66456Y-46200D01*
X66456Y-46082D02*
X66338Y-46200D01*
X66377Y-25216D02*
X66496Y-25334D01*
X66496Y-25216D02*
X66377Y-25334D01*
X66377Y-31240D02*
X66496Y-31358D01*
X66496Y-31240D02*
X66377Y-31358D01*
X66437Y-38484D02*
X66555Y-38602D01*
X66555Y-38484D02*
X66437Y-38602D01*
X66594Y-57996D02*
X66712Y-58114D01*
X66712Y-57996D02*
X66594Y-58114D01*
X66633Y-39173D02*
X66751Y-39291D01*
X66751Y-39173D02*
X66633Y-39291D01*
X66633Y-39566D02*
X66751Y-39685D01*
X66751Y-39566D02*
X66633Y-39685D01*
X66633Y-39960D02*
X66751Y-40078D01*
X66751Y-39960D02*
X66633Y-40078D01*
X66771Y-23661D02*
X66889Y-23779D01*
X66889Y-23661D02*
X66771Y-23779D01*
X66771Y-24960D02*
X66889Y-25078D01*
X66889Y-24960D02*
X66771Y-25078D01*
X66771Y-30296D02*
X66889Y-30414D01*
X66889Y-30296D02*
X66771Y-30414D01*
X66889Y-52223D02*
X67007Y-52341D01*
X67007Y-52223D02*
X66889Y-52341D01*
X66948Y-51279D02*
X67066Y-51397D01*
X67066Y-51279D02*
X66948Y-51397D01*
X67027Y-39173D02*
X67145Y-39291D01*
X67145Y-39173D02*
X67027Y-39291D01*
X67027Y-39566D02*
X67145Y-39685D01*
X67145Y-39566D02*
X67027Y-39685D01*
X67027Y-39960D02*
X67145Y-40078D01*
X67145Y-39960D02*
X67027Y-40078D01*
X67066Y-29940D02*
X67185Y-30059D01*
X67185Y-29940D02*
X67066Y-30059D01*
X67066Y-31279D02*
X67185Y-31397D01*
X67185Y-31279D02*
X67066Y-31397D01*
X67125Y-59468D02*
X67244Y-59586D01*
X67244Y-59468D02*
X67125Y-59586D01*
X67204Y-36421D02*
X67322Y-36539D01*
X67322Y-36421D02*
X67204Y-36539D01*
X67362Y-51377D02*
X67480Y-51496D01*
X67480Y-51377D02*
X67362Y-51496D01*
X67362Y-57244D02*
X67480Y-57362D01*
X67480Y-57244D02*
X67362Y-57362D01*
X67460Y-24429D02*
X67578Y-24547D01*
X67578Y-24429D02*
X67460Y-24547D01*
X67586Y-35566D02*
X67704Y-35685D01*
X67704Y-35566D02*
X67586Y-35685D01*
X67716Y-46082D02*
X67834Y-46200D01*
X67834Y-46082D02*
X67716Y-46200D01*
X67736Y-58011D02*
X67854Y-58129D01*
X67854Y-58011D02*
X67736Y-58129D01*
X67736Y-58956D02*
X67854Y-59074D01*
X67854Y-58956D02*
X67736Y-59074D01*
X67893Y-29582D02*
X68011Y-29700D01*
X68011Y-29582D02*
X67893Y-29700D01*
X67893Y-31224D02*
X68011Y-31342D01*
X68011Y-31224D02*
X67893Y-31342D01*
X67952Y-35547D02*
X68070Y-35665D01*
X68070Y-35547D02*
X67952Y-35665D01*
X67992Y-24720D02*
X68110Y-24838D01*
X68110Y-24720D02*
X67992Y-24838D01*
X68110Y-39448D02*
X68228Y-39566D01*
X68228Y-39448D02*
X68110Y-39566D01*
X68129Y-40610D02*
X68248Y-40728D01*
X68248Y-40610D02*
X68129Y-40728D01*
X68149Y-31311D02*
X68267Y-31429D01*
X68267Y-31311D02*
X68149Y-31429D01*
X68153Y-29586D02*
X68271Y-29704D01*
X68271Y-29586D02*
X68153Y-29704D01*
X68188Y-24984D02*
X68307Y-25102D01*
X68307Y-24984D02*
X68188Y-25102D01*
X68484Y-25216D02*
X68602Y-25334D01*
X68602Y-25216D02*
X68484Y-25334D01*
X68484Y-31240D02*
X68602Y-31358D01*
X68602Y-31240D02*
X68484Y-31358D01*
X68484Y-40019D02*
X68602Y-40137D01*
X68602Y-40019D02*
X68484Y-40137D01*
X68484Y-57224D02*
X68602Y-57342D01*
X68602Y-57224D02*
X68484Y-57342D01*
X68503Y-51377D02*
X68622Y-51496D01*
X68622Y-51377D02*
X68503Y-51496D01*
X68740Y-29940D02*
X68858Y-30059D01*
X68858Y-29940D02*
X68740Y-30059D01*
X68771Y-58397D02*
X68889Y-58515D01*
X68889Y-58397D02*
X68771Y-58515D01*
X68799Y-60472D02*
X68917Y-60590D01*
X68917Y-60472D02*
X68799Y-60590D01*
X68838Y-22125D02*
X68956Y-22244D01*
X68956Y-22125D02*
X68838Y-22244D01*
X68877Y-23110D02*
X68996Y-23228D01*
X68996Y-23110D02*
X68877Y-23228D01*
X68917Y-23665D02*
X69035Y-23783D01*
X69035Y-23665D02*
X68917Y-23783D01*
X69011Y-49460D02*
X69129Y-49578D01*
X69129Y-49460D02*
X69011Y-49578D01*
X69015Y-28917D02*
X69133Y-29035D01*
X69133Y-28917D02*
X69015Y-29035D01*
X69015Y-55153D02*
X69133Y-55271D01*
X69133Y-55153D02*
X69015Y-55271D01*
X69074Y-34842D02*
X69192Y-34960D01*
X69192Y-34842D02*
X69074Y-34960D01*
X69133Y-47696D02*
X69251Y-47814D01*
X69251Y-47696D02*
X69133Y-47814D01*
X69196Y-30629D02*
X69314Y-30748D01*
X69314Y-30629D02*
X69196Y-30748D01*
X69212Y-53641D02*
X69330Y-53759D01*
X69330Y-53641D02*
X69212Y-53759D01*
X69212Y-59468D02*
X69330Y-59586D01*
X69330Y-59468D02*
X69212Y-59586D01*
X69291Y-38523D02*
X69409Y-38641D01*
X69409Y-38523D02*
X69291Y-38641D01*
X69350Y-26240D02*
X69468Y-26358D01*
X69468Y-26240D02*
X69350Y-26358D01*
X69389Y-32145D02*
X69507Y-32263D01*
X69507Y-32145D02*
X69389Y-32263D01*
X69507Y-28287D02*
X69625Y-28405D01*
X69625Y-28287D02*
X69507Y-28405D01*
X69566Y-34212D02*
X69685Y-34330D01*
X69685Y-34212D02*
X69566Y-34330D01*
X69625Y-39803D02*
X69744Y-39921D01*
X69744Y-39803D02*
X69625Y-39921D01*
X69644Y-48307D02*
X69762Y-48425D01*
X69762Y-48307D02*
X69644Y-48425D01*
X69723Y-54212D02*
X69841Y-54330D01*
X69841Y-54212D02*
X69723Y-54330D01*
X69724Y-35098D02*
X69842Y-35216D01*
X69842Y-35098D02*
X69724Y-35216D01*
X69734Y-50383D02*
X69852Y-50501D01*
X69852Y-50383D02*
X69734Y-50501D01*
X69753Y-56446D02*
X69872Y-56564D01*
X69872Y-56446D02*
X69753Y-56564D01*
X69822Y-26181D02*
X69940Y-26299D01*
X69940Y-26181D02*
X69822Y-26299D01*
X69862Y-32066D02*
X69980Y-32185D01*
X69980Y-32066D02*
X69862Y-32185D01*
X69921Y-38897D02*
X70039Y-39015D01*
X70039Y-38897D02*
X69921Y-39015D01*
X70163Y-46805D02*
X70281Y-46923D01*
X70281Y-46805D02*
X70163Y-46923D01*
X70267Y-57500D02*
X70385Y-57618D01*
X70385Y-57500D02*
X70267Y-57618D01*
X70275Y-24165D02*
X70393Y-24283D01*
X70393Y-24165D02*
X70275Y-24283D01*
X70275Y-27393D02*
X70393Y-27511D01*
X70393Y-27393D02*
X70275Y-27511D01*
X70358Y-33129D02*
X70476Y-33248D01*
X70476Y-33129D02*
X70358Y-33248D01*
X70399Y-47031D02*
X70517Y-47149D01*
X70517Y-47031D02*
X70399Y-47149D01*
X70417Y-38362D02*
X70535Y-38480D01*
X70535Y-38362D02*
X70417Y-38480D01*
X70501Y-57665D02*
X70620Y-57783D01*
X70620Y-57665D02*
X70501Y-57783D01*
X70620Y-24974D02*
X70738Y-25092D01*
X70738Y-24974D02*
X70620Y-25092D01*
X70875Y-24730D02*
X70994Y-24848D01*
X70994Y-24730D02*
X70875Y-24848D01*
X70925Y-22125D02*
X71043Y-22244D01*
X71043Y-22125D02*
X70925Y-22244D01*
X70925Y-53444D02*
X71043Y-53562D01*
X71043Y-53444D02*
X70925Y-53562D01*
X70925Y-58952D02*
X71043Y-59070D01*
X71043Y-58952D02*
X70925Y-59070D01*
X71003Y-23110D02*
X71122Y-23228D01*
X71122Y-23110D02*
X71003Y-23228D01*
X71023Y-60472D02*
X71141Y-60590D01*
X71141Y-60472D02*
X71023Y-60590D01*
X71033Y-32253D02*
X71151Y-32372D01*
X71151Y-32253D02*
X71033Y-32372D01*
X71142Y-34251D02*
X71260Y-34370D01*
X71260Y-34251D02*
X71142Y-34370D01*
X71201Y-28326D02*
X71319Y-28444D01*
X71319Y-28326D02*
X71201Y-28444D01*
X71259Y-50452D02*
X71377Y-50570D01*
X71377Y-50452D02*
X71259Y-50570D01*
X71279Y-56397D02*
X71397Y-56515D01*
X71397Y-56397D02*
X71279Y-56515D01*
X71338Y-54271D02*
X71456Y-54389D01*
X71456Y-54271D02*
X71338Y-54389D01*
X71358Y-48326D02*
X71476Y-48444D01*
X71476Y-48326D02*
X71358Y-48444D01*
X71397Y-25925D02*
X71515Y-26043D01*
X71515Y-25925D02*
X71397Y-26043D01*
X71437Y-40551D02*
X71555Y-40669D01*
X71555Y-40551D02*
X71437Y-40669D01*
X71653Y-34901D02*
X71771Y-35019D01*
X71771Y-34901D02*
X71653Y-35019D01*
X71712Y-28956D02*
X71830Y-29074D01*
X71830Y-28956D02*
X71712Y-29074D01*
X71751Y-50354D02*
X71870Y-50472D01*
X71870Y-50354D02*
X71751Y-50472D01*
X71771Y-56259D02*
X71889Y-56377D01*
X71889Y-56259D02*
X71771Y-56377D01*
X71818Y-27401D02*
X71937Y-27519D01*
X71937Y-27401D02*
X71818Y-27519D01*
X71818Y-33133D02*
X71937Y-33251D01*
X71937Y-33133D02*
X71818Y-33251D01*
X71830Y-53582D02*
X71948Y-53700D01*
X71948Y-53582D02*
X71830Y-53700D01*
X71850Y-47736D02*
X71968Y-47854D01*
X71968Y-47736D02*
X71850Y-47854D01*
X71948Y-42185D02*
X72066Y-42303D01*
X72066Y-42185D02*
X71948Y-42303D01*
X72106Y-43710D02*
X72224Y-43828D01*
X72224Y-43710D02*
X72106Y-43828D01*
X72155Y-35797D02*
X72273Y-35915D01*
X72273Y-35797D02*
X72155Y-35915D01*
X72283Y-39311D02*
X72401Y-39429D01*
X72401Y-39311D02*
X72283Y-39429D01*
X72322Y-38484D02*
X72440Y-38602D01*
X72440Y-38484D02*
X72322Y-38602D01*
X72409Y-35511D02*
X72527Y-35629D01*
X72527Y-35511D02*
X72409Y-35629D01*
X72470Y-57448D02*
X72588Y-57566D01*
X72588Y-57448D02*
X72470Y-57566D01*
X72535Y-36370D02*
X72653Y-36488D01*
X72653Y-36370D02*
X72535Y-36488D01*
X72539Y-37086D02*
X72657Y-37204D01*
X72657Y-37086D02*
X72539Y-37204D01*
X72582Y-51299D02*
X72700Y-51417D01*
X72700Y-51299D02*
X72582Y-51417D01*
X72586Y-52748D02*
X72704Y-52866D01*
X72704Y-52748D02*
X72586Y-52866D01*
X72665Y-47031D02*
X72783Y-47149D01*
X72783Y-47031D02*
X72665Y-47149D01*
X72677Y-44409D02*
X72795Y-44527D01*
X72795Y-44409D02*
X72677Y-44527D01*
X72736Y-39311D02*
X72854Y-39429D01*
X72854Y-39311D02*
X72736Y-39429D01*
X72736Y-43248D02*
X72854Y-43366D01*
X72854Y-43248D02*
X72736Y-43366D01*
X72765Y-57696D02*
X72883Y-57814D01*
X72883Y-57696D02*
X72765Y-57814D01*
X72807Y-52960D02*
X72925Y-53078D01*
X72925Y-52960D02*
X72807Y-53078D01*
X72830Y-51389D02*
X72948Y-51507D01*
X72948Y-51389D02*
X72830Y-51507D01*
X72940Y-46783D02*
X73059Y-46901D01*
X73059Y-46783D02*
X72940Y-46901D01*
X73051Y-39133D02*
X73169Y-39251D01*
X73169Y-39133D02*
X73051Y-39251D01*
X73070Y-43307D02*
X73188Y-43425D01*
X73188Y-43307D02*
X73070Y-43425D01*
X73129Y-36377D02*
X73248Y-36496D01*
X73248Y-36377D02*
X73129Y-36496D01*
X73346Y-46082D02*
X73464Y-46200D01*
X73464Y-46082D02*
X73346Y-46200D01*
X73435Y-41860D02*
X73553Y-41978D01*
X73553Y-41860D02*
X73435Y-41978D01*
X73464Y-25216D02*
X73582Y-25334D01*
X73582Y-25216D02*
X73464Y-25334D01*
X73464Y-31259D02*
X73582Y-31377D01*
X73582Y-31259D02*
X73464Y-31377D01*
X73484Y-43218D02*
X73602Y-43336D01*
X73602Y-43218D02*
X73484Y-43336D01*
X73492Y-39401D02*
X73610Y-39519D01*
X73610Y-39401D02*
X73492Y-39519D01*
X73555Y-58062D02*
X73673Y-58181D01*
X73673Y-58062D02*
X73555Y-58181D01*
X73602Y-29704D02*
X73720Y-29822D01*
X73720Y-29704D02*
X73602Y-29822D01*
X73622Y-52775D02*
X73740Y-52893D01*
X73740Y-52775D02*
X73622Y-52893D01*
X73838Y-24901D02*
X73956Y-25019D01*
X73956Y-24901D02*
X73838Y-25019D01*
X73858Y-30374D02*
X73976Y-30493D01*
X73976Y-30374D02*
X73858Y-30493D01*
X73858Y-31259D02*
X73976Y-31377D01*
X73976Y-31259D02*
X73858Y-31377D01*
X73897Y-52243D02*
X74015Y-52361D01*
X74015Y-52243D02*
X73897Y-52361D01*
X74055Y-51318D02*
X74173Y-51437D01*
X74173Y-51318D02*
X74055Y-51437D01*
X74055Y-57500D02*
X74173Y-57618D01*
X74173Y-57500D02*
X74055Y-57618D01*
X74055Y-58681D02*
X74173Y-58799D01*
X74173Y-58681D02*
X74055Y-58799D01*
X74334Y-36519D02*
X74452Y-36637D01*
X74452Y-36519D02*
X74334Y-36637D01*
X74448Y-51318D02*
X74566Y-51437D01*
X74566Y-51318D02*
X74448Y-51437D01*
X74448Y-57224D02*
X74566Y-57342D01*
X74566Y-57224D02*
X74448Y-57342D01*
X74488Y-46082D02*
X74606Y-46200D01*
X74606Y-46082D02*
X74488Y-46200D01*
X74492Y-24539D02*
X74610Y-24657D01*
X74610Y-24539D02*
X74492Y-24657D01*
X74681Y-39405D02*
X74799Y-39523D01*
X74799Y-39405D02*
X74681Y-39523D01*
X74685Y-58393D02*
X74803Y-58511D01*
X74803Y-58393D02*
X74685Y-58511D01*
X74822Y-44842D02*
X74940Y-44960D01*
X74940Y-44842D02*
X74822Y-44960D01*
X74850Y-35501D02*
X74968Y-35620D01*
X74968Y-35501D02*
X74850Y-35620D01*
X74940Y-38287D02*
X75059Y-38405D01*
X75059Y-38287D02*
X74940Y-38405D01*
X74960Y-46555D02*
X75078Y-46673D01*
X75078Y-46555D02*
X74960Y-46673D01*
X74972Y-29850D02*
X75090Y-29968D01*
X75090Y-29850D02*
X74972Y-29968D01*
X74972Y-31074D02*
X75090Y-31192D01*
X75090Y-31074D02*
X74972Y-31192D01*
X75118Y-35578D02*
X75236Y-35696D01*
X75236Y-35578D02*
X75118Y-35696D01*
X75216Y-30688D02*
X75334Y-30807D01*
X75334Y-30688D02*
X75216Y-30807D01*
X75224Y-29637D02*
X75342Y-29755D01*
X75342Y-29637D02*
X75224Y-29755D01*
X75472Y-25377D02*
X75590Y-25496D01*
X75590Y-25377D02*
X75472Y-25496D01*
X75472Y-42391D02*
X75590Y-42509D01*
X75590Y-42391D02*
X75472Y-42509D01*
X75755Y-25246D02*
X75874Y-25364D01*
X75874Y-25246D02*
X75755Y-25364D01*
X76023Y-41318D02*
X76141Y-41437D01*
X76141Y-41318D02*
X76023Y-41437D01*
X76062Y-47677D02*
X76181Y-47795D01*
X76181Y-47677D02*
X76062Y-47795D01*
X76102Y-55082D02*
X76220Y-55200D01*
X76220Y-55082D02*
X76102Y-55200D01*
X76106Y-49248D02*
X76224Y-49366D01*
X76224Y-49248D02*
X76106Y-49366D01*
X76122Y-26279D02*
X76240Y-26397D01*
X76240Y-26279D02*
X76122Y-26397D01*
X76161Y-28937D02*
X76279Y-29055D01*
X76279Y-28937D02*
X76161Y-29055D01*
X76220Y-34842D02*
X76338Y-34960D01*
X76338Y-34842D02*
X76220Y-34960D01*
X76220Y-53622D02*
X76338Y-53740D01*
X76338Y-53622D02*
X76220Y-53740D01*
X76318Y-31948D02*
X76437Y-32066D01*
X76437Y-31948D02*
X76318Y-32066D01*
X76358Y-56259D02*
X76476Y-56377D01*
X76476Y-56259D02*
X76358Y-56377D01*
X76573Y-48307D02*
X76692Y-48425D01*
X76692Y-48307D02*
X76573Y-48425D01*
X76584Y-50118D02*
X76702Y-50236D01*
X76702Y-50118D02*
X76584Y-50236D01*
X76614Y-26161D02*
X76732Y-26279D01*
X76732Y-26161D02*
X76614Y-26279D01*
X76633Y-28307D02*
X76751Y-28425D01*
X76751Y-28307D02*
X76633Y-28425D01*
X76712Y-41377D02*
X76830Y-41496D01*
X76830Y-41377D02*
X76712Y-41496D01*
X76731Y-34232D02*
X76849Y-34350D01*
X76849Y-34232D02*
X76731Y-34350D01*
X76731Y-54212D02*
X76849Y-54330D01*
X76849Y-54212D02*
X76731Y-54330D01*
X76771Y-36082D02*
X76889Y-36200D01*
X76889Y-36082D02*
X76771Y-36200D01*
X76830Y-32519D02*
X76948Y-32637D01*
X76948Y-32519D02*
X76830Y-32637D01*
X77086Y-31692D02*
X77204Y-31811D01*
X77204Y-31692D02*
X77086Y-31811D01*
X77086Y-38287D02*
X77204Y-38405D01*
X77204Y-38287D02*
X77086Y-38405D01*
X77125Y-50866D02*
X77244Y-50984D01*
X77244Y-50866D02*
X77125Y-50984D01*
X77559Y-30472D02*
X77677Y-30590D01*
X77677Y-30472D02*
X77559Y-30590D01*
X77578Y-52086D02*
X77696Y-52204D01*
X77696Y-52086D02*
X77578Y-52204D01*
X77598Y-37834D02*
X77716Y-37952D01*
X77716Y-37834D02*
X77598Y-37952D01*
X77814Y-37303D02*
X77933Y-37421D01*
X77933Y-37303D02*
X77814Y-37421D01*
X41702Y-26673D02*
G75*
G03X41702Y-26673I-68J0D01*
G74*
G01*
X41702Y-27263D02*
G75*
G03X41702Y-27263I-68J0D01*
G74*
G01*
X41702Y-27854D02*
G75*
G03X41702Y-27854I-68J0D01*
G74*
G01*
X41702Y-28444D02*
G75*
G03X41702Y-28444I-68J0D01*
G74*
G01*
X41702Y-32578D02*
G75*
G03X41702Y-32578I-68J0D01*
G74*
G01*
X41702Y-33169D02*
G75*
G03X41702Y-33169I-68J0D01*
G74*
G01*
X41702Y-33759D02*
G75*
G03X41702Y-33759I-68J0D01*
G74*
G01*
X41702Y-34350D02*
G75*
G03X41702Y-34350I-68J0D01*
G74*
G01*
X41702Y-48337D02*
G75*
G03X41702Y-48337I-68J0D01*
G74*
G01*
X41702Y-48927D02*
G75*
G03X41702Y-48927I-68J0D01*
G74*
G01*
X41702Y-49517D02*
G75*
G03X41702Y-49517I-68J0D01*
G74*
G01*
X41702Y-50108D02*
G75*
G03X41702Y-50108I-68J0D01*
G74*
G01*
X41702Y-54242D02*
G75*
G03X41702Y-54242I-68J0D01*
G74*
G01*
X41702Y-54832D02*
G75*
G03X41702Y-54832I-68J0D01*
G74*
G01*
X41702Y-55422D02*
G75*
G03X41702Y-55422I-68J0D01*
G74*
G01*
X41702Y-56013D02*
G75*
G03X41702Y-56013I-68J0D01*
G74*
G01*
X42293Y-27854D02*
G75*
G03X42293Y-27854I-68J0D01*
G74*
G01*
X42293Y-28444D02*
G75*
G03X42293Y-28444I-68J0D01*
G74*
G01*
X42293Y-33759D02*
G75*
G03X42293Y-33759I-68J0D01*
G74*
G01*
X42293Y-34350D02*
G75*
G03X42293Y-34350I-68J0D01*
G74*
G01*
X42293Y-48336D02*
G75*
G03X42293Y-48336I-68J0D01*
G74*
G01*
X42293Y-48927D02*
G75*
G03X42293Y-48927I-68J0D01*
G74*
G01*
X42293Y-49517D02*
G75*
G03X42293Y-49517I-68J0D01*
G74*
G01*
X42293Y-54242D02*
G75*
G03X42293Y-54242I-68J0D01*
G74*
G01*
X42293Y-54832D02*
G75*
G03X42293Y-54832I-68J0D01*
G74*
G01*
X42293Y-55423D02*
G75*
G03X42293Y-55423I-68J0D01*
G74*
G01*
X42293Y-27263D02*
G75*
G03X42293Y-27263I-68J0D01*
G74*
G01*
X42293Y-33169D02*
G75*
G03X42293Y-33169I-68J0D01*
G74*
G01*
X42293Y-50108D02*
G75*
G03X42293Y-50108I-68J0D01*
G74*
G01*
X42293Y-56013D02*
G75*
G03X42293Y-56013I-68J0D01*
G74*
G01*
X42312Y-26673D02*
G75*
G03X42312Y-26673I-68J0D01*
G74*
G01*
X42312Y-32578D02*
G75*
G03X42312Y-32578I-68J0D01*
G74*
G01*
X42864Y-50108D02*
G75*
G03X42864Y-50108I-68J0D01*
G74*
G01*
X42864Y-56013D02*
G75*
G03X42864Y-56013I-68J0D01*
G74*
G01*
X42883Y-26673D02*
G75*
G03X42883Y-26673I-68J0D01*
G74*
G01*
X42883Y-32578D02*
G75*
G03X42883Y-32578I-68J0D01*
G74*
G01*
X42883Y-49517D02*
G75*
G03X42883Y-49517I-68J0D01*
G74*
G01*
X42883Y-55423D02*
G75*
G03X42883Y-55423I-68J0D01*
G74*
G01*
X42883Y-27263D02*
G75*
G03X42883Y-27263I-68J0D01*
G74*
G01*
X42883Y-27854D02*
G75*
G03X42883Y-27854I-68J0D01*
G74*
G01*
X42883Y-28444D02*
G75*
G03X42883Y-28444I-68J0D01*
G74*
G01*
X42883Y-33169D02*
G75*
G03X42883Y-33169I-68J0D01*
G74*
G01*
X42883Y-33759D02*
G75*
G03X42883Y-33759I-68J0D01*
G74*
G01*
X42883Y-34350D02*
G75*
G03X42883Y-34350I-68J0D01*
G74*
G01*
X42883Y-48336D02*
G75*
G03X42883Y-48336I-68J0D01*
G74*
G01*
X42883Y-48927D02*
G75*
G03X42883Y-48927I-68J0D01*
G74*
G01*
X42883Y-54242D02*
G75*
G03X42883Y-54242I-68J0D01*
G74*
G01*
X42883Y-54832D02*
G75*
G03X42883Y-54832I-68J0D01*
G74*
G01*
X43474Y-26673D02*
G75*
G03X43474Y-26673I-68J0D01*
G74*
G01*
X43474Y-27264D02*
G75*
G03X43474Y-27264I-68J0D01*
G74*
G01*
X43474Y-27854D02*
G75*
G03X43474Y-27854I-68J0D01*
G74*
G01*
X43474Y-28444D02*
G75*
G03X43474Y-28444I-68J0D01*
G74*
G01*
X43474Y-32578D02*
G75*
G03X43474Y-32578I-68J0D01*
G74*
G01*
X43474Y-33169D02*
G75*
G03X43474Y-33169I-68J0D01*
G74*
G01*
X43474Y-33759D02*
G75*
G03X43474Y-33759I-68J0D01*
G74*
G01*
X43474Y-34349D02*
G75*
G03X43474Y-34349I-68J0D01*
G74*
G01*
X43474Y-48336D02*
G75*
G03X43474Y-48336I-68J0D01*
G74*
G01*
X43474Y-48927D02*
G75*
G03X43474Y-48927I-68J0D01*
G74*
G01*
X43474Y-49517D02*
G75*
G03X43474Y-49517I-68J0D01*
G74*
G01*
X43474Y-50108D02*
G75*
G03X43474Y-50108I-68J0D01*
G74*
G01*
X43474Y-54242D02*
G75*
G03X43474Y-54242I-68J0D01*
G74*
G01*
X43474Y-54832D02*
G75*
G03X43474Y-54832I-68J0D01*
G74*
G01*
X43474Y-55423D02*
G75*
G03X43474Y-55423I-68J0D01*
G74*
G01*
X43474Y-56013D02*
G75*
G03X43474Y-56013I-68J0D01*
G74*
G01*
X48789Y-26673D02*
G75*
G03X48789Y-26673I-68J0D01*
G74*
G01*
X48789Y-27263D02*
G75*
G03X48789Y-27263I-68J0D01*
G74*
G01*
X48789Y-27854D02*
G75*
G03X48789Y-27854I-68J0D01*
G74*
G01*
X48789Y-28444D02*
G75*
G03X48789Y-28444I-68J0D01*
G74*
G01*
X48789Y-32578D02*
G75*
G03X48789Y-32578I-68J0D01*
G74*
G01*
X48789Y-33169D02*
G75*
G03X48789Y-33169I-68J0D01*
G74*
G01*
X48789Y-33759D02*
G75*
G03X48789Y-33759I-68J0D01*
G74*
G01*
X48789Y-34350D02*
G75*
G03X48789Y-34350I-68J0D01*
G74*
G01*
X48789Y-48337D02*
G75*
G03X48789Y-48337I-68J0D01*
G74*
G01*
X48789Y-48927D02*
G75*
G03X48789Y-48927I-68J0D01*
G74*
G01*
X48789Y-49517D02*
G75*
G03X48789Y-49517I-68J0D01*
G74*
G01*
X48789Y-50108D02*
G75*
G03X48789Y-50108I-68J0D01*
G74*
G01*
X48789Y-54242D02*
G75*
G03X48789Y-54242I-68J0D01*
G74*
G01*
X48789Y-54832D02*
G75*
G03X48789Y-54832I-68J0D01*
G74*
G01*
X48789Y-55422D02*
G75*
G03X48789Y-55422I-68J0D01*
G74*
G01*
X48789Y-56013D02*
G75*
G03X48789Y-56013I-68J0D01*
G74*
G01*
X49379Y-27854D02*
G75*
G03X49379Y-27854I-68J0D01*
G74*
G01*
X49379Y-28444D02*
G75*
G03X49379Y-28444I-68J0D01*
G74*
G01*
X49379Y-33759D02*
G75*
G03X49379Y-33759I-68J0D01*
G74*
G01*
X49379Y-34350D02*
G75*
G03X49379Y-34350I-68J0D01*
G74*
G01*
X49379Y-48336D02*
G75*
G03X49379Y-48336I-68J0D01*
G74*
G01*
X49379Y-48927D02*
G75*
G03X49379Y-48927I-68J0D01*
G74*
G01*
X49379Y-49517D02*
G75*
G03X49379Y-49517I-68J0D01*
G74*
G01*
X49379Y-54242D02*
G75*
G03X49379Y-54242I-68J0D01*
G74*
G01*
X49379Y-54832D02*
G75*
G03X49379Y-54832I-68J0D01*
G74*
G01*
X49379Y-55423D02*
G75*
G03X49379Y-55423I-68J0D01*
G74*
G01*
X49380Y-27263D02*
G75*
G03X49380Y-27263I-68J0D01*
G74*
G01*
X49380Y-33169D02*
G75*
G03X49380Y-33169I-68J0D01*
G74*
G01*
X49380Y-50108D02*
G75*
G03X49380Y-50108I-68J0D01*
G74*
G01*
X49380Y-56013D02*
G75*
G03X49380Y-56013I-68J0D01*
G74*
G01*
X49399Y-26673D02*
G75*
G03X49399Y-26673I-68J0D01*
G74*
G01*
X49399Y-32578D02*
G75*
G03X49399Y-32578I-68J0D01*
G74*
G01*
X49950Y-50108D02*
G75*
G03X49950Y-50108I-68J0D01*
G74*
G01*
X49950Y-56013D02*
G75*
G03X49950Y-56013I-68J0D01*
G74*
G01*
X49970Y-26673D02*
G75*
G03X49970Y-26673I-68J0D01*
G74*
G01*
X49970Y-32578D02*
G75*
G03X49970Y-32578I-68J0D01*
G74*
G01*
X49970Y-49517D02*
G75*
G03X49970Y-49517I-68J0D01*
G74*
G01*
X49970Y-55423D02*
G75*
G03X49970Y-55423I-68J0D01*
G74*
G01*
X49970Y-27263D02*
G75*
G03X49970Y-27263I-68J0D01*
G74*
G01*
X49970Y-27854D02*
G75*
G03X49970Y-27854I-68J0D01*
G74*
G01*
X49970Y-28444D02*
G75*
G03X49970Y-28444I-68J0D01*
G74*
G01*
X49970Y-33169D02*
G75*
G03X49970Y-33169I-68J0D01*
G74*
G01*
X49970Y-33759D02*
G75*
G03X49970Y-33759I-68J0D01*
G74*
G01*
X49970Y-34350D02*
G75*
G03X49970Y-34350I-68J0D01*
G74*
G01*
X49970Y-48336D02*
G75*
G03X49970Y-48336I-68J0D01*
G74*
G01*
X49970Y-48927D02*
G75*
G03X49970Y-48927I-68J0D01*
G74*
G01*
X49970Y-54242D02*
G75*
G03X49970Y-54242I-68J0D01*
G74*
G01*
X49970Y-54832D02*
G75*
G03X49970Y-54832I-68J0D01*
G74*
G01*
X50561Y-26673D02*
G75*
G03X50561Y-26673I-68J0D01*
G74*
G01*
X50561Y-27264D02*
G75*
G03X50561Y-27264I-68J0D01*
G74*
G01*
X50561Y-27854D02*
G75*
G03X50561Y-27854I-68J0D01*
G74*
G01*
X50561Y-28444D02*
G75*
G03X50561Y-28444I-68J0D01*
G74*
G01*
X50561Y-32578D02*
G75*
G03X50561Y-32578I-68J0D01*
G74*
G01*
X50561Y-33169D02*
G75*
G03X50561Y-33169I-68J0D01*
G74*
G01*
X50561Y-33759D02*
G75*
G03X50561Y-33759I-68J0D01*
G74*
G01*
X50561Y-34349D02*
G75*
G03X50561Y-34349I-68J0D01*
G74*
G01*
X50561Y-48336D02*
G75*
G03X50561Y-48336I-68J0D01*
G74*
G01*
X50561Y-48927D02*
G75*
G03X50561Y-48927I-68J0D01*
G74*
G01*
X50561Y-49517D02*
G75*
G03X50561Y-49517I-68J0D01*
G74*
G01*
X50561Y-50108D02*
G75*
G03X50561Y-50108I-68J0D01*
G74*
G01*
X50561Y-54242D02*
G75*
G03X50561Y-54242I-68J0D01*
G74*
G01*
X50561Y-54832D02*
G75*
G03X50561Y-54832I-68J0D01*
G74*
G01*
X50561Y-55423D02*
G75*
G03X50561Y-55423I-68J0D01*
G74*
G01*
X50561Y-56013D02*
G75*
G03X50561Y-56013I-68J0D01*
G74*
G01*
X64812Y-41417D02*
G75*
G03X64812Y-41417I-68J0D01*
G74*
G01*
X64812Y-41751D02*
G75*
G03X64812Y-41751I-68J0D01*
G74*
G01*
X65167Y-41417D02*
G75*
G03X65167Y-41417I-68J0D01*
G74*
G01*
X65167Y-41751D02*
G75*
G03X65167Y-41751I-68J0D01*
G74*
G01*
X66112Y-26673D02*
G75*
G03X66112Y-26673I-68J0D01*
G74*
G01*
X66112Y-27263D02*
G75*
G03X66112Y-27263I-68J0D01*
G74*
G01*
X66112Y-27854D02*
G75*
G03X66112Y-27854I-68J0D01*
G74*
G01*
X66112Y-28444D02*
G75*
G03X66112Y-28444I-68J0D01*
G74*
G01*
X66112Y-32578D02*
G75*
G03X66112Y-32578I-68J0D01*
G74*
G01*
X66112Y-33169D02*
G75*
G03X66112Y-33169I-68J0D01*
G74*
G01*
X66112Y-33759D02*
G75*
G03X66112Y-33759I-68J0D01*
G74*
G01*
X66112Y-34350D02*
G75*
G03X66112Y-34350I-68J0D01*
G74*
G01*
X66112Y-48327D02*
G75*
G03X66112Y-48327I-68J0D01*
G74*
G01*
X66112Y-48917D02*
G75*
G03X66112Y-48917I-68J0D01*
G74*
G01*
X66112Y-49507D02*
G75*
G03X66112Y-49507I-68J0D01*
G74*
G01*
X66112Y-50098D02*
G75*
G03X66112Y-50098I-68J0D01*
G74*
G01*
X66112Y-54233D02*
G75*
G03X66112Y-54233I-68J0D01*
G74*
G01*
X66112Y-54822D02*
G75*
G03X66112Y-54822I-68J0D01*
G74*
G01*
X66112Y-55413D02*
G75*
G03X66112Y-55413I-68J0D01*
G74*
G01*
X66112Y-56003D02*
G75*
G03X66112Y-56003I-68J0D01*
G74*
G01*
X66702Y-27854D02*
G75*
G03X66702Y-27854I-68J0D01*
G74*
G01*
X66702Y-28444D02*
G75*
G03X66702Y-28444I-68J0D01*
G74*
G01*
X66702Y-33759D02*
G75*
G03X66702Y-33759I-68J0D01*
G74*
G01*
X66702Y-34350D02*
G75*
G03X66702Y-34350I-68J0D01*
G74*
G01*
X66702Y-48326D02*
G75*
G03X66702Y-48326I-68J0D01*
G74*
G01*
X66702Y-48917D02*
G75*
G03X66702Y-48917I-68J0D01*
G74*
G01*
X66702Y-49507D02*
G75*
G03X66702Y-49507I-68J0D01*
G74*
G01*
X66702Y-54232D02*
G75*
G03X66702Y-54232I-68J0D01*
G74*
G01*
X66702Y-54822D02*
G75*
G03X66702Y-54822I-68J0D01*
G74*
G01*
X66702Y-55413D02*
G75*
G03X66702Y-55413I-68J0D01*
G74*
G01*
X66703Y-27263D02*
G75*
G03X66703Y-27263I-68J0D01*
G74*
G01*
X66703Y-33169D02*
G75*
G03X66703Y-33169I-68J0D01*
G74*
G01*
X66703Y-50098D02*
G75*
G03X66703Y-50098I-68J0D01*
G74*
G01*
X66703Y-56003D02*
G75*
G03X66703Y-56003I-68J0D01*
G74*
G01*
X66722Y-26673D02*
G75*
G03X66722Y-26673I-68J0D01*
G74*
G01*
X66722Y-32578D02*
G75*
G03X66722Y-32578I-68J0D01*
G74*
G01*
X67273Y-50098D02*
G75*
G03X67273Y-50098I-68J0D01*
G74*
G01*
X67273Y-56003D02*
G75*
G03X67273Y-56003I-68J0D01*
G74*
G01*
X67293Y-26673D02*
G75*
G03X67293Y-26673I-68J0D01*
G74*
G01*
X67293Y-32578D02*
G75*
G03X67293Y-32578I-68J0D01*
G74*
G01*
X67293Y-49507D02*
G75*
G03X67293Y-49507I-68J0D01*
G74*
G01*
X67293Y-55413D02*
G75*
G03X67293Y-55413I-68J0D01*
G74*
G01*
X67293Y-27263D02*
G75*
G03X67293Y-27263I-68J0D01*
G74*
G01*
X67293Y-27854D02*
G75*
G03X67293Y-27854I-68J0D01*
G74*
G01*
X67293Y-28444D02*
G75*
G03X67293Y-28444I-68J0D01*
G74*
G01*
X67293Y-33169D02*
G75*
G03X67293Y-33169I-68J0D01*
G74*
G01*
X67293Y-33759D02*
G75*
G03X67293Y-33759I-68J0D01*
G74*
G01*
X67293Y-34350D02*
G75*
G03X67293Y-34350I-68J0D01*
G74*
G01*
X67293Y-48326D02*
G75*
G03X67293Y-48326I-68J0D01*
G74*
G01*
X67293Y-48917D02*
G75*
G03X67293Y-48917I-68J0D01*
G74*
G01*
X67293Y-54232D02*
G75*
G03X67293Y-54232I-68J0D01*
G74*
G01*
X67293Y-54822D02*
G75*
G03X67293Y-54822I-68J0D01*
G74*
G01*
X67883Y-26673D02*
G75*
G03X67883Y-26673I-68J0D01*
G74*
G01*
X67883Y-27264D02*
G75*
G03X67883Y-27264I-68J0D01*
G74*
G01*
X67883Y-27854D02*
G75*
G03X67883Y-27854I-68J0D01*
G74*
G01*
X67883Y-28444D02*
G75*
G03X67883Y-28444I-68J0D01*
G74*
G01*
X67883Y-32578D02*
G75*
G03X67883Y-32578I-68J0D01*
G74*
G01*
X67883Y-33169D02*
G75*
G03X67883Y-33169I-68J0D01*
G74*
G01*
X67883Y-33759D02*
G75*
G03X67883Y-33759I-68J0D01*
G74*
G01*
X67883Y-34349D02*
G75*
G03X67883Y-34349I-68J0D01*
G74*
G01*
X67883Y-48326D02*
G75*
G03X67883Y-48326I-68J0D01*
G74*
G01*
X67883Y-48917D02*
G75*
G03X67883Y-48917I-68J0D01*
G74*
G01*
X67883Y-49507D02*
G75*
G03X67883Y-49507I-68J0D01*
G74*
G01*
X67883Y-50098D02*
G75*
G03X67883Y-50098I-68J0D01*
G74*
G01*
X67883Y-54232D02*
G75*
G03X67883Y-54232I-68J0D01*
G74*
G01*
X67883Y-54822D02*
G75*
G03X67883Y-54822I-68J0D01*
G74*
G01*
X67883Y-55413D02*
G75*
G03X67883Y-55413I-68J0D01*
G74*
G01*
X67883Y-56003D02*
G75*
G03X67883Y-56003I-68J0D01*
G74*
G01*
X73198Y-26673D02*
G75*
G03X73198Y-26673I-68J0D01*
G74*
G01*
X73198Y-27263D02*
G75*
G03X73198Y-27263I-68J0D01*
G74*
G01*
X73198Y-27854D02*
G75*
G03X73198Y-27854I-68J0D01*
G74*
G01*
X73198Y-28444D02*
G75*
G03X73198Y-28444I-68J0D01*
G74*
G01*
X73198Y-32578D02*
G75*
G03X73198Y-32578I-68J0D01*
G74*
G01*
X73198Y-33169D02*
G75*
G03X73198Y-33169I-68J0D01*
G74*
G01*
X73198Y-33759D02*
G75*
G03X73198Y-33759I-68J0D01*
G74*
G01*
X73198Y-34350D02*
G75*
G03X73198Y-34350I-68J0D01*
G74*
G01*
X73198Y-48327D02*
G75*
G03X73198Y-48327I-68J0D01*
G74*
G01*
X73198Y-48917D02*
G75*
G03X73198Y-48917I-68J0D01*
G74*
G01*
X73198Y-49507D02*
G75*
G03X73198Y-49507I-68J0D01*
G74*
G01*
X73198Y-50098D02*
G75*
G03X73198Y-50098I-68J0D01*
G74*
G01*
X73198Y-54233D02*
G75*
G03X73198Y-54233I-68J0D01*
G74*
G01*
X73198Y-54822D02*
G75*
G03X73198Y-54822I-68J0D01*
G74*
G01*
X73198Y-55413D02*
G75*
G03X73198Y-55413I-68J0D01*
G74*
G01*
X73198Y-56003D02*
G75*
G03X73198Y-56003I-68J0D01*
G74*
G01*
X73789Y-27854D02*
G75*
G03X73789Y-27854I-68J0D01*
G74*
G01*
X73789Y-28444D02*
G75*
G03X73789Y-28444I-68J0D01*
G74*
G01*
X73789Y-33759D02*
G75*
G03X73789Y-33759I-68J0D01*
G74*
G01*
X73789Y-34350D02*
G75*
G03X73789Y-34350I-68J0D01*
G74*
G01*
X73789Y-48326D02*
G75*
G03X73789Y-48326I-68J0D01*
G74*
G01*
X73789Y-48917D02*
G75*
G03X73789Y-48917I-68J0D01*
G74*
G01*
X73789Y-49507D02*
G75*
G03X73789Y-49507I-68J0D01*
G74*
G01*
X73789Y-54232D02*
G75*
G03X73789Y-54232I-68J0D01*
G74*
G01*
X73789Y-54822D02*
G75*
G03X73789Y-54822I-68J0D01*
G74*
G01*
X73789Y-55413D02*
G75*
G03X73789Y-55413I-68J0D01*
G74*
G01*
X73789Y-27263D02*
G75*
G03X73789Y-27263I-68J0D01*
G74*
G01*
X73789Y-33169D02*
G75*
G03X73789Y-33169I-68J0D01*
G74*
G01*
X73789Y-50098D02*
G75*
G03X73789Y-50098I-68J0D01*
G74*
G01*
X73789Y-56003D02*
G75*
G03X73789Y-56003I-68J0D01*
G74*
G01*
X73809Y-26673D02*
G75*
G03X73809Y-26673I-68J0D01*
G74*
G01*
X73809Y-32578D02*
G75*
G03X73809Y-32578I-68J0D01*
G74*
G01*
X74360Y-50098D02*
G75*
G03X74360Y-50098I-68J0D01*
G74*
G01*
X74360Y-56003D02*
G75*
G03X74360Y-56003I-68J0D01*
G74*
G01*
X74379Y-26673D02*
G75*
G03X74379Y-26673I-68J0D01*
G74*
G01*
X74379Y-32578D02*
G75*
G03X74379Y-32578I-68J0D01*
G74*
G01*
X74379Y-49507D02*
G75*
G03X74379Y-49507I-68J0D01*
G74*
G01*
X74379Y-55413D02*
G75*
G03X74379Y-55413I-68J0D01*
G74*
G01*
X74379Y-27263D02*
G75*
G03X74379Y-27263I-68J0D01*
G74*
G01*
X74379Y-27854D02*
G75*
G03X74379Y-27854I-68J0D01*
G74*
G01*
X74379Y-28444D02*
G75*
G03X74379Y-28444I-68J0D01*
G74*
G01*
X74379Y-33169D02*
G75*
G03X74379Y-33169I-68J0D01*
G74*
G01*
X74379Y-33759D02*
G75*
G03X74379Y-33759I-68J0D01*
G74*
G01*
X74379Y-34350D02*
G75*
G03X74379Y-34350I-68J0D01*
G74*
G01*
X74379Y-48326D02*
G75*
G03X74379Y-48326I-68J0D01*
G74*
G01*
X74379Y-48917D02*
G75*
G03X74379Y-48917I-68J0D01*
G74*
G01*
X74379Y-54232D02*
G75*
G03X74379Y-54232I-68J0D01*
G74*
G01*
X74379Y-54822D02*
G75*
G03X74379Y-54822I-68J0D01*
G74*
G01*
X74970Y-26673D02*
G75*
G03X74970Y-26673I-68J0D01*
G74*
G01*
X74970Y-27264D02*
G75*
G03X74970Y-27264I-68J0D01*
G74*
G01*
X74970Y-27854D02*
G75*
G03X74970Y-27854I-68J0D01*
G74*
G01*
X74970Y-28444D02*
G75*
G03X74970Y-28444I-68J0D01*
G74*
G01*
X74970Y-32578D02*
G75*
G03X74970Y-32578I-68J0D01*
G74*
G01*
X74970Y-33169D02*
G75*
G03X74970Y-33169I-68J0D01*
G74*
G01*
X74970Y-33759D02*
G75*
G03X74970Y-33759I-68J0D01*
G74*
G01*
X74970Y-34349D02*
G75*
G03X74970Y-34349I-68J0D01*
G74*
G01*
X74970Y-48326D02*
G75*
G03X74970Y-48326I-68J0D01*
G74*
G01*
X74970Y-48917D02*
G75*
G03X74970Y-48917I-68J0D01*
G74*
G01*
X74970Y-49507D02*
G75*
G03X74970Y-49507I-68J0D01*
G74*
G01*
X74970Y-50098D02*
G75*
G03X74970Y-50098I-68J0D01*
G74*
G01*
X74970Y-54232D02*
G75*
G03X74970Y-54232I-68J0D01*
G74*
G01*
X74970Y-54822D02*
G75*
G03X74970Y-54822I-68J0D01*
G74*
G01*
X74970Y-55413D02*
G75*
G03X74970Y-55413I-68J0D01*
G74*
G01*
X74970Y-56003D02*
G75*
G03X74970Y-56003I-68J0D01*
G74*
G01*
X44252Y-39685D02*
X44252Y-40236D01*
X43977Y-39961D02*
X44528Y-39961D01*
X44252Y-41338D02*
X44252Y-41889D01*
X43977Y-41614D02*
X44528Y-41614D01*
X44252Y-42991D02*
X44252Y-43542D01*
X43977Y-43267D02*
X44528Y-43267D01*
X45904Y-39685D02*
X45904Y-40236D01*
X45629Y-39961D02*
X46180Y-39961D01*
X45904Y-41338D02*
X45904Y-41889D01*
X45629Y-41614D02*
X46180Y-41614D01*
X45904Y-42991D02*
X45904Y-43542D01*
X45629Y-43267D02*
X46180Y-43267D01*
X41165Y-24039D02*
X41165Y-23204D01*
X40330Y-23204D01*
X40330Y-24039D01*
X41165Y-24039D01*
X41165Y-59472D02*
X41165Y-58637D01*
X40330Y-58637D01*
X40330Y-59472D01*
X41165Y-59472D01*
X46480Y-30929D02*
X46480Y-30094D01*
X45645Y-30094D01*
X45645Y-30929D01*
X46480Y-30929D01*
X46480Y-52582D02*
X46480Y-51747D01*
X45645Y-51747D01*
X45645Y-52582D01*
X46480Y-52582D01*
X70890Y-30929D02*
X70890Y-30094D01*
X70054Y-30094D01*
X70054Y-30929D01*
X70890Y-30929D01*
X70890Y-52582D02*
X70890Y-51747D01*
X70054Y-51747D01*
X70054Y-52582D01*
X70890Y-52582D01*
X76598Y-24039D02*
X76598Y-23204D01*
X75763Y-23204D01*
X75763Y-24039D01*
X76598Y-24039D01*
X76598Y-59472D02*
X76598Y-58637D01*
X75763Y-58637D01*
X75763Y-59472D01*
X76598Y-59472D01*
G54D12*
X39848Y-62857D02*
X39848Y-61676D01*
X40129Y-61676D01*
X40298Y-61732D01*
X40410Y-61844D01*
X40466Y-61957D01*
X40523Y-62182D01*
X40523Y-62350D01*
X40466Y-62575D01*
X40410Y-62688D01*
X40298Y-62800D01*
X40129Y-62857D01*
X39848Y-62857D01*
X41029Y-62857D02*
X41029Y-62069D01*
X41029Y-62294D02*
X41085Y-62182D01*
X41141Y-62125D01*
X41254Y-62069D01*
X41366Y-62069D01*
X41760Y-62857D02*
X41760Y-62069D01*
X41760Y-61676D02*
X41704Y-61732D01*
X41760Y-61788D01*
X41816Y-61732D01*
X41760Y-61676D01*
X41760Y-61788D01*
X42491Y-62857D02*
X42379Y-62800D01*
X42322Y-62688D01*
X42322Y-61676D01*
X43110Y-62857D02*
X42997Y-62800D01*
X42941Y-62688D01*
X42941Y-61676D01*
X44460Y-62857D02*
X44460Y-61676D01*
X44853Y-62519D01*
X45247Y-61676D01*
X45247Y-62857D01*
X46316Y-62857D02*
X46316Y-62238D01*
X46259Y-62125D01*
X46147Y-62069D01*
X45922Y-62069D01*
X45809Y-62125D01*
X46316Y-62800D02*
X46203Y-62857D01*
X45922Y-62857D01*
X45809Y-62800D01*
X45753Y-62688D01*
X45753Y-62575D01*
X45809Y-62463D01*
X45922Y-62407D01*
X46203Y-62407D01*
X46316Y-62350D01*
X46878Y-62069D02*
X46878Y-63250D01*
X46878Y-62125D02*
X46991Y-62069D01*
X47215Y-62069D01*
X47328Y-62125D01*
X47384Y-62182D01*
X47440Y-62294D01*
X47440Y-62632D01*
X47384Y-62744D01*
X47328Y-62800D01*
X47215Y-62857D01*
X46991Y-62857D01*
X46878Y-62800D01*
X47947Y-62744D02*
X48003Y-62800D01*
X47947Y-62857D01*
X47890Y-62800D01*
X47947Y-62744D01*
X47947Y-62857D01*
X47947Y-62125D02*
X48003Y-62182D01*
X47947Y-62238D01*
X47890Y-62182D01*
X47947Y-62125D01*
X47947Y-62238D01*
X38661Y-64744D02*
X38779Y-64862D01*
X38779Y-64744D02*
X38661Y-64862D01*
X40073Y-64156D02*
X40185Y-64156D01*
X40298Y-64212D01*
X40354Y-64268D01*
X40410Y-64381D01*
X40466Y-64606D01*
X40466Y-64887D01*
X40410Y-65112D01*
X40354Y-65224D01*
X40298Y-65281D01*
X40185Y-65337D01*
X40073Y-65337D01*
X39960Y-65281D01*
X39904Y-65224D01*
X39848Y-65112D01*
X39791Y-64887D01*
X39791Y-64606D01*
X39848Y-64381D01*
X39904Y-64268D01*
X39960Y-64212D01*
X40073Y-64156D01*
X40973Y-65224D02*
X41029Y-65281D01*
X40973Y-65337D01*
X40916Y-65281D01*
X40973Y-65224D01*
X40973Y-65337D01*
X41422Y-64156D02*
X42154Y-64156D01*
X41760Y-64606D01*
X41929Y-64606D01*
X42041Y-64662D01*
X42097Y-64718D01*
X42154Y-64831D01*
X42154Y-65112D01*
X42097Y-65224D01*
X42041Y-65281D01*
X41929Y-65337D01*
X41591Y-65337D01*
X41479Y-65281D01*
X41422Y-65224D01*
X42885Y-64156D02*
X42997Y-64156D01*
X43110Y-64212D01*
X43166Y-64268D01*
X43222Y-64381D01*
X43278Y-64606D01*
X43278Y-64887D01*
X43222Y-65112D01*
X43166Y-65224D01*
X43110Y-65281D01*
X42997Y-65337D01*
X42885Y-65337D01*
X42772Y-65281D01*
X42716Y-65224D01*
X42660Y-65112D01*
X42604Y-64887D01*
X42604Y-64606D01*
X42660Y-64381D01*
X42716Y-64268D01*
X42772Y-64212D01*
X42885Y-64156D01*
X43785Y-65337D02*
X43785Y-64550D01*
X43785Y-64662D02*
X43841Y-64606D01*
X43953Y-64550D01*
X44122Y-64550D01*
X44235Y-64606D01*
X44291Y-64718D01*
X44291Y-65337D01*
X44291Y-64718D02*
X44347Y-64606D01*
X44460Y-64550D01*
X44628Y-64550D01*
X44741Y-64606D01*
X44797Y-64718D01*
X44797Y-65337D01*
X45359Y-65337D02*
X45359Y-64550D01*
X45359Y-64662D02*
X45416Y-64606D01*
X45528Y-64550D01*
X45697Y-64550D01*
X45809Y-64606D01*
X45866Y-64718D01*
X45866Y-65337D01*
X45866Y-64718D02*
X45922Y-64606D01*
X46034Y-64550D01*
X46203Y-64550D01*
X46316Y-64606D01*
X46372Y-64718D01*
X46372Y-65337D01*
X48678Y-64100D02*
X47665Y-65618D01*
X50196Y-64156D02*
X50309Y-64156D01*
X50421Y-64212D01*
X50478Y-64268D01*
X50534Y-64381D01*
X50590Y-64606D01*
X50590Y-64887D01*
X50534Y-65112D01*
X50478Y-65224D01*
X50421Y-65281D01*
X50309Y-65337D01*
X50196Y-65337D01*
X50084Y-65281D01*
X50028Y-65224D01*
X49971Y-65112D01*
X49915Y-64887D01*
X49915Y-64606D01*
X49971Y-64381D01*
X50028Y-64268D01*
X50084Y-64212D01*
X50196Y-64156D01*
X51096Y-65224D02*
X51152Y-65281D01*
X51096Y-65337D01*
X51040Y-65281D01*
X51096Y-65224D01*
X51096Y-65337D01*
X51884Y-64156D02*
X51996Y-64156D01*
X52109Y-64212D01*
X52165Y-64268D01*
X52221Y-64381D01*
X52277Y-64606D01*
X52277Y-64887D01*
X52221Y-65112D01*
X52165Y-65224D01*
X52109Y-65281D01*
X51996Y-65337D01*
X51884Y-65337D01*
X51771Y-65281D01*
X51715Y-65224D01*
X51659Y-65112D01*
X51602Y-64887D01*
X51602Y-64606D01*
X51659Y-64381D01*
X51715Y-64268D01*
X51771Y-64212D01*
X51884Y-64156D01*
X53402Y-65337D02*
X52727Y-65337D01*
X53065Y-65337D02*
X53065Y-64156D01*
X52952Y-64325D01*
X52840Y-64437D01*
X52727Y-64493D01*
X53852Y-64268D02*
X53908Y-64212D01*
X54021Y-64156D01*
X54302Y-64156D01*
X54415Y-64212D01*
X54471Y-64268D01*
X54527Y-64381D01*
X54527Y-64493D01*
X54471Y-64662D01*
X53796Y-65337D01*
X54527Y-65337D01*
X54977Y-64156D02*
X54977Y-64381D01*
X55427Y-64156D02*
X55427Y-64381D01*
X57170Y-65787D02*
X57114Y-65731D01*
X57002Y-65562D01*
X56946Y-65449D01*
X56889Y-65281D01*
X56833Y-65000D01*
X56833Y-64775D01*
X56889Y-64493D01*
X56946Y-64325D01*
X57002Y-64212D01*
X57114Y-64043D01*
X57170Y-63987D01*
X58127Y-64550D02*
X58127Y-65337D01*
X57845Y-64100D02*
X57564Y-64943D01*
X58295Y-64943D01*
X58689Y-64268D02*
X58745Y-64212D01*
X58858Y-64156D01*
X59139Y-64156D01*
X59251Y-64212D01*
X59308Y-64268D01*
X59364Y-64381D01*
X59364Y-64493D01*
X59308Y-64662D01*
X58633Y-65337D01*
X59364Y-65337D01*
X60095Y-64156D02*
X60208Y-64156D01*
X60320Y-64212D01*
X60376Y-64268D01*
X60433Y-64381D01*
X60489Y-64606D01*
X60489Y-64887D01*
X60433Y-65112D01*
X60376Y-65224D01*
X60320Y-65281D01*
X60208Y-65337D01*
X60095Y-65337D01*
X59983Y-65281D01*
X59926Y-65224D01*
X59870Y-65112D01*
X59814Y-64887D01*
X59814Y-64606D01*
X59870Y-64381D01*
X59926Y-64268D01*
X59983Y-64212D01*
X60095Y-64156D01*
X61895Y-65337D02*
X61895Y-64156D01*
X62401Y-65337D02*
X62401Y-64718D01*
X62345Y-64606D01*
X62232Y-64550D01*
X62064Y-64550D01*
X61951Y-64606D01*
X61895Y-64662D01*
X63132Y-65337D02*
X63020Y-65281D01*
X62964Y-65224D01*
X62907Y-65112D01*
X62907Y-64775D01*
X62964Y-64662D01*
X63020Y-64606D01*
X63132Y-64550D01*
X63301Y-64550D01*
X63413Y-64606D01*
X63470Y-64662D01*
X63526Y-64775D01*
X63526Y-65112D01*
X63470Y-65224D01*
X63413Y-65281D01*
X63301Y-65337D01*
X63132Y-65337D01*
X64201Y-65337D02*
X64088Y-65281D01*
X64032Y-65168D01*
X64032Y-64156D01*
X65101Y-65281D02*
X64988Y-65337D01*
X64763Y-65337D01*
X64651Y-65281D01*
X64595Y-65168D01*
X64595Y-64718D01*
X64651Y-64606D01*
X64763Y-64550D01*
X64988Y-64550D01*
X65101Y-64606D01*
X65157Y-64718D01*
X65157Y-64831D01*
X64595Y-64943D01*
X65607Y-65281D02*
X65719Y-65337D01*
X65944Y-65337D01*
X66057Y-65281D01*
X66113Y-65168D01*
X66113Y-65112D01*
X66057Y-65000D01*
X65944Y-64943D01*
X65776Y-64943D01*
X65663Y-64887D01*
X65607Y-64775D01*
X65607Y-64718D01*
X65663Y-64606D01*
X65776Y-64550D01*
X65944Y-64550D01*
X66057Y-64606D01*
X66507Y-65787D02*
X66563Y-65731D01*
X66676Y-65562D01*
X66732Y-65449D01*
X66788Y-65281D01*
X66844Y-65000D01*
X66844Y-64775D01*
X66788Y-64493D01*
X66732Y-64325D01*
X66676Y-64212D01*
X66563Y-64043D01*
X66507Y-63987D01*
G54D11*
X38779Y-66362D02*
G75*
G03X38779Y-66362I-68J0D01*
G74*
G01*
G54D12*
X40073Y-65715D02*
X40185Y-65715D01*
X40298Y-65771D01*
X40354Y-65827D01*
X40410Y-65940D01*
X40466Y-66165D01*
X40466Y-66446D01*
X40410Y-66671D01*
X40354Y-66784D01*
X40298Y-66840D01*
X40185Y-66896D01*
X40073Y-66896D01*
X39960Y-66840D01*
X39904Y-66784D01*
X39848Y-66671D01*
X39791Y-66446D01*
X39791Y-66165D01*
X39848Y-65940D01*
X39904Y-65827D01*
X39960Y-65771D01*
X40073Y-65715D01*
X40973Y-66784D02*
X41029Y-66840D01*
X40973Y-66896D01*
X40916Y-66840D01*
X40973Y-66784D01*
X40973Y-66896D01*
X41422Y-65715D02*
X42154Y-65715D01*
X41760Y-66165D01*
X41929Y-66165D01*
X42041Y-66221D01*
X42097Y-66277D01*
X42154Y-66390D01*
X42154Y-66671D01*
X42097Y-66784D01*
X42041Y-66840D01*
X41929Y-66896D01*
X41591Y-66896D01*
X41479Y-66840D01*
X41422Y-66784D01*
X43222Y-65715D02*
X42660Y-65715D01*
X42604Y-66277D01*
X42660Y-66221D01*
X42772Y-66165D01*
X43053Y-66165D01*
X43166Y-66221D01*
X43222Y-66277D01*
X43278Y-66390D01*
X43278Y-66671D01*
X43222Y-66784D01*
X43166Y-66840D01*
X43053Y-66896D01*
X42772Y-66896D01*
X42660Y-66840D01*
X42604Y-66784D01*
X43785Y-66896D02*
X43785Y-66109D01*
X43785Y-66221D02*
X43841Y-66165D01*
X43953Y-66109D01*
X44122Y-66109D01*
X44235Y-66165D01*
X44291Y-66277D01*
X44291Y-66896D01*
X44291Y-66277D02*
X44347Y-66165D01*
X44460Y-66109D01*
X44628Y-66109D01*
X44741Y-66165D01*
X44797Y-66277D01*
X44797Y-66896D01*
X45359Y-66896D02*
X45359Y-66109D01*
X45359Y-66221D02*
X45416Y-66165D01*
X45528Y-66109D01*
X45697Y-66109D01*
X45809Y-66165D01*
X45866Y-66277D01*
X45866Y-66896D01*
X45866Y-66277D02*
X45922Y-66165D01*
X46034Y-66109D01*
X46203Y-66109D01*
X46316Y-66165D01*
X46372Y-66277D01*
X46372Y-66896D01*
X48678Y-65659D02*
X47665Y-67177D01*
X50196Y-65715D02*
X50309Y-65715D01*
X50421Y-65771D01*
X50478Y-65827D01*
X50534Y-65940D01*
X50590Y-66165D01*
X50590Y-66446D01*
X50534Y-66671D01*
X50478Y-66784D01*
X50421Y-66840D01*
X50309Y-66896D01*
X50196Y-66896D01*
X50084Y-66840D01*
X50028Y-66784D01*
X49971Y-66671D01*
X49915Y-66446D01*
X49915Y-66165D01*
X49971Y-65940D01*
X50028Y-65827D01*
X50084Y-65771D01*
X50196Y-65715D01*
X51096Y-66784D02*
X51152Y-66840D01*
X51096Y-66896D01*
X51040Y-66840D01*
X51096Y-66784D01*
X51096Y-66896D01*
X51884Y-65715D02*
X51996Y-65715D01*
X52109Y-65771D01*
X52165Y-65827D01*
X52221Y-65940D01*
X52277Y-66165D01*
X52277Y-66446D01*
X52221Y-66671D01*
X52165Y-66784D01*
X52109Y-66840D01*
X51996Y-66896D01*
X51884Y-66896D01*
X51771Y-66840D01*
X51715Y-66784D01*
X51659Y-66671D01*
X51602Y-66446D01*
X51602Y-66165D01*
X51659Y-65940D01*
X51715Y-65827D01*
X51771Y-65771D01*
X51884Y-65715D01*
X53402Y-66896D02*
X52727Y-66896D01*
X53065Y-66896D02*
X53065Y-65715D01*
X52952Y-65884D01*
X52840Y-65996D01*
X52727Y-66052D01*
X54415Y-66109D02*
X54415Y-66896D01*
X54133Y-65659D02*
X53852Y-66502D01*
X54583Y-66502D01*
X54977Y-65715D02*
X54977Y-65940D01*
X55427Y-65715D02*
X55427Y-65940D01*
X57170Y-67346D02*
X57114Y-67290D01*
X57002Y-67121D01*
X56946Y-67008D01*
X56889Y-66840D01*
X56833Y-66559D01*
X56833Y-66334D01*
X56889Y-66052D01*
X56946Y-65884D01*
X57002Y-65771D01*
X57114Y-65602D01*
X57170Y-65546D01*
X57564Y-65827D02*
X57620Y-65771D01*
X57733Y-65715D01*
X58014Y-65715D01*
X58127Y-65771D01*
X58183Y-65827D01*
X58239Y-65940D01*
X58239Y-66052D01*
X58183Y-66221D01*
X57508Y-66896D01*
X58239Y-66896D01*
X59251Y-65715D02*
X59026Y-65715D01*
X58914Y-65771D01*
X58858Y-65827D01*
X58745Y-65996D01*
X58689Y-66221D01*
X58689Y-66671D01*
X58745Y-66784D01*
X58802Y-66840D01*
X58914Y-66896D01*
X59139Y-66896D01*
X59251Y-66840D01*
X59308Y-66784D01*
X59364Y-66671D01*
X59364Y-66390D01*
X59308Y-66277D01*
X59251Y-66221D01*
X59139Y-66165D01*
X58914Y-66165D01*
X58802Y-66221D01*
X58745Y-66277D01*
X58689Y-66390D01*
X60095Y-65715D02*
X60208Y-65715D01*
X60320Y-65771D01*
X60376Y-65827D01*
X60433Y-65940D01*
X60489Y-66165D01*
X60489Y-66446D01*
X60433Y-66671D01*
X60376Y-66784D01*
X60320Y-66840D01*
X60208Y-66896D01*
X60095Y-66896D01*
X59983Y-66840D01*
X59926Y-66784D01*
X59870Y-66671D01*
X59814Y-66446D01*
X59814Y-66165D01*
X59870Y-65940D01*
X59926Y-65827D01*
X59983Y-65771D01*
X60095Y-65715D01*
X61895Y-66896D02*
X61895Y-65715D01*
X62401Y-66896D02*
X62401Y-66277D01*
X62345Y-66165D01*
X62232Y-66109D01*
X62064Y-66109D01*
X61951Y-66165D01*
X61895Y-66221D01*
X63132Y-66896D02*
X63020Y-66840D01*
X62964Y-66784D01*
X62907Y-66671D01*
X62907Y-66334D01*
X62964Y-66221D01*
X63020Y-66165D01*
X63132Y-66109D01*
X63301Y-66109D01*
X63413Y-66165D01*
X63470Y-66221D01*
X63526Y-66334D01*
X63526Y-66671D01*
X63470Y-66784D01*
X63413Y-66840D01*
X63301Y-66896D01*
X63132Y-66896D01*
X64201Y-66896D02*
X64088Y-66840D01*
X64032Y-66727D01*
X64032Y-65715D01*
X65101Y-66840D02*
X64988Y-66896D01*
X64763Y-66896D01*
X64651Y-66840D01*
X64595Y-66727D01*
X64595Y-66277D01*
X64651Y-66165D01*
X64763Y-66109D01*
X64988Y-66109D01*
X65101Y-66165D01*
X65157Y-66277D01*
X65157Y-66390D01*
X64595Y-66502D01*
X65607Y-66840D02*
X65719Y-66896D01*
X65944Y-66896D01*
X66057Y-66840D01*
X66113Y-66727D01*
X66113Y-66671D01*
X66057Y-66559D01*
X65944Y-66502D01*
X65776Y-66502D01*
X65663Y-66446D01*
X65607Y-66334D01*
X65607Y-66277D01*
X65663Y-66165D01*
X65776Y-66109D01*
X65944Y-66109D01*
X66057Y-66165D01*
X66507Y-67346D02*
X66563Y-67290D01*
X66676Y-67121D01*
X66732Y-67008D01*
X66788Y-66840D01*
X66844Y-66559D01*
X66844Y-66334D01*
X66788Y-66052D01*
X66732Y-65884D01*
X66676Y-65771D01*
X66563Y-65602D01*
X66507Y-65546D01*
X38504Y-67645D02*
X38504Y-68196D01*
X38228Y-67921D02*
X38779Y-67921D01*
X40466Y-68455D02*
X39791Y-68455D01*
X40129Y-68455D02*
X40129Y-67274D01*
X40016Y-67443D01*
X39904Y-67555D01*
X39791Y-67611D01*
X40973Y-68343D02*
X41029Y-68399D01*
X40973Y-68455D01*
X40916Y-68399D01*
X40973Y-68343D01*
X40973Y-68455D01*
X42041Y-67668D02*
X42041Y-68455D01*
X41760Y-67218D02*
X41479Y-68061D01*
X42210Y-68061D01*
X42885Y-67274D02*
X42997Y-67274D01*
X43110Y-67330D01*
X43166Y-67386D01*
X43222Y-67499D01*
X43278Y-67724D01*
X43278Y-68005D01*
X43222Y-68230D01*
X43166Y-68343D01*
X43110Y-68399D01*
X42997Y-68455D01*
X42885Y-68455D01*
X42772Y-68399D01*
X42716Y-68343D01*
X42660Y-68230D01*
X42604Y-68005D01*
X42604Y-67724D01*
X42660Y-67499D01*
X42716Y-67386D01*
X42772Y-67330D01*
X42885Y-67274D01*
X43785Y-68455D02*
X43785Y-67668D01*
X43785Y-67780D02*
X43841Y-67724D01*
X43953Y-67668D01*
X44122Y-67668D01*
X44235Y-67724D01*
X44291Y-67836D01*
X44291Y-68455D01*
X44291Y-67836D02*
X44347Y-67724D01*
X44460Y-67668D01*
X44628Y-67668D01*
X44741Y-67724D01*
X44797Y-67836D01*
X44797Y-68455D01*
X45359Y-68455D02*
X45359Y-67668D01*
X45359Y-67780D02*
X45416Y-67724D01*
X45528Y-67668D01*
X45697Y-67668D01*
X45809Y-67724D01*
X45866Y-67836D01*
X45866Y-68455D01*
X45866Y-67836D02*
X45922Y-67724D01*
X46034Y-67668D01*
X46203Y-67668D01*
X46316Y-67724D01*
X46372Y-67836D01*
X46372Y-68455D01*
X48678Y-67218D02*
X47665Y-68736D01*
X50196Y-67274D02*
X50309Y-67274D01*
X50421Y-67330D01*
X50478Y-67386D01*
X50534Y-67499D01*
X50590Y-67724D01*
X50590Y-68005D01*
X50534Y-68230D01*
X50478Y-68343D01*
X50421Y-68399D01*
X50309Y-68455D01*
X50196Y-68455D01*
X50084Y-68399D01*
X50028Y-68343D01*
X49971Y-68230D01*
X49915Y-68005D01*
X49915Y-67724D01*
X49971Y-67499D01*
X50028Y-67386D01*
X50084Y-67330D01*
X50196Y-67274D01*
X51096Y-68343D02*
X51152Y-68399D01*
X51096Y-68455D01*
X51040Y-68399D01*
X51096Y-68343D01*
X51096Y-68455D01*
X51884Y-67274D02*
X51996Y-67274D01*
X52109Y-67330D01*
X52165Y-67386D01*
X52221Y-67499D01*
X52277Y-67724D01*
X52277Y-68005D01*
X52221Y-68230D01*
X52165Y-68343D01*
X52109Y-68399D01*
X51996Y-68455D01*
X51884Y-68455D01*
X51771Y-68399D01*
X51715Y-68343D01*
X51659Y-68230D01*
X51602Y-68005D01*
X51602Y-67724D01*
X51659Y-67499D01*
X51715Y-67386D01*
X51771Y-67330D01*
X51884Y-67274D01*
X53346Y-67274D02*
X52784Y-67274D01*
X52727Y-67836D01*
X52784Y-67780D01*
X52896Y-67724D01*
X53177Y-67724D01*
X53290Y-67780D01*
X53346Y-67836D01*
X53402Y-67949D01*
X53402Y-68230D01*
X53346Y-68343D01*
X53290Y-68399D01*
X53177Y-68455D01*
X52896Y-68455D01*
X52784Y-68399D01*
X52727Y-68343D01*
X54471Y-67274D02*
X53908Y-67274D01*
X53852Y-67836D01*
X53908Y-67780D01*
X54021Y-67724D01*
X54302Y-67724D01*
X54415Y-67780D01*
X54471Y-67836D01*
X54527Y-67949D01*
X54527Y-68230D01*
X54471Y-68343D01*
X54415Y-68399D01*
X54302Y-68455D01*
X54021Y-68455D01*
X53908Y-68399D01*
X53852Y-68343D01*
X54977Y-67274D02*
X54977Y-67499D01*
X55427Y-67274D02*
X55427Y-67499D01*
X57170Y-68905D02*
X57114Y-68849D01*
X57002Y-68680D01*
X56946Y-68568D01*
X56889Y-68399D01*
X56833Y-68118D01*
X56833Y-67893D01*
X56889Y-67611D01*
X56946Y-67443D01*
X57002Y-67330D01*
X57114Y-67161D01*
X57170Y-67105D01*
X58127Y-67274D02*
X57902Y-67274D01*
X57789Y-67330D01*
X57733Y-67386D01*
X57620Y-67555D01*
X57564Y-67780D01*
X57564Y-68230D01*
X57620Y-68343D01*
X57677Y-68399D01*
X57789Y-68455D01*
X58014Y-68455D01*
X58127Y-68399D01*
X58183Y-68343D01*
X58239Y-68230D01*
X58239Y-67949D01*
X58183Y-67836D01*
X58127Y-67780D01*
X58014Y-67724D01*
X57789Y-67724D01*
X57677Y-67780D01*
X57620Y-67836D01*
X57564Y-67949D01*
X59645Y-68455D02*
X59645Y-67274D01*
X60151Y-68455D02*
X60151Y-67836D01*
X60095Y-67724D01*
X59983Y-67668D01*
X59814Y-67668D01*
X59701Y-67724D01*
X59645Y-67780D01*
X60883Y-68455D02*
X60770Y-68399D01*
X60714Y-68343D01*
X60658Y-68230D01*
X60658Y-67893D01*
X60714Y-67780D01*
X60770Y-67724D01*
X60883Y-67668D01*
X61051Y-67668D01*
X61164Y-67724D01*
X61220Y-67780D01*
X61276Y-67893D01*
X61276Y-68230D01*
X61220Y-68343D01*
X61164Y-68399D01*
X61051Y-68455D01*
X60883Y-68455D01*
X61951Y-68455D02*
X61839Y-68399D01*
X61782Y-68286D01*
X61782Y-67274D01*
X62851Y-68399D02*
X62739Y-68455D01*
X62514Y-68455D01*
X62401Y-68399D01*
X62345Y-68286D01*
X62345Y-67836D01*
X62401Y-67724D01*
X62514Y-67668D01*
X62739Y-67668D01*
X62851Y-67724D01*
X62907Y-67836D01*
X62907Y-67949D01*
X62345Y-68061D01*
X63357Y-68399D02*
X63470Y-68455D01*
X63695Y-68455D01*
X63807Y-68399D01*
X63863Y-68286D01*
X63863Y-68230D01*
X63807Y-68118D01*
X63695Y-68061D01*
X63526Y-68061D01*
X63413Y-68005D01*
X63357Y-67893D01*
X63357Y-67836D01*
X63413Y-67724D01*
X63526Y-67668D01*
X63695Y-67668D01*
X63807Y-67724D01*
X64257Y-68905D02*
X64313Y-68849D01*
X64426Y-68680D01*
X64482Y-68568D01*
X64538Y-68399D01*
X64595Y-68118D01*
X64595Y-67893D01*
X64538Y-67611D01*
X64482Y-67443D01*
X64426Y-67330D01*
X64313Y-67161D01*
X64257Y-67105D01*
G54D11*
X38606Y-69897D02*
X38606Y-69062D01*
X37771Y-69062D01*
X37771Y-69897D01*
X38606Y-69897D01*
G54D12*
X39735Y-68833D02*
X40466Y-68833D01*
X40073Y-69283D01*
X40241Y-69283D01*
X40354Y-69339D01*
X40410Y-69395D01*
X40466Y-69508D01*
X40466Y-69789D01*
X40410Y-69902D01*
X40354Y-69958D01*
X40241Y-70014D01*
X39904Y-70014D01*
X39791Y-69958D01*
X39735Y-69902D01*
X40973Y-69902D02*
X41029Y-69958D01*
X40973Y-70014D01*
X40916Y-69958D01*
X40973Y-69902D01*
X40973Y-70014D01*
X41760Y-68833D02*
X41872Y-68833D01*
X41985Y-68889D01*
X42041Y-68946D01*
X42097Y-69058D01*
X42154Y-69283D01*
X42154Y-69564D01*
X42097Y-69789D01*
X42041Y-69902D01*
X41985Y-69958D01*
X41872Y-70014D01*
X41760Y-70014D01*
X41647Y-69958D01*
X41591Y-69902D01*
X41535Y-69789D01*
X41479Y-69564D01*
X41479Y-69283D01*
X41535Y-69058D01*
X41591Y-68946D01*
X41647Y-68889D01*
X41760Y-68833D01*
X42885Y-68833D02*
X42997Y-68833D01*
X43110Y-68889D01*
X43166Y-68946D01*
X43222Y-69058D01*
X43278Y-69283D01*
X43278Y-69564D01*
X43222Y-69789D01*
X43166Y-69902D01*
X43110Y-69958D01*
X42997Y-70014D01*
X42885Y-70014D01*
X42772Y-69958D01*
X42716Y-69902D01*
X42660Y-69789D01*
X42604Y-69564D01*
X42604Y-69283D01*
X42660Y-69058D01*
X42716Y-68946D01*
X42772Y-68889D01*
X42885Y-68833D01*
X43785Y-70014D02*
X43785Y-69227D01*
X43785Y-69339D02*
X43841Y-69283D01*
X43953Y-69227D01*
X44122Y-69227D01*
X44235Y-69283D01*
X44291Y-69395D01*
X44291Y-70014D01*
X44291Y-69395D02*
X44347Y-69283D01*
X44460Y-69227D01*
X44628Y-69227D01*
X44741Y-69283D01*
X44797Y-69395D01*
X44797Y-70014D01*
X45359Y-70014D02*
X45359Y-69227D01*
X45359Y-69339D02*
X45416Y-69283D01*
X45528Y-69227D01*
X45697Y-69227D01*
X45809Y-69283D01*
X45866Y-69395D01*
X45866Y-70014D01*
X45866Y-69395D02*
X45922Y-69283D01*
X46034Y-69227D01*
X46203Y-69227D01*
X46316Y-69283D01*
X46372Y-69395D01*
X46372Y-70014D01*
X48678Y-68777D02*
X47665Y-70295D01*
X50196Y-68833D02*
X50309Y-68833D01*
X50421Y-68889D01*
X50478Y-68946D01*
X50534Y-69058D01*
X50590Y-69283D01*
X50590Y-69564D01*
X50534Y-69789D01*
X50478Y-69902D01*
X50421Y-69958D01*
X50309Y-70014D01*
X50196Y-70014D01*
X50084Y-69958D01*
X50028Y-69902D01*
X49971Y-69789D01*
X49915Y-69564D01*
X49915Y-69283D01*
X49971Y-69058D01*
X50028Y-68946D01*
X50084Y-68889D01*
X50196Y-68833D01*
X51096Y-69902D02*
X51152Y-69958D01*
X51096Y-70014D01*
X51040Y-69958D01*
X51096Y-69902D01*
X51096Y-70014D01*
X52277Y-70014D02*
X51602Y-70014D01*
X51940Y-70014D02*
X51940Y-68833D01*
X51827Y-69002D01*
X51715Y-69114D01*
X51602Y-69170D01*
X53402Y-70014D02*
X52727Y-70014D01*
X53065Y-70014D02*
X53065Y-68833D01*
X52952Y-69002D01*
X52840Y-69114D01*
X52727Y-69170D01*
X54077Y-69339D02*
X53965Y-69283D01*
X53908Y-69227D01*
X53852Y-69114D01*
X53852Y-69058D01*
X53908Y-68946D01*
X53965Y-68889D01*
X54077Y-68833D01*
X54302Y-68833D01*
X54415Y-68889D01*
X54471Y-68946D01*
X54527Y-69058D01*
X54527Y-69114D01*
X54471Y-69227D01*
X54415Y-69283D01*
X54302Y-69339D01*
X54077Y-69339D01*
X53965Y-69395D01*
X53908Y-69452D01*
X53852Y-69564D01*
X53852Y-69789D01*
X53908Y-69902D01*
X53965Y-69958D01*
X54077Y-70014D01*
X54302Y-70014D01*
X54415Y-69958D01*
X54471Y-69902D01*
X54527Y-69789D01*
X54527Y-69564D01*
X54471Y-69452D01*
X54415Y-69395D01*
X54302Y-69339D01*
X54977Y-68833D02*
X54977Y-69058D01*
X55427Y-68833D02*
X55427Y-69058D01*
X57170Y-70464D02*
X57114Y-70408D01*
X57002Y-70239D01*
X56946Y-70127D01*
X56889Y-69958D01*
X56833Y-69677D01*
X56833Y-69452D01*
X56889Y-69170D01*
X56946Y-69002D01*
X57002Y-68889D01*
X57114Y-68721D01*
X57170Y-68664D01*
X57789Y-69339D02*
X57677Y-69283D01*
X57620Y-69227D01*
X57564Y-69114D01*
X57564Y-69058D01*
X57620Y-68946D01*
X57677Y-68889D01*
X57789Y-68833D01*
X58014Y-68833D01*
X58127Y-68889D01*
X58183Y-68946D01*
X58239Y-69058D01*
X58239Y-69114D01*
X58183Y-69227D01*
X58127Y-69283D01*
X58014Y-69339D01*
X57789Y-69339D01*
X57677Y-69395D01*
X57620Y-69452D01*
X57564Y-69564D01*
X57564Y-69789D01*
X57620Y-69902D01*
X57677Y-69958D01*
X57789Y-70014D01*
X58014Y-70014D01*
X58127Y-69958D01*
X58183Y-69902D01*
X58239Y-69789D01*
X58239Y-69564D01*
X58183Y-69452D01*
X58127Y-69395D01*
X58014Y-69339D01*
X59645Y-70014D02*
X59645Y-68833D01*
X60151Y-70014D02*
X60151Y-69395D01*
X60095Y-69283D01*
X59983Y-69227D01*
X59814Y-69227D01*
X59701Y-69283D01*
X59645Y-69339D01*
X60883Y-70014D02*
X60770Y-69958D01*
X60714Y-69902D01*
X60658Y-69789D01*
X60658Y-69452D01*
X60714Y-69339D01*
X60770Y-69283D01*
X60883Y-69227D01*
X61051Y-69227D01*
X61164Y-69283D01*
X61220Y-69339D01*
X61276Y-69452D01*
X61276Y-69789D01*
X61220Y-69902D01*
X61164Y-69958D01*
X61051Y-70014D01*
X60883Y-70014D01*
X61951Y-70014D02*
X61839Y-69958D01*
X61782Y-69845D01*
X61782Y-68833D01*
X62851Y-69958D02*
X62739Y-70014D01*
X62514Y-70014D01*
X62401Y-69958D01*
X62345Y-69845D01*
X62345Y-69395D01*
X62401Y-69283D01*
X62514Y-69227D01*
X62739Y-69227D01*
X62851Y-69283D01*
X62907Y-69395D01*
X62907Y-69508D01*
X62345Y-69620D01*
X63357Y-69958D02*
X63470Y-70014D01*
X63695Y-70014D01*
X63807Y-69958D01*
X63863Y-69845D01*
X63863Y-69789D01*
X63807Y-69677D01*
X63695Y-69620D01*
X63526Y-69620D01*
X63413Y-69564D01*
X63357Y-69452D01*
X63357Y-69395D01*
X63413Y-69283D01*
X63526Y-69227D01*
X63695Y-69227D01*
X63807Y-69283D01*
X64257Y-70464D02*
X64313Y-70408D01*
X64426Y-70239D01*
X64482Y-70127D01*
X64538Y-69958D01*
X64595Y-69677D01*
X64595Y-69452D01*
X64538Y-69170D01*
X64482Y-69002D01*
X64426Y-68889D01*
X64313Y-68721D01*
X64257Y-68664D01*
M02*
