G04 (created by PCBNEW (2013-mar-13)-testing) date Sat 11 May 2013 01:37:56 PM ICT*
%MOIN*%
G04 Gerber Fmt 3.4, Leading zero omitted, Abs format*
%FSLAX34Y34*%
G01*
G70*
G90*
G04 APERTURE LIST*
%ADD10C,0.00393701*%
%ADD11C,0.16*%
%ADD12C,0.15748*%
%ADD13O,0.0826X0.0826*%
%ADD14C,0.023622*%
%ADD15C,0.019685*%
%ADD16C,0.0118*%
%ADD17C,0.011811*%
G04 APERTURE END LIST*
G54D10*
G54D11*
X46062Y-30511D03*
G54D12*
X40866Y-23740D03*
G54D13*
X44252Y-43267D03*
X44252Y-41614D03*
X44252Y-39961D03*
X45904Y-39961D03*
X45904Y-41614D03*
X45904Y-43267D03*
G54D11*
X76062Y-23740D03*
X76062Y-58937D03*
X40866Y-58937D03*
X70472Y-30511D03*
X46062Y-52165D03*
X70472Y-52165D03*
G54D14*
X62578Y-45610D03*
X64389Y-45610D03*
X57952Y-48267D03*
X56062Y-47480D03*
X59015Y-34429D03*
X61023Y-35314D03*
X62519Y-42559D03*
X65078Y-42559D03*
X68169Y-39507D03*
X68543Y-31299D03*
X73582Y-31299D03*
X68543Y-25275D03*
X66456Y-31299D03*
X73661Y-25275D03*
X66574Y-25275D03*
X42362Y-25275D03*
X47913Y-25275D03*
X47913Y-31279D03*
X42047Y-31259D03*
X49192Y-25275D03*
X49212Y-31279D03*
X68562Y-51437D03*
X68188Y-40669D03*
X67303Y-51437D03*
X68543Y-57283D03*
X74311Y-51377D03*
X74704Y-57283D03*
X67283Y-57303D03*
X50000Y-57303D03*
X44133Y-57303D03*
X44133Y-51417D03*
X49960Y-51476D03*
X42913Y-57381D03*
X69350Y-38582D03*
X72795Y-39370D03*
X69980Y-38956D03*
X72342Y-39370D03*
X77185Y-50925D03*
X68897Y-22185D03*
X68858Y-60531D03*
X77145Y-38346D03*
X77145Y-31751D03*
X77637Y-52145D03*
X70984Y-22185D03*
X71082Y-60531D03*
X77618Y-30531D03*
X77657Y-37893D03*
X74881Y-44901D03*
X75019Y-46614D03*
X67185Y-59527D03*
X68937Y-23169D03*
X69232Y-54546D03*
X44783Y-48640D03*
X42539Y-52341D03*
G54D15*
X74291Y-56003D03*
X74901Y-56003D03*
X74901Y-55413D03*
X74901Y-54822D03*
X74901Y-54232D03*
X74311Y-54232D03*
X74311Y-54822D03*
X73720Y-54822D03*
X73720Y-54232D03*
X73129Y-54233D03*
X73129Y-54822D03*
X73129Y-55413D03*
X73129Y-56003D03*
X73720Y-56003D03*
X73720Y-55413D03*
X74310Y-55413D03*
X67224Y-55413D03*
X74310Y-49507D03*
X67204Y-50098D03*
X67814Y-50098D03*
X67814Y-49507D03*
X67814Y-48917D03*
X67814Y-48326D03*
X67224Y-48326D03*
X67224Y-48917D03*
X66633Y-48917D03*
X66633Y-48326D03*
X66043Y-48327D03*
X66043Y-48917D03*
X66043Y-49507D03*
X66043Y-50098D03*
X66634Y-50098D03*
X66633Y-49507D03*
X67224Y-49507D03*
X49901Y-55423D03*
X42814Y-55423D03*
X49901Y-49517D03*
X42795Y-50108D03*
X43405Y-50108D03*
X43405Y-49517D03*
X43405Y-48927D03*
X43405Y-48336D03*
X42814Y-48336D03*
X42814Y-48927D03*
X42224Y-48927D03*
X42224Y-48336D03*
X41633Y-48337D03*
X41633Y-48927D03*
X41633Y-49517D03*
X41633Y-50108D03*
X42224Y-50108D03*
X42224Y-49517D03*
X42814Y-49517D03*
G54D14*
X73976Y-30394D03*
X71771Y-34036D03*
G54D15*
X73720Y-33169D03*
X66634Y-33169D03*
X73740Y-26673D03*
X73129Y-26673D03*
X73129Y-27263D03*
X73129Y-27854D03*
X73129Y-28444D03*
X73720Y-28444D03*
X73720Y-27854D03*
X74311Y-27854D03*
X74311Y-28444D03*
X74901Y-28444D03*
X74901Y-27854D03*
X74901Y-27264D03*
X74901Y-26673D03*
X74310Y-26673D03*
X74311Y-27263D03*
X73720Y-27263D03*
G54D14*
X71692Y-28130D03*
X64645Y-28130D03*
G54D15*
X66653Y-26673D03*
X66043Y-26673D03*
X66043Y-27263D03*
X66043Y-27854D03*
X66043Y-28444D03*
X66633Y-28444D03*
X66633Y-27854D03*
X67224Y-27854D03*
X67224Y-28444D03*
X67814Y-28444D03*
X67814Y-27854D03*
X67814Y-27264D03*
X67814Y-26673D03*
X67224Y-26673D03*
X67224Y-27263D03*
X66634Y-27263D03*
G54D14*
X49527Y-30412D03*
G54D15*
X49330Y-32578D03*
X48720Y-32578D03*
X48720Y-33169D03*
X48720Y-33759D03*
X48720Y-34350D03*
X49311Y-34350D03*
X49311Y-33759D03*
X49901Y-33759D03*
X49901Y-34350D03*
X50492Y-34349D03*
X50492Y-33759D03*
X50492Y-33169D03*
X50492Y-32578D03*
X49901Y-32578D03*
X49901Y-33169D03*
X49311Y-33169D03*
X42244Y-32578D03*
X41633Y-32578D03*
X41633Y-33169D03*
X41633Y-33759D03*
X41633Y-34350D03*
X42224Y-34350D03*
X42224Y-33759D03*
X42814Y-33759D03*
X42814Y-34350D03*
X43405Y-34349D03*
X43405Y-33759D03*
X43405Y-33169D03*
X43405Y-32578D03*
X42814Y-32578D03*
X42814Y-33169D03*
X42224Y-33169D03*
X49330Y-26673D03*
X48720Y-26673D03*
X48720Y-27263D03*
X48720Y-27854D03*
X48720Y-28444D03*
X49311Y-28444D03*
X49311Y-27854D03*
X49901Y-27854D03*
X49901Y-28444D03*
X50492Y-28444D03*
X50492Y-27854D03*
X50492Y-27264D03*
X50492Y-26673D03*
X49901Y-26673D03*
X49901Y-27263D03*
X49311Y-27263D03*
X42224Y-27263D03*
G54D14*
X62224Y-33169D03*
X62224Y-33562D03*
X62224Y-33956D03*
X62224Y-34350D03*
X63425Y-41968D03*
X63425Y-41574D03*
X63425Y-41181D03*
X55118Y-49507D03*
X55118Y-49114D03*
X55118Y-48720D03*
X55118Y-48326D03*
X66496Y-38543D03*
X66102Y-38543D03*
X65708Y-38543D03*
X65314Y-38543D03*
G54D15*
X65098Y-41751D03*
X64744Y-41751D03*
X65098Y-41417D03*
X64744Y-41417D03*
G54D14*
X72736Y-44468D03*
X71496Y-40610D03*
X68543Y-40078D03*
X50335Y-57814D03*
X48896Y-57814D03*
X51870Y-55904D03*
X51850Y-54546D03*
X47342Y-56121D03*
X47322Y-54546D03*
X44822Y-55865D03*
X44842Y-54546D03*
X41594Y-57362D03*
X43248Y-57814D03*
X40177Y-56121D03*
X40196Y-54546D03*
X44783Y-49821D03*
X42539Y-46496D03*
X40275Y-48640D03*
X40275Y-50215D03*
X47342Y-48640D03*
X47342Y-50215D03*
X49625Y-52363D03*
X49606Y-46496D03*
X51811Y-48640D03*
X51830Y-49999D03*
X64566Y-50216D03*
X64724Y-48640D03*
X66909Y-46496D03*
X69232Y-48640D03*
X69251Y-50018D03*
X67007Y-52284D03*
X64685Y-54546D03*
X64704Y-56121D03*
X67658Y-57874D03*
X66219Y-57874D03*
X69232Y-55884D03*
X73996Y-52244D03*
X74804Y-57913D03*
X73365Y-57913D03*
X74725Y-24901D03*
X73286Y-24921D03*
X67617Y-24783D03*
X66180Y-24783D03*
X76299Y-55884D03*
X76299Y-54546D03*
X71791Y-54546D03*
X71791Y-56121D03*
X71732Y-50215D03*
X71732Y-48640D03*
X76338Y-49979D03*
X76358Y-48640D03*
X74035Y-46477D03*
X71692Y-26772D03*
X76279Y-26556D03*
X76259Y-28130D03*
X76259Y-34036D03*
X71771Y-32717D03*
X74035Y-36101D03*
X69153Y-26556D03*
X69153Y-28130D03*
X64685Y-26811D03*
X69192Y-32461D03*
X69212Y-34036D03*
X66811Y-30353D03*
X66889Y-36121D03*
X64724Y-32658D03*
X64724Y-34036D03*
X51850Y-32459D03*
X51850Y-34034D03*
X51889Y-28130D03*
X51870Y-26556D03*
X44822Y-32461D03*
X44822Y-34036D03*
X44842Y-26556D03*
X44822Y-28130D03*
X49606Y-36199D03*
X42539Y-36199D03*
X42480Y-30392D03*
X50256Y-24881D03*
X48817Y-24881D03*
X43445Y-24901D03*
X42006Y-24901D03*
X47362Y-34036D03*
X47401Y-32697D03*
X47381Y-28091D03*
X47362Y-26792D03*
X40275Y-33996D03*
X40295Y-32658D03*
X40275Y-26792D03*
X40295Y-28012D03*
G54D16*
X57437Y-36828D03*
X57712Y-45607D03*
X59484Y-36946D03*
X59641Y-45804D03*
G54D15*
X73720Y-49507D03*
X73720Y-50098D03*
X73129Y-50098D03*
X73129Y-49507D03*
X73129Y-48917D03*
X73129Y-48327D03*
X73720Y-48326D03*
X73720Y-48917D03*
X74311Y-48917D03*
X74311Y-48326D03*
X74901Y-48326D03*
X74901Y-48917D03*
X74901Y-49507D03*
X74901Y-50098D03*
X74291Y-50098D03*
X67224Y-33169D03*
X67224Y-32578D03*
X67814Y-32578D03*
X67814Y-33169D03*
X67814Y-33759D03*
X67814Y-34349D03*
X67224Y-34350D03*
X67224Y-33759D03*
X66633Y-33759D03*
X66633Y-34350D03*
X66043Y-34350D03*
X66043Y-33759D03*
X66043Y-33169D03*
X66043Y-32578D03*
X66653Y-32578D03*
X74311Y-33169D03*
X74310Y-32578D03*
X74901Y-32578D03*
X74901Y-33169D03*
X74901Y-33759D03*
X74901Y-34349D03*
X74311Y-34350D03*
X74311Y-33759D03*
X73720Y-33759D03*
X73720Y-34350D03*
X73129Y-34350D03*
X73129Y-33759D03*
X73129Y-33169D03*
X73129Y-32578D03*
X73740Y-32578D03*
X49311Y-49517D03*
X49311Y-50108D03*
X48720Y-50108D03*
X48720Y-49517D03*
X48720Y-48927D03*
X48720Y-48337D03*
X49311Y-48336D03*
X49311Y-48927D03*
X49901Y-48927D03*
X49901Y-48336D03*
X50492Y-48336D03*
X50492Y-48927D03*
X50492Y-49517D03*
X50492Y-50108D03*
X49881Y-50108D03*
X49311Y-55423D03*
X49311Y-56013D03*
X48720Y-56013D03*
X48720Y-55422D03*
X48720Y-54832D03*
X48720Y-54242D03*
X49311Y-54242D03*
X49311Y-54832D03*
X49901Y-54832D03*
X49901Y-54242D03*
X50492Y-54242D03*
X50492Y-54832D03*
X50492Y-55423D03*
X50492Y-56013D03*
X49881Y-56013D03*
X42814Y-27263D03*
X42814Y-26673D03*
X43405Y-26673D03*
X43405Y-27264D03*
X43405Y-27854D03*
X43405Y-28444D03*
X42814Y-28444D03*
X42814Y-27854D03*
X42224Y-27854D03*
X42224Y-28444D03*
X41633Y-28444D03*
X41633Y-27854D03*
X41633Y-27263D03*
X41633Y-26673D03*
X42244Y-26673D03*
X42224Y-55423D03*
X42224Y-56013D03*
X41633Y-56013D03*
X41633Y-55422D03*
X41633Y-54832D03*
X41633Y-54242D03*
X42224Y-54242D03*
X42224Y-54832D03*
X42814Y-54832D03*
X42814Y-54242D03*
X43405Y-54242D03*
X43405Y-54832D03*
X43405Y-55423D03*
X43405Y-56013D03*
X42795Y-56013D03*
X66633Y-55413D03*
X66634Y-56003D03*
X66043Y-56003D03*
X66043Y-55413D03*
X66043Y-54822D03*
X66043Y-54233D03*
X66633Y-54232D03*
X66633Y-54822D03*
X67224Y-54822D03*
X67224Y-54232D03*
X67814Y-54232D03*
X67814Y-54822D03*
X67814Y-55413D03*
X67814Y-56003D03*
X67204Y-56003D03*
G54D14*
X76259Y-32461D03*
X76417Y-28641D03*
X42421Y-30904D03*
X42559Y-51831D03*
X49645Y-51851D03*
X66988Y-51772D03*
X73919Y-30904D03*
X66832Y-30865D03*
X49509Y-30924D03*
X72381Y-38543D03*
X66948Y-58129D03*
X69685Y-39862D03*
X71653Y-55610D03*
X71614Y-54035D03*
X76299Y-54036D03*
X76358Y-48130D03*
X71574Y-49704D03*
X71574Y-48129D03*
X64547Y-55610D03*
X64566Y-54035D03*
X64586Y-49704D03*
X64586Y-48129D03*
X44822Y-54036D03*
X40039Y-55610D03*
X40059Y-54035D03*
X51850Y-54036D03*
X47185Y-54035D03*
X51830Y-48130D03*
X47204Y-49704D03*
X44783Y-48130D03*
X40118Y-49704D03*
X40118Y-48129D03*
X76397Y-32972D03*
X76397Y-34547D03*
X71751Y-34546D03*
X69350Y-32972D03*
X69370Y-34547D03*
X76456Y-27066D03*
X69311Y-27066D03*
X69291Y-28641D03*
X51988Y-32972D03*
X51968Y-34547D03*
X67086Y-40019D03*
X66692Y-40019D03*
X66692Y-39625D03*
X67086Y-39625D03*
X67086Y-39232D03*
X66692Y-39232D03*
X75000Y-38346D03*
X49625Y-58070D03*
X47578Y-55611D03*
X42716Y-57637D03*
X47165Y-48129D03*
X69232Y-48130D03*
X69232Y-54036D03*
X74074Y-58169D03*
X73996Y-51771D03*
X71712Y-28641D03*
X66889Y-24547D03*
X64665Y-28641D03*
X64724Y-34546D03*
X52027Y-28641D03*
X51988Y-27047D03*
X45000Y-32972D03*
X45000Y-34547D03*
X44960Y-28641D03*
X44960Y-27066D03*
X47381Y-34546D03*
X47381Y-28601D03*
X40295Y-34506D03*
X49547Y-24685D03*
X42736Y-24665D03*
X40295Y-28522D03*
X73799Y-24212D03*
X69271Y-59527D03*
X71062Y-23169D03*
G54D17*
X68543Y-31299D02*
X69271Y-32027D01*
X66456Y-31299D02*
X68543Y-31299D01*
X72657Y-32027D02*
X73582Y-31299D01*
X69271Y-32027D02*
X72657Y-32027D01*
X68543Y-25275D02*
X73661Y-25275D01*
X68543Y-25275D02*
X66574Y-25275D01*
X66574Y-25275D02*
X49192Y-25275D01*
X47913Y-25275D02*
X42381Y-25275D01*
X42381Y-25275D02*
X42362Y-25275D01*
X47283Y-31279D02*
X47263Y-31279D01*
X47913Y-31279D02*
X47283Y-31279D01*
X46791Y-31751D02*
X45137Y-31751D01*
X45137Y-31751D02*
X44645Y-31259D01*
X44645Y-31259D02*
X42047Y-31259D01*
X47263Y-31279D02*
X46791Y-31751D01*
X49192Y-25275D02*
X47913Y-25275D01*
X49212Y-31279D02*
X47913Y-31279D01*
X71377Y-50866D02*
X69133Y-50866D01*
X68562Y-51437D02*
X69133Y-50866D01*
X67303Y-51437D02*
X68562Y-51437D01*
X74311Y-51377D02*
X71870Y-51358D01*
X71870Y-51358D02*
X71377Y-50866D01*
X68543Y-57283D02*
X74704Y-57283D01*
X68543Y-57283D02*
X68523Y-57303D01*
X68523Y-57303D02*
X67283Y-57303D01*
X50000Y-57303D02*
X67283Y-57303D01*
X44133Y-57303D02*
X50000Y-57303D01*
X42992Y-57303D02*
X44133Y-57303D01*
X42992Y-57303D02*
X42913Y-57381D01*
X45255Y-50846D02*
X44133Y-51417D01*
X46948Y-50846D02*
X45255Y-50846D01*
X47578Y-51476D02*
X46948Y-50846D01*
X49960Y-51476D02*
X47578Y-51476D01*
X70019Y-38582D02*
X69350Y-38582D01*
X70531Y-39094D02*
X70019Y-38582D01*
X72519Y-39094D02*
X70531Y-39094D01*
X72795Y-39370D02*
X72519Y-39094D01*
X69960Y-38956D02*
X69980Y-38956D01*
X70374Y-39370D02*
X69960Y-38956D01*
X72342Y-39370D02*
X70374Y-39370D01*
X77185Y-50925D02*
X77185Y-50984D01*
X74192Y-22559D02*
X69251Y-22539D01*
X69251Y-22539D02*
X68897Y-22185D01*
X69370Y-60019D02*
X68858Y-60531D01*
X76614Y-60019D02*
X69370Y-60019D01*
X77185Y-59448D02*
X76614Y-60019D01*
X77185Y-57519D02*
X77185Y-59448D01*
X77185Y-53011D02*
X77185Y-57519D01*
X77185Y-50984D02*
X77185Y-53011D01*
X77185Y-47204D02*
X77185Y-50984D01*
X77145Y-38346D02*
X77145Y-38051D01*
X77165Y-42933D02*
X77185Y-43267D01*
X77185Y-43267D02*
X77185Y-47204D01*
X77185Y-47204D02*
X77185Y-47204D01*
X77145Y-38346D02*
X77165Y-42933D01*
X77145Y-31673D02*
X77165Y-23090D01*
X76633Y-22559D02*
X74192Y-22559D01*
X74192Y-22559D02*
X74173Y-22559D01*
X77165Y-23090D02*
X76633Y-22559D01*
X77145Y-38051D02*
X77145Y-31751D01*
X77145Y-31751D02*
X77145Y-31673D01*
X75157Y-22204D02*
X70984Y-22185D01*
X77637Y-57755D02*
X77637Y-60039D01*
X77637Y-50059D02*
X77637Y-52145D01*
X77637Y-52145D02*
X77637Y-57755D01*
X77637Y-60039D02*
X77145Y-60531D01*
X77637Y-47263D02*
X77637Y-50059D01*
X77634Y-47260D02*
X77637Y-47263D01*
X77660Y-43185D02*
X77634Y-47260D01*
X77145Y-60531D02*
X71082Y-60531D01*
X77612Y-30531D02*
X77612Y-30531D01*
X77618Y-30531D02*
X77612Y-30531D01*
X77618Y-30531D02*
X77618Y-30531D01*
X77657Y-37893D02*
X77618Y-37716D01*
X77618Y-37460D02*
X77612Y-30531D01*
X77612Y-30531D02*
X77612Y-30511D01*
X77608Y-24188D02*
X77608Y-23080D01*
X77612Y-30511D02*
X77608Y-24188D01*
X77608Y-23080D02*
X76732Y-22204D01*
X77618Y-37716D02*
X77618Y-37460D01*
X77657Y-42500D02*
X77660Y-43185D01*
X77657Y-42500D02*
X77657Y-37893D01*
X76732Y-22204D02*
X76240Y-22204D01*
X76240Y-22204D02*
X75157Y-22204D01*
M02*
