G04 (created by PCBNEW (2013-mar-13)-testing) date Sat 11 May 2013 01:37:56 PM ICT*
%MOIN*%
G04 Gerber Fmt 3.4, Leading zero omitted, Abs format*
%FSLAX34Y34*%
G01*
G70*
G90*
G04 APERTURE LIST*
%ADD10C,0.00393701*%
%ADD11R,0.1417X0.0511*%
%ADD12R,0.0787X0.0787*%
%ADD13R,0.1102X0.1102*%
%ADD14R,0.0118X0.0275*%
%ADD15R,0.0275X0.0118*%
%ADD16R,0.0433X0.0393*%
%ADD17R,0.0393X0.0433*%
%ADD18R,0.0511X0.059*%
%ADD19R,0.059X0.0511*%
%ADD20R,0.0708X0.0629*%
%ADD21R,0.0118X0.0295*%
%ADD22R,0.0295X0.0118*%
%ADD23R,0.0885X0.0196*%
%ADD24R,0.0984X0.0787*%
%ADD25R,0.0354X0.0275*%
%ADD26R,0.0275X0.0354*%
%ADD27R,0.0196X0.0118*%
%ADD28R,0.0118X0.0196*%
%ADD29R,0.035X0.031*%
%ADD30R,0.0259843X0.011811*%
%ADD31R,0.0255906X0.0334646*%
%ADD32R,0.0157X0.059*%
%ADD33R,0.0393701X0.125984*%
%ADD34R,0.125984X0.0393701*%
%ADD35R,0.05X0.05*%
%ADD36R,0.0787402X0.05*%
%ADD37R,0.220472X0.104331*%
%ADD38R,0.275591X0.0551181*%
%ADD39R,0.0157X0.0236*%
%ADD40R,0.0276X0.063*%
%ADD41R,0.0276X0.0827*%
%ADD42R,0.0787X0.1083*%
G04 APERTURE END LIST*
G54D10*
G54D11*
X48543Y-41496D03*
X51643Y-41496D03*
G54D12*
X59858Y-51588D03*
G54D13*
X56433Y-50565D03*
X56433Y-52611D03*
G54D12*
X57271Y-31123D03*
G54D13*
X60696Y-32146D03*
X60696Y-30100D03*
G54D14*
X58898Y-35816D03*
X59154Y-35816D03*
X59410Y-35816D03*
X59666Y-35816D03*
X59921Y-35816D03*
X60177Y-35816D03*
X60472Y-35816D03*
G54D15*
X60649Y-35501D03*
X60649Y-35245D03*
X60649Y-34989D03*
X58721Y-35501D03*
X58721Y-35245D03*
X58721Y-34989D03*
X60610Y-34124D03*
X59753Y-33868D03*
X58819Y-34124D03*
X59666Y-35225D03*
G54D16*
X53721Y-35984D03*
X54389Y-35984D03*
G54D17*
X61464Y-34733D03*
X61464Y-34065D03*
G54D16*
X58593Y-36548D03*
X57925Y-36548D03*
G54D17*
X59465Y-36596D03*
X60133Y-36596D03*
X57361Y-36548D03*
X56693Y-36548D03*
X57082Y-37375D03*
X56414Y-37375D03*
G54D16*
X61456Y-35941D03*
X61456Y-35273D03*
G54D18*
X54429Y-35275D03*
X53681Y-35275D03*
X54429Y-34488D03*
X53681Y-34488D03*
G54D19*
X55196Y-34429D03*
X55196Y-33681D03*
X56023Y-34429D03*
X56023Y-33681D03*
X56850Y-34429D03*
X56850Y-33681D03*
G54D17*
X57559Y-34389D03*
X57559Y-33721D03*
G54D16*
X58058Y-35635D03*
X57390Y-35635D03*
G54D17*
X54606Y-30295D03*
X54606Y-30963D03*
G54D20*
X56279Y-29960D03*
X56279Y-31062D03*
X55413Y-29960D03*
X55413Y-31062D03*
X61850Y-29980D03*
X61850Y-31082D03*
X62775Y-29980D03*
X62775Y-31082D03*
G54D16*
X61645Y-36907D03*
X61645Y-37575D03*
X63267Y-37548D03*
X63267Y-36880D03*
G54D17*
X63031Y-35492D03*
X63031Y-36160D03*
X59298Y-38194D03*
X58630Y-38194D03*
G54D16*
X59492Y-37422D03*
X60160Y-37422D03*
X58956Y-37375D03*
X58288Y-37375D03*
X62464Y-36876D03*
X62464Y-37544D03*
X62307Y-35478D03*
X62307Y-36146D03*
X60834Y-37134D03*
X60834Y-36466D03*
G54D14*
X58109Y-46903D03*
X57853Y-46903D03*
X57597Y-46903D03*
X57341Y-46903D03*
X57086Y-46903D03*
X56830Y-46903D03*
X56535Y-46903D03*
G54D15*
X56358Y-47218D03*
X56358Y-47474D03*
X56358Y-47730D03*
X58286Y-47218D03*
X58286Y-47474D03*
X58286Y-47730D03*
X56397Y-48595D03*
X57254Y-48851D03*
X58188Y-48595D03*
X57341Y-47494D03*
G54D17*
X59409Y-49034D03*
X59409Y-48366D03*
X55645Y-47998D03*
X55645Y-48666D03*
G54D16*
X58488Y-46103D03*
X59156Y-46103D03*
G54D17*
X57645Y-45970D03*
X56977Y-45970D03*
X59685Y-46103D03*
X60353Y-46103D03*
X60024Y-45304D03*
X60692Y-45304D03*
G54D16*
X55653Y-46777D03*
X55653Y-47445D03*
G54D18*
X62500Y-47440D03*
X63248Y-47440D03*
X62500Y-48267D03*
X63248Y-48267D03*
G54D19*
X61811Y-48326D03*
X61811Y-49074D03*
X60984Y-48326D03*
X60984Y-49074D03*
X60157Y-48326D03*
X60157Y-49074D03*
G54D16*
X62540Y-46732D03*
X63208Y-46732D03*
X59099Y-46985D03*
X59767Y-46985D03*
G54D17*
X62519Y-52223D03*
X62519Y-51555D03*
G54D20*
X60885Y-52607D03*
X60885Y-51505D03*
X61712Y-52587D03*
X61712Y-51485D03*
X55275Y-52657D03*
X55275Y-51555D03*
X54429Y-52657D03*
X54429Y-51555D03*
G54D16*
X55440Y-45579D03*
X55440Y-44911D03*
X53811Y-44907D03*
X53811Y-45575D03*
G54D17*
X54114Y-46948D03*
X54114Y-46280D03*
X57819Y-44340D03*
X58487Y-44340D03*
G54D16*
X57664Y-45151D03*
X56996Y-45151D03*
X58185Y-45159D03*
X58853Y-45159D03*
X54633Y-45579D03*
X54633Y-44911D03*
X54830Y-47193D03*
X54830Y-46525D03*
X56303Y-45439D03*
X56303Y-46107D03*
G54D21*
X65214Y-41015D03*
X65017Y-41015D03*
X64821Y-41015D03*
X64624Y-41015D03*
G54D22*
X64349Y-41290D03*
X64349Y-41487D03*
X64349Y-41683D03*
X64349Y-41880D03*
G54D21*
X64624Y-42155D03*
X64821Y-42155D03*
X65017Y-42155D03*
X65214Y-42155D03*
G54D22*
X65489Y-41880D03*
X65489Y-41683D03*
X65489Y-41487D03*
X65489Y-41290D03*
X64919Y-41585D03*
G54D16*
X64823Y-43011D03*
X65491Y-43011D03*
X66141Y-39783D03*
X65473Y-39783D03*
X66141Y-39173D03*
X65473Y-39173D03*
G54D18*
X64035Y-39074D03*
X64783Y-39074D03*
X64035Y-39881D03*
X64783Y-39881D03*
G54D16*
X64133Y-42736D03*
X64133Y-43404D03*
G54D19*
X66482Y-41857D03*
X66482Y-41109D03*
G54D23*
X75378Y-41336D03*
X75378Y-41650D03*
X75378Y-41965D03*
X75378Y-41022D03*
X75378Y-40707D03*
G54D24*
X75418Y-43087D03*
X75418Y-39585D03*
X77563Y-43087D03*
X77563Y-39585D03*
G54D25*
X40039Y-28522D03*
X40039Y-28012D03*
X40531Y-27302D03*
X40531Y-26792D03*
X44586Y-27066D03*
X44586Y-26556D03*
X44566Y-28640D03*
X44566Y-28130D03*
G54D26*
X42933Y-24665D03*
X43443Y-24665D03*
X42518Y-24665D03*
X42008Y-24665D03*
G54D25*
X40531Y-28522D03*
X40531Y-28012D03*
X45078Y-26044D03*
X45078Y-26554D03*
X45059Y-27619D03*
X45059Y-28129D03*
X43287Y-29922D03*
X43287Y-30432D03*
X41673Y-29902D03*
X41673Y-30412D03*
X40039Y-27302D03*
X40039Y-26792D03*
G54D26*
X43955Y-25157D03*
X43445Y-25157D03*
X41496Y-25157D03*
X42006Y-25157D03*
G54D27*
X50983Y-26477D03*
X50983Y-26674D03*
X50983Y-26871D03*
X50983Y-27067D03*
X50983Y-27264D03*
X50983Y-27461D03*
X50983Y-27657D03*
X50983Y-27854D03*
X50983Y-28051D03*
X50983Y-28247D03*
X50983Y-28444D03*
X50983Y-28641D03*
G54D28*
X50688Y-28936D03*
X50491Y-28936D03*
X50294Y-28936D03*
X50098Y-28936D03*
X49901Y-28936D03*
X49704Y-28936D03*
X49508Y-28936D03*
X49311Y-28936D03*
X49114Y-28936D03*
X48918Y-28936D03*
X48721Y-28936D03*
X48524Y-28936D03*
G54D27*
X48229Y-28641D03*
X48229Y-28444D03*
X48229Y-28247D03*
X48229Y-28051D03*
X48229Y-27854D03*
X48229Y-27657D03*
X48229Y-27461D03*
X48229Y-27264D03*
X48229Y-27067D03*
X48229Y-26871D03*
X48229Y-26674D03*
X48229Y-26477D03*
G54D28*
X48524Y-26182D03*
X48721Y-26182D03*
X48918Y-26182D03*
X49114Y-26182D03*
X49311Y-26182D03*
X49508Y-26182D03*
X49704Y-26182D03*
X49901Y-26182D03*
X50098Y-26182D03*
X50294Y-26182D03*
X50491Y-26182D03*
X50688Y-26182D03*
G54D27*
X49606Y-27559D03*
G54D25*
X51614Y-27066D03*
X51614Y-26556D03*
X48720Y-29922D03*
X48720Y-30432D03*
X51633Y-28640D03*
X51633Y-28130D03*
G54D26*
X49745Y-24645D03*
X50255Y-24645D03*
X49329Y-24645D03*
X48819Y-24645D03*
G54D25*
X47125Y-28601D03*
X47125Y-28091D03*
X47618Y-28601D03*
X47618Y-28091D03*
X50334Y-29902D03*
X50334Y-30412D03*
X52125Y-27619D03*
X52125Y-28129D03*
X52106Y-26044D03*
X52106Y-26554D03*
X47598Y-27302D03*
X47598Y-26792D03*
X47106Y-27302D03*
X47106Y-26792D03*
G54D26*
X48307Y-25137D03*
X48817Y-25137D03*
X50766Y-25137D03*
X50256Y-25137D03*
G54D27*
X43896Y-32382D03*
X43896Y-32579D03*
X43896Y-32776D03*
X43896Y-32972D03*
X43896Y-33169D03*
X43896Y-33366D03*
X43896Y-33562D03*
X43896Y-33759D03*
X43896Y-33956D03*
X43896Y-34152D03*
X43896Y-34349D03*
X43896Y-34546D03*
G54D28*
X43601Y-34841D03*
X43404Y-34841D03*
X43207Y-34841D03*
X43011Y-34841D03*
X42814Y-34841D03*
X42617Y-34841D03*
X42421Y-34841D03*
X42224Y-34841D03*
X42027Y-34841D03*
X41831Y-34841D03*
X41634Y-34841D03*
X41437Y-34841D03*
G54D27*
X41142Y-34546D03*
X41142Y-34349D03*
X41142Y-34152D03*
X41142Y-33956D03*
X41142Y-33759D03*
X41142Y-33562D03*
X41142Y-33366D03*
X41142Y-33169D03*
X41142Y-32972D03*
X41142Y-32776D03*
X41142Y-32579D03*
X41142Y-32382D03*
G54D28*
X41437Y-32087D03*
X41634Y-32087D03*
X41831Y-32087D03*
X42027Y-32087D03*
X42224Y-32087D03*
X42421Y-32087D03*
X42617Y-32087D03*
X42814Y-32087D03*
X43011Y-32087D03*
X43207Y-32087D03*
X43404Y-32087D03*
X43601Y-32087D03*
G54D27*
X42519Y-33464D03*
G54D25*
X40039Y-34506D03*
X40039Y-33996D03*
X42283Y-35689D03*
X42283Y-36199D03*
X44566Y-34546D03*
X44566Y-34036D03*
X42165Y-30904D03*
X42165Y-30394D03*
X42795Y-30904D03*
X42795Y-30394D03*
X40531Y-34506D03*
X40531Y-33996D03*
X44566Y-32971D03*
X44566Y-32461D03*
X42775Y-35689D03*
X42775Y-36199D03*
X45059Y-31949D03*
X45059Y-32459D03*
X45059Y-33524D03*
X45059Y-34034D03*
X41673Y-31337D03*
X41673Y-30827D03*
X43287Y-31357D03*
X43287Y-30847D03*
X40039Y-33168D03*
X40039Y-32658D03*
X40531Y-33168D03*
X40531Y-32658D03*
G54D27*
X50983Y-32382D03*
X50983Y-32579D03*
X50983Y-32776D03*
X50983Y-32972D03*
X50983Y-33169D03*
X50983Y-33366D03*
X50983Y-33562D03*
X50983Y-33759D03*
X50983Y-33956D03*
X50983Y-34152D03*
X50983Y-34349D03*
X50983Y-34546D03*
G54D28*
X50688Y-34841D03*
X50491Y-34841D03*
X50294Y-34841D03*
X50098Y-34841D03*
X49901Y-34841D03*
X49704Y-34841D03*
X49508Y-34841D03*
X49311Y-34841D03*
X49114Y-34841D03*
X48918Y-34841D03*
X48721Y-34841D03*
X48524Y-34841D03*
G54D27*
X48229Y-34546D03*
X48229Y-34349D03*
X48229Y-34152D03*
X48229Y-33956D03*
X48229Y-33759D03*
X48229Y-33562D03*
X48229Y-33366D03*
X48229Y-33169D03*
X48229Y-32972D03*
X48229Y-32776D03*
X48229Y-32579D03*
X48229Y-32382D03*
G54D28*
X48524Y-32087D03*
X48721Y-32087D03*
X48918Y-32087D03*
X49114Y-32087D03*
X49311Y-32087D03*
X49508Y-32087D03*
X49704Y-32087D03*
X49901Y-32087D03*
X50098Y-32087D03*
X50294Y-32087D03*
X50491Y-32087D03*
X50688Y-32087D03*
G54D27*
X49606Y-33464D03*
G54D25*
X47618Y-34546D03*
X47618Y-34036D03*
X49350Y-35689D03*
X49350Y-36199D03*
X51594Y-32971D03*
X51594Y-32461D03*
X49842Y-30924D03*
X49842Y-30414D03*
X49212Y-30924D03*
X49212Y-30414D03*
X51594Y-34546D03*
X51594Y-34036D03*
X47125Y-34546D03*
X47125Y-34036D03*
X49862Y-35689D03*
X49862Y-36199D03*
X52086Y-31949D03*
X52086Y-32459D03*
X52086Y-33524D03*
X52086Y-34034D03*
X48720Y-31357D03*
X48720Y-30847D03*
X50334Y-31337D03*
X50334Y-30827D03*
X47125Y-33207D03*
X47125Y-32697D03*
X47618Y-33207D03*
X47618Y-32697D03*
G54D27*
X68306Y-26477D03*
X68306Y-26674D03*
X68306Y-26871D03*
X68306Y-27067D03*
X68306Y-27264D03*
X68306Y-27461D03*
X68306Y-27657D03*
X68306Y-27854D03*
X68306Y-28051D03*
X68306Y-28247D03*
X68306Y-28444D03*
X68306Y-28641D03*
G54D28*
X68011Y-28936D03*
X67814Y-28936D03*
X67617Y-28936D03*
X67421Y-28936D03*
X67224Y-28936D03*
X67027Y-28936D03*
X66831Y-28936D03*
X66634Y-28936D03*
X66437Y-28936D03*
X66241Y-28936D03*
X66044Y-28936D03*
X65847Y-28936D03*
G54D27*
X65552Y-28641D03*
X65552Y-28444D03*
X65552Y-28247D03*
X65552Y-28051D03*
X65552Y-27854D03*
X65552Y-27657D03*
X65552Y-27461D03*
X65552Y-27264D03*
X65552Y-27067D03*
X65552Y-26871D03*
X65552Y-26674D03*
X65552Y-26477D03*
G54D28*
X65847Y-26182D03*
X66044Y-26182D03*
X66241Y-26182D03*
X66437Y-26182D03*
X66634Y-26182D03*
X66831Y-26182D03*
X67027Y-26182D03*
X67224Y-26182D03*
X67421Y-26182D03*
X67617Y-26182D03*
X67814Y-26182D03*
X68011Y-26182D03*
G54D27*
X66929Y-27559D03*
G54D25*
X64409Y-28640D03*
X64409Y-28130D03*
X66043Y-29843D03*
X66043Y-30353D03*
X68897Y-27066D03*
X68897Y-26556D03*
G54D26*
X67107Y-24547D03*
X67617Y-24547D03*
X66692Y-24547D03*
X66182Y-24547D03*
G54D25*
X64901Y-28640D03*
X64901Y-28130D03*
X68897Y-28640D03*
X68897Y-28130D03*
X67578Y-29843D03*
X67578Y-30353D03*
X69389Y-26044D03*
X69389Y-26554D03*
X69389Y-27619D03*
X69389Y-28129D03*
G54D26*
X65670Y-25039D03*
X66180Y-25039D03*
X68129Y-25039D03*
X67619Y-25039D03*
G54D25*
X64468Y-27321D03*
X64468Y-26811D03*
X64901Y-27321D03*
X64901Y-26811D03*
G54D27*
X75392Y-26477D03*
X75392Y-26674D03*
X75392Y-26871D03*
X75392Y-27067D03*
X75392Y-27264D03*
X75392Y-27461D03*
X75392Y-27657D03*
X75392Y-27854D03*
X75392Y-28051D03*
X75392Y-28247D03*
X75392Y-28444D03*
X75392Y-28641D03*
G54D28*
X75097Y-28936D03*
X74900Y-28936D03*
X74703Y-28936D03*
X74507Y-28936D03*
X74310Y-28936D03*
X74113Y-28936D03*
X73917Y-28936D03*
X73720Y-28936D03*
X73523Y-28936D03*
X73327Y-28936D03*
X73130Y-28936D03*
X72933Y-28936D03*
G54D27*
X72638Y-28641D03*
X72638Y-28444D03*
X72638Y-28247D03*
X72638Y-28051D03*
X72638Y-27854D03*
X72638Y-27657D03*
X72638Y-27461D03*
X72638Y-27264D03*
X72638Y-27067D03*
X72638Y-26871D03*
X72638Y-26674D03*
X72638Y-26477D03*
G54D28*
X72933Y-26182D03*
X73130Y-26182D03*
X73327Y-26182D03*
X73523Y-26182D03*
X73720Y-26182D03*
X73917Y-26182D03*
X74113Y-26182D03*
X74310Y-26182D03*
X74507Y-26182D03*
X74703Y-26182D03*
X74900Y-26182D03*
X75097Y-26182D03*
G54D27*
X74015Y-27559D03*
G54D25*
X71948Y-28640D03*
X71948Y-28130D03*
X73169Y-29882D03*
X73169Y-30392D03*
X76023Y-27066D03*
X76023Y-26556D03*
G54D26*
X74213Y-24665D03*
X74723Y-24665D03*
X73798Y-24665D03*
X73288Y-24665D03*
G54D25*
X76023Y-28640D03*
X76023Y-28130D03*
X71456Y-28640D03*
X71456Y-28130D03*
X74783Y-29882D03*
X74783Y-30392D03*
X76515Y-27619D03*
X76515Y-28129D03*
X76515Y-26044D03*
X76515Y-26554D03*
G54D26*
X72776Y-25157D03*
X73286Y-25157D03*
X75235Y-25157D03*
X74725Y-25157D03*
G54D25*
X71948Y-27282D03*
X71948Y-26772D03*
X71456Y-27282D03*
X71456Y-26772D03*
G54D27*
X68306Y-32382D03*
X68306Y-32579D03*
X68306Y-32776D03*
X68306Y-32972D03*
X68306Y-33169D03*
X68306Y-33366D03*
X68306Y-33562D03*
X68306Y-33759D03*
X68306Y-33956D03*
X68306Y-34152D03*
X68306Y-34349D03*
X68306Y-34546D03*
G54D28*
X68011Y-34841D03*
X67814Y-34841D03*
X67617Y-34841D03*
X67421Y-34841D03*
X67224Y-34841D03*
X67027Y-34841D03*
X66831Y-34841D03*
X66634Y-34841D03*
X66437Y-34841D03*
X66241Y-34841D03*
X66044Y-34841D03*
X65847Y-34841D03*
G54D27*
X65552Y-34546D03*
X65552Y-34349D03*
X65552Y-34152D03*
X65552Y-33956D03*
X65552Y-33759D03*
X65552Y-33562D03*
X65552Y-33366D03*
X65552Y-33169D03*
X65552Y-32972D03*
X65552Y-32776D03*
X65552Y-32579D03*
X65552Y-32382D03*
G54D28*
X65847Y-32087D03*
X66044Y-32087D03*
X66241Y-32087D03*
X66437Y-32087D03*
X66634Y-32087D03*
X66831Y-32087D03*
X67027Y-32087D03*
X67224Y-32087D03*
X67421Y-32087D03*
X67617Y-32087D03*
X67814Y-32087D03*
X68011Y-32087D03*
G54D27*
X66929Y-33464D03*
G54D25*
X64488Y-34546D03*
X64488Y-34036D03*
X66633Y-35611D03*
X66633Y-36121D03*
X68956Y-32971D03*
X68956Y-32461D03*
X66535Y-30865D03*
X66535Y-30355D03*
X67086Y-30865D03*
X67086Y-30355D03*
X68956Y-34546D03*
X68956Y-34036D03*
X64960Y-34546D03*
X64960Y-34036D03*
X69429Y-31949D03*
X69429Y-32459D03*
X66043Y-31278D03*
X66043Y-30768D03*
X67125Y-35611D03*
X67125Y-36121D03*
X69448Y-33524D03*
X69448Y-34034D03*
X67578Y-31278D03*
X67578Y-30768D03*
X64488Y-33168D03*
X64488Y-32658D03*
X64960Y-33168D03*
X64960Y-32658D03*
G54D27*
X75392Y-32382D03*
X75392Y-32579D03*
X75392Y-32776D03*
X75392Y-32972D03*
X75392Y-33169D03*
X75392Y-33366D03*
X75392Y-33562D03*
X75392Y-33759D03*
X75392Y-33956D03*
X75392Y-34152D03*
X75392Y-34349D03*
X75392Y-34546D03*
G54D28*
X75097Y-34841D03*
X74900Y-34841D03*
X74703Y-34841D03*
X74507Y-34841D03*
X74310Y-34841D03*
X74113Y-34841D03*
X73917Y-34841D03*
X73720Y-34841D03*
X73523Y-34841D03*
X73327Y-34841D03*
X73130Y-34841D03*
X72933Y-34841D03*
G54D27*
X72638Y-34546D03*
X72638Y-34349D03*
X72638Y-34152D03*
X72638Y-33956D03*
X72638Y-33759D03*
X72638Y-33562D03*
X72638Y-33366D03*
X72638Y-33169D03*
X72638Y-32972D03*
X72638Y-32776D03*
X72638Y-32579D03*
X72638Y-32382D03*
G54D28*
X72933Y-32087D03*
X73130Y-32087D03*
X73327Y-32087D03*
X73523Y-32087D03*
X73720Y-32087D03*
X73917Y-32087D03*
X74113Y-32087D03*
X74310Y-32087D03*
X74507Y-32087D03*
X74703Y-32087D03*
X74900Y-32087D03*
X75097Y-32087D03*
G54D27*
X74015Y-33464D03*
G54D25*
X72007Y-34546D03*
X72007Y-34036D03*
X73169Y-31317D03*
X73169Y-30807D03*
X71515Y-34546D03*
X71515Y-34036D03*
X76003Y-32971D03*
X76003Y-32461D03*
X74291Y-30904D03*
X74291Y-30394D03*
X73661Y-30904D03*
X73661Y-30394D03*
X76003Y-34546D03*
X76003Y-34036D03*
X74271Y-35591D03*
X74271Y-36101D03*
X76988Y-32993D03*
X76988Y-33503D03*
X76496Y-33524D03*
X76496Y-34034D03*
X73779Y-35591D03*
X73779Y-36101D03*
X74783Y-31317D03*
X74783Y-30807D03*
X72007Y-33227D03*
X72007Y-32717D03*
X71515Y-33227D03*
X71515Y-32717D03*
G54D27*
X72638Y-56200D03*
X72638Y-56003D03*
X72638Y-55806D03*
X72638Y-55610D03*
X72638Y-55413D03*
X72638Y-55216D03*
X72638Y-55020D03*
X72638Y-54823D03*
X72638Y-54626D03*
X72638Y-54430D03*
X72638Y-54233D03*
X72638Y-54036D03*
G54D28*
X72933Y-53741D03*
X73130Y-53741D03*
X73327Y-53741D03*
X73523Y-53741D03*
X73720Y-53741D03*
X73917Y-53741D03*
X74113Y-53741D03*
X74310Y-53741D03*
X74507Y-53741D03*
X74703Y-53741D03*
X74900Y-53741D03*
X75097Y-53741D03*
G54D27*
X75392Y-54036D03*
X75392Y-54233D03*
X75392Y-54430D03*
X75392Y-54626D03*
X75392Y-54823D03*
X75392Y-55020D03*
X75392Y-55216D03*
X75392Y-55413D03*
X75392Y-55610D03*
X75392Y-55806D03*
X75392Y-56003D03*
X75392Y-56200D03*
G54D28*
X75097Y-56495D03*
X74900Y-56495D03*
X74703Y-56495D03*
X74507Y-56495D03*
X74310Y-56495D03*
X74113Y-56495D03*
X73917Y-56495D03*
X73720Y-56495D03*
X73523Y-56495D03*
X73327Y-56495D03*
X73130Y-56495D03*
X72933Y-56495D03*
G54D27*
X74015Y-55118D03*
G54D25*
X76043Y-54036D03*
X76043Y-54546D03*
X74783Y-52814D03*
X74783Y-52304D03*
X72027Y-54036D03*
X72027Y-54546D03*
G54D26*
X73877Y-58169D03*
X73367Y-58169D03*
X74292Y-58169D03*
X74802Y-58169D03*
G54D25*
X72027Y-55611D03*
X72027Y-56121D03*
X76535Y-54036D03*
X76535Y-54546D03*
X73208Y-52814D03*
X73208Y-52304D03*
X71535Y-55058D03*
X71535Y-54548D03*
X71535Y-56632D03*
X71535Y-56122D03*
G54D26*
X72855Y-57677D03*
X73365Y-57677D03*
X75314Y-57677D03*
X74804Y-57677D03*
G54D25*
X76043Y-55374D03*
X76043Y-55884D03*
X76535Y-55374D03*
X76535Y-55884D03*
G54D27*
X65552Y-56200D03*
X65552Y-56003D03*
X65552Y-55806D03*
X65552Y-55610D03*
X65552Y-55413D03*
X65552Y-55216D03*
X65552Y-55020D03*
X65552Y-54823D03*
X65552Y-54626D03*
X65552Y-54430D03*
X65552Y-54233D03*
X65552Y-54036D03*
G54D28*
X65847Y-53741D03*
X66044Y-53741D03*
X66241Y-53741D03*
X66437Y-53741D03*
X66634Y-53741D03*
X66831Y-53741D03*
X67027Y-53741D03*
X67224Y-53741D03*
X67421Y-53741D03*
X67617Y-53741D03*
X67814Y-53741D03*
X68011Y-53741D03*
G54D27*
X68306Y-54036D03*
X68306Y-54233D03*
X68306Y-54430D03*
X68306Y-54626D03*
X68306Y-54823D03*
X68306Y-55020D03*
X68306Y-55216D03*
X68306Y-55413D03*
X68306Y-55610D03*
X68306Y-55806D03*
X68306Y-56003D03*
X68306Y-56200D03*
G54D28*
X68011Y-56495D03*
X67814Y-56495D03*
X67617Y-56495D03*
X67421Y-56495D03*
X67224Y-56495D03*
X67027Y-56495D03*
X66831Y-56495D03*
X66634Y-56495D03*
X66437Y-56495D03*
X66241Y-56495D03*
X66044Y-56495D03*
X65847Y-56495D03*
G54D27*
X66929Y-55118D03*
G54D25*
X68976Y-54036D03*
X68976Y-54546D03*
X67755Y-52794D03*
X67755Y-52284D03*
X64940Y-54036D03*
X64940Y-54546D03*
G54D26*
X66731Y-58129D03*
X66221Y-58129D03*
X67146Y-58129D03*
X67656Y-58129D03*
G54D25*
X64940Y-55611D03*
X64940Y-56121D03*
X69468Y-54036D03*
X69468Y-54546D03*
X66181Y-52794D03*
X66181Y-52284D03*
X64448Y-55058D03*
X64448Y-54548D03*
X64448Y-56632D03*
X64448Y-56122D03*
X68976Y-55374D03*
X68976Y-55884D03*
X69468Y-55374D03*
X69468Y-55884D03*
G54D26*
X65709Y-57637D03*
X66219Y-57637D03*
X68168Y-57637D03*
X67658Y-57637D03*
G54D27*
X72638Y-50294D03*
X72638Y-50097D03*
X72638Y-49900D03*
X72638Y-49704D03*
X72638Y-49507D03*
X72638Y-49310D03*
X72638Y-49114D03*
X72638Y-48917D03*
X72638Y-48720D03*
X72638Y-48524D03*
X72638Y-48327D03*
X72638Y-48130D03*
G54D28*
X72933Y-47835D03*
X73130Y-47835D03*
X73327Y-47835D03*
X73523Y-47835D03*
X73720Y-47835D03*
X73917Y-47835D03*
X74113Y-47835D03*
X74310Y-47835D03*
X74507Y-47835D03*
X74703Y-47835D03*
X74900Y-47835D03*
X75097Y-47835D03*
G54D27*
X75392Y-48130D03*
X75392Y-48327D03*
X75392Y-48524D03*
X75392Y-48720D03*
X75392Y-48917D03*
X75392Y-49114D03*
X75392Y-49310D03*
X75392Y-49507D03*
X75392Y-49704D03*
X75392Y-49900D03*
X75392Y-50097D03*
X75392Y-50294D03*
G54D28*
X75097Y-50589D03*
X74900Y-50589D03*
X74703Y-50589D03*
X74507Y-50589D03*
X74310Y-50589D03*
X74113Y-50589D03*
X73917Y-50589D03*
X73720Y-50589D03*
X73523Y-50589D03*
X73327Y-50589D03*
X73130Y-50589D03*
X72933Y-50589D03*
G54D27*
X74015Y-49212D03*
G54D25*
X76594Y-48130D03*
X76594Y-48640D03*
X74783Y-51378D03*
X74783Y-51888D03*
X71968Y-48130D03*
X71968Y-48640D03*
X73700Y-51792D03*
X73700Y-52302D03*
X74291Y-51792D03*
X74291Y-52302D03*
X71968Y-49705D03*
X71968Y-50215D03*
X76102Y-48130D03*
X76102Y-48640D03*
X73779Y-46987D03*
X73779Y-46477D03*
X71476Y-49152D03*
X71476Y-48642D03*
X71476Y-50727D03*
X71476Y-50217D03*
X73208Y-51378D03*
X73208Y-51888D03*
X74291Y-46987D03*
X74291Y-46477D03*
X76102Y-49469D03*
X76102Y-49979D03*
X76594Y-49469D03*
X76594Y-49979D03*
G54D27*
X65552Y-50294D03*
X65552Y-50097D03*
X65552Y-49900D03*
X65552Y-49704D03*
X65552Y-49507D03*
X65552Y-49310D03*
X65552Y-49114D03*
X65552Y-48917D03*
X65552Y-48720D03*
X65552Y-48524D03*
X65552Y-48327D03*
X65552Y-48130D03*
G54D28*
X65847Y-47835D03*
X66044Y-47835D03*
X66241Y-47835D03*
X66437Y-47835D03*
X66634Y-47835D03*
X66831Y-47835D03*
X67027Y-47835D03*
X67224Y-47835D03*
X67421Y-47835D03*
X67617Y-47835D03*
X67814Y-47835D03*
X68011Y-47835D03*
G54D27*
X68306Y-48130D03*
X68306Y-48327D03*
X68306Y-48524D03*
X68306Y-48720D03*
X68306Y-48917D03*
X68306Y-49114D03*
X68306Y-49310D03*
X68306Y-49507D03*
X68306Y-49704D03*
X68306Y-49900D03*
X68306Y-50097D03*
X68306Y-50294D03*
G54D28*
X68011Y-50589D03*
X67814Y-50589D03*
X67617Y-50589D03*
X67421Y-50589D03*
X67224Y-50589D03*
X67027Y-50589D03*
X66831Y-50589D03*
X66634Y-50589D03*
X66437Y-50589D03*
X66241Y-50589D03*
X66044Y-50589D03*
X65847Y-50589D03*
G54D27*
X66929Y-49212D03*
G54D25*
X69468Y-48130D03*
X69468Y-48640D03*
X66181Y-51359D03*
X66181Y-51869D03*
X64980Y-48130D03*
X64980Y-48640D03*
X66673Y-51772D03*
X66673Y-52282D03*
X67263Y-51772D03*
X67263Y-52282D03*
X64901Y-49685D03*
X64901Y-50195D03*
X68976Y-48130D03*
X68976Y-48640D03*
X66653Y-47006D03*
X66653Y-46496D03*
X64606Y-51121D03*
X64606Y-50611D03*
X64488Y-49152D03*
X64488Y-48642D03*
X67755Y-51359D03*
X67755Y-51869D03*
X67165Y-47006D03*
X67165Y-46496D03*
X69488Y-49508D03*
X69488Y-50018D03*
X68996Y-49508D03*
X68996Y-50018D03*
G54D27*
X48229Y-56200D03*
X48229Y-56003D03*
X48229Y-55806D03*
X48229Y-55610D03*
X48229Y-55413D03*
X48229Y-55216D03*
X48229Y-55020D03*
X48229Y-54823D03*
X48229Y-54626D03*
X48229Y-54430D03*
X48229Y-54233D03*
X48229Y-54036D03*
G54D28*
X48524Y-53741D03*
X48721Y-53741D03*
X48918Y-53741D03*
X49114Y-53741D03*
X49311Y-53741D03*
X49508Y-53741D03*
X49704Y-53741D03*
X49901Y-53741D03*
X50098Y-53741D03*
X50294Y-53741D03*
X50491Y-53741D03*
X50688Y-53741D03*
G54D27*
X50983Y-54036D03*
X50983Y-54233D03*
X50983Y-54430D03*
X50983Y-54626D03*
X50983Y-54823D03*
X50983Y-55020D03*
X50983Y-55216D03*
X50983Y-55413D03*
X50983Y-55610D03*
X50983Y-55806D03*
X50983Y-56003D03*
X50983Y-56200D03*
G54D28*
X50688Y-56495D03*
X50491Y-56495D03*
X50294Y-56495D03*
X50098Y-56495D03*
X49901Y-56495D03*
X49704Y-56495D03*
X49508Y-56495D03*
X49311Y-56495D03*
X49114Y-56495D03*
X48918Y-56495D03*
X48721Y-56495D03*
X48524Y-56495D03*
G54D27*
X49606Y-55118D03*
G54D25*
X51614Y-54036D03*
X51614Y-54546D03*
X50374Y-51437D03*
X50374Y-51947D03*
X47578Y-54036D03*
X47578Y-54546D03*
G54D26*
X49408Y-58070D03*
X48898Y-58070D03*
X49823Y-58070D03*
X50333Y-58070D03*
G54D25*
X47578Y-55611D03*
X47578Y-56121D03*
X52106Y-54036D03*
X52106Y-54546D03*
X48897Y-51437D03*
X48897Y-51947D03*
X47086Y-55058D03*
X47086Y-54548D03*
X47086Y-56632D03*
X47086Y-56122D03*
G54D26*
X48386Y-57578D03*
X48896Y-57578D03*
X50845Y-57578D03*
X50335Y-57578D03*
G54D25*
X51614Y-55394D03*
X51614Y-55904D03*
X52106Y-55394D03*
X52106Y-55904D03*
G54D27*
X41142Y-56200D03*
X41142Y-56003D03*
X41142Y-55806D03*
X41142Y-55610D03*
X41142Y-55413D03*
X41142Y-55216D03*
X41142Y-55020D03*
X41142Y-54823D03*
X41142Y-54626D03*
X41142Y-54430D03*
X41142Y-54233D03*
X41142Y-54036D03*
G54D28*
X41437Y-53741D03*
X41634Y-53741D03*
X41831Y-53741D03*
X42027Y-53741D03*
X42224Y-53741D03*
X42421Y-53741D03*
X42617Y-53741D03*
X42814Y-53741D03*
X43011Y-53741D03*
X43207Y-53741D03*
X43404Y-53741D03*
X43601Y-53741D03*
G54D27*
X43896Y-54036D03*
X43896Y-54233D03*
X43896Y-54430D03*
X43896Y-54626D03*
X43896Y-54823D03*
X43896Y-55020D03*
X43896Y-55216D03*
X43896Y-55413D03*
X43896Y-55610D03*
X43896Y-55806D03*
X43896Y-56003D03*
X43896Y-56200D03*
G54D28*
X43601Y-56495D03*
X43404Y-56495D03*
X43207Y-56495D03*
X43011Y-56495D03*
X42814Y-56495D03*
X42617Y-56495D03*
X42421Y-56495D03*
X42224Y-56495D03*
X42027Y-56495D03*
X41831Y-56495D03*
X41634Y-56495D03*
X41437Y-56495D03*
G54D27*
X42519Y-55118D03*
G54D25*
X44586Y-54036D03*
X44586Y-54546D03*
X43326Y-52853D03*
X43326Y-52343D03*
X40433Y-54036D03*
X40433Y-54546D03*
G54D26*
X42321Y-57362D03*
X41811Y-57362D03*
X42737Y-58051D03*
X43247Y-58051D03*
G54D25*
X40433Y-55611D03*
X40433Y-56121D03*
X45078Y-54036D03*
X45078Y-54546D03*
X41771Y-52853D03*
X41771Y-52343D03*
X39940Y-55058D03*
X39940Y-54548D03*
X39940Y-56632D03*
X39940Y-56122D03*
G54D26*
X40886Y-57362D03*
X41396Y-57362D03*
X43758Y-57559D03*
X43248Y-57559D03*
G54D25*
X44586Y-55355D03*
X44586Y-55865D03*
X45078Y-55355D03*
X45078Y-55865D03*
G54D27*
X48229Y-50294D03*
X48229Y-50097D03*
X48229Y-49900D03*
X48229Y-49704D03*
X48229Y-49507D03*
X48229Y-49310D03*
X48229Y-49114D03*
X48229Y-48917D03*
X48229Y-48720D03*
X48229Y-48524D03*
X48229Y-48327D03*
X48229Y-48130D03*
G54D28*
X48524Y-47835D03*
X48721Y-47835D03*
X48918Y-47835D03*
X49114Y-47835D03*
X49311Y-47835D03*
X49508Y-47835D03*
X49704Y-47835D03*
X49901Y-47835D03*
X50098Y-47835D03*
X50294Y-47835D03*
X50491Y-47835D03*
X50688Y-47835D03*
G54D27*
X50983Y-48130D03*
X50983Y-48327D03*
X50983Y-48524D03*
X50983Y-48720D03*
X50983Y-48917D03*
X50983Y-49114D03*
X50983Y-49310D03*
X50983Y-49507D03*
X50983Y-49704D03*
X50983Y-49900D03*
X50983Y-50097D03*
X50983Y-50294D03*
G54D28*
X50688Y-50589D03*
X50491Y-50589D03*
X50294Y-50589D03*
X50098Y-50589D03*
X49901Y-50589D03*
X49704Y-50589D03*
X49508Y-50589D03*
X49311Y-50589D03*
X49114Y-50589D03*
X48918Y-50589D03*
X48721Y-50589D03*
X48524Y-50589D03*
G54D27*
X49606Y-49212D03*
G54D25*
X51574Y-48130D03*
X51574Y-48640D03*
X49842Y-47006D03*
X49842Y-46496D03*
X47578Y-48130D03*
X47578Y-48640D03*
X49389Y-51851D03*
X49389Y-52361D03*
X49881Y-51851D03*
X49881Y-52361D03*
X47598Y-49705D03*
X47598Y-50215D03*
X52066Y-48130D03*
X52066Y-48640D03*
X49350Y-47006D03*
X49350Y-46496D03*
X47106Y-50727D03*
X47106Y-50217D03*
X47086Y-49152D03*
X47086Y-48642D03*
X48897Y-52873D03*
X48897Y-52363D03*
X50374Y-52873D03*
X50374Y-52363D03*
X51574Y-49489D03*
X51574Y-49999D03*
X52066Y-49489D03*
X52066Y-49999D03*
G54D27*
X41142Y-50294D03*
X41142Y-50097D03*
X41142Y-49900D03*
X41142Y-49704D03*
X41142Y-49507D03*
X41142Y-49310D03*
X41142Y-49114D03*
X41142Y-48917D03*
X41142Y-48720D03*
X41142Y-48524D03*
X41142Y-48327D03*
X41142Y-48130D03*
G54D28*
X41437Y-47835D03*
X41634Y-47835D03*
X41831Y-47835D03*
X42027Y-47835D03*
X42224Y-47835D03*
X42421Y-47835D03*
X42617Y-47835D03*
X42814Y-47835D03*
X43011Y-47835D03*
X43207Y-47835D03*
X43404Y-47835D03*
X43601Y-47835D03*
G54D27*
X43896Y-48130D03*
X43896Y-48327D03*
X43896Y-48524D03*
X43896Y-48720D03*
X43896Y-48917D03*
X43896Y-49114D03*
X43896Y-49310D03*
X43896Y-49507D03*
X43896Y-49704D03*
X43896Y-49900D03*
X43896Y-50097D03*
X43896Y-50294D03*
G54D28*
X43601Y-50589D03*
X43404Y-50589D03*
X43207Y-50589D03*
X43011Y-50589D03*
X42814Y-50589D03*
X42617Y-50589D03*
X42421Y-50589D03*
X42224Y-50589D03*
X42027Y-50589D03*
X41831Y-50589D03*
X41634Y-50589D03*
X41437Y-50589D03*
G54D27*
X42519Y-49212D03*
G54D25*
X44527Y-48130D03*
X44527Y-48640D03*
X43326Y-51418D03*
X43326Y-51928D03*
X40511Y-48130D03*
X40511Y-48640D03*
X42263Y-51831D03*
X42263Y-52341D03*
X42834Y-51831D03*
X42834Y-52341D03*
X40511Y-49705D03*
X40511Y-50215D03*
X45019Y-48130D03*
X45019Y-48640D03*
X41771Y-51418D03*
X41771Y-51928D03*
X40019Y-49152D03*
X40019Y-48642D03*
X40019Y-50727D03*
X40019Y-50217D03*
X42283Y-47006D03*
X42283Y-46496D03*
X42775Y-47006D03*
X42775Y-46496D03*
X44527Y-49311D03*
X44527Y-49821D03*
X45019Y-49311D03*
X45019Y-49821D03*
G54D29*
X73064Y-43704D03*
X73064Y-44464D03*
X73864Y-44084D03*
G54D16*
X70354Y-40530D03*
X70354Y-39862D03*
X69685Y-39862D03*
X69685Y-40530D03*
G54D25*
X74488Y-40242D03*
X74488Y-40752D03*
G54D30*
X68905Y-40334D03*
X68181Y-40078D03*
X68905Y-39822D03*
X68905Y-40078D03*
X68181Y-39822D03*
X68181Y-40334D03*
G54D17*
X74645Y-38346D03*
X73977Y-38346D03*
X75315Y-38346D03*
X75983Y-38346D03*
G54D31*
X68218Y-41742D03*
X68868Y-41742D03*
X68218Y-41131D03*
X68868Y-41131D03*
G54D32*
X71502Y-42790D03*
X71758Y-42790D03*
X72014Y-42790D03*
X72270Y-42790D03*
X72526Y-42790D03*
X72780Y-42790D03*
X73036Y-42790D03*
X73292Y-42790D03*
X73548Y-42790D03*
X73804Y-42790D03*
X73804Y-39936D03*
X73548Y-39936D03*
X73292Y-39936D03*
X73036Y-39936D03*
X72780Y-39936D03*
X72526Y-39936D03*
X72270Y-39936D03*
X72014Y-39936D03*
X71758Y-39936D03*
X71502Y-39936D03*
G54D27*
X43896Y-26477D03*
X43896Y-26674D03*
X43896Y-26871D03*
X43896Y-27067D03*
X43896Y-27264D03*
X43896Y-27461D03*
X43896Y-27657D03*
X43896Y-27854D03*
X43896Y-28051D03*
X43896Y-28247D03*
X43896Y-28444D03*
X43896Y-28641D03*
G54D28*
X43601Y-28936D03*
X43404Y-28936D03*
X43207Y-28936D03*
X43011Y-28936D03*
X42814Y-28936D03*
X42617Y-28936D03*
X42421Y-28936D03*
X42224Y-28936D03*
X42027Y-28936D03*
X41831Y-28936D03*
X41634Y-28936D03*
X41437Y-28936D03*
G54D27*
X41142Y-28641D03*
X41142Y-28444D03*
X41142Y-28247D03*
X41142Y-28051D03*
X41142Y-27854D03*
X41142Y-27657D03*
X41142Y-27461D03*
X41142Y-27264D03*
X41142Y-27067D03*
X41142Y-26871D03*
X41142Y-26674D03*
X41142Y-26477D03*
G54D28*
X41437Y-26182D03*
X41634Y-26182D03*
X41831Y-26182D03*
X42027Y-26182D03*
X42224Y-26182D03*
X42421Y-26182D03*
X42617Y-26182D03*
X42814Y-26182D03*
X43011Y-26182D03*
X43207Y-26182D03*
X43404Y-26182D03*
X43601Y-26182D03*
G54D27*
X42519Y-27559D03*
G54D33*
X76643Y-50925D03*
X77647Y-50925D03*
X77647Y-53011D03*
X76643Y-53011D03*
G54D34*
X70137Y-59517D03*
X70137Y-60521D03*
X68051Y-60521D03*
X68051Y-59517D03*
X68051Y-23159D03*
X68051Y-22155D03*
X70137Y-22155D03*
X70137Y-23159D03*
G54D35*
X71976Y-38543D03*
X70976Y-38543D03*
X69976Y-38543D03*
X72976Y-38543D03*
X68976Y-38543D03*
G54D36*
X75629Y-45610D03*
X75629Y-46614D03*
X75629Y-44606D03*
G54D37*
X39921Y-43651D03*
X39921Y-39025D03*
G54D38*
X41850Y-40846D03*
X41850Y-41830D03*
G54D16*
X56910Y-65019D03*
X57578Y-65019D03*
X58209Y-64921D03*
X58877Y-64921D03*
G54D17*
X56477Y-66614D03*
X57145Y-66614D03*
X57795Y-66850D03*
X58463Y-66850D03*
X58780Y-67637D03*
X59448Y-67637D03*
X56260Y-67421D03*
X56928Y-67421D03*
X57500Y-67637D03*
X58168Y-67637D03*
X58130Y-66023D03*
X58798Y-66023D03*
X58130Y-66023D03*
X58798Y-66023D03*
X58130Y-66023D03*
X58798Y-66023D03*
X58130Y-66023D03*
X58798Y-66023D03*
X58130Y-66023D03*
X58798Y-66023D03*
X58130Y-66023D03*
X58798Y-66023D03*
X58130Y-66023D03*
X58798Y-66023D03*
X58130Y-66023D03*
X58798Y-66023D03*
X58130Y-66023D03*
X58798Y-66023D03*
X58130Y-66023D03*
X58798Y-66023D03*
X58130Y-66023D03*
X58798Y-66023D03*
X58130Y-66023D03*
X58798Y-66023D03*
G54D39*
X56456Y-65728D03*
X56810Y-65728D03*
G54D40*
X60668Y-66377D03*
G54D41*
X61259Y-66279D03*
G54D40*
X61850Y-66377D03*
G54D42*
X61259Y-65334D03*
G54D33*
X76643Y-29665D03*
X77647Y-29665D03*
X77647Y-31751D03*
X76643Y-31751D03*
M02*
