G04 (created by PCBNEW (2013-mar-13)-testing) date Sat 11 May 2013 01:37:56 PM ICT*
%MOIN*%
G04 Gerber Fmt 3.4, Leading zero omitted, Abs format*
%FSLAX34Y34*%
G01*
G70*
G90*
G04 APERTURE LIST*
%ADD10C,0.00393701*%
%ADD11C,0.015*%
%ADD12C,0.004*%
%ADD13C,0.008*%
%ADD14C,0.005*%
%ADD15C,0.01*%
%ADD16C,0.006*%
%ADD17C,0.00590551*%
%ADD18C,0.012*%
%ADD19C,0.0028*%
G04 APERTURE END LIST*
G54D10*
G54D11*
X46962Y-30511D02*
G75*
G03X46962Y-30511I-900J0D01*
G74*
G01*
X41766Y-23740D02*
G75*
G03X41766Y-23740I-900J0D01*
G74*
G01*
G54D12*
X52105Y-39804D02*
X52105Y-43188D01*
X48091Y-43503D02*
X48091Y-39489D01*
X51790Y-42461D02*
G75*
G02X48179Y-41161I-1691J965D01*
G74*
G01*
X48091Y-41152D02*
X48091Y-39489D01*
X48091Y-39489D02*
X51790Y-39489D01*
X51790Y-39489D02*
X52105Y-39804D01*
X52105Y-43188D02*
X51790Y-43503D01*
X51790Y-43503D02*
X48091Y-43503D01*
X48091Y-43503D02*
X48091Y-41830D01*
X48406Y-40530D02*
G75*
G02X52017Y-41827I1691J-965D01*
G74*
G01*
X48504Y-42608D02*
X48504Y-40394D01*
X52046Y-41496D02*
G75*
G03X52046Y-41496I-1948J0D01*
G74*
G01*
G54D13*
X56020Y-53598D02*
X56020Y-49542D01*
X56001Y-49561D02*
X60057Y-49561D01*
X60113Y-49539D02*
X60113Y-53647D01*
X60067Y-53615D02*
X56037Y-53615D01*
X59739Y-51588D02*
G75*
G03X59739Y-51588I-1299J0D01*
G74*
G01*
X61109Y-29113D02*
X61109Y-33169D01*
X61128Y-33150D02*
X57072Y-33150D01*
X57016Y-33172D02*
X57016Y-29064D01*
X57062Y-29096D02*
X61092Y-29096D01*
X59988Y-31123D02*
G75*
G03X59988Y-31123I-1299J0D01*
G74*
G01*
G54D14*
X58701Y-33474D02*
X58701Y-35836D01*
X58701Y-35836D02*
X60669Y-35836D01*
X60669Y-35836D02*
X60669Y-33474D01*
X60669Y-33474D02*
X58701Y-33474D01*
G54D15*
X46849Y-38937D02*
X46849Y-44291D01*
X46849Y-44291D02*
X44212Y-44291D01*
X43779Y-44291D02*
X43149Y-44291D01*
X43149Y-44291D02*
X43149Y-38937D01*
X43149Y-38937D02*
X46849Y-38937D01*
X43780Y-44291D02*
G75*
G02X44212Y-44291I216J0D01*
G74*
G01*
G54D14*
X58306Y-49245D02*
X58306Y-46883D01*
X58306Y-46883D02*
X56338Y-46883D01*
X56338Y-46883D02*
X56338Y-49245D01*
X56338Y-49245D02*
X58306Y-49245D01*
X65509Y-40995D02*
X64329Y-40995D01*
X64329Y-40995D02*
X64329Y-42175D01*
X64329Y-42175D02*
X65509Y-42175D01*
X65509Y-42175D02*
X65509Y-40995D01*
X75103Y-42851D02*
X78724Y-42851D01*
X78724Y-42851D02*
X78724Y-39821D01*
X78724Y-39821D02*
X75103Y-39821D01*
X75103Y-39821D02*
X75103Y-42851D01*
X48229Y-28936D02*
X50983Y-28936D01*
X50983Y-28936D02*
X50983Y-26182D01*
X50983Y-26182D02*
X48229Y-26182D01*
X48229Y-26182D02*
X48229Y-28936D01*
X50786Y-26477D02*
G75*
G03X50786Y-26477I-98J0D01*
G74*
G01*
X41142Y-34841D02*
X43896Y-34841D01*
X43896Y-34841D02*
X43896Y-32087D01*
X43896Y-32087D02*
X41142Y-32087D01*
X41142Y-32087D02*
X41142Y-34841D01*
X43699Y-32382D02*
G75*
G03X43699Y-32382I-98J0D01*
G74*
G01*
X48229Y-34841D02*
X50983Y-34841D01*
X50983Y-34841D02*
X50983Y-32087D01*
X50983Y-32087D02*
X48229Y-32087D01*
X48229Y-32087D02*
X48229Y-34841D01*
X50786Y-32382D02*
G75*
G03X50786Y-32382I-98J0D01*
G74*
G01*
X65552Y-28936D02*
X68306Y-28936D01*
X68306Y-28936D02*
X68306Y-26182D01*
X68306Y-26182D02*
X65552Y-26182D01*
X65552Y-26182D02*
X65552Y-28936D01*
X68109Y-26477D02*
G75*
G03X68109Y-26477I-98J0D01*
G74*
G01*
X72638Y-28936D02*
X75392Y-28936D01*
X75392Y-28936D02*
X75392Y-26182D01*
X75392Y-26182D02*
X72638Y-26182D01*
X72638Y-26182D02*
X72638Y-28936D01*
X75195Y-26477D02*
G75*
G03X75195Y-26477I-98J0D01*
G74*
G01*
X65552Y-34841D02*
X68306Y-34841D01*
X68306Y-34841D02*
X68306Y-32087D01*
X68306Y-32087D02*
X65552Y-32087D01*
X65552Y-32087D02*
X65552Y-34841D01*
X68109Y-32382D02*
G75*
G03X68109Y-32382I-98J0D01*
G74*
G01*
X72638Y-34841D02*
X75392Y-34841D01*
X75392Y-34841D02*
X75392Y-32087D01*
X75392Y-32087D02*
X72638Y-32087D01*
X72638Y-32087D02*
X72638Y-34841D01*
X75195Y-32382D02*
G75*
G03X75195Y-32382I-98J0D01*
G74*
G01*
X75392Y-53741D02*
X72638Y-53741D01*
X72638Y-53741D02*
X72638Y-56495D01*
X72638Y-56495D02*
X75392Y-56495D01*
X75392Y-56495D02*
X75392Y-53741D01*
X73031Y-56200D02*
G75*
G03X73031Y-56200I-98J0D01*
G74*
G01*
X68306Y-53741D02*
X65552Y-53741D01*
X65552Y-53741D02*
X65552Y-56495D01*
X65552Y-56495D02*
X68306Y-56495D01*
X68306Y-56495D02*
X68306Y-53741D01*
X65945Y-56200D02*
G75*
G03X65945Y-56200I-98J0D01*
G74*
G01*
X75392Y-47835D02*
X72638Y-47835D01*
X72638Y-47835D02*
X72638Y-50589D01*
X72638Y-50589D02*
X75392Y-50589D01*
X75392Y-50589D02*
X75392Y-47835D01*
X73031Y-50294D02*
G75*
G03X73031Y-50294I-98J0D01*
G74*
G01*
X68306Y-47835D02*
X65552Y-47835D01*
X65552Y-47835D02*
X65552Y-50589D01*
X65552Y-50589D02*
X68306Y-50589D01*
X68306Y-50589D02*
X68306Y-47835D01*
X65945Y-50294D02*
G75*
G03X65945Y-50294I-98J0D01*
G74*
G01*
X50983Y-53741D02*
X48229Y-53741D01*
X48229Y-53741D02*
X48229Y-56495D01*
X48229Y-56495D02*
X50983Y-56495D01*
X50983Y-56495D02*
X50983Y-53741D01*
X48622Y-56200D02*
G75*
G03X48622Y-56200I-98J0D01*
G74*
G01*
X43896Y-53741D02*
X41142Y-53741D01*
X41142Y-53741D02*
X41142Y-56495D01*
X41142Y-56495D02*
X43896Y-56495D01*
X43896Y-56495D02*
X43896Y-53741D01*
X41535Y-56200D02*
G75*
G03X41535Y-56200I-98J0D01*
G74*
G01*
X50983Y-47835D02*
X48229Y-47835D01*
X48229Y-47835D02*
X48229Y-50589D01*
X48229Y-50589D02*
X50983Y-50589D01*
X50983Y-50589D02*
X50983Y-47835D01*
X48622Y-50294D02*
G75*
G03X48622Y-50294I-98J0D01*
G74*
G01*
X43896Y-47835D02*
X41142Y-47835D01*
X41142Y-47835D02*
X41142Y-50589D01*
X41142Y-50589D02*
X43896Y-50589D01*
X43896Y-50589D02*
X43896Y-47835D01*
X41535Y-50294D02*
G75*
G03X41535Y-50294I-98J0D01*
G74*
G01*
G54D16*
X73314Y-44654D02*
X73314Y-43514D01*
X73314Y-43514D02*
X73614Y-43514D01*
X73614Y-43514D02*
X73614Y-44654D01*
X73614Y-44654D02*
X73314Y-44654D01*
G54D11*
X76962Y-23740D02*
G75*
G03X76962Y-23740I-900J0D01*
G74*
G01*
X76962Y-58937D02*
G75*
G03X76962Y-58937I-900J0D01*
G74*
G01*
X41766Y-58937D02*
G75*
G03X41766Y-58937I-900J0D01*
G74*
G01*
G54D14*
X68798Y-40253D02*
X68538Y-40513D01*
X68798Y-40313D02*
X68603Y-40513D01*
X68288Y-39823D02*
X68181Y-39823D01*
X68288Y-40333D02*
X68181Y-40333D01*
X68798Y-40078D02*
X68905Y-40078D01*
X68798Y-39823D02*
X68905Y-39823D01*
X68798Y-40333D02*
X68905Y-40333D01*
X68288Y-40078D02*
X68181Y-40078D01*
X68288Y-40513D02*
X68288Y-39643D01*
X68288Y-39643D02*
X68798Y-39643D01*
X68798Y-39643D02*
X68798Y-40513D01*
X68798Y-40513D02*
X68288Y-40513D01*
G54D11*
X71372Y-30511D02*
G75*
G03X71372Y-30511I-900J0D01*
G74*
G01*
X46962Y-52165D02*
G75*
G03X46962Y-52165I-900J0D01*
G74*
G01*
X71372Y-52165D02*
G75*
G03X71372Y-52165I-900J0D01*
G74*
G01*
G54D17*
X69035Y-41043D02*
X68051Y-41043D01*
X68051Y-41043D02*
X68051Y-41830D01*
X68051Y-41830D02*
X69035Y-41830D01*
X69035Y-41830D02*
X69035Y-41043D01*
G54D13*
X71157Y-42386D02*
X74149Y-42386D01*
X74149Y-42386D02*
X74149Y-40340D01*
X74149Y-40340D02*
X71157Y-40340D01*
G54D14*
X71118Y-42386D02*
X71502Y-42386D01*
X71502Y-42386D02*
X71502Y-40340D01*
X71502Y-40340D02*
X71118Y-40340D01*
X71118Y-40340D02*
X71118Y-42386D01*
X41142Y-28936D02*
X43896Y-28936D01*
X43896Y-28936D02*
X43896Y-26182D01*
X43896Y-26182D02*
X41142Y-26182D01*
X41142Y-26182D02*
X41142Y-28936D01*
X43699Y-26477D02*
G75*
G03X43699Y-26477I-98J0D01*
G74*
G01*
G54D18*
X76145Y-50968D02*
X78145Y-50968D01*
X78145Y-50968D02*
X78145Y-52968D01*
X78145Y-52968D02*
X76145Y-52968D01*
X76145Y-52968D02*
X76145Y-50968D01*
X70094Y-59019D02*
X70094Y-61019D01*
X70094Y-61019D02*
X68094Y-61019D01*
X68094Y-61019D02*
X68094Y-59019D01*
X68094Y-59019D02*
X70094Y-59019D01*
X68094Y-23657D02*
X68094Y-21657D01*
X68094Y-21657D02*
X70094Y-21657D01*
X70094Y-21657D02*
X70094Y-23657D01*
X70094Y-23657D02*
X68094Y-23657D01*
G54D14*
X73476Y-38043D02*
X73476Y-39043D01*
X73476Y-39043D02*
X68472Y-39043D01*
X68472Y-39033D02*
X68472Y-38033D01*
X68472Y-38043D02*
X73476Y-38043D01*
G54D17*
X75265Y-46525D02*
X77135Y-46525D01*
X77135Y-46525D02*
X77125Y-46712D01*
X77125Y-46712D02*
X75255Y-46712D01*
X75255Y-46712D02*
X75255Y-46535D01*
X75255Y-45521D02*
X77135Y-45521D01*
X77125Y-45521D02*
X77125Y-45708D01*
X77125Y-45708D02*
X75255Y-45708D01*
X75255Y-45708D02*
X75255Y-45521D01*
X75236Y-44704D02*
X75236Y-44527D01*
X75236Y-44527D02*
X75246Y-44537D01*
X75236Y-44527D02*
X77135Y-44527D01*
X77135Y-44527D02*
X77135Y-44694D01*
X77135Y-44694D02*
X75236Y-44694D01*
X77125Y-44114D02*
X77125Y-47106D01*
X77125Y-47106D02*
X78110Y-47106D01*
X78110Y-47106D02*
X78110Y-44114D01*
X78110Y-44114D02*
X77125Y-44114D01*
X40787Y-40255D02*
X42362Y-40255D01*
X42362Y-40255D02*
X42362Y-42421D01*
X42362Y-42421D02*
X40787Y-42421D01*
X38818Y-42421D02*
X38818Y-40255D01*
X38818Y-40255D02*
X40787Y-40255D01*
X40787Y-40255D02*
X40787Y-42421D01*
X40787Y-42421D02*
X38818Y-42421D01*
G54D19*
X56533Y-65578D02*
X56333Y-65578D01*
X56333Y-65578D02*
X56333Y-65878D01*
X56333Y-65878D02*
X56533Y-65878D01*
X56733Y-65578D02*
X56933Y-65578D01*
X56933Y-65578D02*
X56933Y-65878D01*
X56933Y-65878D02*
X56733Y-65878D01*
G54D14*
X61749Y-66614D02*
X61949Y-66614D01*
X61949Y-66614D02*
X61949Y-66144D01*
X61749Y-66614D02*
X61749Y-66144D01*
X61159Y-66614D02*
X61159Y-66144D01*
X61359Y-66614D02*
X61359Y-66144D01*
X61159Y-66614D02*
X61359Y-66614D01*
X60569Y-66614D02*
X60769Y-66614D01*
X60769Y-66614D02*
X60769Y-66144D01*
X60569Y-66614D02*
X60569Y-66144D01*
X60904Y-64919D02*
X61614Y-64919D01*
X61614Y-64919D02*
X61614Y-65114D01*
X60904Y-64919D02*
X60904Y-65114D01*
X60354Y-66144D02*
X60354Y-65114D01*
X60354Y-65114D02*
X62164Y-65114D01*
X62164Y-65114D02*
X62164Y-66144D01*
X62164Y-66144D02*
X60354Y-66144D01*
G54D18*
X76145Y-29708D02*
X78145Y-29708D01*
X78145Y-29708D02*
X78145Y-31708D01*
X78145Y-31708D02*
X76145Y-31708D01*
X76145Y-31708D02*
X76145Y-29708D01*
M02*
