G04 (created by PCBNEW (2013-mar-13)-testing) date Thu 30 May 2013 09:16:45 AM ICT*
%MOIN*%
G04 Gerber Fmt 3.4, Leading zero omitted, Abs format*
%FSLAX34Y34*%
G01*
G70*
G90*
G04 APERTURE LIST*
%ADD10C,0.00393701*%
%ADD11C,0.00787402*%
%ADD12C,0.011811*%
%ADD13C,0.015*%
%ADD14C,0.00590551*%
%ADD15C,0.004*%
%ADD16C,0.008*%
%ADD17C,0.01*%
%ADD18C,0.005*%
%ADD19C,0.006*%
%ADD20C,0.0028*%
%ADD21C,0.0001*%
%ADD22C,0.20885*%
%ADD23R,0.0375906X0.0454646*%
%ADD24R,0.0631X0.1537*%
%ADD25R,0.0907X0.0907*%
%ADD26R,0.1222X0.1222*%
%ADD27O,0.0946X0.0946*%
%ADD28R,0.0553X0.0513*%
%ADD29R,0.0513X0.0553*%
%ADD30R,0.0631X0.071*%
%ADD31R,0.071X0.0631*%
%ADD32R,0.0828X0.0749*%
%ADD33C,0.0474*%
%ADD34R,0.1005X0.0316*%
%ADD35R,0.1104X0.0907*%
%ADD36R,0.0395X0.0474*%
%ADD37R,0.0474X0.0395*%
%ADD38R,0.047X0.043*%
%ADD39R,0.0379843X0.023811*%
%ADD40R,0.0277X0.071*%
%ADD41R,0.0513701X0.0513701*%
%ADD42R,0.0907402X0.062*%
%ADD43R,0.232472X0.116331*%
%ADD44R,0.287591X0.0671181*%
%ADD45R,0.075X0.0396*%
%ADD46R,0.0947X0.0396*%
%ADD47R,0.1203X0.0907*%
%ADD48R,0.0277X0.0356*%
%ADD49C,0.11811*%
%ADD50R,0.024X0.032*%
%ADD51R,0.137984X0.0513701*%
%ADD52R,0.0513701X0.137984*%
%ADD53R,0.0316X0.0238*%
%ADD54R,0.0238X0.0316*%
%ADD55R,0.224598X0.224598*%
%ADD56R,0.0238X0.0415*%
%ADD57R,0.0415X0.0238*%
%ADD58R,0.0828661X0.0828661*%
%ADD59R,0.0513701X0.0434961*%
%ADD60R,0.0238X0.0395*%
%ADD61R,0.0395X0.0238*%
%ADD62R,0.0297165X0.110031*%
%ADD63R,0.0958583X0.12578*%
%ADD64R,0.0521575X0.110031*%
%ADD65R,0.117906X0.0730236*%
%ADD66R,0.035622X0.0289291*%
%ADD67R,0.0289291X0.0395591*%
G04 APERTURE END LIST*
G54D10*
G54D11*
X68336Y-41958D02*
X68336Y-42076D01*
X68198Y-41958D02*
X68336Y-41958D01*
X73464Y-37903D02*
X73464Y-37687D01*
X73474Y-37903D02*
X73710Y-37903D01*
X58375Y-46742D02*
X58454Y-46742D01*
X58356Y-46643D02*
X58356Y-46742D01*
X58572Y-35875D02*
X58572Y-36003D01*
X58454Y-35875D02*
X58572Y-35875D01*
X77639Y-48045D02*
X77639Y-48176D01*
X77845Y-48176D02*
X77451Y-48176D01*
X77451Y-47988D01*
X77732Y-47857D02*
X77732Y-47670D01*
X77845Y-47895D02*
X77451Y-47763D01*
X77845Y-47632D01*
X77845Y-47501D02*
X77451Y-47501D01*
X77845Y-47276D01*
X77451Y-47276D01*
X77500Y-46506D02*
X77500Y-46600D01*
X77406Y-46563D02*
X77500Y-46600D01*
X77593Y-46563D01*
X77443Y-46675D02*
X77500Y-46600D01*
X77556Y-46675D01*
X77330Y-44604D02*
X77630Y-44604D01*
X77389Y-45608D02*
X77689Y-45608D01*
X77539Y-45758D02*
X77539Y-45458D01*
X68670Y-37796D02*
X68670Y-37402D01*
X69083Y-37758D02*
X69064Y-37777D01*
X69008Y-37796D01*
X68970Y-37796D01*
X68914Y-37777D01*
X68877Y-37739D01*
X68858Y-37702D01*
X68839Y-37627D01*
X68839Y-37571D01*
X68858Y-37496D01*
X68877Y-37458D01*
X68914Y-37421D01*
X68970Y-37402D01*
X69008Y-37402D01*
X69064Y-37421D01*
X69083Y-37440D01*
X69233Y-37777D02*
X69289Y-37796D01*
X69383Y-37796D01*
X69420Y-37777D01*
X69439Y-37758D01*
X69458Y-37721D01*
X69458Y-37683D01*
X69439Y-37646D01*
X69420Y-37627D01*
X69383Y-37608D01*
X69308Y-37589D01*
X69270Y-37571D01*
X69251Y-37552D01*
X69233Y-37514D01*
X69233Y-37477D01*
X69251Y-37440D01*
X69270Y-37421D01*
X69308Y-37402D01*
X69401Y-37402D01*
X69458Y-37421D01*
X69626Y-37796D02*
X69626Y-37402D01*
X69776Y-37402D01*
X69814Y-37421D01*
X69833Y-37440D01*
X69851Y-37477D01*
X69851Y-37533D01*
X69833Y-37571D01*
X69814Y-37589D01*
X69776Y-37608D01*
X69626Y-37608D01*
X65511Y-40925D02*
X65590Y-40925D01*
X65511Y-40856D02*
X65511Y-40925D01*
X40526Y-50906D02*
X40526Y-51225D01*
X40545Y-51262D01*
X40563Y-51281D01*
X40601Y-51300D01*
X40676Y-51300D01*
X40713Y-51281D01*
X40732Y-51262D01*
X40751Y-51225D01*
X40751Y-50906D01*
X41145Y-51300D02*
X40920Y-51300D01*
X41032Y-51300D02*
X41032Y-50906D01*
X40995Y-50962D01*
X40957Y-51000D01*
X40920Y-51018D01*
X41482Y-50906D02*
X41407Y-50906D01*
X41369Y-50925D01*
X41351Y-50943D01*
X41313Y-51000D01*
X41294Y-51075D01*
X41294Y-51225D01*
X41313Y-51262D01*
X41332Y-51281D01*
X41369Y-51300D01*
X41444Y-51300D01*
X41482Y-51281D01*
X41501Y-51262D01*
X41519Y-51225D01*
X41519Y-51131D01*
X41501Y-51093D01*
X41482Y-51075D01*
X41444Y-51056D01*
X41369Y-51056D01*
X41332Y-51075D01*
X41313Y-51093D01*
X41294Y-51131D01*
X47839Y-50995D02*
X47839Y-51313D01*
X47858Y-51351D01*
X47876Y-51369D01*
X47914Y-51388D01*
X47989Y-51388D01*
X48026Y-51369D01*
X48045Y-51351D01*
X48064Y-51313D01*
X48064Y-50995D01*
X48458Y-51388D02*
X48233Y-51388D01*
X48345Y-51388D02*
X48345Y-50995D01*
X48308Y-51051D01*
X48270Y-51088D01*
X48233Y-51107D01*
X48814Y-50995D02*
X48626Y-50995D01*
X48607Y-51182D01*
X48626Y-51163D01*
X48664Y-51145D01*
X48757Y-51145D01*
X48795Y-51163D01*
X48814Y-51182D01*
X48832Y-51220D01*
X48832Y-51313D01*
X48814Y-51351D01*
X48795Y-51369D01*
X48757Y-51388D01*
X48664Y-51388D01*
X48626Y-51369D01*
X48607Y-51351D01*
X40398Y-56811D02*
X40398Y-57130D01*
X40417Y-57168D01*
X40435Y-57186D01*
X40473Y-57205D01*
X40548Y-57205D01*
X40585Y-57186D01*
X40604Y-57168D01*
X40623Y-57130D01*
X40623Y-56811D01*
X41017Y-57205D02*
X40792Y-57205D01*
X40904Y-57205D02*
X40904Y-56811D01*
X40867Y-56868D01*
X40829Y-56905D01*
X40792Y-56924D01*
X41354Y-56943D02*
X41354Y-57205D01*
X41260Y-56793D02*
X41167Y-57074D01*
X41410Y-57074D01*
X47780Y-56831D02*
X47780Y-57150D01*
X47799Y-57187D01*
X47817Y-57206D01*
X47855Y-57225D01*
X47930Y-57225D01*
X47967Y-57206D01*
X47986Y-57187D01*
X48005Y-57150D01*
X48005Y-56831D01*
X48398Y-57225D02*
X48173Y-57225D01*
X48286Y-57225D02*
X48286Y-56831D01*
X48248Y-56887D01*
X48211Y-56925D01*
X48173Y-56944D01*
X48530Y-56831D02*
X48773Y-56831D01*
X48642Y-56981D01*
X48698Y-56981D01*
X48736Y-57000D01*
X48755Y-57019D01*
X48773Y-57056D01*
X48773Y-57150D01*
X48755Y-57187D01*
X48736Y-57206D01*
X48698Y-57225D01*
X48586Y-57225D01*
X48548Y-57206D01*
X48530Y-57187D01*
X65290Y-50916D02*
X65290Y-51235D01*
X65308Y-51272D01*
X65327Y-51291D01*
X65365Y-51309D01*
X65440Y-51309D01*
X65477Y-51291D01*
X65496Y-51272D01*
X65515Y-51235D01*
X65515Y-50916D01*
X65908Y-51309D02*
X65683Y-51309D01*
X65796Y-51309D02*
X65796Y-50916D01*
X65758Y-50972D01*
X65721Y-51010D01*
X65683Y-51028D01*
X66058Y-50953D02*
X66077Y-50935D01*
X66115Y-50916D01*
X66208Y-50916D01*
X66246Y-50935D01*
X66264Y-50953D01*
X66283Y-50991D01*
X66283Y-51028D01*
X66264Y-51085D01*
X66040Y-51309D01*
X66283Y-51309D01*
X72376Y-50935D02*
X72376Y-51254D01*
X72395Y-51292D01*
X72414Y-51310D01*
X72451Y-51329D01*
X72526Y-51329D01*
X72564Y-51310D01*
X72582Y-51292D01*
X72601Y-51254D01*
X72601Y-50935D01*
X72995Y-51329D02*
X72770Y-51329D01*
X72882Y-51329D02*
X72882Y-50935D01*
X72845Y-50992D01*
X72807Y-51029D01*
X72770Y-51048D01*
X73370Y-51329D02*
X73145Y-51329D01*
X73257Y-51329D02*
X73257Y-50935D01*
X73220Y-50992D01*
X73182Y-51029D01*
X73145Y-51048D01*
X65112Y-56861D02*
X65112Y-57179D01*
X65131Y-57217D01*
X65150Y-57236D01*
X65187Y-57254D01*
X65262Y-57254D01*
X65300Y-57236D01*
X65319Y-57217D01*
X65337Y-57179D01*
X65337Y-56861D01*
X65731Y-57254D02*
X65506Y-57254D01*
X65619Y-57254D02*
X65619Y-56861D01*
X65581Y-56917D01*
X65544Y-56954D01*
X65506Y-56973D01*
X65975Y-56861D02*
X66012Y-56861D01*
X66050Y-56879D01*
X66069Y-56898D01*
X66087Y-56936D01*
X66106Y-57011D01*
X66106Y-57104D01*
X66087Y-57179D01*
X66069Y-57217D01*
X66050Y-57236D01*
X66012Y-57254D01*
X65975Y-57254D01*
X65937Y-57236D01*
X65919Y-57217D01*
X65900Y-57179D01*
X65881Y-57104D01*
X65881Y-57011D01*
X65900Y-56936D01*
X65919Y-56898D01*
X65937Y-56879D01*
X65975Y-56861D01*
X72219Y-56772D02*
X72219Y-57091D01*
X72238Y-57128D01*
X72257Y-57147D01*
X72294Y-57166D01*
X72369Y-57166D01*
X72407Y-57147D01*
X72425Y-57128D01*
X72444Y-57091D01*
X72444Y-56772D01*
X72650Y-57166D02*
X72725Y-57166D01*
X72763Y-57147D01*
X72782Y-57128D01*
X72819Y-57072D01*
X72838Y-56997D01*
X72838Y-56847D01*
X72819Y-56810D01*
X72800Y-56791D01*
X72763Y-56772D01*
X72688Y-56772D01*
X72650Y-56791D01*
X72632Y-56810D01*
X72613Y-56847D01*
X72613Y-56941D01*
X72632Y-56978D01*
X72650Y-56997D01*
X72688Y-57016D01*
X72763Y-57016D01*
X72800Y-56997D01*
X72819Y-56978D01*
X72838Y-56941D01*
X75290Y-31241D02*
X75290Y-31559D01*
X75309Y-31597D01*
X75328Y-31616D01*
X75365Y-31634D01*
X75440Y-31634D01*
X75478Y-31616D01*
X75496Y-31597D01*
X75515Y-31559D01*
X75515Y-31241D01*
X75759Y-31409D02*
X75721Y-31391D01*
X75703Y-31372D01*
X75684Y-31334D01*
X75684Y-31316D01*
X75703Y-31278D01*
X75721Y-31259D01*
X75759Y-31241D01*
X75834Y-31241D01*
X75871Y-31259D01*
X75890Y-31278D01*
X75909Y-31316D01*
X75909Y-31334D01*
X75890Y-31372D01*
X75871Y-31391D01*
X75834Y-31409D01*
X75759Y-31409D01*
X75721Y-31428D01*
X75703Y-31447D01*
X75684Y-31484D01*
X75684Y-31559D01*
X75703Y-31597D01*
X75721Y-31616D01*
X75759Y-31634D01*
X75834Y-31634D01*
X75871Y-31616D01*
X75890Y-31597D01*
X75909Y-31559D01*
X75909Y-31484D01*
X75890Y-31447D01*
X75871Y-31428D01*
X75834Y-31409D01*
X68105Y-31369D02*
X68105Y-31687D01*
X68124Y-31725D01*
X68143Y-31744D01*
X68180Y-31762D01*
X68255Y-31762D01*
X68293Y-31744D01*
X68311Y-31725D01*
X68330Y-31687D01*
X68330Y-31369D01*
X68480Y-31369D02*
X68742Y-31369D01*
X68574Y-31762D01*
X75054Y-25374D02*
X75054Y-25693D01*
X75073Y-25731D01*
X75091Y-25749D01*
X75129Y-25768D01*
X75204Y-25768D01*
X75241Y-25749D01*
X75260Y-25731D01*
X75279Y-25693D01*
X75279Y-25374D01*
X75635Y-25374D02*
X75560Y-25374D01*
X75523Y-25393D01*
X75504Y-25412D01*
X75466Y-25468D01*
X75448Y-25543D01*
X75448Y-25693D01*
X75466Y-25731D01*
X75485Y-25749D01*
X75523Y-25768D01*
X75598Y-25768D01*
X75635Y-25749D01*
X75654Y-25731D01*
X75673Y-25693D01*
X75673Y-25599D01*
X75654Y-25562D01*
X75635Y-25543D01*
X75598Y-25524D01*
X75523Y-25524D01*
X75485Y-25543D01*
X75466Y-25562D01*
X75448Y-25599D01*
X68390Y-25670D02*
X68390Y-25988D01*
X68409Y-26026D01*
X68428Y-26045D01*
X68465Y-26063D01*
X68540Y-26063D01*
X68578Y-26045D01*
X68597Y-26026D01*
X68615Y-25988D01*
X68615Y-25670D01*
X68990Y-25670D02*
X68803Y-25670D01*
X68784Y-25857D01*
X68803Y-25838D01*
X68840Y-25820D01*
X68934Y-25820D01*
X68972Y-25838D01*
X68990Y-25857D01*
X69009Y-25895D01*
X69009Y-25988D01*
X68990Y-26026D01*
X68972Y-26045D01*
X68934Y-26063D01*
X68840Y-26063D01*
X68803Y-26045D01*
X68784Y-26026D01*
X50497Y-31290D02*
X50497Y-31609D01*
X50516Y-31646D01*
X50534Y-31665D01*
X50572Y-31684D01*
X50647Y-31684D01*
X50684Y-31665D01*
X50703Y-31646D01*
X50722Y-31609D01*
X50722Y-31290D01*
X51078Y-31421D02*
X51078Y-31684D01*
X50984Y-31271D02*
X50890Y-31552D01*
X51134Y-31552D01*
X43637Y-31378D02*
X43637Y-31697D01*
X43655Y-31735D01*
X43674Y-31753D01*
X43712Y-31772D01*
X43787Y-31772D01*
X43824Y-31753D01*
X43843Y-31735D01*
X43862Y-31697D01*
X43862Y-31378D01*
X44011Y-31378D02*
X44255Y-31378D01*
X44124Y-31528D01*
X44180Y-31528D01*
X44218Y-31547D01*
X44236Y-31566D01*
X44255Y-31603D01*
X44255Y-31697D01*
X44236Y-31735D01*
X44218Y-31753D01*
X44180Y-31772D01*
X44068Y-31772D01*
X44030Y-31753D01*
X44011Y-31735D01*
X50890Y-25522D02*
X50890Y-25841D01*
X50909Y-25878D01*
X50928Y-25897D01*
X50965Y-25916D01*
X51040Y-25916D01*
X51078Y-25897D01*
X51097Y-25878D01*
X51115Y-25841D01*
X51115Y-25522D01*
X51284Y-25560D02*
X51303Y-25541D01*
X51340Y-25522D01*
X51434Y-25522D01*
X51472Y-25541D01*
X51490Y-25560D01*
X51509Y-25597D01*
X51509Y-25635D01*
X51490Y-25691D01*
X51265Y-25916D01*
X51509Y-25916D01*
X43873Y-25571D02*
X43873Y-25890D01*
X43892Y-25928D01*
X43910Y-25946D01*
X43948Y-25965D01*
X44023Y-25965D01*
X44060Y-25946D01*
X44079Y-25928D01*
X44098Y-25890D01*
X44098Y-25571D01*
X44491Y-25965D02*
X44266Y-25965D01*
X44379Y-25965D02*
X44379Y-25571D01*
X44341Y-25628D01*
X44304Y-25665D01*
X44266Y-25684D01*
G54D12*
X42630Y-44772D02*
X42630Y-44322D01*
X42373Y-41607D02*
X42823Y-41607D01*
X42598Y-41832D02*
X42598Y-41382D01*
X42134Y-39604D02*
X42134Y-39267D01*
X42134Y-39436D02*
X42724Y-39436D01*
X42640Y-39379D01*
X42584Y-39323D01*
X42556Y-39267D01*
X42668Y-39829D02*
X42696Y-39857D01*
X42724Y-39914D01*
X42724Y-40054D01*
X42696Y-40111D01*
X42668Y-40139D01*
X42612Y-40167D01*
X42556Y-40167D01*
X42471Y-40139D01*
X42134Y-39801D01*
X42134Y-40167D01*
X42724Y-40336D02*
X42134Y-40532D01*
X42724Y-40729D01*
X57345Y-55168D02*
X57345Y-54578D01*
X57682Y-55168D02*
X57429Y-54831D01*
X57682Y-54578D02*
X57345Y-54915D01*
X58020Y-55168D02*
X57964Y-55140D01*
X57935Y-55084D01*
X57935Y-54578D01*
X58329Y-55168D02*
X58273Y-55140D01*
X58245Y-55112D01*
X58217Y-55056D01*
X58217Y-54887D01*
X58245Y-54831D01*
X58273Y-54803D01*
X58329Y-54775D01*
X58413Y-54775D01*
X58470Y-54803D01*
X58498Y-54831D01*
X58526Y-54887D01*
X58526Y-55056D01*
X58498Y-55112D01*
X58470Y-55140D01*
X58413Y-55168D01*
X58329Y-55168D01*
X58779Y-54775D02*
X58779Y-55168D01*
X58779Y-54831D02*
X58807Y-54803D01*
X58863Y-54775D01*
X58948Y-54775D01*
X59004Y-54803D01*
X59032Y-54859D01*
X59032Y-55168D01*
X59566Y-55168D02*
X59566Y-54578D01*
X59566Y-55140D02*
X59510Y-55168D01*
X59398Y-55168D01*
X59341Y-55140D01*
X59313Y-55112D01*
X59285Y-55056D01*
X59285Y-54887D01*
X59313Y-54831D01*
X59341Y-54803D01*
X59398Y-54775D01*
X59510Y-54775D01*
X59566Y-54803D01*
X59848Y-55168D02*
X59848Y-54775D01*
X59848Y-54578D02*
X59820Y-54606D01*
X59848Y-54634D01*
X59876Y-54606D01*
X59848Y-54578D01*
X59848Y-54634D01*
X60129Y-55168D02*
X60129Y-54578D01*
X60185Y-54943D02*
X60354Y-55168D01*
X60354Y-54775D02*
X60129Y-55000D01*
X60832Y-55140D02*
X60776Y-55168D01*
X60663Y-55168D01*
X60607Y-55140D01*
X60579Y-55084D01*
X60579Y-54859D01*
X60607Y-54803D01*
X60663Y-54775D01*
X60776Y-54775D01*
X60832Y-54803D01*
X60860Y-54859D01*
X60860Y-54915D01*
X60579Y-54971D01*
X61872Y-55168D02*
X61535Y-55168D01*
X61704Y-55168D02*
X61704Y-54578D01*
X61647Y-54662D01*
X61591Y-54718D01*
X61535Y-54746D01*
X62379Y-54578D02*
X62266Y-54578D01*
X62210Y-54606D01*
X62182Y-54634D01*
X62125Y-54718D01*
X62097Y-54831D01*
X62097Y-55056D01*
X62125Y-55112D01*
X62154Y-55140D01*
X62210Y-55168D01*
X62322Y-55168D01*
X62379Y-55140D01*
X62407Y-55112D01*
X62435Y-55056D01*
X62435Y-54915D01*
X62407Y-54859D01*
X62379Y-54831D01*
X62322Y-54803D01*
X62210Y-54803D01*
X62154Y-54831D01*
X62125Y-54859D01*
X62097Y-54915D01*
X57289Y-55719D02*
X57429Y-56113D01*
X57570Y-55719D01*
X57795Y-56057D02*
X57823Y-56085D01*
X57795Y-56113D01*
X57767Y-56085D01*
X57795Y-56057D01*
X57795Y-56113D01*
X58188Y-55523D02*
X58245Y-55523D01*
X58301Y-55551D01*
X58329Y-55579D01*
X58357Y-55635D01*
X58385Y-55748D01*
X58385Y-55888D01*
X58357Y-56001D01*
X58329Y-56057D01*
X58301Y-56085D01*
X58245Y-56113D01*
X58188Y-56113D01*
X58132Y-56085D01*
X58104Y-56057D01*
X58076Y-56001D01*
X58048Y-55888D01*
X58048Y-55748D01*
X58076Y-55635D01*
X58104Y-55579D01*
X58132Y-55551D01*
X58188Y-55523D01*
X58638Y-56057D02*
X58667Y-56085D01*
X58638Y-56113D01*
X58610Y-56085D01*
X58638Y-56057D01*
X58638Y-56113D01*
X59229Y-56113D02*
X58892Y-56113D01*
X59060Y-56113D02*
X59060Y-55523D01*
X59004Y-55607D01*
X58948Y-55663D01*
X58892Y-55691D01*
G54D10*
X38779Y-61023D02*
X78149Y-61023D01*
X78149Y-61023D02*
X78149Y-21653D01*
X78149Y-21653D02*
X38779Y-21653D01*
X38779Y-21653D02*
X38779Y-61023D01*
G54D13*
X47159Y-30511D02*
G75*
G03X47159Y-30511I-1096J0D01*
G74*
G01*
G54D14*
X68425Y-41850D02*
X69409Y-41850D01*
X69409Y-41850D02*
X69409Y-41062D01*
X69409Y-41062D02*
X68425Y-41062D01*
X68425Y-41062D02*
X68425Y-41850D01*
G54D15*
X48469Y-39559D02*
X51853Y-39559D01*
X52168Y-43573D02*
X48154Y-43573D01*
X51126Y-39874D02*
G75*
G02X49829Y-43486I-965J-1691D01*
G74*
G01*
X49817Y-43573D02*
X48154Y-43573D01*
X48154Y-43573D02*
X48154Y-39874D01*
X48154Y-39874D02*
X48469Y-39559D01*
X51853Y-39559D02*
X52168Y-39874D01*
X52168Y-39874D02*
X52168Y-43573D01*
X52168Y-43573D02*
X50495Y-43573D01*
X49196Y-43258D02*
G75*
G02X50496Y-39648I965J1691D01*
G74*
G01*
X51273Y-43160D02*
X49059Y-43160D01*
X52109Y-41566D02*
G75*
G03X52109Y-41566I-1948J0D01*
G74*
G01*
G54D16*
X56020Y-53598D02*
X56020Y-49542D01*
X56001Y-49561D02*
X60057Y-49561D01*
X60113Y-49539D02*
X60113Y-53647D01*
X60067Y-53615D02*
X56037Y-53615D01*
X59739Y-51588D02*
G75*
G03X59739Y-51588I-1299J0D01*
G74*
G01*
X61109Y-29113D02*
X61109Y-33169D01*
X61128Y-33150D02*
X57072Y-33150D01*
X57016Y-33172D02*
X57016Y-29064D01*
X57062Y-29096D02*
X61092Y-29096D01*
X59988Y-31123D02*
G75*
G03X59988Y-31123I-1299J0D01*
G74*
G01*
G54D17*
X46849Y-38937D02*
X46849Y-44291D01*
X46849Y-44291D02*
X44212Y-44291D01*
X43779Y-44291D02*
X43149Y-44291D01*
X43149Y-44291D02*
X43149Y-38937D01*
X43149Y-38937D02*
X46849Y-38937D01*
X43780Y-44291D02*
G75*
G02X44212Y-44291I216J0D01*
G74*
G01*
G54D18*
X74488Y-42853D02*
X78109Y-42853D01*
X78109Y-42853D02*
X78109Y-39823D01*
X78109Y-39823D02*
X74488Y-39823D01*
X74488Y-39823D02*
X74488Y-42853D01*
G54D19*
X73314Y-44654D02*
X73314Y-43514D01*
X73314Y-43514D02*
X73614Y-43514D01*
X73614Y-43514D02*
X73614Y-44654D01*
X73614Y-44654D02*
X73314Y-44654D01*
G54D18*
X68798Y-40253D02*
X68538Y-40513D01*
X68798Y-40313D02*
X68603Y-40513D01*
X68288Y-39823D02*
X68181Y-39823D01*
X68288Y-40333D02*
X68181Y-40333D01*
X68798Y-40078D02*
X68905Y-40078D01*
X68798Y-39823D02*
X68905Y-39823D01*
X68798Y-40333D02*
X68905Y-40333D01*
X68288Y-40078D02*
X68181Y-40078D01*
X68288Y-40513D02*
X68288Y-39643D01*
X68288Y-39643D02*
X68798Y-39643D01*
X68798Y-39643D02*
X68798Y-40513D01*
X68798Y-40513D02*
X68288Y-40513D01*
G54D16*
X71157Y-42386D02*
X74149Y-42386D01*
X74149Y-42386D02*
X74149Y-40340D01*
X74149Y-40340D02*
X71157Y-40340D01*
G54D18*
X71118Y-42386D02*
X71502Y-42386D01*
X71502Y-42386D02*
X71502Y-40340D01*
X71502Y-40340D02*
X71118Y-40340D01*
X71118Y-40340D02*
X71118Y-42386D01*
X73476Y-38043D02*
X73476Y-39043D01*
X73476Y-39043D02*
X68472Y-39043D01*
X68472Y-39033D02*
X68472Y-38033D01*
X68472Y-38043D02*
X73476Y-38043D01*
G54D14*
X75265Y-46525D02*
X77135Y-46525D01*
X77135Y-46525D02*
X77125Y-46712D01*
X77125Y-46712D02*
X75255Y-46712D01*
X75255Y-46712D02*
X75255Y-46535D01*
X75255Y-45521D02*
X77135Y-45521D01*
X77125Y-45521D02*
X77125Y-45708D01*
X77125Y-45708D02*
X75255Y-45708D01*
X75255Y-45708D02*
X75255Y-45521D01*
X75236Y-44704D02*
X75236Y-44527D01*
X75236Y-44527D02*
X75246Y-44537D01*
X75236Y-44527D02*
X77135Y-44527D01*
X77135Y-44527D02*
X77135Y-44694D01*
X77135Y-44694D02*
X75236Y-44694D01*
X77125Y-44114D02*
X77125Y-47106D01*
X77125Y-47106D02*
X78110Y-47106D01*
X78110Y-47106D02*
X78110Y-44114D01*
X78110Y-44114D02*
X77125Y-44114D01*
X40787Y-42007D02*
X42362Y-42007D01*
X42362Y-42007D02*
X42362Y-44173D01*
X42362Y-44173D02*
X40787Y-44173D01*
X38818Y-44173D02*
X38818Y-42007D01*
X38818Y-42007D02*
X40787Y-42007D01*
X40787Y-42007D02*
X40787Y-44173D01*
X40787Y-44173D02*
X38818Y-44173D01*
G54D18*
X58425Y-59096D02*
X58425Y-58896D01*
X58425Y-58896D02*
X57955Y-58896D01*
X58425Y-59096D02*
X57955Y-59096D01*
X58425Y-59686D02*
X57955Y-59686D01*
X58425Y-59486D02*
X57955Y-59486D01*
X58425Y-59686D02*
X58425Y-59486D01*
X58425Y-60276D02*
X58425Y-60076D01*
X58425Y-60076D02*
X57955Y-60076D01*
X58425Y-60276D02*
X57955Y-60276D01*
X56730Y-59941D02*
X56730Y-59231D01*
X56730Y-59231D02*
X56925Y-59231D01*
X56730Y-59941D02*
X56925Y-59941D01*
X57955Y-60491D02*
X56925Y-60491D01*
X56925Y-60491D02*
X56925Y-58681D01*
X56925Y-58681D02*
X57955Y-58681D01*
X57955Y-58681D02*
X57955Y-60491D01*
G54D20*
X69211Y-35007D02*
X69011Y-35007D01*
X69011Y-35007D02*
X69011Y-35307D01*
X69011Y-35307D02*
X69211Y-35307D01*
X69411Y-35007D02*
X69611Y-35007D01*
X69611Y-35007D02*
X69611Y-35307D01*
X69611Y-35307D02*
X69411Y-35307D01*
G54D15*
X55346Y-39874D02*
G75*
G02X54050Y-43486I-965J-1691D01*
G74*
G01*
X54037Y-43573D02*
X52374Y-43573D01*
X52374Y-43573D02*
X52374Y-39874D01*
X52374Y-39874D02*
X52689Y-39559D01*
X56073Y-39559D02*
X56388Y-39874D01*
X56388Y-39874D02*
X56388Y-43573D01*
X56388Y-43573D02*
X54715Y-43573D01*
X53416Y-43258D02*
G75*
G02X54716Y-39648I965J1691D01*
G74*
G01*
G54D18*
X58026Y-23623D02*
X58026Y-23823D01*
X58026Y-23823D02*
X58496Y-23823D01*
X58026Y-23623D02*
X58496Y-23623D01*
X58026Y-23033D02*
X58496Y-23033D01*
X58026Y-23233D02*
X58496Y-23233D01*
X58026Y-23033D02*
X58026Y-23233D01*
X58026Y-22443D02*
X58026Y-22643D01*
X58026Y-22643D02*
X58496Y-22643D01*
X58026Y-22443D02*
X58496Y-22443D01*
X59721Y-22778D02*
X59721Y-23488D01*
X59721Y-23488D02*
X59526Y-23488D01*
X59721Y-22778D02*
X59526Y-22778D01*
X58496Y-22228D02*
X59526Y-22228D01*
X59526Y-22228D02*
X59526Y-24038D01*
X59526Y-24038D02*
X58496Y-24038D01*
X58496Y-24038D02*
X58496Y-22228D01*
G54D21*
G36*
X56888Y-54944D02*
X56887Y-54961D01*
X56885Y-54984D01*
X56881Y-55013D01*
X56877Y-55046D01*
X56872Y-55080D01*
X56867Y-55111D01*
X56867Y-54971D01*
X56866Y-54956D01*
X56863Y-54952D01*
X56858Y-54960D01*
X56851Y-54978D01*
X56842Y-55008D01*
X56836Y-55030D01*
X56821Y-55083D01*
X56821Y-55001D01*
X56818Y-54998D01*
X56814Y-55004D01*
X56807Y-55019D01*
X56799Y-55043D01*
X56798Y-55048D01*
X56753Y-55187D01*
X56704Y-55318D01*
X56650Y-55437D01*
X56592Y-55547D01*
X56578Y-55570D01*
X56552Y-55611D01*
X56531Y-55644D01*
X56513Y-55668D01*
X56499Y-55683D01*
X56490Y-55688D01*
X56490Y-55688D01*
X56483Y-55689D01*
X56484Y-55694D01*
X56492Y-55704D01*
X56497Y-55708D01*
X56507Y-55721D01*
X56510Y-55734D01*
X56508Y-55745D01*
X56500Y-55775D01*
X56486Y-55803D01*
X56486Y-55738D01*
X56485Y-55729D01*
X56479Y-55724D01*
X56464Y-55713D01*
X56442Y-55697D01*
X56411Y-55676D01*
X56374Y-55653D01*
X56331Y-55625D01*
X56293Y-55602D01*
X56225Y-55559D01*
X56164Y-55521D01*
X56109Y-55487D01*
X56057Y-55455D01*
X56007Y-55423D01*
X55956Y-55391D01*
X55901Y-55357D01*
X55842Y-55318D01*
X55792Y-55287D01*
X55756Y-55263D01*
X55723Y-55242D01*
X55694Y-55224D01*
X55670Y-55209D01*
X55654Y-55198D01*
X55645Y-55193D01*
X55644Y-55192D01*
X55637Y-55195D01*
X55625Y-55202D01*
X55608Y-55215D01*
X55589Y-55229D01*
X55571Y-55244D01*
X55555Y-55258D01*
X55544Y-55269D01*
X55541Y-55275D01*
X55541Y-55276D01*
X55545Y-55280D01*
X55558Y-55290D01*
X55578Y-55306D01*
X55604Y-55326D01*
X55634Y-55348D01*
X55667Y-55373D01*
X55674Y-55379D01*
X55732Y-55422D01*
X55793Y-55468D01*
X55854Y-55515D01*
X55916Y-55563D01*
X55978Y-55611D01*
X56039Y-55658D01*
X56096Y-55703D01*
X56150Y-55745D01*
X56200Y-55785D01*
X56244Y-55820D01*
X56281Y-55850D01*
X56311Y-55875D01*
X56327Y-55889D01*
X56342Y-55901D01*
X56355Y-55906D01*
X56367Y-55904D01*
X56378Y-55899D01*
X56398Y-55885D01*
X56419Y-55864D01*
X56439Y-55839D01*
X56458Y-55812D01*
X56472Y-55784D01*
X56482Y-55759D01*
X56486Y-55738D01*
X56486Y-55803D01*
X56484Y-55808D01*
X56463Y-55843D01*
X56440Y-55874D01*
X56428Y-55887D01*
X56403Y-55910D01*
X56383Y-55924D01*
X56364Y-55929D01*
X56346Y-55926D01*
X56342Y-55925D01*
X56331Y-55922D01*
X56328Y-55924D01*
X56329Y-55928D01*
X56328Y-55937D01*
X56320Y-55954D01*
X56306Y-55978D01*
X56299Y-55989D01*
X56239Y-56078D01*
X56169Y-56170D01*
X56092Y-56261D01*
X56010Y-56351D01*
X55923Y-56436D01*
X55890Y-56467D01*
X55873Y-56483D01*
X55865Y-56492D01*
X55864Y-56493D01*
X55872Y-56488D01*
X55888Y-56476D01*
X55911Y-56457D01*
X55941Y-56433D01*
X55947Y-56427D01*
X56044Y-56341D01*
X56138Y-56245D01*
X56227Y-56141D01*
X56309Y-56030D01*
X56332Y-55997D01*
X56346Y-55978D01*
X56358Y-55963D01*
X56368Y-55954D01*
X56370Y-55953D01*
X56383Y-55949D01*
X56402Y-55937D01*
X56423Y-55921D01*
X56444Y-55900D01*
X56460Y-55882D01*
X56488Y-55844D01*
X56509Y-55804D01*
X56524Y-55765D01*
X56531Y-55728D01*
X56531Y-55726D01*
X56532Y-55710D01*
X56535Y-55697D01*
X56540Y-55683D01*
X56549Y-55666D01*
X56562Y-55642D01*
X56571Y-55628D01*
X56617Y-55547D01*
X56662Y-55457D01*
X56705Y-55362D01*
X56744Y-55262D01*
X56779Y-55163D01*
X56807Y-55065D01*
X56814Y-55038D01*
X56819Y-55015D01*
X56821Y-55001D01*
X56821Y-55083D01*
X56820Y-55087D01*
X56801Y-55147D01*
X56782Y-55208D01*
X56763Y-55265D01*
X56744Y-55316D01*
X56738Y-55333D01*
X56721Y-55373D01*
X56700Y-55420D01*
X56675Y-55471D01*
X56650Y-55523D01*
X56625Y-55572D01*
X56601Y-55616D01*
X56593Y-55630D01*
X56577Y-55658D01*
X56567Y-55677D01*
X56562Y-55690D01*
X56561Y-55697D01*
X56563Y-55700D01*
X56572Y-55706D01*
X56587Y-55716D01*
X56597Y-55722D01*
X56612Y-55732D01*
X56623Y-55738D01*
X56627Y-55740D01*
X56631Y-55735D01*
X56639Y-55722D01*
X56649Y-55703D01*
X56658Y-55684D01*
X56717Y-55548D01*
X56767Y-55410D01*
X56809Y-55269D01*
X56842Y-55129D01*
X56853Y-55071D01*
X56858Y-55040D01*
X56862Y-55011D01*
X56865Y-54989D01*
X56867Y-54974D01*
X56867Y-54971D01*
X56867Y-55111D01*
X56867Y-55113D01*
X56861Y-55144D01*
X56858Y-55163D01*
X56833Y-55268D01*
X56800Y-55379D01*
X56760Y-55493D01*
X56712Y-55610D01*
X56680Y-55682D01*
X56647Y-55753D01*
X56663Y-55766D01*
X56674Y-55777D01*
X56679Y-55789D01*
X56679Y-55804D01*
X56680Y-55822D01*
X56686Y-55834D01*
X56695Y-55844D01*
X56707Y-55857D01*
X56711Y-55867D01*
X56709Y-55883D01*
X56699Y-55917D01*
X56686Y-55942D01*
X56686Y-55869D01*
X56685Y-55868D01*
X56679Y-55855D01*
X56671Y-55852D01*
X56662Y-55860D01*
X56660Y-55864D01*
X56660Y-55803D01*
X56655Y-55794D01*
X56641Y-55781D01*
X56616Y-55763D01*
X56611Y-55760D01*
X56590Y-55747D01*
X56573Y-55736D01*
X56561Y-55730D01*
X56558Y-55729D01*
X56553Y-55734D01*
X56550Y-55747D01*
X56549Y-55753D01*
X56540Y-55785D01*
X56523Y-55820D01*
X56501Y-55857D01*
X56476Y-55893D01*
X56448Y-55925D01*
X56420Y-55949D01*
X56420Y-55950D01*
X56406Y-55960D01*
X56398Y-55968D01*
X56396Y-55970D01*
X56401Y-55975D01*
X56412Y-55985D01*
X56428Y-55998D01*
X56445Y-56011D01*
X56462Y-56024D01*
X56476Y-56034D01*
X56484Y-56038D01*
X56485Y-56039D01*
X56493Y-56036D01*
X56507Y-56027D01*
X56519Y-56017D01*
X56538Y-55999D01*
X56559Y-55975D01*
X56581Y-55947D01*
X56603Y-55916D01*
X56622Y-55885D01*
X56640Y-55856D01*
X56652Y-55830D01*
X56659Y-55810D01*
X56660Y-55803D01*
X56660Y-55864D01*
X56651Y-55879D01*
X56649Y-55883D01*
X56637Y-55905D01*
X56619Y-55931D01*
X56600Y-55959D01*
X56579Y-55986D01*
X56561Y-56008D01*
X56549Y-56021D01*
X56539Y-56032D01*
X56538Y-56040D01*
X56540Y-56043D01*
X56551Y-56049D01*
X56565Y-56048D01*
X56580Y-56042D01*
X56597Y-56029D01*
X56615Y-56010D01*
X56634Y-55986D01*
X56652Y-55959D01*
X56667Y-55932D01*
X56679Y-55906D01*
X56685Y-55884D01*
X56686Y-55869D01*
X56686Y-55942D01*
X56679Y-55955D01*
X56651Y-55994D01*
X56625Y-56023D01*
X56600Y-56047D01*
X56579Y-56063D01*
X56562Y-56071D01*
X56546Y-56071D01*
X56531Y-56065D01*
X56529Y-56063D01*
X56516Y-56056D01*
X56504Y-56056D01*
X56501Y-56058D01*
X56483Y-56061D01*
X56473Y-56057D01*
X56465Y-56055D01*
X56459Y-56056D01*
X56450Y-56063D01*
X56442Y-56070D01*
X56442Y-56034D01*
X56407Y-56007D01*
X56390Y-55995D01*
X56376Y-55987D01*
X56368Y-55985D01*
X56368Y-55985D01*
X56362Y-55992D01*
X56352Y-56006D01*
X56341Y-56022D01*
X56262Y-56126D01*
X56172Y-56231D01*
X56072Y-56336D01*
X55960Y-56440D01*
X55878Y-56512D01*
X55853Y-56534D01*
X55887Y-56512D01*
X55906Y-56500D01*
X55932Y-56484D01*
X55959Y-56466D01*
X55979Y-56453D01*
X56053Y-56400D01*
X56129Y-56341D01*
X56205Y-56277D01*
X56277Y-56211D01*
X56344Y-56145D01*
X56403Y-56080D01*
X56419Y-56062D01*
X56442Y-56034D01*
X56442Y-56070D01*
X56436Y-56076D01*
X56429Y-56084D01*
X56400Y-56116D01*
X56364Y-56152D01*
X56325Y-56191D01*
X56285Y-56230D01*
X56245Y-56267D01*
X56209Y-56300D01*
X56178Y-56328D01*
X56172Y-56333D01*
X56060Y-56421D01*
X55947Y-56497D01*
X55833Y-56563D01*
X55768Y-56596D01*
X55734Y-56612D01*
X55709Y-56623D01*
X55693Y-56630D01*
X55685Y-56633D01*
X55684Y-56631D01*
X55689Y-56626D01*
X55699Y-56617D01*
X55700Y-56616D01*
X55805Y-56524D01*
X55900Y-56436D01*
X55986Y-56349D01*
X56065Y-56263D01*
X56139Y-56176D01*
X56189Y-56111D01*
X56228Y-56058D01*
X56260Y-56013D01*
X56283Y-55976D01*
X56300Y-55948D01*
X56308Y-55928D01*
X56310Y-55920D01*
X56310Y-55916D01*
X56309Y-55912D01*
X56307Y-55907D01*
X56303Y-55901D01*
X56296Y-55894D01*
X56285Y-55884D01*
X56270Y-55870D01*
X56250Y-55853D01*
X56223Y-55831D01*
X56190Y-55804D01*
X56149Y-55770D01*
X56118Y-55745D01*
X56089Y-55721D01*
X56055Y-55693D01*
X56016Y-55663D01*
X55974Y-55629D01*
X55929Y-55594D01*
X55882Y-55558D01*
X55835Y-55521D01*
X55788Y-55485D01*
X55742Y-55450D01*
X55698Y-55416D01*
X55657Y-55386D01*
X55620Y-55358D01*
X55587Y-55333D01*
X55561Y-55313D01*
X55540Y-55299D01*
X55527Y-55289D01*
X55522Y-55287D01*
X55517Y-55290D01*
X55505Y-55301D01*
X55486Y-55317D01*
X55460Y-55337D01*
X55430Y-55362D01*
X55397Y-55390D01*
X55362Y-55419D01*
X55318Y-55456D01*
X55283Y-55486D01*
X55255Y-55510D01*
X55234Y-55530D01*
X55218Y-55545D01*
X55208Y-55556D01*
X55202Y-55564D01*
X55201Y-55568D01*
X55198Y-55574D01*
X55191Y-55583D01*
X55179Y-55596D01*
X55177Y-55598D01*
X55177Y-55564D01*
X55174Y-55548D01*
X55164Y-55529D01*
X55149Y-55510D01*
X55132Y-55493D01*
X55115Y-55480D01*
X55100Y-55476D01*
X55099Y-55476D01*
X55093Y-55479D01*
X55078Y-55490D01*
X55057Y-55506D01*
X55030Y-55527D01*
X54999Y-55552D01*
X54965Y-55580D01*
X54927Y-55611D01*
X54889Y-55644D01*
X54850Y-55676D01*
X54811Y-55709D01*
X54774Y-55740D01*
X54741Y-55770D01*
X54710Y-55797D01*
X54705Y-55802D01*
X54611Y-55893D01*
X54523Y-55989D01*
X54503Y-56013D01*
X54483Y-56037D01*
X54469Y-56052D01*
X54463Y-56058D01*
X54463Y-56055D01*
X54470Y-56044D01*
X54484Y-56023D01*
X54505Y-55993D01*
X54518Y-55975D01*
X54546Y-55937D01*
X54573Y-55902D01*
X54602Y-55869D01*
X54634Y-55836D01*
X54673Y-55798D01*
X54685Y-55787D01*
X54718Y-55757D01*
X54685Y-55713D01*
X54670Y-55692D01*
X54656Y-55673D01*
X54646Y-55659D01*
X54643Y-55655D01*
X54640Y-55651D01*
X54637Y-55650D01*
X54632Y-55651D01*
X54624Y-55655D01*
X54612Y-55663D01*
X54596Y-55676D01*
X54572Y-55695D01*
X54542Y-55720D01*
X54529Y-55732D01*
X54450Y-55800D01*
X54382Y-55864D01*
X54323Y-55923D01*
X54274Y-55979D01*
X54234Y-56031D01*
X54203Y-56081D01*
X54193Y-56099D01*
X54178Y-56134D01*
X54168Y-56162D01*
X54162Y-56190D01*
X54161Y-56220D01*
X54161Y-56222D01*
X54164Y-56259D01*
X54175Y-56290D01*
X54195Y-56318D01*
X54200Y-56323D01*
X54235Y-56351D01*
X54279Y-56372D01*
X54329Y-56384D01*
X54385Y-56388D01*
X54447Y-56384D01*
X54460Y-56382D01*
X54523Y-56367D01*
X54592Y-56345D01*
X54663Y-56315D01*
X54736Y-56279D01*
X54808Y-56237D01*
X54831Y-56222D01*
X54851Y-56208D01*
X54876Y-56191D01*
X54904Y-56171D01*
X54935Y-56148D01*
X54966Y-56125D01*
X54996Y-56103D01*
X55025Y-56081D01*
X55050Y-56062D01*
X55070Y-56046D01*
X55085Y-56034D01*
X55091Y-56028D01*
X55091Y-56027D01*
X55086Y-56024D01*
X55073Y-56017D01*
X55054Y-56007D01*
X55036Y-55999D01*
X55005Y-55983D01*
X54970Y-55965D01*
X54938Y-55946D01*
X54928Y-55941D01*
X54904Y-55926D01*
X54887Y-55917D01*
X54877Y-55913D01*
X54869Y-55914D01*
X54867Y-55915D01*
X54860Y-55920D01*
X54845Y-55932D01*
X54825Y-55947D01*
X54801Y-55966D01*
X54788Y-55976D01*
X54749Y-56005D01*
X54718Y-56029D01*
X54694Y-56047D01*
X54677Y-56059D01*
X54669Y-56065D01*
X54669Y-56064D01*
X54675Y-56058D01*
X54688Y-56046D01*
X54707Y-56029D01*
X54731Y-56008D01*
X54758Y-55984D01*
X54770Y-55973D01*
X54801Y-55944D01*
X54825Y-55922D01*
X54842Y-55905D01*
X54855Y-55892D01*
X54863Y-55882D01*
X54868Y-55872D01*
X54871Y-55863D01*
X54871Y-55862D01*
X54878Y-55843D01*
X54887Y-55825D01*
X54889Y-55822D01*
X54896Y-55814D01*
X54911Y-55800D01*
X54932Y-55782D01*
X54959Y-55758D01*
X54990Y-55732D01*
X55023Y-55703D01*
X55038Y-55691D01*
X55083Y-55653D01*
X55120Y-55621D01*
X55147Y-55596D01*
X55166Y-55578D01*
X55175Y-55567D01*
X55177Y-55564D01*
X55177Y-55598D01*
X55162Y-55613D01*
X55138Y-55634D01*
X55106Y-55662D01*
X55067Y-55695D01*
X55060Y-55701D01*
X55026Y-55730D01*
X54993Y-55759D01*
X54965Y-55784D01*
X54941Y-55806D01*
X54922Y-55823D01*
X54912Y-55835D01*
X54909Y-55837D01*
X54901Y-55854D01*
X54897Y-55870D01*
X54896Y-55873D01*
X54899Y-55884D01*
X54907Y-55895D01*
X54921Y-55908D01*
X54943Y-55922D01*
X54973Y-55940D01*
X55012Y-55961D01*
X55041Y-55975D01*
X55132Y-56020D01*
X54999Y-56126D01*
X54949Y-56166D01*
X54905Y-56201D01*
X54867Y-56229D01*
X54834Y-56253D01*
X54804Y-56273D01*
X54776Y-56291D01*
X54748Y-56306D01*
X54719Y-56322D01*
X54712Y-56325D01*
X54630Y-56361D01*
X54551Y-56387D01*
X54474Y-56403D01*
X54395Y-56410D01*
X54379Y-56410D01*
X54345Y-56409D01*
X54318Y-56408D01*
X54297Y-56405D01*
X54276Y-56400D01*
X54266Y-56397D01*
X54221Y-56378D01*
X54185Y-56352D01*
X54159Y-56319D01*
X54141Y-56279D01*
X54136Y-56258D01*
X54133Y-56212D01*
X54141Y-56162D01*
X54160Y-56109D01*
X54188Y-56054D01*
X54227Y-55996D01*
X54275Y-55936D01*
X54304Y-55905D01*
X54320Y-55889D01*
X54336Y-55873D01*
X54354Y-55856D01*
X54374Y-55837D01*
X54399Y-55815D01*
X54427Y-55790D01*
X54461Y-55761D01*
X54501Y-55727D01*
X54547Y-55688D01*
X54602Y-55641D01*
X54612Y-55633D01*
X54642Y-55608D01*
X54663Y-55642D01*
X54676Y-55662D01*
X54691Y-55683D01*
X54706Y-55703D01*
X54721Y-55721D01*
X54732Y-55734D01*
X54739Y-55740D01*
X54740Y-55740D01*
X54745Y-55737D01*
X54758Y-55726D01*
X54778Y-55710D01*
X54803Y-55689D01*
X54834Y-55664D01*
X54868Y-55635D01*
X54905Y-55604D01*
X54913Y-55596D01*
X54960Y-55558D01*
X54998Y-55526D01*
X55029Y-55500D01*
X55053Y-55481D01*
X55071Y-55467D01*
X55085Y-55458D01*
X55094Y-55454D01*
X55099Y-55453D01*
X55105Y-55451D01*
X55116Y-55445D01*
X55131Y-55434D01*
X55152Y-55418D01*
X55179Y-55397D01*
X55214Y-55369D01*
X55256Y-55334D01*
X55261Y-55329D01*
X55302Y-55295D01*
X55335Y-55267D01*
X55360Y-55245D01*
X55379Y-55228D01*
X55391Y-55216D01*
X55399Y-55207D01*
X55402Y-55201D01*
X55401Y-55198D01*
X55401Y-55198D01*
X55391Y-55190D01*
X55373Y-55176D01*
X55347Y-55157D01*
X55313Y-55132D01*
X55273Y-55104D01*
X55227Y-55071D01*
X55175Y-55036D01*
X55120Y-54997D01*
X55060Y-54956D01*
X54998Y-54913D01*
X54933Y-54868D01*
X54867Y-54823D01*
X54801Y-54778D01*
X54734Y-54732D01*
X54668Y-54687D01*
X54603Y-54643D01*
X54541Y-54602D01*
X54534Y-54597D01*
X54307Y-54445D01*
X54307Y-54413D01*
X54309Y-54391D01*
X54314Y-54373D01*
X54324Y-54357D01*
X54343Y-54336D01*
X54364Y-54322D01*
X54385Y-54314D01*
X54404Y-54315D01*
X54404Y-54315D01*
X54412Y-54320D01*
X54428Y-54330D01*
X54451Y-54346D01*
X54481Y-54366D01*
X54517Y-54391D01*
X54558Y-54419D01*
X54603Y-54451D01*
X54651Y-54484D01*
X54688Y-54510D01*
X54812Y-54597D01*
X54927Y-54678D01*
X55034Y-54752D01*
X55132Y-54821D01*
X55222Y-54883D01*
X55303Y-54939D01*
X55375Y-54988D01*
X55419Y-55018D01*
X55455Y-55042D01*
X55483Y-55061D01*
X55504Y-55074D01*
X55519Y-55084D01*
X55529Y-55089D01*
X55537Y-55091D01*
X55542Y-55091D01*
X55546Y-55089D01*
X55548Y-55087D01*
X55555Y-55082D01*
X55570Y-55069D01*
X55592Y-55051D01*
X55620Y-55028D01*
X55654Y-55000D01*
X55692Y-54968D01*
X55734Y-54933D01*
X55778Y-54895D01*
X55812Y-54867D01*
X55870Y-54818D01*
X55920Y-54776D01*
X55961Y-54741D01*
X55995Y-54711D01*
X56022Y-54688D01*
X56041Y-54669D01*
X56054Y-54656D01*
X56061Y-54648D01*
X56062Y-54645D01*
X56067Y-54635D01*
X56080Y-54619D01*
X56101Y-54599D01*
X56107Y-54594D01*
X56151Y-54554D01*
X56151Y-54497D01*
X56152Y-54469D01*
X56155Y-54445D01*
X56161Y-54425D01*
X56171Y-54407D01*
X56186Y-54387D01*
X56207Y-54365D01*
X56237Y-54340D01*
X56256Y-54323D01*
X56284Y-54299D01*
X56312Y-54274D01*
X56338Y-54251D01*
X56358Y-54232D01*
X56364Y-54225D01*
X56389Y-54202D01*
X56411Y-54189D01*
X56430Y-54184D01*
X56450Y-54188D01*
X56463Y-54195D01*
X56481Y-54206D01*
X56504Y-54221D01*
X56532Y-54240D01*
X56564Y-54261D01*
X56597Y-54284D01*
X56630Y-54308D01*
X56663Y-54331D01*
X56692Y-54352D01*
X56718Y-54371D01*
X56739Y-54386D01*
X56753Y-54397D01*
X56758Y-54403D01*
X56761Y-54419D01*
X56756Y-54438D01*
X56744Y-54458D01*
X56739Y-54464D01*
X56739Y-54420D01*
X56734Y-54407D01*
X56722Y-54403D01*
X56707Y-54409D01*
X56706Y-54409D01*
X56706Y-54381D01*
X56701Y-54377D01*
X56689Y-54368D01*
X56670Y-54354D01*
X56645Y-54337D01*
X56617Y-54319D01*
X56587Y-54298D01*
X56556Y-54277D01*
X56526Y-54257D01*
X56498Y-54239D01*
X56474Y-54223D01*
X56456Y-54211D01*
X56444Y-54204D01*
X56440Y-54202D01*
X56427Y-54203D01*
X56411Y-54212D01*
X56394Y-54226D01*
X56382Y-54242D01*
X56381Y-54243D01*
X56374Y-54257D01*
X56373Y-54265D01*
X56378Y-54272D01*
X56380Y-54273D01*
X56387Y-54279D01*
X56402Y-54291D01*
X56424Y-54306D01*
X56452Y-54326D01*
X56483Y-54348D01*
X56515Y-54370D01*
X56640Y-54457D01*
X56651Y-54435D01*
X56663Y-54417D01*
X56680Y-54401D01*
X56684Y-54397D01*
X56697Y-54389D01*
X56705Y-54382D01*
X56706Y-54381D01*
X56706Y-54409D01*
X56700Y-54413D01*
X56691Y-54421D01*
X56690Y-54424D01*
X56698Y-54424D01*
X56699Y-54424D01*
X56712Y-54429D01*
X56719Y-54436D01*
X56727Y-54443D01*
X56734Y-54440D01*
X56739Y-54430D01*
X56739Y-54420D01*
X56739Y-54464D01*
X56729Y-54475D01*
X56724Y-54479D01*
X56709Y-54488D01*
X56700Y-54492D01*
X56700Y-54453D01*
X56699Y-54449D01*
X56693Y-54449D01*
X56682Y-54455D01*
X56665Y-54466D01*
X56642Y-54485D01*
X56625Y-54498D01*
X56625Y-54472D01*
X56625Y-54472D01*
X56621Y-54468D01*
X56609Y-54458D01*
X56589Y-54444D01*
X56565Y-54427D01*
X56538Y-54409D01*
X56509Y-54388D01*
X56479Y-54368D01*
X56450Y-54348D01*
X56424Y-54331D01*
X56402Y-54316D01*
X56386Y-54306D01*
X56376Y-54301D01*
X56376Y-54301D01*
X56368Y-54303D01*
X56355Y-54311D01*
X56355Y-54280D01*
X56354Y-54278D01*
X56352Y-54276D01*
X56352Y-54275D01*
X56346Y-54276D01*
X56333Y-54285D01*
X56315Y-54298D01*
X56294Y-54315D01*
X56271Y-54336D01*
X56248Y-54357D01*
X56225Y-54378D01*
X56206Y-54398D01*
X56191Y-54414D01*
X56183Y-54427D01*
X56181Y-54429D01*
X56173Y-54454D01*
X56168Y-54482D01*
X56167Y-54506D01*
X56168Y-54520D01*
X56172Y-54530D01*
X56177Y-54530D01*
X56181Y-54528D01*
X56187Y-54517D01*
X56186Y-54501D01*
X56185Y-54482D01*
X56190Y-54458D01*
X56191Y-54451D01*
X56195Y-54438D01*
X56201Y-54427D01*
X56208Y-54416D01*
X56220Y-54404D01*
X56237Y-54388D01*
X56261Y-54366D01*
X56268Y-54361D01*
X56298Y-54334D01*
X56321Y-54315D01*
X56336Y-54301D01*
X56347Y-54291D01*
X56353Y-54284D01*
X56355Y-54280D01*
X56355Y-54311D01*
X56354Y-54312D01*
X56335Y-54326D01*
X56314Y-54344D01*
X56291Y-54364D01*
X56268Y-54384D01*
X56248Y-54404D01*
X56231Y-54421D01*
X56221Y-54435D01*
X56219Y-54438D01*
X56211Y-54456D01*
X56206Y-54475D01*
X56206Y-54480D01*
X56206Y-54500D01*
X56227Y-54485D01*
X56243Y-54476D01*
X56256Y-54471D01*
X56259Y-54471D01*
X56278Y-54475D01*
X56300Y-54486D01*
X56323Y-54502D01*
X56344Y-54521D01*
X56346Y-54523D01*
X56366Y-54548D01*
X56375Y-54570D01*
X56376Y-54588D01*
X56372Y-54595D01*
X56369Y-54600D01*
X56371Y-54603D01*
X56381Y-54603D01*
X56400Y-54601D01*
X56402Y-54601D01*
X56429Y-54597D01*
X56458Y-54589D01*
X56478Y-54583D01*
X56508Y-54567D01*
X56543Y-54544D01*
X56571Y-54522D01*
X56592Y-54504D01*
X56609Y-54489D01*
X56621Y-54478D01*
X56625Y-54472D01*
X56625Y-54498D01*
X56611Y-54510D01*
X56605Y-54515D01*
X56565Y-54547D01*
X56531Y-54572D01*
X56501Y-54591D01*
X56472Y-54604D01*
X56443Y-54613D01*
X56412Y-54618D01*
X56376Y-54620D01*
X56355Y-54620D01*
X56354Y-54620D01*
X56354Y-54575D01*
X56352Y-54568D01*
X56345Y-54554D01*
X56331Y-54536D01*
X56314Y-54519D01*
X56298Y-54506D01*
X56292Y-54502D01*
X56280Y-54496D01*
X56269Y-54494D01*
X56258Y-54496D01*
X56244Y-54503D01*
X56227Y-54515D01*
X56205Y-54533D01*
X56176Y-54559D01*
X56173Y-54561D01*
X56097Y-54628D01*
X56116Y-54639D01*
X56139Y-54655D01*
X56160Y-54675D01*
X56177Y-54695D01*
X56181Y-54702D01*
X56189Y-54719D01*
X56225Y-54690D01*
X56244Y-54674D01*
X56255Y-54662D01*
X56259Y-54652D01*
X56259Y-54650D01*
X56263Y-54637D01*
X56276Y-54620D01*
X56279Y-54618D01*
X56294Y-54605D01*
X56306Y-54599D01*
X56319Y-54599D01*
X56337Y-54598D01*
X56349Y-54589D01*
X56354Y-54575D01*
X56354Y-54620D01*
X56328Y-54621D01*
X56310Y-54623D01*
X56300Y-54627D01*
X56299Y-54628D01*
X56295Y-54635D01*
X56299Y-54639D01*
X56312Y-54641D01*
X56332Y-54642D01*
X56359Y-54642D01*
X56386Y-54641D01*
X56414Y-54639D01*
X56437Y-54636D01*
X56443Y-54635D01*
X56466Y-54629D01*
X56488Y-54622D01*
X56501Y-54616D01*
X56511Y-54610D01*
X56528Y-54598D01*
X56549Y-54581D01*
X56574Y-54562D01*
X56600Y-54541D01*
X56626Y-54519D01*
X56650Y-54499D01*
X56671Y-54481D01*
X56688Y-54466D01*
X56698Y-54456D01*
X56700Y-54453D01*
X56700Y-54492D01*
X56697Y-54493D01*
X56694Y-54494D01*
X56687Y-54498D01*
X56673Y-54507D01*
X56654Y-54522D01*
X56631Y-54539D01*
X56623Y-54546D01*
X56588Y-54575D01*
X56559Y-54598D01*
X56536Y-54614D01*
X56517Y-54627D01*
X56499Y-54636D01*
X56482Y-54644D01*
X56480Y-54644D01*
X56444Y-54654D01*
X56403Y-54661D01*
X56362Y-54663D01*
X56335Y-54661D01*
X56301Y-54656D01*
X56244Y-54701D01*
X56221Y-54719D01*
X56201Y-54733D01*
X56185Y-54743D01*
X56175Y-54747D01*
X56175Y-54747D01*
X56166Y-54750D01*
X56159Y-54754D01*
X56159Y-54716D01*
X56156Y-54705D01*
X56146Y-54691D01*
X56132Y-54677D01*
X56117Y-54666D01*
X56103Y-54661D01*
X56100Y-54661D01*
X56092Y-54665D01*
X56075Y-54677D01*
X56052Y-54694D01*
X56023Y-54717D01*
X55989Y-54745D01*
X55952Y-54775D01*
X55921Y-54802D01*
X55882Y-54834D01*
X55837Y-54872D01*
X55788Y-54913D01*
X55737Y-54957D01*
X55684Y-55001D01*
X55632Y-55045D01*
X55581Y-55088D01*
X55580Y-55089D01*
X55531Y-55130D01*
X55511Y-55147D01*
X55511Y-55114D01*
X55508Y-55109D01*
X55500Y-55101D01*
X55486Y-55091D01*
X55466Y-55076D01*
X55439Y-55057D01*
X55404Y-55033D01*
X55360Y-55003D01*
X55355Y-55000D01*
X55241Y-54924D01*
X55135Y-54852D01*
X55035Y-54783D01*
X54939Y-54718D01*
X54847Y-54653D01*
X54755Y-54588D01*
X54662Y-54521D01*
X54567Y-54452D01*
X54535Y-54429D01*
X54502Y-54405D01*
X54472Y-54384D01*
X54445Y-54365D01*
X54424Y-54351D01*
X54410Y-54341D01*
X54404Y-54338D01*
X54385Y-54336D01*
X54365Y-54345D01*
X54349Y-54360D01*
X54333Y-54381D01*
X54326Y-54403D01*
X54328Y-54423D01*
X54334Y-54429D01*
X54349Y-54442D01*
X54372Y-54459D01*
X54404Y-54482D01*
X54443Y-54509D01*
X54490Y-54541D01*
X54538Y-54573D01*
X54593Y-54610D01*
X54652Y-54650D01*
X54714Y-54692D01*
X54777Y-54736D01*
X54842Y-54780D01*
X54907Y-54825D01*
X54972Y-54870D01*
X55035Y-54914D01*
X55096Y-54957D01*
X55155Y-54998D01*
X55209Y-55036D01*
X55258Y-55071D01*
X55302Y-55102D01*
X55339Y-55130D01*
X55370Y-55152D01*
X55392Y-55169D01*
X55402Y-55177D01*
X55414Y-55185D01*
X55421Y-55189D01*
X55421Y-55189D01*
X55428Y-55186D01*
X55441Y-55177D01*
X55458Y-55163D01*
X55466Y-55157D01*
X55484Y-55142D01*
X55499Y-55129D01*
X55509Y-55119D01*
X55511Y-55117D01*
X55511Y-55114D01*
X55511Y-55147D01*
X55482Y-55172D01*
X55433Y-55213D01*
X55385Y-55253D01*
X55341Y-55290D01*
X55302Y-55322D01*
X55269Y-55350D01*
X55243Y-55372D01*
X55240Y-55375D01*
X55211Y-55399D01*
X55185Y-55420D01*
X55164Y-55439D01*
X55148Y-55453D01*
X55139Y-55461D01*
X55138Y-55463D01*
X55141Y-55468D01*
X55150Y-55479D01*
X55164Y-55494D01*
X55177Y-55509D01*
X55186Y-55522D01*
X55189Y-55528D01*
X55190Y-55530D01*
X55190Y-55530D01*
X55192Y-55530D01*
X55196Y-55528D01*
X55202Y-55524D01*
X55211Y-55517D01*
X55223Y-55508D01*
X55239Y-55495D01*
X55259Y-55478D01*
X55284Y-55457D01*
X55315Y-55432D01*
X55351Y-55402D01*
X55394Y-55367D01*
X55444Y-55325D01*
X55501Y-55277D01*
X55566Y-55222D01*
X55595Y-55197D01*
X55655Y-55147D01*
X55714Y-55097D01*
X55772Y-55049D01*
X55827Y-55003D01*
X55878Y-54959D01*
X55926Y-54919D01*
X55969Y-54883D01*
X56006Y-54853D01*
X56036Y-54827D01*
X56059Y-54808D01*
X56067Y-54801D01*
X56095Y-54778D01*
X56119Y-54756D01*
X56139Y-54738D01*
X56152Y-54724D01*
X56159Y-54717D01*
X56159Y-54716D01*
X56159Y-54754D01*
X56150Y-54761D01*
X56129Y-54776D01*
X56103Y-54796D01*
X56099Y-54800D01*
X56024Y-54862D01*
X55958Y-54918D01*
X55900Y-54968D01*
X55848Y-55010D01*
X55805Y-55048D01*
X55767Y-55079D01*
X55737Y-55106D01*
X55712Y-55127D01*
X55692Y-55144D01*
X55677Y-55158D01*
X55667Y-55167D01*
X55661Y-55174D01*
X55658Y-55177D01*
X55658Y-55178D01*
X55667Y-55185D01*
X55684Y-55197D01*
X55710Y-55213D01*
X55743Y-55235D01*
X55782Y-55260D01*
X55826Y-55289D01*
X55875Y-55320D01*
X55928Y-55353D01*
X55984Y-55388D01*
X56041Y-55424D01*
X56100Y-55461D01*
X56159Y-55497D01*
X56218Y-55534D01*
X56275Y-55569D01*
X56330Y-55603D01*
X56343Y-55610D01*
X56382Y-55635D01*
X56413Y-55653D01*
X56437Y-55666D01*
X56456Y-55672D01*
X56471Y-55673D01*
X56484Y-55667D01*
X56497Y-55656D01*
X56510Y-55638D01*
X56527Y-55614D01*
X56535Y-55602D01*
X56559Y-55564D01*
X56586Y-55517D01*
X56614Y-55466D01*
X56642Y-55412D01*
X56668Y-55358D01*
X56690Y-55307D01*
X56709Y-55262D01*
X56709Y-55261D01*
X56720Y-55230D01*
X56733Y-55193D01*
X56746Y-55152D01*
X56759Y-55112D01*
X56763Y-55097D01*
X56774Y-55060D01*
X56783Y-55032D01*
X56791Y-55011D01*
X56800Y-54993D01*
X56809Y-54978D01*
X56819Y-54964D01*
X56832Y-54945D01*
X56842Y-54934D01*
X56849Y-54930D01*
X56857Y-54929D01*
X56866Y-54931D01*
X56879Y-54934D01*
X56887Y-54937D01*
X56888Y-54938D01*
X56888Y-54944D01*
X56888Y-54944D01*
X56888Y-54944D01*
G37*
G36*
X60744Y-42410D02*
X60736Y-42394D01*
X60713Y-42357D01*
X60678Y-42304D01*
X60637Y-42242D01*
X60594Y-42180D01*
X60560Y-42129D01*
X60537Y-42093D01*
X60529Y-42078D01*
X60531Y-42070D01*
X60546Y-42040D01*
X60568Y-41997D01*
X60581Y-41972D01*
X60598Y-41933D01*
X60602Y-41913D01*
X60596Y-41910D01*
X60566Y-41895D01*
X60514Y-41873D01*
X60446Y-41843D01*
X60366Y-41809D01*
X60280Y-41772D01*
X60192Y-41736D01*
X60108Y-41701D01*
X60033Y-41670D01*
X59972Y-41645D01*
X59929Y-41629D01*
X59911Y-41623D01*
X59907Y-41625D01*
X59888Y-41645D01*
X59862Y-41679D01*
X59801Y-41754D01*
X59709Y-41827D01*
X59605Y-41872D01*
X59489Y-41887D01*
X59382Y-41874D01*
X59279Y-41832D01*
X59186Y-41760D01*
X59117Y-41673D01*
X59073Y-41571D01*
X59059Y-41456D01*
X59071Y-41346D01*
X59113Y-41241D01*
X59184Y-41148D01*
X59229Y-41109D01*
X59323Y-41055D01*
X59424Y-41024D01*
X59449Y-41021D01*
X59560Y-41025D01*
X59666Y-41058D01*
X59761Y-41116D01*
X59838Y-41197D01*
X59846Y-41208D01*
X59874Y-41245D01*
X59893Y-41270D01*
X59909Y-41290D01*
X60248Y-41149D01*
X60302Y-41127D01*
X60395Y-41088D01*
X60475Y-41054D01*
X60538Y-41027D01*
X60581Y-41008D01*
X60598Y-41000D01*
X60599Y-40999D01*
X60601Y-40987D01*
X60591Y-40961D01*
X60568Y-40914D01*
X60552Y-40882D01*
X60535Y-40846D01*
X60529Y-40830D01*
X60536Y-40816D01*
X60559Y-40782D01*
X60592Y-40731D01*
X60633Y-40671D01*
X60673Y-40613D01*
X60708Y-40560D01*
X60732Y-40521D01*
X60743Y-40502D01*
X60743Y-40499D01*
X60733Y-40483D01*
X60708Y-40452D01*
X60664Y-40406D01*
X60600Y-40341D01*
X60590Y-40331D01*
X60535Y-40277D01*
X60489Y-40233D01*
X60457Y-40204D01*
X60442Y-40194D01*
X60442Y-40194D01*
X60423Y-40203D01*
X60385Y-40228D01*
X60331Y-40263D01*
X60268Y-40306D01*
X60105Y-40418D01*
X59951Y-40356D01*
X59904Y-40337D01*
X59847Y-40313D01*
X59806Y-40296D01*
X59788Y-40286D01*
X59782Y-40270D01*
X59772Y-40227D01*
X59759Y-40166D01*
X59746Y-40094D01*
X59733Y-40024D01*
X59721Y-39961D01*
X59712Y-39916D01*
X59708Y-39896D01*
X59705Y-39891D01*
X59695Y-39887D01*
X59674Y-39884D01*
X59636Y-39883D01*
X59576Y-39882D01*
X59489Y-39882D01*
X59480Y-39882D01*
X59397Y-39883D01*
X59331Y-39884D01*
X59288Y-39886D01*
X59271Y-39889D01*
X59271Y-39889D01*
X59266Y-39909D01*
X59257Y-39953D01*
X59244Y-40016D01*
X59230Y-40091D01*
X59229Y-40095D01*
X59215Y-40170D01*
X59202Y-40232D01*
X59192Y-40276D01*
X59186Y-40294D01*
X59181Y-40298D01*
X59152Y-40313D01*
X59106Y-40335D01*
X59049Y-40359D01*
X58991Y-40384D01*
X58938Y-40405D01*
X58899Y-40419D01*
X58881Y-40423D01*
X58881Y-40423D01*
X58863Y-40412D01*
X58824Y-40386D01*
X58771Y-40350D01*
X58707Y-40306D01*
X58702Y-40303D01*
X58639Y-40260D01*
X58586Y-40225D01*
X58548Y-40202D01*
X58531Y-40194D01*
X58530Y-40194D01*
X58511Y-40208D01*
X58476Y-40240D01*
X58428Y-40286D01*
X58372Y-40341D01*
X58355Y-40359D01*
X58295Y-40420D01*
X58256Y-40462D01*
X58235Y-40489D01*
X58230Y-40502D01*
X58231Y-40502D01*
X58242Y-40521D01*
X58268Y-40561D01*
X58305Y-40615D01*
X58348Y-40679D01*
X58351Y-40683D01*
X58394Y-40746D01*
X58429Y-40798D01*
X58454Y-40836D01*
X58464Y-40852D01*
X58464Y-40855D01*
X58456Y-40880D01*
X58441Y-40925D01*
X58419Y-40980D01*
X58396Y-41038D01*
X58374Y-41091D01*
X58355Y-41131D01*
X58345Y-41150D01*
X58344Y-41150D01*
X58321Y-41157D01*
X58274Y-41168D01*
X58209Y-41181D01*
X58132Y-41196D01*
X58120Y-41198D01*
X58045Y-41212D01*
X57983Y-41224D01*
X57940Y-41233D01*
X57922Y-41238D01*
X57920Y-41248D01*
X57917Y-41285D01*
X57916Y-41341D01*
X57915Y-41409D01*
X57916Y-41480D01*
X57917Y-41549D01*
X57919Y-41609D01*
X57922Y-41651D01*
X57926Y-41669D01*
X57927Y-41670D01*
X57950Y-41676D01*
X57997Y-41686D01*
X58062Y-41700D01*
X58140Y-41715D01*
X58153Y-41717D01*
X58228Y-41731D01*
X58289Y-41744D01*
X58332Y-41753D01*
X58348Y-41758D01*
X58352Y-41764D01*
X58365Y-41795D01*
X58386Y-41845D01*
X58411Y-41908D01*
X58470Y-42052D01*
X58348Y-42228D01*
X58337Y-42245D01*
X58294Y-42308D01*
X58259Y-42361D01*
X58236Y-42397D01*
X58227Y-42412D01*
X58228Y-42413D01*
X58243Y-42431D01*
X58276Y-42466D01*
X58323Y-42514D01*
X58378Y-42569D01*
X58419Y-42610D01*
X58469Y-42659D01*
X58502Y-42690D01*
X58524Y-42707D01*
X58537Y-42713D01*
X58545Y-42711D01*
X58563Y-42700D01*
X58602Y-42674D01*
X58656Y-42638D01*
X58718Y-42595D01*
X58771Y-42559D01*
X58830Y-42521D01*
X58872Y-42496D01*
X58893Y-42487D01*
X58902Y-42489D01*
X58936Y-42502D01*
X58989Y-42523D01*
X59051Y-42549D01*
X59191Y-42611D01*
X59208Y-42703D01*
X59219Y-42758D01*
X59234Y-42836D01*
X59248Y-42910D01*
X59271Y-43026D01*
X59697Y-43030D01*
X59705Y-43012D01*
X59710Y-42995D01*
X59719Y-42952D01*
X59731Y-42891D01*
X59745Y-42818D01*
X59757Y-42757D01*
X59768Y-42694D01*
X59777Y-42650D01*
X59781Y-42630D01*
X59788Y-42625D01*
X59818Y-42609D01*
X59866Y-42587D01*
X59924Y-42563D01*
X59983Y-42538D01*
X60038Y-42516D01*
X60080Y-42500D01*
X60102Y-42495D01*
X60119Y-42503D01*
X60155Y-42527D01*
X60207Y-42561D01*
X60269Y-42603D01*
X60331Y-42646D01*
X60384Y-42681D01*
X60422Y-42706D01*
X60439Y-42716D01*
X60451Y-42711D01*
X60481Y-42687D01*
X60529Y-42640D01*
X60598Y-42571D01*
X60609Y-42559D01*
X60662Y-42504D01*
X60705Y-42457D01*
X60734Y-42425D01*
X60744Y-42410D01*
X60744Y-42410D01*
G37*
G54D19*
X70360Y-43805D02*
X69560Y-43805D01*
X69560Y-43805D02*
X69560Y-44305D01*
X69560Y-44305D02*
X70360Y-44305D01*
X70360Y-44305D02*
X70360Y-43805D01*
G54D14*
X68094Y-23657D02*
X68094Y-21657D01*
X68094Y-21657D02*
X70094Y-21657D01*
X70094Y-21657D02*
X70094Y-23657D01*
X70094Y-23657D02*
X68094Y-23657D01*
X76145Y-29708D02*
X78145Y-29708D01*
X78145Y-29708D02*
X78145Y-31708D01*
X78145Y-31708D02*
X76145Y-31708D01*
X76145Y-31708D02*
X76145Y-29708D01*
X76145Y-50968D02*
X78145Y-50968D01*
X78145Y-50968D02*
X78145Y-52968D01*
X78145Y-52968D02*
X76145Y-52968D01*
X76145Y-52968D02*
X76145Y-50968D01*
X70094Y-59019D02*
X70094Y-61019D01*
X70094Y-61019D02*
X68094Y-61019D01*
X68094Y-61019D02*
X68094Y-59019D01*
X68094Y-59019D02*
X70094Y-59019D01*
G54D18*
X41142Y-28936D02*
X43896Y-28936D01*
X43896Y-28936D02*
X43896Y-26182D01*
X43896Y-26182D02*
X41142Y-26182D01*
X41142Y-26182D02*
X41142Y-28936D01*
X43699Y-26477D02*
G75*
G03X43699Y-26477I-98J0D01*
G74*
G01*
X41142Y-34841D02*
X43896Y-34841D01*
X43896Y-34841D02*
X43896Y-32087D01*
X43896Y-32087D02*
X41142Y-32087D01*
X41142Y-32087D02*
X41142Y-34841D01*
X43699Y-32382D02*
G75*
G03X43699Y-32382I-98J0D01*
G74*
G01*
X48229Y-34841D02*
X50983Y-34841D01*
X50983Y-34841D02*
X50983Y-32087D01*
X50983Y-32087D02*
X48229Y-32087D01*
X48229Y-32087D02*
X48229Y-34841D01*
X50786Y-32382D02*
G75*
G03X50786Y-32382I-98J0D01*
G74*
G01*
X48229Y-28936D02*
X50983Y-28936D01*
X50983Y-28936D02*
X50983Y-26182D01*
X50983Y-26182D02*
X48229Y-26182D01*
X48229Y-26182D02*
X48229Y-28936D01*
X50786Y-26477D02*
G75*
G03X50786Y-26477I-98J0D01*
G74*
G01*
X43896Y-47835D02*
X41142Y-47835D01*
X41142Y-47835D02*
X41142Y-50589D01*
X41142Y-50589D02*
X43896Y-50589D01*
X43896Y-50589D02*
X43896Y-47835D01*
X41535Y-50294D02*
G75*
G03X41535Y-50294I-98J0D01*
G74*
G01*
X43896Y-53741D02*
X41142Y-53741D01*
X41142Y-53741D02*
X41142Y-56495D01*
X41142Y-56495D02*
X43896Y-56495D01*
X43896Y-56495D02*
X43896Y-53741D01*
X41535Y-56200D02*
G75*
G03X41535Y-56200I-98J0D01*
G74*
G01*
X50983Y-53741D02*
X48229Y-53741D01*
X48229Y-53741D02*
X48229Y-56495D01*
X48229Y-56495D02*
X50983Y-56495D01*
X50983Y-56495D02*
X50983Y-53741D01*
X48622Y-56200D02*
G75*
G03X48622Y-56200I-98J0D01*
G74*
G01*
X50983Y-47835D02*
X48229Y-47835D01*
X48229Y-47835D02*
X48229Y-50589D01*
X48229Y-50589D02*
X50983Y-50589D01*
X50983Y-50589D02*
X50983Y-47835D01*
X48622Y-50294D02*
G75*
G03X48622Y-50294I-98J0D01*
G74*
G01*
X68306Y-47835D02*
X65552Y-47835D01*
X65552Y-47835D02*
X65552Y-50589D01*
X65552Y-50589D02*
X68306Y-50589D01*
X68306Y-50589D02*
X68306Y-47835D01*
X65945Y-50294D02*
G75*
G03X65945Y-50294I-98J0D01*
G74*
G01*
X68306Y-53741D02*
X65552Y-53741D01*
X65552Y-53741D02*
X65552Y-56495D01*
X65552Y-56495D02*
X68306Y-56495D01*
X68306Y-56495D02*
X68306Y-53741D01*
X65945Y-56200D02*
G75*
G03X65945Y-56200I-98J0D01*
G74*
G01*
X75392Y-53741D02*
X72638Y-53741D01*
X72638Y-53741D02*
X72638Y-56495D01*
X72638Y-56495D02*
X75392Y-56495D01*
X75392Y-56495D02*
X75392Y-53741D01*
X73031Y-56200D02*
G75*
G03X73031Y-56200I-98J0D01*
G74*
G01*
X75392Y-47835D02*
X72638Y-47835D01*
X72638Y-47835D02*
X72638Y-50589D01*
X72638Y-50589D02*
X75392Y-50589D01*
X75392Y-50589D02*
X75392Y-47835D01*
X73031Y-50294D02*
G75*
G03X73031Y-50294I-98J0D01*
G74*
G01*
X72638Y-34841D02*
X75392Y-34841D01*
X75392Y-34841D02*
X75392Y-32087D01*
X75392Y-32087D02*
X72638Y-32087D01*
X72638Y-32087D02*
X72638Y-34841D01*
X75195Y-32382D02*
G75*
G03X75195Y-32382I-98J0D01*
G74*
G01*
X72638Y-28936D02*
X75392Y-28936D01*
X75392Y-28936D02*
X75392Y-26182D01*
X75392Y-26182D02*
X72638Y-26182D01*
X72638Y-26182D02*
X72638Y-28936D01*
X75195Y-26477D02*
G75*
G03X75195Y-26477I-98J0D01*
G74*
G01*
X65552Y-28936D02*
X68306Y-28936D01*
X68306Y-28936D02*
X68306Y-26182D01*
X68306Y-26182D02*
X65552Y-26182D01*
X65552Y-26182D02*
X65552Y-28936D01*
X68109Y-26477D02*
G75*
G03X68109Y-26477I-98J0D01*
G74*
G01*
X65552Y-34841D02*
X68306Y-34841D01*
X68306Y-34841D02*
X68306Y-32087D01*
X68306Y-32087D02*
X65552Y-32087D01*
X65552Y-32087D02*
X65552Y-34841D01*
X68109Y-32382D02*
G75*
G03X68109Y-32382I-98J0D01*
G74*
G01*
X65509Y-40995D02*
X64329Y-40995D01*
X64329Y-40995D02*
X64329Y-42175D01*
X64329Y-42175D02*
X65509Y-42175D01*
X65509Y-42175D02*
X65509Y-40995D01*
X58701Y-33474D02*
X58701Y-35836D01*
X58701Y-35836D02*
X60669Y-35836D01*
X60669Y-35836D02*
X60669Y-33474D01*
X60669Y-33474D02*
X58701Y-33474D01*
X58306Y-49245D02*
X58306Y-46883D01*
X58306Y-46883D02*
X56338Y-46883D01*
X56338Y-46883D02*
X56338Y-49245D01*
X56338Y-49245D02*
X58306Y-49245D01*
G54D14*
X40783Y-52968D02*
X38783Y-52968D01*
X38783Y-52968D02*
X38783Y-50968D01*
X38783Y-50968D02*
X40783Y-50968D01*
X40783Y-50968D02*
X40783Y-52968D01*
G54D13*
X41844Y-23622D02*
G75*
G03X41844Y-23622I-1096J0D01*
G74*
G01*
X41844Y-59055D02*
G75*
G03X41844Y-59055I-1096J0D01*
G74*
G01*
X47159Y-52165D02*
G75*
G03X47159Y-52165I-1096J0D01*
G74*
G01*
X71569Y-52165D02*
G75*
G03X71569Y-52165I-1096J0D01*
G74*
G01*
X77277Y-59055D02*
G75*
G03X77277Y-59055I-1096J0D01*
G74*
G01*
X77277Y-23622D02*
G75*
G03X77277Y-23622I-1096J0D01*
G74*
G01*
X71569Y-30511D02*
G75*
G03X71569Y-30511I-1096J0D01*
G74*
G01*
%LPC*%
G54D22*
X46062Y-30511D03*
G54D23*
X69242Y-41151D03*
X68592Y-41151D03*
X69242Y-41761D03*
X68592Y-41761D03*
G54D24*
X50161Y-43121D03*
X50161Y-40021D03*
G54D25*
X59858Y-51588D03*
G54D26*
X56433Y-50565D03*
X56433Y-52611D03*
G54D25*
X57271Y-31123D03*
G54D26*
X60696Y-32146D03*
X60696Y-30100D03*
G54D27*
X44252Y-43267D03*
X44252Y-41614D03*
X44252Y-39961D03*
X45904Y-39961D03*
X45904Y-41614D03*
X45904Y-43267D03*
G54D28*
X53721Y-35984D03*
X54389Y-35984D03*
G54D29*
X61464Y-34733D03*
X61464Y-34065D03*
G54D28*
X58593Y-36548D03*
X57925Y-36548D03*
G54D29*
X59465Y-36596D03*
X60133Y-36596D03*
X57361Y-36548D03*
X56693Y-36548D03*
X57082Y-37375D03*
X56414Y-37375D03*
G54D28*
X61456Y-35941D03*
X61456Y-35273D03*
G54D30*
X54429Y-35275D03*
X53681Y-35275D03*
X54429Y-34488D03*
X53681Y-34488D03*
G54D31*
X55196Y-34429D03*
X55196Y-33681D03*
X56023Y-34429D03*
X56023Y-33681D03*
X56850Y-34429D03*
X56850Y-33681D03*
G54D29*
X57559Y-34389D03*
X57559Y-33721D03*
G54D28*
X58058Y-35635D03*
X57390Y-35635D03*
G54D29*
X54606Y-30295D03*
X54606Y-30963D03*
G54D32*
X56279Y-29960D03*
X56279Y-31062D03*
X55413Y-29960D03*
X55413Y-31062D03*
X61850Y-29980D03*
X61850Y-31082D03*
X62775Y-29980D03*
X62775Y-31082D03*
G54D28*
X61645Y-36907D03*
X61645Y-37575D03*
X63267Y-37548D03*
X63267Y-36880D03*
G54D29*
X63031Y-35492D03*
X63031Y-36160D03*
X59298Y-38194D03*
X58630Y-38194D03*
G54D28*
X59492Y-37422D03*
X60160Y-37422D03*
X58956Y-37375D03*
X58288Y-37375D03*
X62464Y-36876D03*
X62464Y-37544D03*
X62307Y-35478D03*
X62307Y-36146D03*
X60834Y-37134D03*
X60834Y-36466D03*
G54D29*
X59409Y-49034D03*
X59409Y-48366D03*
X55645Y-47998D03*
X55645Y-48666D03*
G54D28*
X58488Y-46103D03*
X59156Y-46103D03*
G54D29*
X57645Y-45970D03*
X56977Y-45970D03*
X59685Y-46103D03*
X60353Y-46103D03*
X60024Y-45304D03*
X60692Y-45304D03*
G54D28*
X55653Y-46777D03*
X55653Y-47445D03*
G54D30*
X62500Y-47440D03*
X63248Y-47440D03*
X62500Y-48267D03*
X63248Y-48267D03*
G54D31*
X61811Y-48326D03*
X61811Y-49074D03*
X60984Y-48326D03*
X60984Y-49074D03*
X60157Y-48326D03*
X60157Y-49074D03*
G54D28*
X62540Y-46732D03*
X63208Y-46732D03*
X59099Y-46985D03*
X59767Y-46985D03*
G54D29*
X62519Y-52223D03*
X62519Y-51555D03*
G54D32*
X60885Y-52607D03*
X60885Y-51505D03*
X61712Y-52587D03*
X61712Y-51485D03*
X55275Y-52657D03*
X55275Y-51555D03*
X54429Y-52657D03*
X54429Y-51555D03*
G54D28*
X55440Y-45579D03*
X55440Y-44911D03*
X53811Y-44907D03*
X53811Y-45575D03*
G54D29*
X54114Y-46948D03*
X54114Y-46280D03*
X57819Y-44340D03*
X58487Y-44340D03*
G54D28*
X57664Y-45151D03*
X56996Y-45151D03*
X58185Y-45159D03*
X58853Y-45159D03*
X54633Y-45579D03*
X54633Y-44911D03*
X54830Y-47193D03*
X54830Y-46525D03*
X56303Y-45439D03*
X56303Y-46107D03*
X64823Y-43011D03*
X65491Y-43011D03*
X66141Y-39783D03*
X65473Y-39783D03*
X66141Y-39173D03*
X65473Y-39173D03*
G54D30*
X64035Y-39074D03*
X64783Y-39074D03*
X64035Y-39881D03*
X64783Y-39881D03*
G54D28*
X64133Y-42736D03*
X64133Y-43404D03*
G54D31*
X66482Y-41857D03*
X66482Y-41109D03*
G54D33*
X75807Y-42204D03*
X75807Y-40472D03*
G54D34*
X74763Y-41338D03*
X74763Y-41652D03*
X74763Y-41967D03*
X74763Y-41024D03*
X74763Y-40709D03*
G54D35*
X74803Y-43089D03*
X74803Y-39587D03*
X76948Y-43089D03*
X76948Y-39587D03*
G54D36*
X40314Y-28641D03*
X39804Y-28641D03*
G54D37*
X42905Y-25310D03*
X42905Y-24800D03*
X40039Y-25611D03*
X40039Y-26121D03*
G54D36*
X44705Y-28641D03*
X45215Y-28641D03*
G54D37*
X45137Y-27066D03*
X45137Y-26556D03*
G54D36*
X40314Y-28149D03*
X39804Y-28149D03*
G54D37*
X45137Y-25532D03*
X45137Y-26042D03*
G54D36*
X44705Y-28169D03*
X45215Y-28169D03*
G54D37*
X42775Y-29882D03*
X42775Y-30392D03*
X42145Y-29882D03*
X42145Y-30392D03*
X40039Y-27046D03*
X40039Y-26536D03*
G54D36*
X51713Y-28641D03*
X52223Y-28641D03*
X47479Y-28641D03*
X46969Y-28641D03*
G54D37*
X52204Y-27066D03*
X52204Y-26556D03*
G54D36*
X47479Y-28149D03*
X46969Y-28149D03*
G54D37*
X47106Y-25867D03*
X47106Y-26377D03*
X49685Y-29922D03*
X49685Y-30432D03*
G54D36*
X51713Y-28149D03*
X52223Y-28149D03*
G54D37*
X50149Y-35689D03*
X50149Y-36199D03*
X52224Y-25532D03*
X52224Y-26042D03*
X47106Y-27302D03*
X47106Y-26792D03*
X50137Y-25247D03*
X50137Y-24737D03*
G54D36*
X44685Y-34547D03*
X45195Y-34547D03*
X40333Y-34547D03*
X39823Y-34547D03*
G54D37*
X45059Y-32951D03*
X45059Y-32441D03*
G54D36*
X40186Y-32234D03*
X39676Y-32234D03*
X44587Y-31988D03*
X45097Y-31988D03*
X40333Y-34055D03*
X39823Y-34055D03*
G54D37*
X41771Y-35689D03*
X41771Y-36199D03*
G54D36*
X44685Y-34055D03*
X45195Y-34055D03*
G54D37*
X41653Y-30904D03*
X41653Y-30394D03*
X43259Y-30900D03*
X43259Y-30390D03*
X43208Y-35689D03*
X43208Y-36199D03*
G54D36*
X47459Y-34527D03*
X46949Y-34527D03*
G54D37*
X51594Y-34546D03*
X51594Y-34036D03*
X51535Y-32971D03*
X51535Y-32461D03*
X51535Y-31536D03*
X51535Y-32046D03*
G54D36*
X47459Y-35019D03*
X46949Y-35019D03*
G54D37*
X48799Y-35689D03*
X48799Y-36199D03*
X49192Y-29922D03*
X49192Y-30432D03*
X52086Y-33524D03*
X52086Y-34034D03*
X48740Y-30943D03*
X48740Y-30433D03*
X50177Y-30943D03*
X50177Y-30433D03*
X47125Y-32951D03*
X47125Y-32441D03*
G54D36*
X64684Y-28641D03*
X64174Y-28641D03*
X69075Y-28641D03*
X69585Y-28641D03*
G54D37*
X69389Y-27066D03*
X69389Y-26556D03*
X67519Y-25314D03*
X67519Y-24804D03*
X64468Y-26632D03*
X64468Y-26122D03*
G54D36*
X64684Y-29133D03*
X64174Y-29133D03*
X71918Y-32312D03*
X71408Y-32312D03*
G54D37*
X67578Y-29843D03*
X67578Y-30353D03*
X69409Y-25532D03*
X69409Y-26042D03*
G54D36*
X69075Y-28169D03*
X69585Y-28169D03*
G54D37*
X64468Y-25197D03*
X64468Y-25707D03*
G54D36*
X71770Y-28641D03*
X71260Y-28641D03*
X76182Y-28641D03*
X76692Y-28641D03*
G54D37*
X76181Y-27066D03*
X76181Y-26556D03*
X74551Y-25428D03*
X74551Y-24918D03*
X73169Y-29922D03*
X73169Y-30432D03*
X71456Y-25276D03*
X71456Y-25786D03*
G54D36*
X71770Y-28149D03*
X71260Y-28149D03*
G54D37*
X74665Y-29922D03*
X74665Y-30432D03*
G54D36*
X76182Y-28149D03*
X76692Y-28149D03*
G54D37*
X76181Y-25630D03*
X76181Y-26140D03*
X71456Y-26711D03*
X71456Y-26201D03*
G54D36*
X64743Y-34547D03*
X64233Y-34547D03*
X69134Y-34547D03*
X69644Y-34547D03*
G54D37*
X69448Y-32971D03*
X69448Y-32461D03*
X66535Y-30865D03*
X66535Y-30355D03*
X67086Y-30865D03*
X67086Y-30355D03*
X66122Y-35611D03*
X66122Y-36121D03*
G54D36*
X64743Y-35039D03*
X64233Y-35039D03*
X68937Y-32007D03*
X69447Y-32007D03*
G54D37*
X66043Y-29843D03*
X66043Y-30353D03*
G54D36*
X64900Y-32047D03*
X64390Y-32047D03*
X69134Y-34074D03*
X69644Y-34074D03*
X71711Y-34547D03*
X71201Y-34547D03*
X76280Y-34763D03*
X76790Y-34763D03*
G54D37*
X76141Y-32951D03*
X76141Y-32441D03*
G54D36*
X75670Y-32007D03*
X76180Y-32007D03*
G54D37*
X74173Y-30943D03*
X74173Y-30433D03*
X73661Y-30943D03*
X73661Y-30433D03*
G54D36*
X71711Y-34055D03*
X71201Y-34055D03*
G54D37*
X74397Y-35595D03*
X74397Y-36105D03*
X67263Y-35615D03*
X67263Y-36125D03*
G54D36*
X76280Y-34281D03*
X76790Y-34281D03*
G54D37*
X73188Y-35611D03*
X73188Y-36121D03*
G54D36*
X76280Y-54035D03*
X76790Y-54035D03*
X71888Y-54035D03*
X71378Y-54035D03*
G54D37*
X71830Y-55611D03*
X71830Y-56121D03*
G54D36*
X76122Y-49881D03*
X76632Y-49881D03*
G54D37*
X76417Y-55571D03*
X76417Y-56081D03*
X71830Y-57046D03*
X71830Y-56536D03*
G54D36*
X76280Y-54527D03*
X76790Y-54527D03*
G54D37*
X73208Y-52814D03*
X73208Y-52304D03*
G54D36*
X71888Y-54527D03*
X71378Y-54527D03*
G54D37*
X76417Y-57026D03*
X76417Y-56516D03*
X73610Y-57292D03*
X73610Y-57802D03*
G54D36*
X69272Y-54035D03*
X69782Y-54035D03*
X64802Y-54035D03*
X64292Y-54035D03*
G54D37*
X64763Y-55611D03*
X64763Y-56121D03*
X66649Y-57276D03*
X66649Y-57786D03*
G54D36*
X69085Y-50442D03*
X69595Y-50442D03*
G54D37*
X64763Y-57046D03*
X64763Y-56536D03*
G54D36*
X69272Y-54527D03*
X69782Y-54527D03*
G54D37*
X66181Y-52794D03*
X66181Y-52284D03*
G54D36*
X64802Y-54527D03*
X64292Y-54527D03*
X64408Y-49212D03*
X63898Y-49212D03*
X69105Y-56505D03*
X69615Y-56505D03*
X76122Y-48110D03*
X76632Y-48110D03*
X71908Y-48129D03*
X71398Y-48129D03*
G54D37*
X71811Y-49705D03*
X71811Y-50215D03*
X73700Y-51792D03*
X73700Y-52302D03*
X74212Y-51792D03*
X74212Y-52302D03*
G54D36*
X72292Y-50669D03*
X71782Y-50669D03*
X76122Y-48622D03*
X76632Y-48622D03*
G54D37*
X73405Y-46987D03*
X73405Y-46477D03*
G54D36*
X71908Y-48622D03*
X71398Y-48622D03*
G54D37*
X74547Y-46987D03*
X74547Y-46477D03*
X74704Y-52814D03*
X74704Y-52304D03*
G54D36*
X69193Y-48129D03*
X69703Y-48129D03*
G54D37*
X65078Y-48129D03*
X65078Y-47619D03*
X64901Y-49705D03*
X64901Y-50215D03*
X66673Y-51772D03*
X66673Y-52282D03*
X67263Y-51772D03*
X67263Y-52282D03*
X64901Y-51140D03*
X64901Y-50630D03*
G54D36*
X69193Y-48622D03*
X69703Y-48622D03*
G54D37*
X66397Y-47006D03*
X66397Y-46496D03*
X67775Y-47006D03*
X67775Y-46496D03*
G54D36*
X64408Y-48720D03*
X63898Y-48720D03*
G54D37*
X67736Y-52794D03*
X67736Y-52284D03*
X51633Y-54034D03*
X51633Y-53524D03*
X47578Y-54036D03*
X47578Y-54546D03*
X47086Y-55611D03*
X47086Y-56121D03*
X49192Y-57294D03*
X49192Y-57804D03*
X48897Y-52873D03*
X48897Y-52363D03*
X47578Y-56024D03*
X47578Y-56534D03*
X52125Y-53012D03*
X52125Y-53522D03*
X50374Y-52873D03*
X50374Y-52363D03*
X47086Y-55058D03*
X47086Y-54548D03*
X47086Y-57046D03*
X47086Y-56536D03*
G54D36*
X51979Y-56013D03*
X52489Y-56013D03*
G54D37*
X44622Y-54034D03*
X44622Y-53524D03*
X40433Y-54036D03*
X40433Y-54546D03*
X39940Y-55611D03*
X39940Y-56121D03*
X45098Y-55355D03*
X45098Y-55865D03*
X45098Y-56790D03*
X45098Y-56280D03*
X43287Y-47006D03*
X43287Y-46496D03*
G54D36*
X44065Y-53080D03*
X44575Y-53080D03*
G54D37*
X41771Y-52695D03*
X41771Y-52185D03*
X39940Y-55058D03*
X39940Y-54548D03*
X39940Y-57046D03*
X39940Y-56536D03*
X42283Y-57215D03*
X42283Y-57725D03*
G54D36*
X51969Y-48129D03*
X52479Y-48129D03*
X47420Y-48129D03*
X46910Y-48129D03*
G54D37*
X47106Y-49705D03*
X47106Y-50215D03*
X49389Y-51851D03*
X49389Y-52361D03*
X49881Y-51851D03*
X49881Y-52361D03*
X47598Y-50119D03*
X47598Y-50629D03*
G54D36*
X51969Y-48622D03*
X52479Y-48622D03*
G54D37*
X49350Y-47006D03*
X49350Y-46496D03*
X48405Y-51861D03*
X48405Y-52371D03*
G54D36*
X47420Y-48622D03*
X46910Y-48622D03*
X51861Y-50403D03*
X52371Y-50403D03*
X44784Y-48129D03*
X45294Y-48129D03*
X40373Y-48129D03*
X39863Y-48129D03*
G54D37*
X39970Y-49479D03*
X39970Y-49989D03*
X42263Y-51674D03*
X42263Y-52184D03*
X42834Y-51674D03*
X42834Y-52184D03*
G54D36*
X44784Y-50295D03*
X45294Y-50295D03*
X44784Y-48622D03*
X45294Y-48622D03*
G54D37*
X43326Y-52695D03*
X43326Y-52185D03*
G54D36*
X40373Y-48622D03*
X39863Y-48622D03*
G54D37*
X40797Y-50788D03*
X40797Y-51298D03*
X41948Y-47006D03*
X41948Y-46496D03*
G54D38*
X73064Y-43704D03*
X73064Y-44464D03*
X73864Y-44084D03*
G54D28*
X70354Y-40530D03*
X70354Y-39862D03*
X69685Y-39862D03*
X69685Y-40530D03*
G54D36*
X76170Y-39478D03*
X75660Y-39478D03*
G54D39*
X68905Y-40334D03*
X68181Y-40078D03*
X68905Y-39822D03*
X68905Y-40078D03*
X68181Y-39822D03*
X68181Y-40334D03*
G54D29*
X74645Y-38346D03*
X73977Y-38346D03*
X75315Y-38346D03*
X75983Y-38346D03*
G54D40*
X71502Y-42790D03*
X71758Y-42790D03*
X72014Y-42790D03*
X72270Y-42790D03*
X72526Y-42790D03*
X72780Y-42790D03*
X73036Y-42790D03*
X73292Y-42790D03*
X73548Y-42790D03*
X73804Y-42790D03*
X73804Y-39936D03*
X73548Y-39936D03*
X73292Y-39936D03*
X73036Y-39936D03*
X72780Y-39936D03*
X72526Y-39936D03*
X72270Y-39936D03*
X72014Y-39936D03*
X71758Y-39936D03*
X71502Y-39936D03*
G54D41*
X71976Y-38543D03*
X70976Y-38543D03*
X69976Y-38543D03*
X72976Y-38543D03*
X68976Y-38543D03*
G54D42*
X75629Y-45610D03*
X75629Y-46614D03*
X75629Y-44606D03*
G54D43*
X39921Y-45403D03*
X39921Y-40777D03*
G54D44*
X41850Y-42598D03*
X41850Y-43582D03*
G54D45*
X58188Y-60177D03*
G54D46*
X58090Y-59586D03*
G54D45*
X58188Y-58995D03*
G54D47*
X57145Y-59586D03*
G54D28*
X58878Y-59586D03*
X59546Y-59586D03*
X58878Y-58996D03*
X59546Y-58996D03*
G54D37*
X68129Y-41201D03*
X68129Y-41711D03*
G54D28*
X70294Y-42952D03*
X69626Y-42952D03*
X76368Y-35275D03*
X77036Y-35275D03*
G54D37*
X45629Y-27066D03*
X45629Y-26556D03*
X69881Y-27066D03*
X69881Y-26556D03*
X71338Y-55611D03*
X71338Y-56121D03*
X46594Y-55611D03*
X46594Y-56121D03*
X52696Y-27066D03*
X52696Y-26556D03*
X76673Y-27066D03*
X76673Y-26556D03*
X64271Y-55611D03*
X64271Y-56121D03*
X39448Y-55611D03*
X39448Y-56121D03*
X45551Y-32951D03*
X45551Y-32441D03*
X69921Y-32971D03*
X69921Y-32461D03*
X71318Y-49705D03*
X71318Y-50215D03*
X46614Y-49705D03*
X46614Y-50215D03*
X52027Y-32459D03*
X52027Y-31949D03*
G54D36*
X76634Y-32952D03*
X77144Y-32952D03*
G54D37*
X64409Y-49705D03*
X64409Y-50215D03*
X39478Y-49479D03*
X39478Y-49989D03*
G54D28*
X73051Y-37146D03*
X73051Y-37814D03*
X77283Y-34743D03*
X77283Y-34075D03*
X69055Y-42952D03*
X69055Y-42284D03*
G54D48*
X69134Y-35157D03*
X69488Y-35157D03*
G54D28*
X57558Y-23157D03*
X56890Y-23157D03*
X57558Y-23716D03*
X56890Y-23716D03*
G54D24*
X54381Y-43121D03*
X54381Y-40021D03*
G54D45*
X58263Y-22542D03*
G54D46*
X58361Y-23133D03*
G54D45*
X58263Y-23724D03*
G54D47*
X59306Y-23133D03*
G54D49*
X72637Y-25196D03*
X75393Y-57480D03*
X43651Y-58100D03*
X52362Y-24212D03*
X40206Y-36082D03*
X64566Y-36417D03*
X51968Y-46653D03*
X64960Y-46653D03*
G54D37*
X42913Y-23682D03*
X42913Y-24192D03*
G54D36*
X49489Y-24153D03*
X49999Y-24153D03*
X42284Y-30846D03*
X42794Y-30846D03*
X49723Y-30885D03*
X49213Y-30885D03*
G54D37*
X67096Y-23621D03*
X67096Y-23111D03*
G54D36*
X73760Y-24468D03*
X74270Y-24468D03*
X67066Y-29901D03*
X66556Y-29901D03*
X73682Y-29960D03*
X74192Y-29960D03*
X74113Y-58484D03*
X73603Y-58484D03*
X67499Y-58996D03*
X66989Y-58996D03*
X73701Y-52775D03*
X74211Y-52775D03*
G54D37*
X68228Y-51772D03*
X68228Y-52282D03*
X49173Y-58955D03*
X49173Y-58445D03*
X43966Y-58987D03*
X43966Y-59497D03*
G54D36*
X49390Y-52834D03*
X49900Y-52834D03*
G54D37*
X43818Y-51674D03*
X43818Y-52184D03*
X70669Y-45077D03*
X70669Y-44567D03*
G54D50*
X69710Y-44455D03*
X70210Y-44455D03*
X69710Y-43655D03*
X69960Y-44455D03*
X70210Y-43655D03*
G54D37*
X69173Y-43662D03*
X69173Y-44172D03*
X68700Y-43662D03*
X68700Y-44172D03*
G54D51*
X68051Y-23159D03*
X68051Y-22155D03*
X70137Y-22155D03*
X70137Y-23159D03*
G54D52*
X76643Y-29665D03*
X77647Y-29665D03*
X77647Y-31751D03*
X76643Y-31751D03*
X76643Y-50925D03*
X77647Y-50925D03*
X77647Y-53011D03*
X76643Y-53011D03*
G54D51*
X70137Y-59517D03*
X70137Y-60521D03*
X68051Y-60521D03*
X68051Y-59517D03*
G54D53*
X43896Y-26477D03*
X43896Y-26674D03*
X43896Y-26871D03*
X43896Y-27067D03*
X43896Y-27264D03*
X43896Y-27461D03*
X43896Y-27657D03*
X43896Y-27854D03*
X43896Y-28051D03*
X43896Y-28247D03*
X43896Y-28444D03*
X43896Y-28641D03*
G54D54*
X43601Y-28936D03*
X43404Y-28936D03*
X43207Y-28936D03*
X43011Y-28936D03*
X42814Y-28936D03*
X42617Y-28936D03*
X42421Y-28936D03*
X42224Y-28936D03*
X42027Y-28936D03*
X41831Y-28936D03*
X41634Y-28936D03*
X41437Y-28936D03*
G54D53*
X41142Y-28641D03*
X41142Y-28444D03*
X41142Y-28247D03*
X41142Y-28051D03*
X41142Y-27854D03*
X41142Y-27657D03*
X41142Y-27461D03*
X41142Y-27264D03*
X41142Y-27067D03*
X41142Y-26871D03*
X41142Y-26674D03*
X41142Y-26477D03*
G54D54*
X41437Y-26182D03*
X41634Y-26182D03*
X41831Y-26182D03*
X42027Y-26182D03*
X42224Y-26182D03*
X42421Y-26182D03*
X42617Y-26182D03*
X42814Y-26182D03*
X43011Y-26182D03*
X43207Y-26182D03*
X43404Y-26182D03*
X43601Y-26182D03*
G54D55*
X42519Y-27559D03*
G54D53*
X43896Y-32382D03*
X43896Y-32579D03*
X43896Y-32776D03*
X43896Y-32972D03*
X43896Y-33169D03*
X43896Y-33366D03*
X43896Y-33562D03*
X43896Y-33759D03*
X43896Y-33956D03*
X43896Y-34152D03*
X43896Y-34349D03*
X43896Y-34546D03*
G54D54*
X43601Y-34841D03*
X43404Y-34841D03*
X43207Y-34841D03*
X43011Y-34841D03*
X42814Y-34841D03*
X42617Y-34841D03*
X42421Y-34841D03*
X42224Y-34841D03*
X42027Y-34841D03*
X41831Y-34841D03*
X41634Y-34841D03*
X41437Y-34841D03*
G54D53*
X41142Y-34546D03*
X41142Y-34349D03*
X41142Y-34152D03*
X41142Y-33956D03*
X41142Y-33759D03*
X41142Y-33562D03*
X41142Y-33366D03*
X41142Y-33169D03*
X41142Y-32972D03*
X41142Y-32776D03*
X41142Y-32579D03*
X41142Y-32382D03*
G54D54*
X41437Y-32087D03*
X41634Y-32087D03*
X41831Y-32087D03*
X42027Y-32087D03*
X42224Y-32087D03*
X42421Y-32087D03*
X42617Y-32087D03*
X42814Y-32087D03*
X43011Y-32087D03*
X43207Y-32087D03*
X43404Y-32087D03*
X43601Y-32087D03*
G54D55*
X42519Y-33464D03*
G54D53*
X50983Y-32382D03*
X50983Y-32579D03*
X50983Y-32776D03*
X50983Y-32972D03*
X50983Y-33169D03*
X50983Y-33366D03*
X50983Y-33562D03*
X50983Y-33759D03*
X50983Y-33956D03*
X50983Y-34152D03*
X50983Y-34349D03*
X50983Y-34546D03*
G54D54*
X50688Y-34841D03*
X50491Y-34841D03*
X50294Y-34841D03*
X50098Y-34841D03*
X49901Y-34841D03*
X49704Y-34841D03*
X49508Y-34841D03*
X49311Y-34841D03*
X49114Y-34841D03*
X48918Y-34841D03*
X48721Y-34841D03*
X48524Y-34841D03*
G54D53*
X48229Y-34546D03*
X48229Y-34349D03*
X48229Y-34152D03*
X48229Y-33956D03*
X48229Y-33759D03*
X48229Y-33562D03*
X48229Y-33366D03*
X48229Y-33169D03*
X48229Y-32972D03*
X48229Y-32776D03*
X48229Y-32579D03*
X48229Y-32382D03*
G54D54*
X48524Y-32087D03*
X48721Y-32087D03*
X48918Y-32087D03*
X49114Y-32087D03*
X49311Y-32087D03*
X49508Y-32087D03*
X49704Y-32087D03*
X49901Y-32087D03*
X50098Y-32087D03*
X50294Y-32087D03*
X50491Y-32087D03*
X50688Y-32087D03*
G54D55*
X49606Y-33464D03*
G54D53*
X50983Y-26477D03*
X50983Y-26674D03*
X50983Y-26871D03*
X50983Y-27067D03*
X50983Y-27264D03*
X50983Y-27461D03*
X50983Y-27657D03*
X50983Y-27854D03*
X50983Y-28051D03*
X50983Y-28247D03*
X50983Y-28444D03*
X50983Y-28641D03*
G54D54*
X50688Y-28936D03*
X50491Y-28936D03*
X50294Y-28936D03*
X50098Y-28936D03*
X49901Y-28936D03*
X49704Y-28936D03*
X49508Y-28936D03*
X49311Y-28936D03*
X49114Y-28936D03*
X48918Y-28936D03*
X48721Y-28936D03*
X48524Y-28936D03*
G54D53*
X48229Y-28641D03*
X48229Y-28444D03*
X48229Y-28247D03*
X48229Y-28051D03*
X48229Y-27854D03*
X48229Y-27657D03*
X48229Y-27461D03*
X48229Y-27264D03*
X48229Y-27067D03*
X48229Y-26871D03*
X48229Y-26674D03*
X48229Y-26477D03*
G54D54*
X48524Y-26182D03*
X48721Y-26182D03*
X48918Y-26182D03*
X49114Y-26182D03*
X49311Y-26182D03*
X49508Y-26182D03*
X49704Y-26182D03*
X49901Y-26182D03*
X50098Y-26182D03*
X50294Y-26182D03*
X50491Y-26182D03*
X50688Y-26182D03*
G54D55*
X49606Y-27559D03*
G54D53*
X41142Y-50294D03*
X41142Y-50097D03*
X41142Y-49900D03*
X41142Y-49704D03*
X41142Y-49507D03*
X41142Y-49310D03*
X41142Y-49114D03*
X41142Y-48917D03*
X41142Y-48720D03*
X41142Y-48524D03*
X41142Y-48327D03*
X41142Y-48130D03*
G54D54*
X41437Y-47835D03*
X41634Y-47835D03*
X41831Y-47835D03*
X42027Y-47835D03*
X42224Y-47835D03*
X42421Y-47835D03*
X42617Y-47835D03*
X42814Y-47835D03*
X43011Y-47835D03*
X43207Y-47835D03*
X43404Y-47835D03*
X43601Y-47835D03*
G54D53*
X43896Y-48130D03*
X43896Y-48327D03*
X43896Y-48524D03*
X43896Y-48720D03*
X43896Y-48917D03*
X43896Y-49114D03*
X43896Y-49310D03*
X43896Y-49507D03*
X43896Y-49704D03*
X43896Y-49900D03*
X43896Y-50097D03*
X43896Y-50294D03*
G54D54*
X43601Y-50589D03*
X43404Y-50589D03*
X43207Y-50589D03*
X43011Y-50589D03*
X42814Y-50589D03*
X42617Y-50589D03*
X42421Y-50589D03*
X42224Y-50589D03*
X42027Y-50589D03*
X41831Y-50589D03*
X41634Y-50589D03*
X41437Y-50589D03*
G54D55*
X42519Y-49212D03*
G54D53*
X41142Y-56200D03*
X41142Y-56003D03*
X41142Y-55806D03*
X41142Y-55610D03*
X41142Y-55413D03*
X41142Y-55216D03*
X41142Y-55020D03*
X41142Y-54823D03*
X41142Y-54626D03*
X41142Y-54430D03*
X41142Y-54233D03*
X41142Y-54036D03*
G54D54*
X41437Y-53741D03*
X41634Y-53741D03*
X41831Y-53741D03*
X42027Y-53741D03*
X42224Y-53741D03*
X42421Y-53741D03*
X42617Y-53741D03*
X42814Y-53741D03*
X43011Y-53741D03*
X43207Y-53741D03*
X43404Y-53741D03*
X43601Y-53741D03*
G54D53*
X43896Y-54036D03*
X43896Y-54233D03*
X43896Y-54430D03*
X43896Y-54626D03*
X43896Y-54823D03*
X43896Y-55020D03*
X43896Y-55216D03*
X43896Y-55413D03*
X43896Y-55610D03*
X43896Y-55806D03*
X43896Y-56003D03*
X43896Y-56200D03*
G54D54*
X43601Y-56495D03*
X43404Y-56495D03*
X43207Y-56495D03*
X43011Y-56495D03*
X42814Y-56495D03*
X42617Y-56495D03*
X42421Y-56495D03*
X42224Y-56495D03*
X42027Y-56495D03*
X41831Y-56495D03*
X41634Y-56495D03*
X41437Y-56495D03*
G54D55*
X42519Y-55118D03*
G54D53*
X48229Y-56200D03*
X48229Y-56003D03*
X48229Y-55806D03*
X48229Y-55610D03*
X48229Y-55413D03*
X48229Y-55216D03*
X48229Y-55020D03*
X48229Y-54823D03*
X48229Y-54626D03*
X48229Y-54430D03*
X48229Y-54233D03*
X48229Y-54036D03*
G54D54*
X48524Y-53741D03*
X48721Y-53741D03*
X48918Y-53741D03*
X49114Y-53741D03*
X49311Y-53741D03*
X49508Y-53741D03*
X49704Y-53741D03*
X49901Y-53741D03*
X50098Y-53741D03*
X50294Y-53741D03*
X50491Y-53741D03*
X50688Y-53741D03*
G54D53*
X50983Y-54036D03*
X50983Y-54233D03*
X50983Y-54430D03*
X50983Y-54626D03*
X50983Y-54823D03*
X50983Y-55020D03*
X50983Y-55216D03*
X50983Y-55413D03*
X50983Y-55610D03*
X50983Y-55806D03*
X50983Y-56003D03*
X50983Y-56200D03*
G54D54*
X50688Y-56495D03*
X50491Y-56495D03*
X50294Y-56495D03*
X50098Y-56495D03*
X49901Y-56495D03*
X49704Y-56495D03*
X49508Y-56495D03*
X49311Y-56495D03*
X49114Y-56495D03*
X48918Y-56495D03*
X48721Y-56495D03*
X48524Y-56495D03*
G54D55*
X49606Y-55118D03*
G54D53*
X48229Y-50294D03*
X48229Y-50097D03*
X48229Y-49900D03*
X48229Y-49704D03*
X48229Y-49507D03*
X48229Y-49310D03*
X48229Y-49114D03*
X48229Y-48917D03*
X48229Y-48720D03*
X48229Y-48524D03*
X48229Y-48327D03*
X48229Y-48130D03*
G54D54*
X48524Y-47835D03*
X48721Y-47835D03*
X48918Y-47835D03*
X49114Y-47835D03*
X49311Y-47835D03*
X49508Y-47835D03*
X49704Y-47835D03*
X49901Y-47835D03*
X50098Y-47835D03*
X50294Y-47835D03*
X50491Y-47835D03*
X50688Y-47835D03*
G54D53*
X50983Y-48130D03*
X50983Y-48327D03*
X50983Y-48524D03*
X50983Y-48720D03*
X50983Y-48917D03*
X50983Y-49114D03*
X50983Y-49310D03*
X50983Y-49507D03*
X50983Y-49704D03*
X50983Y-49900D03*
X50983Y-50097D03*
X50983Y-50294D03*
G54D54*
X50688Y-50589D03*
X50491Y-50589D03*
X50294Y-50589D03*
X50098Y-50589D03*
X49901Y-50589D03*
X49704Y-50589D03*
X49508Y-50589D03*
X49311Y-50589D03*
X49114Y-50589D03*
X48918Y-50589D03*
X48721Y-50589D03*
X48524Y-50589D03*
G54D55*
X49606Y-49212D03*
G54D53*
X65552Y-50294D03*
X65552Y-50097D03*
X65552Y-49900D03*
X65552Y-49704D03*
X65552Y-49507D03*
X65552Y-49310D03*
X65552Y-49114D03*
X65552Y-48917D03*
X65552Y-48720D03*
X65552Y-48524D03*
X65552Y-48327D03*
X65552Y-48130D03*
G54D54*
X65847Y-47835D03*
X66044Y-47835D03*
X66241Y-47835D03*
X66437Y-47835D03*
X66634Y-47835D03*
X66831Y-47835D03*
X67027Y-47835D03*
X67224Y-47835D03*
X67421Y-47835D03*
X67617Y-47835D03*
X67814Y-47835D03*
X68011Y-47835D03*
G54D53*
X68306Y-48130D03*
X68306Y-48327D03*
X68306Y-48524D03*
X68306Y-48720D03*
X68306Y-48917D03*
X68306Y-49114D03*
X68306Y-49310D03*
X68306Y-49507D03*
X68306Y-49704D03*
X68306Y-49900D03*
X68306Y-50097D03*
X68306Y-50294D03*
G54D54*
X68011Y-50589D03*
X67814Y-50589D03*
X67617Y-50589D03*
X67421Y-50589D03*
X67224Y-50589D03*
X67027Y-50589D03*
X66831Y-50589D03*
X66634Y-50589D03*
X66437Y-50589D03*
X66241Y-50589D03*
X66044Y-50589D03*
X65847Y-50589D03*
G54D55*
X66929Y-49212D03*
G54D53*
X65552Y-56200D03*
X65552Y-56003D03*
X65552Y-55806D03*
X65552Y-55610D03*
X65552Y-55413D03*
X65552Y-55216D03*
X65552Y-55020D03*
X65552Y-54823D03*
X65552Y-54626D03*
X65552Y-54430D03*
X65552Y-54233D03*
X65552Y-54036D03*
G54D54*
X65847Y-53741D03*
X66044Y-53741D03*
X66241Y-53741D03*
X66437Y-53741D03*
X66634Y-53741D03*
X66831Y-53741D03*
X67027Y-53741D03*
X67224Y-53741D03*
X67421Y-53741D03*
X67617Y-53741D03*
X67814Y-53741D03*
X68011Y-53741D03*
G54D53*
X68306Y-54036D03*
X68306Y-54233D03*
X68306Y-54430D03*
X68306Y-54626D03*
X68306Y-54823D03*
X68306Y-55020D03*
X68306Y-55216D03*
X68306Y-55413D03*
X68306Y-55610D03*
X68306Y-55806D03*
X68306Y-56003D03*
X68306Y-56200D03*
G54D54*
X68011Y-56495D03*
X67814Y-56495D03*
X67617Y-56495D03*
X67421Y-56495D03*
X67224Y-56495D03*
X67027Y-56495D03*
X66831Y-56495D03*
X66634Y-56495D03*
X66437Y-56495D03*
X66241Y-56495D03*
X66044Y-56495D03*
X65847Y-56495D03*
G54D55*
X66929Y-55118D03*
G54D53*
X72638Y-56200D03*
X72638Y-56003D03*
X72638Y-55806D03*
X72638Y-55610D03*
X72638Y-55413D03*
X72638Y-55216D03*
X72638Y-55020D03*
X72638Y-54823D03*
X72638Y-54626D03*
X72638Y-54430D03*
X72638Y-54233D03*
X72638Y-54036D03*
G54D54*
X72933Y-53741D03*
X73130Y-53741D03*
X73327Y-53741D03*
X73523Y-53741D03*
X73720Y-53741D03*
X73917Y-53741D03*
X74113Y-53741D03*
X74310Y-53741D03*
X74507Y-53741D03*
X74703Y-53741D03*
X74900Y-53741D03*
X75097Y-53741D03*
G54D53*
X75392Y-54036D03*
X75392Y-54233D03*
X75392Y-54430D03*
X75392Y-54626D03*
X75392Y-54823D03*
X75392Y-55020D03*
X75392Y-55216D03*
X75392Y-55413D03*
X75392Y-55610D03*
X75392Y-55806D03*
X75392Y-56003D03*
X75392Y-56200D03*
G54D54*
X75097Y-56495D03*
X74900Y-56495D03*
X74703Y-56495D03*
X74507Y-56495D03*
X74310Y-56495D03*
X74113Y-56495D03*
X73917Y-56495D03*
X73720Y-56495D03*
X73523Y-56495D03*
X73327Y-56495D03*
X73130Y-56495D03*
X72933Y-56495D03*
G54D55*
X74015Y-55118D03*
G54D53*
X72638Y-50294D03*
X72638Y-50097D03*
X72638Y-49900D03*
X72638Y-49704D03*
X72638Y-49507D03*
X72638Y-49310D03*
X72638Y-49114D03*
X72638Y-48917D03*
X72638Y-48720D03*
X72638Y-48524D03*
X72638Y-48327D03*
X72638Y-48130D03*
G54D54*
X72933Y-47835D03*
X73130Y-47835D03*
X73327Y-47835D03*
X73523Y-47835D03*
X73720Y-47835D03*
X73917Y-47835D03*
X74113Y-47835D03*
X74310Y-47835D03*
X74507Y-47835D03*
X74703Y-47835D03*
X74900Y-47835D03*
X75097Y-47835D03*
G54D53*
X75392Y-48130D03*
X75392Y-48327D03*
X75392Y-48524D03*
X75392Y-48720D03*
X75392Y-48917D03*
X75392Y-49114D03*
X75392Y-49310D03*
X75392Y-49507D03*
X75392Y-49704D03*
X75392Y-49900D03*
X75392Y-50097D03*
X75392Y-50294D03*
G54D54*
X75097Y-50589D03*
X74900Y-50589D03*
X74703Y-50589D03*
X74507Y-50589D03*
X74310Y-50589D03*
X74113Y-50589D03*
X73917Y-50589D03*
X73720Y-50589D03*
X73523Y-50589D03*
X73327Y-50589D03*
X73130Y-50589D03*
X72933Y-50589D03*
G54D55*
X74015Y-49212D03*
G54D53*
X75392Y-32382D03*
X75392Y-32579D03*
X75392Y-32776D03*
X75392Y-32972D03*
X75392Y-33169D03*
X75392Y-33366D03*
X75392Y-33562D03*
X75392Y-33759D03*
X75392Y-33956D03*
X75392Y-34152D03*
X75392Y-34349D03*
X75392Y-34546D03*
G54D54*
X75097Y-34841D03*
X74900Y-34841D03*
X74703Y-34841D03*
X74507Y-34841D03*
X74310Y-34841D03*
X74113Y-34841D03*
X73917Y-34841D03*
X73720Y-34841D03*
X73523Y-34841D03*
X73327Y-34841D03*
X73130Y-34841D03*
X72933Y-34841D03*
G54D53*
X72638Y-34546D03*
X72638Y-34349D03*
X72638Y-34152D03*
X72638Y-33956D03*
X72638Y-33759D03*
X72638Y-33562D03*
X72638Y-33366D03*
X72638Y-33169D03*
X72638Y-32972D03*
X72638Y-32776D03*
X72638Y-32579D03*
X72638Y-32382D03*
G54D54*
X72933Y-32087D03*
X73130Y-32087D03*
X73327Y-32087D03*
X73523Y-32087D03*
X73720Y-32087D03*
X73917Y-32087D03*
X74113Y-32087D03*
X74310Y-32087D03*
X74507Y-32087D03*
X74703Y-32087D03*
X74900Y-32087D03*
X75097Y-32087D03*
G54D55*
X74015Y-33464D03*
G54D53*
X75392Y-26477D03*
X75392Y-26674D03*
X75392Y-26871D03*
X75392Y-27067D03*
X75392Y-27264D03*
X75392Y-27461D03*
X75392Y-27657D03*
X75392Y-27854D03*
X75392Y-28051D03*
X75392Y-28247D03*
X75392Y-28444D03*
X75392Y-28641D03*
G54D54*
X75097Y-28936D03*
X74900Y-28936D03*
X74703Y-28936D03*
X74507Y-28936D03*
X74310Y-28936D03*
X74113Y-28936D03*
X73917Y-28936D03*
X73720Y-28936D03*
X73523Y-28936D03*
X73327Y-28936D03*
X73130Y-28936D03*
X72933Y-28936D03*
G54D53*
X72638Y-28641D03*
X72638Y-28444D03*
X72638Y-28247D03*
X72638Y-28051D03*
X72638Y-27854D03*
X72638Y-27657D03*
X72638Y-27461D03*
X72638Y-27264D03*
X72638Y-27067D03*
X72638Y-26871D03*
X72638Y-26674D03*
X72638Y-26477D03*
G54D54*
X72933Y-26182D03*
X73130Y-26182D03*
X73327Y-26182D03*
X73523Y-26182D03*
X73720Y-26182D03*
X73917Y-26182D03*
X74113Y-26182D03*
X74310Y-26182D03*
X74507Y-26182D03*
X74703Y-26182D03*
X74900Y-26182D03*
X75097Y-26182D03*
G54D55*
X74015Y-27559D03*
G54D53*
X68306Y-26477D03*
X68306Y-26674D03*
X68306Y-26871D03*
X68306Y-27067D03*
X68306Y-27264D03*
X68306Y-27461D03*
X68306Y-27657D03*
X68306Y-27854D03*
X68306Y-28051D03*
X68306Y-28247D03*
X68306Y-28444D03*
X68306Y-28641D03*
G54D54*
X68011Y-28936D03*
X67814Y-28936D03*
X67617Y-28936D03*
X67421Y-28936D03*
X67224Y-28936D03*
X67027Y-28936D03*
X66831Y-28936D03*
X66634Y-28936D03*
X66437Y-28936D03*
X66241Y-28936D03*
X66044Y-28936D03*
X65847Y-28936D03*
G54D53*
X65552Y-28641D03*
X65552Y-28444D03*
X65552Y-28247D03*
X65552Y-28051D03*
X65552Y-27854D03*
X65552Y-27657D03*
X65552Y-27461D03*
X65552Y-27264D03*
X65552Y-27067D03*
X65552Y-26871D03*
X65552Y-26674D03*
X65552Y-26477D03*
G54D54*
X65847Y-26182D03*
X66044Y-26182D03*
X66241Y-26182D03*
X66437Y-26182D03*
X66634Y-26182D03*
X66831Y-26182D03*
X67027Y-26182D03*
X67224Y-26182D03*
X67421Y-26182D03*
X67617Y-26182D03*
X67814Y-26182D03*
X68011Y-26182D03*
G54D55*
X66929Y-27559D03*
G54D53*
X68306Y-32382D03*
X68306Y-32579D03*
X68306Y-32776D03*
X68306Y-32972D03*
X68306Y-33169D03*
X68306Y-33366D03*
X68306Y-33562D03*
X68306Y-33759D03*
X68306Y-33956D03*
X68306Y-34152D03*
X68306Y-34349D03*
X68306Y-34546D03*
G54D54*
X68011Y-34841D03*
X67814Y-34841D03*
X67617Y-34841D03*
X67421Y-34841D03*
X67224Y-34841D03*
X67027Y-34841D03*
X66831Y-34841D03*
X66634Y-34841D03*
X66437Y-34841D03*
X66241Y-34841D03*
X66044Y-34841D03*
X65847Y-34841D03*
G54D53*
X65552Y-34546D03*
X65552Y-34349D03*
X65552Y-34152D03*
X65552Y-33956D03*
X65552Y-33759D03*
X65552Y-33562D03*
X65552Y-33366D03*
X65552Y-33169D03*
X65552Y-32972D03*
X65552Y-32776D03*
X65552Y-32579D03*
X65552Y-32382D03*
G54D54*
X65847Y-32087D03*
X66044Y-32087D03*
X66241Y-32087D03*
X66437Y-32087D03*
X66634Y-32087D03*
X66831Y-32087D03*
X67027Y-32087D03*
X67224Y-32087D03*
X67421Y-32087D03*
X67617Y-32087D03*
X67814Y-32087D03*
X68011Y-32087D03*
G54D55*
X66929Y-33464D03*
G54D56*
X65214Y-41015D03*
X65017Y-41015D03*
X64821Y-41015D03*
X64624Y-41015D03*
G54D57*
X64349Y-41290D03*
X64349Y-41487D03*
X64349Y-41683D03*
X64349Y-41880D03*
G54D56*
X64624Y-42155D03*
X64821Y-42155D03*
X65017Y-42155D03*
X65214Y-42155D03*
G54D57*
X65489Y-41880D03*
X65489Y-41683D03*
X65489Y-41487D03*
X65489Y-41290D03*
G54D58*
X64919Y-41585D03*
G54D59*
X65441Y-41585D03*
G54D60*
X58917Y-35816D03*
X59173Y-35816D03*
X59429Y-35816D03*
X59685Y-35816D03*
X59940Y-35816D03*
X60196Y-35816D03*
X60452Y-35816D03*
G54D61*
X60649Y-35501D03*
X60649Y-35245D03*
X60649Y-34989D03*
X58721Y-35501D03*
X58721Y-35245D03*
X58721Y-34989D03*
G54D62*
X60472Y-34123D03*
G54D63*
X59773Y-34192D03*
G54D64*
X59005Y-34123D03*
G54D65*
X59665Y-35245D03*
G54D66*
X58700Y-33710D03*
X58700Y-34123D03*
X58700Y-34536D03*
X60669Y-33710D03*
X60669Y-34123D03*
X60659Y-34536D03*
G54D67*
X59773Y-33483D03*
X59438Y-33483D03*
X60108Y-33483D03*
G54D60*
X58089Y-46902D03*
X57833Y-46902D03*
X57577Y-46902D03*
X57322Y-46902D03*
X57066Y-46902D03*
X56810Y-46902D03*
X56554Y-46902D03*
G54D61*
X56358Y-47218D03*
X56358Y-47474D03*
X56358Y-47730D03*
X58286Y-47218D03*
X58286Y-47474D03*
X58286Y-47730D03*
G54D62*
X56534Y-48595D03*
G54D63*
X57233Y-48526D03*
G54D64*
X58001Y-48595D03*
G54D65*
X57341Y-47473D03*
G54D66*
X58306Y-49008D03*
X58306Y-48595D03*
X58306Y-48182D03*
X56337Y-49008D03*
X56337Y-48595D03*
X56347Y-48182D03*
G54D67*
X57233Y-49235D03*
X57568Y-49235D03*
X56898Y-49235D03*
G54D52*
X40285Y-53011D03*
X39281Y-53011D03*
X39281Y-50925D03*
X40285Y-50925D03*
G54D22*
X40748Y-23622D03*
X40748Y-59055D03*
X46062Y-52165D03*
X70472Y-52165D03*
X76181Y-59055D03*
X76181Y-23622D03*
X70472Y-30511D03*
G54D37*
X70669Y-43652D03*
X70669Y-44162D03*
M02*
