G04 (created by PCBNEW (2013-mar-13)-testing) date Thu 16 May 2013 04:33:15 PM ICT*
%MOIN*%
G04 Gerber Fmt 3.4, Leading zero omitted, Abs format*
%FSLAX34Y34*%
G01*
G70*
G90*
G04 APERTURE LIST*
%ADD10C,0.00393701*%
G04 APERTURE END LIST*
G54D10*
G36*
X41595Y-23540D02*
X41593Y-23727D01*
X41555Y-23892D01*
X41489Y-24041D01*
X41391Y-24179D01*
X41273Y-24292D01*
X41130Y-24382D01*
X40978Y-24441D01*
X40811Y-24471D01*
X40648Y-24467D01*
X40483Y-24431D01*
X40333Y-24366D01*
X40194Y-24269D01*
X40081Y-24152D01*
X39989Y-24009D01*
X39929Y-23858D01*
X39899Y-23691D01*
X39901Y-23528D01*
X39936Y-23362D01*
X40000Y-23213D01*
X40096Y-23073D01*
X40213Y-22959D01*
X40355Y-22866D01*
X40505Y-22805D01*
X40672Y-22773D01*
X40835Y-22774D01*
X41001Y-22808D01*
X41151Y-22871D01*
X41292Y-22967D01*
X41406Y-23082D01*
X41500Y-23223D01*
X41562Y-23374D01*
X41595Y-23538D01*
X41595Y-23540D01*
X41595Y-23540D01*
G37*
G36*
X41608Y-58972D02*
X41605Y-59162D01*
X41567Y-59329D01*
X41500Y-59480D01*
X41401Y-59620D01*
X41281Y-59735D01*
X41136Y-59827D01*
X40981Y-59887D01*
X40812Y-59917D01*
X40647Y-59913D01*
X40479Y-59876D01*
X40327Y-59810D01*
X40186Y-59712D01*
X40071Y-59593D01*
X39978Y-59448D01*
X39917Y-59294D01*
X39886Y-59125D01*
X39888Y-58960D01*
X39924Y-58792D01*
X39989Y-58640D01*
X40087Y-58498D01*
X40205Y-58382D01*
X40349Y-58288D01*
X40502Y-58226D01*
X40671Y-58194D01*
X40836Y-58195D01*
X41005Y-58229D01*
X41157Y-58293D01*
X41300Y-58390D01*
X41416Y-58507D01*
X41512Y-58651D01*
X41574Y-58803D01*
X41575Y-58805D01*
X41608Y-58972D01*
X41608Y-58972D01*
G37*
G36*
X44547Y-29586D02*
X40491Y-29586D01*
X40491Y-25531D01*
X44547Y-25531D01*
X44547Y-29586D01*
X44547Y-29586D01*
G37*
G36*
X44547Y-35492D02*
X40491Y-35492D01*
X40491Y-31436D01*
X44547Y-31436D01*
X44547Y-35492D01*
X44547Y-35492D01*
G37*
G36*
X44547Y-51240D02*
X40491Y-51240D01*
X40491Y-47184D01*
X44547Y-47184D01*
X44547Y-51240D01*
X44547Y-51240D01*
G37*
G36*
X44547Y-57146D02*
X40491Y-57146D01*
X40491Y-53090D01*
X44547Y-53090D01*
X44547Y-57146D01*
X44547Y-57146D01*
G37*
G36*
X44726Y-39962D02*
X44726Y-39966D01*
X44725Y-39969D01*
X44725Y-39970D01*
X44715Y-40061D01*
X44715Y-40061D01*
X44715Y-40062D01*
X44687Y-40149D01*
X44642Y-40230D01*
X44583Y-40301D01*
X44511Y-40359D01*
X44430Y-40402D01*
X44341Y-40428D01*
X44249Y-40436D01*
X44157Y-40426D01*
X44069Y-40399D01*
X43988Y-40355D01*
X43917Y-40296D01*
X43858Y-40225D01*
X43815Y-40143D01*
X43788Y-40055D01*
X43779Y-39959D01*
X43779Y-39955D01*
X43779Y-39952D01*
X43779Y-39952D01*
X43790Y-39860D01*
X43790Y-39860D01*
X43790Y-39860D01*
X43817Y-39772D01*
X43862Y-39691D01*
X43921Y-39620D01*
X43993Y-39562D01*
X44075Y-39520D01*
X44164Y-39494D01*
X44255Y-39485D01*
X44347Y-39495D01*
X44435Y-39522D01*
X44517Y-39566D01*
X44588Y-39625D01*
X44646Y-39697D01*
X44690Y-39778D01*
X44716Y-39866D01*
X44726Y-39962D01*
X44726Y-39962D01*
G37*
G36*
X44726Y-41615D02*
X44726Y-41619D01*
X44725Y-41622D01*
X44725Y-41623D01*
X44715Y-41714D01*
X44715Y-41714D01*
X44715Y-41715D01*
X44687Y-41802D01*
X44642Y-41883D01*
X44583Y-41954D01*
X44511Y-42012D01*
X44430Y-42055D01*
X44341Y-42081D01*
X44249Y-42089D01*
X44157Y-42079D01*
X44069Y-42052D01*
X43988Y-42008D01*
X43917Y-41949D01*
X43858Y-41878D01*
X43815Y-41796D01*
X43788Y-41708D01*
X43779Y-41612D01*
X43779Y-41608D01*
X43779Y-41605D01*
X43779Y-41605D01*
X43790Y-41513D01*
X43790Y-41513D01*
X43790Y-41513D01*
X43817Y-41425D01*
X43862Y-41344D01*
X43921Y-41273D01*
X43993Y-41215D01*
X44075Y-41173D01*
X44164Y-41147D01*
X44255Y-41138D01*
X44347Y-41148D01*
X44435Y-41175D01*
X44517Y-41219D01*
X44588Y-41278D01*
X44646Y-41350D01*
X44690Y-41431D01*
X44716Y-41519D01*
X44726Y-41615D01*
X44726Y-41615D01*
G37*
G36*
X44726Y-43268D02*
X44726Y-43272D01*
X44725Y-43275D01*
X44725Y-43276D01*
X44715Y-43367D01*
X44715Y-43367D01*
X44715Y-43368D01*
X44687Y-43455D01*
X44642Y-43536D01*
X44583Y-43607D01*
X44511Y-43665D01*
X44430Y-43708D01*
X44341Y-43734D01*
X44249Y-43742D01*
X44157Y-43732D01*
X44069Y-43705D01*
X43988Y-43661D01*
X43917Y-43602D01*
X43858Y-43531D01*
X43815Y-43449D01*
X43788Y-43361D01*
X43779Y-43265D01*
X43779Y-43261D01*
X43779Y-43258D01*
X43779Y-43258D01*
X43790Y-43166D01*
X43790Y-43166D01*
X43790Y-43166D01*
X43817Y-43078D01*
X43862Y-42997D01*
X43921Y-42926D01*
X43993Y-42868D01*
X44075Y-42826D01*
X44164Y-42800D01*
X44255Y-42791D01*
X44347Y-42801D01*
X44435Y-42828D01*
X44517Y-42872D01*
X44588Y-42931D01*
X44646Y-43003D01*
X44690Y-43084D01*
X44716Y-43172D01*
X44726Y-43268D01*
X44726Y-43268D01*
G37*
G36*
X46378Y-39962D02*
X46378Y-39966D01*
X46377Y-39969D01*
X46377Y-39970D01*
X46367Y-40061D01*
X46367Y-40061D01*
X46367Y-40062D01*
X46339Y-40149D01*
X46294Y-40230D01*
X46235Y-40301D01*
X46163Y-40359D01*
X46082Y-40402D01*
X45993Y-40428D01*
X45901Y-40436D01*
X45809Y-40426D01*
X45721Y-40399D01*
X45640Y-40355D01*
X45569Y-40296D01*
X45510Y-40225D01*
X45467Y-40143D01*
X45440Y-40055D01*
X45431Y-39959D01*
X45431Y-39955D01*
X45431Y-39952D01*
X45431Y-39952D01*
X45442Y-39860D01*
X45442Y-39860D01*
X45442Y-39860D01*
X45469Y-39772D01*
X45514Y-39691D01*
X45573Y-39620D01*
X45645Y-39562D01*
X45727Y-39520D01*
X45816Y-39494D01*
X45907Y-39485D01*
X45999Y-39495D01*
X46087Y-39522D01*
X46169Y-39566D01*
X46240Y-39625D01*
X46298Y-39697D01*
X46342Y-39778D01*
X46368Y-39866D01*
X46378Y-39962D01*
X46378Y-39962D01*
G37*
G36*
X46378Y-41615D02*
X46378Y-41619D01*
X46377Y-41622D01*
X46377Y-41623D01*
X46367Y-41714D01*
X46367Y-41714D01*
X46367Y-41715D01*
X46339Y-41802D01*
X46294Y-41883D01*
X46235Y-41954D01*
X46163Y-42012D01*
X46082Y-42055D01*
X45993Y-42081D01*
X45901Y-42089D01*
X45809Y-42079D01*
X45721Y-42052D01*
X45640Y-42008D01*
X45569Y-41949D01*
X45510Y-41878D01*
X45467Y-41796D01*
X45440Y-41708D01*
X45431Y-41612D01*
X45431Y-41608D01*
X45431Y-41605D01*
X45431Y-41605D01*
X45442Y-41513D01*
X45442Y-41513D01*
X45442Y-41513D01*
X45469Y-41425D01*
X45514Y-41344D01*
X45573Y-41273D01*
X45645Y-41215D01*
X45727Y-41173D01*
X45816Y-41147D01*
X45907Y-41138D01*
X45999Y-41148D01*
X46087Y-41175D01*
X46169Y-41219D01*
X46240Y-41278D01*
X46298Y-41350D01*
X46342Y-41431D01*
X46368Y-41519D01*
X46378Y-41615D01*
X46378Y-41615D01*
G37*
G36*
X46378Y-43268D02*
X46378Y-43272D01*
X46377Y-43275D01*
X46377Y-43276D01*
X46367Y-43367D01*
X46367Y-43367D01*
X46367Y-43368D01*
X46339Y-43455D01*
X46294Y-43536D01*
X46235Y-43607D01*
X46163Y-43665D01*
X46082Y-43708D01*
X45993Y-43734D01*
X45901Y-43742D01*
X45809Y-43732D01*
X45721Y-43705D01*
X45640Y-43661D01*
X45569Y-43602D01*
X45510Y-43531D01*
X45467Y-43449D01*
X45440Y-43361D01*
X45431Y-43265D01*
X45431Y-43261D01*
X45431Y-43258D01*
X45431Y-43258D01*
X45442Y-43166D01*
X45442Y-43166D01*
X45442Y-43166D01*
X45469Y-43078D01*
X45514Y-42997D01*
X45573Y-42926D01*
X45645Y-42868D01*
X45727Y-42826D01*
X45816Y-42800D01*
X45907Y-42791D01*
X45999Y-42801D01*
X46087Y-42828D01*
X46169Y-42872D01*
X46240Y-42931D01*
X46298Y-43003D01*
X46342Y-43084D01*
X46368Y-43172D01*
X46378Y-43268D01*
X46378Y-43268D01*
G37*
G36*
X46923Y-30428D02*
X46920Y-30618D01*
X46882Y-30785D01*
X46815Y-30937D01*
X46716Y-31077D01*
X46596Y-31191D01*
X46451Y-31283D01*
X46296Y-31343D01*
X46127Y-31373D01*
X45962Y-31370D01*
X45794Y-31333D01*
X45642Y-31267D01*
X45501Y-31168D01*
X45386Y-31049D01*
X45293Y-30905D01*
X45232Y-30751D01*
X45201Y-30582D01*
X45203Y-30417D01*
X45239Y-30248D01*
X45304Y-30096D01*
X45401Y-29954D01*
X45520Y-29839D01*
X45664Y-29745D01*
X45817Y-29683D01*
X45986Y-29650D01*
X46151Y-29652D01*
X46320Y-29686D01*
X46472Y-29750D01*
X46615Y-29847D01*
X46731Y-29964D01*
X46827Y-30107D01*
X46889Y-30260D01*
X46890Y-30262D01*
X46923Y-30428D01*
X46923Y-30428D01*
G37*
G36*
X46923Y-52082D02*
X46920Y-52272D01*
X46882Y-52439D01*
X46815Y-52591D01*
X46716Y-52731D01*
X46596Y-52845D01*
X46451Y-52937D01*
X46296Y-52997D01*
X46127Y-53027D01*
X45962Y-53023D01*
X45794Y-52986D01*
X45642Y-52920D01*
X45501Y-52822D01*
X45386Y-52703D01*
X45293Y-52558D01*
X45232Y-52405D01*
X45201Y-52236D01*
X45203Y-52070D01*
X45239Y-51902D01*
X45304Y-51750D01*
X45401Y-51608D01*
X45520Y-51492D01*
X45664Y-51398D01*
X45817Y-51336D01*
X45986Y-51304D01*
X46151Y-51305D01*
X46320Y-51340D01*
X46472Y-51404D01*
X46615Y-51500D01*
X46731Y-51617D01*
X46827Y-51761D01*
X46889Y-51913D01*
X46890Y-51915D01*
X46923Y-52082D01*
X46923Y-52082D01*
G37*
G36*
X51634Y-29586D02*
X47578Y-29586D01*
X47578Y-25531D01*
X51634Y-25531D01*
X51634Y-29586D01*
X51634Y-29586D01*
G37*
G36*
X51634Y-35492D02*
X47578Y-35492D01*
X47578Y-31436D01*
X51634Y-31436D01*
X51634Y-35492D01*
X51634Y-35492D01*
G37*
G36*
X51634Y-51240D02*
X47578Y-51240D01*
X47578Y-47184D01*
X51634Y-47184D01*
X51634Y-51240D01*
X51634Y-51240D01*
G37*
G36*
X51634Y-57146D02*
X47578Y-57146D01*
X47578Y-53090D01*
X51634Y-53090D01*
X51634Y-57146D01*
X51634Y-57146D01*
G37*
G36*
X68957Y-29586D02*
X64901Y-29586D01*
X64901Y-25531D01*
X68957Y-25531D01*
X68957Y-29586D01*
X68957Y-29586D01*
G37*
G36*
X68957Y-35492D02*
X64901Y-35492D01*
X64901Y-31436D01*
X68957Y-31436D01*
X68957Y-35492D01*
X68957Y-35492D01*
G37*
G36*
X68957Y-51240D02*
X64901Y-51240D01*
X64901Y-47184D01*
X68957Y-47184D01*
X68957Y-51240D01*
X68957Y-51240D01*
G37*
G36*
X68957Y-57146D02*
X64901Y-57146D01*
X64901Y-53090D01*
X68957Y-53090D01*
X68957Y-57146D01*
X68957Y-57146D01*
G37*
G36*
X71332Y-30428D02*
X71330Y-30618D01*
X71292Y-30785D01*
X71224Y-30937D01*
X71125Y-31077D01*
X71005Y-31191D01*
X70860Y-31283D01*
X70706Y-31343D01*
X70537Y-31373D01*
X70371Y-31370D01*
X70203Y-31333D01*
X70052Y-31267D01*
X69911Y-31168D01*
X69796Y-31049D01*
X69702Y-30905D01*
X69642Y-30751D01*
X69611Y-30582D01*
X69613Y-30417D01*
X69649Y-30248D01*
X69714Y-30096D01*
X69811Y-29954D01*
X69929Y-29839D01*
X70073Y-29745D01*
X70226Y-29683D01*
X70395Y-29650D01*
X70560Y-29652D01*
X70729Y-29686D01*
X70881Y-29750D01*
X71024Y-29847D01*
X71141Y-29964D01*
X71236Y-30107D01*
X71299Y-30260D01*
X71299Y-30262D01*
X71332Y-30428D01*
X71332Y-30428D01*
G37*
G36*
X71332Y-52082D02*
X71330Y-52272D01*
X71292Y-52439D01*
X71224Y-52591D01*
X71125Y-52731D01*
X71005Y-52845D01*
X70860Y-52937D01*
X70706Y-52997D01*
X70537Y-53027D01*
X70371Y-53023D01*
X70203Y-52986D01*
X70052Y-52920D01*
X69911Y-52822D01*
X69796Y-52703D01*
X69702Y-52558D01*
X69642Y-52405D01*
X69611Y-52236D01*
X69613Y-52070D01*
X69649Y-51902D01*
X69714Y-51750D01*
X69811Y-51608D01*
X69929Y-51492D01*
X70073Y-51398D01*
X70226Y-51336D01*
X70395Y-51304D01*
X70560Y-51305D01*
X70729Y-51340D01*
X70881Y-51404D01*
X71024Y-51500D01*
X71141Y-51617D01*
X71236Y-51761D01*
X71299Y-51913D01*
X71299Y-51915D01*
X71332Y-52082D01*
X71332Y-52082D01*
G37*
G36*
X76043Y-29586D02*
X71987Y-29586D01*
X71987Y-25531D01*
X76043Y-25531D01*
X76043Y-29586D01*
X76043Y-29586D01*
G37*
G36*
X76043Y-35492D02*
X71987Y-35492D01*
X71987Y-31436D01*
X76043Y-31436D01*
X76043Y-35492D01*
X76043Y-35492D01*
G37*
G36*
X76043Y-51240D02*
X71987Y-51240D01*
X71987Y-47184D01*
X76043Y-47184D01*
X76043Y-51240D01*
X76043Y-51240D01*
G37*
G36*
X76043Y-57146D02*
X71987Y-57146D01*
X71987Y-53090D01*
X76043Y-53090D01*
X76043Y-57146D01*
X76043Y-57146D01*
G37*
G36*
X76659Y-40448D02*
X76658Y-40498D01*
X76647Y-40546D01*
X76629Y-40586D01*
X76601Y-40626D01*
X76569Y-40656D01*
X76528Y-40683D01*
X76487Y-40699D01*
X76438Y-40707D01*
X76395Y-40706D01*
X76346Y-40696D01*
X76307Y-40678D01*
X76266Y-40650D01*
X76236Y-40619D01*
X76209Y-40577D01*
X76193Y-40537D01*
X76184Y-40488D01*
X76184Y-40445D01*
X76195Y-40396D01*
X76212Y-40356D01*
X76240Y-40315D01*
X76271Y-40285D01*
X76313Y-40257D01*
X76353Y-40241D01*
X76402Y-40232D01*
X76445Y-40232D01*
X76494Y-40242D01*
X76533Y-40259D01*
X76575Y-40287D01*
X76605Y-40317D01*
X76633Y-40359D01*
X76649Y-40399D01*
X76659Y-40448D01*
X76659Y-40448D01*
G37*
G36*
X76659Y-42180D02*
X76658Y-42230D01*
X76647Y-42278D01*
X76629Y-42318D01*
X76601Y-42358D01*
X76569Y-42388D01*
X76528Y-42415D01*
X76487Y-42431D01*
X76438Y-42439D01*
X76395Y-42438D01*
X76346Y-42428D01*
X76307Y-42410D01*
X76266Y-42382D01*
X76236Y-42351D01*
X76209Y-42309D01*
X76193Y-42269D01*
X76184Y-42220D01*
X76184Y-42177D01*
X76195Y-42128D01*
X76212Y-42088D01*
X76240Y-42047D01*
X76271Y-42017D01*
X76313Y-41989D01*
X76353Y-41973D01*
X76402Y-41964D01*
X76445Y-41964D01*
X76494Y-41974D01*
X76533Y-41991D01*
X76575Y-42019D01*
X76605Y-42049D01*
X76633Y-42091D01*
X76649Y-42131D01*
X76659Y-42180D01*
X76659Y-42180D01*
G37*
G36*
X77041Y-23539D02*
X77038Y-23728D01*
X77000Y-23896D01*
X76933Y-24047D01*
X76834Y-24187D01*
X76714Y-24302D01*
X76569Y-24394D01*
X76414Y-24454D01*
X76245Y-24483D01*
X76080Y-24480D01*
X75912Y-24443D01*
X75760Y-24377D01*
X75619Y-24279D01*
X75504Y-24160D01*
X75411Y-24015D01*
X75350Y-23861D01*
X75319Y-23692D01*
X75321Y-23527D01*
X75357Y-23359D01*
X75422Y-23207D01*
X75520Y-23065D01*
X75638Y-22949D01*
X75782Y-22855D01*
X75935Y-22793D01*
X76104Y-22761D01*
X76269Y-22762D01*
X76438Y-22796D01*
X76590Y-22860D01*
X76733Y-22957D01*
X76849Y-23074D01*
X76945Y-23217D01*
X77008Y-23370D01*
X77008Y-23372D01*
X77041Y-23539D01*
X77041Y-23539D01*
G37*
G36*
X77041Y-58972D02*
X77038Y-59162D01*
X77000Y-59329D01*
X76933Y-59480D01*
X76834Y-59620D01*
X76714Y-59735D01*
X76569Y-59827D01*
X76414Y-59887D01*
X76245Y-59917D01*
X76080Y-59913D01*
X75912Y-59876D01*
X75760Y-59810D01*
X75619Y-59712D01*
X75504Y-59593D01*
X75411Y-59448D01*
X75350Y-59294D01*
X75319Y-59125D01*
X75321Y-58960D01*
X75357Y-58792D01*
X75422Y-58640D01*
X75520Y-58498D01*
X75638Y-58382D01*
X75782Y-58288D01*
X75935Y-58226D01*
X76104Y-58194D01*
X76269Y-58195D01*
X76438Y-58229D01*
X76590Y-58293D01*
X76733Y-58390D01*
X76849Y-58507D01*
X76945Y-58651D01*
X77008Y-58803D01*
X77008Y-58805D01*
X77041Y-58972D01*
X77041Y-58972D01*
G37*
M02*
