<?xml version="1.0" standalone="no"?>
 <!DOCTYPE svg PUBLIC "-//W3C//DTD SVG 1.1//EN" 
 "http://www.w3.org/Graphics/SVG/1.1/DTD/svg11.dtd"> 
<svg xmlns="http://www.w3.org/2000/svg" version="1.1" 
    width="10.9499cm" height="10.8585cm" viewBox="0 0 43110 42750 ">
<title>SVG Picture created as k16-F_SilkS.svg date 2013/05/21 08:10:17 </title>
  <desc>Picture generated by PCBNEW </desc>
<g style="fill:#000000; fill-opacity:1;stroke:#000000; stroke-opacity:1;
stroke-linecap:round; stroke-linejoin:round; "
 transform="translate(0 0) scale(1 1)">
</g>
<g style="fill:#008484; fill-opacity:0.0; 
stroke:#008484; stroke-width:78.7402; stroke-opacity:1; 
stroke-linecap:round; stroke-linejoin:round;">
<path d="M32090 21996
L32090 22114
" />
<path d="M31952 21996
L32090 21996
" />
<path d="M37218 17941
L37218 17724
" />
<path d="M37228 17941
L37464 17941
" />
<path d="M22129 26779
L22208 26779
" />
<path d="M22110 26681
L22110 26779
" />
<path d="M22326 15913
L22326 16041
" />
<path d="M22208 15913
L22326 15913
" />
<path d="M41393 28082
L41393 28213
" />
<path d="M41599 28213
L41205 28213
L41205 28026
" />
<path d="M41486 27895
L41486 27707
" />
<path d="M41599 27932
L41205 27801
L41599 27670
" />
<path d="M41599 27538
L41205 27538
L41599 27314
L41205 27314
" />
<path d="M41253 26544
L41253 26638
" />
<path d="M41160 26600
L41253 26638
L41347 26600
" />
<path d="M41197 26713
L41253 26638
L41310 26713
" />
<path d="M41084 24642
L41384 24642
" />
<path d="M41143 25646
L41443 25646
" />
<path d="M41293 25796
L41293 25496
" />
<path d="M32424 17833
L32424 17440
" />
<path d="M32837 17796
L32818 17815
L32762 17833
L32724 17833
L32668 17815
L32630 17777
L32612 17740
L32593 17665
L32593 17608
L32612 17533
L32630 17496
L32668 17458
L32724 17440
L32762 17440
L32818 17458
L32837 17477
" />
<path d="M32987 17815
L33043 17833
L33137 17833
L33174 17815
L33193 17796
L33212 17758
L33212 17721
L33193 17683
L33174 17665
L33137 17646
L33062 17627
L33024 17608
L33005 17590
L32987 17552
L32987 17515
L33005 17477
L33024 17458
L33062 17440
L33155 17440
L33212 17458
" />
<path d="M33380 17833
L33380 17440
L33530 17440
L33568 17458
L33587 17477
L33605 17515
L33605 17571
L33587 17608
L33568 17627
L33530 17646
L33380 17646
" />
<path d="M29265 20962
L29344 20962
" />
<path d="M29265 20893
L29265 20962
" />
<path d="M4280 30944
L4280 31262
L4299 31300
L4317 31318
L4355 31337
L4430 31337
L4467 31318
L4486 31300
L4505 31262
L4505 30944
" />
<path d="M4898 31337
L4673 31337
" />
<path d="M4786 31337
L4786 30944
L4748 31000
L4711 31037
L4673 31056
" />
<path d="M5236 30944
L5161 30944
L5123 30962
L5105 30981
L5067 31037
L5048 31112
L5048 31262
L5067 31300
L5086 31318
L5123 31337
L5198 31337
L5236 31318
L5255 31300
L5273 31262
L5273 31169
L5255 31131
L5236 31112
L5198 31094
L5123 31094
L5086 31112
L5067 31131
L5048 31169
" />
<path d="M11593 31032
L11593 31351
L11612 31388
L11630 31407
L11668 31426
L11743 31426
L11780 31407
L11799 31388
L11818 31351
L11818 31032
" />
<path d="M12211 31426
L11986 31426
" />
<path d="M12099 31426
L12099 31032
L12061 31088
L12024 31126
L11986 31145
" />
<path d="M12568 31032
L12380 31032
L12361 31220
L12380 31201
L12418 31182
L12511 31182
L12549 31201
L12568 31220
L12586 31257
L12586 31351
L12568 31388
L12549 31407
L12511 31426
L12418 31426
L12380 31407
L12361 31388
" />
<path d="M4152 36849
L4152 37168
L4171 37205
L4189 37224
L4227 37243
L4302 37243
L4339 37224
L4358 37205
L4377 37168
L4377 36849
" />
<path d="M4770 37243
L4546 37243
" />
<path d="M4658 37243
L4658 36849
L4621 36905
L4583 36943
L4546 36962
" />
<path d="M5108 36980
L5108 37243
" />
<path d="M5014 36830
L4920 37112
L5164 37112
" />
<path d="M11534 36869
L11534 37187
L11552 37225
L11571 37244
L11609 37262
L11684 37262
L11721 37244
L11740 37225
L11759 37187
L11759 36869
" />
<path d="M12152 37262
L11927 37262
" />
<path d="M12040 37262
L12040 36869
L12002 36925
L11965 36962
L11927 36981
" />
<path d="M12284 36869
L12527 36869
L12396 37019
L12452 37019
L12490 37037
L12509 37056
L12527 37094
L12527 37187
L12509 37225
L12490 37244
L12452 37262
L12340 37262
L12302 37244
L12284 37225
" />
<path d="M29044 30953
L29044 31272
L29062 31310
L29081 31328
L29119 31347
L29194 31347
L29231 31328
L29250 31310
L29269 31272
L29269 30953
" />
<path d="M29662 31347
L29437 31347
" />
<path d="M29550 31347
L29550 30953
L29512 31010
L29475 31047
L29437 31066
" />
<path d="M29812 30991
L29831 30972
L29868 30953
L29962 30953
L30000 30972
L30018 30991
L30037 31028
L30037 31066
L30018 31122
L29793 31347
L30037 31347
" />
<path d="M36130 30973
L36130 31292
L36149 31329
L36168 31348
L36205 31367
L36280 31367
L36318 31348
L36336 31329
L36355 31292
L36355 30973
" />
<path d="M36749 31367
L36524 31367
" />
<path d="M36636 31367
L36636 30973
L36599 31029
L36561 31067
L36524 31086
" />
<path d="M37124 31367
L36899 31367
" />
<path d="M37011 31367
L37011 30973
L36974 31029
L36936 31067
L36899 31086
" />
<path d="M28866 36898
L28866 37217
L28885 37254
L28904 37273
L28941 37292
L29016 37292
L29054 37273
L29073 37254
L29091 37217
L29091 36898
" />
<path d="M29485 37292
L29260 37292
" />
<path d="M29373 37292
L29373 36898
L29335 36955
L29298 36992
L29260 37011
" />
<path d="M29729 36898
L29766 36898
L29804 36917
L29823 36936
L29841 36973
L29860 37048
L29860 37142
L29841 37217
L29823 37254
L29804 37273
L29766 37292
L29729 37292
L29691 37273
L29673 37254
L29654 37217
L29635 37142
L29635 37048
L29654 36973
L29673 36936
L29691 36917
L29729 36898
" />
<path d="M35973 36810
L35973 37128
L35992 37166
L36011 37185
L36048 37203
L36123 37203
L36161 37185
L36179 37166
L36198 37128
L36198 36810
" />
<path d="M36404 37203
L36479 37203
L36517 37185
L36536 37166
L36573 37110
L36592 37035
L36592 36885
L36573 36847
L36554 36828
L36517 36810
L36442 36810
L36404 36828
L36386 36847
L36367 36885
L36367 36978
L36386 37016
L36404 37035
L36442 37053
L36517 37053
L36554 37035
L36573 37016
L36592 36978
" />
<path d="M39044 11278
L39044 11597
L39063 11634
L39082 11653
L39119 11672
L39194 11672
L39232 11653
L39250 11634
L39269 11597
L39269 11278
" />
<path d="M39513 11447
L39475 11428
L39456 11409
L39438 11372
L39438 11353
L39456 11316
L39475 11297
L39513 11278
L39588 11278
L39625 11297
L39644 11316
L39663 11353
L39663 11372
L39644 11409
L39625 11428
L39588 11447
L39513 11447
L39475 11466
L39456 11484
L39438 11522
L39438 11597
L39456 11634
L39475 11653
L39513 11672
L39588 11672
L39625 11653
L39644 11634
L39663 11597
L39663 11522
L39644 11484
L39625 11466
L39588 11447
" />
<path d="M31859 11406
L31859 11725
L31878 11762
L31896 11781
L31934 11800
L32009 11800
L32046 11781
L32065 11762
L32084 11725
L32084 11406
" />
<path d="M32234 11406
L32496 11406
L32328 11800
" />
<path d="M38808 5412
L38808 5731
L38827 5768
L38845 5787
L38883 5806
L38958 5806
L38995 5787
L39014 5768
L39033 5731
L39033 5412
" />
<path d="M39389 5412
L39314 5412
L39276 5431
L39258 5450
L39220 5506
L39202 5581
L39202 5731
L39220 5768
L39239 5787
L39276 5806
L39351 5806
L39389 5787
L39408 5768
L39426 5731
L39426 5637
L39408 5600
L39389 5581
L39351 5562
L39276 5562
L39239 5581
L39220 5600
L39202 5637
" />
<path d="M32144 5707
L32144 6026
L32163 6064
L32182 6082
L32219 6101
L32294 6101
L32332 6082
L32351 6064
L32369 6026
L32369 5707
" />
<path d="M32744 5707
L32557 5707
L32538 5895
L32557 5876
L32594 5857
L32688 5857
L32726 5876
L32744 5895
L32763 5932
L32763 6026
L32744 6064
L32726 6082
L32688 6101
L32594 6101
L32557 6082
L32538 6064
" />
<path d="M14251 11327
L14251 11646
L14269 11684
L14288 11702
L14326 11721
L14401 11721
L14438 11702
L14457 11684
L14476 11646
L14476 11327
" />
<path d="M14832 11459
L14832 11721
" />
<path d="M14738 11309
L14644 11590
L14888 11590
" />
<path d="M7390 11416
L7390 11735
L7409 11772
L7428 11791
L7465 11810
L7540 11810
L7578 11791
L7597 11772
L7615 11735
L7615 11416
" />
<path d="M7765 11416
L8009 11416
L7878 11566
L7934 11566
L7972 11585
L7990 11603
L8009 11641
L8009 11735
L7990 11772
L7972 11791
L7934 11810
L7822 11810
L7784 11791
L7765 11772
" />
<path d="M14644 5560
L14644 5878
L14663 5916
L14682 5935
L14719 5953
L14794 5953
L14832 5935
L14851 5916
L14869 5878
L14869 5560
" />
<path d="M15038 5597
L15057 5578
L15094 5560
L15188 5560
L15226 5578
L15244 5597
L15263 5635
L15263 5672
L15244 5728
L15019 5953
L15263 5953
" />
<path d="M7627 5609
L7627 5928
L7645 5965
L7664 5984
L7702 6003
L7777 6003
L7814 5984
L7833 5965
L7852 5928
L7852 5609
" />
<path d="M8245 6003
L8020 6003
" />
<path d="M8133 6003
L8133 5609
L8095 5665
L8058 5703
L8020 5721
" />
</g>
<g style="fill:#008484; fill-opacity:0.0; 
stroke:#008484; stroke-width:118.11; stroke-opacity:1; 
stroke-linecap:round; stroke-linejoin:round;">
<path d="M6384 24809
L6384 24359
" />
<path d="M6127 21644
L6577 21644
" />
<path d="M6352 21869
L6352 21419
" />
<path d="M5888 19642
L5888 19305
" />
<path d="M5888 19473
L6478 19473
L6394 19417
L6338 19361
L6310 19305
" />
<path d="M6422 19867
L6450 19895
L6478 19951
L6478 20092
L6450 20148
L6422 20176
L6366 20204
L6310 20204
L6225 20176
L5888 19839
L5888 20204
" />
<path d="M6478 20373
L5888 20570
L6478 20767
" />
<path d="M21099 35206
L21099 34615
" />
<path d="M21436 35206
L21183 34868
" />
<path d="M21436 34615
L21099 34953
" />
<path d="M21774 35206
L21717 35178
L21689 35121
L21689 34615
" />
<path d="M22083 35206
L22027 35178
L21999 35150
L21971 35093
L21971 34925
L21999 34868
L22027 34840
L22083 34812
L22167 34812
L22224 34840
L22252 34868
L22280 34925
L22280 35093
L22252 35150
L22224 35178
L22167 35206
L22083 35206
" />
<path d="M22533 34812
L22533 35206
" />
<path d="M22533 34868
L22561 34840
L22617 34812
L22702 34812
L22758 34840
L22786 34896
L22786 35206
" />
<path d="M23320 35206
L23320 34615
" />
<path d="M23320 35178
L23264 35206
L23152 35206
L23095 35178
L23067 35150
L23039 35093
L23039 34925
L23067 34868
L23095 34840
L23152 34812
L23264 34812
L23320 34840
" />
<path d="M23602 35206
L23602 34812
" />
<path d="M23602 34615
L23573 34643
L23602 34672
L23630 34643
L23602 34615
L23602 34672
" />
<path d="M23883 35206
L23883 34615
" />
<path d="M23939 34981
L24108 35206
" />
<path d="M24108 34812
L23883 35037
" />
<path d="M24586 35178
L24530 35206
L24417 35206
L24361 35178
L24333 35121
L24333 34896
L24361 34840
L24417 34812
L24530 34812
L24586 34840
L24614 34896
L24614 34953
L24333 35009
" />
<path d="M25626 35206
L25289 35206
" />
<path d="M25458 35206
L25458 34615
L25401 34700
L25345 34756
L25289 34784
" />
<path d="M26133 34615
L26020 34615
L25964 34643
L25936 34672
L25879 34756
L25851 34868
L25851 35093
L25879 35150
L25908 35178
L25964 35206
L26076 35206
L26133 35178
L26161 35150
L26189 35093
L26189 34953
L26161 34896
L26133 34868
L26076 34840
L25964 34840
L25908 34868
L25879 34896
L25851 34953
" />
<path d="M21043 35757
L21183 36151
L21324 35757
" />
<path d="M21549 36094
L21577 36123
L21549 36151
L21521 36123
L21549 36094
L21549 36151
" />
<path d="M21942 35560
L21999 35560
L22055 35588
L22083 35616
L22111 35673
L22139 35785
L22139 35926
L22111 36038
L22083 36094
L22055 36123
L21999 36151
L21942 36151
L21886 36123
L21858 36094
L21830 36038
L21802 35926
L21802 35785
L21830 35673
L21858 35616
L21886 35588
L21942 35560
" />
<path d="M22392 36094
L22420 36123
L22392 36151
L22364 36123
L22392 36094
L22392 36151
" />
<path d="M22983 36151
L22645 36151
" />
<path d="M22814 36151
L22814 35560
L22758 35645
L22702 35701
L22645 35729
" />
</g>
<g style="fill:#C1C100; fill-opacity:0.0; 
stroke:#C1C100; stroke-width:0; stroke-opacity:1; 
stroke-linecap:round; stroke-linejoin:round;">
<path d="M2533 41061
L41903 41061
" />
<path d="M41903 41061
L41903 1691
" />
<path d="M41903 1691
L2533 1691
" />
<path d="M2533 1691
L2533 41061
" />
</g>
<g style="fill:#008484; fill-opacity:0.0; 
stroke:#008484; stroke-width:59.0551; stroke-opacity:1; 
stroke-linecap:round; stroke-linejoin:round;">
<path d="M33315 21190
L33708 21781
" />
<path d="M33708 21190
L33315 21781
" />
<path d="M34243 21781
L33905 21781
" />
<path d="M34074 21781
L34074 21190
L34018 21274
L33962 21331
L33905 21359
" />
</g>
<g style="fill:#008484; fill-opacity:0.0; 
stroke:#008484; stroke-width:40; stroke-opacity:1; 
stroke-linecap:round; stroke-linejoin:round;">
<path d="M30914 19841
L30914 20160
L30932 20197
L30951 20216
L30989 20235
L31064 20235
L31101 20216
L31120 20197
L31139 20160
L31139 19841
" />
<path d="M31307 19879
L31326 19860
L31364 19841
L31457 19841
L31495 19860
L31514 19879
L31532 19916
L31532 19954
L31514 20010
L31289 20235
L31532 20235
" />
<path d="M31907 20235
L31682 20235
" />
<path d="M31795 20235
L31795 19841
L31757 19897
L31720 19935
L31682 19954
" />
</g>
<g style="fill:#008484; fill-opacity:0.0; 
stroke:#008484; stroke-width:79; stroke-opacity:1; 
stroke-linecap:round; stroke-linejoin:round;">
<path d="M20550 38188
L20550 38507
L20568 38544
L20587 38563
L20625 38582
L20700 38582
L20737 38563
L20756 38544
L20775 38507
L20775 38188
" />
<path d="M20944 38225
L20962 38207
L21000 38188
L21094 38188
L21131 38207
L21150 38225
L21169 38263
L21169 38301
L21150 38357
L20925 38582
L21169 38582
" />
<path d="M21319 38225
L21338 38207
L21375 38188
L21469 38188
L21506 38207
L21525 38225
L21544 38263
L21544 38301
L21525 38357
L21300 38582
L21544 38582
" />
</g>
<g style="fill:#008484; fill-opacity:0.0; 
stroke:#008484; stroke-width:28; stroke-opacity:1; 
stroke-linecap:round; stroke-linejoin:round;">
<path d="M32999 15257
L32959 15191
" />
<path d="M32930 15257
L32930 15119
L32976 15119
L32987 15126
L32993 15132
L32999 15145
L32999 15165
L32993 15178
L32987 15185
L32976 15191
L32930 15191
" />
<path d="M33033 15119
L33102 15119
" />
<path d="M33067 15257
L33067 15119
" />
<path d="M33204 15257
L33136 15257
" />
<path d="M33170 15257
L33170 15119
L33159 15139
L33147 15152
L33136 15158
" />
</g>
<g style="fill:#008484; fill-opacity:0.0; 
stroke:#008484; stroke-width:79; stroke-opacity:1; 
stroke-linecap:round; stroke-linejoin:round;">
<path d="M22434 4175
L22434 4494
L22453 4532
L22472 4550
L22509 4569
L22585 4569
L22622 4550
L22641 4532
L22660 4494
L22660 4175
" />
<path d="M22828 4213
L22847 4194
L22885 4175
L22979 4175
L23016 4194
L23035 4213
L23054 4250
L23054 4288
L23035 4344
L22810 4569
L23054 4569
" />
<path d="M23185 4175
L23429 4175
L23297 4325
L23354 4325
L23391 4344
L23410 4363
L23429 4400
L23429 4494
L23410 4532
L23391 4550
L23354 4569
L23241 4569
L23204 4550
L23185 4532
" />
</g>
<g style="fill:#008484; fill-opacity:0.0; 
stroke:#008484; stroke-width:50; stroke-opacity:1; 
stroke-linecap:round; stroke-linejoin:round;">
<path d="M33405 23889
L33405 24132
L33416 24160
L33428 24175
L33452 24189
L33500 24189
L33524 24175
L33535 24160
L33547 24132
L33547 23889
" />
<path d="M33655 23917
L33666 23903
L33690 23889
L33750 23889
L33774 23903
L33785 23917
L33797 23946
L33797 23975
L33785 24017
L33643 24189
L33797 24189
" />
<path d="M34012 23989
L34012 24189
" />
<path d="M33952 23875
L33893 24089
L34047 24089
" />
</g>
<g style="fill:#008484; fill-opacity:0.0; 
stroke:#008484; stroke-width:80; stroke-opacity:1; 
stroke-linecap:round; stroke-linejoin:round;">
<path d="M40795 10576
L40795 10862
L40776 10919
L40738 10957
L40681 10976
L40643 10976
" />
<path d="M40948 10576
L41195 10576
L41062 10728
L41119 10728
L41157 10747
L41176 10766
L41195 10804
L41195 10900
L41176 10938
L41157 10957
L41119 10976
L41005 10976
L40967 10957
L40948 10938
" />
<path d="M40815 31698
L40815 31984
L40796 32041
L40758 32079
L40701 32098
L40663 32098
" />
<path d="M41196 31698
L41005 31698
L40986 31888
L41005 31869
L41044 31850
L41139 31850
L41177 31869
L41196 31888
L41215 31927
L41215 32022
L41196 32060
L41177 32079
L41139 32098
L41044 32098
L41005 32079
L40986 32060
" />
</g>
<g style="fill:#008400; fill-opacity:0.0; 
stroke:#008400; stroke-width:19.685; stroke-opacity:1; 
stroke-linecap:round; stroke-linejoin:round;">
<path d="M6064 7410
L6064 7569
L6073 7588
L6083 7597
L6102 7606
L6139 7606
L6158 7597
L6167 7588
L6177 7569
L6177 7410
" />
<path d="M6373 7606
L6261 7606
" />
<path d="M6317 7606
L6317 7410
L6298 7438
L6280 7456
L6261 7466
" />
<path d="M6103 13394
L6103 13553
L6113 13572
L6122 13581
L6141 13591
L6178 13591
L6197 13581
L6207 13572
L6216 13553
L6216 13394
" />
<path d="M6291 13394
L6413 13394
L6347 13469
L6375 13469
L6394 13478
L6403 13488
L6413 13506
L6413 13553
L6403 13572
L6394 13581
L6375 13591
L6319 13591
L6300 13581
L6291 13572
" />
<path d="M13190 13325
L13190 13484
L13199 13503
L13209 13512
L13228 13522
L13265 13522
L13284 13512
L13293 13503
L13303 13484
L13303 13325
" />
<path d="M13481 13391
L13481 13522
" />
<path d="M13434 13316
L13387 13456
L13509 13456
" />
<path d="M13348 7498
L13348 7658
L13357 7676
L13366 7686
L13385 7695
L13423 7695
L13441 7686
L13451 7676
L13460 7658
L13460 7498
" />
<path d="M13544 7517
L13554 7508
L13573 7498
L13619 7498
L13638 7508
L13648 7517
L13657 7536
L13657 7554
L13648 7583
L13535 7695
L13657 7695
" />
<path d="M6059 29299
L6059 29459
L6068 29477
L6078 29487
L6096 29496
L6134 29496
L6153 29487
L6162 29477
L6171 29459
L6171 29299
" />
<path d="M6368 29496
L6256 29496
" />
<path d="M6312 29496
L6312 29299
L6293 29327
L6275 29346
L6256 29356
" />
<path d="M6537 29299
L6500 29299
L6481 29309
L6471 29318
L6453 29346
L6443 29384
L6443 29459
L6453 29477
L6462 29487
L6481 29496
L6518 29496
L6537 29487
L6546 29477
L6556 29459
L6556 29412
L6546 29393
L6537 29384
L6518 29374
L6481 29374
L6462 29384
L6453 29393
L6443 29412
" />
<path d="M5951 35146
L5951 35305
L5960 35324
L5969 35333
L5988 35343
L6026 35343
L6044 35333
L6054 35324
L6063 35305
L6063 35146
" />
<path d="M6260 35343
L6148 35343
" />
<path d="M6204 35343
L6204 35146
L6185 35174
L6166 35193
L6148 35202
" />
<path d="M6429 35211
L6429 35343
" />
<path d="M6382 35136
L6335 35277
L6457 35277
" />
<path d="M13273 35126
L13273 35286
L13283 35304
L13292 35314
L13311 35323
L13348 35323
L13367 35314
L13377 35304
L13386 35286
L13386 35126
" />
<path d="M13583 35323
L13470 35323
" />
<path d="M13527 35323
L13527 35126
L13508 35154
L13489 35173
L13470 35182
" />
<path d="M13648 35126
L13770 35126
L13705 35201
L13733 35201
L13752 35211
L13761 35220
L13770 35239
L13770 35286
L13761 35304
L13752 35314
L13733 35323
L13677 35323
L13658 35314
L13648 35304
" />
<path d="M13273 29358
L13273 29518
L13283 29537
L13292 29546
L13311 29555
L13348 29555
L13367 29546
L13377 29537
L13386 29518
L13386 29358
" />
<path d="M13583 29555
L13470 29555
" />
<path d="M13527 29555
L13527 29358
L13508 29387
L13489 29405
L13470 29415
" />
<path d="M13761 29358
L13667 29358
L13658 29452
L13667 29443
L13686 29433
L13733 29433
L13752 29443
L13761 29452
L13770 29471
L13770 29518
L13761 29537
L13752 29546
L13733 29555
L13686 29555
L13667 29546
L13658 29537
" />
<path d="M30567 29103
L30567 29262
L30576 29281
L30586 29290
L30604 29299
L30642 29299
L30661 29290
L30670 29281
L30679 29262
L30679 29103
" />
<path d="M30876 29299
L30764 29299
" />
<path d="M30820 29299
L30820 29103
L30801 29131
L30782 29149
L30764 29159
" />
<path d="M30951 29121
L30961 29112
L30979 29103
L31026 29103
L31045 29112
L31054 29121
L31064 29140
L31064 29159
L31054 29187
L30942 29299
L31064 29299
" />
<path d="M30350 35057
L30350 35217
L30360 35235
L30369 35245
L30388 35254
L30425 35254
L30444 35245
L30453 35235
L30463 35217
L30463 35057
" />
<path d="M30660 35254
L30547 35254
" />
<path d="M30603 35254
L30603 35057
L30585 35085
L30566 35104
L30547 35113
" />
<path d="M30781 35057
L30800 35057
L30819 35067
L30828 35076
L30838 35095
L30847 35132
L30847 35179
L30838 35217
L30828 35235
L30819 35245
L30800 35254
L30781 35254
L30763 35245
L30753 35235
L30744 35217
L30735 35179
L30735 35132
L30744 35095
L30753 35076
L30763 35067
L30781 35057
" />
<path d="M37698 35126
L37698 35286
L37707 35304
L37717 35314
L37735 35323
L37773 35323
L37792 35314
L37801 35304
L37810 35286
L37810 35126
" />
<path d="M37914 35323
L37951 35323
L37970 35314
L37979 35304
L37998 35276
L38007 35239
L38007 35164
L37998 35145
L37989 35136
L37970 35126
L37932 35126
L37914 35136
L37904 35145
L37895 35164
L37895 35211
L37904 35229
L37914 35239
L37932 35248
L37970 35248
L37989 35239
L37998 35229
L38007 35211
" />
<path d="M37535 29142
L37535 29301
L37545 29320
L37554 29329
L37573 29339
L37610 29339
L37629 29329
L37638 29320
L37648 29301
L37648 29142
" />
<path d="M37845 29339
L37732 29339
" />
<path d="M37788 29339
L37788 29142
L37770 29170
L37751 29189
L37732 29198
" />
<path d="M38032 29339
L37920 29339
" />
<path d="M37976 29339
L37976 29142
L37957 29170
L37938 29189
L37920 29198
" />
<path d="M37718 13345
L37718 13504
L37727 13523
L37736 13532
L37755 13541
L37793 13541
L37811 13532
L37821 13523
L37830 13504
L37830 13345
" />
<path d="M37952 13429
L37933 13420
L37924 13410
L37914 13392
L37914 13382
L37924 13363
L37933 13354
L37952 13345
L37989 13345
L38008 13354
L38018 13363
L38027 13382
L38027 13392
L38018 13410
L38008 13420
L37989 13429
L37952 13429
L37933 13438
L37924 13448
L37914 13467
L37914 13504
L37924 13523
L37933 13532
L37952 13541
L37989 13541
L38008 13532
L38018 13523
L38027 13504
L38027 13467
L38018 13448
L38008 13438
L37989 13429
" />
<path d="M37659 7360
L37659 7520
L37668 7538
L37677 7548
L37696 7557
L37734 7557
L37752 7548
L37762 7538
L37771 7520
L37771 7360
" />
<path d="M37949 7360
L37912 7360
L37893 7370
L37884 7379
L37865 7407
L37855 7445
L37855 7520
L37865 7538
L37874 7548
L37893 7557
L37930 7557
L37949 7548
L37959 7538
L37968 7520
L37968 7473
L37959 7454
L37949 7445
L37930 7435
L37893 7435
L37874 7445
L37865 7454
L37855 7473
" />
<path d="M30572 7449
L30572 7608
L30581 7627
L30591 7636
L30609 7646
L30647 7646
L30666 7636
L30675 7627
L30684 7608
L30684 7449
" />
<path d="M30872 7449
L30778 7449
L30769 7543
L30778 7533
L30797 7524
L30844 7524
L30863 7533
L30872 7543
L30881 7561
L30881 7608
L30872 7627
L30863 7636
L30844 7646
L30797 7646
L30778 7636
L30769 7627
" />
<path d="M30483 13325
L30483 13484
L30493 13503
L30502 13512
L30521 13522
L30558 13522
L30577 13512
L30586 13503
L30596 13484
L30596 13325
" />
<path d="M30671 13325
L30802 13325
L30718 13522
" />
</g>
<g style="fill:#008484; fill-opacity:0.0; 
stroke:#008484; stroke-width:80; stroke-opacity:1; 
stroke-linecap:round; stroke-linejoin:round;">
<path d="M1494 33801
L1551 33820
L1646 33820
L1685 33801
L1704 33782
L1723 33744
L1723 33706
L1704 33668
L1685 33649
L1646 33630
L1570 33611
L1532 33592
L1513 33573
L1494 33535
L1494 33497
L1513 33459
L1532 33439
L1570 33420
L1665 33420
L1723 33439
" />
<path d="M1894 33820
L1894 33420
L2027 33706
L2161 33420
L2161 33820
" />
<path d="M2351 33820
L2351 33420
L2446 33420
L2504 33439
L2542 33478
L2561 33516
L2580 33592
L2580 33649
L2561 33725
L2542 33763
L2504 33801
L2446 33820
L2351 33820
" />
<path d="M2656 33859
L2961 33859
" />
<path d="M3056 33820
L3056 33420
L3208 33420
L3246 33439
L3265 33459
L3285 33497
L3285 33554
L3265 33592
L3246 33611
L3208 33630
L3056 33630
" />
<path d="M3456 33820
L3456 33420
" />
<path d="M3646 33820
L3646 33420
L3875 33820
L3875 33420
" />
<path d="M3970 33859
L4275 33859
" />
<path d="M4351 33459
L4370 33439
L4408 33420
L4504 33420
L4542 33439
L4561 33459
L4580 33497
L4580 33535
L4561 33592
L4332 33820
L4580 33820
" />
<path d="M4713 33820
L4923 33554
" />
<path d="M4713 33554
L4923 33820
" />
<path d="M5056 33459
L5075 33439
L5113 33420
L5208 33420
L5246 33439
L5265 33459
L5285 33497
L5285 33535
L5265 33592
L5037 33820
L5285 33820
" />
</g>
<g style="fill:#008484; fill-opacity:0.0; 
stroke:#008484; stroke-width:59.0551; stroke-opacity:1; 
stroke-linecap:round; stroke-linejoin:round;">
<path d="M32179 21887
L33163 21887
" />
<path d="M33163 21887
L33163 21100
" />
<path d="M33163 21100
L32179 21100
" />
<path d="M32179 21100
L32179 21887
" />
</g>
<g style="fill:#008484; fill-opacity:0.0; 
stroke:#008484; stroke-width:150; stroke-opacity:1; 
stroke-linecap:round; stroke-linejoin:round;">
<circle cx="9816.93" cy="10549.4" r="900" /> 
<circle cx="4501.97" cy="3659.64" r="900" /> 
</g>
<g style="fill:#008484; fill-opacity:0.0; 
stroke:#008484; stroke-width:40; stroke-opacity:1; 
stroke-linecap:round; stroke-linejoin:round;">
<path d="M12223 19597
L15607 19597
" />
<path d="M15922 23611
L11908 23611
" />
<path d="M13583.8 23523.9 A1947.85 1947.85 0.0 0 0 14880.4 19912.6 " />
<path d="M13571 23611
L11908 23611
" />
<path d="M11908 23611
L11908 19912
" />
<path d="M11908 19912
L12223 19597
" />
<path d="M15607 19597
L15922 19912
" />
<path d="M15922 19912
L15922 23611
" />
<path d="M15922 23611
L14249 23611
" />
<path d="M14250.2 19685.7 A1947.85 1947.85 0.0 0 0 12950.3 23296.5 " />
<path d="M15027 23198
L12813 23198
" />
<circle cx="13915.4" cy="21604.5" r="1948" /> 
</g>
<g style="fill:#008484; fill-opacity:0.0; 
stroke:#008484; stroke-width:80; stroke-opacity:1; 
stroke-linecap:round; stroke-linejoin:round;">
<path d="M19773 33635
L19773 29579
" />
<path d="M19754 29598
L23810 29598
" />
<path d="M23866 29576
L23866 33684
" />
<path d="M23820 33652
L19790 33652
" />
<circle cx="22193.9" cy="31625.6" r="1299" /> 
<path d="M24862 9150
L24862 13206
" />
<path d="M24881 13187
L20825 13187
" />
<path d="M20769 13209
L20769 9101
" />
<path d="M20815 9133
L24845 9133
" />
<circle cx="22442.9" cy="11160.6" r="1299" /> 
</g>
<g style="fill:#008484; fill-opacity:0.0; 
stroke:#008484; stroke-width:100; stroke-opacity:1; 
stroke-linecap:round; stroke-linejoin:round;">
<path d="M10603 18974
L10603 24328
" />
<path d="M10603 24328
L7966 24328
" />
<path d="M7533 24328
L6903 24328
" />
<path d="M6903 24328
L6903 18974
" />
<path d="M6903 18974
L10603 18974
" />
<path d="M7966.68 24328.8 A216 216 0.0 0 0 7534.68 24328.8 " />
</g>
<g style="fill:#008484; fill-opacity:0.0; 
stroke:#008484; stroke-width:50; stroke-opacity:1; 
stroke-linecap:round; stroke-linejoin:round;">
<path d="M38242 22891
L41863 22891
" />
<path d="M41863 22891
L41863 19861
" />
<path d="M41863 19861
L38242 19861
" />
<path d="M38242 19861
L38242 22891
" />
</g>
<g style="fill:#008484; fill-opacity:0.0; 
stroke:#008484; stroke-width:60; stroke-opacity:1; 
stroke-linecap:round; stroke-linejoin:round;">
<path d="M37068 24692
L37068 23552
" />
<path d="M37068 23552
L37368 23552
" />
<path d="M37368 23552
L37368 24692
" />
<path d="M37368 24692
L37068 24692
" />
</g>
<g style="fill:#008484; fill-opacity:0.0; 
stroke:#008484; stroke-width:150; stroke-opacity:1; 
stroke-linecap:round; stroke-linejoin:round;">
<circle cx="39935" cy="3659.64" r="900" /> 
<circle cx="39935" cy="39092.7" r="900" /> 
<circle cx="4501.97" cy="39092.7" r="900" /> 
</g>
<g style="fill:#008484; fill-opacity:0.0; 
stroke:#008484; stroke-width:50; stroke-opacity:1; 
stroke-linecap:round; stroke-linejoin:round;">
<path d="M32552 20291
L32292 20551
" />
<path d="M32552 20351
L32357 20551
" />
<path d="M32042 19861
L31935 19861
" />
<path d="M32042 20371
L31935 20371
" />
<path d="M32552 20116
L32659 20116
" />
<path d="M32552 19861
L32659 19861
" />
<path d="M32552 20371
L32659 20371
" />
<path d="M32042 20116
L31935 20116
" />
<path d="M32042 20551
L32042 19681
" />
<path d="M32042 19681
L32552 19681
" />
<path d="M32552 19681
L32552 20551
" />
<path d="M32552 20551
L32042 20551
" />
</g>
<g style="fill:#008484; fill-opacity:0.0; 
stroke:#008484; stroke-width:150; stroke-opacity:1; 
stroke-linecap:round; stroke-linejoin:round;">
<circle cx="34226.4" cy="10549.4" r="900" /> 
<circle cx="9816.93" cy="32202.9" r="900" /> 
<circle cx="34226.4" cy="32202.9" r="900" /> 
</g>
<g style="fill:#008484; fill-opacity:0.0; 
stroke:#008484; stroke-width:80; stroke-opacity:1; 
stroke-linecap:round; stroke-linejoin:round;">
<path d="M34910 22423
L37902 22423
" />
<path d="M37902 22423
L37902 20377
" />
<path d="M37902 20377
L34910 20377
" />
</g>
<g style="fill:#008484; fill-opacity:0.0; 
stroke:#008484; stroke-width:50; stroke-opacity:1; 
stroke-linecap:round; stroke-linejoin:round;">
<path d="M34871 22423
L35255 22423
" />
<path d="M35255 22423
L35255 20377
" />
<path d="M35255 20377
L34871 20377
" />
<path d="M34871 20377
L34871 22423
" />
<path d="M37230 18080
L37230 19080
" />
<path d="M37230 19080
L32226 19080
" />
<path d="M32226 19071
L32226 18071
" />
<path d="M32226 18080
L37230 18080
" />
</g>
<g style="fill:#008484; fill-opacity:0.0; 
stroke:#008484; stroke-width:59.0551; stroke-opacity:1; 
stroke-linecap:round; stroke-linejoin:round;">
<path d="M39019 26563
L40889 26563
" />
<path d="M40889 26563
L40879 26750
" />
<path d="M40879 26750
L39009 26750
" />
<path d="M39009 26750
L39009 26573
" />
<path d="M39009 25559
L40889 25559
" />
<path d="M40879 25559
L40879 25746
" />
<path d="M40879 25746
L39009 25746
" />
<path d="M39009 25746
L39009 25559
" />
<path d="M38990 24742
L38990 24565
" />
<path d="M38990 24565
L39000 24574
" />
<path d="M38990 24565
L40889 24565
" />
<path d="M40889 24565
L40889 24732
" />
<path d="M40889 24732
L38990 24732
" />
<path d="M40879 24151
L40879 27143
" />
<path d="M40879 27143
L41864 27143
" />
<path d="M41864 27143
L41864 24151
" />
<path d="M41864 24151
L40879 24151
" />
<path d="M4541 22045
L6116 22045
" />
<path d="M6116 22045
L6116 24210
" />
<path d="M6116 24210
L4541 24210
" />
<path d="M2572 24210
L2572 22045
" />
<path d="M2572 22045
L4541 22045
" />
<path d="M4541 22045
L4541 24210
" />
<path d="M4541 24210
L2572 24210
" />
</g>
<g style="fill:#008484; fill-opacity:0.0; 
stroke:#008484; stroke-width:50; stroke-opacity:1; 
stroke-linecap:round; stroke-linejoin:round;">
<path d="M22179 39134
L22179 38934
" />
<path d="M22179 38934
L21709 38934
" />
<path d="M22179 39134
L21709 39134
" />
<path d="M22179 39724
L21709 39724
" />
<path d="M22179 39524
L21709 39524
" />
<path d="M22179 39724
L22179 39524
" />
<path d="M22179 40314
L22179 40114
" />
<path d="M22179 40114
L21709 40114
" />
<path d="M22179 40314
L21709 40314
" />
<path d="M20484 39979
L20484 39269
" />
<path d="M20484 39269
L20679 39269
" />
<path d="M20484 39979
L20679 39979
" />
<path d="M21709 40529
L20679 40529
" />
<path d="M20679 40529
L20679 38719
" />
<path d="M20679 38719
L21709 38719
" />
<path d="M21709 38719
L21709 40529
" />
</g>
<g style="fill:#008484; fill-opacity:0.0; 
stroke:#008484; stroke-width:28; stroke-opacity:1; 
stroke-linecap:round; stroke-linejoin:round;">
<path d="M32964 15045
L32764 15045
" />
<path d="M32764 15045
L32764 15345
" />
<path d="M32764 15345
L32964 15345
" />
<path d="M33164 15045
L33364 15045
" />
<path d="M33364 15045
L33364 15345
" />
<path d="M33364 15345
L33164 15345
" />
</g>
<g style="fill:#008484; fill-opacity:0.0; 
stroke:#008484; stroke-width:40; stroke-opacity:1; 
stroke-linecap:round; stroke-linejoin:round;">
<path d="M17804.3 23523.9 A1947.85 1947.85 0.0 0 0 19100.9 19912.6 " />
<path d="M17791 23611
L16128 23611
" />
<path d="M16128 23611
L16128 19912
" />
<path d="M16128 19912
L16443 19597
" />
<path d="M19827 19597
L20142 19912
" />
<path d="M20142 19912
L20142 23611
" />
<path d="M20142 23611
L18469 23611
" />
<path d="M18470.7 19685.7 A1947.85 1947.85 0.0 0 0 17170.7 23296.5 " />
</g>
<g style="fill:#008484; fill-opacity:0.0; 
stroke:#008484; stroke-width:50; stroke-opacity:1; 
stroke-linecap:round; stroke-linejoin:round;">
<path d="M21780 3661
L21780 3861
" />
<path d="M21780 3861
L22250 3861
" />
<path d="M21780 3661
L22250 3661
" />
<path d="M21780 3071
L22250 3071
" />
<path d="M21780 3271
L22250 3271
" />
<path d="M21780 3071
L21780 3271
" />
<path d="M21780 2481
L21780 2681
" />
<path d="M21780 2681
L22250 2681
" />
<path d="M21780 2481
L22250 2481
" />
<path d="M23475 2816
L23475 3526
" />
<path d="M23475 3526
L23280 3526
" />
<path d="M23475 2816
L23280 2816
" />
<path d="M22250 2266
L23280 2266
" />
<path d="M23280 2266
L23280 4076
" />
<path d="M23280 4076
L22250 4076
" />
<path d="M22250 4076
L22250 2266
" />
</g>
<g style="fill:#008484; fill-opacity:1.0; 
stroke:#008484; stroke-width:1; stroke-opacity:1; 
stroke-linecap:round; stroke-linejoin:round;">
<polyline style="fill-rule:evenodd;"
points="20642,34981
20641,34998
20639,35021
20635,35050
20631,35083
20626,35117
20621,35148
20621,35008
20620,34993
20617,34989
20612,34997
20605,35015
20596,35045
20590,35067
20575,35120
20575,35038
20572,35035
20568,35041
20561,35056
20553,35080
20552,35085
20507,35224
20458,35355
20404,35474
20346,35584
20332,35607
20306,35648
20285,35681
20267,35705
20253,35720
20244,35725
20244,35725
20237,35726
20238,35731
20246,35741
20251,35745
20261,35758
20264,35771
20262,35782
20254,35812
20240,35840
20240,35775
20239,35766
20233,35761
20218,35750
20196,35734
20165,35713
20128,35690
20085,35662
20047,35639
19979,35596
19918,35558
19863,35524
19811,35492
19761,35460
19710,35428
19655,35394
19596,35355
19546,35324
19510,35300
19477,35279
19448,35261
19424,35246
19408,35235
19399,35230
19398,35229
19391,35232
19379,35239
19362,35252
19343,35266
19325,35281
19309,35295
19298,35306
19295,35312
19295,35313
19299,35317
19312,35327
19332,35343
19358,35363
19388,35385
19421,35410
19428,35416
19486,35459
19547,35505
19608,35552
19670,35600
19732,35648
19793,35695
19850,35740
19904,35782
19954,35822
19998,35857
20035,35887
20065,35912
20081,35926
20096,35938
20109,35943
20121,35941
20132,35936
20152,35922
20173,35901
20193,35876
20212,35849
20226,35821
20236,35796
20240,35775
20240,35840
20238,35845
20217,35880
20194,35911
20182,35924
20157,35947
20137,35961
20118,35966
20100,35963
20096,35962
20085,35959
20082,35961
20083,35965
20082,35974
20074,35991
20060,36015
20053,36026
19993,36115
19923,36207
19846,36298
19764,36388
19677,36473
19644,36504
19627,36520
19619,36529
19618,36530
19626,36525
19642,36513
19665,36494
19695,36470
19701,36464
19798,36378
19892,36282
19981,36178
20063,36067
20086,36034
20100,36015
20112,36000
20122,35991
20124,35990
20137,35986
20156,35974
20177,35958
20198,35937
20214,35919
20242,35881
20263,35841
20278,35802
20285,35765
20285,35763
20286,35747
20289,35734
20294,35720
20303,35703
20316,35679
20325,35665
20371,35584
20416,35494
20459,35399
20498,35299
20533,35200
20561,35102
20568,35075
20573,35052
20575,35038
20575,35120
20574,35124
20555,35184
20536,35245
20517,35302
20498,35353
20492,35370
20475,35410
20454,35457
20429,35508
20404,35560
20379,35609
20355,35653
20347,35667
20331,35695
20321,35714
20316,35727
20315,35734
20317,35737
20326,35743
20341,35753
20351,35759
20366,35769
20377,35775
20381,35777
20385,35772
20393,35759
20403,35740
20412,35721
20471,35585
20521,35447
20563,35306
20596,35166
20607,35108
20612,35077
20616,35048
20619,35026
20621,35011
20621,35008
20621,35148
20621,35150
20615,35181
20612,35200
20587,35305
20554,35416
20514,35530
20466,35647
20434,35719
20401,35790
20417,35803
20428,35814
20433,35826
20433,35841
20434,35859
20440,35871
20449,35881
20461,35894
20465,35904
20463,35920
20453,35954
20440,35979
20440,35906
20439,35905
20433,35892
20425,35889
20416,35897
20414,35901
20414,35840
20409,35831
20395,35818
20370,35800
20365,35797
20344,35784
20327,35773
20315,35767
20312,35766
20307,35771
20304,35784
20303,35790
20294,35822
20277,35857
20255,35894
20230,35930
20202,35962
20174,35986
20174,35987
20160,35997
20152,36005
20150,36007
20155,36012
20166,36022
20182,36035
20199,36048
20216,36061
20230,36071
20238,36075
20239,36076
20247,36073
20261,36064
20273,36054
20292,36036
20313,36012
20335,35984
20357,35953
20376,35922
20394,35893
20406,35867
20413,35847
20414,35840
20414,35901
20405,35916
20403,35920
20391,35942
20373,35968
20354,35996
20333,36023
20315,36045
20303,36058
20293,36069
20292,36077
20294,36080
20305,36086
20319,36085
20334,36079
20351,36066
20369,36047
20388,36023
20406,35996
20421,35969
20433,35943
20439,35921
20440,35906
20440,35979
20433,35992
20405,36031
20379,36060
20354,36084
20333,36100
20316,36108
20300,36108
20285,36102
20283,36100
20270,36093
20258,36093
20255,36095
20237,36098
20227,36094
20219,36092
20213,36093
20204,36100
20196,36107
20196,36071
20161,36044
20144,36032
20130,36024
20122,36022
20122,36022
20116,36029
20106,36043
20095,36059
20016,36163
19926,36268
19826,36373
19714,36477
19632,36549
19607,36571
19641,36549
19660,36537
19686,36521
19713,36503
19733,36490
19807,36437
19883,36378
19959,36314
20031,36248
20098,36182
20157,36117
20173,36099
20196,36071
20196,36107
20190,36113
20183,36121
20154,36153
20118,36189
20079,36228
20039,36267
19999,36304
19963,36337
19932,36365
19926,36370
19814,36458
19701,36534
19587,36600
19522,36633
19488,36649
19463,36660
19447,36667
19439,36670
19438,36668
19443,36663
19453,36654
19454,36653
19559,36561
19654,36473
19740,36386
19819,36300
19893,36213
19943,36148
19982,36095
20014,36050
20037,36013
20054,35985
20062,35965
20064,35957
20064,35953
20063,35949
20061,35944
20057,35938
20050,35931
20039,35921
20024,35907
20004,35890
19977,35868
19944,35841
19903,35807
19872,35782
19843,35758
19809,35730
19770,35700
19728,35666
19683,35631
19636,35595
19589,35558
19542,35522
19496,35487
19452,35453
19411,35423
19374,35395
19341,35370
19315,35350
19294,35336
19281,35326
19276,35324
19271,35327
19259,35338
19240,35354
19214,35374
19184,35399
19151,35427
19116,35456
19072,35493
19037,35523
19009,35547
18988,35567
18972,35582
18962,35593
18956,35601
18955,35605
18952,35611
18945,35620
18933,35633
18931,35635
18931,35601
18928,35585
18918,35566
18903,35547
18886,35530
18869,35517
18854,35513
18853,35513
18847,35516
18832,35527
18811,35543
18784,35564
18753,35589
18719,35617
18681,35648
18643,35681
18604,35713
18565,35746
18528,35777
18495,35807
18464,35834
18459,35839
18365,35930
18277,36026
18257,36050
18237,36074
18223,36089
18217,36095
18217,36092
18224,36081
18238,36060
18259,36030
18272,36012
18300,35974
18327,35939
18356,35906
18388,35873
18427,35835
18439,35824
18472,35794
18439,35750
18424,35729
18410,35710
18400,35696
18397,35692
18394,35688
18391,35687
18386,35688
18378,35692
18366,35700
18350,35713
18326,35732
18296,35757
18283,35769
18204,35837
18136,35901
18077,35960
18028,36016
17988,36068
17957,36118
17947,36136
17932,36171
17922,36199
17916,36227
17915,36257
17915,36259
17918,36296
17929,36327
17949,36355
17954,36360
17989,36388
18033,36409
18083,36421
18139,36425
18201,36421
18214,36419
18277,36404
18346,36382
18417,36352
18490,36316
18562,36274
18585,36259
18605,36245
18630,36228
18658,36208
18689,36185
18720,36162
18750,36140
18779,36118
18804,36099
18824,36083
18839,36071
18845,36065
18845,36064
18840,36061
18827,36054
18808,36044
18790,36036
18759,36020
18724,36002
18692,35983
18682,35978
18658,35963
18641,35954
18631,35950
18623,35951
18621,35952
18614,35957
18599,35969
18579,35984
18555,36003
18542,36013
18503,36042
18472,36066
18448,36084
18431,36096
18423,36102
18423,36101
18429,36095
18442,36083
18461,36066
18485,36045
18512,36021
18524,36010
18555,35981
18579,35959
18596,35942
18609,35929
18617,35919
18622,35909
18625,35900
18625,35899
18632,35880
18641,35862
18643,35859
18650,35851
18665,35837
18686,35819
18713,35795
18744,35769
18777,35740
18792,35728
18837,35690
18874,35658
18901,35633
18920,35615
18929,35604
18931,35601
18931,35635
18916,35650
18892,35671
18860,35699
18821,35732
18814,35738
18780,35767
18747,35796
18719,35821
18695,35843
18676,35860
18666,35872
18663,35874
18655,35891
18651,35907
18650,35910
18653,35921
18661,35932
18675,35945
18697,35959
18727,35977
18766,35998
18795,36012
18886,36057
18753,36163
18703,36203
18659,36238
18621,36266
18588,36290
18558,36310
18530,36328
18502,36343
18473,36359
18466,36362
18384,36398
18305,36424
18228,36440
18149,36447
18133,36447
18099,36446
18072,36445
18051,36442
18030,36437
18020,36434
17975,36415
17939,36389
17913,36356
17895,36316
17890,36295
17887,36249
17895,36199
17914,36146
17942,36091
17981,36033
18029,35973
18058,35942
18074,35926
18090,35910
18108,35893
18128,35874
18153,35852
18181,35827
18215,35798
18255,35764
18301,35725
18356,35678
18366,35670
18396,35645
18417,35679
18430,35699
18445,35720
18460,35740
18475,35758
18486,35771
18493,35777
18494,35777
18499,35774
18512,35763
18532,35747
18557,35726
18588,35701
18622,35672
18659,35641
18667,35633
18714,35595
18752,35563
18783,35537
18807,35518
18825,35504
18839,35495
18848,35491
18853,35490
18859,35488
18870,35482
18885,35471
18906,35455
18933,35434
18968,35406
19010,35371
19015,35366
19056,35332
19089,35304
19114,35282
19133,35265
19145,35253
19153,35244
19156,35238
19155,35235
19155,35235
19145,35227
19127,35213
19101,35194
19067,35169
19027,35141
18981,35108
18929,35073
18874,35034
18814,34993
18752,34950
18687,34905
18621,34860
18555,34815
18488,34769
18422,34724
18357,34680
18295,34639
18288,34634
18061,34482
18061,34450
18063,34428
18068,34410
18078,34394
18097,34373
18118,34359
18139,34351
18158,34352
18158,34352
18166,34357
18182,34367
18205,34383
18235,34403
18271,34428
18312,34456
18357,34488
18405,34521
18442,34547
18566,34634
18681,34715
18788,34789
18886,34858
18976,34920
19057,34976
19129,35025
19173,35055
19209,35079
19237,35098
19258,35111
19273,35121
19283,35126
19291,35128
19296,35128
19300,35126
19302,35124
19309,35119
19324,35106
19346,35088
19374,35065
19408,35037
19446,35005
19488,34970
19532,34932
19566,34904
19624,34855
19674,34813
19715,34778
19749,34748
19776,34725
19795,34706
19808,34693
19815,34685
19816,34682
19821,34672
19834,34656
19855,34636
19861,34631
19905,34591
19905,34534
19906,34506
19909,34482
19915,34462
19925,34444
19940,34424
19961,34402
19991,34377
20010,34360
20038,34336
20066,34311
20092,34288
20112,34269
20118,34262
20143,34239
20165,34226
20184,34221
20204,34225
20217,34232
20235,34243
20258,34258
20286,34277
20318,34298
20351,34321
20384,34345
20417,34368
20446,34389
20472,34408
20493,34423
20507,34434
20512,34440
20515,34456
20510,34475
20498,34495
20493,34501
20493,34457
20488,34444
20476,34440
20461,34446
20460,34446
20460,34418
20455,34414
20443,34405
20424,34391
20399,34374
20371,34356
20341,34335
20310,34314
20280,34294
20252,34276
20228,34260
20210,34248
20198,34241
20194,34239
20181,34240
20165,34249
20148,34263
20136,34279
20135,34280
20128,34294
20127,34302
20132,34309
20134,34310
20141,34316
20156,34328
20178,34343
20206,34363
20237,34385
20269,34407
20394,34494
20405,34472
20417,34454
20434,34438
20438,34434
20451,34426
20459,34419
20460,34418
20460,34446
20454,34450
20445,34458
20444,34461
20452,34461
20453,34461
20466,34466
20473,34473
20481,34480
20488,34477
20493,34467
20493,34457
20493,34501
20483,34512
20478,34516
20463,34525
20454,34529
20454,34490
20453,34486
20447,34486
20436,34492
20419,34503
20396,34522
20379,34535
20379,34509
20379,34509
20375,34505
20363,34495
20343,34481
20319,34464
20292,34446
20263,34425
20233,34405
20204,34385
20178,34368
20156,34353
20140,34343
20130,34338
20130,34338
20122,34340
20109,34348
20109,34317
20108,34315
20106,34313
20106,34312
20100,34313
20087,34322
20069,34335
20048,34352
20025,34373
20002,34394
19979,34415
19960,34435
19945,34451
19937,34464
19935,34466
19927,34491
19922,34519
19921,34543
19922,34557
19926,34567
19931,34567
19935,34565
19941,34554
19940,34538
19939,34519
19944,34495
19945,34488
19949,34475
19955,34464
19962,34453
19974,34441
19991,34425
20015,34403
20022,34398
20052,34371
20075,34352
20090,34338
20101,34328
20107,34321
20109,34317
20109,34348
20108,34349
20089,34363
20068,34381
20045,34401
20022,34421
20002,34441
19985,34458
19975,34472
19973,34475
19965,34493
19960,34512
19960,34517
19960,34537
19981,34522
19997,34513
20010,34508
20013,34508
20032,34512
20054,34523
20077,34539
20098,34558
20100,34560
20120,34585
20129,34607
20130,34625
20126,34632
20123,34637
20125,34640
20135,34640
20154,34638
20156,34638
20183,34634
20212,34626
20232,34620
20262,34604
20297,34581
20325,34559
20346,34541
20363,34526
20375,34515
20379,34509
20379,34535
20365,34547
20359,34552
20319,34584
20285,34609
20255,34628
20226,34641
20197,34650
20166,34655
20130,34657
20109,34657
20108,34657
20108,34612
20106,34605
20099,34591
20085,34573
20068,34556
20052,34543
20046,34539
20034,34533
20023,34531
20012,34533
19998,34540
19981,34552
19959,34570
19930,34596
19927,34598
19851,34665
19870,34676
19893,34692
19914,34712
19931,34732
19935,34739
19943,34756
19979,34727
19998,34711
20009,34699
20013,34689
20013,34687
20017,34674
20030,34657
20033,34655
20048,34642
20060,34636
20073,34636
20091,34635
20103,34626
20108,34612
20108,34657
20082,34658
20064,34660
20054,34664
20053,34665
20049,34672
20053,34676
20066,34678
20086,34679
20113,34679
20140,34678
20168,34676
20191,34673
20197,34672
20220,34666
20242,34659
20255,34653
20265,34647
20282,34635
20303,34618
20328,34599
20354,34578
20380,34556
20404,34536
20425,34518
20442,34503
20452,34493
20454,34490
20454,34529
20451,34530
20448,34531
20441,34535
20427,34544
20408,34559
20385,34576
20377,34583
20342,34612
20313,34635
20290,34651
20271,34664
20253,34673
20236,34681
20234,34681
20198,34691
20157,34698
20116,34700
20089,34698
20055,34693
19998,34738
19975,34756
19955,34770
19939,34780
19929,34784
19929,34784
19920,34787
19913,34791
19913,34753
19910,34742
19900,34728
19886,34714
19871,34703
19857,34698
19854,34698
19846,34702
19829,34714
19806,34731
19777,34754
19743,34782
19706,34812
19675,34839
19636,34871
19591,34909
19542,34950
19491,34994
19438,35038
19386,35082
19335,35125
19334,35126
19285,35167
19265,35184
19265,35151
19262,35146
19254,35138
19240,35128
19220,35113
19193,35094
19158,35070
19114,35040
19109,35037
18995,34961
18889,34889
18789,34820
18693,34755
18601,34690
18509,34625
18416,34558
18321,34489
18289,34466
18256,34442
18226,34421
18199,34402
18178,34388
18164,34378
18158,34375
18139,34373
18119,34382
18103,34397
18087,34418
18080,34440
18082,34460
18088,34466
18103,34479
18126,34496
18158,34519
18197,34546
18244,34578
18292,34610
18347,34647
18406,34687
18468,34729
18531,34773
18596,34817
18661,34862
18726,34907
18789,34951
18850,34994
18909,35035
18963,35073
19012,35108
19056,35139
19093,35167
19124,35189
19146,35206
19156,35214
19168,35222
19175,35226
19175,35226
19182,35223
19195,35214
19212,35200
19220,35194
19238,35179
19253,35166
19263,35156
19265,35154
19265,35151
19265,35184
19236,35209
19187,35250
19139,35290
19095,35327
19056,35359
19023,35387
18997,35409
18994,35412
18965,35436
18939,35457
18918,35476
18902,35490
18893,35498
18892,35500
18895,35505
18904,35516
18918,35531
18931,35546
18940,35559
18943,35565
18944,35567
18944,35567
18946,35567
18950,35565
18956,35561
18965,35554
18977,35545
18993,35532
19013,35515
19038,35494
19069,35469
19105,35439
19148,35404
19198,35362
19255,35314
19320,35259
19349,35234
19409,35184
19468,35134
19526,35086
19581,35040
19632,34996
19680,34956
19723,34920
19760,34890
19790,34864
19813,34845
19821,34838
19849,34815
19873,34793
19893,34775
19906,34761
19913,34754
19913,34753
19913,34791
19904,34798
19883,34813
19857,34833
19853,34837
19778,34899
19712,34955
19654,35005
19602,35047
19559,35085
19521,35116
19491,35143
19466,35164
19446,35181
19431,35195
19421,35204
19415,35211
19412,35214
19412,35215
19421,35222
19438,35234
19464,35250
19497,35272
19536,35297
19580,35326
19629,35357
19682,35390
19738,35425
19795,35461
19854,35498
19913,35534
19972,35571
20029,35606
20084,35640
20097,35647
20136,35672
20167,35690
20191,35703
20210,35709
20225,35710
20238,35704
20251,35693
20264,35675
20281,35651
20289,35639
20313,35601
20340,35554
20368,35503
20396,35449
20422,35395
20444,35344
20463,35299
20463,35298
20474,35267
20487,35230
20500,35189
20513,35149
20517,35134
20528,35097
20537,35069
20545,35048
20554,35030
20563,35015
20573,35001
20586,34982
20596,34971
20603,34967
20611,34966
20620,34968
20633,34971
20641,34974
20642,34975
20642,34981
20642,34981
" /> 
<polyline style="fill-rule:evenodd;"
points="24498,22448
24490,22432
24467,22395
24432,22342
24391,22280
24348,22218
24314,22167
24291,22131
24283,22116
24285,22108
24300,22078
24322,22035
24335,22010
24352,21971
24356,21951
24350,21948
24320,21933
24268,21911
24200,21881
24120,21847
24034,21810
23946,21774
23862,21739
23787,21708
23726,21683
23683,21667
23665,21661
23661,21663
23642,21683
23616,21717
23555,21792
23463,21865
23359,21910
23243,21925
23136,21912
23033,21870
22940,21798
22871,21711
22827,21609
22813,21494
22825,21384
22867,21279
22938,21186
22983,21147
23077,21093
23178,21062
23203,21059
23314,21063
23420,21096
23515,21154
23592,21235
23600,21246
23628,21283
23647,21308
23663,21328
24002,21187
24056,21165
24149,21126
24229,21092
24292,21065
24335,21046
24352,21038
24353,21037
24355,21025
24345,20999
24322,20952
24306,20920
24289,20884
24283,20868
24290,20854
24313,20820
24346,20769
24387,20709
24427,20651
24462,20598
24486,20559
24497,20540
24497,20537
24487,20521
24462,20490
24418,20444
24354,20379
24344,20369
24289,20315
24243,20271
24211,20242
24196,20232
24196,20232
24177,20241
24139,20266
24085,20301
24022,20344
23859,20456
23705,20394
23658,20375
23601,20351
23560,20334
23542,20324
23536,20308
23526,20265
23513,20204
23500,20132
23487,20062
23475,19999
23466,19954
23462,19934
23459,19929
23449,19925
23428,19922
23390,19921
23330,19920
23243,19920
23234,19920
23151,19921
23085,19922
23042,19924
23025,19927
23025,19927
23020,19947
23011,19991
22998,20054
22984,20129
22983,20133
22969,20208
22956,20270
22946,20314
22940,20332
22935,20336
22906,20351
22860,20373
22803,20397
22745,20422
22692,20443
22653,20457
22635,20461
22635,20461
22617,20450
22578,20424
22525,20388
22461,20344
22456,20341
22393,20298
22340,20263
22302,20240
22285,20232
22284,20232
22265,20246
22230,20278
22182,20324
22126,20379
22109,20397
22049,20458
22010,20500
21989,20527
21984,20540
21985,20540
21996,20559
22022,20599
22059,20653
22102,20717
22105,20721
22148,20784
22183,20836
22208,20874
22218,20890
22218,20893
22210,20918
22195,20963
22173,21018
22150,21076
22128,21129
22109,21169
22099,21188
22098,21188
22075,21195
22028,21206
21963,21219
21886,21234
21874,21236
21799,21250
21737,21262
21694,21271
21676,21276
21674,21286
21671,21323
21670,21379
21669,21447
21670,21518
21671,21587
21673,21647
21676,21689
21680,21707
21681,21708
21704,21714
21751,21724
21816,21738
21894,21753
21907,21755
21982,21769
22043,21782
22086,21791
22102,21796
22106,21802
22119,21833
22140,21883
22165,21946
22224,22090
22102,22266
22091,22283
22048,22346
22013,22399
21990,22435
21981,22450
21982,22451
21997,22469
22030,22504
22077,22552
22132,22607
22173,22648
22223,22697
22256,22728
22278,22745
22291,22751
22299,22749
22317,22738
22356,22712
22410,22676
22472,22633
22525,22597
22584,22559
22626,22534
22647,22525
22656,22527
22690,22540
22743,22561
22805,22587
22945,22649
22962,22741
22973,22796
22988,22874
23002,22948
23025,23064
23451,23068
23459,23050
23464,23033
23473,22990
23485,22929
23499,22856
23511,22795
23522,22732
23531,22688
23535,22668
23542,22663
23572,22647
23620,22625
23678,22601
23737,22576
23792,22554
23834,22538
23856,22533
23873,22541
23909,22565
23961,22599
24023,22641
24085,22684
24138,22719
24176,22744
24193,22754
24205,22749
24235,22725
24283,22678
24352,22609
24363,22597
24416,22542
24459,22495
24488,22463
24498,22448
" /> 
</g>
<g style="fill:#008484; fill-opacity:1.0; 
stroke:#008484; stroke-width:60; stroke-opacity:1; 
stroke-linecap:round; stroke-linejoin:round;">
<path d="M34114 23842
L33314 23842
" />
<path d="M33314 23842
L33314 24342
" />
<path d="M33314 24342
L34114 24342
" />
<path d="M34114 24342
L34114 23842
" />
</g>
<g style="fill:#008484; fill-opacity:1.0; 
stroke:#008484; stroke-width:59.0551; stroke-opacity:1; 
stroke-linecap:round; stroke-linejoin:round;">
<path d="M31848 3695
L31848 1695
" />
<path d="M31848 1695
L33848 1695
" />
<path d="M33848 1695
L33848 3695
" />
<path d="M33848 3695
L31848 3695
" />
<path d="M39899 9746
L41899 9746
" />
<path d="M41899 9746
L41899 11746
" />
<path d="M41899 11746
L39899 11746
" />
<path d="M39899 11746
L39899 9746
" />
<path d="M39899 31006
L41899 31006
" />
<path d="M41899 31006
L41899 33006
" />
<path d="M41899 33006
L39899 33006
" />
<path d="M39899 33006
L39899 31006
" />
<path d="M33848 39057
L33848 41057
" />
<path d="M33848 41057
L31848 41057
" />
<path d="M31848 41057
L31848 39057
" />
<path d="M31848 39057
L33848 39057
" />
</g>
<g style="fill:#008484; fill-opacity:1.0; 
stroke:#008484; stroke-width:50; stroke-opacity:1; 
stroke-linecap:round; stroke-linejoin:round;">
<path d="M4896 8973
L7650 8973
" />
<path d="M7650 8973
L7650 6219
" />
<path d="M7650 6219
L4896 6219
" />
<path d="M4896 6219
L4896 8973
" />
</g>
<g style="fill:#008484; fill-opacity:0.0; 
stroke:#008484; stroke-width:50; stroke-opacity:1; 
stroke-linecap:round; stroke-linejoin:round;">
<circle cx="7355.62" cy="6514.65" r="98" /> 
<path d="M4896 14879
L7650 14879
" />
<path d="M7650 14879
L7650 12125
" />
<path d="M7650 12125
L4896 12125
" />
<path d="M4896 12125
L4896 14879
" />
<circle cx="7355.62" cy="12420.2" r="98" /> 
<path d="M11983 14879
L14737 14879
" />
<path d="M14737 14879
L14737 12125
" />
<path d="M14737 12125
L11983 12125
" />
<path d="M11983 12125
L11983 14879
" />
<circle cx="14442.2" cy="12420.2" r="98" /> 
<path d="M11983 8973
L14737 8973
" />
<path d="M14737 8973
L14737 6219
" />
<path d="M14737 6219
L11983 6219
" />
<path d="M11983 6219
L11983 8973
" />
<circle cx="14442.2" cy="6514.65" r="98" /> 
<path d="M7650 27873
L4896 27873
" />
<path d="M4896 27873
L4896 30627
" />
<path d="M4896 30627
L7650 30627
" />
<path d="M7650 30627
L7650 27873
" />
<circle cx="5191.62" cy="30332.2" r="98" /> 
<path d="M7650 33778
L4896 33778
" />
<path d="M4896 33778
L4896 36532
" />
<path d="M4896 36532
L7650 36532
" />
<path d="M7650 36532
L7650 33778
" />
<circle cx="5191.62" cy="36237.7" r="98" /> 
<path d="M14737 33778
L11983 33778
" />
<path d="M11983 33778
L11983 36532
" />
<path d="M11983 36532
L14737 36532
" />
<path d="M14737 36532
L14737 33778
" />
<circle cx="12278.2" cy="36237.7" r="98" /> 
<path d="M14737 27873
L11983 27873
" />
<path d="M11983 27873
L11983 30627
" />
<path d="M11983 30627
L14737 30627
" />
<path d="M14737 30627
L14737 27873
" />
<circle cx="12278.2" cy="30332.2" r="98" /> 
<path d="M32060 27873
L29306 27873
" />
<path d="M29306 27873
L29306 30627
" />
<path d="M29306 30627
L32060 30627
" />
<path d="M32060 30627
L32060 27873
" />
<circle cx="29601.1" cy="30332.2" r="98" /> 
<path d="M32060 33778
L29306 33778
" />
<path d="M29306 33778
L29306 36532
" />
<path d="M29306 36532
L32060 36532
" />
<path d="M32060 36532
L32060 33778
" />
<circle cx="29601.1" cy="36237.7" r="98" /> 
<path d="M39146 33778
L36392 33778
" />
<path d="M36392 33778
L36392 36532
" />
<path d="M36392 36532
L39146 36532
" />
<path d="M39146 36532
L39146 33778
" />
<circle cx="36687.7" cy="36237.7" r="98" /> 
<path d="M39146 27873
L36392 27873
" />
<path d="M36392 27873
L36392 30627
" />
<path d="M36392 30627
L39146 30627
" />
<path d="M39146 30627
L39146 27873
" />
<circle cx="36687.7" cy="30332.2" r="98" /> 
<path d="M36392 14879
L39146 14879
" />
<path d="M39146 14879
L39146 12125
" />
<path d="M39146 12125
L36392 12125
" />
<path d="M36392 12125
L36392 14879
" />
<circle cx="38851.7" cy="12420.2" r="98" /> 
<path d="M36392 8973
L39146 8973
" />
<path d="M39146 8973
L39146 6219
" />
<path d="M39146 6219
L36392 6219
" />
<path d="M36392 6219
L36392 8973
" />
<circle cx="38851.7" cy="6514.65" r="98" /> 
<path d="M29306 8973
L32060 8973
" />
<path d="M32060 8973
L32060 6219
" />
<path d="M32060 6219
L29306 6219
" />
<path d="M29306 6219
L29306 8973
" />
<circle cx="31765.1" cy="6514.65" r="98" /> 
<path d="M29306 14879
L32060 14879
" />
<path d="M32060 14879
L32060 12125
" />
<path d="M32060 12125
L29306 12125
" />
<path d="M29306 12125
L29306 14879
" />
<circle cx="31765.1" cy="12420.2" r="98" /> 
<path d="M29263 21033
L28083 21033
" />
<path d="M28083 21033
L28083 22213
" />
<path d="M28083 22213
L29263 22213
" />
<path d="M29263 22213
L29263 21033
" />
<path d="M22454 13511
L22454 15873
" />
<path d="M22454 15873
L24422 15873
" />
<path d="M24422 15873
L24422 13511
" />
<path d="M24422 13511
L22454 13511
" />
<path d="M22059 29282
L22059 26920
" />
<path d="M22059 26920
L20091 26920
" />
<path d="M20091 26920
L20091 29282
" />
<path d="M20091 29282
L22059 29282
" />
</g>
<g style="fill:#008484; fill-opacity:0.0; 
stroke:#008484; stroke-width:59.0551; stroke-opacity:1; 
stroke-linecap:round; stroke-linejoin:round;">
<path d="M4537 33006
L2537 33006
" />
<path d="M2537 33006
L2537 31006
" />
<path d="M2537 31006
L4537 31006
" />
<path d="M4537 31006
L4537 33006
" />
</g>
<g style="fill:#840000; fill-opacity:0.0; 
stroke:#840000; stroke-width:39.3701; stroke-opacity:1; 
stroke-linecap:round; stroke-linejoin:round;">
</g>
<g style="fill:#840000; fill-opacity:1.0; 
stroke:#840000; stroke-width:39.3701; stroke-opacity:1; 
stroke-linecap:round; stroke-linejoin:round;">
<circle cx="9816.93" cy="10549.4" r="780.315" /> 
<circle cx="4501.97" cy="3659.64" r="767.717" /> 
<circle cx="39561.7" cy="22242.2" r="157.315" /> 
<circle cx="39561.7" cy="20510.2" r="157.315" /> 
<circle cx="39935" cy="3659.64" r="780.315" /> 
<circle cx="39935" cy="39092.7" r="780.315" /> 
<circle cx="4501.97" cy="39092.7" r="780.315" /> 
<circle cx="34226.4" cy="10549.4" r="780.315" /> 
<circle cx="9816.93" cy="32202.9" r="780.315" /> 
<circle cx="34226.4" cy="32202.9" r="780.315" /> 
</g> 
</svg>
