<?xml version="1.0" standalone="no"?>
 <!DOCTYPE svg PUBLIC "-//W3C//DTD SVG 1.1//EN" 
 "http://www.w3.org/Graphics/SVG/1.1/DTD/svg11.dtd"> 
<svg xmlns="http://www.w3.org/2000/svg" version="1.1" 
    width="10.9499cm" height="10.8585cm" viewBox="0 0 43110 42750 ">
<title>SVG Picture created as k16-Dwgs_User.svg date 2013/05/21 08:10:17 </title>
  <desc>Picture generated by PCBNEW </desc>
<g style="fill:#000000; fill-opacity:1;stroke:#000000; stroke-opacity:1;
stroke-linecap:round; stroke-linejoin:round; "
 transform="translate(0 0) scale(1 1)">
</g>
<g style="fill:#C1C100; fill-opacity:0.0; 
stroke:#C1C100; stroke-width:0; stroke-opacity:1; 
stroke-linecap:round; stroke-linejoin:round;">
<path d="M2533 41061
L41903 41061
" />
<path d="M41903 41061
L41903 1691
" />
<path d="M41903 1691
L2533 1691
" />
<path d="M2533 1691
L2533 41061
" />
</g>
<g style="fill:#C1C1C1; fill-opacity:0.0; 
stroke:#C1C1C1; stroke-width:20; stroke-opacity:1; 
stroke-linecap:round; stroke-linejoin:round;">
<path d="M17230 15634
L18388 15634
" />
<path d="M18388 15634
L18388 16408
" />
<path d="M18388 16408
L17230 16408
" />
<path d="M17230 16408
L17230 15634
" />
<path d="M24830 15015
L24830 13857
" />
<path d="M24830 13857
L25604 13857
" />
<path d="M25604 13857
L25604 15015
" />
<path d="M25604 15015
L24830 15015
" />
<path d="M22591 16972
L21433 16972
" />
<path d="M21433 16972
L21433 16198
" />
<path d="M21433 16198
L22591 16198
" />
<path d="M22591 16198
L22591 16972
" />
<path d="M22973 16246
L24131 16246
" />
<path d="M24131 16246
L24131 17020
" />
<path d="M24131 17020
L22973 17020
" />
<path d="M22973 17020
L22973 16246
" />
<path d="M21359 16972
L20201 16972
" />
<path d="M20201 16972
L20201 16198
" />
<path d="M20201 16198
L21359 16198
" />
<path d="M21359 16198
L21359 16972
" />
<path d="M21080 17799
L19922 17799
" />
<path d="M19922 17799
L19922 17025
" />
<path d="M19922 17025
L21080 17025
" />
<path d="M21080 17025
L21080 17799
" />
<path d="M24822 16223
L24822 15065
" />
<path d="M24822 15065
L25596 15065
" />
<path d="M25596 15065
L25596 16223
" />
<path d="M25596 16223
L24822 16223
" />
<path d="M18585 15700
L17033 15700
" />
<path d="M17033 14926
L18585 14926
" />
<path d="M18585 14926
L18585 15700
" />
<path d="M17033 15700
L17033 14926
" />
<path d="M18585 14912
L17033 14912
" />
<path d="M17033 14138
L18585 14138
" />
<path d="M18585 14138
L18585 14912
" />
<path d="M17033 14912
L17033 14138
" />
<path d="M18563 14868
L18563 13316
" />
<path d="M19337 13316
L19337 14868
" />
<path d="M19337 14868
L18563 14868
" />
<path d="M18563 13316
L19337 13316
" />
<path d="M19390 14868
L19390 13316
" />
<path d="M20164 13316
L20164 14868
" />
<path d="M20164 14868
L19390 14868
" />
<path d="M19390 13316
L20164 13316
" />
<path d="M20217 14868
L20217 13316
" />
<path d="M20991 13316
L20991 14868
" />
<path d="M20991 14868
L20217 14868
" />
<path d="M20217 13316
L20991 13316
" />
<path d="M20925 14671
L20925 13513
" />
<path d="M20925 13513
L21699 13513
" />
<path d="M21699 13513
L21699 14671
" />
<path d="M21699 14671
L20925 14671
" />
<path d="M22056 16059
L20898 16059
" />
<path d="M20898 16059
L20898 15285
" />
<path d="M20898 15285
L22056 15285
" />
<path d="M22056 15285
L22056 16059
" />
<path d="M18747 10088
L18747 11246
" />
<path d="M18747 11246
L17973 11246
" />
<path d="M17973 11246
L17973 10088
" />
<path d="M17973 10088
L18747 10088
" />
<path d="M20420 9576
L20420 11522
" />
<path d="M19646 11522
L19646 9576
" />
<path d="M19646 9576
L20420 9576
" />
<path d="M20420 11522
L19646 11522
" />
<path d="M19554 9576
L19554 11522
" />
<path d="M18780 11522
L18780 9576
" />
<path d="M18780 9576
L19554 9576
" />
<path d="M19554 11522
L18780 11522
" />
<path d="M25991 9596
L25991 11542
" />
<path d="M25217 11542
L25217 9596
" />
<path d="M25217 9596
L25991 9596
" />
<path d="M25991 11542
L25217 11542
" />
<path d="M26916 9596
L26916 11542
" />
<path d="M26142 11542
L26142 9596
" />
<path d="M26142 9596
L26916 9596
" />
<path d="M26916 11542
L26142 11542
" />
<path d="M25785 16699
L25785 17857
" />
<path d="M25785 17857
L25011 17857
" />
<path d="M25011 17857
L25011 16699
" />
<path d="M25011 16699
L25785 16699
" />
<path d="M26633 17830
L26633 16672
" />
<path d="M26633 16672
L27407 16672
" />
<path d="M27407 16672
L27407 17830
" />
<path d="M27407 17830
L26633 17830
" />
<path d="M27172 15285
L27172 16443
" />
<path d="M27172 16443
L26398 16443
" />
<path d="M26398 16443
L26398 15285
" />
<path d="M26398 15285
L27172 15285
" />
<path d="M23296 18618
L22138 18618
" />
<path d="M22138 18618
L22138 17844
" />
<path d="M22138 17844
L23296 17844
" />
<path d="M23296 17844
L23296 18618
" />
<path d="M23000 17072
L24158 17072
" />
<path d="M24158 17072
L24158 17846
" />
<path d="M24158 17846
L23000 17846
" />
<path d="M23000 17846
L23000 17072
" />
<path d="M22954 17799
L21796 17799
" />
<path d="M21796 17799
L21796 17025
" />
<path d="M21796 17025
L22954 17025
" />
<path d="M22954 17025
L22954 17799
" />
<path d="M26604 16668
L26604 17826
" />
<path d="M26604 17826
L25830 17826
" />
<path d="M25830 17826
L25830 16668
" />
<path d="M25830 16668
L26604 16668
" />
<path d="M26447 15270
L26447 16428
" />
<path d="M26447 16428
L25673 16428
" />
<path d="M25673 16428
L25673 15270
" />
<path d="M25673 15270
L26447 15270
" />
<path d="M24200 17416
L24200 16258
" />
<path d="M24200 16258
L24974 16258
" />
<path d="M24974 16258
L24974 17416
" />
<path d="M24974 17416
L24200 17416
" />
<path d="M22776 29317
L22776 28159
" />
<path d="M22776 28159
L23550 28159
" />
<path d="M23550 28159
L23550 29317
" />
<path d="M23550 29317
L22776 29317
" />
<path d="M19785 27790
L19785 28948
" />
<path d="M19785 28948
L19011 28948
" />
<path d="M19011 28948
L19011 27790
" />
<path d="M19011 27790
L19785 27790
" />
<path d="M21996 25753
L23154 25753
" />
<path d="M23154 25753
L23154 26527
" />
<path d="M23154 26527
L21996 26527
" />
<path d="M21996 26527
L21996 25753
" />
<path d="M21643 26394
L20485 26394
" />
<path d="M20485 26394
L20485 25620
" />
<path d="M20485 25620
L21643 25620
" />
<path d="M21643 25620
L21643 26394
" />
<path d="M23193 25753
L24351 25753
" />
<path d="M24351 25753
L24351 26527
" />
<path d="M24351 26527
L23193 26527
" />
<path d="M23193 26527
L23193 25753
" />
<path d="M23532 24954
L24690 24954
" />
<path d="M24690 24954
L24690 25728
" />
<path d="M24690 25728
L23532 25728
" />
<path d="M23532 25728
L23532 24954
" />
<path d="M19793 26569
L19793 27727
" />
<path d="M19793 27727
L19019 27727
" />
<path d="M19019 27727
L19019 26569
" />
<path d="M19019 26569
L19793 26569
" />
<path d="M25851 27091
L27403 27091
" />
<path d="M27403 27865
L25851 27865
" />
<path d="M25851 27865
L25851 27091
" />
<path d="M27403 27091
L27403 27865
" />
<path d="M25851 27918
L27403 27918
" />
<path d="M27403 28692
L25851 28692
" />
<path d="M25851 28692
L25851 27918
" />
<path d="M27403 27918
L27403 28692
" />
<path d="M25951 27962
L25951 29514
" />
<path d="M25177 29514
L25177 27962
" />
<path d="M25177 27962
L25951 27962
" />
<path d="M25951 29514
L25177 29514
" />
<path d="M25125 27962
L25125 29514
" />
<path d="M24351 29514
L24351 27962
" />
<path d="M24351 27962
L25125 27962
" />
<path d="M25125 29514
L24351 29514
" />
<path d="M24298 27962
L24298 29514
" />
<path d="M23524 29514
L23524 27962
" />
<path d="M23524 27962
L24298 27962
" />
<path d="M24298 29514
L23524 29514
" />
<path d="M26048 26382
L27206 26382
" />
<path d="M27206 26382
L27206 27156
" />
<path d="M27206 27156
L26048 27156
" />
<path d="M26048 27156
L26048 26382
" />
<path d="M22607 26635
L23765 26635
" />
<path d="M23765 26635
L23765 27409
" />
<path d="M23765 27409
L22607 27409
" />
<path d="M22607 27409
L22607 26635
" />
<path d="M25886 32506
L25886 31348
" />
<path d="M25886 31348
L26660 31348
" />
<path d="M26660 31348
L26660 32506
" />
<path d="M26660 32506
L25886 32506
" />
<path d="M24252 33066
L24252 31120
" />
<path d="M25026 31120
L25026 33066
" />
<path d="M25026 33066
L24252 33066
" />
<path d="M24252 31120
L25026 31120
" />
<path d="M25079 33046
L25079 31100
" />
<path d="M25853 31100
L25853 33046
" />
<path d="M25853 33046
L25079 33046
" />
<path d="M25079 31100
L25853 31100
" />
<path d="M18642 33116
L18642 31170
" />
<path d="M19416 31170
L19416 33116
" />
<path d="M19416 33116
L18642 33116
" />
<path d="M18642 31170
L19416 31170
" />
<path d="M17796 33116
L17796 31170
" />
<path d="M18570 31170
L18570 33116
" />
<path d="M18570 33116
L17796 33116
" />
<path d="M17796 31170
L18570 31170
" />
<path d="M18806 25861
L18806 24703
" />
<path d="M18806 24703
L19580 24703
" />
<path d="M19580 24703
L19580 25861
" />
<path d="M19580 25861
L18806 25861
" />
<path d="M17951 24699
L17951 25857
" />
<path d="M17951 25857
L17177 25857
" />
<path d="M17177 25857
L17177 24699
" />
<path d="M17177 24699
L17951 24699
" />
<path d="M17481 27230
L17481 26072
" />
<path d="M17481 26072
L18255 26072
" />
<path d="M18255 26072
L18255 27230
" />
<path d="M18255 27230
L17481 27230
" />
<path d="M21327 23990
L22485 23990
" />
<path d="M22485 23990
L22485 24764
" />
<path d="M22485 24764
L21327 24764
" />
<path d="M21327 24764
L21327 23990
" />
<path d="M21662 25575
L20504 25575
" />
<path d="M20504 25575
L20504 24801
" />
<path d="M20504 24801
L21662 24801
" />
<path d="M21662 24801
L21662 25575
" />
<path d="M21693 24809
L22851 24809
" />
<path d="M22851 24809
L22851 25583
" />
<path d="M22851 25583
L21693 25583
" />
<path d="M21693 25583
L21693 24809
" />
<path d="M17999 25861
L17999 24703
" />
<path d="M17999 24703
L18773 24703
" />
<path d="M18773 24703
L18773 25861
" />
<path d="M18773 25861
L17999 25861
" />
<path d="M18196 27475
L18196 26317
" />
<path d="M18196 26317
L18970 26317
" />
<path d="M18970 26317
L18970 27475
" />
<path d="M18970 27475
L18196 27475
" />
<path d="M20443 25231
L20443 26389
" />
<path d="M20443 26389
L19669 26389
" />
<path d="M19669 26389
L19669 25231
" />
<path d="M19669 25231
L20443 25231
" />
<path d="M28332 22662
L29490 22662
" />
<path d="M29490 22662
L29490 23436
" />
<path d="M29490 23436
L28332 23436
" />
<path d="M28332 23436
L28332 22662
" />
<path d="M30140 20208
L28982 20208
" />
<path d="M28982 20208
L28982 19434
" />
<path d="M28982 19434
L30140 19434
" />
<path d="M30140 19434
L30140 20208
" />
<path d="M30140 19597
L28982 19597
" />
<path d="M28982 19597
L28982 18823
" />
<path d="M28982 18823
L30140 18823
" />
<path d="M30140 18823
L30140 19597
" />
<path d="M27387 18725
L28939 18725
" />
<path d="M28939 19499
L27387 19499
" />
<path d="M27387 19499
L27387 18725
" />
<path d="M28939 18725
L28939 19499
" />
<path d="M27387 19532
L28939 19532
" />
<path d="M28939 20306
L27387 20306
" />
<path d="M27387 20306
L27387 19532
" />
<path d="M28939 19532
L28939 20306
" />
<path d="M28274 22529
L28274 23687
" />
<path d="M28274 23687
L27500 23687
" />
<path d="M27500 23687
L27500 22529
" />
<path d="M27500 22529
L28274 22529
" />
<path d="M29849 22297
L29849 20745
" />
<path d="M29849 20745
L30623 20745
" />
<path d="M30623 20745
L30623 22297
" />
<path d="M30623 22297
L29849 22297
" />
<path d="M4391 8869
L3233 8869
" />
<path d="M3233 8869
L3233 8489
" />
<path d="M3233 8489
L4391 8489
" />
<path d="M4391 8489
L4391 8869
" />
<path d="M6469 5671
L6469 4513
" />
<path d="M6469 4513
L6849 4513
" />
<path d="M6849 4513
L6849 5671
" />
<path d="M6849 5671
L6469 5671
" />
<path d="M3983 5324
L3983 6482
" />
<path d="M3983 6482
L3603 6482
" />
<path d="M3603 6482
L3603 5324
" />
<path d="M3603 5324
L3983 5324
" />
<path d="M8135 8489
L9293 8489
" />
<path d="M9293 8489
L9293 8869
" />
<path d="M9293 8869
L8135 8869
" />
<path d="M8135 8869
L8135 8489
" />
<path d="M8701 7427
L8701 6269
" />
<path d="M8701 6269
L9081 6269
" />
<path d="M9081 6269
L9081 7427
" />
<path d="M9081 7427
L8701 7427
" />
<path d="M4391 8377
L3233 8377
" />
<path d="M3233 8377
L3233 7997
" />
<path d="M3233 7997
L4391 7997
" />
<path d="M4391 7997
L4391 8377
" />
<path d="M9081 5245
L9081 6403
" />
<path d="M9081 6403
L8701 6403
" />
<path d="M8701 6403
L8701 5245
" />
<path d="M8701 5245
L9081 5245
" />
<path d="M8135 8016
L9293 8016
" />
<path d="M9293 8016
L9293 8396
" />
<path d="M9293 8396
L8135 8396
" />
<path d="M8135 8396
L8135 8016
" />
<path d="M6719 9596
L6719 10754
" />
<path d="M6719 10754
L6339 10754
" />
<path d="M6339 10754
L6339 9596
" />
<path d="M6339 9596
L6719 9596
" />
<path d="M6089 9596
L6089 10754
" />
<path d="M6089 10754
L5709 10754
" />
<path d="M5709 10754
L5709 9596
" />
<path d="M5709 9596
L6089 9596
" />
<path d="M3603 7407
L3603 6249
" />
<path d="M3603 6249
L3983 6249
" />
<path d="M3983 6249
L3983 7407
" />
<path d="M3983 7407
L3603 7407
" />
<path d="M15143 8489
L16301 8489
" />
<path d="M16301 8489
L16301 8869
" />
<path d="M16301 8869
L15143 8869
" />
<path d="M15143 8869
L15143 8489
" />
<path d="M11557 8869
L10399 8869
" />
<path d="M10399 8869
L10399 8489
" />
<path d="M10399 8489
L11557 8489
" />
<path d="M11557 8489
L11557 8869
" />
<path d="M15768 7427
L15768 6269
" />
<path d="M15768 6269
L16148 6269
" />
<path d="M16148 6269
L16148 7427
" />
<path d="M16148 7427
L15768 7427
" />
<path d="M11557 8377
L10399 8377
" />
<path d="M10399 8377
L10399 7997
" />
<path d="M10399 7997
L11557 7997
" />
<path d="M11557 7997
L11557 8377
" />
<path d="M11050 5580
L11050 6738
" />
<path d="M11050 6738
L10670 6738
" />
<path d="M10670 6738
L10670 5580
" />
<path d="M10670 5580
L11050 5580
" />
<path d="M13628 9635
L13628 10793
" />
<path d="M13628 10793
L13248 10793
" />
<path d="M13248 10793
L13248 9635
" />
<path d="M13248 9635
L13628 9635
" />
<path d="M15143 7997
L16301 7997
" />
<path d="M16301 7997
L16301 8377
" />
<path d="M16301 8377
L15143 8377
" />
<path d="M15143 8377
L15143 7997
" />
<path d="M14093 15403
L14093 16561
" />
<path d="M14093 16561
L13713 16561
" />
<path d="M13713 16561
L13713 15403
" />
<path d="M13713 15403
L14093 15403
" />
<path d="M16168 5245
L16168 6403
" />
<path d="M16168 6403
L15788 6403
" />
<path d="M15788 6403
L15788 5245
" />
<path d="M15788 5245
L16168 5245
" />
<path d="M10670 7663
L10670 6505
" />
<path d="M10670 6505
L11050 6505
" />
<path d="M11050 6505
L11050 7663
" />
<path d="M11050 7663
L10670 7663
" />
<path d="M13701 5608
L13701 4450
" />
<path d="M13701 4450
L14081 4450
" />
<path d="M14081 4450
L14081 5608
" />
<path d="M14081 5608
L13701 5608
" />
<path d="M8115 14394
L9273 14394
" />
<path d="M9273 14394
L9273 14774
" />
<path d="M9273 14774
L8115 14774
" />
<path d="M8115 14774
L8115 14394
" />
<path d="M4411 14774
L3253 14774
" />
<path d="M3253 14774
L3253 14394
" />
<path d="M3253 14394
L4411 14394
" />
<path d="M4411 14394
L4411 14774
" />
<path d="M8622 13313
L8622 12155
" />
<path d="M8622 12155
L9002 12155
" />
<path d="M9002 12155
L9002 13313
" />
<path d="M9002 13313
L8622 13313
" />
<path d="M4264 12461
L3106 12461
" />
<path d="M3106 12461
L3106 12081
" />
<path d="M3106 12081
L4264 12081
" />
<path d="M4264 12081
L4264 12461
" />
<path d="M8017 11835
L9175 11835
" />
<path d="M9175 11835
L9175 12215
" />
<path d="M9175 12215
L8017 12215
" />
<path d="M8017 12215
L8017 11835
" />
<path d="M4411 14282
L3253 14282
" />
<path d="M3253 14282
L3253 13902
" />
<path d="M3253 13902
L4411 13902
" />
<path d="M4411 13902
L4411 14282
" />
<path d="M5715 15403
L5715 16561
" />
<path d="M5715 16561
L5335 16561
" />
<path d="M5335 16561
L5335 15403
" />
<path d="M5335 15403
L5715 15403
" />
<path d="M8115 13902
L9273 13902
" />
<path d="M9273 13902
L9273 14282
" />
<path d="M9273 14282
L8115 14282
" />
<path d="M8115 14282
L8115 13902
" />
<path d="M5217 11266
L5217 10108
" />
<path d="M5217 10108
L5597 10108
" />
<path d="M5597 10108
L5597 11266
" />
<path d="M5597 11266
L5217 11266
" />
<path d="M6823 11262
L6823 10104
" />
<path d="M6823 10104
L7203 10104
" />
<path d="M7203 10104
L7203 11262
" />
<path d="M7203 11262
L6823 11262
" />
<path d="M7152 15403
L7152 16561
" />
<path d="M7152 16561
L6772 16561
" />
<path d="M6772 16561
L6772 15403
" />
<path d="M6772 15403
L7152 15403
" />
<path d="M11537 14755
L10379 14755
" />
<path d="M10379 14755
L10379 14375
" />
<path d="M10379 14375
L11537 14375
" />
<path d="M11537 14375
L11537 14755
" />
<path d="M15158 14907
L15158 13749
" />
<path d="M15158 13749
L15538 13749
" />
<path d="M15538 13749
L15538 14907
" />
<path d="M15538 14907
L15158 14907
" />
<path d="M15099 13333
L15099 12175
" />
<path d="M15099 12175
L15479 12175
" />
<path d="M15479 12175
L15479 13333
" />
<path d="M15479 13333
L15099 13333
" />
<path d="M15479 11249
L15479 12407
" />
<path d="M15479 12407
L15099 12407
" />
<path d="M15099 12407
L15099 11249
" />
<path d="M15099 11249
L15479 11249
" />
<path d="M11537 15247
L10379 15247
" />
<path d="M10379 15247
L10379 14867
" />
<path d="M10379 14867
L11537 14867
" />
<path d="M11537 14867
L11537 15247
" />
<path d="M12743 15403
L12743 16561
" />
<path d="M12743 16561
L12363 16561
" />
<path d="M12363 16561
L12363 15403
" />
<path d="M12363 15403
L12743 15403
" />
<path d="M13136 9635
L13136 10793
" />
<path d="M13136 10793
L12756 10793
" />
<path d="M12756 10793
L12756 9635
" />
<path d="M12756 9635
L13136 9635
" />
<path d="M16030 13238
L16030 14396
" />
<path d="M16030 14396
L15650 14396
" />
<path d="M15650 14396
L15650 13238
" />
<path d="M15650 13238
L16030 13238
" />
<path d="M12304 11305
L12304 10147
" />
<path d="M12304 10147
L12684 10147
" />
<path d="M12684 10147
L12684 11305
" />
<path d="M12684 11305
L12304 11305
" />
<path d="M13741 11305
L13741 10147
" />
<path d="M13741 10147
L14121 10147
" />
<path d="M14121 10147
L14121 11305
" />
<path d="M14121 11305
L13741 11305
" />
<path d="M10689 13313
L10689 12155
" />
<path d="M10689 12155
L11069 12155
" />
<path d="M11069 12155
L11069 13313
" />
<path d="M11069 13313
L10689 13313
" />
<path d="M28762 8869
L27604 8869
" />
<path d="M27604 8869
L27604 8489
" />
<path d="M27604 8489
L28762 8489
" />
<path d="M28762 8489
L28762 8869
" />
<path d="M32505 8489
L33663 8489
" />
<path d="M33663 8489
L33663 8869
" />
<path d="M33663 8869
L32505 8869
" />
<path d="M32505 8869
L32505 8489
" />
<path d="M32953 7427
L32953 6269
" />
<path d="M32953 6269
L33333 6269
" />
<path d="M33333 6269
L33333 7427
" />
<path d="M33333 7427
L32953 7427
" />
<path d="M31083 5675
L31083 4517
" />
<path d="M31083 4517
L31463 4517
" />
<path d="M31463 4517
L31463 5675
" />
<path d="M31463 5675
L31083 5675
" />
<path d="M28032 6994
L28032 5836
" />
<path d="M28032 5836
L28412 5836
" />
<path d="M28412 5836
L28412 6994
" />
<path d="M28412 6994
L28032 6994
" />
<path d="M28762 9361
L27604 9361
" />
<path d="M27604 9361
L27604 8981
" />
<path d="M27604 8981
L28762 8981
" />
<path d="M28762 8981
L28762 9361
" />
<path d="M35996 12540
L34838 12540
" />
<path d="M34838 12540
L34838 12160
" />
<path d="M34838 12160
L35996 12160
" />
<path d="M35996 12160
L35996 12540
" />
<path d="M31522 9557
L31522 10715
" />
<path d="M31522 10715
L31142 10715
" />
<path d="M31142 10715
L31142 9557
" />
<path d="M31142 9557
L31522 9557
" />
<path d="M33353 5245
L33353 6403
" />
<path d="M33353 6403
L32973 6403
" />
<path d="M32973 6403
L32973 5245
" />
<path d="M32973 5245
L33353 5245
" />
<path d="M32505 8016
L33663 8016
" />
<path d="M33663 8016
L33663 8396
" />
<path d="M33663 8396
L32505 8396
" />
<path d="M32505 8396
L32505 8016
" />
<path d="M28412 4911
L28412 6069
" />
<path d="M28412 6069
L28032 6069
" />
<path d="M28032 6069
L28032 4911
" />
<path d="M28032 4911
L28412 4911
" />
<path d="M35848 8869
L34690 8869
" />
<path d="M34690 8869
L34690 8489
" />
<path d="M34690 8489
L35848 8489
" />
<path d="M35848 8489
L35848 8869
" />
<path d="M39611 8489
L40769 8489
" />
<path d="M40769 8489
L40769 8869
" />
<path d="M40769 8869
L39611 8869
" />
<path d="M39611 8869
L39611 8489
" />
<path d="M39745 7427
L39745 6269
" />
<path d="M39745 6269
L40125 6269
" />
<path d="M40125 6269
L40125 7427
" />
<path d="M40125 7427
L39745 7427
" />
<path d="M38115 5789
L38115 4631
" />
<path d="M38115 4631
L38495 4631
" />
<path d="M38495 4631
L38495 5789
" />
<path d="M38495 5789
L38115 5789
" />
<path d="M37113 9635
L37113 10793
" />
<path d="M37113 10793
L36733 10793
" />
<path d="M36733 10793
L36733 9635
" />
<path d="M36733 9635
L37113 9635
" />
<path d="M35400 4990
L35400 6148
" />
<path d="M35400 6148
L35020 6148
" />
<path d="M35020 6148
L35020 4990
" />
<path d="M35020 4990
L35400 4990
" />
<path d="M35848 8377
L34690 8377
" />
<path d="M34690 8377
L34690 7997
" />
<path d="M34690 7997
L35848 7997
" />
<path d="M35848 7997
L35848 8377
" />
<path d="M38609 9635
L38609 10793
" />
<path d="M38609 10793
L38229 10793
" />
<path d="M38229 10793
L38229 9635
" />
<path d="M38229 9635
L38609 9635
" />
<path d="M39611 7997
L40769 7997
" />
<path d="M40769 7997
L40769 8377
" />
<path d="M40769 8377
L39611 8377
" />
<path d="M39611 8377
L39611 7997
" />
<path d="M40125 5344
L40125 6502
" />
<path d="M40125 6502
L39745 6502
" />
<path d="M39745 6502
L39745 5344
" />
<path d="M39745 5344
L40125 5344
" />
<path d="M35020 7073
L35020 5915
" />
<path d="M35020 5915
L35400 5915
" />
<path d="M35400 5915
L35400 7073
" />
<path d="M35400 7073
L35020 7073
" />
<path d="M28821 14774
L27663 14774
" />
<path d="M27663 14774
L27663 14394
" />
<path d="M27663 14394
L28821 14394
" />
<path d="M28821 14394
L28821 14774
" />
<path d="M32564 14394
L33722 14394
" />
<path d="M33722 14394
L33722 14774
" />
<path d="M33722 14774
L32564 14774
" />
<path d="M32564 14774
L32564 14394
" />
<path d="M33012 13333
L33012 12175
" />
<path d="M33012 12175
L33392 12175
" />
<path d="M33392 12175
L33392 13333
" />
<path d="M33392 13333
L33012 13333
" />
<path d="M30099 11226
L30099 10068
" />
<path d="M30099 10068
L30479 10068
" />
<path d="M30479 10068
L30479 11226
" />
<path d="M30479 11226
L30099 11226
" />
<path d="M30650 11226
L30650 10068
" />
<path d="M30650 10068
L31030 10068
" />
<path d="M31030 10068
L31030 11226
" />
<path d="M31030 11226
L30650 11226
" />
<path d="M30065 15324
L30065 16482
" />
<path d="M30065 16482
L29685 16482
" />
<path d="M29685 16482
L29685 15324
" />
<path d="M29685 15324
L30065 15324
" />
<path d="M28821 15266
L27663 15266
" />
<path d="M27663 15266
L27663 14886
" />
<path d="M27663 14886
L28821 14886
" />
<path d="M28821 14886
L28821 15266
" />
<path d="M32367 11855
L33525 11855
" />
<path d="M33525 11855
L33525 12235
" />
<path d="M33525 12235
L32367 12235
" />
<path d="M32367 12235
L32367 11855
" />
<path d="M29987 9557
L29987 10715
" />
<path d="M29987 10715
L29607 10715
" />
<path d="M29607 10715
L29607 9557
" />
<path d="M29607 9557
L29987 9557
" />
<path d="M28978 12274
L27820 12274
" />
<path d="M27820 12274
L27820 11894
" />
<path d="M27820 11894
L28978 11894
" />
<path d="M28978 11894
L28978 12274
" />
<path d="M32564 13922
L33722 13922
" />
<path d="M33722 13922
L33722 14302
" />
<path d="M33722 14302
L32564 14302
" />
<path d="M32564 14302
L32564 13922
" />
<path d="M35789 14774
L34631 14774
" />
<path d="M34631 14774
L34631 14394
" />
<path d="M34631 14394
L35789 14394
" />
<path d="M35789 14394
L35789 14774
" />
<path d="M39710 14611
L40868 14611
" />
<path d="M40868 14611
L40868 14991
" />
<path d="M40868 14991
L39710 14991
" />
<path d="M39710 14991
L39710 14611
" />
<path d="M39705 13313
L39705 12155
" />
<path d="M39705 12155
L40085 12155
" />
<path d="M40085 12155
L40085 13313
" />
<path d="M40085 13313
L39705 13313
" />
<path d="M39100 11855
L40258 11855
" />
<path d="M40258 11855
L40258 12235
" />
<path d="M40258 12235
L39100 12235
" />
<path d="M39100 12235
L39100 11855
" />
<path d="M37737 11305
L37737 10147
" />
<path d="M37737 10147
L38117 10147
" />
<path d="M38117 10147
L38117 11305
" />
<path d="M38117 11305
L37737 11305
" />
<path d="M37225 11305
L37225 10147
" />
<path d="M37225 10147
L37605 10147
" />
<path d="M37605 10147
L37605 11305
" />
<path d="M37605 11305
L37225 11305
" />
<path d="M35789 14282
L34631 14282
" />
<path d="M34631 14282
L34631 13902
" />
<path d="M34631 13902
L35789 13902
" />
<path d="M35789 13902
L35789 14282
" />
<path d="M38341 15308
L38341 16466
" />
<path d="M38341 16466
L37961 16466
" />
<path d="M37961 16466
L37961 15308
" />
<path d="M37961 15308
L38341 15308
" />
<path d="M31207 15328
L31207 16486
" />
<path d="M31207 16486
L30827 16486
" />
<path d="M30827 16486
L30827 15328
" />
<path d="M30827 15328
L31207 15328
" />
<path d="M39710 14129
L40868 14129
" />
<path d="M40868 14129
L40868 14509
" />
<path d="M40868 14509
L39710 14509
" />
<path d="M39710 14509
L39710 14129
" />
<path d="M37132 15324
L37132 16482
" />
<path d="M37132 16482
L36752 16482
" />
<path d="M36752 16482
L36752 15324
" />
<path d="M36752 15324
L37132 15324
" />
<path d="M39710 33883
L40868 33883
" />
<path d="M40868 33883
L40868 34263
" />
<path d="M40868 34263
L39710 34263
" />
<path d="M39710 34263
L39710 33883
" />
<path d="M35966 34263
L34808 34263
" />
<path d="M34808 34263
L34808 33883
" />
<path d="M34808 33883
L35966 33883
" />
<path d="M35966 33883
L35966 34263
" />
<path d="M35774 35324
L35774 36482
" />
<path d="M35774 36482
L35394 36482
" />
<path d="M35394 36482
L35394 35324
" />
<path d="M35394 35324
L35774 35324
" />
<path d="M39552 29729
L40710 29729
" />
<path d="M40710 29729
L40710 30109
" />
<path d="M40710 30109
L39552 30109
" />
<path d="M39552 30109
L39552 29729
" />
<path d="M40361 35285
L40361 36443
" />
<path d="M40361 36443
L39981 36443
" />
<path d="M39981 36443
L39981 35285
" />
<path d="M39981 35285
L40361 35285
" />
<path d="M35394 37407
L35394 36249
" />
<path d="M35394 36249
L35774 36249
" />
<path d="M35774 36249
L35774 37407
" />
<path d="M35774 37407
L35394 37407
" />
<path d="M39710 34375
L40868 34375
" />
<path d="M40868 34375
L40868 34755
" />
<path d="M40868 34755
L39710 34755
" />
<path d="M39710 34755
L39710 34375
" />
<path d="M36772 33175
L36772 32017
" />
<path d="M36772 32017
L37152 32017
" />
<path d="M37152 32017
L37152 33175
" />
<path d="M37152 33175
L36772 33175
" />
<path d="M35966 34755
L34808 34755
" />
<path d="M34808 34755
L34808 34375
" />
<path d="M34808 34375
L35966 34375
" />
<path d="M35966 34375
L35966 34755
" />
<path d="M39981 37388
L39981 36230
" />
<path d="M39981 36230
L40361 36230
" />
<path d="M40361 36230
L40361 37388
" />
<path d="M40361 37388
L39981 37388
" />
<path d="M37554 37005
L37554 38163
" />
<path d="M37554 38163
L37174 38163
" />
<path d="M37174 38163
L37174 37005
" />
<path d="M37174 37005
L37554 37005
" />
<path d="M32702 33883
L33860 33883
" />
<path d="M33860 33883
L33860 34263
" />
<path d="M33860 34263
L32702 34263
" />
<path d="M32702 34263
L32702 33883
" />
<path d="M28880 34263
L27722 34263
" />
<path d="M27722 34263
L27722 33883
" />
<path d="M27722 33883
L28880 33883
" />
<path d="M28880 33883
L28880 34263
" />
<path d="M28707 35324
L28707 36482
" />
<path d="M28707 36482
L28327 36482
" />
<path d="M28327 36482
L28327 35324
" />
<path d="M28327 35324
L28707 35324
" />
<path d="M30593 36990
L30593 38148
" />
<path d="M30593 38148
L30213 38148
" />
<path d="M30213 38148
L30213 36990
" />
<path d="M30213 36990
L30593 36990
" />
<path d="M32515 30290
L33673 30290
" />
<path d="M33673 30290
L33673 30670
" />
<path d="M33673 30670
L32515 30670
" />
<path d="M32515 30670
L32515 30290
" />
<path d="M28327 37407
L28327 36249
" />
<path d="M28327 36249
L28707 36249
" />
<path d="M28707 36249
L28707 37407
" />
<path d="M28707 37407
L28327 37407
" />
<path d="M32702 34375
L33860 34375
" />
<path d="M33860 34375
L33860 34755
" />
<path d="M33860 34755
L32702 34755
" />
<path d="M32702 34755
L32702 34375
" />
<path d="M29745 33155
L29745 31997
" />
<path d="M29745 31997
L30125 31997
" />
<path d="M30125 31997
L30125 33155
" />
<path d="M30125 33155
L29745 33155
" />
<path d="M28880 34755
L27722 34755
" />
<path d="M27722 34755
L27722 34375
" />
<path d="M27722 34375
L28880 34375
" />
<path d="M28880 34375
L28880 34755
" />
<path d="M28486 29440
L27328 29440
" />
<path d="M27328 29440
L27328 29060
" />
<path d="M27328 29060
L28486 29060
" />
<path d="M28486 29060
L28486 29440
" />
<path d="M32535 36353
L33693 36353
" />
<path d="M33693 36353
L33693 36733
" />
<path d="M33693 36733
L32535 36733
" />
<path d="M32535 36733
L32535 36353
" />
<path d="M39552 27957
L40710 27957
" />
<path d="M40710 27957
L40710 28337
" />
<path d="M40710 28337
L39552 28337
" />
<path d="M39552 28337
L39552 27957
" />
<path d="M35986 28357
L34828 28357
" />
<path d="M34828 28357
L34828 27977
" />
<path d="M34828 27977
L35986 27977
" />
<path d="M35986 27977
L35986 28357
" />
<path d="M35754 29419
L35754 30577
" />
<path d="M35754 30577
L35374 30577
" />
<path d="M35374 30577
L35374 29419
" />
<path d="M35374 29419
L35754 29419
" />
<path d="M37644 31505
L37644 32663
" />
<path d="M37644 32663
L37264 32663
" />
<path d="M37264 32663
L37264 31505
" />
<path d="M37264 31505
L37644 31505
" />
<path d="M38156 31505
L38156 32663
" />
<path d="M38156 32663
L37776 32663
" />
<path d="M37776 32663
L37776 31505
" />
<path d="M37776 31505
L38156 31505
" />
<path d="M35374 31502
L35374 30344
" />
<path d="M35374 30344
L35754 30344
" />
<path d="M35754 30344
L35754 31502
" />
<path d="M35754 31502
L35374 31502
" />
<path d="M39552 28469
L40710 28469
" />
<path d="M40710 28469
L40710 28849
" />
<path d="M40710 28849
L39552 28849
" />
<path d="M39552 28849
L39552 28469
" />
<path d="M36969 27348
L36969 26190
" />
<path d="M36969 26190
L37349 26190
" />
<path d="M37349 26190
L37349 27348
" />
<path d="M37349 27348
L36969 27348
" />
<path d="M35986 28849
L34828 28849
" />
<path d="M34828 28849
L34828 28469
" />
<path d="M34828 28469
L35986 28469
" />
<path d="M35986 28469
L35986 28849
" />
<path d="M38111 27348
L38111 26190
" />
<path d="M38111 26190
L38491 26190
" />
<path d="M38491 26190
L38491 27348
" />
<path d="M38491 27348
L38111 27348
" />
<path d="M38268 33175
L38268 32017
" />
<path d="M38268 32017
L38648 32017
" />
<path d="M38648 32017
L38648 33175
" />
<path d="M38648 33175
L38268 33175
" />
<path d="M32623 27977
L33781 27977
" />
<path d="M33781 27977
L33781 28357
" />
<path d="M33781 28357
L32623 28357
" />
<path d="M32623 28357
L32623 27977
" />
<path d="M28642 28490
L28642 27332
" />
<path d="M28642 27332
L29022 27332
" />
<path d="M29022 27332
L29022 28490
" />
<path d="M29022 28490
L28642 28490
" />
<path d="M28845 29419
L28845 30577
" />
<path d="M28845 30577
L28465 30577
" />
<path d="M28465 30577
L28465 29419
" />
<path d="M28465 29419
L28845 29419
" />
<path d="M30617 31486
L30617 32644
" />
<path d="M30617 32644
L30237 32644
" />
<path d="M30237 32644
L30237 31486
" />
<path d="M30237 31486
L30617 31486
" />
<path d="M31207 31486
L31207 32644
" />
<path d="M31207 32644
L30827 32644
" />
<path d="M30827 32644
L30827 31486
" />
<path d="M30827 31486
L31207 31486
" />
<path d="M28465 31502
L28465 30344
" />
<path d="M28465 30344
L28845 30344
" />
<path d="M28845 30344
L28845 31502
" />
<path d="M28845 31502
L28465 31502
" />
<path d="M32623 28469
L33781 28469
" />
<path d="M33781 28469
L33781 28849
" />
<path d="M33781 28849
L32623 28849
" />
<path d="M32623 28849
L32623 28469
" />
<path d="M29961 27368
L29961 26210
" />
<path d="M29961 26210
L30341 26210
" />
<path d="M30341 26210
L30341 27368
" />
<path d="M30341 27368
L29961 27368
" />
<path d="M31339 27368
L31339 26210
" />
<path d="M31339 26210
L31719 26210
" />
<path d="M31719 26210
L31719 27368
" />
<path d="M31719 27368
L31339 27368
" />
<path d="M28486 28948
L27328 28948
" />
<path d="M27328 28948
L27328 28568
" />
<path d="M27328 28568
L28486 28568
" />
<path d="M28486 28568
L28486 28948
" />
<path d="M31300 33155
L31300 31997
" />
<path d="M31300 31997
L31680 31997
" />
<path d="M31680 31997
L31680 33155
" />
<path d="M31680 33155
L31300 33155
" />
<path d="M15197 34396
L15197 33238
" />
<path d="M15197 33238
L15577 33238
" />
<path d="M15577 33238
L15577 34396
" />
<path d="M15577 34396
L15197 34396
" />
<path d="M11522 33749
L11522 34907
" />
<path d="M11522 34907
L11142 34907
" />
<path d="M11142 34907
L11142 33749
" />
<path d="M11142 33749
L11522 33749
" />
<path d="M11030 35324
L11030 36482
" />
<path d="M11030 36482
L10650 36482
" />
<path d="M10650 36482
L10650 35324
" />
<path d="M10650 35324
L11030 35324
" />
<path d="M13136 37007
L13136 38165
" />
<path d="M13136 38165
L12756 38165
" />
<path d="M12756 38165
L12756 37007
" />
<path d="M12756 37007
L13136 37007
" />
<path d="M12461 33234
L12461 32076
" />
<path d="M12461 32076
L12841 32076
" />
<path d="M12841 32076
L12841 33234
" />
<path d="M12841 33234
L12461 33234
" />
<path d="M11522 35738
L11522 36896
" />
<path d="M11522 36896
L11142 36896
" />
<path d="M11142 36896
L11142 35738
" />
<path d="M11142 35738
L11522 35738
" />
<path d="M16069 32726
L16069 33884
" />
<path d="M16069 33884
L15689 33884
" />
<path d="M15689 33884
L15689 32726
" />
<path d="M15689 32726
L16069 32726
" />
<path d="M13937 33234
L13937 32076
" />
<path d="M13937 32076
L14317 32076
" />
<path d="M14317 32076
L14317 33234
" />
<path d="M14317 33234
L13937 33234
" />
<path d="M10650 35419
L10650 34261
" />
<path d="M10650 34261
L11030 34261
" />
<path d="M11030 34261
L11030 35419
" />
<path d="M11030 35419
L10650 35419
" />
<path d="M10650 37407
L10650 36249
" />
<path d="M10650 36249
L11030 36249
" />
<path d="M11030 36249
L11030 37407
" />
<path d="M11030 37407
L10650 37407
" />
<path d="M15409 35861
L16567 35861
" />
<path d="M16567 35861
L16567 36241
" />
<path d="M16567 36241
L15409 36241
" />
<path d="M15409 36241
L15409 35861
" />
<path d="M8185 34396
L8185 33238
" />
<path d="M8185 33238
L8565 33238
" />
<path d="M8565 33238
L8565 34396
" />
<path d="M8565 34396
L8185 34396
" />
<path d="M4377 33749
L4377 34907
" />
<path d="M4377 34907
L3997 34907
" />
<path d="M3997 34907
L3997 33749
" />
<path d="M3997 33749
L4377 33749
" />
<path d="M3884 35324
L3884 36482
" />
<path d="M3884 36482
L3504 36482
" />
<path d="M3504 36482
L3504 35324
" />
<path d="M3504 35324
L3884 35324
" />
<path d="M9042 35068
L9042 36226
" />
<path d="M9042 36226
L8662 36226
" />
<path d="M8662 36226
L8662 35068
" />
<path d="M8662 35068
L9042 35068
" />
<path d="M8662 37152
L8662 35994
" />
<path d="M8662 35994
L9042 35994
" />
<path d="M9042 35994
L9042 37152
" />
<path d="M9042 37152
L8662 37152
" />
<path d="M6851 27368
L6851 26210
" />
<path d="M6851 26210
L7231 26210
" />
<path d="M7231 26210
L7231 27368
" />
<path d="M7231 27368
L6851 27368
" />
<path d="M7580 32926
L8738 32926
" />
<path d="M8738 32926
L8738 33306
" />
<path d="M8738 33306
L7580 33306
" />
<path d="M7580 33306
L7580 32926
" />
<path d="M5335 33057
L5335 31899
" />
<path d="M5335 31899
L5715 31899
" />
<path d="M5715 31899
L5715 33057
" />
<path d="M5715 33057
L5335 33057
" />
<path d="M3504 35419
L3504 34261
" />
<path d="M3504 34261
L3884 34261
" />
<path d="M3884 34261
L3884 35419
" />
<path d="M3884 35419
L3504 35419
" />
<path d="M3504 37407
L3504 36249
" />
<path d="M3504 36249
L3884 36249
" />
<path d="M3884 36249
L3884 37407
" />
<path d="M3884 37407
L3504 37407
" />
<path d="M6138 37007
L6138 38165
" />
<path d="M6138 38165
L5758 38165
" />
<path d="M5758 38165
L5758 37007
" />
<path d="M5758 37007
L6138 37007
" />
<path d="M15399 27977
L16557 27977
" />
<path d="M16557 27977
L16557 28357
" />
<path d="M16557 28357
L15399 28357
" />
<path d="M15399 28357
L15399 27977
" />
<path d="M11498 28357
L10340 28357
" />
<path d="M10340 28357
L10340 27977
" />
<path d="M10340 27977
L11498 27977
" />
<path d="M11498 27977
L11498 28357
" />
<path d="M11050 29419
L11050 30577
" />
<path d="M11050 30577
L10670 30577
" />
<path d="M10670 30577
L10670 29419
" />
<path d="M10670 29419
L11050 29419
" />
<path d="M13333 31564
L13333 32722
" />
<path d="M13333 32722
L12953 32722
" />
<path d="M12953 32722
L12953 31564
" />
<path d="M12953 31564
L13333 31564
" />
<path d="M13825 31564
L13825 32722
" />
<path d="M13825 32722
L13445 32722
" />
<path d="M13445 32722
L13445 31564
" />
<path d="M13445 31564
L13825 31564
" />
<path d="M11542 29832
L11542 30990
" />
<path d="M11542 30990
L11162 30990
" />
<path d="M11162 30990
L11162 29832
" />
<path d="M11162 29832
L11542 29832
" />
<path d="M15399 28469
L16557 28469
" />
<path d="M16557 28469
L16557 28849
" />
<path d="M16557 28849
L15399 28849
" />
<path d="M15399 28849
L15399 28469
" />
<path d="M12914 27368
L12914 26210
" />
<path d="M12914 26210
L13294 26210
" />
<path d="M13294 26210
L13294 27368
" />
<path d="M13294 27368
L12914 27368
" />
<path d="M10670 31502
L10670 30344
" />
<path d="M10670 30344
L11050 30344
" />
<path d="M11050 30344
L11050 31502
" />
<path d="M11050 31502
L10670 31502
" />
<path d="M11498 28849
L10340 28849
" />
<path d="M10340 28849
L10340 28469
" />
<path d="M10340 28469
L11498 28469
" />
<path d="M11498 28469
L11498 28849
" />
<path d="M15291 30251
L16449 30251
" />
<path d="M16449 30251
L16449 30631
" />
<path d="M16449 30631
L15291 30631
" />
<path d="M15291 30631
L15291 30251
" />
<path d="M8214 27977
L9372 27977
" />
<path d="M9372 27977
L9372 28357
" />
<path d="M9372 28357
L8214 28357
" />
<path d="M8214 28357
L8214 27977
" />
<path d="M4451 28357
L3293 28357
" />
<path d="M3293 28357
L3293 27977
" />
<path d="M3293 27977
L4451 27977
" />
<path d="M4451 27977
L4451 28357
" />
<path d="M3914 29192
L3914 30350
" />
<path d="M3914 30350
L3534 30350
" />
<path d="M3534 30350
L3534 29192
" />
<path d="M3534 29192
L3914 29192
" />
<path d="M6207 31387
L6207 32545
" />
<path d="M6207 32545
L5827 32545
" />
<path d="M5827 32545
L5827 31387
" />
<path d="M5827 31387
L6207 31387
" />
<path d="M6778 31387
L6778 32545
" />
<path d="M6778 32545
L6398 32545
" />
<path d="M6398 32545
L6398 31387
" />
<path d="M6398 31387
L6778 31387
" />
<path d="M8214 30142
L9372 30142
" />
<path d="M9372 30142
L9372 30522
" />
<path d="M9372 30522
L8214 30522
" />
<path d="M8214 30522
L8214 30142
" />
<path d="M8214 28469
L9372 28469
" />
<path d="M9372 28469
L9372 28849
" />
<path d="M9372 28849
L8214 28849
" />
<path d="M8214 28849
L8214 28469
" />
<path d="M6890 33057
L6890 31899
" />
<path d="M6890 31899
L7270 31899
" />
<path d="M7270 31899
L7270 33057
" />
<path d="M7270 33057
L6890 33057
" />
<path d="M4451 28849
L3293 28849
" />
<path d="M3293 28849
L3293 28469
" />
<path d="M3293 28469
L4451 28469
" />
<path d="M4451 28469
L4451 28849
" />
<path d="M4741 30501
L4741 31659
" />
<path d="M4741 31659
L4361 31659
" />
<path d="M4361 31659
L4361 30501
" />
<path d="M4361 30501
L4741 30501
" />
<path d="M5512 27368
L5512 26210
" />
<path d="M5512 26210
L5892 26210
" />
<path d="M5892 26210
L5892 27368
" />
<path d="M5892 27368
L5512 27368
" />
<path d="M33721 20813
L33721 19655
" />
<path d="M33721 19655
L34495 19655
" />
<path d="M34495 19655
L34495 20813
" />
<path d="M34495 20813
L33721 20813
" />
<path d="M33825 19655
L33825 20813
" />
<path d="M33825 20813
L33051 20813
" />
<path d="M33051 20813
L33051 19655
" />
<path d="M33051 19655
L33825 19655
" />
<path d="M40248 19705
L39090 19705
" />
<path d="M39090 19705
L39090 19325
" />
<path d="M39090 19325
L40248 19325
" />
<path d="M40248 19325
L40248 19705
" />
<path d="M38643 18771
L37485 18771
" />
<path d="M37485 18771
L37485 17997
" />
<path d="M37485 17997
L38643 17997
" />
<path d="M38643 17997
L38643 18771
" />
<path d="M38824 17997
L39982 17997
" />
<path d="M39982 17997
L39982 18771
" />
<path d="M39982 18771
L38824 18771
" />
<path d="M38824 18771
L38824 17997
" />
<path d="M22387 39237
L23545 39237
" />
<path d="M23545 39237
L23545 40011
" />
<path d="M23545 40011
L22387 40011
" />
<path d="M22387 40011
L22387 39237
" />
<path d="M22387 38646
L23545 38646
" />
<path d="M23545 38646
L23545 39420
" />
<path d="M23545 39420
L22387 39420
" />
<path d="M22387 39420
L22387 38646
" />
<path d="M32073 20915
L32073 22073
" />
<path d="M32073 22073
L31693 22073
" />
<path d="M31693 22073
L31693 20915
" />
<path d="M31693 20915
L32073 20915
" />
<path d="M34293 23377
L33135 23377
" />
<path d="M33135 23377
L33135 22603
" />
<path d="M33135 22603
L34293 22603
" />
<path d="M34293 22603
L34293 23377
" />
<path d="M39877 14926
L41035 14926
" />
<path d="M41035 14926
L41035 15700
" />
<path d="M41035 15700
L39877 15700
" />
<path d="M39877 15700
L39877 14926
" />
<path d="M9193 7427
L9193 6269
" />
<path d="M9193 6269
L9573 6269
" />
<path d="M9573 6269
L9573 7427
" />
<path d="M9573 7427
L9193 7427
" />
<path d="M33445 7427
L33445 6269
" />
<path d="M33445 6269
L33825 6269
" />
<path d="M33825 6269
L33825 7427
" />
<path d="M33825 7427
L33445 7427
" />
<path d="M35282 35324
L35282 36482
" />
<path d="M35282 36482
L34902 36482
" />
<path d="M34902 36482
L34902 35324
" />
<path d="M34902 35324
L35282 35324
" />
<path d="M10538 35324
L10538 36482
" />
<path d="M10538 36482
L10158 36482
" />
<path d="M10158 36482
L10158 35324
" />
<path d="M10158 35324
L10538 35324
" />
<path d="M16260 7427
L16260 6269
" />
<path d="M16260 6269
L16640 6269
" />
<path d="M16640 6269
L16640 7427
" />
<path d="M16640 7427
L16260 7427
" />
<path d="M40237 7427
L40237 6269
" />
<path d="M40237 6269
L40617 6269
" />
<path d="M40617 6269
L40617 7427
" />
<path d="M40617 7427
L40237 7427
" />
<path d="M28215 35324
L28215 36482
" />
<path d="M28215 36482
L27835 36482
" />
<path d="M27835 36482
L27835 35324
" />
<path d="M27835 35324
L28215 35324
" />
<path d="M3392 35324
L3392 36482
" />
<path d="M3392 36482
L3012 36482
" />
<path d="M3012 36482
L3012 35324
" />
<path d="M3012 35324
L3392 35324
" />
<path d="M9115 13313
L9115 12155
" />
<path d="M9115 12155
L9495 12155
" />
<path d="M9495 12155
L9495 13313
" />
<path d="M9495 13313
L9115 13313
" />
<path d="M33485 13333
L33485 12175
" />
<path d="M33485 12175
L33865 12175
" />
<path d="M33865 12175
L33865 13333
" />
<path d="M33865 13333
L33485 13333
" />
<path d="M35262 29419
L35262 30577
" />
<path d="M35262 30577
L34882 30577
" />
<path d="M34882 30577
L34882 29419
" />
<path d="M34882 29419
L35262 29419
" />
<path d="M10558 29419
L10558 30577
" />
<path d="M10558 30577
L10178 30577
" />
<path d="M10178 30577
L10178 29419
" />
<path d="M10178 29419
L10558 29419
" />
<path d="M15591 12821
L15591 11663
" />
<path d="M15591 11663
L15971 11663
" />
<path d="M15971 11663
L15971 12821
" />
<path d="M15971 12821
L15591 12821
" />
<path d="M40064 12800
L41222 12800
" />
<path d="M41222 12800
L41222 13180
" />
<path d="M41222 13180
L40064 13180
" />
<path d="M40064 13180
L40064 12800
" />
<path d="M28353 29419
L28353 30577
" />
<path d="M28353 30577
L27973 30577
" />
<path d="M27973 30577
L27973 29419
" />
<path d="M27973 29419
L28353 29419
" />
<path d="M3422 29192
L3422 30350
" />
<path d="M3422 30350
L3042 30350
" />
<path d="M3042 30350
L3042 29192
" />
<path d="M3042 29192
L3422 29192
" />
<path d="M37192 16938
L37192 18096
" />
<path d="M37192 18096
L36418 18096
" />
<path d="M36418 18096
L36418 16938
" />
<path d="M36418 16938
L37192 16938
" />
<path d="M40650 15026
L40650 13868
" />
<path d="M40650 13868
L41424 13868
" />
<path d="M41424 13868
L41424 15026
" />
<path d="M41424 15026
L40650 15026
" />
<path d="M32422 23234
L32422 22076
" />
<path d="M32422 22076
L33196 22076
" />
<path d="M33196 22076
L33196 23234
" />
<path d="M33196 23234
L32422 23234
" />
<path d="M21557 3582
L20399 3582
" />
<path d="M20399 3582
L20399 2808
" />
<path d="M20399 2808
L21557 2808
" />
<path d="M21557 2808
L21557 3582
" />
<path d="M21557 4141
L20399 4141
" />
<path d="M20399 4141
L20399 3367
" />
<path d="M20399 3367
L21557 3367
" />
<path d="M21557 3367
L21557 4141
" />
<path d="M5832 4020
L6990 4020
" />
<path d="M6990 4020
L6990 4400
" />
<path d="M6990 4400
L5832 4400
" />
<path d="M5832 4400
L5832 4020
" />
<path d="M12919 4001
L14077 4001
" />
<path d="M14077 4001
L14077 4381
" />
<path d="M14077 4381
L12919 4381
" />
<path d="M12919 4381
L12919 4001
" />
<path d="M5714 10694
L6872 10694
" />
<path d="M6872 10694
L6872 11074
" />
<path d="M6872 11074
L5714 11074
" />
<path d="M5714 11074
L5714 10694
" />
<path d="M13801 11113
L12643 11113
" />
<path d="M12643 11113
L12643 10733
" />
<path d="M12643 10733
L13801 10733
" />
<path d="M13801 10733
L13801 11113
" />
<path d="M31463 3454
L31463 4612
" />
<path d="M31463 4612
L31083 4612
" />
<path d="M31083 4612
L31083 3454
" />
<path d="M31083 3454
L31463 3454
" />
<path d="M37190 4316
L38348 4316
" />
<path d="M38348 4316
L38348 4696
" />
<path d="M38348 4696
L37190 4696
" />
<path d="M37190 4696
L37190 4316
" />
<path d="M31143 10129
L29985 10129
" />
<path d="M29985 10129
L29985 9749
" />
<path d="M29985 9749
L31143 9749
" />
<path d="M31143 9749
L31143 10129
" />
<path d="M37111 9808
L38269 9808
" />
<path d="M38269 9808
L38269 10188
" />
<path d="M38269 10188
L37111 10188
" />
<path d="M37111 10188
L37111 9808
" />
<path d="M38191 38711
L37033 38711
" />
<path d="M37033 38711
L37033 38331
" />
<path d="M37033 38331
L38191 38331
" />
<path d="M38191 38331
L38191 38711
" />
<path d="M31577 39223
L30419 39223
" />
<path d="M30419 39223
L30419 38843
" />
<path d="M30419 38843
L31577 38843
" />
<path d="M31577 38843
L31577 39223
" />
<path d="M37131 32623
L38289 32623
" />
<path d="M38289 32623
L38289 33003
" />
<path d="M38289 33003
L37131 33003
" />
<path d="M37131 33003
L37131 32623
" />
<path d="M32172 31486
L32172 32644
" />
<path d="M32172 32644
L31792 32644
" />
<path d="M31792 32644
L31792 31486
" />
<path d="M31792 31486
L32172 31486
" />
<path d="M12737 39317
L12737 38159
" />
<path d="M12737 38159
L13117 38159
" />
<path d="M13117 38159
L13117 39317
" />
<path d="M13117 39317
L12737 39317
" />
<path d="M6695 38711
L5537 38711
" />
<path d="M5537 38711
L5537 38331
" />
<path d="M5537 38331
L6695 38331
" />
<path d="M6695 38331
L6695 38711
" />
<path d="M12820 32682
L13978 32682
" />
<path d="M13978 32682
L13978 33062
" />
<path d="M13978 33062
L12820 33062
" />
<path d="M12820 33062
L12820 32682
" />
<path d="M7762 31387
L7762 32545
" />
<path d="M7762 32545
L7382 32545
" />
<path d="M7382 32545
L7382 31387
" />
<path d="M7382 31387
L7762 31387
" />
<path d="M34252 24750
L34252 23592
" />
<path d="M34252 23592
L34632 23592
" />
<path d="M34632 23592
L34632 24750
" />
<path d="M34632 24750
L34252 24750
" />
<path d="M33117 23375
L33117 24533
" />
<path d="M33117 24533
L32737 24533
" />
<path d="M32737 24533
L32737 23375
" />
<path d="M32737 23375
L33117 23375
" />
<path d="M32644 23375
L32644 24533
" />
<path d="M32644 24533
L32264 24533
" />
<path d="M32264 24533
L32264 23375
" />
<path d="M32264 23375
L32644 23375
" />
</g> 
</svg>
