M48
INCH,TZ
T1C0.012
T2C0.014
T3C0.055
T4C0.157
%
G90
G05
T1
X39183Y-49990
X39203Y-51722
X39429Y-53898
X39449Y-56476
X39459Y-32234
X39804Y-28386
X39824Y-34291
X39882Y-48406
X39941Y-56319
X40039Y-26319
X40059Y-54035
X40197Y-54546
X40285Y-50925
X40295Y-29016
X40315Y-34902
X40335Y-27453
X40343Y-33366
X40374Y-32992
X40374Y-47815
X40433Y-26988
X40531Y-25128
X40807Y-25404
X41358Y-51319
X41358Y-53022
X41407Y-57402
X41457Y-60571
X41644Y-48356
X41644Y-48789
X41644Y-49222
X41644Y-49656
X41644Y-50089
X41644Y-54262
X41644Y-54695
X41644Y-55128
X41644Y-55561
X41644Y-55994
X41654Y-26693
X41654Y-27126
X41654Y-27539
X41654Y-27972
X41654Y-28406
X41654Y-32598
X41654Y-33031
X41654Y-33445
X41654Y-33878
X41654Y-34311
X41693Y-29705
X41693Y-51319
X41693Y-53022
X41772Y-36516
X41791Y-57254
X41949Y-46161
X42028Y-25276
X42047Y-31260
X42077Y-48356
X42077Y-48789
X42077Y-49222
X42077Y-49656
X42077Y-50089
X42077Y-54262
X42077Y-54695
X42077Y-55128
X42077Y-55561
X42077Y-55994
X42087Y-26693
X42087Y-27126
X42087Y-27539
X42087Y-27972
X42087Y-28406
X42087Y-32598
X42087Y-33031
X42087Y-33445
X42087Y-33878
X42087Y-34311
X42195Y-58071
X42421Y-31319
X42451Y-23701
X42510Y-48356
X42510Y-48789
X42510Y-49222
X42510Y-49222
X42510Y-54262
X42510Y-54695
X42510Y-55128
X42510Y-55128
X42520Y-26693
X42520Y-27126
X42520Y-27539
X42520Y-27559
X42520Y-30393
X42520Y-32598
X42520Y-33031
X42520Y-33445
X42520Y-33465
X42520Y-49213
X42520Y-49232
X42520Y-49646
X42520Y-50079
X42520Y-55118
X42520Y-55138
X42520Y-55551
X42520Y-55984
X42530Y-27549
X42530Y-27549
X42530Y-27982
X42530Y-28415
X42530Y-33455
X42530Y-33455
X42530Y-33888
X42530Y-34321
X42539Y-52184
X42618Y-58169
X42906Y-24563
X42953Y-48366
X42953Y-48799
X42953Y-49232
X42953Y-49646
X42953Y-50079
X42953Y-54272
X42953Y-54705
X42953Y-55138
X42953Y-55551
X42953Y-55984
X42963Y-26683
X42963Y-27116
X42963Y-27549
X42963Y-27982
X42963Y-28415
X42963Y-32589
X42963Y-33022
X42963Y-33455
X42963Y-33888
X42963Y-34321
X43091Y-57303
X43179Y-59705
X43209Y-36535
X43287Y-46181
X43386Y-48366
X43386Y-48799
X43386Y-49232
X43386Y-49646
X43386Y-50079
X43386Y-54272
X43386Y-54705
X43386Y-55138
X43386Y-55551
X43386Y-55984
X43396Y-26683
X43396Y-27116
X43396Y-27549
X43396Y-27982
X43396Y-28415
X43396Y-32589
X43396Y-33022
X43396Y-33455
X43396Y-33888
X43396Y-34321
X43398Y-29717
X43406Y-31287
X43425Y-22146
X43593Y-59006
X43673Y-29689
X43677Y-31311
X43760Y-51752
X43917Y-24984
X43980Y-24555
X44094Y-51358
X44130Y-57307
X44146Y-35937
X44331Y-59390
X44390Y-58445
X44394Y-35646
X44626Y-58701
X44646Y-49311
X44646Y-55610
X44665Y-54311
X44665Y-55217
X44681Y-53311
X44685Y-49685
X44705Y-28957
X44705Y-34882
X44783Y-47795
X45059Y-32205
X45079Y-56083
X45138Y-26299
X45197Y-34272
X45217Y-28366
X45294Y-48366
X45394Y-60571
X45551Y-32106
X45610Y-50295
X45630Y-26181
X45856Y-57549
X46004Y-46781
X46102Y-23720
X46102Y-28839
X46122Y-57805
X46260Y-47077
X46398Y-23976
X46398Y-27264
X46594Y-56457
X46614Y-50531
X46673Y-24331
X46673Y-27618
X46909Y-48406
X46949Y-34803
X46969Y-28406
X47106Y-26575
X47126Y-32244
X47185Y-54035
X47224Y-33366
X47323Y-54546
X47343Y-50629
X47343Y-56535
X47362Y-22146
X47421Y-47795
X47421Y-53484
X47429Y-33591
X47461Y-34213
X47480Y-27264
X47480Y-29016
X47500Y-27618
X47913Y-25276
X47913Y-31280
X47972Y-59016
X48189Y-45098
X48199Y-51329
X48199Y-53002
X48415Y-47067
X48465Y-51486
X48465Y-52795
X48524Y-57785
X48583Y-45098
X48602Y-46781
X48730Y-48356
X48730Y-48789
X48730Y-49222
X48730Y-49656
X48730Y-50089
X48730Y-54262
X48730Y-54695
X48730Y-55128
X48730Y-55561
X48730Y-55994
X48740Y-26693
X48740Y-27126
X48740Y-27539
X48740Y-27972
X48740Y-28406
X48740Y-32598
X48740Y-33031
X48740Y-33445
X48740Y-33878
X48740Y-34311
X48780Y-29685
X48789Y-57559
X48799Y-36516
X48976Y-45098
X49114Y-25276
X49163Y-48356
X49163Y-48789
X49163Y-49222
X49163Y-49656
X49163Y-50089
X49163Y-54262
X49163Y-54695
X49163Y-55128
X49163Y-55561
X49163Y-55994
X49173Y-26693
X49173Y-27126
X49173Y-27539
X49173Y-27972
X49173Y-28406
X49173Y-32598
X49173Y-33031
X49173Y-33445
X49173Y-33878
X49173Y-34311
X49183Y-58140
X49193Y-41949
X49193Y-42343
X49193Y-42736
X49193Y-43130
X49213Y-31280
X49331Y-60571
X49350Y-46161
X49350Y-52854
X49370Y-45098
X49449Y-30432
X49508Y-23720
X49508Y-31220
X49587Y-41949
X49587Y-42343
X49587Y-42736
X49587Y-43130
X49596Y-48356
X49596Y-48789
X49596Y-49222
X49596Y-49222
X49596Y-54262
X49596Y-54695
X49596Y-55128
X49596Y-55128
X49606Y-26693
X49606Y-27126
X49606Y-27539
X49606Y-27559
X49606Y-32598
X49606Y-33031
X49606Y-33445
X49606Y-33465
X49606Y-49213
X49606Y-49232
X49606Y-49646
X49606Y-50079
X49606Y-55118
X49606Y-55138
X49606Y-55551
X49606Y-55984
X49616Y-27549
X49616Y-27549
X49616Y-27982
X49616Y-28415
X49616Y-33455
X49616Y-33455
X49616Y-33888
X49616Y-34321
X49626Y-52361
X49705Y-51437
X49764Y-45098
X49921Y-58051
X49921Y-59016
X50039Y-48366
X50039Y-48799
X50039Y-49232
X50039Y-49646
X50039Y-50079
X50039Y-54272
X50039Y-54705
X50039Y-55138
X50039Y-55551
X50039Y-55984
X50049Y-26683
X50049Y-27116
X50049Y-27549
X50049Y-27982
X50049Y-28415
X50049Y-32589
X50049Y-33022
X50049Y-33455
X50049Y-33888
X50049Y-34321
X50098Y-51516
X50098Y-57303
X50138Y-24488
X50142Y-36555
X50157Y-45098
X50441Y-31374
X50445Y-29634
X50472Y-48366
X50472Y-48799
X50472Y-49232
X50472Y-49646
X50472Y-50079
X50472Y-54272
X50472Y-54705
X50472Y-55138
X50472Y-55551
X50472Y-55984
X50482Y-26683
X50482Y-27116
X50482Y-27549
X50482Y-27982
X50482Y-28415
X50482Y-32589
X50482Y-33022
X50482Y-33455
X50482Y-33888
X50482Y-34321
X50492Y-35657
X50551Y-45098
X50717Y-35937
X50752Y-29642
X50752Y-31366
X50768Y-41949
X50768Y-42343
X50768Y-42736
X50768Y-43130
X50945Y-45098
X51098Y-24618
X51161Y-41949
X51161Y-42343
X51161Y-42736
X51161Y-43130
X51181Y-24882
X51299Y-22146
X51339Y-45098
X51504Y-58445
X51535Y-32264
X51732Y-28957
X51732Y-45098
X51744Y-49496
X51764Y-55213
X51791Y-49862
X51791Y-58701
X51850Y-34035
X51850Y-55630
X51890Y-53525
X51969Y-34547
X52008Y-47717
X52008Y-54035
X52028Y-31614
X52126Y-45098
X52205Y-26299
X52224Y-28386
X52480Y-48406
X52569Y-50404
X52697Y-26201
X52707Y-56014
X52992Y-31024
X52992Y-32992
X52992Y-34961
X52992Y-36732
X53268Y-60571
X53425Y-41949
X53425Y-42343
X53425Y-42736
X53425Y-43130
X53661Y-36732
X53819Y-41949
X53819Y-42343
X53819Y-42736
X53819Y-43130
X54134Y-30984
X54134Y-48327
X54134Y-49508
X54134Y-51083
X55000Y-41949
X55000Y-42343
X55000Y-42736
X55000Y-43130
X55118Y-48327
X55118Y-48720
X55118Y-49114
X55118Y-49508
X55197Y-33110
X55236Y-22146
X55394Y-41949
X55394Y-42343
X55394Y-42736
X55394Y-43130
X55591Y-33110
X55984Y-33110
X56063Y-47480
X56063Y-60276
X56083Y-59341
X56142Y-22539
X56378Y-33110
X56535Y-60276
X56545Y-59341
X56614Y-22539
X56772Y-33110
X56969Y-47618
X56988Y-47323
X57008Y-60276
X57087Y-22539
X57165Y-33110
X57165Y-51555
X57342Y-47323
X57343Y-47618
X57437Y-36828
X57441Y-60276
X57559Y-22539
X57559Y-33110
X57689Y-45579
X57717Y-47323
X57717Y-47618
X57874Y-23725
X57953Y-48268
X58031Y-31083
X58583Y-58996
X58937Y-60217
X59016Y-34390
X59035Y-22461
X59055Y-51555
X59291Y-35394
X59311Y-35098
X59409Y-60217
X59449Y-49626
X59484Y-36946
X59488Y-22461
X59641Y-45804
X59665Y-35098
X59665Y-35394
X59843Y-49626
X59882Y-31083
X59882Y-60217
X59921Y-22480
X60039Y-35098
X60039Y-35394
X60236Y-49626
X60354Y-60217
X60374Y-22500
X60374Y-22953
X60374Y-23366
X60630Y-49626
X61024Y-35315
X61024Y-49626
X61142Y-60571
X61417Y-49626
X61811Y-49626
X61988Y-34705
X62224Y-33169
X62224Y-33563
X62224Y-33957
X62224Y-34350
X62520Y-42559
X62579Y-45610
X62913Y-22146
X63071Y-51575
X63307Y-31378
X63307Y-32953
X63307Y-34705
X63425Y-41181
X63425Y-41575
X63425Y-41969
X63583Y-57549
X63701Y-44350
X63701Y-46319
X63701Y-48287
X63701Y-51043
X63819Y-57795
X64154Y-23976
X64154Y-32047
X64173Y-28917
X64232Y-34823
X64272Y-56437
X64292Y-54272
X64390Y-45610
X64409Y-50551
X64429Y-27264
X64469Y-25906
X64567Y-37776
X64567Y-43996
X64587Y-45059
X64685Y-28307
X64685Y-32953
X64724Y-34193
X64764Y-47618
X64764Y-48130
X64764Y-56339
X64791Y-33370
X64803Y-24252
X64803Y-27539
X64803Y-53681
X65079Y-42559
X65079Y-60571
X65128Y-35860
X65150Y-24890
X65315Y-38543
X65374Y-35634
X65382Y-24610
X65433Y-43799
X65579Y-53016
X65581Y-51339
X65669Y-47106
X65709Y-38543
X65728Y-46801
X65807Y-51484
X65807Y-52870
X66004Y-57793
X66053Y-48356
X66053Y-48789
X66053Y-49222
X66053Y-49656
X66053Y-50089
X66053Y-54262
X66053Y-54695
X66053Y-55128
X66053Y-55561
X66053Y-55994
X66063Y-26693
X66063Y-27126
X66063Y-27539
X66063Y-27972
X66063Y-28406
X66063Y-32598
X66063Y-33031
X66063Y-33445
X66063Y-33878
X66063Y-34311
X66102Y-38543
X66142Y-36457
X66272Y-57549
X66398Y-46142
X66437Y-25276
X66437Y-31299
X66486Y-48356
X66486Y-48789
X66486Y-49222
X66486Y-49656
X66486Y-50089
X66486Y-54262
X66486Y-54695
X66486Y-55128
X66486Y-55561
X66486Y-55994
X66496Y-26693
X66496Y-27126
X66496Y-27539
X66496Y-27972
X66496Y-28406
X66496Y-32598
X66496Y-33031
X66496Y-33445
X66496Y-33878
X66496Y-34311
X66496Y-38543
X66535Y-37776
X66535Y-43760
X66654Y-58055
X66693Y-39232
X66693Y-39626
X66693Y-40020
X66821Y-60059
X66831Y-23720
X66831Y-25020
X66831Y-30355
X66850Y-22146
X66919Y-48356
X66919Y-48789
X66919Y-49222
X66919Y-49222
X66919Y-54262
X66919Y-54695
X66919Y-55128
X66919Y-55128
X66929Y-26693
X66929Y-27126
X66929Y-27539
X66929Y-27559
X66929Y-32598
X66929Y-33031
X66929Y-33445
X66929Y-33465
X66929Y-49213
X66929Y-49232
X66929Y-49646
X66929Y-50079
X66929Y-55118
X66929Y-55138
X66929Y-55551
X66929Y-55984
X66939Y-27549
X66939Y-27549
X66939Y-27982
X66939Y-28415
X66939Y-33455
X66939Y-33455
X66939Y-33888
X66939Y-34321
X66949Y-52283
X67008Y-51339
X67087Y-39232
X67087Y-39626
X67087Y-40020
X67126Y-30000
X67126Y-31339
X67185Y-59528
X67264Y-36480
X67362Y-42992
X67362Y-48366
X67362Y-48799
X67362Y-49232
X67362Y-49646
X67362Y-50079
X67362Y-54272
X67362Y-54705
X67362Y-55138
X67362Y-55551
X67362Y-55984
X67372Y-26683
X67372Y-27116
X67372Y-27549
X67372Y-27982
X67372Y-28415
X67372Y-32589
X67372Y-33022
X67372Y-33455
X67372Y-33888
X67372Y-34321
X67421Y-51437
X67421Y-57303
X67520Y-24537
X67646Y-35626
X67756Y-51850
X67776Y-46142
X67795Y-48366
X67795Y-48799
X67795Y-49232
X67795Y-49646
X67795Y-50079
X67795Y-54272
X67795Y-54705
X67795Y-55138
X67795Y-55551
X67795Y-55984
X67795Y-58071
X67795Y-59016
X67805Y-26683
X67805Y-27116
X67805Y-27549
X67805Y-27982
X67805Y-28415
X67805Y-32589
X67805Y-33022
X67805Y-33455
X67805Y-33888
X67805Y-34321
X67953Y-29642
X67953Y-31283
X67953Y-45039
X68012Y-35606
X68031Y-42323
X68051Y-24780
X68110Y-37776
X68169Y-39508
X68189Y-40669
X68209Y-31370
X68213Y-29646
X68248Y-25043
X68543Y-25276
X68543Y-31299
X68543Y-40079
X68543Y-57283
X68563Y-51437
X68799Y-30000
X68819Y-41752
X68831Y-58457
X68858Y-60531
X68898Y-22185
X68937Y-23169
X68976Y-23725
X69071Y-49520
X69075Y-28976
X69075Y-55213
X69134Y-34902
X69193Y-47756
X69203Y-49882
X69252Y-55591
X69252Y-58740
X69272Y-53701
X69272Y-59528
X69350Y-38583
X69409Y-26299
X69449Y-32205
X69449Y-43661
X69469Y-46594
X69567Y-28346
X69626Y-34272
X69685Y-39863
X69724Y-44232
X69724Y-45020
X69783Y-35157
X69783Y-48386
X69793Y-50443
X69813Y-56506
X69843Y-54272
X69882Y-26240
X69911Y-32215
X69961Y-44724
X69980Y-38957
X69980Y-44035
X70197Y-24272
X70197Y-27461
X70295Y-42028
X70327Y-57559
X70413Y-33583
X70453Y-23996
X70453Y-27146
X70561Y-57724
X70571Y-46850
X70650Y-33169
X70679Y-25033
X70846Y-47087
X70896Y-44154
X70935Y-24789
X70945Y-37815
X70984Y-22185
X70984Y-54144
X70984Y-59012
X71063Y-23169
X71083Y-60531
X71093Y-32313
X71202Y-34311
X71250Y-42795
X71261Y-28386
X71319Y-50512
X71339Y-56457
X71398Y-54331
X71417Y-48386
X71457Y-25984
X71496Y-40610
X71535Y-42028
X71594Y-45039
X71713Y-34961
X71772Y-29016
X71811Y-50413
X71831Y-56319
X71870Y-33169
X71870Y-33583
X71878Y-27461
X71890Y-27146
X71890Y-53642
X71909Y-47795
X72008Y-42047
X72165Y-43770
X72215Y-35856
X72343Y-39370
X72382Y-38543
X72469Y-35571
X72530Y-57508
X72594Y-36429
X72598Y-37146
X72642Y-51358
X72646Y-52807
X72724Y-47091
X72736Y-44469
X72795Y-39370
X72795Y-43307
X72825Y-57756
X72866Y-53020
X72890Y-51449
X73012Y-46831
X73071Y-22972
X73110Y-39193
X73130Y-43366
X73140Y-48356
X73140Y-48789
X73140Y-49222
X73140Y-49656
X73140Y-50089
X73140Y-54262
X73140Y-54695
X73140Y-55128
X73140Y-55561
X73140Y-55994
X73150Y-26693
X73150Y-27126
X73150Y-27539
X73150Y-27972
X73150Y-28406
X73150Y-32598
X73150Y-33031
X73150Y-33445
X73150Y-33878
X73150Y-34311
X73189Y-36437
X73386Y-44577
X73406Y-46142
X73494Y-41919
X73524Y-25276
X73524Y-31319
X73533Y-42333
X73543Y-39449
X73573Y-48356
X73573Y-48789
X73573Y-49222
X73573Y-49656
X73573Y-50089
X73573Y-54262
X73573Y-54695
X73573Y-55128
X73573Y-55561
X73573Y-55994
X73583Y-26693
X73583Y-27126
X73583Y-27539
X73583Y-27972
X73583Y-28406
X73583Y-32598
X73583Y-33031
X73583Y-33445
X73583Y-33878
X73583Y-34311
X73614Y-58122
X73661Y-29764
X73681Y-52835
X73770Y-44577
X73799Y-43563
X73898Y-24961
X73917Y-30434
X73917Y-31319
X73957Y-52302
X74006Y-48356
X74006Y-48789
X74006Y-49222
X74006Y-49222
X74006Y-54262
X74006Y-54695
X74006Y-55128
X74006Y-55128
X74016Y-26693
X74016Y-27126
X74016Y-27539
X74016Y-27559
X74016Y-32598
X74016Y-33031
X74016Y-33445
X74016Y-33465
X74016Y-49213
X74016Y-49232
X74016Y-49646
X74016Y-50079
X74016Y-55118
X74016Y-55138
X74016Y-55551
X74016Y-55984
X74026Y-27549
X74026Y-27549
X74026Y-27982
X74026Y-28415
X74026Y-33455
X74026Y-33455
X74026Y-33888
X74026Y-34321
X74114Y-51378
X74114Y-57559
X74114Y-58740
X74163Y-44587
X74394Y-36579
X74449Y-48366
X74449Y-48799
X74449Y-49232
X74449Y-49646
X74449Y-50079
X74449Y-54272
X74449Y-54705
X74449Y-55138
X74449Y-55551
X74449Y-55984
X74459Y-26683
X74459Y-27116
X74459Y-27549
X74459Y-27982
X74459Y-28415
X74459Y-32589
X74459Y-33022
X74459Y-33455
X74459Y-33888
X74459Y-34321
X74508Y-51378
X74508Y-57283
X74547Y-46142
X74551Y-24598
X74783Y-60098
X74804Y-39588
X74882Y-44902
X74882Y-48366
X74882Y-48799
X74882Y-49232
X74882Y-49646
X74882Y-50079
X74882Y-54272
X74882Y-54705
X74882Y-55138
X74882Y-55551
X74882Y-55984
X74892Y-26683
X74892Y-27116
X74892Y-27549
X74892Y-27982
X74892Y-28415
X74892Y-32589
X74892Y-33022
X74892Y-33455
X74892Y-33888
X74892Y-34321
X74909Y-35561
X75000Y-38346
X75020Y-46614
X75031Y-29909
X75031Y-31134
X75098Y-42323
X75177Y-35638
X75276Y-30748
X75283Y-29697
X75531Y-25437
X75709Y-46122
X75837Y-25354
X76102Y-49488
X76122Y-47795
X76142Y-54941
X76181Y-26339
X76220Y-28996
X76240Y-41378
X76260Y-55217
X76280Y-34902
X76280Y-53681
X76378Y-32008
X76398Y-49232
X76398Y-49547
X76417Y-47106
X76417Y-56319
X76644Y-50177
X76663Y-26280
X76693Y-28366
X76713Y-48366
X76790Y-34291
X76790Y-54272
X76890Y-32579
X77146Y-31752
X77146Y-38346
X77185Y-50925
X77205Y-24862
X77343Y-57480
X77618Y-30531
X77638Y-52146
X77657Y-37894
T2
X64744Y-41417
X64744Y-41752
X65098Y-41417
X65098Y-41752
T3
X44253Y-39961
X44253Y-41614
X44253Y-43267
X45905Y-39961
X45905Y-41614
X45905Y-43267
T4
X40748Y-23622
X40748Y-59055
X46063Y-30512
X46063Y-52165
X70472Y-30512
X70472Y-52165
X76181Y-23622
X76181Y-59055
T0
M30
