M48
;DRILL file {Pcbnew (2013-mar-13)-testing} date Tue 14 May 2013 07:01:17 PM ICT
;FORMAT={-:-/ absolute / inch / decimal}
FMAT,2
INCH,TZ
T1C0.012
T2C0.014
T3C0.055
T4C0.118
%
G90
G05
M72
T1
X3.9449Y-5.6476
X3.9459Y-3.2234
X3.9469Y-5.0551
X3.9804Y-2.8386
X3.9824Y-3.4291
X3.9882Y-4.8406
X3.9941Y-5.6319
X3.9961Y-5.0492
X4.0039Y-2.6319
X4.0059Y-5.4035
X4.0197Y-5.4546
X4.0295Y-2.9016
X4.0315Y-3.4902
X4.0335Y-2.7453
X4.0343Y-3.3366
X4.0374Y-4.7815
X4.0591Y-2.5228
X4.1358Y-5.1319
X4.1358Y-5.3022
X4.1407Y-5.7795
X4.1693Y-5.1319
X4.1693Y-5.3022
X4.1772Y-3.6516
X4.1791Y-5.7254
X4.1949Y-4.6161
X4.2028Y-2.5276
X4.2047Y-3.126
X4.2195Y-5.8071
X4.2421Y-2.372
X4.252Y-3.0393
X4.2539Y-5.2184
X4.2618Y-5.8169
X4.2795Y-2.9331
X4.2795Y-3.1181
X4.2906Y-2.4563
X4.3091Y-5.7303
X4.3209Y-3.6535
X4.3287Y-4.6181
X4.3398Y-2.9717
X4.3406Y-3.1287
X4.3673Y-2.9689
X4.3677Y-3.1311
X4.376Y-5.1752
X4.3917Y-2.4984
X4.398Y-2.4555
X4.4094Y-5.1358
X4.413Y-5.7307
X4.4146Y-3.5937
X4.4394Y-3.5646
X4.4421Y-5.8445
X4.4657Y-4.9571
X4.4665Y-5.5217
X4.4681Y-5.3311
X4.4705Y-2.8957
X4.4705Y-3.4882
X4.4783Y-4.7795
X4.4961Y-5.4035
X4.5059Y-3.2205
X4.5079Y-5.6083
X4.5138Y-2.6299
X4.5197Y-3.4272
X4.5217Y-2.8366
X4.5294Y-4.8366
X4.5551Y-3.2106
X4.561Y-5.0295
X4.563Y-2.6181
X4.5856Y-5.7549
X4.6004Y-4.6781
X4.6102Y-2.372
X4.6102Y-2.9154
X4.6122Y-5.7805
X4.626Y-4.7077
X4.6524Y-2.4181
X4.6531Y-2.761
X4.6594Y-5.6457
X4.6614Y-5.0531
X4.6909Y-4.8406
X4.6949Y-3.4803
X4.6969Y-2.8406
X4.7106Y-2.6575
X4.7126Y-3.25
X4.7185Y-5.4035
X4.7323Y-5.4546
X4.7343Y-5.0629
X4.7343Y-5.6535
X4.7421Y-4.7795
X4.7421Y-5.3366
X4.7429Y-3.3591
X4.7461Y-3.4213
X4.748Y-2.9016
X4.7508Y-2.7606
X4.7913Y-2.5276
X4.7913Y-3.128
X4.7972Y-5.9016
X4.8199Y-5.1329
X4.8199Y-5.3002
X4.8415Y-4.7067
X4.8465Y-5.1486
X4.8465Y-5.2795
X4.8524Y-5.7785
X4.8602Y-4.6781
X4.8789Y-5.7559
X4.8799Y-3.6516
X4.9114Y-2.5276
X4.9134Y-2.935
X4.9183Y-5.814
X4.9213Y-3.128
X4.935Y-4.6161
X4.935Y-5.2854
X4.9449Y-3.0432
X4.9508Y-2.372
X4.9508Y-3.122
X4.9626Y-5.2361
X4.9705Y-5.1437
X4.9705Y-5.8071
X4.9705Y-5.9016
X5.0098Y-5.1516
X5.0098Y-5.7303
X5.0137Y-2.4441
X5.0142Y-3.6555
X5.0441Y-3.1374
X5.0445Y-2.9634
X5.0492Y-3.5657
X5.0717Y-3.5937
X5.0752Y-2.9642
X5.0752Y-3.1366
X5.1098Y-2.4618
X5.1181Y-2.4882
X5.1504Y-5.8445
X5.1535Y-3.2264
X5.1732Y-2.8957
X5.1744Y-4.9496
X5.1764Y-5.5213
X5.185Y-3.4035
X5.189Y-5.3525
X5.1969Y-3.4547
X5.2008Y-4.7717
X5.2008Y-5.4035
X5.2028Y-3.1614
X5.2205Y-2.6299
X5.2224Y-2.8386
X5.248Y-4.8406
X5.2569Y-5.0404
X5.2697Y-2.6201
X5.2707Y-5.6014
X5.5118Y-4.8327
X5.5118Y-4.872
X5.5118Y-4.9114
X5.5118Y-4.9508
X5.6063Y-4.748
X5.6063Y-6.0276
X5.6083Y-5.9331
X5.6083Y-5.9803
X5.6142Y-2.2539
X5.6535Y-6.0276
X5.6614Y-2.2539
X5.6969Y-4.7618
X5.6988Y-4.7323
X5.7008Y-6.0276
X5.7087Y-2.2539
X5.7342Y-4.7323
X5.7343Y-4.7618
X5.7437Y-3.6828
X5.7441Y-6.0276
X5.7559Y-2.2539
X5.7689Y-4.5579
X5.7717Y-4.7323
X5.7717Y-4.7618
X5.7874Y-2.3725
X5.7953Y-4.8268
X5.8583Y-5.8996
X5.8937Y-6.0217
X5.9016Y-3.4429
X5.9035Y-2.2461
X5.9291Y-3.5394
X5.9311Y-3.5098
X5.9409Y-6.0217
X5.9484Y-3.6946
X5.9488Y-2.2461
X5.9641Y-4.5804
X5.9665Y-3.5098
X5.9665Y-3.5394
X5.9882Y-6.0217
X5.9921Y-2.248
X6.0039Y-3.5098
X6.0039Y-3.5394
X6.0354Y-6.0217
X6.0374Y-2.25
X6.0374Y-2.2953
X6.0374Y-2.3366
X6.1024Y-3.5315
X6.2224Y-3.3169
X6.2224Y-3.3563
X6.2224Y-3.3957
X6.2224Y-3.435
X6.252Y-4.2559
X6.2579Y-4.561
X6.3425Y-4.1181
X6.3425Y-4.1575
X6.3425Y-4.1969
X6.3583Y-5.7549
X6.3819Y-5.7795
X6.4154Y-3.2047
X6.4173Y-2.8917
X6.4232Y-3.4823
X6.4272Y-5.6437
X6.4292Y-5.4272
X6.439Y-4.561
X6.4409Y-5.0551
X6.4469Y-2.5906
X6.4665Y-3.0689
X6.4685Y-2.8307
X6.4724Y-3.4193
X6.4764Y-4.7618
X6.4764Y-4.813
X6.4764Y-5.6339
X6.4791Y-3.337
X6.4799Y-2.7465
X6.4803Y-5.3681
X6.5079Y-4.2559
X6.5128Y-3.586
X6.515Y-2.489
X6.5315Y-3.8543
X6.5374Y-3.5634
X6.5382Y-2.461
X6.5579Y-5.3016
X6.5581Y-5.1339
X6.5669Y-4.7106
X6.5709Y-3.8543
X6.5728Y-4.6801
X6.5807Y-5.1484
X6.5807Y-5.287
X6.6004Y-5.7793
X6.6102Y-3.8543
X6.6142Y-3.6457
X6.6272Y-5.7549
X6.6398Y-4.6142
X6.6437Y-2.5276
X6.6437Y-3.1299
X6.6496Y-3.8543
X6.6654Y-5.8055
X6.6693Y-3.9232
X6.6693Y-3.9626
X6.6693Y-4.002
X6.6831Y-2.372
X6.6831Y-2.502
X6.6831Y-3.0355
X6.6949Y-5.2283
X6.7008Y-5.1339
X6.7087Y-3.9232
X6.7087Y-3.9626
X6.7087Y-4.002
X6.7126Y-3.
X6.7126Y-3.1339
X6.7185Y-5.9528
X6.7264Y-3.648
X6.7421Y-5.1437
X6.7421Y-5.7303
X6.752Y-2.4488
X6.7646Y-3.5626
X6.7776Y-4.6142
X6.7795Y-5.8071
X6.7795Y-5.9016
X6.7953Y-2.9642
X6.7953Y-3.1283
X6.8012Y-3.5606
X6.8051Y-2.478
X6.8169Y-3.9508
X6.8189Y-4.0669
X6.8209Y-3.137
X6.8213Y-2.9646
X6.8248Y-2.5043
X6.8543Y-2.5276
X6.8543Y-3.1299
X6.8543Y-4.0079
X6.8543Y-5.7283
X6.8563Y-5.1437
X6.8799Y-3.
X6.8831Y-5.8457
X6.8858Y-6.0531
X6.8898Y-2.2185
X6.8937Y-2.3169
X6.8976Y-2.3725
X6.9071Y-4.952
X6.9075Y-2.8976
X6.9075Y-5.5213
X6.9134Y-3.4902
X6.9193Y-4.7756
X6.9256Y-3.0689
X6.9272Y-5.3701
X6.9272Y-5.9528
X6.935Y-3.8583
X6.9409Y-2.6299
X6.9449Y-3.2205
X6.9567Y-2.8346
X6.9626Y-3.4272
X6.9685Y-3.9863
X6.9704Y-4.8366
X6.9783Y-5.4272
X6.9783Y-3.5157
X6.9793Y-5.0443
X6.9813Y-5.6506
X6.9882Y-2.624
X6.9921Y-3.2126
X6.998Y-3.8957
X7.0222Y-4.6864
X7.0327Y-5.7559
X7.0335Y-2.4224
X7.0335Y-2.7453
X7.0417Y-3.3189
X7.0459Y-4.7091
X7.0476Y-3.8421
X7.0561Y-5.7724
X7.0679Y-2.5033
X7.0935Y-2.4789
X7.0984Y-2.2185
X7.0984Y-5.3504
X7.0984Y-5.9012
X7.1063Y-2.3169
X7.1083Y-6.0531
X7.1093Y-3.2313
X7.1202Y-3.4311
X7.1261Y-2.8386
X7.1319Y-5.0512
X7.1339Y-5.6457
X7.1398Y-5.4331
X7.1417Y-4.8386
X7.1457Y-2.5984
X7.1496Y-4.061
X7.1713Y-3.4961
X7.1772Y-2.9016
X7.1811Y-5.0413
X7.1831Y-5.6319
X7.1878Y-2.7461
X7.1878Y-3.3193
X7.189Y-5.3642
X7.1909Y-4.7795
X7.2008Y-4.2244
X7.2165Y-4.377
X7.2215Y-3.5856
X7.2343Y-3.937
X7.2382Y-3.8543
X7.2469Y-3.5571
X7.253Y-5.7508
X7.2594Y-3.6429
X7.2598Y-3.7146
X7.2642Y-5.1358
X7.2646Y-5.2807
X7.2724Y-4.7091
X7.2736Y-4.4469
X7.2795Y-3.937
X7.2795Y-4.3307
X7.2825Y-5.7756
X7.2866Y-5.302
X7.289Y-5.1449
X7.3Y-4.6843
X7.311Y-3.9193
X7.313Y-4.3366
X7.3189Y-3.6437
X7.3406Y-4.6142
X7.3494Y-4.1919
X7.3524Y-2.5276
X7.3524Y-3.1319
X7.3543Y-4.3278
X7.3551Y-3.9461
X7.3614Y-5.8122
X7.3661Y-2.9764
X7.3681Y-5.2835
X7.3898Y-2.4961
X7.3917Y-3.0434
X7.3917Y-3.1319
X7.3957Y-5.2302
X7.4114Y-5.1378
X7.4114Y-5.7559
X7.4114Y-5.874
X7.4394Y-3.6579
X7.4508Y-5.1378
X7.4508Y-5.7283
X7.4547Y-4.6142
X7.4551Y-2.4598
X7.474Y-3.9465
X7.4744Y-5.8453
X7.4882Y-4.4902
X7.4909Y-3.5561
X7.5Y-3.8346
X7.502Y-4.6614
X7.5031Y-2.9909
X7.5031Y-3.1134
X7.5177Y-3.5638
X7.5276Y-3.0748
X7.5283Y-2.9697
X7.5531Y-2.5437
X7.5531Y-4.2451
X7.5815Y-2.5305
X7.6083Y-4.1378
X7.6122Y-4.7736
X7.6161Y-5.5142
X7.6165Y-4.9307
X7.6181Y-2.6339
X7.622Y-2.8996
X7.628Y-3.4902
X7.628Y-5.3681
X7.6378Y-3.2008
X7.6417Y-5.6319
X7.6633Y-4.8366
X7.6644Y-5.0177
X7.6673Y-2.622
X7.6693Y-2.8366
X7.6772Y-4.1437
X7.679Y-3.4291
X7.679Y-5.4272
X7.6831Y-3.6142
X7.689Y-3.2579
X7.7146Y-3.1752
X7.7146Y-3.8346
X7.7185Y-5.0925
X7.7618Y-3.0531
X7.7638Y-5.2146
X7.7657Y-3.7894
X7.7874Y-3.7362
T2
X4.1634Y-2.6673
X4.1634Y-2.7264
X4.1634Y-2.7854
X4.1634Y-2.8445
X4.1634Y-3.2579
X4.1634Y-3.3169
X4.1634Y-3.376
X4.1634Y-3.435
X4.1634Y-4.8337
X4.1634Y-4.8927
X4.1634Y-4.9517
X4.1634Y-5.0108
X4.1634Y-5.4243
X4.1634Y-5.4833
X4.1634Y-5.5423
X4.1634Y-5.6014
X4.2224Y-2.7854
X4.2224Y-2.8445
X4.2224Y-3.376
X4.2224Y-3.435
X4.2224Y-4.8337
X4.2224Y-4.8927
X4.2224Y-4.9518
X4.2224Y-5.4242
X4.2224Y-5.4833
X4.2224Y-5.5423
X4.2225Y-2.7264
X4.2225Y-3.3169
X4.2225Y-5.0108
X4.2225Y-5.6014
X4.2244Y-2.6673
X4.2244Y-3.2579
X4.2795Y-5.0108
X4.2795Y-5.6014
X4.2815Y-2.6673
X4.2815Y-3.2579
X4.2815Y-4.9518
X4.2815Y-5.5423
X4.2815Y-2.7264
X4.2815Y-2.7854
X4.2815Y-2.8445
X4.2815Y-3.3169
X4.2815Y-3.376
X4.2815Y-3.435
X4.2815Y-4.8337
X4.2815Y-4.8927
X4.2815Y-5.4242
X4.2815Y-5.4833
X4.3406Y-2.6673
X4.3406Y-2.7264
X4.3406Y-2.7854
X4.3406Y-2.8444
X4.3406Y-3.2579
X4.3406Y-3.317
X4.3406Y-3.376
X4.3406Y-3.435
X4.3406Y-4.8337
X4.3406Y-4.8927
X4.3406Y-4.9518
X4.3406Y-5.0108
X4.3406Y-5.4242
X4.3406Y-5.4833
X4.3406Y-5.5423
X4.3406Y-5.6014
X4.872Y-2.6673
X4.872Y-2.7264
X4.872Y-2.7854
X4.872Y-2.8445
X4.872Y-3.2579
X4.872Y-3.3169
X4.872Y-3.376
X4.872Y-3.435
X4.872Y-4.8337
X4.872Y-4.8927
X4.872Y-4.9517
X4.872Y-5.0108
X4.872Y-5.4243
X4.872Y-5.4833
X4.872Y-5.5423
X4.872Y-5.6014
X4.9311Y-2.7854
X4.9311Y-2.8445
X4.9311Y-3.376
X4.9311Y-3.435
X4.9311Y-4.8337
X4.9311Y-4.8927
X4.9311Y-4.9518
X4.9311Y-5.4242
X4.9311Y-5.4833
X4.9311Y-5.5423
X4.9311Y-2.7264
X4.9311Y-3.3169
X4.9311Y-5.0108
X4.9311Y-5.6014
X4.9331Y-2.6673
X4.9331Y-3.2579
X4.9882Y-5.0108
X4.9882Y-5.6014
X4.9901Y-2.6673
X4.9901Y-3.2579
X4.9901Y-4.9518
X4.9901Y-5.5423
X4.9902Y-2.7264
X4.9902Y-2.7854
X4.9902Y-2.8445
X4.9902Y-3.3169
X4.9902Y-3.376
X4.9902Y-3.435
X4.9902Y-4.8337
X4.9902Y-4.8927
X4.9902Y-5.4242
X4.9902Y-5.4833
X5.0492Y-2.6673
X5.0492Y-2.7264
X5.0492Y-2.7854
X5.0492Y-2.8444
X5.0492Y-3.2579
X5.0492Y-3.317
X5.0492Y-3.376
X5.0492Y-3.435
X5.0492Y-4.8337
X5.0492Y-4.8927
X5.0492Y-4.9518
X5.0492Y-5.0108
X5.0492Y-5.4242
X5.0492Y-5.4833
X5.0492Y-5.5423
X5.0492Y-5.6014
X6.4744Y-4.1417
X6.4744Y-4.1752
X6.5098Y-4.1417
X6.5098Y-4.1752
X6.6043Y-2.6673
X6.6043Y-2.7264
X6.6043Y-2.7854
X6.6043Y-2.8445
X6.6043Y-3.2579
X6.6043Y-3.3169
X6.6043Y-3.376
X6.6043Y-3.435
X6.6043Y-4.8328
X6.6043Y-4.8917
X6.6043Y-4.9508
X6.6043Y-5.0098
X6.6043Y-5.4233
X6.6043Y-5.4823
X6.6043Y-5.5413
X6.6043Y-5.6004
X6.6634Y-2.7854
X6.6634Y-2.8445
X6.6634Y-3.376
X6.6634Y-3.435
X6.6634Y-4.8327
X6.6634Y-4.8917
X6.6634Y-4.9508
X6.6634Y-5.4232
X6.6634Y-5.4823
X6.6634Y-5.5413
X6.6634Y-2.7264
X6.6634Y-3.3169
X6.6634Y-5.0098
X6.6634Y-5.6004
X6.6654Y-2.6673
X6.6654Y-3.2579
X6.7205Y-5.0098
X6.7205Y-5.6004
X6.7224Y-2.6673
X6.7224Y-3.2579
X6.7224Y-4.9508
X6.7224Y-5.5413
X6.7224Y-2.7264
X6.7224Y-2.7854
X6.7224Y-2.8445
X6.7224Y-3.3169
X6.7224Y-3.376
X6.7224Y-3.435
X6.7224Y-4.8327
X6.7224Y-4.8917
X6.7224Y-5.4232
X6.7224Y-5.4823
X6.7815Y-2.6673
X6.7815Y-2.7264
X6.7815Y-2.7854
X6.7815Y-2.8444
X6.7815Y-3.2579
X6.7815Y-3.317
X6.7815Y-3.376
X6.7815Y-3.435
X6.7815Y-4.8327
X6.7815Y-4.8917
X6.7815Y-4.9508
X6.7815Y-5.0098
X6.7815Y-5.4232
X6.7815Y-5.4823
X6.7815Y-5.5413
X6.7815Y-5.6004
X7.313Y-2.6673
X7.313Y-2.7264
X7.313Y-2.7854
X7.313Y-2.8445
X7.313Y-3.2579
X7.313Y-3.3169
X7.313Y-3.376
X7.313Y-3.435
X7.313Y-4.8328
X7.313Y-4.8917
X7.313Y-4.9508
X7.313Y-5.0098
X7.313Y-5.4233
X7.313Y-5.4823
X7.313Y-5.5413
X7.313Y-5.6004
X7.372Y-2.7854
X7.372Y-2.8445
X7.372Y-3.376
X7.372Y-3.435
X7.372Y-4.8327
X7.372Y-4.8917
X7.372Y-4.9508
X7.372Y-5.4232
X7.372Y-5.4823
X7.372Y-5.5413
X7.3721Y-2.7264
X7.3721Y-3.3169
X7.3721Y-5.0098
X7.3721Y-5.6004
X7.374Y-2.6673
X7.374Y-3.2579
X7.4291Y-5.0098
X7.4291Y-5.6004
X7.4311Y-2.6673
X7.4311Y-3.2579
X7.4311Y-4.9508
X7.4311Y-5.5413
X7.4311Y-2.7264
X7.4311Y-2.7854
X7.4311Y-2.8445
X7.4311Y-3.3169
X7.4311Y-3.376
X7.4311Y-3.435
X7.4311Y-4.8327
X7.4311Y-4.8917
X7.4311Y-5.4232
X7.4311Y-5.4823
X7.4902Y-2.6673
X7.4902Y-2.7264
X7.4902Y-2.7854
X7.4902Y-2.8444
X7.4902Y-3.2579
X7.4902Y-3.317
X7.4902Y-3.376
X7.4902Y-3.435
X7.4902Y-4.8327
X7.4902Y-4.8917
X7.4902Y-4.9508
X7.4902Y-5.0098
X7.4902Y-5.4232
X7.4902Y-5.4823
X7.4902Y-5.5413
X7.4902Y-5.6004
T3
X4.4253Y-3.9961
X4.4253Y-4.1614
X4.4253Y-4.3267
X4.5905Y-3.9961
X4.5905Y-4.1614
X4.5905Y-4.3267
T4
X4.0748Y-2.3622
X4.0748Y-5.9055
X4.6063Y-3.0512
X4.6063Y-5.2165
X7.0472Y-3.0512
X7.0472Y-5.2165
X7.6181Y-2.3622
X7.6181Y-5.9055
T0
M30
