M48
;DRILL file {Pcbnew (2013-mar-13)-testing} date Sat 11 May 2013 01:42:46 PM ICT
;FORMAT={-:-/ absolute / inch / decimal}
FMAT,2
INCH,TZ
T1C0.012
T2C0.014
T3C0.055
T4C0.118
%
G90
G05
M72
T1
X4.0039Y-5.561
X4.0059Y-5.4035
X4.0118Y-4.813
X4.0118Y-4.9705
X4.0177Y-5.6121
X4.0197Y-5.4546
X4.0276Y-2.6792
X4.0276Y-3.3997
X4.0276Y-4.8641
X4.0276Y-5.0216
X4.0295Y-2.8013
X4.0295Y-2.8523
X4.0295Y-3.2658
X4.0295Y-3.4507
X4.1594Y-5.7362
X4.2007Y-2.4902
X4.2047Y-3.126
X4.2362Y-2.5276
X4.2421Y-3.0905
X4.248Y-3.0393
X4.2539Y-3.62
X4.2539Y-4.6497
X4.2539Y-5.2342
X4.2559Y-5.1832
X4.2717Y-5.7638
X4.2736Y-2.4665
X4.2913Y-5.7382
X4.3249Y-5.7815
X4.3446Y-2.4902
X4.4134Y-5.1417
X4.4134Y-5.7303
X4.4783Y-4.8131
X4.4783Y-4.8641
X4.4783Y-4.9822
X4.4823Y-2.8131
X4.4823Y-3.2462
X4.4823Y-3.4036
X4.4823Y-5.4036
X4.4823Y-5.5865
X4.4843Y-2.6556
X4.4843Y-5.4546
X4.4961Y-2.7067
X4.4961Y-2.8642
X4.5Y-3.2972
X4.5Y-3.4547
X4.7165Y-4.813
X4.7185Y-5.4035
X4.7205Y-4.9705
X4.7323Y-5.4546
X4.7343Y-4.8641
X4.7343Y-5.0216
X4.7343Y-5.6121
X4.7362Y-2.6792
X4.7362Y-3.4036
X4.7382Y-2.8091
X4.7382Y-2.8601
X4.7382Y-3.4546
X4.7402Y-3.2698
X4.7579Y-5.5611
X4.7913Y-2.5276
X4.7913Y-3.128
X4.8818Y-2.4882
X4.8897Y-5.7815
X4.9193Y-2.5276
X4.9213Y-3.128
X4.951Y-3.0924
X4.9528Y-3.0412
X4.9547Y-2.4685
X4.9606Y-3.62
X4.9606Y-4.6497
X4.9626Y-5.2363
X4.9626Y-5.8071
X4.9646Y-5.1851
X4.9961Y-5.1476
X5.Y-5.7303
X5.0257Y-2.4882
X5.0336Y-5.7815
X5.1811Y-4.8641
X5.1831Y-4.8131
X5.1831Y-4.9999
X5.185Y-3.246
X5.185Y-3.4035
X5.185Y-5.4036
X5.185Y-5.4546
X5.187Y-2.6556
X5.187Y-5.5905
X5.189Y-2.8131
X5.1969Y-3.4547
X5.1988Y-2.7047
X5.1988Y-3.2972
X5.2028Y-2.8642
X5.5118Y-4.8327
X5.5118Y-4.872
X5.5118Y-4.9114
X5.5118Y-4.9508
X5.6063Y-4.748
X5.7437Y-3.6828
X5.7712Y-4.5607
X5.7953Y-4.8268
X5.9016Y-3.4429
X5.9484Y-3.6946
X5.9641Y-4.5804
X6.1024Y-3.5315
X6.2224Y-3.3169
X6.2224Y-3.3563
X6.2224Y-3.3957
X6.2224Y-3.435
X6.252Y-4.2559
X6.2579Y-4.561
X6.3425Y-4.1181
X6.3425Y-4.1575
X6.3425Y-4.1969
X6.439Y-4.561
X6.4547Y-5.561
X6.4567Y-5.0217
X6.4567Y-5.4035
X6.4587Y-4.813
X6.4587Y-4.9705
X6.4646Y-2.8131
X6.4665Y-2.8641
X6.4685Y-2.6812
X6.4685Y-5.4546
X6.4705Y-5.6121
X6.4724Y-3.2658
X6.4724Y-3.4036
X6.4724Y-3.4547
X6.4724Y-4.8641
X6.5079Y-4.2559
X6.5315Y-3.8543
X6.5709Y-3.8543
X6.6102Y-3.8543
X6.618Y-2.4783
X6.622Y-5.7874
X6.6457Y-3.1299
X6.6496Y-3.8543
X6.6575Y-2.5276
X6.6693Y-3.9232
X6.6693Y-3.9626
X6.6693Y-4.002
X6.6811Y-3.0353
X6.6832Y-3.0865
X6.689Y-2.4547
X6.689Y-3.6121
X6.6909Y-4.6497
X6.6949Y-5.813
X6.6988Y-5.1773
X6.7008Y-5.2284
X6.7087Y-3.9232
X6.7087Y-3.9626
X6.7087Y-4.002
X6.7185Y-5.9528
X6.7283Y-5.7303
X6.7303Y-5.1437
X6.7617Y-2.4783
X6.7658Y-5.7874
X6.8169Y-3.9508
X6.8189Y-4.0669
X6.8543Y-2.5276
X6.8543Y-3.1299
X6.8543Y-4.0079
X6.8543Y-5.7283
X6.8563Y-5.1437
X6.8858Y-6.0531
X6.8898Y-2.2185
X6.8937Y-2.3169
X6.9154Y-2.6556
X6.9154Y-2.8131
X6.9193Y-3.2462
X6.9213Y-3.4036
X6.9232Y-4.8131
X6.9232Y-4.8641
X6.9232Y-5.4036
X6.9232Y-5.4546
X6.9232Y-5.5885
X6.9252Y-5.0019
X6.9272Y-5.9528
X6.9291Y-2.8642
X6.9311Y-2.7067
X6.935Y-3.2972
X6.935Y-3.8583
X6.937Y-3.4547
X6.9685Y-3.9863
X6.998Y-3.8957
X7.0984Y-2.2185
X7.1063Y-2.3169
X7.1083Y-6.0531
X7.1496Y-4.061
X7.1575Y-4.813
X7.1575Y-4.9705
X7.1614Y-5.4035
X7.1654Y-5.561
X7.1693Y-2.6773
X7.1693Y-2.8131
X7.1713Y-2.8641
X7.1732Y-4.8641
X7.1732Y-5.0216
X7.1752Y-3.4546
X7.1772Y-3.2717
X7.1772Y-3.4036
X7.1791Y-5.4546
X7.1791Y-5.6121
X7.2343Y-3.937
X7.2382Y-3.8543
X7.2736Y-4.4469
X7.2795Y-3.937
X7.3286Y-2.4921
X7.3365Y-5.7913
X7.3583Y-3.1299
X7.3661Y-2.5276
X7.3799Y-2.4213
X7.3919Y-3.0905
X7.3976Y-3.0395
X7.3996Y-5.1772
X7.3996Y-5.2244
X7.4035Y-3.6101
X7.4035Y-4.6477
X7.4075Y-5.8169
X7.4311Y-5.1378
X7.4705Y-5.7283
X7.4725Y-2.4902
X7.4804Y-5.7913
X7.4882Y-4.4902
X7.5Y-3.8346
X7.502Y-4.6614
X7.626Y-2.8131
X7.626Y-3.2462
X7.626Y-3.4036
X7.628Y-2.6556
X7.6299Y-5.4036
X7.6299Y-5.4546
X7.6299Y-5.5885
X7.6339Y-4.9979
X7.6358Y-4.8131
X7.6358Y-4.8641
X7.6398Y-3.2972
X7.6398Y-3.4547
X7.6417Y-2.8642
X7.6457Y-2.7067
X7.7146Y-3.1752
X7.7146Y-3.8346
X7.7185Y-5.0925
X7.7618Y-3.0531
X7.7638Y-5.2146
X7.7657Y-3.7894
T2
X4.1634Y-2.6673
X4.1634Y-2.7264
X4.1634Y-2.7854
X4.1634Y-2.8445
X4.1634Y-3.2579
X4.1634Y-3.3169
X4.1634Y-3.376
X4.1634Y-3.435
X4.1634Y-4.8337
X4.1634Y-4.8927
X4.1634Y-4.9517
X4.1634Y-5.0108
X4.1634Y-5.4243
X4.1634Y-5.4833
X4.1634Y-5.5423
X4.1634Y-5.6014
X4.2224Y-2.7854
X4.2224Y-2.8445
X4.2224Y-3.376
X4.2224Y-3.435
X4.2224Y-4.8337
X4.2224Y-4.8927
X4.2224Y-4.9518
X4.2224Y-5.4242
X4.2224Y-5.4833
X4.2224Y-5.5423
X4.2225Y-2.7264
X4.2225Y-3.3169
X4.2225Y-5.0108
X4.2225Y-5.6014
X4.2244Y-2.6673
X4.2244Y-3.2579
X4.2795Y-5.0108
X4.2795Y-5.6014
X4.2815Y-2.6673
X4.2815Y-3.2579
X4.2815Y-4.9518
X4.2815Y-5.5423
X4.2815Y-2.7264
X4.2815Y-2.7854
X4.2815Y-2.8445
X4.2815Y-3.3169
X4.2815Y-3.376
X4.2815Y-3.435
X4.2815Y-4.8337
X4.2815Y-4.8927
X4.2815Y-5.4242
X4.2815Y-5.4833
X4.3406Y-2.6673
X4.3406Y-2.7264
X4.3406Y-2.7854
X4.3406Y-2.8444
X4.3406Y-3.2579
X4.3406Y-3.317
X4.3406Y-3.376
X4.3406Y-3.435
X4.3406Y-4.8337
X4.3406Y-4.8927
X4.3406Y-4.9518
X4.3406Y-5.0108
X4.3406Y-5.4242
X4.3406Y-5.4833
X4.3406Y-5.5423
X4.3406Y-5.6014
X4.872Y-2.6673
X4.872Y-2.7264
X4.872Y-2.7854
X4.872Y-2.8445
X4.872Y-3.2579
X4.872Y-3.3169
X4.872Y-3.376
X4.872Y-3.435
X4.872Y-4.8337
X4.872Y-4.8927
X4.872Y-4.9517
X4.872Y-5.0108
X4.872Y-5.4243
X4.872Y-5.4833
X4.872Y-5.5423
X4.872Y-5.6014
X4.9311Y-2.7854
X4.9311Y-2.8445
X4.9311Y-3.376
X4.9311Y-3.435
X4.9311Y-4.8337
X4.9311Y-4.8927
X4.9311Y-4.9518
X4.9311Y-5.4242
X4.9311Y-5.4833
X4.9311Y-5.5423
X4.9311Y-2.7264
X4.9311Y-3.3169
X4.9311Y-5.0108
X4.9311Y-5.6014
X4.9331Y-2.6673
X4.9331Y-3.2579
X4.9882Y-5.0108
X4.9882Y-5.6014
X4.9901Y-2.6673
X4.9901Y-3.2579
X4.9901Y-4.9518
X4.9901Y-5.5423
X4.9902Y-2.7264
X4.9902Y-2.7854
X4.9902Y-2.8445
X4.9902Y-3.3169
X4.9902Y-3.376
X4.9902Y-3.435
X4.9902Y-4.8337
X4.9902Y-4.8927
X4.9902Y-5.4242
X4.9902Y-5.4833
X5.0492Y-2.6673
X5.0492Y-2.7264
X5.0492Y-2.7854
X5.0492Y-2.8444
X5.0492Y-3.2579
X5.0492Y-3.317
X5.0492Y-3.376
X5.0492Y-3.435
X5.0492Y-4.8337
X5.0492Y-4.8927
X5.0492Y-4.9518
X5.0492Y-5.0108
X5.0492Y-5.4242
X5.0492Y-5.4833
X5.0492Y-5.5423
X5.0492Y-5.6014
X6.4744Y-4.1417
X6.4744Y-4.1752
X6.5098Y-4.1417
X6.5098Y-4.1752
X6.6043Y-2.6673
X6.6043Y-2.7264
X6.6043Y-2.7854
X6.6043Y-2.8445
X6.6043Y-3.2579
X6.6043Y-3.3169
X6.6043Y-3.376
X6.6043Y-3.435
X6.6043Y-4.8328
X6.6043Y-4.8917
X6.6043Y-4.9508
X6.6043Y-5.0098
X6.6043Y-5.4233
X6.6043Y-5.4823
X6.6043Y-5.5413
X6.6043Y-5.6004
X6.6634Y-2.7854
X6.6634Y-2.8445
X6.6634Y-3.376
X6.6634Y-3.435
X6.6634Y-4.8327
X6.6634Y-4.8917
X6.6634Y-4.9508
X6.6634Y-5.4232
X6.6634Y-5.4823
X6.6634Y-5.5413
X6.6634Y-2.7264
X6.6634Y-3.3169
X6.6634Y-5.0098
X6.6634Y-5.6004
X6.6654Y-2.6673
X6.6654Y-3.2579
X6.7205Y-5.0098
X6.7205Y-5.6004
X6.7224Y-2.6673
X6.7224Y-3.2579
X6.7224Y-4.9508
X6.7224Y-5.5413
X6.7224Y-2.7264
X6.7224Y-2.7854
X6.7224Y-2.8445
X6.7224Y-3.3169
X6.7224Y-3.376
X6.7224Y-3.435
X6.7224Y-4.8327
X6.7224Y-4.8917
X6.7224Y-5.4232
X6.7224Y-5.4823
X6.7815Y-2.6673
X6.7815Y-2.7264
X6.7815Y-2.7854
X6.7815Y-2.8444
X6.7815Y-3.2579
X6.7815Y-3.317
X6.7815Y-3.376
X6.7815Y-3.435
X6.7815Y-4.8327
X6.7815Y-4.8917
X6.7815Y-4.9508
X6.7815Y-5.0098
X6.7815Y-5.4232
X6.7815Y-5.4823
X6.7815Y-5.5413
X6.7815Y-5.6004
X7.313Y-2.6673
X7.313Y-2.7264
X7.313Y-2.7854
X7.313Y-2.8445
X7.313Y-3.2579
X7.313Y-3.3169
X7.313Y-3.376
X7.313Y-3.435
X7.313Y-4.8328
X7.313Y-4.8917
X7.313Y-4.9508
X7.313Y-5.0098
X7.313Y-5.4233
X7.313Y-5.4823
X7.313Y-5.5413
X7.313Y-5.6004
X7.372Y-2.7854
X7.372Y-2.8445
X7.372Y-3.376
X7.372Y-3.435
X7.372Y-4.8327
X7.372Y-4.8917
X7.372Y-4.9508
X7.372Y-5.4232
X7.372Y-5.4823
X7.372Y-5.5413
X7.3721Y-2.7264
X7.3721Y-3.3169
X7.3721Y-5.0098
X7.3721Y-5.6004
X7.374Y-2.6673
X7.374Y-3.2579
X7.4291Y-5.0098
X7.4291Y-5.6004
X7.4311Y-2.6673
X7.4311Y-3.2579
X7.4311Y-4.9508
X7.4311Y-5.5413
X7.4311Y-2.7264
X7.4311Y-2.7854
X7.4311Y-2.8445
X7.4311Y-3.3169
X7.4311Y-3.376
X7.4311Y-3.435
X7.4311Y-4.8327
X7.4311Y-4.8917
X7.4311Y-5.4232
X7.4311Y-5.4823
X7.4902Y-2.6673
X7.4902Y-2.7264
X7.4902Y-2.7854
X7.4902Y-2.8444
X7.4902Y-3.2579
X7.4902Y-3.317
X7.4902Y-3.376
X7.4902Y-3.435
X7.4902Y-4.8327
X7.4902Y-4.8917
X7.4902Y-4.9508
X7.4902Y-5.0098
X7.4902Y-5.4232
X7.4902Y-5.4823
X7.4902Y-5.5413
X7.4902Y-5.6004
T3
X4.4253Y-3.9961
X4.4253Y-4.1614
X4.4253Y-4.3267
X4.5905Y-3.9961
X4.5905Y-4.1614
X4.5905Y-4.3267
T4
X4.0866Y-2.374
X4.0866Y-5.8937
X4.6063Y-3.0512
X4.6063Y-5.2165
X7.0472Y-3.0512
X7.0472Y-5.2165
X7.6063Y-2.374
X7.6063Y-5.8937
T0
M30
