G04 (created by PCBNEW (2013-mar-13)-testing) date Mon 22 Jul 2013 09:20:57 AM ICT*
%MOIN*%
G04 Gerber Fmt 3.4, Leading zero omitted, Abs format*
%FSLAX34Y34*%
G01*
G70*
G90*
G04 APERTURE LIST*
%ADD10C,0.00393701*%
%ADD11C,0.002*%
G04 APERTURE END LIST*
G54D10*
X38779Y-61023D02*
X78149Y-61023D01*
X78149Y-61023D02*
X78149Y-21653D01*
X78149Y-21653D02*
X38779Y-21653D01*
X38779Y-21653D02*
X38779Y-61023D01*
G54D11*
X56666Y-29538D02*
X56666Y-31484D01*
X55892Y-31484D02*
X55892Y-29538D01*
X55892Y-29538D02*
X56666Y-29538D01*
X56666Y-31484D02*
X55892Y-31484D01*
X55800Y-29538D02*
X55800Y-31484D01*
X55026Y-31484D02*
X55026Y-29538D01*
X55026Y-29538D02*
X55800Y-29538D01*
X55800Y-31484D02*
X55026Y-31484D01*
X62237Y-29558D02*
X62237Y-31504D01*
X61463Y-31504D02*
X61463Y-29558D01*
X61463Y-29558D02*
X62237Y-29558D01*
X62237Y-31504D02*
X61463Y-31504D01*
X63162Y-29558D02*
X63162Y-31504D01*
X62388Y-31504D02*
X62388Y-29558D01*
X62388Y-29558D02*
X63162Y-29558D01*
X63162Y-31504D02*
X62388Y-31504D01*
X60498Y-53029D02*
X60498Y-51083D01*
X61272Y-51083D02*
X61272Y-53029D01*
X61272Y-53029D02*
X60498Y-53029D01*
X60498Y-51083D02*
X61272Y-51083D01*
X61325Y-53009D02*
X61325Y-51063D01*
X62099Y-51063D02*
X62099Y-53009D01*
X62099Y-53009D02*
X61325Y-53009D01*
X61325Y-51063D02*
X62099Y-51063D01*
X54888Y-53079D02*
X54888Y-51133D01*
X55662Y-51133D02*
X55662Y-53079D01*
X55662Y-53079D02*
X54888Y-53079D01*
X54888Y-51133D02*
X55662Y-51133D01*
X54042Y-53079D02*
X54042Y-51133D01*
X54816Y-51133D02*
X54816Y-53079D01*
X54816Y-53079D02*
X54042Y-53079D01*
X54042Y-51133D02*
X54816Y-51133D01*
X74215Y-41377D02*
X74215Y-41968D01*
X74215Y-41966D02*
X73835Y-41966D01*
X73835Y-41968D02*
X73835Y-41377D01*
X73835Y-41379D02*
X74215Y-41379D01*
X74215Y-40688D02*
X74215Y-41279D01*
X74215Y-41277D02*
X73835Y-41277D01*
X73835Y-41279D02*
X73835Y-40688D01*
X73835Y-40690D02*
X74215Y-40690D01*
X74225Y-42283D02*
X74225Y-42874D01*
X74225Y-42872D02*
X73845Y-42872D01*
X73845Y-42874D02*
X73845Y-42283D01*
X73845Y-42285D02*
X74225Y-42285D01*
X74215Y-40000D02*
X74215Y-40590D01*
X74215Y-40588D02*
X73835Y-40588D01*
X73835Y-40590D02*
X73835Y-40000D01*
X73835Y-40001D02*
X74215Y-40001D01*
X69894Y-42058D02*
X69894Y-43216D01*
X69894Y-43226D02*
X69337Y-43226D01*
X69337Y-43226D02*
X69337Y-42068D01*
X69337Y-42058D02*
X69894Y-42058D01*
X76113Y-34996D02*
X77271Y-34996D01*
X77281Y-34996D02*
X77281Y-35554D01*
X77281Y-35554D02*
X76123Y-35554D01*
X76113Y-35554D02*
X76113Y-34996D01*
X66099Y-42114D02*
X66099Y-40857D01*
X66099Y-40857D02*
X66951Y-40857D01*
X66951Y-40867D02*
X66951Y-42104D01*
X66951Y-42114D02*
X66099Y-42114D01*
X44338Y-24048D02*
X43180Y-24048D01*
X43180Y-24048D02*
X43180Y-23431D01*
X43180Y-23431D02*
X44338Y-23431D01*
X44338Y-23431D02*
X44338Y-24048D01*
X50332Y-23802D02*
X49174Y-23802D01*
X49174Y-23802D02*
X49174Y-23185D01*
X49174Y-23185D02*
X50332Y-23185D01*
X50332Y-23185D02*
X50332Y-23802D01*
X48448Y-29617D02*
X48448Y-30775D01*
X48448Y-30775D02*
X47831Y-30775D01*
X47831Y-30775D02*
X47831Y-29617D01*
X47831Y-29617D02*
X48448Y-29617D01*
X41331Y-29598D02*
X41331Y-30756D01*
X41331Y-30756D02*
X40715Y-30756D01*
X40715Y-30756D02*
X40715Y-29598D01*
X40715Y-29598D02*
X41331Y-29598D01*
X43707Y-52695D02*
X43707Y-51537D01*
X43707Y-51537D02*
X44324Y-51537D01*
X44324Y-51537D02*
X44324Y-52695D01*
X44324Y-52695D02*
X43707Y-52695D01*
X47437Y-53571D02*
X47437Y-52413D01*
X47437Y-52413D02*
X48054Y-52413D01*
X48054Y-52413D02*
X48054Y-53571D01*
X48054Y-53571D02*
X47437Y-53571D01*
X45391Y-59570D02*
X44233Y-59570D01*
X44233Y-59570D02*
X44233Y-58953D01*
X44233Y-58953D02*
X45391Y-58953D01*
X45391Y-58953D02*
X45391Y-59570D01*
X51523Y-59629D02*
X50365Y-59629D01*
X50365Y-59629D02*
X50365Y-59012D01*
X50365Y-59012D02*
X51523Y-59012D01*
X51523Y-59012D02*
X51523Y-59629D01*
X64814Y-58992D02*
X65972Y-58992D01*
X65972Y-58992D02*
X65972Y-59609D01*
X65972Y-59609D02*
X64814Y-59609D01*
X64814Y-59609D02*
X64814Y-58992D01*
X72747Y-59051D02*
X73905Y-59051D01*
X73905Y-59051D02*
X73905Y-59668D01*
X73905Y-59668D02*
X72747Y-59668D01*
X72747Y-59668D02*
X72747Y-59051D01*
X68057Y-53108D02*
X68057Y-51950D01*
X68057Y-51950D02*
X68674Y-51950D01*
X68674Y-51950D02*
X68674Y-53108D01*
X68674Y-53108D02*
X68057Y-53108D01*
X75016Y-53138D02*
X75016Y-51980D01*
X75016Y-51980D02*
X75633Y-51980D01*
X75633Y-51980D02*
X75633Y-53138D01*
X75633Y-53138D02*
X75016Y-53138D01*
X68989Y-29381D02*
X68989Y-30539D01*
X68989Y-30539D02*
X68372Y-30539D01*
X68372Y-30539D02*
X68372Y-29381D01*
X68372Y-29381D02*
X68989Y-29381D01*
X72867Y-29598D02*
X72867Y-30756D01*
X72867Y-30756D02*
X72250Y-30756D01*
X72250Y-30756D02*
X72250Y-29598D01*
X72250Y-29598D02*
X72867Y-29598D01*
X65021Y-22998D02*
X66179Y-22998D01*
X66179Y-22998D02*
X66179Y-23615D01*
X66179Y-23615D02*
X65021Y-23615D01*
X65021Y-23615D02*
X65021Y-22998D01*
X72974Y-23353D02*
X74132Y-23353D01*
X74132Y-23353D02*
X74132Y-23969D01*
X74132Y-23969D02*
X72974Y-23969D01*
X72974Y-23969D02*
X72974Y-23353D01*
X59091Y-49279D02*
X59091Y-48121D01*
X59091Y-48121D02*
X59727Y-48121D01*
X59727Y-48131D02*
X59727Y-49289D01*
X59727Y-49289D02*
X59091Y-49289D01*
X57240Y-34634D02*
X57240Y-33476D01*
X57240Y-33476D02*
X57877Y-33476D01*
X57877Y-33485D02*
X57877Y-34643D01*
X57877Y-34643D02*
X57240Y-34643D01*
X53476Y-35666D02*
X54634Y-35666D01*
X54634Y-35666D02*
X54634Y-36302D01*
X54624Y-36302D02*
X53466Y-36302D01*
X53466Y-36302D02*
X53466Y-35666D01*
X57803Y-24034D02*
X56645Y-24034D01*
X56645Y-24034D02*
X56645Y-23398D01*
X56655Y-23398D02*
X57813Y-23398D01*
X57813Y-23398D02*
X57813Y-24034D01*
X57803Y-23475D02*
X56645Y-23475D01*
X56645Y-23475D02*
X56645Y-22839D01*
X56655Y-22839D02*
X57813Y-22839D01*
X57813Y-22839D02*
X57813Y-23475D01*
X58633Y-58677D02*
X59791Y-58677D01*
X59791Y-58677D02*
X59791Y-59314D01*
X59781Y-59314D02*
X58623Y-59314D01*
X58623Y-59314D02*
X58623Y-58677D01*
X58633Y-59268D02*
X59791Y-59268D01*
X59791Y-59268D02*
X59791Y-59904D01*
X59781Y-59904D02*
X58623Y-59904D01*
X58623Y-59904D02*
X58623Y-59268D01*
X66386Y-39491D02*
X65228Y-39491D01*
X65228Y-39491D02*
X65228Y-38855D01*
X65237Y-38855D02*
X66395Y-38855D01*
X66395Y-38855D02*
X66395Y-39491D01*
X66386Y-40101D02*
X65228Y-40101D01*
X65228Y-40101D02*
X65228Y-39465D01*
X65237Y-39465D02*
X66395Y-39465D01*
X66395Y-39465D02*
X66395Y-40101D01*
X64578Y-42693D02*
X65736Y-42693D01*
X65736Y-42693D02*
X65736Y-43329D01*
X65726Y-43329D02*
X64568Y-43329D01*
X64568Y-43329D02*
X64568Y-42693D01*
X57940Y-44840D02*
X59098Y-44840D01*
X59098Y-44840D02*
X59098Y-45477D01*
X59088Y-45477D02*
X57930Y-45477D01*
X57930Y-45477D02*
X57930Y-44840D01*
X57909Y-45469D02*
X56751Y-45469D01*
X56751Y-45469D02*
X56751Y-44832D01*
X56760Y-44832D02*
X57918Y-44832D01*
X57918Y-44832D02*
X57918Y-45469D01*
X53796Y-47193D02*
X53796Y-46035D01*
X53796Y-46035D02*
X54432Y-46035D01*
X54432Y-46045D02*
X54432Y-47203D01*
X54432Y-47203D02*
X53796Y-47203D01*
X62181Y-52557D02*
X62181Y-51399D01*
X62181Y-51399D02*
X62818Y-51399D01*
X62818Y-51409D02*
X62818Y-52567D01*
X62818Y-52567D02*
X62181Y-52567D01*
X58854Y-46666D02*
X60012Y-46666D01*
X60012Y-46666D02*
X60012Y-47303D01*
X60002Y-47303D02*
X58844Y-47303D01*
X58844Y-47303D02*
X58844Y-46666D01*
X62295Y-46414D02*
X63453Y-46414D01*
X63453Y-46414D02*
X63453Y-47050D01*
X63443Y-47050D02*
X62285Y-47050D01*
X62285Y-47050D02*
X62285Y-46414D01*
X58243Y-45784D02*
X59401Y-45784D01*
X59401Y-45784D02*
X59401Y-46421D01*
X59391Y-46421D02*
X58233Y-46421D01*
X58233Y-46421D02*
X58233Y-45784D01*
X55963Y-47753D02*
X55963Y-48911D01*
X55963Y-48911D02*
X55326Y-48911D01*
X55326Y-48901D02*
X55326Y-47743D01*
X55326Y-47743D02*
X55963Y-47743D01*
X59201Y-37693D02*
X58043Y-37693D01*
X58043Y-37693D02*
X58043Y-37056D01*
X58052Y-37056D02*
X59210Y-37056D01*
X59210Y-37056D02*
X59210Y-37693D01*
X59247Y-37103D02*
X60405Y-37103D01*
X60405Y-37103D02*
X60405Y-37740D01*
X60395Y-37740D02*
X59237Y-37740D01*
X59237Y-37740D02*
X59237Y-37103D01*
X63349Y-35247D02*
X63349Y-36405D01*
X63349Y-36405D02*
X62713Y-36405D01*
X62713Y-36395D02*
X62713Y-35237D01*
X62713Y-35237D02*
X63349Y-35237D01*
X54924Y-30090D02*
X54924Y-31248D01*
X54924Y-31248D02*
X54288Y-31248D01*
X54288Y-31238D02*
X54288Y-30080D01*
X54288Y-30080D02*
X54924Y-30080D01*
X58303Y-35953D02*
X57145Y-35953D01*
X57145Y-35953D02*
X57145Y-35316D01*
X57154Y-35316D02*
X58312Y-35316D01*
X58312Y-35316D02*
X58312Y-35953D01*
X58838Y-36866D02*
X57680Y-36866D01*
X57680Y-36866D02*
X57680Y-36229D01*
X57689Y-36229D02*
X58847Y-36229D01*
X58847Y-36229D02*
X58847Y-36866D01*
X61145Y-34978D02*
X61145Y-33820D01*
X61145Y-33820D02*
X61782Y-33820D01*
X61782Y-33829D02*
X61782Y-34987D01*
X61782Y-34987D02*
X61145Y-34987D01*
X63633Y-39563D02*
X65185Y-39563D01*
X65185Y-40199D02*
X63633Y-40199D01*
X63633Y-40199D02*
X63633Y-39563D01*
X65185Y-39563D02*
X65185Y-40199D01*
X63633Y-38756D02*
X65185Y-38756D01*
X65185Y-39392D02*
X63633Y-39392D01*
X63633Y-39392D02*
X63633Y-38756D01*
X65185Y-38756D02*
X65185Y-39392D01*
X60475Y-47924D02*
X60475Y-49476D01*
X59839Y-49476D02*
X59839Y-47924D01*
X59839Y-47924D02*
X60475Y-47924D01*
X60475Y-49476D02*
X59839Y-49476D01*
X61302Y-47924D02*
X61302Y-49476D01*
X60666Y-49476D02*
X60666Y-47924D01*
X60666Y-47924D02*
X61302Y-47924D01*
X61302Y-49476D02*
X60666Y-49476D01*
X62129Y-47924D02*
X62129Y-49476D01*
X61492Y-49476D02*
X61492Y-47924D01*
X61492Y-47924D02*
X62129Y-47924D01*
X62129Y-49476D02*
X61492Y-49476D01*
X62098Y-47949D02*
X63650Y-47949D01*
X63650Y-48585D02*
X62098Y-48585D01*
X62098Y-48585D02*
X62098Y-47949D01*
X63650Y-47949D02*
X63650Y-48585D01*
X62098Y-47122D02*
X63650Y-47122D01*
X63650Y-47759D02*
X62098Y-47759D01*
X62098Y-47759D02*
X62098Y-47122D01*
X63650Y-47122D02*
X63650Y-47759D01*
X56532Y-34831D02*
X56532Y-33279D01*
X57168Y-33279D02*
X57168Y-34831D01*
X57168Y-34831D02*
X56532Y-34831D01*
X56532Y-33279D02*
X57168Y-33279D01*
X55705Y-34831D02*
X55705Y-33279D01*
X56341Y-33279D02*
X56341Y-34831D01*
X56341Y-34831D02*
X55705Y-34831D01*
X55705Y-33279D02*
X56341Y-33279D01*
X54878Y-34831D02*
X54878Y-33279D01*
X55514Y-33279D02*
X55514Y-34831D01*
X55514Y-34831D02*
X54878Y-34831D01*
X54878Y-33279D02*
X55514Y-33279D01*
X54831Y-34806D02*
X53279Y-34806D01*
X53279Y-34170D02*
X54831Y-34170D01*
X54831Y-34170D02*
X54831Y-34806D01*
X53279Y-34806D02*
X53279Y-34170D01*
X54831Y-35593D02*
X53279Y-35593D01*
X53279Y-34957D02*
X54831Y-34957D01*
X54831Y-34957D02*
X54831Y-35593D01*
X53279Y-35593D02*
X53279Y-34957D01*
X68418Y-43535D02*
X68418Y-44693D01*
X68418Y-44693D02*
X67801Y-44693D01*
X67801Y-44693D02*
X67801Y-43535D01*
X67801Y-43535D02*
X68418Y-43535D01*
X67621Y-43535D02*
X67621Y-44693D01*
X67621Y-44693D02*
X67004Y-44693D01*
X67004Y-44693D02*
X67004Y-43535D01*
X67004Y-43535D02*
X67621Y-43535D01*
X72453Y-43515D02*
X72453Y-44673D01*
X72453Y-44673D02*
X71837Y-44673D01*
X71837Y-44673D02*
X71837Y-43515D01*
X71837Y-43515D02*
X72453Y-43515D01*
X68510Y-43226D02*
X68510Y-42068D01*
X68510Y-42068D02*
X69127Y-42068D01*
X69127Y-42068D02*
X69127Y-43226D01*
X69127Y-43226D02*
X68510Y-43226D01*
X76975Y-34988D02*
X76975Y-33830D01*
X76975Y-33830D02*
X77591Y-33830D01*
X77591Y-33830D02*
X77591Y-34988D01*
X77591Y-34988D02*
X76975Y-34988D01*
X73359Y-36901D02*
X73359Y-38059D01*
X73359Y-38059D02*
X72742Y-38059D01*
X72742Y-38059D02*
X72742Y-36901D01*
X72742Y-36901D02*
X73359Y-36901D01*
X75070Y-38038D02*
X76228Y-38038D01*
X76228Y-38038D02*
X76228Y-38654D01*
X76228Y-38654D02*
X75070Y-38654D01*
X75070Y-38654D02*
X75070Y-38038D01*
X74890Y-38654D02*
X73732Y-38654D01*
X73732Y-38654D02*
X73732Y-38038D01*
X73732Y-38038D02*
X74890Y-38038D01*
X74890Y-38038D02*
X74890Y-38654D01*
X70219Y-39184D02*
X70219Y-40342D01*
X70219Y-40342D02*
X69603Y-40342D01*
X69603Y-40342D02*
X69603Y-39184D01*
X69603Y-39184D02*
X70219Y-39184D01*
X70219Y-40385D02*
X70219Y-41543D01*
X70219Y-41543D02*
X69603Y-41543D01*
X69603Y-41543D02*
X69603Y-40385D01*
X69603Y-40385D02*
X70219Y-40385D01*
X64442Y-42491D02*
X64442Y-43649D01*
X64442Y-43649D02*
X63825Y-43649D01*
X63825Y-43649D02*
X63825Y-42491D01*
X63825Y-42491D02*
X64442Y-42491D01*
X56611Y-45194D02*
X56611Y-46352D01*
X56611Y-46352D02*
X55994Y-46352D01*
X55994Y-46352D02*
X55994Y-45194D01*
X55994Y-45194D02*
X56611Y-45194D01*
X54521Y-47438D02*
X54521Y-46280D01*
X54521Y-46280D02*
X55138Y-46280D01*
X55138Y-46280D02*
X55138Y-47438D01*
X55138Y-47438D02*
X54521Y-47438D01*
X54324Y-45824D02*
X54324Y-44666D01*
X54324Y-44666D02*
X54941Y-44666D01*
X54941Y-44666D02*
X54941Y-45824D01*
X54941Y-45824D02*
X54324Y-45824D01*
X57574Y-44031D02*
X58732Y-44031D01*
X58732Y-44031D02*
X58732Y-44648D01*
X58732Y-44648D02*
X57574Y-44648D01*
X57574Y-44648D02*
X57574Y-44031D01*
X54119Y-44662D02*
X54119Y-45820D01*
X54119Y-45820D02*
X53502Y-45820D01*
X53502Y-45820D02*
X53502Y-44662D01*
X53502Y-44662D02*
X54119Y-44662D01*
X55131Y-45824D02*
X55131Y-44666D01*
X55131Y-44666D02*
X55748Y-44666D01*
X55748Y-44666D02*
X55748Y-45824D01*
X55748Y-45824D02*
X55131Y-45824D01*
X55961Y-46532D02*
X55961Y-47690D01*
X55961Y-47690D02*
X55344Y-47690D01*
X55344Y-47690D02*
X55344Y-46532D01*
X55344Y-46532D02*
X55961Y-46532D01*
X59779Y-44995D02*
X60937Y-44995D01*
X60937Y-44995D02*
X60937Y-45612D01*
X60937Y-45612D02*
X59779Y-45612D01*
X59779Y-45612D02*
X59779Y-44995D01*
X59440Y-45794D02*
X60598Y-45794D01*
X60598Y-45794D02*
X60598Y-46411D01*
X60598Y-46411D02*
X59440Y-46411D01*
X59440Y-46411D02*
X59440Y-45794D01*
X57890Y-46278D02*
X56732Y-46278D01*
X56732Y-46278D02*
X56732Y-45661D01*
X56732Y-45661D02*
X57890Y-45661D01*
X57890Y-45661D02*
X57890Y-46278D01*
X60525Y-37379D02*
X60525Y-36221D01*
X60525Y-36221D02*
X61142Y-36221D01*
X61142Y-36221D02*
X61142Y-37379D01*
X61142Y-37379D02*
X60525Y-37379D01*
X62615Y-35233D02*
X62615Y-36391D01*
X62615Y-36391D02*
X61998Y-36391D01*
X61998Y-36391D02*
X61998Y-35233D01*
X61998Y-35233D02*
X62615Y-35233D01*
X62772Y-36631D02*
X62772Y-37789D01*
X62772Y-37789D02*
X62155Y-37789D01*
X62155Y-37789D02*
X62155Y-36631D01*
X62155Y-36631D02*
X62772Y-36631D01*
X59543Y-38502D02*
X58385Y-38502D01*
X58385Y-38502D02*
X58385Y-37885D01*
X58385Y-37885D02*
X59543Y-37885D01*
X59543Y-37885D02*
X59543Y-38502D01*
X62958Y-37793D02*
X62958Y-36635D01*
X62958Y-36635D02*
X63575Y-36635D01*
X63575Y-36635D02*
X63575Y-37793D01*
X63575Y-37793D02*
X62958Y-37793D01*
X61953Y-36662D02*
X61953Y-37820D01*
X61953Y-37820D02*
X61336Y-37820D01*
X61336Y-37820D02*
X61336Y-36662D01*
X61336Y-36662D02*
X61953Y-36662D01*
X61147Y-36186D02*
X61147Y-35028D01*
X61147Y-35028D02*
X61764Y-35028D01*
X61764Y-35028D02*
X61764Y-36186D01*
X61764Y-36186D02*
X61147Y-36186D01*
X57327Y-37683D02*
X56169Y-37683D01*
X56169Y-37683D02*
X56169Y-37066D01*
X56169Y-37066D02*
X57327Y-37066D01*
X57327Y-37066D02*
X57327Y-37683D01*
X57606Y-36856D02*
X56448Y-36856D01*
X56448Y-36856D02*
X56448Y-36239D01*
X56448Y-36239D02*
X57606Y-36239D01*
X57606Y-36239D02*
X57606Y-36856D01*
X59220Y-36287D02*
X60378Y-36287D01*
X60378Y-36287D02*
X60378Y-36904D01*
X60378Y-36904D02*
X59220Y-36904D01*
X59220Y-36904D02*
X59220Y-36287D01*
X71184Y-40651D02*
X71184Y-41474D01*
X71184Y-41474D02*
X70804Y-41474D01*
X70804Y-41474D02*
X70804Y-40651D01*
X70804Y-40651D02*
X71184Y-40651D01*
X71773Y-44780D02*
X72596Y-44780D01*
X72596Y-44780D02*
X72596Y-45160D01*
X72596Y-45160D02*
X71773Y-45160D01*
X71773Y-45160D02*
X71773Y-44780D01*
X69617Y-44239D02*
X70441Y-44239D01*
X70441Y-44239D02*
X70441Y-44619D01*
X70441Y-44619D02*
X69617Y-44619D01*
X69617Y-44619D02*
X69617Y-44239D01*
X43556Y-51507D02*
X43556Y-52330D01*
X43556Y-52330D02*
X43176Y-52330D01*
X43176Y-52330D02*
X43176Y-51507D01*
X43176Y-51507D02*
X43556Y-51507D01*
X49233Y-52644D02*
X50057Y-52644D01*
X50057Y-52644D02*
X50057Y-53024D01*
X50057Y-53024D02*
X49233Y-53024D01*
X49233Y-53024D02*
X49233Y-52644D01*
X44156Y-58830D02*
X44156Y-59653D01*
X44156Y-59653D02*
X43776Y-59653D01*
X43776Y-59653D02*
X43776Y-58830D01*
X43776Y-58830D02*
X44156Y-58830D01*
X50145Y-59314D02*
X49322Y-59314D01*
X49322Y-59314D02*
X49322Y-58934D01*
X49322Y-58934D02*
X50145Y-58934D01*
X50145Y-58934D02*
X50145Y-59314D01*
X68462Y-51863D02*
X67639Y-51863D01*
X67639Y-51863D02*
X67639Y-51483D01*
X67639Y-51483D02*
X68462Y-51483D01*
X68462Y-51483D02*
X68462Y-51863D01*
X75460Y-51922D02*
X74637Y-51922D01*
X74637Y-51922D02*
X74637Y-51542D01*
X74637Y-51542D02*
X75460Y-51542D01*
X75460Y-51542D02*
X75460Y-51922D01*
X66410Y-59155D02*
X66410Y-59978D01*
X66410Y-59978D02*
X66030Y-59978D01*
X66030Y-59978D02*
X66030Y-59155D01*
X66030Y-59155D02*
X66410Y-59155D01*
X73738Y-60170D02*
X72915Y-60170D01*
X72915Y-60170D02*
X72915Y-59790D01*
X72915Y-59790D02*
X73738Y-59790D01*
X73738Y-59790D02*
X73738Y-60170D01*
X73525Y-29770D02*
X74348Y-29770D01*
X74348Y-29770D02*
X74348Y-30150D01*
X74348Y-30150D02*
X73525Y-30150D01*
X73525Y-30150D02*
X73525Y-29770D01*
X67222Y-30091D02*
X66399Y-30091D01*
X66399Y-30091D02*
X66399Y-29711D01*
X66399Y-29711D02*
X67222Y-29711D01*
X67222Y-29711D02*
X67222Y-30091D01*
X73732Y-24111D02*
X74555Y-24111D01*
X74555Y-24111D02*
X74555Y-24491D01*
X74555Y-24491D02*
X73732Y-24491D01*
X73732Y-24491D02*
X73732Y-24111D01*
X66266Y-23512D02*
X66266Y-22688D01*
X66266Y-22688D02*
X66646Y-22688D01*
X66646Y-22688D02*
X66646Y-23512D01*
X66646Y-23512D02*
X66266Y-23512D01*
X49880Y-31075D02*
X49056Y-31075D01*
X49056Y-31075D02*
X49056Y-30695D01*
X49056Y-30695D02*
X49880Y-30695D01*
X49880Y-30695D02*
X49880Y-31075D01*
X42127Y-30656D02*
X42951Y-30656D01*
X42951Y-30656D02*
X42951Y-31036D01*
X42951Y-31036D02*
X42127Y-31036D01*
X42127Y-31036D02*
X42127Y-30656D01*
X49332Y-23963D02*
X50155Y-23963D01*
X50155Y-23963D02*
X50155Y-24343D01*
X50155Y-24343D02*
X49332Y-24343D01*
X49332Y-24343D02*
X49332Y-23963D01*
X43103Y-23525D02*
X43103Y-24348D01*
X43103Y-24348D02*
X42723Y-24348D01*
X42723Y-24348D02*
X42723Y-23525D01*
X42723Y-23525D02*
X43103Y-23525D01*
X68319Y-41045D02*
X68319Y-41868D01*
X68319Y-41868D02*
X67939Y-41868D01*
X67939Y-41868D02*
X67939Y-41045D01*
X67939Y-41045D02*
X68319Y-41045D01*
X71409Y-39780D02*
X72232Y-39780D01*
X72232Y-39780D02*
X72232Y-40160D01*
X72232Y-40160D02*
X71409Y-40160D01*
X71409Y-40160D02*
X71409Y-39780D01*
X41758Y-47163D02*
X41758Y-46340D01*
X41758Y-46340D02*
X42138Y-46340D01*
X42138Y-46340D02*
X42138Y-47163D01*
X42138Y-47163D02*
X41758Y-47163D01*
X40987Y-50631D02*
X40987Y-51454D01*
X40987Y-51454D02*
X40607Y-51454D01*
X40607Y-51454D02*
X40607Y-50631D01*
X40607Y-50631D02*
X40987Y-50631D01*
X40529Y-48812D02*
X39706Y-48812D01*
X39706Y-48812D02*
X39706Y-48432D01*
X39706Y-48432D02*
X40529Y-48432D01*
X40529Y-48432D02*
X40529Y-48812D01*
X43423Y-52975D02*
X42600Y-52975D01*
X42600Y-52975D02*
X42600Y-52595D01*
X42600Y-52595D02*
X43423Y-52595D01*
X43423Y-52595D02*
X43423Y-52975D01*
X44627Y-48432D02*
X45451Y-48432D01*
X45451Y-48432D02*
X45451Y-48812D01*
X45451Y-48812D02*
X44627Y-48812D01*
X44627Y-48812D02*
X44627Y-48432D01*
X44627Y-50105D02*
X45451Y-50105D01*
X45451Y-50105D02*
X45451Y-50485D01*
X45451Y-50485D02*
X44627Y-50485D01*
X44627Y-50485D02*
X44627Y-50105D01*
X43024Y-51517D02*
X43024Y-52340D01*
X43024Y-52340D02*
X42644Y-52340D01*
X42644Y-52340D02*
X42644Y-51517D01*
X42644Y-51517D02*
X43024Y-51517D01*
X42453Y-51517D02*
X42453Y-52340D01*
X42453Y-52340D02*
X42073Y-52340D01*
X42073Y-52340D02*
X42073Y-51517D01*
X42073Y-51517D02*
X42453Y-51517D01*
X40160Y-49322D02*
X40160Y-50145D01*
X40160Y-50145D02*
X39780Y-50145D01*
X39780Y-50145D02*
X39780Y-49322D01*
X39780Y-49322D02*
X40160Y-49322D01*
X40529Y-48319D02*
X39706Y-48319D01*
X39706Y-48319D02*
X39706Y-47939D01*
X39706Y-47939D02*
X40529Y-47939D01*
X40529Y-47939D02*
X40529Y-48319D01*
X44627Y-47939D02*
X45451Y-47939D01*
X45451Y-47939D02*
X45451Y-48319D01*
X45451Y-48319D02*
X44627Y-48319D01*
X44627Y-48319D02*
X44627Y-47939D01*
X51704Y-50213D02*
X52527Y-50213D01*
X52527Y-50213D02*
X52527Y-50593D01*
X52527Y-50593D02*
X51704Y-50593D01*
X51704Y-50593D02*
X51704Y-50213D01*
X47577Y-48812D02*
X46753Y-48812D01*
X46753Y-48812D02*
X46753Y-48432D01*
X46753Y-48432D02*
X47577Y-48432D01*
X47577Y-48432D02*
X47577Y-48812D01*
X48595Y-51704D02*
X48595Y-52527D01*
X48595Y-52527D02*
X48215Y-52527D01*
X48215Y-52527D02*
X48215Y-51704D01*
X48215Y-51704D02*
X48595Y-51704D01*
X49160Y-47163D02*
X49160Y-46340D01*
X49160Y-46340D02*
X49540Y-46340D01*
X49540Y-46340D02*
X49540Y-47163D01*
X49540Y-47163D02*
X49160Y-47163D01*
X51812Y-48432D02*
X52636Y-48432D01*
X52636Y-48432D02*
X52636Y-48812D01*
X52636Y-48812D02*
X51812Y-48812D01*
X51812Y-48812D02*
X51812Y-48432D01*
X47788Y-49962D02*
X47788Y-50785D01*
X47788Y-50785D02*
X47408Y-50785D01*
X47408Y-50785D02*
X47408Y-49962D01*
X47408Y-49962D02*
X47788Y-49962D01*
X50071Y-51694D02*
X50071Y-52517D01*
X50071Y-52517D02*
X49691Y-52517D01*
X49691Y-52517D02*
X49691Y-51694D01*
X49691Y-51694D02*
X50071Y-51694D01*
X49579Y-51694D02*
X49579Y-52517D01*
X49579Y-52517D02*
X49199Y-52517D01*
X49199Y-52517D02*
X49199Y-51694D01*
X49199Y-51694D02*
X49579Y-51694D01*
X47296Y-49548D02*
X47296Y-50372D01*
X47296Y-50372D02*
X46916Y-50372D01*
X46916Y-50372D02*
X46916Y-49548D01*
X46916Y-49548D02*
X47296Y-49548D01*
X47577Y-48319D02*
X46753Y-48319D01*
X46753Y-48319D02*
X46753Y-47939D01*
X46753Y-47939D02*
X47577Y-47939D01*
X47577Y-47939D02*
X47577Y-48319D01*
X51812Y-47939D02*
X52636Y-47939D01*
X52636Y-47939D02*
X52636Y-48319D01*
X52636Y-48319D02*
X51812Y-48319D01*
X51812Y-48319D02*
X51812Y-47939D01*
X42473Y-57058D02*
X42473Y-57882D01*
X42473Y-57882D02*
X42093Y-57882D01*
X42093Y-57882D02*
X42093Y-57058D01*
X42093Y-57058D02*
X42473Y-57058D01*
X39750Y-57203D02*
X39750Y-56379D01*
X39750Y-56379D02*
X40130Y-56379D01*
X40130Y-56379D02*
X40130Y-57203D01*
X40130Y-57203D02*
X39750Y-57203D01*
X39750Y-55214D02*
X39750Y-54391D01*
X39750Y-54391D02*
X40130Y-54391D01*
X40130Y-54391D02*
X40130Y-55214D01*
X40130Y-55214D02*
X39750Y-55214D01*
X41581Y-52852D02*
X41581Y-52029D01*
X41581Y-52029D02*
X41961Y-52029D01*
X41961Y-52029D02*
X41961Y-52852D01*
X41961Y-52852D02*
X41581Y-52852D01*
X43909Y-52890D02*
X44732Y-52890D01*
X44732Y-52890D02*
X44732Y-53270D01*
X44732Y-53270D02*
X43909Y-53270D01*
X43909Y-53270D02*
X43909Y-52890D01*
X43097Y-47163D02*
X43097Y-46340D01*
X43097Y-46340D02*
X43477Y-46340D01*
X43477Y-46340D02*
X43477Y-47163D01*
X43477Y-47163D02*
X43097Y-47163D01*
X44908Y-56947D02*
X44908Y-56123D01*
X44908Y-56123D02*
X45288Y-56123D01*
X45288Y-56123D02*
X45288Y-56947D01*
X45288Y-56947D02*
X44908Y-56947D01*
X45288Y-55198D02*
X45288Y-56021D01*
X45288Y-56021D02*
X44908Y-56021D01*
X44908Y-56021D02*
X44908Y-55198D01*
X44908Y-55198D02*
X45288Y-55198D01*
X40130Y-55454D02*
X40130Y-56277D01*
X40130Y-56277D02*
X39750Y-56277D01*
X39750Y-56277D02*
X39750Y-55454D01*
X39750Y-55454D02*
X40130Y-55454D01*
X40623Y-53879D02*
X40623Y-54703D01*
X40623Y-54703D02*
X40243Y-54703D01*
X40243Y-54703D02*
X40243Y-53879D01*
X40243Y-53879D02*
X40623Y-53879D01*
X44432Y-54191D02*
X44432Y-53367D01*
X44432Y-53367D02*
X44812Y-53367D01*
X44812Y-53367D02*
X44812Y-54191D01*
X44812Y-54191D02*
X44432Y-54191D01*
X51822Y-55823D02*
X52645Y-55823D01*
X52645Y-55823D02*
X52645Y-56203D01*
X52645Y-56203D02*
X51822Y-56203D01*
X51822Y-56203D02*
X51822Y-55823D01*
X46896Y-57203D02*
X46896Y-56379D01*
X46896Y-56379D02*
X47276Y-56379D01*
X47276Y-56379D02*
X47276Y-57203D01*
X47276Y-57203D02*
X46896Y-57203D01*
X46896Y-55214D02*
X46896Y-54391D01*
X46896Y-54391D02*
X47276Y-54391D01*
X47276Y-54391D02*
X47276Y-55214D01*
X47276Y-55214D02*
X46896Y-55214D01*
X50184Y-53029D02*
X50184Y-52206D01*
X50184Y-52206D02*
X50564Y-52206D01*
X50564Y-52206D02*
X50564Y-53029D01*
X50564Y-53029D02*
X50184Y-53029D01*
X52315Y-52856D02*
X52315Y-53679D01*
X52315Y-53679D02*
X51935Y-53679D01*
X51935Y-53679D02*
X51935Y-52856D01*
X51935Y-52856D02*
X52315Y-52856D01*
X47768Y-55867D02*
X47768Y-56691D01*
X47768Y-56691D02*
X47388Y-56691D01*
X47388Y-56691D02*
X47388Y-55867D01*
X47388Y-55867D02*
X47768Y-55867D01*
X48707Y-53029D02*
X48707Y-52206D01*
X48707Y-52206D02*
X49087Y-52206D01*
X49087Y-52206D02*
X49087Y-53029D01*
X49087Y-53029D02*
X48707Y-53029D01*
X49077Y-58338D02*
X49077Y-59161D01*
X49077Y-59161D02*
X48697Y-59161D01*
X48697Y-59161D02*
X48697Y-58338D01*
X48697Y-58338D02*
X49077Y-58338D01*
X47276Y-55454D02*
X47276Y-56277D01*
X47276Y-56277D02*
X46896Y-56277D01*
X46896Y-56277D02*
X46896Y-55454D01*
X46896Y-55454D02*
X47276Y-55454D01*
X47768Y-53879D02*
X47768Y-54703D01*
X47768Y-54703D02*
X47388Y-54703D01*
X47388Y-54703D02*
X47388Y-53879D01*
X47388Y-53879D02*
X47768Y-53879D01*
X51443Y-54191D02*
X51443Y-53367D01*
X51443Y-53367D02*
X51823Y-53367D01*
X51823Y-53367D02*
X51823Y-54191D01*
X51823Y-54191D02*
X51443Y-54191D01*
X67546Y-52951D02*
X67546Y-52127D01*
X67546Y-52127D02*
X67926Y-52127D01*
X67926Y-52127D02*
X67926Y-52951D01*
X67926Y-52951D02*
X67546Y-52951D01*
X64565Y-48910D02*
X63741Y-48910D01*
X63741Y-48910D02*
X63741Y-48530D01*
X63741Y-48530D02*
X64565Y-48530D01*
X64565Y-48530D02*
X64565Y-48910D01*
X67585Y-47163D02*
X67585Y-46340D01*
X67585Y-46340D02*
X67965Y-46340D01*
X67965Y-46340D02*
X67965Y-47163D01*
X67965Y-47163D02*
X67585Y-47163D01*
X66207Y-47163D02*
X66207Y-46340D01*
X66207Y-46340D02*
X66587Y-46340D01*
X66587Y-46340D02*
X66587Y-47163D01*
X66587Y-47163D02*
X66207Y-47163D01*
X69037Y-48432D02*
X69860Y-48432D01*
X69860Y-48432D02*
X69860Y-48812D01*
X69860Y-48812D02*
X69037Y-48812D01*
X69037Y-48812D02*
X69037Y-48432D01*
X64711Y-51297D02*
X64711Y-50474D01*
X64711Y-50474D02*
X65091Y-50474D01*
X65091Y-50474D02*
X65091Y-51297D01*
X65091Y-51297D02*
X64711Y-51297D01*
X67453Y-51615D02*
X67453Y-52439D01*
X67453Y-52439D02*
X67073Y-52439D01*
X67073Y-52439D02*
X67073Y-51615D01*
X67073Y-51615D02*
X67453Y-51615D01*
X66863Y-51615D02*
X66863Y-52439D01*
X66863Y-52439D02*
X66483Y-52439D01*
X66483Y-52439D02*
X66483Y-51615D01*
X66483Y-51615D02*
X66863Y-51615D01*
X65091Y-49548D02*
X65091Y-50372D01*
X65091Y-50372D02*
X64711Y-50372D01*
X64711Y-50372D02*
X64711Y-49548D01*
X64711Y-49548D02*
X65091Y-49548D01*
X64888Y-48285D02*
X64888Y-47462D01*
X64888Y-47462D02*
X65268Y-47462D01*
X65268Y-47462D02*
X65268Y-48285D01*
X65268Y-48285D02*
X64888Y-48285D01*
X69037Y-47939D02*
X69860Y-47939D01*
X69860Y-47939D02*
X69860Y-48319D01*
X69860Y-48319D02*
X69037Y-48319D01*
X69037Y-48319D02*
X69037Y-47939D01*
X74514Y-52970D02*
X74514Y-52147D01*
X74514Y-52147D02*
X74894Y-52147D01*
X74894Y-52147D02*
X74894Y-52970D01*
X74894Y-52970D02*
X74514Y-52970D01*
X74357Y-47143D02*
X74357Y-46320D01*
X74357Y-46320D02*
X74737Y-46320D01*
X74737Y-46320D02*
X74737Y-47143D01*
X74737Y-47143D02*
X74357Y-47143D01*
X72065Y-48812D02*
X71241Y-48812D01*
X71241Y-48812D02*
X71241Y-48432D01*
X71241Y-48432D02*
X72065Y-48432D01*
X72065Y-48432D02*
X72065Y-48812D01*
X73215Y-47143D02*
X73215Y-46320D01*
X73215Y-46320D02*
X73595Y-46320D01*
X73595Y-46320D02*
X73595Y-47143D01*
X73595Y-47143D02*
X73215Y-47143D01*
X75966Y-48432D02*
X76789Y-48432D01*
X76789Y-48432D02*
X76789Y-48812D01*
X76789Y-48812D02*
X75966Y-48812D01*
X75966Y-48812D02*
X75966Y-48432D01*
X72449Y-50859D02*
X71625Y-50859D01*
X71625Y-50859D02*
X71625Y-50479D01*
X71625Y-50479D02*
X72449Y-50479D01*
X72449Y-50479D02*
X72449Y-50859D01*
X74402Y-51635D02*
X74402Y-52458D01*
X74402Y-52458D02*
X74022Y-52458D01*
X74022Y-52458D02*
X74022Y-51635D01*
X74022Y-51635D02*
X74402Y-51635D01*
X73890Y-51635D02*
X73890Y-52458D01*
X73890Y-52458D02*
X73510Y-52458D01*
X73510Y-52458D02*
X73510Y-51635D01*
X73510Y-51635D02*
X73890Y-51635D01*
X72001Y-49548D02*
X72001Y-50372D01*
X72001Y-50372D02*
X71621Y-50372D01*
X71621Y-50372D02*
X71621Y-49548D01*
X71621Y-49548D02*
X72001Y-49548D01*
X72065Y-48319D02*
X71241Y-48319D01*
X71241Y-48319D02*
X71241Y-47939D01*
X71241Y-47939D02*
X72065Y-47939D01*
X72065Y-47939D02*
X72065Y-48319D01*
X75966Y-47920D02*
X76789Y-47920D01*
X76789Y-47920D02*
X76789Y-48300D01*
X76789Y-48300D02*
X75966Y-48300D01*
X75966Y-48300D02*
X75966Y-47920D01*
X68948Y-56315D02*
X69771Y-56315D01*
X69771Y-56315D02*
X69771Y-56695D01*
X69771Y-56695D02*
X68948Y-56695D01*
X68948Y-56695D02*
X68948Y-56315D01*
X64565Y-49402D02*
X63741Y-49402D01*
X63741Y-49402D02*
X63741Y-49022D01*
X63741Y-49022D02*
X64565Y-49022D01*
X64565Y-49022D02*
X64565Y-49402D01*
X64958Y-54717D02*
X64135Y-54717D01*
X64135Y-54717D02*
X64135Y-54337D01*
X64135Y-54337D02*
X64958Y-54337D01*
X64958Y-54337D02*
X64958Y-54717D01*
X65991Y-52951D02*
X65991Y-52127D01*
X65991Y-52127D02*
X66371Y-52127D01*
X66371Y-52127D02*
X66371Y-52951D01*
X66371Y-52951D02*
X65991Y-52951D01*
X69115Y-54337D02*
X69939Y-54337D01*
X69939Y-54337D02*
X69939Y-54717D01*
X69939Y-54717D02*
X69115Y-54717D01*
X69115Y-54717D02*
X69115Y-54337D01*
X64573Y-57203D02*
X64573Y-56379D01*
X64573Y-56379D02*
X64953Y-56379D01*
X64953Y-56379D02*
X64953Y-57203D01*
X64953Y-57203D02*
X64573Y-57203D01*
X68928Y-50252D02*
X69752Y-50252D01*
X69752Y-50252D02*
X69752Y-50632D01*
X69752Y-50632D02*
X68928Y-50632D01*
X68928Y-50632D02*
X68928Y-50252D01*
X66839Y-57119D02*
X66839Y-57943D01*
X66839Y-57943D02*
X66459Y-57943D01*
X66459Y-57943D02*
X66459Y-57119D01*
X66459Y-57119D02*
X66839Y-57119D01*
X64953Y-55454D02*
X64953Y-56277D01*
X64953Y-56277D02*
X64573Y-56277D01*
X64573Y-56277D02*
X64573Y-55454D01*
X64573Y-55454D02*
X64953Y-55454D01*
X64958Y-54225D02*
X64135Y-54225D01*
X64135Y-54225D02*
X64135Y-53845D01*
X64135Y-53845D02*
X64958Y-53845D01*
X64958Y-53845D02*
X64958Y-54225D01*
X69115Y-53845D02*
X69939Y-53845D01*
X69939Y-53845D02*
X69939Y-54225D01*
X69939Y-54225D02*
X69115Y-54225D01*
X69115Y-54225D02*
X69115Y-53845D01*
X73800Y-57135D02*
X73800Y-57958D01*
X73800Y-57958D02*
X73420Y-57958D01*
X73420Y-57958D02*
X73420Y-57135D01*
X73420Y-57135D02*
X73800Y-57135D01*
X76227Y-57183D02*
X76227Y-56359D01*
X76227Y-56359D02*
X76607Y-56359D01*
X76607Y-56359D02*
X76607Y-57183D01*
X76607Y-57183D02*
X76227Y-57183D01*
X72045Y-54717D02*
X71222Y-54717D01*
X71222Y-54717D02*
X71222Y-54337D01*
X71222Y-54337D02*
X72045Y-54337D01*
X72045Y-54337D02*
X72045Y-54717D01*
X73018Y-52970D02*
X73018Y-52147D01*
X73018Y-52147D02*
X73398Y-52147D01*
X73398Y-52147D02*
X73398Y-52970D01*
X73398Y-52970D02*
X73018Y-52970D01*
X76123Y-54337D02*
X76947Y-54337D01*
X76947Y-54337D02*
X76947Y-54717D01*
X76947Y-54717D02*
X76123Y-54717D01*
X76123Y-54717D02*
X76123Y-54337D01*
X71640Y-57203D02*
X71640Y-56379D01*
X71640Y-56379D02*
X72020Y-56379D01*
X72020Y-56379D02*
X72020Y-57203D01*
X72020Y-57203D02*
X71640Y-57203D01*
X76607Y-55415D02*
X76607Y-56238D01*
X76607Y-56238D02*
X76227Y-56238D01*
X76227Y-56238D02*
X76227Y-55415D01*
X76227Y-55415D02*
X76607Y-55415D01*
X75966Y-49691D02*
X76789Y-49691D01*
X76789Y-49691D02*
X76789Y-50071D01*
X76789Y-50071D02*
X75966Y-50071D01*
X75966Y-50071D02*
X75966Y-49691D01*
X72020Y-55454D02*
X72020Y-56277D01*
X72020Y-56277D02*
X71640Y-56277D01*
X71640Y-56277D02*
X71640Y-55454D01*
X71640Y-55454D02*
X72020Y-55454D01*
X72045Y-54225D02*
X71222Y-54225D01*
X71222Y-54225D02*
X71222Y-53845D01*
X71222Y-53845D02*
X72045Y-53845D01*
X72045Y-53845D02*
X72045Y-54225D01*
X76123Y-53845D02*
X76947Y-53845D01*
X76947Y-53845D02*
X76947Y-54225D01*
X76947Y-54225D02*
X76123Y-54225D01*
X76123Y-54225D02*
X76123Y-53845D01*
X73378Y-35454D02*
X73378Y-36277D01*
X73378Y-36277D02*
X72998Y-36277D01*
X72998Y-36277D02*
X72998Y-35454D01*
X72998Y-35454D02*
X73378Y-35454D01*
X76123Y-34091D02*
X76947Y-34091D01*
X76947Y-34091D02*
X76947Y-34471D01*
X76947Y-34471D02*
X76123Y-34471D01*
X76123Y-34471D02*
X76123Y-34091D01*
X67453Y-35458D02*
X67453Y-36281D01*
X67453Y-36281D02*
X67073Y-36281D01*
X67073Y-36281D02*
X67073Y-35458D01*
X67073Y-35458D02*
X67453Y-35458D01*
X74587Y-35438D02*
X74587Y-36262D01*
X74587Y-36262D02*
X74207Y-36262D01*
X74207Y-36262D02*
X74207Y-35438D01*
X74207Y-35438D02*
X74587Y-35438D01*
X71868Y-34245D02*
X71045Y-34245D01*
X71045Y-34245D02*
X71045Y-33865D01*
X71045Y-33865D02*
X71868Y-33865D01*
X71868Y-33865D02*
X71868Y-34245D01*
X73471Y-31100D02*
X73471Y-30277D01*
X73471Y-30277D02*
X73851Y-30277D01*
X73851Y-30277D02*
X73851Y-31100D01*
X73851Y-31100D02*
X73471Y-31100D01*
X73983Y-31100D02*
X73983Y-30277D01*
X73983Y-30277D02*
X74363Y-30277D01*
X74363Y-30277D02*
X74363Y-31100D01*
X74363Y-31100D02*
X73983Y-31100D01*
X75513Y-31817D02*
X76336Y-31817D01*
X76336Y-31817D02*
X76336Y-32197D01*
X76336Y-32197D02*
X75513Y-32197D01*
X75513Y-32197D02*
X75513Y-31817D01*
X75951Y-33108D02*
X75951Y-32285D01*
X75951Y-32285D02*
X76331Y-32285D01*
X76331Y-32285D02*
X76331Y-33108D01*
X76331Y-33108D02*
X75951Y-33108D01*
X76123Y-34573D02*
X76947Y-34573D01*
X76947Y-34573D02*
X76947Y-34953D01*
X76947Y-34953D02*
X76123Y-34953D01*
X76123Y-34953D02*
X76123Y-34573D01*
X71868Y-34737D02*
X71045Y-34737D01*
X71045Y-34737D02*
X71045Y-34357D01*
X71045Y-34357D02*
X71868Y-34357D01*
X71868Y-34357D02*
X71868Y-34737D01*
X68978Y-33884D02*
X69801Y-33884D01*
X69801Y-33884D02*
X69801Y-34264D01*
X69801Y-34264D02*
X68978Y-34264D01*
X68978Y-34264D02*
X68978Y-33884D01*
X65057Y-32237D02*
X64233Y-32237D01*
X64233Y-32237D02*
X64233Y-31857D01*
X64233Y-31857D02*
X65057Y-31857D01*
X65057Y-31857D02*
X65057Y-32237D01*
X66233Y-29686D02*
X66233Y-30510D01*
X66233Y-30510D02*
X65853Y-30510D01*
X65853Y-30510D02*
X65853Y-29686D01*
X65853Y-29686D02*
X66233Y-29686D01*
X68781Y-31817D02*
X69604Y-31817D01*
X69604Y-31817D02*
X69604Y-32197D01*
X69604Y-32197D02*
X68781Y-32197D01*
X68781Y-32197D02*
X68781Y-31817D01*
X64899Y-35229D02*
X64076Y-35229D01*
X64076Y-35229D02*
X64076Y-34849D01*
X64076Y-34849D02*
X64899Y-34849D01*
X64899Y-34849D02*
X64899Y-35229D01*
X66312Y-35454D02*
X66312Y-36277D01*
X66312Y-36277D02*
X65932Y-36277D01*
X65932Y-36277D02*
X65932Y-35454D01*
X65932Y-35454D02*
X66312Y-35454D01*
X66896Y-31021D02*
X66896Y-30198D01*
X66896Y-30198D02*
X67276Y-30198D01*
X67276Y-30198D02*
X67276Y-31021D01*
X67276Y-31021D02*
X66896Y-31021D01*
X66345Y-31021D02*
X66345Y-30198D01*
X66345Y-30198D02*
X66725Y-30198D01*
X66725Y-30198D02*
X66725Y-31021D01*
X66725Y-31021D02*
X66345Y-31021D01*
X69258Y-33128D02*
X69258Y-32304D01*
X69258Y-32304D02*
X69638Y-32304D01*
X69638Y-32304D02*
X69638Y-33128D01*
X69638Y-33128D02*
X69258Y-33128D01*
X68978Y-34357D02*
X69801Y-34357D01*
X69801Y-34357D02*
X69801Y-34737D01*
X69801Y-34737D02*
X68978Y-34737D01*
X68978Y-34737D02*
X68978Y-34357D01*
X64899Y-34737D02*
X64076Y-34737D01*
X64076Y-34737D02*
X64076Y-34357D01*
X64076Y-34357D02*
X64899Y-34357D01*
X64899Y-34357D02*
X64899Y-34737D01*
X71266Y-26868D02*
X71266Y-26045D01*
X71266Y-26045D02*
X71646Y-26045D01*
X71646Y-26045D02*
X71646Y-26868D01*
X71646Y-26868D02*
X71266Y-26868D01*
X76371Y-25474D02*
X76371Y-26297D01*
X76371Y-26297D02*
X75991Y-26297D01*
X75991Y-26297D02*
X75991Y-25474D01*
X75991Y-25474D02*
X76371Y-25474D01*
X76025Y-27959D02*
X76848Y-27959D01*
X76848Y-27959D02*
X76848Y-28339D01*
X76848Y-28339D02*
X76025Y-28339D01*
X76025Y-28339D02*
X76025Y-27959D01*
X74855Y-29765D02*
X74855Y-30588D01*
X74855Y-30588D02*
X74475Y-30588D01*
X74475Y-30588D02*
X74475Y-29765D01*
X74475Y-29765D02*
X74855Y-29765D01*
X71927Y-28339D02*
X71104Y-28339D01*
X71104Y-28339D02*
X71104Y-27959D01*
X71104Y-27959D02*
X71927Y-27959D01*
X71927Y-27959D02*
X71927Y-28339D01*
X71646Y-25119D02*
X71646Y-25943D01*
X71646Y-25943D02*
X71266Y-25943D01*
X71266Y-25943D02*
X71266Y-25119D01*
X71266Y-25119D02*
X71646Y-25119D01*
X73359Y-29765D02*
X73359Y-30588D01*
X73359Y-30588D02*
X72979Y-30588D01*
X72979Y-30588D02*
X72979Y-29765D01*
X72979Y-29765D02*
X73359Y-29765D01*
X74361Y-25584D02*
X74361Y-24761D01*
X74361Y-24761D02*
X74741Y-24761D01*
X74741Y-24761D02*
X74741Y-25584D01*
X74741Y-25584D02*
X74361Y-25584D01*
X75991Y-27222D02*
X75991Y-26399D01*
X75991Y-26399D02*
X76371Y-26399D01*
X76371Y-26399D02*
X76371Y-27222D01*
X76371Y-27222D02*
X75991Y-27222D01*
X76025Y-28451D02*
X76848Y-28451D01*
X76848Y-28451D02*
X76848Y-28831D01*
X76848Y-28831D02*
X76025Y-28831D01*
X76025Y-28831D02*
X76025Y-28451D01*
X71927Y-28831D02*
X71104Y-28831D01*
X71104Y-28831D02*
X71104Y-28451D01*
X71104Y-28451D02*
X71927Y-28451D01*
X71927Y-28451D02*
X71927Y-28831D01*
X64658Y-25041D02*
X64658Y-25864D01*
X64658Y-25864D02*
X64278Y-25864D01*
X64278Y-25864D02*
X64278Y-25041D01*
X64278Y-25041D02*
X64658Y-25041D01*
X68919Y-27979D02*
X69742Y-27979D01*
X69742Y-27979D02*
X69742Y-28359D01*
X69742Y-28359D02*
X68919Y-28359D01*
X68919Y-28359D02*
X68919Y-27979D01*
X69599Y-25375D02*
X69599Y-26199D01*
X69599Y-26199D02*
X69219Y-26199D01*
X69219Y-26199D02*
X69219Y-25375D01*
X69219Y-25375D02*
X69599Y-25375D01*
X67768Y-29686D02*
X67768Y-30510D01*
X67768Y-30510D02*
X67388Y-30510D01*
X67388Y-30510D02*
X67388Y-29686D01*
X67388Y-29686D02*
X67768Y-29686D01*
X72075Y-32502D02*
X71251Y-32502D01*
X71251Y-32502D02*
X71251Y-32122D01*
X71251Y-32122D02*
X72075Y-32122D01*
X72075Y-32122D02*
X72075Y-32502D01*
X64840Y-29323D02*
X64017Y-29323D01*
X64017Y-29323D02*
X64017Y-28943D01*
X64017Y-28943D02*
X64840Y-28943D01*
X64840Y-28943D02*
X64840Y-29323D01*
X64278Y-26789D02*
X64278Y-25966D01*
X64278Y-25966D02*
X64658Y-25966D01*
X64658Y-25966D02*
X64658Y-26789D01*
X64658Y-26789D02*
X64278Y-26789D01*
X67329Y-25470D02*
X67329Y-24647D01*
X67329Y-24647D02*
X67709Y-24647D01*
X67709Y-24647D02*
X67709Y-25470D01*
X67709Y-25470D02*
X67329Y-25470D01*
X69199Y-27222D02*
X69199Y-26399D01*
X69199Y-26399D02*
X69579Y-26399D01*
X69579Y-26399D02*
X69579Y-27222D01*
X69579Y-27222D02*
X69199Y-27222D01*
X68919Y-28451D02*
X69742Y-28451D01*
X69742Y-28451D02*
X69742Y-28831D01*
X69742Y-28831D02*
X68919Y-28831D01*
X68919Y-28831D02*
X68919Y-28451D01*
X64840Y-28831D02*
X64017Y-28831D01*
X64017Y-28831D02*
X64017Y-28451D01*
X64017Y-28451D02*
X64840Y-28451D01*
X64840Y-28451D02*
X64840Y-28831D01*
X46935Y-33108D02*
X46935Y-32285D01*
X46935Y-32285D02*
X47315Y-32285D01*
X47315Y-32285D02*
X47315Y-33108D01*
X47315Y-33108D02*
X46935Y-33108D01*
X49987Y-31100D02*
X49987Y-30277D01*
X49987Y-30277D02*
X50367Y-30277D01*
X50367Y-30277D02*
X50367Y-31100D01*
X50367Y-31100D02*
X49987Y-31100D01*
X48550Y-31100D02*
X48550Y-30277D01*
X48550Y-30277D02*
X48930Y-30277D01*
X48930Y-30277D02*
X48930Y-31100D01*
X48930Y-31100D02*
X48550Y-31100D01*
X52276Y-33367D02*
X52276Y-34191D01*
X52276Y-34191D02*
X51896Y-34191D01*
X51896Y-34191D02*
X51896Y-33367D01*
X51896Y-33367D02*
X52276Y-33367D01*
X49382Y-29765D02*
X49382Y-30588D01*
X49382Y-30588D02*
X49002Y-30588D01*
X49002Y-30588D02*
X49002Y-29765D01*
X49002Y-29765D02*
X49382Y-29765D01*
X48989Y-35533D02*
X48989Y-36356D01*
X48989Y-36356D02*
X48609Y-36356D01*
X48609Y-36356D02*
X48609Y-35533D01*
X48609Y-35533D02*
X48989Y-35533D01*
X47616Y-35209D02*
X46793Y-35209D01*
X46793Y-35209D02*
X46793Y-34829D01*
X46793Y-34829D02*
X47616Y-34829D01*
X47616Y-34829D02*
X47616Y-35209D01*
X51725Y-31379D02*
X51725Y-32203D01*
X51725Y-32203D02*
X51345Y-32203D01*
X51345Y-32203D02*
X51345Y-31379D01*
X51345Y-31379D02*
X51725Y-31379D01*
X51345Y-33128D02*
X51345Y-32304D01*
X51345Y-32304D02*
X51725Y-32304D01*
X51725Y-32304D02*
X51725Y-33128D01*
X51725Y-33128D02*
X51345Y-33128D01*
X51404Y-34703D02*
X51404Y-33879D01*
X51404Y-33879D02*
X51784Y-33879D01*
X51784Y-33879D02*
X51784Y-34703D01*
X51784Y-34703D02*
X51404Y-34703D01*
X47616Y-34717D02*
X46793Y-34717D01*
X46793Y-34717D02*
X46793Y-34337D01*
X46793Y-34337D02*
X47616Y-34337D01*
X47616Y-34337D02*
X47616Y-34717D01*
X43398Y-35533D02*
X43398Y-36356D01*
X43398Y-36356D02*
X43018Y-36356D01*
X43018Y-36356D02*
X43018Y-35533D01*
X43018Y-35533D02*
X43398Y-35533D01*
X43069Y-31057D02*
X43069Y-30233D01*
X43069Y-30233D02*
X43449Y-30233D01*
X43449Y-30233D02*
X43449Y-31057D01*
X43449Y-31057D02*
X43069Y-31057D01*
X41463Y-31061D02*
X41463Y-30237D01*
X41463Y-30237D02*
X41843Y-30237D01*
X41843Y-30237D02*
X41843Y-31061D01*
X41843Y-31061D02*
X41463Y-31061D01*
X44529Y-33865D02*
X45352Y-33865D01*
X45352Y-33865D02*
X45352Y-34245D01*
X45352Y-34245D02*
X44529Y-34245D01*
X44529Y-34245D02*
X44529Y-33865D01*
X41961Y-35533D02*
X41961Y-36356D01*
X41961Y-36356D02*
X41581Y-36356D01*
X41581Y-36356D02*
X41581Y-35533D01*
X41581Y-35533D02*
X41961Y-35533D01*
X40490Y-34245D02*
X39667Y-34245D01*
X39667Y-34245D02*
X39667Y-33865D01*
X39667Y-33865D02*
X40490Y-33865D01*
X40490Y-33865D02*
X40490Y-34245D01*
X44430Y-31798D02*
X45254Y-31798D01*
X45254Y-31798D02*
X45254Y-32178D01*
X45254Y-32178D02*
X44430Y-32178D01*
X44430Y-32178D02*
X44430Y-31798D01*
X40342Y-32424D02*
X39519Y-32424D01*
X39519Y-32424D02*
X39519Y-32044D01*
X39519Y-32044D02*
X40342Y-32044D01*
X40342Y-32044D02*
X40342Y-32424D01*
X44869Y-33108D02*
X44869Y-32285D01*
X44869Y-32285D02*
X45249Y-32285D01*
X45249Y-32285D02*
X45249Y-33108D01*
X45249Y-33108D02*
X44869Y-33108D01*
X40490Y-34737D02*
X39667Y-34737D01*
X39667Y-34737D02*
X39667Y-34357D01*
X39667Y-34357D02*
X40490Y-34357D01*
X40490Y-34357D02*
X40490Y-34737D01*
X44529Y-34357D02*
X45352Y-34357D01*
X45352Y-34357D02*
X45352Y-34737D01*
X45352Y-34737D02*
X44529Y-34737D01*
X44529Y-34737D02*
X44529Y-34357D01*
X49947Y-25403D02*
X49947Y-24580D01*
X49947Y-24580D02*
X50327Y-24580D01*
X50327Y-24580D02*
X50327Y-25403D01*
X50327Y-25403D02*
X49947Y-25403D01*
X46916Y-27458D02*
X46916Y-26635D01*
X46916Y-26635D02*
X47296Y-26635D01*
X47296Y-26635D02*
X47296Y-27458D01*
X47296Y-27458D02*
X46916Y-27458D01*
X52414Y-25375D02*
X52414Y-26199D01*
X52414Y-26199D02*
X52034Y-26199D01*
X52034Y-26199D02*
X52034Y-25375D01*
X52034Y-25375D02*
X52414Y-25375D01*
X50339Y-35533D02*
X50339Y-36356D01*
X50339Y-36356D02*
X49959Y-36356D01*
X49959Y-36356D02*
X49959Y-35533D01*
X49959Y-35533D02*
X50339Y-35533D01*
X51556Y-27959D02*
X52380Y-27959D01*
X52380Y-27959D02*
X52380Y-28339D01*
X52380Y-28339D02*
X51556Y-28339D01*
X51556Y-28339D02*
X51556Y-27959D01*
X49875Y-29765D02*
X49875Y-30588D01*
X49875Y-30588D02*
X49495Y-30588D01*
X49495Y-30588D02*
X49495Y-29765D01*
X49495Y-29765D02*
X49875Y-29765D01*
X47296Y-25710D02*
X47296Y-26533D01*
X47296Y-26533D02*
X46916Y-26533D01*
X46916Y-26533D02*
X46916Y-25710D01*
X46916Y-25710D02*
X47296Y-25710D01*
X47636Y-28339D02*
X46812Y-28339D01*
X46812Y-28339D02*
X46812Y-27959D01*
X46812Y-27959D02*
X47636Y-27959D01*
X47636Y-27959D02*
X47636Y-28339D01*
X52014Y-27222D02*
X52014Y-26399D01*
X52014Y-26399D02*
X52394Y-26399D01*
X52394Y-26399D02*
X52394Y-27222D01*
X52394Y-27222D02*
X52014Y-27222D01*
X47636Y-28831D02*
X46812Y-28831D01*
X46812Y-28831D02*
X46812Y-28451D01*
X46812Y-28451D02*
X47636Y-28451D01*
X47636Y-28451D02*
X47636Y-28831D01*
X51556Y-28451D02*
X52380Y-28451D01*
X52380Y-28451D02*
X52380Y-28831D01*
X52380Y-28831D02*
X51556Y-28831D01*
X51556Y-28831D02*
X51556Y-28451D01*
X39849Y-27203D02*
X39849Y-26379D01*
X39849Y-26379D02*
X40229Y-26379D01*
X40229Y-26379D02*
X40229Y-27203D01*
X40229Y-27203D02*
X39849Y-27203D01*
X42335Y-29726D02*
X42335Y-30549D01*
X42335Y-30549D02*
X41955Y-30549D01*
X41955Y-30549D02*
X41955Y-29726D01*
X41955Y-29726D02*
X42335Y-29726D01*
X42965Y-29726D02*
X42965Y-30549D01*
X42965Y-30549D02*
X42585Y-30549D01*
X42585Y-30549D02*
X42585Y-29726D01*
X42585Y-29726D02*
X42965Y-29726D01*
X44548Y-27979D02*
X45372Y-27979D01*
X45372Y-27979D02*
X45372Y-28359D01*
X45372Y-28359D02*
X44548Y-28359D01*
X44548Y-28359D02*
X44548Y-27979D01*
X45327Y-25375D02*
X45327Y-26199D01*
X45327Y-26199D02*
X44947Y-26199D01*
X44947Y-26199D02*
X44947Y-25375D01*
X44947Y-25375D02*
X45327Y-25375D01*
X40470Y-28339D02*
X39647Y-28339D01*
X39647Y-28339D02*
X39647Y-27959D01*
X39647Y-27959D02*
X40470Y-27959D01*
X40470Y-27959D02*
X40470Y-28339D01*
X44947Y-27222D02*
X44947Y-26399D01*
X44947Y-26399D02*
X45327Y-26399D01*
X45327Y-26399D02*
X45327Y-27222D01*
X45327Y-27222D02*
X44947Y-27222D01*
X44548Y-28451D02*
X45372Y-28451D01*
X45372Y-28451D02*
X45372Y-28831D01*
X45372Y-28831D02*
X44548Y-28831D01*
X44548Y-28831D02*
X44548Y-28451D01*
X40229Y-25454D02*
X40229Y-26277D01*
X40229Y-26277D02*
X39849Y-26277D01*
X39849Y-26277D02*
X39849Y-25454D01*
X39849Y-25454D02*
X40229Y-25454D01*
X42715Y-25466D02*
X42715Y-24643D01*
X42715Y-24643D02*
X43095Y-24643D01*
X43095Y-24643D02*
X43095Y-25466D01*
X43095Y-25466D02*
X42715Y-25466D01*
X40470Y-28831D02*
X39647Y-28831D01*
X39647Y-28831D02*
X39647Y-28451D01*
X39647Y-28451D02*
X40470Y-28451D01*
X40470Y-28451D02*
X40470Y-28831D01*
X45439Y-27222D02*
X45439Y-26399D01*
X45439Y-26399D02*
X45819Y-26399D01*
X45819Y-26399D02*
X45819Y-27222D01*
X45819Y-27222D02*
X45439Y-27222D01*
X45361Y-33108D02*
X45361Y-32285D01*
X45361Y-32285D02*
X45741Y-32285D01*
X45741Y-32285D02*
X45741Y-33108D01*
X45741Y-33108D02*
X45361Y-33108D01*
X51837Y-32616D02*
X51837Y-31793D01*
X51837Y-31793D02*
X52217Y-31793D01*
X52217Y-31793D02*
X52217Y-32616D01*
X52217Y-32616D02*
X51837Y-32616D01*
X52506Y-27222D02*
X52506Y-26399D01*
X52506Y-26399D02*
X52886Y-26399D01*
X52886Y-26399D02*
X52886Y-27222D01*
X52886Y-27222D02*
X52506Y-27222D01*
X46804Y-49548D02*
X46804Y-50372D01*
X46804Y-50372D02*
X46424Y-50372D01*
X46424Y-50372D02*
X46424Y-49548D01*
X46424Y-49548D02*
X46804Y-49548D01*
X46784Y-55454D02*
X46784Y-56277D01*
X46784Y-56277D02*
X46404Y-56277D01*
X46404Y-56277D02*
X46404Y-55454D01*
X46404Y-55454D02*
X46784Y-55454D01*
X39638Y-55454D02*
X39638Y-56277D01*
X39638Y-56277D02*
X39258Y-56277D01*
X39258Y-56277D02*
X39258Y-55454D01*
X39258Y-55454D02*
X39638Y-55454D01*
X39668Y-49322D02*
X39668Y-50145D01*
X39668Y-50145D02*
X39288Y-50145D01*
X39288Y-50145D02*
X39288Y-49322D01*
X39288Y-49322D02*
X39668Y-49322D01*
X70431Y-44087D02*
X69608Y-44087D01*
X69608Y-44087D02*
X69608Y-43707D01*
X69608Y-43707D02*
X70431Y-43707D01*
X70431Y-43707D02*
X70431Y-44087D01*
X76483Y-27222D02*
X76483Y-26399D01*
X76483Y-26399D02*
X76863Y-26399D01*
X76863Y-26399D02*
X76863Y-27222D01*
X76863Y-27222D02*
X76483Y-27222D01*
X76478Y-32762D02*
X77301Y-32762D01*
X77301Y-32762D02*
X77301Y-33142D01*
X77301Y-33142D02*
X76478Y-33142D01*
X76478Y-33142D02*
X76478Y-32762D01*
X69731Y-33128D02*
X69731Y-32304D01*
X69731Y-32304D02*
X70111Y-32304D01*
X70111Y-32304D02*
X70111Y-33128D01*
X70111Y-33128D02*
X69731Y-33128D01*
X69691Y-27222D02*
X69691Y-26399D01*
X69691Y-26399D02*
X70071Y-26399D01*
X70071Y-26399D02*
X70071Y-27222D01*
X70071Y-27222D02*
X69691Y-27222D01*
X64599Y-49548D02*
X64599Y-50372D01*
X64599Y-50372D02*
X64219Y-50372D01*
X64219Y-50372D02*
X64219Y-49548D01*
X64219Y-49548D02*
X64599Y-49548D01*
X64461Y-55454D02*
X64461Y-56277D01*
X64461Y-56277D02*
X64081Y-56277D01*
X64081Y-56277D02*
X64081Y-55454D01*
X64081Y-55454D02*
X64461Y-55454D01*
X71528Y-55454D02*
X71528Y-56277D01*
X71528Y-56277D02*
X71148Y-56277D01*
X71148Y-56277D02*
X71148Y-55454D01*
X71148Y-55454D02*
X71528Y-55454D01*
X71508Y-49548D02*
X71508Y-50372D01*
X71508Y-50372D02*
X71128Y-50372D01*
X71128Y-50372D02*
X71128Y-49548D01*
X71128Y-49548D02*
X71508Y-49548D01*
M02*
